<svg width="152" height="31" viewBox="0 0 152 31" fill="none" xmlns="http://www.w3.org/2000/svg">
<path d="M21.6769 10.8384C21.6769 16.8243 16.8243 21.6769 10.8384 21.6769C4.85253 21.6769 0 16.8243 0 10.8384C0 4.85253 4.85253 0 10.8384 0C16.8243 0 21.6769 4.85253 21.6769 10.8384Z" fill="#E0EBA5"/>
<path d="M10.2664 16.8873C10.6137 17.2261 11.1924 17.2261 11.5561 16.8873L14.7639 13.7581C16.9795 11.5967 16.8968 8.01586 14.4828 5.98349C12.4491 4.24154 9.37359 4.24154 7.33983 5.9674C4.92571 8.01593 4.82654 11.5806 7.05876 13.7582L10.2664 16.8873ZM10.9113 7.62874C12.1514 7.62874 13.1435 8.5966 13.1435 9.80634C13.1435 11.0161 12.1514 11.9839 10.9113 11.9839C9.6712 11.9839 8.67906 11.0161 8.67906 9.80634C8.67918 8.5966 9.6712 7.62874 10.9113 7.62874Z" fill="#1C1C1C"/>
<path d="M33.5719 22.2133C31.2959 22.2133 29.3076 21.6788 27.6071 20.6099C25.9328 19.5149 24.7817 18.0418 24.1538 16.1907L27.9995 14.3526C28.5489 15.5519 29.3076 16.4905 30.2756 17.1684C31.2697 17.8463 32.3685 18.1852 33.5719 18.1852C34.5138 18.1852 35.2594 17.9766 35.8088 17.5595C36.3581 17.1423 36.6328 16.5948 36.6328 15.9169C36.6328 15.4998 36.5151 15.1608 36.2797 14.9001C36.0704 14.6133 35.7695 14.3787 35.3771 14.1962C35.0108 13.9876 34.6053 13.8181 34.1606 13.6878L30.668 12.7101C28.8629 12.1886 27.4894 11.3934 26.5476 10.3245C25.6319 9.25554 25.1741 7.99106 25.1741 6.53103C25.1741 5.22743 25.5011 4.0933 26.1552 3.12864C26.8354 2.1379 27.7641 1.36878 28.9414 0.821269C30.1448 0.273757 31.5183 0 33.0618 0C35.0762 0 36.8552 0.482332 38.3988 1.44699C39.9423 2.41166 41.0411 3.7674 41.6951 5.51422L37.7709 7.35229C37.4046 6.38763 36.7898 5.61851 35.9265 5.04492C35.0632 4.47134 34.0952 4.18455 33.0226 4.18455C32.1592 4.18455 31.479 4.38009 30.982 4.77117C30.4849 5.16225 30.2364 5.67065 30.2364 6.29638C30.2364 6.68746 30.341 7.02639 30.5503 7.31318C30.7596 7.59997 31.0474 7.83462 31.4136 8.01713C31.8061 8.19963 32.2508 8.3691 32.7479 8.52553L36.1619 9.54233C37.9148 10.0638 39.2621 10.8459 40.2039 11.8888C41.1719 12.9317 41.6559 14.2092 41.6559 15.7214C41.6559 16.9989 41.3158 18.133 40.6356 19.1238C39.9554 20.0884 39.0135 20.8445 37.8101 21.392C36.6067 21.9395 35.194 22.2133 33.5719 22.2133Z" fill="#1C1C1C"/>
<path d="M46.2435 30.3869C45.668 30.3869 45.1055 30.3347 44.5561 30.2304C44.0067 30.1522 43.5096 30.0088 43.0649 29.8002V25.4984C43.405 25.5766 43.8105 25.6548 44.2814 25.733C44.7785 25.8112 45.2363 25.8503 45.6549 25.8503C46.8322 25.8503 47.6824 25.5766 48.2056 25.0291C48.755 24.4816 49.239 23.7646 49.6576 22.8781L51.0703 19.5931L50.9918 23.8949L41.6914 0.469297H47.2246L53.7388 17.755H51.7767L58.2517 0.469297H63.8241L54.5236 23.8949C53.9742 25.2768 53.3071 26.45 52.5223 27.4147C51.7374 28.3793 50.8218 29.1093 49.7753 29.6047C48.755 30.1261 47.5778 30.3869 46.2435 30.3869Z" fill="#1C1C1C"/>
<path d="M65.0774 21.744V0.469297H69.9041V4.65385L69.5117 3.91079C70.0088 2.63327 70.8198 1.66861 71.9447 1.01681C73.0958 0.338936 74.4301 0 75.9475 0C77.5171 0 78.9037 0.338936 80.1071 1.01681C81.3367 1.69468 82.2916 2.64631 82.9718 3.87169C83.652 5.071 83.9921 6.46585 83.9921 8.05623V21.744H78.8514V9.26858C78.8514 8.32999 78.6682 7.52176 78.302 6.84389C77.9357 6.16602 77.4256 5.64458 76.7715 5.27957C76.1437 4.88849 75.3981 4.69295 74.5347 4.69295C73.6976 4.69295 72.952 4.88849 72.2979 5.27957C71.6439 5.64458 71.1337 6.16602 70.7675 6.84389C70.4012 7.52176 70.2181 8.32999 70.2181 9.26858V21.744H65.0774Z" fill="#1C1C1C"/>
<path d="M97.0509 22.2133C94.9318 22.2133 93.022 21.731 91.3215 20.7663C89.6472 19.7756 88.326 18.4459 87.3581 16.7773C86.3901 15.0826 85.9061 13.1794 85.9061 11.0675C85.9061 8.95572 86.3901 7.0655 87.3581 5.3969C88.326 3.72829 89.6472 2.41166 91.3215 1.44699C93.022 0.482332 94.9318 0 97.0509 0C98.5683 0 99.981 0.273757 101.289 0.821269C102.597 1.34271 103.722 2.07272 104.664 3.01131C105.632 3.92383 106.325 5.01885 106.744 6.29638L102.231 8.25177C101.838 7.18282 101.171 6.32245 100.23 5.67065C99.3139 5.01885 98.2543 4.69295 97.0509 4.69295C95.926 4.69295 94.9187 4.96671 94.0292 5.51422C93.1659 6.06173 92.4857 6.81782 91.9886 7.78248C91.4916 8.74714 91.243 9.8552 91.243 11.1067C91.243 12.3581 91.4916 13.4662 91.9886 14.4308C92.4857 15.3955 93.1659 16.1516 94.0292 16.6991C94.9187 17.2466 95.926 17.5204 97.0509 17.5204C98.2805 17.5204 99.3531 17.1945 100.269 16.5427C101.184 15.8909 101.838 15.0174 102.231 13.9224L106.744 15.956C106.325 17.1553 105.645 18.2373 104.703 19.202C103.761 20.1406 102.636 20.8836 101.328 21.4311C100.02 21.9526 98.5944 22.2133 97.0509 22.2133Z" fill="#1C1C1C"/>
<path d="M112.77 21V13.55H115.91C116.377 13.55 116.78 13.6333 117.12 13.8C117.46 13.96 117.72 14.1933 117.9 14.5C118.08 14.8 118.17 15.1567 118.17 15.57C118.17 15.93 118.077 16.26 117.89 16.56C117.71 16.8533 117.427 17.0867 117.04 17.26V16.76C117.38 16.8933 117.657 17.0633 117.87 17.27C118.083 17.47 118.237 17.6967 118.33 17.95C118.43 18.2033 118.48 18.47 118.48 18.75C118.48 19.45 118.25 20 117.79 20.4C117.337 20.8 116.713 21 115.92 21H112.77ZM113.95 19.95H116.01C116.403 19.95 116.717 19.8433 116.95 19.63C117.183 19.41 117.3 19.12 117.3 18.76C117.3 18.3933 117.183 18.1033 116.95 17.89C116.717 17.67 116.403 17.56 116.01 17.56H113.95V19.95ZM113.95 16.52H115.94C116.26 16.52 116.517 16.43 116.71 16.25C116.903 16.0633 117 15.82 117 15.52C117 15.22 116.903 14.9867 116.71 14.82C116.517 14.6533 116.26 14.57 115.94 14.57H113.95V16.52Z" fill="#1C1C1C"/>
<path d="M121.114 21.12C120.707 21.12 120.35 21.03 120.044 20.85C119.737 20.6633 119.497 20.4067 119.324 20.08C119.157 19.7467 119.074 19.3633 119.074 18.93V15.59H120.204V18.83C120.204 19.0767 120.254 19.2933 120.354 19.48C120.454 19.6667 120.594 19.8133 120.774 19.92C120.954 20.02 121.16 20.07 121.394 20.07C121.634 20.07 121.844 20.0167 122.024 19.91C122.204 19.8033 122.344 19.6533 122.444 19.46C122.55 19.2667 122.604 19.04 122.604 18.78V15.59H123.724V21H122.654V19.94L122.774 20.08C122.647 20.4133 122.437 20.67 122.144 20.85C121.85 21.03 121.507 21.12 121.114 21.12Z" fill="#1C1C1C"/>
<path d="M126.643 21.12C126.09 21.12 125.603 20.9833 125.183 20.71C124.77 20.4367 124.48 20.07 124.313 19.61L125.183 19.2C125.33 19.5067 125.53 19.75 125.783 19.93C126.043 20.11 126.33 20.2 126.643 20.2C126.91 20.2 127.127 20.14 127.293 20.02C127.46 19.9 127.543 19.7367 127.543 19.53C127.543 19.3967 127.507 19.29 127.433 19.21C127.36 19.1233 127.267 19.0533 127.153 19C127.047 18.9467 126.937 18.9067 126.823 18.88L125.973 18.64C125.507 18.5067 125.157 18.3067 124.923 18.04C124.697 17.7667 124.583 17.45 124.583 17.09C124.583 16.7633 124.667 16.48 124.833 16.24C125 15.9933 125.23 15.8033 125.523 15.67C125.817 15.5367 126.147 15.47 126.513 15.47C127.007 15.47 127.447 15.5933 127.833 15.84C128.22 16.08 128.493 16.4167 128.653 16.85L127.783 17.26C127.677 17 127.507 16.7933 127.273 16.64C127.047 16.4867 126.79 16.41 126.503 16.41C126.257 16.41 126.06 16.47 125.913 16.59C125.767 16.7033 125.693 16.8533 125.693 17.04C125.693 17.1667 125.727 17.2733 125.793 17.36C125.86 17.44 125.947 17.5067 126.053 17.56C126.16 17.6067 126.27 17.6467 126.383 17.68L127.263 17.94C127.71 18.0667 128.053 18.2667 128.293 18.54C128.533 18.8067 128.653 19.1267 128.653 19.5C128.653 19.82 128.567 20.1033 128.393 20.35C128.227 20.59 127.993 20.78 127.693 20.92C127.393 21.0533 127.043 21.12 126.643 21.12Z" fill="#1C1C1C"/>
<path d="M129.36 21V15.59H130.49V21H129.36ZM129.36 14.85V13.55H130.49V14.85H129.36Z" fill="#1C1C1C"/>
<path d="M131.412 21V15.59H132.492V16.65L132.362 16.51C132.495 16.17 132.708 15.9133 133.002 15.74C133.295 15.56 133.635 15.47 134.022 15.47C134.422 15.47 134.775 15.5567 135.082 15.73C135.388 15.9033 135.628 16.1433 135.802 16.45C135.975 16.7567 136.062 17.11 136.062 17.51V21H134.942V17.81C134.942 17.5367 134.892 17.3067 134.792 17.12C134.692 16.9267 134.548 16.78 134.362 16.68C134.182 16.5733 133.975 16.52 133.742 16.52C133.508 16.52 133.298 16.5733 133.112 16.68C132.932 16.78 132.792 16.9267 132.692 17.12C132.592 17.3133 132.542 17.5433 132.542 17.81V21H131.412Z" fill="#1C1C1C"/>
<path d="M139.411 21.12C138.871 21.12 138.391 20.9967 137.971 20.75C137.558 20.4967 137.234 20.1567 137.001 19.73C136.768 19.2967 136.651 18.8133 136.651 18.28C136.651 17.7333 136.768 17.25 137.001 16.83C137.241 16.41 137.561 16.08 137.961 15.84C138.361 15.5933 138.814 15.47 139.321 15.47C139.728 15.47 140.091 15.54 140.411 15.68C140.731 15.82 141.001 16.0133 141.221 16.26C141.441 16.5 141.608 16.7767 141.721 17.09C141.841 17.4033 141.901 17.7367 141.901 18.09C141.901 18.1767 141.898 18.2667 141.891 18.36C141.884 18.4533 141.871 18.54 141.851 18.62H137.541V17.72H141.211L140.671 18.13C140.738 17.8033 140.714 17.5133 140.601 17.26C140.494 17 140.328 16.7967 140.101 16.65C139.881 16.4967 139.621 16.42 139.321 16.42C139.021 16.42 138.754 16.4967 138.521 16.65C138.288 16.7967 138.108 17.01 137.981 17.29C137.854 17.5633 137.804 17.8967 137.831 18.29C137.798 18.6567 137.848 18.9767 137.981 19.25C138.121 19.5233 138.314 19.7367 138.561 19.89C138.814 20.0433 139.101 20.12 139.421 20.12C139.748 20.12 140.024 20.0467 140.251 19.9C140.484 19.7533 140.668 19.5633 140.801 19.33L141.721 19.78C141.614 20.0333 141.448 20.2633 141.221 20.47C141.001 20.67 140.734 20.83 140.421 20.95C140.114 21.0633 139.778 21.12 139.411 21.12Z" fill="#1C1C1C"/>
<path d="M144.604 21.12C144.05 21.12 143.564 20.9833 143.144 20.71C142.73 20.4367 142.44 20.07 142.274 19.61L143.144 19.2C143.29 19.5067 143.49 19.75 143.744 19.93C144.004 20.11 144.29 20.2 144.604 20.2C144.87 20.2 145.087 20.14 145.254 20.02C145.42 19.9 145.504 19.7367 145.504 19.53C145.504 19.3967 145.467 19.29 145.394 19.21C145.32 19.1233 145.227 19.0533 145.114 19C145.007 18.9467 144.897 18.9067 144.784 18.88L143.934 18.64C143.467 18.5067 143.117 18.3067 142.884 18.04C142.657 17.7667 142.544 17.45 142.544 17.09C142.544 16.7633 142.627 16.48 142.794 16.24C142.96 15.9933 143.19 15.8033 143.484 15.67C143.777 15.5367 144.107 15.47 144.474 15.47C144.967 15.47 145.407 15.5933 145.794 15.84C146.18 16.08 146.454 16.4167 146.614 16.85L145.744 17.26C145.637 17 145.467 16.7933 145.234 16.64C145.007 16.4867 144.75 16.41 144.464 16.41C144.217 16.41 144.02 16.47 143.874 16.59C143.727 16.7033 143.654 16.8533 143.654 17.04C143.654 17.1667 143.687 17.2733 143.754 17.36C143.82 17.44 143.907 17.5067 144.014 17.56C144.12 17.6067 144.23 17.6467 144.344 17.68L145.224 17.94C145.67 18.0667 146.014 18.2667 146.254 18.54C146.494 18.8067 146.614 19.1267 146.614 19.5C146.614 19.82 146.527 20.1033 146.354 20.35C146.187 20.59 145.954 20.78 145.654 20.92C145.354 21.0533 145.004 21.12 144.604 21.12Z" fill="#1C1C1C"/>
<path d="M149.321 21.12C148.768 21.12 148.281 20.9833 147.861 20.71C147.448 20.4367 147.158 20.07 146.991 19.61L147.861 19.2C148.008 19.5067 148.208 19.75 148.461 19.93C148.721 20.11 149.008 20.2 149.321 20.2C149.588 20.2 149.804 20.14 149.971 20.02C150.138 19.9 150.221 19.7367 150.221 19.53C150.221 19.3967 150.184 19.29 150.111 19.21C150.038 19.1233 149.944 19.0533 149.831 19C149.724 18.9467 149.614 18.9067 149.501 18.88L148.651 18.64C148.184 18.5067 147.834 18.3067 147.601 18.04C147.374 17.7667 147.261 17.45 147.261 17.09C147.261 16.7633 147.344 16.48 147.511 16.24C147.678 15.9933 147.908 15.8033 148.201 15.67C148.494 15.5367 148.824 15.47 149.191 15.47C149.684 15.47 150.124 15.5933 150.511 15.84C150.898 16.08 151.171 16.4167 151.331 16.85L150.461 17.26C150.354 17 150.184 16.7933 149.951 16.64C149.724 16.4867 149.468 16.41 149.181 16.41C148.934 16.41 148.738 16.47 148.591 16.59C148.444 16.7033 148.371 16.8533 148.371 17.04C148.371 17.1667 148.404 17.2733 148.471 17.36C148.538 17.44 148.624 17.5067 148.731 17.56C148.838 17.6067 148.948 17.6467 149.061 17.68L149.941 17.94C150.388 18.0667 150.731 18.2667 150.971 18.54C151.211 18.8067 151.331 19.1267 151.331 19.5C151.331 19.82 151.244 20.1033 151.071 20.35C150.904 20.59 150.671 20.78 150.371 20.92C150.071 21.0533 149.721 21.12 149.321 21.12Z" fill="#1C1C1C"/>
</svg>
