<svg width="15" height="15" viewBox="0 0 15 15" fill="none" xmlns="http://www.w3.org/2000/svg">
<path fill-rule="evenodd" clip-rule="evenodd" d="M9.6973 0.36922C9.73411 0.417906 9.76621 0.470133 9.79314 0.525165L9.90168 0.746967C10.1355 1.22471 10.6554 1.4807 11.1665 1.36972L11.4037 1.31819C11.9057 1.20918 12.3991 1.53689 12.5057 2.05015C12.5183 2.11035 12.525 2.17164 12.5259 2.23317L12.5296 2.48116C12.5375 3.0153 12.8973 3.47658 13.4048 3.60331L13.6405 3.66215C14.139 3.78663 14.4445 4.30076 14.3227 4.8105C14.3085 4.87027 14.2885 4.92849 14.2632 4.98433L14.1613 5.20939C13.9418 5.69415 14.0702 6.26934 14.4737 6.60869L14.661 6.76624C15.0574 7.09956 15.1144 7.69828 14.7884 8.10353C14.7502 8.15105 14.7075 8.19467 14.661 8.23376L14.4737 8.39131C14.0702 8.73066 13.9418 9.30585 14.1613 9.79061L14.2632 10.0157C14.4789 10.4918 14.2762 11.0565 13.8105 11.277C13.7559 11.3029 13.699 11.3233 13.6405 11.3379L13.4048 11.3967C12.8973 11.5234 12.5375 11.9847 12.5296 12.5188L12.5259 12.7668C12.5182 13.2915 12.0959 13.7104 11.5827 13.7024C11.5226 13.7015 11.4626 13.6946 11.4037 13.6818L11.1665 13.6303C10.6554 13.5193 10.1355 13.7753 9.90168 14.253L9.79314 14.4748C9.56351 14.9441 9.00529 15.1342 8.54634 14.8994C8.49251 14.8718 8.44143 14.839 8.39382 14.8014L8.2019 14.6497C7.78852 14.323 7.21148 14.323 6.7981 14.6497L6.60618 14.8014C6.20016 15.1223 5.61656 15.0459 5.30269 14.6308C5.26588 14.5821 5.23379 14.5299 5.20686 14.4748L5.09832 14.253C4.86452 13.7753 4.34463 13.5193 3.83354 13.6303L3.59626 13.6818C3.09426 13.7908 2.60087 13.4631 2.49425 12.9498C2.48175 12.8897 2.475 12.8284 2.47409 12.7668L2.47042 12.5188C2.46252 11.9847 2.10274 11.5234 1.59516 11.3967L1.35952 11.3379C0.860968 11.2134 0.555513 10.6992 0.677263 10.1895C0.691541 10.1297 0.711466 10.0715 0.736757 10.0157L0.838689 9.79061C1.05824 9.30585 0.92984 8.73066 0.526315 8.39131L0.338971 8.23376C-0.0573794 7.90044 -0.114406 7.30172 0.211599 6.89647C0.249831 6.84895 0.292489 6.80533 0.338971 6.76624L0.526315 6.60869C0.92984 6.26934 1.05824 5.69415 0.838689 5.20939L0.736757 4.98433C0.521105 4.5082 0.723802 3.94347 1.18949 3.72298C1.24411 3.69712 1.30105 3.67675 1.35952 3.66215L1.59516 3.60331C2.10274 3.47658 2.46252 3.0153 2.47042 2.48116L2.47409 2.23317C2.48185 1.70852 2.90412 1.28963 3.41726 1.29757C3.47744 1.2985 3.53739 1.30541 3.59626 1.31819L3.83354 1.36972C4.34463 1.4807 4.86452 1.22471 5.09832 0.746967L5.20686 0.525165C5.43649 0.055912 5.99471 -0.13416 6.45366 0.100626C6.50749 0.128161 6.55857 0.160977 6.60618 0.198612L6.7981 0.350298C7.21148 0.677019 7.78852 0.677019 8.2019 0.350298L8.39382 0.198612C8.79984 -0.1223 9.38343 -0.0459159 9.6973 0.36922ZM10.538 5.52365C10.3091 5.31436 9.96154 5.31964 9.73891 5.53579L7.32598 7.87848C7.06279 8.13401 6.65081 8.1368 6.38433 7.88487L5.37399 6.92968C5.12141 6.69089 4.72876 6.70128 4.4886 6.9531C4.47725 6.965 4.4664 6.9774 4.45609 6.99025C4.25748 7.2379 4.29283 7.60327 4.53505 7.80634L6.17596 9.18202C6.62757 9.56064 7.28527 9.53211 7.70389 9.11574L10.5534 6.28149C10.5618 6.27314 10.57 6.26449 10.5778 6.25555C10.7645 6.0422 10.7466 5.71451 10.538 5.52365Z" fill="#61E0BC"/>
</svg>
