<svg width="17" height="20" viewBox="0 0 17 20" fill="none" xmlns="http://www.w3.org/2000/svg">
<path d="M6.11386 12.7524V12.6524V9.72446V9.62446H6.21386H9.31237C9.56154 9.62446 9.79945 9.53087 9.97401 9.36591C10.1484 9.20114 10.2452 8.97891 10.2452 8.74847C10.2452 8.51803 10.1484 8.29579 9.97401 8.13102C9.79945 7.96606 9.56154 7.87248 9.31237 7.87248H6.21386H6.11386V7.77248V6.79649V6.70927L6.20027 6.69741C7.03624 6.58271 7.7996 6.18794 8.35158 5.58656C8.90344 4.98531 9.20734 4.21763 9.20931 3.42374C9.21128 2.62985 8.91119 1.86084 8.36235 1.25717C7.81337 0.653361 7.05199 0.255223 6.21661 0.136811C5.38119 0.018396 4.52893 0.187855 3.81555 0.61354C3.10227 1.03916 2.57605 1.69206 2.33128 2.45205C2.08656 3.2119 2.13901 4.02949 2.47936 4.75613C2.81979 5.48293 3.42608 6.07125 4.18902 6.4124L4.24819 6.43886V6.50369V8.16287V8.23511L4.17962 8.25781C3.16159 8.59481 2.25698 9.18061 1.55763 9.9549C0.858318 10.7292 0.389217 11.6642 0.197452 12.6645C0.00569295 13.6649 0.0979749 14.6954 0.46507 15.6513C0.832184 16.6072 1.46121 17.4548 2.28874 18.1073C3.1163 18.7598 4.11266 19.1937 5.17639 19.3642C6.24012 19.5347 7.33264 19.4357 8.34243 19.0773C9.35221 18.7189 10.2427 18.1142 10.9235 17.3254C11.6043 16.5367 12.0512 15.592 12.2193 14.5879L12.2333 14.5044H12.3179H12.8033H12.8635L12.8917 14.5575L14.6784 17.9245C14.6784 17.9246 14.6784 17.9246 14.6784 17.9246C14.7553 18.0687 14.8733 18.1906 15.02 18.2763C15.1668 18.362 15.3363 18.4079 15.5097 18.4084L15.5105 18.4084C15.6567 18.41 15.8007 18.3767 15.929 18.3118L15.9308 18.3109L15.9308 18.3109C16.1512 18.2049 16.3164 18.0217 16.3925 17.8029C16.4684 17.5843 16.4498 17.3462 16.3403 17.1401L16.3402 17.1399L14.2747 13.2363C14.2747 13.2362 14.2746 13.2361 14.2746 13.2361C14.1977 13.0921 14.0798 12.9702 13.9331 12.8845C13.7864 12.7988 13.617 12.753 13.4437 12.7524C13.4436 12.7524 13.4435 12.7524 13.4434 12.7524M6.11386 12.7524L13.4437 12.6524L13.4434 12.7524M6.11386 12.7524H6.21386L13.4434 12.7524M6.11386 12.7524L13.4434 12.7524M6.2129 17.6324L6.21417 17.6324C7.14849 17.6295 8.05605 17.3341 8.79487 16.7915C9.53377 16.2488 10.0625 15.4892 10.2971 14.6308L10.3316 14.5044H10.2006H5.18103C4.93186 14.5044 4.69395 14.4108 4.51939 14.2459C4.34502 14.0811 4.24819 13.8589 4.24819 13.6284V10.271V10.1003L4.0993 10.1838C3.30537 10.6288 2.6862 11.3078 2.33741 12.1179C1.98857 12.9282 1.92975 13.8244 2.17015 14.6695C2.41052 15.5144 2.93651 16.2608 3.66658 16.7953C4.39658 17.3298 5.29084 17.6235 6.2129 17.6324ZM6.61155 2.07871C6.34052 1.90757 6.02242 1.81654 5.69745 1.81654C5.26181 1.81654 4.84295 1.98002 4.53328 2.27264C4.22341 2.56545 4.04819 2.96384 4.04819 3.38052C4.04819 3.69115 4.1457 3.9943 4.32764 4.2516C4.50952 4.50883 4.76743 4.70849 5.06812 4.82619C5.36878 4.94387 5.69932 4.97459 6.01816 4.91466C6.33702 4.85472 6.63064 4.70666 6.86161 4.4884C7.09265 4.27007 7.25069 3.99121 7.31479 3.68673C7.37889 3.3822 7.34593 3.06661 7.22036 2.78013C7.09482 2.49374 6.88264 2.24987 6.61155 2.07871Z" fill="#BABABA" stroke="#F9F9F9" stroke-width="0.2"/>
</svg>
