<svg width="380" height="516" viewBox="0 0 380 516" fill="none" xmlns="http://www.w3.org/2000/svg">
<rect width="380" height="461" rx="10" fill="#F3F3F3"/>
<path d="M9.198 490L13.914 476.59H16.542L21.258 490H18.99L17.964 486.994H12.51L11.466 490H9.198ZM13.122 485.104H17.316L14.94 478.084H15.534L13.122 485.104ZM26.0793 490.216C25.1433 490.216 24.3033 489.994 23.5593 489.55C22.8273 489.094 22.2453 488.482 21.8133 487.714C21.3933 486.946 21.1833 486.082 21.1833 485.122C21.1833 484.162 21.3993 483.298 21.8313 482.53C22.2633 481.762 22.8453 481.156 23.5773 480.712C24.3093 480.268 25.1373 480.046 26.0613 480.046C26.8413 480.046 27.5313 480.202 28.1313 480.514C28.7313 480.826 29.2053 481.258 29.5533 481.81L29.2473 482.278V476.374H31.2633V490H29.3373V488.02L29.5713 488.398C29.2353 488.986 28.7553 489.436 28.1313 489.748C27.5073 490.06 26.8233 490.216 26.0793 490.216ZM26.2773 488.326C26.8413 488.326 27.3453 488.188 27.7893 487.912C28.2453 487.636 28.5993 487.258 28.8513 486.778C29.1153 486.286 29.2473 485.734 29.2473 485.122C29.2473 484.51 29.1153 483.964 28.8513 483.484C28.5993 483.004 28.2453 482.626 27.7893 482.35C27.3453 482.074 26.8413 481.936 26.2773 481.936C25.7133 481.936 25.2033 482.074 24.7473 482.35C24.2913 482.626 23.9373 483.004 23.6853 483.484C23.4333 483.964 23.3073 484.51 23.3073 485.122C23.3073 485.734 23.4333 486.286 23.6853 486.778C23.9373 487.258 24.2853 487.636 24.7293 487.912C25.1853 488.188 25.7013 488.326 26.2773 488.326ZM35.7439 490L31.9279 480.262H34.1419L37.0759 488.2H36.2659L39.1999 480.262H41.4319L37.5979 490H35.7439ZM46.4906 490.216C45.5186 490.216 44.6546 489.994 43.8986 489.55C43.1546 489.094 42.5726 488.482 42.1526 487.714C41.7326 486.934 41.5226 486.064 41.5226 485.104C41.5226 484.12 41.7326 483.25 42.1526 482.494C42.5846 481.738 43.1606 481.144 43.8806 480.712C44.6006 480.268 45.4166 480.046 46.3286 480.046C47.0606 480.046 47.7146 480.172 48.2906 480.424C48.8666 480.676 49.3526 481.024 49.7486 481.468C50.1446 481.9 50.4446 482.398 50.6486 482.962C50.8646 483.526 50.9726 484.126 50.9726 484.762C50.9726 484.918 50.9666 485.08 50.9546 485.248C50.9426 485.416 50.9186 485.572 50.8826 485.716H43.1246V484.096H49.7306L48.7586 484.834C48.8786 484.246 48.8366 483.724 48.6326 483.268C48.4406 482.8 48.1406 482.434 47.7326 482.17C47.3366 481.894 46.8686 481.756 46.3286 481.756C45.7886 481.756 45.3086 481.894 44.8886 482.17C44.4686 482.434 44.1446 482.818 43.9166 483.322C43.6886 483.814 43.5986 484.414 43.6466 485.122C43.5866 485.782 43.6766 486.358 43.9166 486.85C44.1686 487.342 44.5166 487.726 44.9606 488.002C45.4166 488.278 45.9326 488.416 46.5086 488.416C47.0966 488.416 47.5946 488.284 48.0026 488.02C48.4226 487.756 48.7526 487.414 48.9926 486.994L50.6486 487.804C50.4566 488.26 50.1566 488.674 49.7486 489.046C49.3526 489.406 48.8726 489.694 48.3086 489.91C47.7566 490.114 47.1506 490.216 46.4906 490.216ZM52.2377 490V480.262H54.1817V482.224L54.0017 481.936C54.2177 481.3 54.5657 480.844 55.0457 480.568C55.5257 480.28 56.1017 480.136 56.7737 480.136H57.3677V481.99H56.5217C55.8497 481.99 55.3037 482.2 54.8837 482.62C54.4757 483.028 54.2717 483.616 54.2717 484.384V490H52.2377ZM62.427 490.108C61.407 490.108 60.615 489.82 60.051 489.244C59.487 488.668 59.205 487.858 59.205 486.814V482.098H57.495V480.262H57.765C58.221 480.262 58.575 480.13 58.827 479.866C59.079 479.602 59.205 479.242 59.205 478.786V478.03H61.239V480.262H63.453V482.098H61.239V486.724C61.239 487.06 61.293 487.348 61.401 487.588C61.509 487.816 61.683 487.996 61.923 488.128C62.163 488.248 62.475 488.308 62.859 488.308C62.955 488.308 63.063 488.302 63.183 488.29C63.303 488.278 63.417 488.266 63.525 488.254V490C63.357 490.024 63.171 490.048 62.967 490.072C62.763 490.096 62.583 490.108 62.427 490.108ZM64.7899 490V480.262H66.8239V490H64.7899ZM64.7899 478.93V476.59H66.8239V478.93H64.7899ZM72.082 490.216C71.086 490.216 70.21 489.97 69.454 489.478C68.71 488.986 68.188 488.326 67.888 487.498L69.454 486.76C69.718 487.312 70.078 487.75 70.534 488.074C71.002 488.398 71.518 488.56 72.082 488.56C72.562 488.56 72.952 488.452 73.252 488.236C73.552 488.02 73.702 487.726 73.702 487.354C73.702 487.114 73.636 486.922 73.504 486.778C73.372 486.622 73.204 486.496 73 486.4C72.808 486.304 72.61 486.232 72.406 486.184L70.876 485.752C70.036 485.512 69.406 485.152 68.986 484.672C68.578 484.18 68.374 483.61 68.374 482.962C68.374 482.374 68.524 481.864 68.824 481.432C69.124 480.988 69.538 480.646 70.066 480.406C70.594 480.166 71.188 480.046 71.848 480.046C72.736 480.046 73.528 480.268 74.224 480.712C74.92 481.144 75.412 481.75 75.7 482.53L74.134 483.268C73.942 482.8 73.636 482.428 73.216 482.152C72.808 481.876 72.346 481.738 71.83 481.738C71.386 481.738 71.032 481.846 70.768 482.062C70.504 482.266 70.372 482.536 70.372 482.872C70.372 483.1 70.432 483.292 70.552 483.448C70.672 483.592 70.828 483.712 71.02 483.808C71.212 483.892 71.41 483.964 71.614 484.024L73.198 484.492C74.002 484.72 74.62 485.08 75.052 485.572C75.484 486.052 75.7 486.628 75.7 487.3C75.7 487.876 75.544 488.386 75.232 488.83C74.932 489.262 74.512 489.604 73.972 489.856C73.432 490.096 72.802 490.216 72.082 490.216ZM81.5449 490.216C80.5729 490.216 79.7089 489.994 78.9529 489.55C78.2089 489.094 77.6269 488.482 77.2069 487.714C76.7869 486.934 76.5769 486.064 76.5769 485.104C76.5769 484.12 76.7869 483.25 77.2069 482.494C77.6389 481.738 78.2149 481.144 78.9349 480.712C79.6549 480.268 80.4709 480.046 81.3829 480.046C82.1149 480.046 82.7689 480.172 83.3449 480.424C83.9209 480.676 84.4069 481.024 84.8029 481.468C85.1989 481.9 85.4989 482.398 85.7029 482.962C85.9189 483.526 86.0269 484.126 86.0269 484.762C86.0269 484.918 86.0209 485.08 86.0089 485.248C85.9969 485.416 85.9729 485.572 85.9369 485.716H78.1789V484.096H84.7849L83.8129 484.834C83.9329 484.246 83.8909 483.724 83.6869 483.268C83.4949 482.8 83.1949 482.434 82.7869 482.17C82.3909 481.894 81.9229 481.756 81.3829 481.756C80.8429 481.756 80.3629 481.894 79.9429 482.17C79.5229 482.434 79.1989 482.818 78.9709 483.322C78.7429 483.814 78.6529 484.414 78.7009 485.122C78.6409 485.782 78.7309 486.358 78.9709 486.85C79.2229 487.342 79.5709 487.726 80.0149 488.002C80.4709 488.278 80.9869 488.416 81.5629 488.416C82.1509 488.416 82.6489 488.284 83.0569 488.02C83.4769 487.756 83.8069 487.414 84.0469 486.994L85.7029 487.804C85.5109 488.26 85.2109 488.674 84.8029 489.046C84.4069 489.406 83.9269 489.694 83.3629 489.91C82.8109 490.114 82.2049 490.216 81.5449 490.216ZM87.292 490V480.262H89.236V482.368L88.984 482.044C89.188 481.384 89.56 480.886 90.1 480.55C90.64 480.214 91.258 480.046 91.954 480.046C92.734 480.046 93.424 480.256 94.024 480.676C94.636 481.084 95.044 481.63 95.248 482.314L94.672 482.368C94.96 481.588 95.398 481.006 95.986 480.622C96.586 480.238 97.27 480.046 98.038 480.046C98.71 480.046 99.316 480.202 99.856 480.514C100.408 480.826 100.846 481.258 101.17 481.81C101.494 482.362 101.656 482.992 101.656 483.7V490H99.622V484.258C99.622 483.766 99.532 483.352 99.352 483.016C99.184 482.668 98.944 482.404 98.632 482.224C98.332 482.032 97.978 481.936 97.57 481.936C97.162 481.936 96.802 482.032 96.49 482.224C96.178 482.404 95.932 482.668 95.752 483.016C95.572 483.364 95.482 483.778 95.482 484.258V490H93.466V484.258C93.466 483.766 93.376 483.352 93.196 483.016C93.028 482.668 92.788 482.404 92.476 482.224C92.176 482.032 91.816 481.936 91.396 481.936C90.988 481.936 90.628 482.032 90.316 482.224C90.004 482.404 89.758 482.668 89.578 483.016C89.41 483.364 89.326 483.778 89.326 484.258V490H87.292ZM107.685 490.216C106.713 490.216 105.849 489.994 105.093 489.55C104.349 489.094 103.767 488.482 103.347 487.714C102.927 486.934 102.717 486.064 102.717 485.104C102.717 484.12 102.927 483.25 103.347 482.494C103.779 481.738 104.355 481.144 105.075 480.712C105.795 480.268 106.611 480.046 107.523 480.046C108.255 480.046 108.909 480.172 109.485 480.424C110.061 480.676 110.547 481.024 110.943 481.468C111.339 481.9 111.639 482.398 111.843 482.962C112.059 483.526 112.167 484.126 112.167 484.762C112.167 484.918 112.161 485.08 112.149 485.248C112.137 485.416 112.113 485.572 112.077 485.716H104.319V484.096H110.925L109.953 484.834C110.073 484.246 110.031 483.724 109.827 483.268C109.635 482.8 109.335 482.434 108.927 482.17C108.531 481.894 108.063 481.756 107.523 481.756C106.983 481.756 106.503 481.894 106.083 482.17C105.663 482.434 105.339 482.818 105.111 483.322C104.883 483.814 104.793 484.414 104.841 485.122C104.781 485.782 104.871 486.358 105.111 486.85C105.363 487.342 105.711 487.726 106.155 488.002C106.611 488.278 107.127 488.416 107.703 488.416C108.291 488.416 108.789 488.284 109.197 488.02C109.617 487.756 109.947 487.414 110.187 486.994L111.843 487.804C111.651 488.26 111.351 488.674 110.943 489.046C110.547 489.406 110.067 489.694 109.503 489.91C108.951 490.114 108.345 490.216 107.685 490.216ZM113.432 490V480.262H115.376V482.17L115.142 481.918C115.382 481.306 115.766 480.844 116.294 480.532C116.822 480.208 117.434 480.046 118.13 480.046C118.85 480.046 119.486 480.202 120.038 480.514C120.59 480.826 121.022 481.258 121.334 481.81C121.646 482.362 121.802 482.998 121.802 483.718V490H119.786V484.258C119.786 483.766 119.696 483.352 119.516 483.016C119.336 482.668 119.078 482.404 118.742 482.224C118.418 482.032 118.046 481.936 117.626 481.936C117.206 481.936 116.828 482.032 116.492 482.224C116.168 482.404 115.916 482.668 115.736 483.016C115.556 483.364 115.466 483.778 115.466 484.258V490H113.432ZM127.471 490.108C126.451 490.108 125.659 489.82 125.095 489.244C124.531 488.668 124.249 487.858 124.249 486.814V482.098H122.539V480.262H122.809C123.265 480.262 123.619 480.13 123.871 479.866C124.123 479.602 124.249 479.242 124.249 478.786V478.03H126.283V480.262H128.497V482.098H126.283V486.724C126.283 487.06 126.337 487.348 126.445 487.588C126.553 487.816 126.727 487.996 126.967 488.128C127.207 488.248 127.519 488.308 127.903 488.308C127.999 488.308 128.107 488.302 128.227 488.29C128.347 488.278 128.461 488.266 128.569 488.254V490C128.401 490.024 128.215 490.048 128.011 490.072C127.807 490.096 127.627 490.108 127.471 490.108ZM9.198 512L13.914 498.59H16.542L21.258 512H18.99L17.964 508.994H12.51L11.466 512H9.198ZM13.122 507.104H17.316L14.94 500.084H15.534L13.122 507.104ZM21.9309 512V502.262H23.8749V504.224L23.6949 503.936C23.9109 503.3 24.2589 502.844 24.7389 502.568C25.2189 502.28 25.7949 502.136 26.4669 502.136H27.0609V503.99H26.2149C25.5429 503.99 24.9969 504.2 24.5769 504.62C24.1689 505.028 23.9649 505.616 23.9649 506.384V512H21.9309ZM32.3044 512.216C31.3324 512.216 30.4684 511.994 29.7124 511.55C28.9684 511.094 28.3864 510.482 27.9664 509.714C27.5464 508.934 27.3364 508.064 27.3364 507.104C27.3364 506.12 27.5464 505.25 27.9664 504.494C28.3984 503.738 28.9744 503.144 29.6944 502.712C30.4144 502.268 31.2304 502.046 32.1424 502.046C32.8744 502.046 33.5284 502.172 34.1044 502.424C34.6804 502.676 35.1664 503.024 35.5624 503.468C35.9584 503.9 36.2584 504.398 36.4624 504.962C36.6784 505.526 36.7864 506.126 36.7864 506.762C36.7864 506.918 36.7804 507.08 36.7684 507.248C36.7564 507.416 36.7324 507.572 36.6964 507.716H28.9384V506.096H35.5444L34.5724 506.834C34.6924 506.246 34.6504 505.724 34.4464 505.268C34.2544 504.8 33.9544 504.434 33.5464 504.17C33.1504 503.894 32.6824 503.756 32.1424 503.756C31.6024 503.756 31.1224 503.894 30.7024 504.17C30.2824 504.434 29.9584 504.818 29.7304 505.322C29.5024 505.814 29.4124 506.414 29.4604 507.122C29.4004 507.782 29.4904 508.358 29.7304 508.85C29.9824 509.342 30.3304 509.726 30.7744 510.002C31.2304 510.278 31.7464 510.416 32.3224 510.416C32.9104 510.416 33.4084 510.284 33.8164 510.02C34.2364 509.756 34.5664 509.414 34.8064 508.994L36.4624 509.804C36.2704 510.26 35.9704 510.674 35.5624 511.046C35.1664 511.406 34.6864 511.694 34.1224 511.91C33.5704 512.114 32.9644 512.216 32.3044 512.216ZM40.8795 512.216C40.2195 512.216 39.6375 512.102 39.1335 511.874C38.6415 511.634 38.2575 511.31 37.9815 510.902C37.7055 510.482 37.5675 509.99 37.5675 509.426C37.5675 508.898 37.6815 508.424 37.9095 508.004C38.1495 507.584 38.5155 507.23 39.0075 506.942C39.4995 506.654 40.1175 506.45 40.8615 506.33L44.2455 505.772V507.374L41.2575 507.896C40.7175 507.992 40.3215 508.166 40.0695 508.418C39.8175 508.658 39.6915 508.97 39.6915 509.354C39.6915 509.726 39.8295 510.032 40.1055 510.272C40.3935 510.5 40.7595 510.614 41.2035 510.614C41.7555 510.614 42.2355 510.494 42.6435 510.254C43.0635 510.014 43.3875 509.696 43.6155 509.3C43.8435 508.892 43.9575 508.442 43.9575 507.95V505.448C43.9575 504.968 43.7775 504.578 43.4175 504.278C43.0695 503.966 42.6015 503.81 42.0135 503.81C41.4735 503.81 40.9995 503.954 40.5915 504.242C40.1955 504.518 39.9015 504.878 39.7095 505.322L38.0175 504.476C38.1975 503.996 38.4915 503.576 38.8995 503.216C39.3075 502.844 39.7815 502.556 40.3215 502.352C40.8735 502.148 41.4555 502.046 42.0675 502.046C42.8355 502.046 43.5135 502.19 44.1015 502.478C44.7015 502.766 45.1635 503.168 45.4875 503.684C45.8235 504.188 45.9915 504.776 45.9915 505.448V512H44.0475V510.236L44.4615 510.29C44.2335 510.686 43.9395 511.028 43.5795 511.316C43.2315 511.604 42.8295 511.826 42.3735 511.982C41.9295 512.138 41.4315 512.216 40.8795 512.216Z" fill="#393939"/>
<path d="M198.281 222H181.975C180.335 222 179 222.96 179 224.139V235.861C179 237.04 180.335 238 181.975 238H198.281C199.921 238 201.257 237.04 201.257 235.861V224.139C201.257 222.96 199.921 222 198.281 222ZM181.975 223.196H198.281C199.007 223.196 199.593 223.617 199.593 224.139V230.387L195.821 226.968C195.376 226.547 194.486 226.547 194.041 226.968L188.535 231.971L186.239 230.168C185.771 229.798 184.951 229.798 184.482 230.168L180.663 233.149V224.139C180.663 223.617 181.249 223.196 181.975 223.196L181.975 223.196Z" fill="#BABABA"/>
</svg>
