<svg width="375" height="110" viewBox="0 0 375 110" fill="none" xmlns="http://www.w3.org/2000/svg">
<rect width="110" height="110" rx="10" fill="#F3F3F3"/>
<path d="M128.198 51L132.914 37.59H135.542L140.258 51H137.99L136.964 47.994H131.51L130.466 51H128.198ZM132.122 46.104H136.316L133.94 39.084H134.534L132.122 46.104ZM145.079 51.216C144.143 51.216 143.303 50.994 142.559 50.55C141.827 50.094 141.245 49.482 140.813 48.714C140.393 47.946 140.183 47.082 140.183 46.122C140.183 45.162 140.399 44.298 140.831 43.53C141.263 42.762 141.845 42.156 142.577 41.712C143.309 41.268 144.137 41.046 145.061 41.046C145.841 41.046 146.531 41.202 147.131 41.514C147.731 41.826 148.205 42.258 148.553 42.81L148.247 43.278V37.374H150.263V51H148.337V49.02L148.571 49.398C148.235 49.986 147.755 50.436 147.131 50.748C146.507 51.06 145.823 51.216 145.079 51.216ZM145.277 49.326C145.841 49.326 146.345 49.188 146.789 48.912C147.245 48.636 147.599 48.258 147.851 47.778C148.115 47.286 148.247 46.734 148.247 46.122C148.247 45.51 148.115 44.964 147.851 44.484C147.599 44.004 147.245 43.626 146.789 43.35C146.345 43.074 145.841 42.936 145.277 42.936C144.713 42.936 144.203 43.074 143.747 43.35C143.291 43.626 142.937 44.004 142.685 44.484C142.433 44.964 142.307 45.51 142.307 46.122C142.307 46.734 142.433 47.286 142.685 47.778C142.937 48.258 143.285 48.636 143.729 48.912C144.185 49.188 144.701 49.326 145.277 49.326ZM154.744 51L150.928 41.262H153.142L156.076 49.2H155.266L158.2 41.262H160.432L156.598 51H154.744ZM165.491 51.216C164.519 51.216 163.655 50.994 162.899 50.55C162.155 50.094 161.573 49.482 161.153 48.714C160.733 47.934 160.523 47.064 160.523 46.104C160.523 45.12 160.733 44.25 161.153 43.494C161.585 42.738 162.161 42.144 162.881 41.712C163.601 41.268 164.417 41.046 165.329 41.046C166.061 41.046 166.715 41.172 167.291 41.424C167.867 41.676 168.353 42.024 168.749 42.468C169.145 42.9 169.445 43.398 169.649 43.962C169.865 44.526 169.973 45.126 169.973 45.762C169.973 45.918 169.967 46.08 169.955 46.248C169.943 46.416 169.919 46.572 169.883 46.716H162.125V45.096H168.731L167.759 45.834C167.879 45.246 167.837 44.724 167.633 44.268C167.441 43.8 167.141 43.434 166.733 43.17C166.337 42.894 165.869 42.756 165.329 42.756C164.789 42.756 164.309 42.894 163.889 43.17C163.469 43.434 163.145 43.818 162.917 44.322C162.689 44.814 162.599 45.414 162.647 46.122C162.587 46.782 162.677 47.358 162.917 47.85C163.169 48.342 163.517 48.726 163.961 49.002C164.417 49.278 164.933 49.416 165.509 49.416C166.097 49.416 166.595 49.284 167.003 49.02C167.423 48.756 167.753 48.414 167.993 47.994L169.649 48.804C169.457 49.26 169.157 49.674 168.749 50.046C168.353 50.406 167.873 50.694 167.309 50.91C166.757 51.114 166.151 51.216 165.491 51.216ZM171.238 51V41.262H173.182V43.224L173.002 42.936C173.218 42.3 173.566 41.844 174.046 41.568C174.526 41.28 175.102 41.136 175.774 41.136H176.368V42.99H175.522C174.85 42.99 174.304 43.2 173.884 43.62C173.476 44.028 173.272 44.616 173.272 45.384V51H171.238ZM181.427 51.108C180.407 51.108 179.615 50.82 179.051 50.244C178.487 49.668 178.205 48.858 178.205 47.814V43.098H176.495V41.262H176.765C177.221 41.262 177.575 41.13 177.827 40.866C178.079 40.602 178.205 40.242 178.205 39.786V39.03H180.239V41.262H182.453V43.098H180.239V47.724C180.239 48.06 180.293 48.348 180.401 48.588C180.509 48.816 180.683 48.996 180.923 49.128C181.163 49.248 181.475 49.308 181.859 49.308C181.955 49.308 182.063 49.302 182.183 49.29C182.303 49.278 182.417 49.266 182.525 49.254V51C182.357 51.024 182.171 51.048 181.967 51.072C181.763 51.096 181.583 51.108 181.427 51.108ZM183.79 51V41.262H185.824V51H183.79ZM183.79 39.93V37.59H185.824V39.93H183.79ZM191.082 51.216C190.086 51.216 189.21 50.97 188.454 50.478C187.71 49.986 187.188 49.326 186.888 48.498L188.454 47.76C188.718 48.312 189.078 48.75 189.534 49.074C190.002 49.398 190.518 49.56 191.082 49.56C191.562 49.56 191.952 49.452 192.252 49.236C192.552 49.02 192.702 48.726 192.702 48.354C192.702 48.114 192.636 47.922 192.504 47.778C192.372 47.622 192.204 47.496 192 47.4C191.808 47.304 191.61 47.232 191.406 47.184L189.876 46.752C189.036 46.512 188.406 46.152 187.986 45.672C187.578 45.18 187.374 44.61 187.374 43.962C187.374 43.374 187.524 42.864 187.824 42.432C188.124 41.988 188.538 41.646 189.066 41.406C189.594 41.166 190.188 41.046 190.848 41.046C191.736 41.046 192.528 41.268 193.224 41.712C193.92 42.144 194.412 42.75 194.7 43.53L193.134 44.268C192.942 43.8 192.636 43.428 192.216 43.152C191.808 42.876 191.346 42.738 190.83 42.738C190.386 42.738 190.032 42.846 189.768 43.062C189.504 43.266 189.372 43.536 189.372 43.872C189.372 44.1 189.432 44.292 189.552 44.448C189.672 44.592 189.828 44.712 190.02 44.808C190.212 44.892 190.41 44.964 190.614 45.024L192.198 45.492C193.002 45.72 193.62 46.08 194.052 46.572C194.484 47.052 194.7 47.628 194.7 48.3C194.7 48.876 194.544 49.386 194.232 49.83C193.932 50.262 193.512 50.604 192.972 50.856C192.432 51.096 191.802 51.216 191.082 51.216ZM200.545 51.216C199.573 51.216 198.709 50.994 197.953 50.55C197.209 50.094 196.627 49.482 196.207 48.714C195.787 47.934 195.577 47.064 195.577 46.104C195.577 45.12 195.787 44.25 196.207 43.494C196.639 42.738 197.215 42.144 197.935 41.712C198.655 41.268 199.471 41.046 200.383 41.046C201.115 41.046 201.769 41.172 202.345 41.424C202.921 41.676 203.407 42.024 203.803 42.468C204.199 42.9 204.499 43.398 204.703 43.962C204.919 44.526 205.027 45.126 205.027 45.762C205.027 45.918 205.021 46.08 205.009 46.248C204.997 46.416 204.973 46.572 204.937 46.716H197.179V45.096H203.785L202.813 45.834C202.933 45.246 202.891 44.724 202.687 44.268C202.495 43.8 202.195 43.434 201.787 43.17C201.391 42.894 200.923 42.756 200.383 42.756C199.843 42.756 199.363 42.894 198.943 43.17C198.523 43.434 198.199 43.818 197.971 44.322C197.743 44.814 197.653 45.414 197.701 46.122C197.641 46.782 197.731 47.358 197.971 47.85C198.223 48.342 198.571 48.726 199.015 49.002C199.471 49.278 199.987 49.416 200.563 49.416C201.151 49.416 201.649 49.284 202.057 49.02C202.477 48.756 202.807 48.414 203.047 47.994L204.703 48.804C204.511 49.26 204.211 49.674 203.803 50.046C203.407 50.406 202.927 50.694 202.363 50.91C201.811 51.114 201.205 51.216 200.545 51.216ZM206.292 51V41.262H208.236V43.368L207.984 43.044C208.188 42.384 208.56 41.886 209.1 41.55C209.64 41.214 210.258 41.046 210.954 41.046C211.734 41.046 212.424 41.256 213.024 41.676C213.636 42.084 214.044 42.63 214.248 43.314L213.672 43.368C213.96 42.588 214.398 42.006 214.986 41.622C215.586 41.238 216.27 41.046 217.038 41.046C217.71 41.046 218.316 41.202 218.856 41.514C219.408 41.826 219.846 42.258 220.17 42.81C220.494 43.362 220.656 43.992 220.656 44.7V51H218.622V45.258C218.622 44.766 218.532 44.352 218.352 44.016C218.184 43.668 217.944 43.404 217.632 43.224C217.332 43.032 216.978 42.936 216.57 42.936C216.162 42.936 215.802 43.032 215.49 43.224C215.178 43.404 214.932 43.668 214.752 44.016C214.572 44.364 214.482 44.778 214.482 45.258V51H212.466V45.258C212.466 44.766 212.376 44.352 212.196 44.016C212.028 43.668 211.788 43.404 211.476 43.224C211.176 43.032 210.816 42.936 210.396 42.936C209.988 42.936 209.628 43.032 209.316 43.224C209.004 43.404 208.758 43.668 208.578 44.016C208.41 44.364 208.326 44.778 208.326 45.258V51H206.292ZM226.685 51.216C225.713 51.216 224.849 50.994 224.093 50.55C223.349 50.094 222.767 49.482 222.347 48.714C221.927 47.934 221.717 47.064 221.717 46.104C221.717 45.12 221.927 44.25 222.347 43.494C222.779 42.738 223.355 42.144 224.075 41.712C224.795 41.268 225.611 41.046 226.523 41.046C227.255 41.046 227.909 41.172 228.485 41.424C229.061 41.676 229.547 42.024 229.943 42.468C230.339 42.9 230.639 43.398 230.843 43.962C231.059 44.526 231.167 45.126 231.167 45.762C231.167 45.918 231.161 46.08 231.149 46.248C231.137 46.416 231.113 46.572 231.077 46.716H223.319V45.096H229.925L228.953 45.834C229.073 45.246 229.031 44.724 228.827 44.268C228.635 43.8 228.335 43.434 227.927 43.17C227.531 42.894 227.063 42.756 226.523 42.756C225.983 42.756 225.503 42.894 225.083 43.17C224.663 43.434 224.339 43.818 224.111 44.322C223.883 44.814 223.793 45.414 223.841 46.122C223.781 46.782 223.871 47.358 224.111 47.85C224.363 48.342 224.711 48.726 225.155 49.002C225.611 49.278 226.127 49.416 226.703 49.416C227.291 49.416 227.789 49.284 228.197 49.02C228.617 48.756 228.947 48.414 229.187 47.994L230.843 48.804C230.651 49.26 230.351 49.674 229.943 50.046C229.547 50.406 229.067 50.694 228.503 50.91C227.951 51.114 227.345 51.216 226.685 51.216ZM232.432 51V41.262H234.376V43.17L234.142 42.918C234.382 42.306 234.766 41.844 235.294 41.532C235.822 41.208 236.434 41.046 237.13 41.046C237.85 41.046 238.486 41.202 239.038 41.514C239.59 41.826 240.022 42.258 240.334 42.81C240.646 43.362 240.802 43.998 240.802 44.718V51H238.786V45.258C238.786 44.766 238.696 44.352 238.516 44.016C238.336 43.668 238.078 43.404 237.742 43.224C237.418 43.032 237.046 42.936 236.626 42.936C236.206 42.936 235.828 43.032 235.492 43.224C235.168 43.404 234.916 43.668 234.736 44.016C234.556 44.364 234.466 44.778 234.466 45.258V51H232.432ZM246.471 51.108C245.451 51.108 244.659 50.82 244.095 50.244C243.531 49.668 243.249 48.858 243.249 47.814V43.098H241.539V41.262H241.809C242.265 41.262 242.619 41.13 242.871 40.866C243.123 40.602 243.249 40.242 243.249 39.786V39.03H245.283V41.262H247.497V43.098H245.283V47.724C245.283 48.06 245.337 48.348 245.445 48.588C245.553 48.816 245.727 48.996 245.967 49.128C246.207 49.248 246.519 49.308 246.903 49.308C246.999 49.308 247.107 49.302 247.227 49.29C247.347 49.278 247.461 49.266 247.569 49.254V51C247.401 51.024 247.215 51.048 247.011 51.072C246.807 51.096 246.627 51.108 246.471 51.108ZM128.198 73L132.914 59.59H135.542L140.258 73H137.99L136.964 69.994H131.51L130.466 73H128.198ZM132.122 68.104H136.316L133.94 61.084H134.534L132.122 68.104ZM140.931 73V63.262H142.875V65.224L142.695 64.936C142.911 64.3 143.259 63.844 143.739 63.568C144.219 63.28 144.795 63.136 145.467 63.136H146.061V64.99H145.215C144.543 64.99 143.997 65.2 143.577 65.62C143.169 66.028 142.965 66.616 142.965 67.384V73H140.931ZM151.304 73.216C150.332 73.216 149.468 72.994 148.712 72.55C147.968 72.094 147.386 71.482 146.966 70.714C146.546 69.934 146.336 69.064 146.336 68.104C146.336 67.12 146.546 66.25 146.966 65.494C147.398 64.738 147.974 64.144 148.694 63.712C149.414 63.268 150.23 63.046 151.142 63.046C151.874 63.046 152.528 63.172 153.104 63.424C153.68 63.676 154.166 64.024 154.562 64.468C154.958 64.9 155.258 65.398 155.462 65.962C155.678 66.526 155.786 67.126 155.786 67.762C155.786 67.918 155.78 68.08 155.768 68.248C155.756 68.416 155.732 68.572 155.696 68.716H147.938V67.096H154.544L153.572 67.834C153.692 67.246 153.65 66.724 153.446 66.268C153.254 65.8 152.954 65.434 152.546 65.17C152.15 64.894 151.682 64.756 151.142 64.756C150.602 64.756 150.122 64.894 149.702 65.17C149.282 65.434 148.958 65.818 148.73 66.322C148.502 66.814 148.412 67.414 148.46 68.122C148.4 68.782 148.49 69.358 148.73 69.85C148.982 70.342 149.33 70.726 149.774 71.002C150.23 71.278 150.746 71.416 151.322 71.416C151.91 71.416 152.408 71.284 152.816 71.02C153.236 70.756 153.566 70.414 153.806 69.994L155.462 70.804C155.27 71.26 154.97 71.674 154.562 72.046C154.166 72.406 153.686 72.694 153.122 72.91C152.57 73.114 151.964 73.216 151.304 73.216ZM159.88 73.216C159.22 73.216 158.638 73.102 158.134 72.874C157.642 72.634 157.258 72.31 156.982 71.902C156.706 71.482 156.568 70.99 156.568 70.426C156.568 69.898 156.682 69.424 156.91 69.004C157.15 68.584 157.516 68.23 158.008 67.942C158.5 67.654 159.118 67.45 159.862 67.33L163.246 66.772V68.374L160.258 68.896C159.718 68.992 159.322 69.166 159.07 69.418C158.818 69.658 158.692 69.97 158.692 70.354C158.692 70.726 158.83 71.032 159.106 71.272C159.394 71.5 159.76 71.614 160.204 71.614C160.756 71.614 161.236 71.494 161.644 71.254C162.064 71.014 162.388 70.696 162.616 70.3C162.844 69.892 162.958 69.442 162.958 68.95V66.448C162.958 65.968 162.778 65.578 162.418 65.278C162.07 64.966 161.602 64.81 161.014 64.81C160.474 64.81 160 64.954 159.592 65.242C159.196 65.518 158.902 65.878 158.71 66.322L157.018 65.476C157.198 64.996 157.492 64.576 157.9 64.216C158.308 63.844 158.782 63.556 159.322 63.352C159.874 63.148 160.456 63.046 161.068 63.046C161.836 63.046 162.514 63.19 163.102 63.478C163.702 63.766 164.164 64.168 164.488 64.684C164.824 65.188 164.992 65.776 164.992 66.448V73H163.048V71.236L163.462 71.29C163.234 71.686 162.94 72.028 162.58 72.316C162.232 72.604 161.83 72.826 161.374 72.982C160.93 73.138 160.432 73.216 159.88 73.216Z" fill="#393939"/>
<path d="M63.2812 47H46.9754C45.3355 47 44 47.9601 44 49.139V60.861C44 62.0399 45.3355 63 46.9754 63H63.2812C64.9211 63 66.2566 62.0399 66.2566 60.861V49.139C66.2566 47.9601 64.9211 47 63.2812 47ZM46.9754 48.1958H63.2812C64.0074 48.1958 64.5931 48.6169 64.5931 49.139V55.3874L60.8212 51.9684C60.3761 51.5474 59.4858 51.5474 59.0407 51.9684L53.5352 56.9705L51.2393 55.1684C50.7708 54.7978 49.9507 54.7978 49.4822 55.1684L45.6634 58.1494V49.1389C45.6634 48.6169 46.2491 48.1958 46.9753 48.1958L46.9754 48.1958Z" fill="#BABABA"/>
</svg>
