<svg width="12" height="12" viewBox="0 0 12 12" fill="none" xmlns="http://www.w3.org/2000/svg">
<path fill-rule="evenodd" clip-rule="evenodd" d="M1.06149e-07 6C1.64774e-07 5.44772 0.447715 5 1 5L11 5C11.5523 5 12 5.44772 12 6C12 6.55229 11.5523 7 11 7L1 7C0.447715 7 4.75247e-08 6.55228 1.06149e-07 6Z" fill="#BABABA"/>
<path fill-rule="evenodd" clip-rule="evenodd" d="M6.00006 2.18557e-08C6.55235 3.39263e-08 7.00006 0.447715 7.00006 1L7.00006 11C7.00006 11.5523 6.55235 12 6.00006 12C5.44778 12 5.00006 11.5523 5.00006 11L5.00006 1C5.00006 0.447715 5.44778 9.78513e-09 6.00006 2.18557e-08Z" fill="#BABABA"/>
</svg>
