<svg width="138" height="55" viewBox="0 0 138 55" fill="none" xmlns="http://www.w3.org/2000/svg">
<rect width="138" height="55" rx="10" fill="#1C1C1C"/>
<path d="M36.22 37L41.46 22.1H44.38L49.62 37H47.1L45.96 33.66H39.9L38.74 37H36.22ZM40.58 31.56H45.24L42.6 23.76H43.26L40.58 31.56ZM50.3677 41V26.18H52.5277V28.42L52.2677 27.9C52.6677 27.2867 53.201 26.8067 53.8677 26.46C54.5343 26.1133 55.2943 25.94 56.1477 25.94C57.1743 25.94 58.0943 26.1867 58.9077 26.68C59.7343 27.1733 60.381 27.8467 60.8477 28.7C61.3277 29.5533 61.5677 30.5133 61.5677 31.58C61.5677 32.6467 61.3277 33.6067 60.8477 34.46C60.381 35.3133 59.741 35.9933 58.9277 36.5C58.1143 36.9933 57.1877 37.24 56.1477 37.24C55.3077 37.24 54.541 37.0667 53.8477 36.72C53.1677 36.3733 52.641 35.8733 52.2677 35.22L52.6277 34.8V41H50.3677ZM55.9277 35.14C56.5677 35.14 57.1343 34.9867 57.6277 34.68C58.121 34.3733 58.5077 33.9533 58.7877 33.42C59.081 32.8733 59.2277 32.26 59.2277 31.58C59.2277 30.9 59.081 30.2933 58.7877 29.76C58.5077 29.2267 58.121 28.8067 57.6277 28.5C57.1343 28.1933 56.5677 28.04 55.9277 28.04C55.301 28.04 54.7343 28.1933 54.2277 28.5C53.7343 28.8067 53.341 29.2267 53.0477 29.76C52.7677 30.2933 52.6277 30.9 52.6277 31.58C52.6277 32.26 52.7677 32.8733 53.0477 33.42C53.341 33.9533 53.7343 34.3733 54.2277 34.68C54.7343 34.9867 55.301 35.14 55.9277 35.14ZM62.9661 41V26.18H65.1261V28.42L64.8661 27.9C65.2661 27.2867 65.7994 26.8067 66.4661 26.46C67.1328 26.1133 67.8928 25.94 68.7461 25.94C69.7728 25.94 70.6928 26.1867 71.5061 26.68C72.3328 27.1733 72.9794 27.8467 73.4461 28.7C73.9261 29.5533 74.1661 30.5133 74.1661 31.58C74.1661 32.6467 73.9261 33.6067 73.4461 34.46C72.9794 35.3133 72.3394 35.9933 71.5261 36.5C70.7128 36.9933 69.7861 37.24 68.7461 37.24C67.9061 37.24 67.1394 37.0667 66.4461 36.72C65.7661 36.3733 65.2394 35.8733 64.8661 35.22L65.2261 34.8V41H62.9661ZM68.5261 35.14C69.1661 35.14 69.7328 34.9867 70.2261 34.68C70.7194 34.3733 71.1061 33.9533 71.3861 33.42C71.6794 32.8733 71.8261 32.26 71.8261 31.58C71.8261 30.9 71.6794 30.2933 71.3861 29.76C71.1061 29.2267 70.7194 28.8067 70.2261 28.5C69.7328 28.1933 69.1661 28.04 68.5261 28.04C67.8994 28.04 67.3328 28.1933 66.8261 28.5C66.3328 28.8067 65.9394 29.2267 65.6461 29.76C65.3661 30.2933 65.2261 30.9 65.2261 31.58C65.2261 32.26 65.3661 32.8733 65.6461 33.42C65.9394 33.9533 66.3328 34.3733 66.8261 34.68C67.3328 34.9867 67.8994 35.14 68.5261 35.14ZM83.7006 37.24C82.7673 37.24 81.9006 37.0667 81.1006 36.72C80.3006 36.36 79.6206 35.8733 79.0606 35.26C78.5006 34.6467 78.0873 33.94 77.8206 33.14L79.8206 32.3C80.1806 33.22 80.7073 33.9267 81.4006 34.42C82.094 34.9133 82.894 35.16 83.8006 35.16C84.334 35.16 84.8006 35.08 85.2006 34.92C85.6006 34.7467 85.9073 34.5067 86.1206 34.2C86.3473 33.8933 86.4606 33.54 86.4606 33.14C86.4606 32.5933 86.3073 32.16 86.0006 31.84C85.694 31.52 85.2406 31.2667 84.6406 31.08L81.8406 30.2C80.7206 29.8533 79.8673 29.3267 79.2806 28.62C78.694 27.9 78.4006 27.06 78.4006 26.1C78.4006 25.26 78.6073 24.5267 79.0206 23.9C79.434 23.26 80.0006 22.76 80.7206 22.4C81.454 22.04 82.2873 21.86 83.2206 21.86C84.114 21.86 84.9273 22.02 85.6606 22.34C86.394 22.6467 87.0206 23.0733 87.5406 23.62C88.074 24.1667 88.4606 24.8 88.7006 25.52L86.7406 26.38C86.4473 25.5933 85.9873 24.9867 85.3606 24.56C84.7473 24.1333 84.034 23.92 83.2206 23.92C82.7273 23.92 82.294 24.0067 81.9206 24.18C81.5473 24.34 81.254 24.58 81.0406 24.9C80.8406 25.2067 80.7406 25.5667 80.7406 25.98C80.7406 26.46 80.894 26.8867 81.2006 27.26C81.5073 27.6333 81.974 27.9133 82.6006 28.1L85.2006 28.92C86.3873 29.28 87.2806 29.8 87.8806 30.48C88.4806 31.1467 88.7806 31.98 88.7806 32.98C88.7806 33.8067 88.5606 34.54 88.1206 35.18C87.694 35.82 87.1006 36.3267 86.3406 36.7C85.5806 37.06 84.7006 37.24 83.7006 37.24ZM95.0898 37.12C93.9565 37.12 93.0765 36.8 92.4498 36.16C91.8232 35.52 91.5098 34.62 91.5098 33.46V28.22H89.6098V26.18H89.9098C90.4165 26.18 90.8098 26.0333 91.0898 25.74C91.3698 25.4467 91.5098 25.0467 91.5098 24.54V23.7H93.7698V26.18H96.2298V28.22H93.7698V33.36C93.7698 33.7333 93.8298 34.0533 93.9498 34.32C94.0698 34.5733 94.2632 34.7733 94.5298 34.92C94.7965 35.0533 95.1432 35.12 95.5698 35.12C95.6765 35.12 95.7965 35.1133 95.9298 35.1C96.0632 35.0867 96.1898 35.0733 96.3098 35.06V37C96.1232 37.0267 95.9165 37.0533 95.6898 37.08C95.4632 37.1067 95.2632 37.12 95.0898 37.12ZM102.74 37.24C101.7 37.24 100.747 36.9933 99.88 36.5C99.0267 36.0067 98.3467 35.3333 97.84 34.48C97.3333 33.6267 97.08 32.66 97.08 31.58C97.08 30.4867 97.3333 29.52 97.84 28.68C98.3467 27.8267 99.0267 27.16 99.88 26.68C100.733 26.1867 101.687 25.94 102.74 25.94C103.807 25.94 104.76 26.1867 105.6 26.68C106.453 27.16 107.127 27.8267 107.62 28.68C108.127 29.52 108.38 30.4867 108.38 31.58C108.38 32.6733 108.127 33.6467 107.62 34.5C107.113 35.3533 106.433 36.0267 105.58 36.52C104.727 37 103.78 37.24 102.74 37.24ZM102.74 35.14C103.38 35.14 103.947 34.9867 104.44 34.68C104.933 34.3733 105.32 33.9533 105.6 33.42C105.893 32.8733 106.04 32.26 106.04 31.58C106.04 30.9 105.893 30.2933 105.6 29.76C105.32 29.2267 104.933 28.8067 104.44 28.5C103.947 28.1933 103.38 28.04 102.74 28.04C102.113 28.04 101.547 28.1933 101.04 28.5C100.547 28.8067 100.153 29.2267 99.86 29.76C99.58 30.2933 99.44 30.9 99.44 31.58C99.44 32.26 99.58 32.8733 99.86 33.42C100.153 33.9533 100.547 34.3733 101.04 34.68C101.547 34.9867 102.113 35.14 102.74 35.14ZM109.786 37V26.18H111.946V28.36L111.746 28.04C111.986 27.3333 112.373 26.8267 112.906 26.52C113.44 26.2 114.08 26.04 114.826 26.04H115.486V28.1H114.546C113.8 28.1 113.193 28.3333 112.726 28.8C112.273 29.2533 112.046 29.9067 112.046 30.76V37H109.786ZM121.312 37.24C120.232 37.24 119.272 36.9933 118.432 36.5C117.606 35.9933 116.959 35.3133 116.492 34.46C116.026 33.5933 115.792 32.6267 115.792 31.56C115.792 30.4667 116.026 29.5 116.492 28.66C116.972 27.82 117.612 27.16 118.412 26.68C119.212 26.1867 120.119 25.94 121.132 25.94C121.946 25.94 122.672 26.08 123.312 26.36C123.952 26.64 124.492 27.0267 124.932 27.52C125.372 28 125.706 28.5533 125.932 29.18C126.172 29.8067 126.292 30.4733 126.292 31.18C126.292 31.3533 126.286 31.5333 126.272 31.72C126.259 31.9067 126.232 32.08 126.192 32.24H117.572V30.44H124.912L123.832 31.26C123.966 30.6067 123.919 30.0267 123.692 29.52C123.479 29 123.146 28.5933 122.692 28.3C122.252 27.9933 121.732 27.84 121.132 27.84C120.532 27.84 119.999 27.9933 119.532 28.3C119.066 28.5933 118.706 29.02 118.452 29.58C118.199 30.1267 118.099 30.7933 118.152 31.58C118.086 32.3133 118.186 32.9533 118.452 33.5C118.732 34.0467 119.119 34.4733 119.612 34.78C120.119 35.0867 120.692 35.24 121.332 35.24C121.986 35.24 122.539 35.0933 122.992 34.8C123.459 34.5067 123.826 34.1267 124.092 33.66L125.932 34.56C125.719 35.0667 125.386 35.5267 124.932 35.94C124.492 36.34 123.959 36.66 123.332 36.9C122.719 37.1267 122.046 37.24 121.312 37.24Z" fill="white"/>
<path d="M38.028 17.072C37.748 17.072 37.488 17.02 37.248 16.916C37.008 16.808 36.804 16.662 36.636 16.478C36.468 16.294 36.344 16.082 36.264 15.842L36.864 15.59C36.972 15.866 37.13 16.078 37.338 16.226C37.546 16.374 37.786 16.448 38.058 16.448C38.218 16.448 38.358 16.424 38.478 16.376C38.598 16.324 38.69 16.252 38.754 16.16C38.822 16.068 38.856 15.962 38.856 15.842C38.856 15.678 38.81 15.548 38.718 15.452C38.626 15.356 38.49 15.28 38.31 15.224L37.47 14.96C37.134 14.856 36.878 14.698 36.702 14.486C36.526 14.27 36.438 14.018 36.438 13.73C36.438 13.478 36.5 13.258 36.624 13.07C36.748 12.878 36.918 12.728 37.134 12.62C37.354 12.512 37.604 12.458 37.884 12.458C38.152 12.458 38.396 12.506 38.616 12.602C38.836 12.694 39.024 12.822 39.18 12.986C39.34 13.15 39.456 13.34 39.528 13.556L38.94 13.814C38.852 13.578 38.714 13.396 38.526 13.268C38.342 13.14 38.128 13.076 37.884 13.076C37.736 13.076 37.606 13.102 37.494 13.154C37.382 13.202 37.294 13.274 37.23 13.37C37.17 13.462 37.14 13.57 37.14 13.694C37.14 13.838 37.186 13.966 37.278 14.078C37.37 14.19 37.51 14.274 37.698 14.33L38.478 14.576C38.834 14.684 39.102 14.84 39.282 15.044C39.462 15.244 39.552 15.494 39.552 15.794C39.552 16.042 39.486 16.262 39.354 16.454C39.226 16.646 39.048 16.798 38.82 16.91C38.592 17.018 38.328 17.072 38.028 17.072ZM41.6068 17.072C41.2948 17.072 41.0088 16.998 40.7488 16.85C40.4928 16.702 40.2888 16.5 40.1368 16.244C39.9848 15.988 39.9088 15.698 39.9088 15.374C39.9088 15.046 39.9848 14.756 40.1368 14.504C40.2888 14.248 40.4928 14.048 40.7488 13.904C41.0048 13.756 41.2908 13.682 41.6068 13.682C41.9268 13.682 42.2128 13.756 42.4648 13.904C42.7208 14.048 42.9228 14.248 43.0708 14.504C43.2228 14.756 43.2988 15.046 43.2988 15.374C43.2988 15.702 43.2228 15.994 43.0708 16.25C42.9188 16.506 42.7148 16.708 42.4588 16.856C42.2028 17 41.9188 17.072 41.6068 17.072ZM41.6068 16.442C41.7988 16.442 41.9688 16.396 42.1168 16.304C42.2648 16.212 42.3808 16.086 42.4648 15.926C42.5528 15.762 42.5968 15.578 42.5968 15.374C42.5968 15.17 42.5528 14.988 42.4648 14.828C42.3808 14.668 42.2648 14.542 42.1168 14.45C41.9688 14.358 41.7988 14.312 41.6068 14.312C41.4188 14.312 41.2488 14.358 41.0968 14.45C40.9488 14.542 40.8308 14.668 40.7428 14.828C40.6588 14.988 40.6168 15.17 40.6168 15.374C40.6168 15.578 40.6588 15.762 40.7428 15.926C40.8308 16.086 40.9488 16.212 41.0968 16.304C41.2488 16.396 41.4188 16.442 41.6068 16.442ZM45.2867 17.072C44.9747 17.072 44.6887 16.998 44.4287 16.85C44.1727 16.702 43.9687 16.5 43.8167 16.244C43.6647 15.988 43.5887 15.698 43.5887 15.374C43.5887 15.046 43.6647 14.756 43.8167 14.504C43.9687 14.248 44.1727 14.048 44.4287 13.904C44.6847 13.756 44.9707 13.682 45.2867 13.682C45.6067 13.682 45.8927 13.756 46.1447 13.904C46.4007 14.048 46.6027 14.248 46.7507 14.504C46.9027 14.756 46.9787 15.046 46.9787 15.374C46.9787 15.702 46.9027 15.994 46.7507 16.25C46.5987 16.506 46.3947 16.708 46.1387 16.856C45.8827 17 45.5987 17.072 45.2867 17.072ZM45.2867 16.442C45.4787 16.442 45.6487 16.396 45.7967 16.304C45.9447 16.212 46.0607 16.086 46.1447 15.926C46.2327 15.762 46.2767 15.578 46.2767 15.374C46.2767 15.17 46.2327 14.988 46.1447 14.828C46.0607 14.668 45.9447 14.542 45.7967 14.45C45.6487 14.358 45.4787 14.312 45.2867 14.312C45.0987 14.312 44.9287 14.358 44.7767 14.45C44.6287 14.542 44.5107 14.668 44.4227 14.828C44.3387 14.988 44.2967 15.17 44.2967 15.374C44.2967 15.578 44.3387 15.762 44.4227 15.926C44.5107 16.086 44.6287 16.212 44.7767 16.304C44.9287 16.396 45.0987 16.442 45.2867 16.442ZM47.4006 17V13.754H48.0486V14.39L47.9706 14.306C48.0506 14.102 48.1786 13.948 48.3546 13.844C48.5306 13.736 48.7346 13.682 48.9666 13.682C49.2066 13.682 49.4186 13.734 49.6026 13.838C49.7866 13.942 49.9306 14.086 50.0346 14.27C50.1386 14.454 50.1906 14.666 50.1906 14.906V17H49.5186V15.086C49.5186 14.922 49.4886 14.784 49.4286 14.672C49.3686 14.556 49.2826 14.468 49.1706 14.408C49.0626 14.344 48.9386 14.312 48.7986 14.312C48.6586 14.312 48.5326 14.344 48.4206 14.408C48.3126 14.468 48.2286 14.556 48.1686 14.672C48.1086 14.788 48.0786 14.926 48.0786 15.086V17H47.4006ZM53.0511 17.072C52.7391 17.072 52.4531 16.998 52.1931 16.85C51.9371 16.702 51.7331 16.5 51.5811 16.244C51.4291 15.988 51.3531 15.698 51.3531 15.374C51.3531 15.046 51.4291 14.756 51.5811 14.504C51.7331 14.248 51.9371 14.048 52.1931 13.904C52.4491 13.756 52.7351 13.682 53.0511 13.682C53.3711 13.682 53.6571 13.756 53.9091 13.904C54.1651 14.048 54.3671 14.248 54.5151 14.504C54.6671 14.756 54.7431 15.046 54.7431 15.374C54.7431 15.702 54.6671 15.994 54.5151 16.25C54.3631 16.506 54.1591 16.708 53.9031 16.856C53.6471 17 53.3631 17.072 53.0511 17.072ZM53.0511 16.442C53.2431 16.442 53.4131 16.396 53.5611 16.304C53.7091 16.212 53.8251 16.086 53.9091 15.926C53.9971 15.762 54.0411 15.578 54.0411 15.374C54.0411 15.17 53.9971 14.988 53.9091 14.828C53.8251 14.668 53.7091 14.542 53.5611 14.45C53.4131 14.358 53.2431 14.312 53.0511 14.312C52.8631 14.312 52.6931 14.358 52.5411 14.45C52.3931 14.542 52.2751 14.668 52.1871 14.828C52.1031 14.988 52.0611 15.17 52.0611 15.374C52.0611 15.578 52.1031 15.762 52.1871 15.926C52.2751 16.086 52.3931 16.212 52.5411 16.304C52.6931 16.396 52.8631 16.442 53.0511 16.442ZM55.165 17V13.754H55.813V14.39L55.735 14.306C55.815 14.102 55.943 13.948 56.119 13.844C56.295 13.736 56.499 13.682 56.731 13.682C56.971 13.682 57.183 13.734 57.367 13.838C57.551 13.942 57.695 14.086 57.799 14.27C57.903 14.454 57.955 14.666 57.955 14.906V17H57.283V15.086C57.283 14.922 57.253 14.784 57.193 14.672C57.133 14.556 57.047 14.468 56.935 14.408C56.827 14.344 56.703 14.312 56.563 14.312C56.423 14.312 56.297 14.344 56.185 14.408C56.077 14.468 55.993 14.556 55.933 14.672C55.873 14.788 55.843 14.926 55.843 15.086V17H55.165Z" fill="white"/>
<path fill-rule="evenodd" clip-rule="evenodd" d="M27.7084 25.2821C27.6776 22.1173 30.2448 20.5986 30.3595 20.5234C28.9165 18.3753 26.6685 18.0801 25.8674 18.0469C23.9544 17.8503 22.1352 19.1938 21.1632 19.1938C20.194 19.1938 18.6962 18.0764 17.11 18.1059C15.0251 18.1373 13.103 19.34 12.0282 21.2403C9.86212 25.0648 11.4741 30.7333 13.5853 33.8346C14.6167 35.3533 15.8466 37.0593 17.4618 36.9984C19.0167 36.9361 19.6051 35.9733 21.486 35.9733C23.3664 35.9733 23.8945 36.9985 25.5406 36.9657C27.2142 36.9343 28.2746 35.4174 29.2991 33.8936C30.4846 32.1312 30.9705 30.427 31 30.3394C30.9628 30.3223 27.7365 29.0647 27.7038 25.2835L27.7084 25.2821H27.7084ZM24.6167 15.992C25.4735 14.9341 26.0524 13.4657 25.8942 12C24.6598 12.0512 23.1629 12.8373 22.2766 13.8938C21.481 14.8317 20.7861 16.3265 20.9719 17.7622C22.3505 17.8715 23.7581 17.0494 24.6153 15.9938L24.6167 15.992Z" fill="white"/>
</svg>
