<svg width="1440" height="937" viewBox="0 0 1440 937" fill="none" xmlns="http://www.w3.org/2000/svg">
<circle cx="719.5" cy="-174.5" r="889.5" fill="#FFF0C6"/>
<path d="M305.5 199L323.875 237.14L363.836 223.164L349.86 263.125L388 281.5L349.86 299.875L363.836 339.836L323.875 325.86L305.5 364L287.125 325.86L247.164 339.836L261.14 299.875L223 281.5L261.14 263.125L247.164 223.164L287.125 237.14L305.5 199Z" fill="#8DA7FF"/>
<path fill-rule="evenodd" clip-rule="evenodd" d="M1089.23 854.426L1241.94 778.628C1260.45 814.909 1250.72 860.311 1217 885.529C1179.3 913.72 1125.89 906.012 1097.7 868.315C1094.38 863.88 1091.56 859.228 1089.23 854.426Z" fill="#FFB26B"/>
</svg>
