<svg width="1400" height="537" viewBox="0 0 1400 537" fill="none" xmlns="http://www.w3.org/2000/svg">
<rect width="1400" height="537" rx="20" fill="#CEDCF4"/>
<mask id="mask0_962_41939" style="mask-type:alpha" maskUnits="userSpaceOnUse" x="0" y="0" width="1400" height="537">
<rect width="1400" height="537" rx="20" fill="#CEDCF4"/>
</mask>
<g mask="url(#mask0_962_41939)">
<path fill-rule="evenodd" clip-rule="evenodd" d="M767.285 137.48C763.596 138.846 759.996 140.178 756.508 141.443C633.229 186.127 507.378 260.378 399.469 345.776C207.573 497.643 35.5846 700.256 -94.4414 921.351C-108.741 945.666 -122.949 969.49 -136.969 992.999C-191.804 1084.95 -243.765 1172.08 -287.123 1264.93C-293.697 1279.01 -299.842 1291.73 -305.515 1303.48C-323.477 1340.68 -336.71 1368.08 -343.866 1397.61C-357.467 1453.74 -408.667 1486.56 -458.224 1470.93C-507.781 1455.3 -536.929 1397.13 -523.327 1341.01C-509.761 1285.03 -482.35 1228.85 -463.006 1189.2C-458.76 1180.5 -454.903 1172.6 -451.666 1165.67C-403.16 1061.79 -344.059 962.773 -288.655 869.945C-275.288 847.548 -262.135 825.512 -249.399 803.856C-107.19 562.044 80.8142 340.205 292.563 172.628C413.278 77.0942 555.67 -7.50386 699.233 -59.5401C700.951 -60.1629 703.172 -60.9979 705.83 -61.9971C724.23 -68.9144 763.561 -83.7003 801.805 -90.3986C823.654 -94.2252 853.172 -97.0694 883.043 -90.1636C914.613 -82.8651 955.992 -61.8009 979.336 -10.21C1018.05 75.3499 987.54 155.7 964.061 200.1C950.756 225.261 932.339 251.811 917.355 272.391C1107.6 203.627 1301.16 144.022 1496.92 96.1493C1509.09 93.1734 1522.03 89.8447 1535.59 86.3565C1605.14 68.4706 1690.99 46.389 1772.54 46.1533C1823.93 46.0047 1865.85 93.114 1866.17 151.375C1866.5 209.636 1825.1 256.986 1773.71 257.134C1714.7 257.305 1653.27 272.93 1583.85 290.589C1568.58 294.473 1552.92 298.456 1536.81 302.395C1330.39 352.876 1125.86 416.994 924.635 491.688C879.496 508.444 834.545 526.548 788.47 545.192C785.76 546.288 783.045 547.387 780.327 548.487C737.174 565.953 692.959 583.85 648.313 600.727C646.703 601.335 644.846 602.157 640.808 603.993L640.565 604.104C638.98 604.825 636.206 606.087 633.479 607.226L633.315 607.294C631.298 608.138 624.296 611.069 615.811 612.948C612.007 613.791 600.96 616.104 586.965 614.393C574.069 612.817 537.749 604.727 515.81 562.259C495.513 522.97 504.561 486.027 507.485 475.736C511.248 462.498 516.484 453.064 518.611 449.358C525.664 437.074 535.29 426.145 539.193 421.715C539.384 421.498 539.561 421.297 539.723 421.112C553.052 405.939 565.729 389.786 580.496 370.969C581.571 369.599 582.657 368.216 583.755 366.817C599.248 347.086 617.044 324.572 636.801 302.977C642.636 296.6 648.319 290.42 653.862 284.393C690.337 244.731 720.731 211.682 748.011 172.651C753.416 164.918 759.263 157.016 764.512 149.945L766.356 147.461C769.733 142.913 772.96 138.569 776.146 134.213C773.144 135.311 770.187 136.406 767.285 137.48ZM811.682 73.3768C811.725 73.3537 811.698 73.7583 811.47 74.6603C811.524 73.8509 811.638 73.3999 811.682 73.3768ZM668.515 574.178C668.508 574.183 668.621 574.037 668.876 573.726C668.65 574.017 668.523 574.173 668.515 574.178Z" fill="#E0EBA5"/>
</g>
</svg>
