<svg width="30" height="17" viewBox="0 0 30 17" fill="none" xmlns="http://www.w3.org/2000/svg">
<path d="M2.87727 2.83333V2.68333H2.72727H1.36364C1.04365 2.68333 0.73555 2.55133 0.507469 2.31438C0.279201 2.07723 0.15 1.75441 0.15 1.41667C0.15 1.07892 0.279201 0.756101 0.507469 0.518956C0.73555 0.282006 1.04365 0.15 1.36364 0.15H28.6364C28.9564 0.15 29.2645 0.282006 29.4925 0.518956C29.7208 0.756101 29.85 1.07892 29.85 1.41667C29.85 1.75442 29.7208 2.07723 29.4925 2.31438C29.2645 2.55133 28.9564 2.68333 28.6364 2.68333H27.2727H27.1227V2.83333V15.5833C27.1227 15.9211 26.9935 16.2439 26.7653 16.481C26.5372 16.718 26.2291 16.85 25.9091 16.85C25.5891 16.85 25.281 16.718 25.0529 16.481C24.8247 16.2439 24.6955 15.9211 24.6955 15.5833V8.5V8.35H24.5455H5.45455H5.30455V8.5V15.5833C5.30455 15.9211 5.17534 16.2439 4.94708 16.481C4.719 16.718 4.4109 16.85 4.09091 16.85C3.77092 16.85 3.46282 16.718 3.23474 16.481C3.00647 16.2439 2.87727 15.9211 2.87727 15.5833V2.83333ZM24.5455 5.81667H24.6955V5.66667V2.83333V2.68333H24.5455H5.45455H5.30455V2.83333V5.66667V5.81667H5.45455H24.5455Z" fill="#BABABA" stroke="#F9F9F9" stroke-width="0.3"/>
</svg>
