<svg width="34" height="30" viewBox="0 0 34 30" fill="none" xmlns="http://www.w3.org/2000/svg">
<path d="M25.4928 12.9189H10.667C9.75864 12.9189 9.01904 13.6582 9.01904 14.5666V23.3524C9.01904 24.2608 9.75864 25.0001 10.667 25.0001H25.4928C26.4011 25.0001 27.1407 24.2608 27.1407 23.3524V14.5666C27.1407 13.6582 26.4011 12.9189 25.4928 12.9189ZM25.8216 23.3524C25.8216 23.5343 25.6746 23.6813 25.4928 23.6813H10.667C10.4848 23.6813 10.3372 23.5343 10.3372 23.3524V14.5666C10.3372 14.3847 10.4848 14.2364 10.667 14.2364H25.4928C25.675 14.2364 25.8216 14.3847 25.8216 14.5666V23.3524Z" fill="#BABABA"/>
<path d="M22.5138 15.376C21.9551 15.376 21.449 15.5951 21.0725 15.9501C20.6964 15.5951 20.1903 15.376 19.6323 15.376C18.4715 15.376 17.5303 16.3166 17.5303 17.4766C17.5303 18.6367 18.4715 19.5786 19.6323 19.5786C20.1903 19.5786 20.6964 19.3595 21.0725 19.0031C21.449 19.3595 21.9551 19.5786 22.5138 19.5786C23.6739 19.5786 24.6145 18.6367 24.6145 17.4766C24.6145 16.3166 23.6739 15.376 22.5138 15.376Z" fill="#BABABA"/>
<path d="M15.0598 21.0449H11.6001V22.3083H15.0598V21.0449Z" fill="#BABABA"/>
<path d="M19.8098 21.0449H16.3501V22.3083H19.8098V21.0449Z" fill="#BABABA"/>
<path d="M24.5598 21.0449H21.1001V22.3083H24.5598V21.0449Z" fill="#BABABA"/>
<path d="M8.12784 16.7627H7.6463C7.46509 16.7627 7.31744 16.6144 7.31744 16.4338V11.2117H22.8026V12.2647H24.12V7.64764C24.12 6.73926 23.3808 6 22.473 6H7.6463C6.73859 5.99966 6 6.73926 6 7.64764V16.4338C6 17.3409 6.73859 18.0801 7.6463 18.0801H8.12784V16.7627ZM7.31744 7.64764C7.31744 7.46576 7.46509 7.31744 7.6463 7.31744H22.473C22.6542 7.31744 22.8026 7.46576 22.8026 7.64764V8.38824H7.31744V7.64764Z" fill="#BABABA"/>
</svg>
