<svg width="34" height="30" viewBox="0 0 34 30" fill="none" xmlns="http://www.w3.org/2000/svg">
<path fill-rule="evenodd" clip-rule="evenodd" d="M27 10.1977C27 8.98358 26.0164 8 24.8023 8H8.19767C6.98358 8 6 8.98358 6 10.1977C6 11.4118 6.98358 12.3953 8.19767 12.3953H24.8023C26.0164 12.3953 27 11.4118 27 10.1977ZM25.5349 10.1977C25.5349 10.602 25.2067 10.9302 24.8023 10.9302H8.19767C7.7933 10.9302 7.46512 10.602 7.46512 10.1977C7.46512 9.7933 7.7933 9.46512 8.19767 9.46512H24.8023C25.2067 9.46512 25.5349 9.7933 25.5349 10.1977Z" fill="#BABABA"/>
<path fill-rule="evenodd" clip-rule="evenodd" d="M8.46031 11.501L6.01845 22.2452C5.92859 22.6388 6.1757 23.0324 6.57031 23.1213C6.96394 23.2112 7.35756 22.964 7.44645 22.5694L9.88831 11.8253C9.97817 11.4316 9.73105 11.038 9.33645 10.9491C8.94282 10.8593 8.54919 11.1064 8.46031 11.501ZM23.1115 11.8253L25.5533 22.5694C25.6422 22.964 26.0358 23.2112 26.4295 23.1213C26.8241 23.0324 27.0712 22.6388 26.9813 22.2452L24.5395 11.501C24.4506 11.1064 24.057 10.8593 23.6633 10.9491C23.2687 11.038 23.0216 11.4316 23.1115 11.8253Z" fill="#BABABA"/>
<path fill-rule="evenodd" clip-rule="evenodd" d="M24.3141 13.8604H8.68617C8.2818 13.8604 7.95361 14.1885 7.95361 14.5929C7.95361 14.9973 8.2818 15.3255 8.68617 15.3255H24.3141C24.7185 15.3255 25.0466 14.9973 25.0466 14.5929C25.0466 14.1885 24.7185 13.8604 24.3141 13.8604Z" fill="#BABABA"/>
</svg>
