<svg width="34" height="30" viewBox="0 0 34 30" fill="none" xmlns="http://www.w3.org/2000/svg">
<path fill-rule="evenodd" clip-rule="evenodd" d="M11.75 13.25C9.95507 13.25 8.5 14.7051 8.5 16.5V23.25C8.5 23.6642 8.16421 24 7.75 24V24C7.33579 24 7 23.6642 7 23.25V16.5C7 13.8766 9.12665 11.75 11.75 11.75H21.25C23.8734 11.75 26 13.8766 26 16.5V23.25C26 23.6642 25.6642 24 25.25 24V24C24.8358 24 24.5 23.6642 24.5 23.25V16.5C24.5 14.7051 23.0449 13.25 21.25 13.25H11.75Z" fill="#BABABA"/>
<path fill-rule="evenodd" clip-rule="evenodd" d="M12.5 16C12.5 15.5858 12.8358 15.25 13.25 15.25H19.75C20.1642 15.25 20.5 15.5858 20.5 16C20.5 16.4142 20.1642 16.75 19.75 16.75H13.25C12.8358 16.75 12.5 16.4142 12.5 16Z" fill="#BABABA"/>
<path d="M20.205 7.55856C19.9623 7.81042 19.5614 7.81783 19.3095 7.57512C18.4385 6.73568 17.2759 6.26667 16.0662 6.26667C14.8565 6.26667 13.6939 6.73568 12.8228 7.57512C12.5709 7.81783 12.17 7.81042 11.9273 7.55856C11.6846 7.3067 11.692 6.90576 11.9438 6.66304C13.051 5.59612 14.5286 5 16.0662 5C17.6037 5 19.0814 5.59612 20.1885 6.66304C20.4403 6.90576 20.4477 7.3067 20.205 7.55856Z" fill="#BABABA"/>
<path d="M19.1291 9.45783C18.8867 9.71008 18.4858 9.71813 18.2336 9.47582C17.6509 8.91606 16.8742 8.60344 16.0662 8.60344C15.2581 8.60344 14.4815 8.91606 13.8987 9.47582C13.6465 9.71813 13.2456 9.71008 13.0032 9.45783C12.7609 9.20558 12.769 8.80465 13.0212 8.56234C13.8399 7.77595 14.931 7.33678 16.0662 7.33678C17.2013 7.33678 18.2924 7.77595 19.1111 8.56234C19.3633 8.80466 19.3714 9.20558 19.1291 9.45783Z" fill="#BABABA"/>
</svg>
