<svg width="34" height="30" viewBox="0 0 34 30" fill="none" xmlns="http://www.w3.org/2000/svg">
<path d="M25.0479 9.92811L21.048 5.9345C20.4444 5.3399 19.6319 5.00451 18.784 5H13.184C12.336 5.01201 11.5274 5.35962 10.936 5.96645L6.936 9.96006C6.63893 10.257 6.40337 10.6094 6.24276 10.9973C6.08216 11.3851 5.99967 11.8008 6 12.2204V17.8115C5.99967 18.2312 6.08216 18.6468 6.24276 19.0347C6.40337 19.4225 6.63893 19.775 6.936 20.0719L10.936 24.0655C11.5395 24.6601 12.3521 24.9955 13.2 25H18.8C19.6479 24.9955 20.4604 24.6601 21.064 24.0655L25.0639 20.0719C25.361 19.775 25.5966 19.4225 25.7572 19.0347C25.9178 18.6468 26.0003 18.2312 25.9999 17.8115V12.2204C26.0024 11.7943 25.9195 11.3719 25.756 10.9782C25.5925 10.5845 25.3517 10.2275 25.0479 9.92811ZM24.384 17.7955C24.3862 18.009 24.3457 18.2208 24.2646 18.4183C24.1835 18.6159 24.0636 18.7952 23.912 18.9457L19.912 22.9393C19.6133 23.2393 19.2076 23.4088 18.784 23.4105H13.184C12.7603 23.4088 12.3547 23.2393 12.056 22.9393L8.056 18.9457C7.75553 18.6475 7.58578 18.2425 7.584 17.8195V12.2284C7.58578 11.8054 7.75553 11.4004 8.056 11.1022L12.056 7.10863C12.3547 6.80864 12.7603 6.63916 13.184 6.63738H18.784C19.0026 6.6297 19.2204 6.66685 19.424 6.74652C19.6277 6.8262 19.8128 6.94672 19.968 7.10064L23.968 11.0942C24.2684 11.3925 24.4382 11.7975 24.44 12.2204L24.384 17.7955ZM17.256 11.222H14.528C14.3158 11.222 14.1123 11.3062 13.9623 11.456C13.8123 11.6058 13.728 11.8089 13.728 12.0208V19.0415C13.728 19.2534 13.8123 19.4565 13.9623 19.6063C14.1123 19.7561 14.3158 19.8403 14.528 19.8403C14.7401 19.8403 14.9436 19.7561 15.0937 19.6063C15.2437 19.4565 15.328 19.2534 15.328 19.0415V16.3339H17.256C17.5899 16.3356 17.9208 16.27 18.2287 16.141C18.5366 16.012 18.8153 15.8222 19.048 15.5831C19.2908 15.3478 19.4833 15.0658 19.6139 14.7542C19.7445 14.4426 19.8105 14.1078 19.808 13.77C19.808 13.0942 19.5391 12.4461 19.0605 11.9683C18.5819 11.4905 17.9328 11.222 17.256 11.222ZM17.92 14.4569C17.7444 14.6341 17.5056 14.7346 17.256 14.7364H15.328V12.8195H17.256C17.381 12.8195 17.5048 12.8441 17.6203 12.8918C17.7358 12.9396 17.8407 13.0096 17.9291 13.0979C18.0175 13.1861 18.0877 13.2909 18.1355 13.4062C18.1833 13.5216 18.208 13.6451 18.208 13.77C18.2068 14.028 18.1033 14.275 17.92 14.4569Z" fill="#BABABA"/>
</svg>
