<svg width="34" height="30" viewBox="0 0 34 30" fill="none" xmlns="http://www.w3.org/2000/svg">
<path d="M19.9027 16.6405C20.3042 16.6741 20.3817 16.8334 20.5921 17.0855C21.5369 18.2138 22.0801 19.6958 22.0166 21.1632C21.9672 22.3061 20.7294 23.0983 19.544 23.4775C17.1111 24.2558 14.2243 24.2573 12.1052 22.8447C11.4439 22.4048 10.9611 21.7215 11.0025 20.7978C11.0659 19.4057 11.5848 18.0348 12.5127 16.9781C12.8765 16.5645 13.7711 16.6076 13.8582 17.2952C13.8974 17.5978 13.7099 17.8024 13.4353 18.1605C12.8138 18.9716 12.4839 19.9918 12.4662 21.0046C12.4602 21.3817 12.8419 21.6134 13.1998 21.799C14.4967 22.4713 16.0623 22.5648 17.5636 22.404C18.5733 22.2959 19.6805 22.1256 20.3758 21.4044C20.5722 21.2005 20.5522 20.8913 20.5264 20.6188C20.4334 19.6183 20.0289 18.6457 19.3587 17.8952L19.2886 17.8155C19.1874 17.6789 19.1749 17.6299 19.152 17.5378C19.0583 17.152 19.3425 16.7157 19.7455 16.6492C19.8451 16.6331 19.8702 16.6397 19.9027 16.6405ZM26.8831 12.2756C27.1466 12.296 27.354 12.4619 27.5503 12.6936C28.5069 13.8233 29.0391 15.3375 28.9978 16.7742C28.9963 16.8217 28.9926 16.8692 28.9874 16.9167C28.8656 17.9705 27.7622 18.683 26.7022 19.0527C25.6984 19.4035 24.6237 19.5431 23.5534 19.5489C23.0559 19.5518 22.6285 19.0527 22.7939 18.5828C22.9076 18.2577 23.2604 18.0983 23.6309 18.0932C24.8318 18.075 26.0911 17.9251 27.0691 17.2733C27.3171 17.1081 27.5319 16.894 27.5282 16.6368C27.5045 15.5005 27.0956 14.3773 26.3391 13.531L26.2756 13.4594C26.0704 13.1934 26.1066 13.1021 26.1132 12.9669C26.1317 12.5891 26.4786 12.2675 26.8831 12.2756ZM16.531 9.3649C18.2168 9.38097 19.8082 10.673 20.1197 12.3369C20.5434 14.6031 18.3822 17.046 15.8349 16.5783C14.3447 16.305 13.0928 15.024 12.8721 13.5325C12.5747 11.5229 14.2303 9.41386 16.4365 9.36563C16.4675 9.3649 16.4992 9.3649 16.531 9.3649ZM16.4926 10.8199C15.2525 10.8316 14.1528 12.0403 14.3225 13.2943C14.4613 14.3217 15.4341 15.1782 16.4926 15.1848C17.7791 15.1928 18.9247 13.8942 18.6722 12.5883C18.4848 11.6208 17.5828 10.8425 16.5502 10.8199C16.531 10.8199 16.5118 10.8199 16.4926 10.8199ZM23.5113 5C25.2171 5.01608 26.8033 6.32781 27.1038 7.9947C27.5141 10.263 25.3345 12.6921 22.7931 12.2098C21.3058 11.927 20.0606 10.6386 19.8495 9.14493C19.5631 7.12143 21.2527 5.02119 23.4641 5C23.4796 5 23.4951 5 23.5113 5ZM23.473 6.45497C22.2337 6.46666 21.1331 7.67243 21.3029 8.92936C21.4417 9.95682 22.4145 10.8133 23.473 10.8199C24.5211 10.8264 25.5138 9.99921 25.6681 8.95639C25.8467 7.74989 24.8569 6.4842 23.5305 6.45497C23.5113 6.45497 23.4921 6.45497 23.473 6.45497Z" fill="#BABABA"/>
<path d="M6.1169 12.2756C5.85339 12.296 5.64598 12.4619 5.44965 12.6936C4.49305 13.8233 3.96086 15.3375 4.0022 16.7742C4.00367 16.8217 4.00737 16.8692 4.01253 16.9167C4.13432 17.9705 5.23781 18.683 6.29774 19.0527C7.30158 19.4035 8.37628 19.5431 9.44655 19.5489C9.94404 19.5518 10.3714 19.0527 10.2061 18.5828C10.0924 18.2577 9.73958 18.0983 9.36905 18.0932C8.16813 18.075 6.9089 17.9251 5.9309 17.2733C5.68289 17.1081 5.4681 16.894 5.47179 16.6368C5.49541 15.5005 5.90433 14.3773 6.6609 13.531L6.72437 13.4594C6.92957 13.1934 6.8934 13.1021 6.88676 12.9669C6.86831 12.5891 6.52139 12.2675 6.1169 12.2756ZM9.48862 5C7.78283 5.01608 6.19662 6.32781 5.89621 7.9947C5.48581 10.263 7.66547 12.6921 10.2068 12.2098C11.6941 11.927 12.9393 10.6386 13.1504 9.14493C13.4368 7.12143 11.7473 5.02119 9.53586 5C9.52036 5 9.50486 5 9.48862 5ZM9.527 6.45497C10.7663 6.46666 11.8668 7.67243 11.6971 8.92936C11.5583 9.95682 10.5855 10.8133 9.527 10.8199C8.47888 10.8264 7.48611 9.99921 7.33184 8.95639C7.15322 7.74989 8.14303 6.4842 9.46943 6.45497C9.48862 6.45497 9.50781 6.45497 9.527 6.45497Z" fill="#BABABA"/>
</svg>
