<svg width="34" height="30" viewBox="0 0 34 30" fill="none" xmlns="http://www.w3.org/2000/svg">
<path fill-rule="evenodd" clip-rule="evenodd" d="M16.5002 8.09277C20.036 8.09277 22.9072 10.964 22.9072 14.4998C22.9072 18.0355 20.036 20.9067 16.5002 20.9067C12.9645 20.9067 10.0933 18.0355 10.0933 14.4998C10.0933 10.964 12.9645 8.09277 16.5002 8.09277ZM16.5002 9.41835C13.6953 9.41835 11.4188 11.6948 11.4188 14.4998C11.4188 17.3047 13.6953 19.5811 16.5002 19.5811C19.3052 19.5811 21.5816 17.3047 21.5816 14.4998C21.5816 11.6948 19.3052 9.41835 16.5002 9.41835Z" fill="#BABABA"/>
<path fill-rule="evenodd" clip-rule="evenodd" d="M26 8.31395V20.686C26 22.5162 24.5162 24 22.686 24H10.314C8.48377 24 7 22.5162 7 20.686V8.31395C7 6.48377 8.48377 5 10.314 5H22.686C24.5162 5 26 6.48377 26 8.31395ZM24.6744 8.31395C24.6744 7.21549 23.7845 6.32558 22.686 6.32558H10.314C9.21549 6.32558 8.32558 7.21549 8.32558 8.31395V20.686C8.32558 21.7845 9.21549 22.6744 10.314 22.6744H22.686C23.7845 22.6744 24.6744 21.7845 24.6744 20.686V8.31395Z" fill="#BABABA"/>
<path d="M18.7094 15.3837C19.1975 15.3837 19.5931 14.988 19.5931 14.4999C19.5931 14.0119 19.1975 13.6162 18.7094 13.6162C18.2213 13.6162 17.8257 14.0119 17.8257 14.4999C17.8257 14.988 18.2213 15.3837 18.7094 15.3837Z" fill="#BABABA"/>
<path d="M14.2905 15.3837C14.7785 15.3837 15.1742 14.988 15.1742 14.4999C15.1742 14.0119 14.7785 13.6162 14.2905 13.6162C13.8024 13.6162 13.4067 14.0119 13.4067 14.4999C13.4067 14.988 13.8024 15.3837 14.2905 15.3837Z" fill="#BABABA"/>
<path fill-rule="evenodd" clip-rule="evenodd" d="M15.8374 8.75556C15.8374 8.3897 16.1343 8.09277 16.5002 8.09277C16.8661 8.09277 17.163 8.3897 17.163 8.75556V10.523C17.163 10.8889 16.8661 11.1858 16.5002 11.1858C16.1343 11.1858 15.8374 10.8889 15.8374 10.523V8.75556ZM15.8374 18.4765C15.8374 18.1106 16.1343 17.8137 16.5002 17.8137C16.8661 17.8137 17.163 18.1106 17.163 18.4765V20.2439C17.163 20.6098 16.8661 20.9067 16.5002 20.9067C16.1343 20.9067 15.8374 20.6098 15.8374 20.2439V18.4765Z" fill="#BABABA"/>
</svg>
