<svg width="34" height="30" viewBox="0 0 34 30" fill="none" xmlns="http://www.w3.org/2000/svg">
<path fill-rule="evenodd" clip-rule="evenodd" d="M15.2529 5.63459C15.2529 5.28411 14.9688 5 14.6183 5C14.2679 5 13.9837 5.28411 13.9837 5.63459V6.94315C13.8911 6.95413 13.7985 6.96754 13.7061 6.98339C12.7397 7.14921 11.8425 7.57418 11.1064 8.20562L9.99037 7.08962C9.74255 6.8418 9.34075 6.8418 9.09293 7.08962C8.84511 7.33744 8.84511 7.73924 9.09293 7.98706L10.2463 9.14046C9.64611 9.97105 9.2945 10.9563 9.23381 11.9804H7.63789C7.28742 11.9804 7.00331 12.2646 7.00331 12.615C7.00331 12.9655 7.28742 13.2496 7.63789 13.2496H9.30803C9.31563 13.2921 9.32375 13.3344 9.33239 13.3767C9.40256 13.7201 9.7378 13.9415 10.0812 13.8714C10.4246 13.8012 10.646 13.466 10.5759 13.1226C10.5455 12.9741 10.5235 12.8241 10.5099 12.6733C10.5117 12.6541 10.5126 12.6347 10.5126 12.615C10.5126 12.5667 10.5072 12.5196 10.4969 12.4743C10.4945 12.416 10.4934 12.3576 10.4935 12.2992L10.4935 12.298C10.4939 11.3253 10.8381 10.384 11.4652 9.6404C11.4823 9.62015 11.4995 9.60009 11.517 9.58021C11.5287 9.57002 11.5403 9.55934 11.5515 9.54814C11.5772 9.52243 11.6002 9.49506 11.6206 9.46637C12.2323 8.81911 13.0389 8.38559 13.9208 8.23428C14.8795 8.06977 15.8655 8.24939 16.7046 8.74139C17.0437 8.94021 17.35 9.18489 17.6161 9.4664C17.6365 9.49508 17.6595 9.52244 17.6852 9.54814C17.6964 9.55933 17.7079 9.57001 17.7197 9.58019C18.0623 9.97088 18.3306 10.4258 18.5066 10.9231C18.6236 11.2535 18.9863 11.4265 19.3166 11.3095C19.647 11.1925 19.82 10.8299 19.7031 10.4995C19.5302 10.0112 19.2893 9.55416 18.9903 9.14046L20.1437 7.98706C20.3916 7.73924 20.3916 7.33744 20.1437 7.08962C19.8959 6.8418 19.4941 6.8418 19.2463 7.08962L18.1303 8.20562C17.8877 7.99748 17.6256 7.81014 17.3466 7.64653C16.6999 7.26735 15.9864 7.03006 15.2529 6.94315V5.63459ZM15.6759 11.2634C15.6645 11.2633 15.6531 11.2634 15.6417 11.2638C14.3928 11.3105 13.1915 11.7546 12.2125 12.5314C11.339 13.2244 10.6833 14.1501 10.3181 15.1978C9.41477 15.4135 8.60088 15.9156 8.00164 16.6347C7.31698 17.4563 6.96139 18.5024 7.00333 19.5708C7.00988 21.9678 8.77589 23.9995 11.0773 23.9995H21.1052C23.921 24.0412 26.0409 21.5347 26.0409 18.6119C26.0409 15.6851 23.9191 13.1798 21.1101 13.1798L21.1091 13.1798C20.7128 13.1805 20.3191 13.2332 19.9378 13.336C19.4742 12.7651 18.9017 12.2896 18.252 11.9382C17.4599 11.5098 16.5763 11.2783 15.6759 11.2634ZM13.0014 13.5256C13.7642 12.9203 14.6993 12.5728 15.672 12.5328C16.3628 12.5469 17.0403 12.7257 17.6482 13.0545C18.2611 13.386 18.7851 13.8602 19.1761 14.437C19.3423 14.6822 19.6562 14.7798 19.9322 14.672C20.3079 14.5253 20.7075 14.4497 21.1108 14.449C23.0863 14.4494 24.7717 16.2464 24.7717 18.6119C24.7717 20.9797 23.0867 22.7617 21.1202 22.7304L21.1101 22.7303H11.0773C9.58826 22.7303 8.27248 21.3809 8.27248 19.5574C8.27248 19.5484 8.27229 19.5395 8.27191 19.5305C8.23979 18.7726 8.49102 18.0299 8.97664 17.4472C9.46226 16.8645 10.1475 16.4834 10.8987 16.3783C11.15 16.3432 11.3561 16.1618 11.423 15.9171C11.6811 14.9722 12.2341 14.1344 13.0014 13.5256Z" fill="#BABABA"/>
</svg>
