<svg width="34" height="30" viewBox="0 0 34 30" fill="none" xmlns="http://www.w3.org/2000/svg">
<path d="M25.8 15.1138C26.1 15.4138 26.1 15.9138 25.8 16.2138C25.7 16.3138 25.5 16.4138 25.3 16.4138C25.1 16.4138 24.9 16.3138 24.8 16.2138L23.6 15.0138L22.4 16.2138C22.3 16.3138 22.1 16.4138 21.9 16.4138C21.7 16.4138 21.5 16.3138 21.4 16.2138C21.1 15.9138 21.1 15.4138 21.4 15.1138L22.6 13.9138L21.4 12.7138C21.1 12.4138 21.1 11.9138 21.4 11.6138C21.7 11.3138 22.2 11.3138 22.5 11.6138L23.7 12.8138L24.9 11.6138C25.2 11.3138 25.7 11.3138 26 11.6138C26.3 11.9138 26.3 12.4138 26 12.7138L24.6 13.9138L25.8 15.1138ZM18 10.8138V7.71384C18 7.11384 17.7 6.51384 17.1 6.21384C16.5 5.91384 15.8 5.91384 15.3 6.31384L10.3 9.51384C10.1 9.61384 9.9 9.61384 9.7 9.61384H8.7C7.2 9.61384 6 10.9138 6 12.4138V15.4138C6 16.9138 7.2 18.1138 8.7 18.1138H9.6C9.8 18.1138 10.1 18.2138 10.3 18.3138L15.3 21.5138C15.6 21.7138 15.9 21.8138 16.3 21.8138C16.6 21.8138 16.9 21.7138 17.1 21.6138C17.7 21.3138 18 20.7138 18 20.1138V17.0138C18.9 16.3138 19.5 15.1138 19.5 13.9138C19.5 12.7138 18.9 11.5138 18 10.8138ZM16.5 20.1138C16.5 20.2138 16.4 20.3138 16.4 20.3138C16.3 20.3138 16.2 20.4138 16.1 20.3138L11.1 17.0138C10.6 16.7138 10.1 16.5138 9.6 16.5138H8.7C8 16.5138 7.4 15.9138 7.4 15.2138V12.2138C7.4 11.5138 8 10.9138 8.7 10.9138H9.6C10.1 10.9138 10.7 10.7138 11.1 10.4138L16.1 7.21384C16.2 7.11384 16.3 7.21384 16.4 7.21384C16.5 7.21384 16.5 7.31384 16.5 7.41384V20.1138Z" fill="#BABABA"/>
</svg>
