<svg width="34" height="30" viewBox="0 0 34 30" fill="none" xmlns="http://www.w3.org/2000/svg">
<path d="M16.9027 16.6405C17.3042 16.6741 17.3817 16.8334 17.5921 17.0855C18.5369 18.2138 19.0801 19.6958 19.0166 21.1632C18.9672 22.3061 17.7294 23.0983 16.544 23.4775C14.1111 24.2558 11.2243 24.2573 9.10521 22.8447C8.44386 22.4048 7.96113 21.7215 8.00247 20.7978C8.06594 19.4057 8.58484 18.0348 9.51265 16.9781C9.87655 16.5645 10.7711 16.6076 10.8582 17.2952C10.8974 17.5978 10.7099 17.8024 10.4353 18.1605C9.81381 18.9716 9.48387 19.9918 9.46615 21.0046C9.46025 21.3817 9.84185 21.6134 10.1998 21.799C11.4967 22.4713 13.0623 22.5648 14.5636 22.404C15.5733 22.2959 16.6805 22.1256 17.3758 21.4044C17.5722 21.2005 17.5522 20.8913 17.5264 20.6188C17.4334 19.6183 17.0289 18.6457 16.3587 17.8952L16.2886 17.8155C16.1874 17.6789 16.1749 17.6299 16.152 17.5378C16.0583 17.152 16.3425 16.7157 16.7455 16.6492C16.8451 16.6331 16.8702 16.6397 16.9027 16.6405ZM23.8831 12.2756C24.1466 12.296 24.354 12.4619 24.5503 12.6936C25.5069 13.8233 26.0391 15.3375 25.9978 16.7742C25.9963 16.8217 25.9926 16.8692 25.9874 16.9167C25.8656 17.9705 24.7622 18.683 23.7022 19.0527C22.6984 19.4035 21.6237 19.5431 20.5534 19.5489C20.0559 19.5518 19.6285 19.0527 19.7939 18.5828C19.9076 18.2577 20.2604 18.0983 20.6309 18.0932C21.8318 18.075 23.0911 17.9252 24.0691 17.2733C24.3171 17.1081 24.5319 16.894 24.5282 16.6368C24.5045 15.5005 24.0956 14.3773 23.3391 13.531L23.2756 13.4594C23.0704 13.1934 23.1066 13.1021 23.1132 12.9669C23.1317 12.5891 23.4786 12.2675 23.8831 12.2756ZM13.531 9.3649C15.2168 9.38097 16.8082 10.673 17.1197 12.3369C17.5434 14.6031 15.3822 17.046 12.8349 16.5783C11.3447 16.305 10.0928 15.024 9.87212 13.5325C9.57466 11.5229 11.2303 9.41386 13.4365 9.36563C13.4675 9.3649 13.4992 9.3649 13.531 9.3649ZM13.4926 10.8199C12.2525 10.8316 11.1527 12.0402 11.3225 13.2943C11.4613 14.3217 12.4341 15.1782 13.4926 15.1848C14.7791 15.1928 15.9247 13.8942 15.6722 12.5883C15.4848 11.6208 14.5828 10.8425 13.5502 10.8199C13.531 10.8199 13.5118 10.8199 13.4926 10.8199ZM20.5113 5C22.2171 5.01608 23.8033 6.32781 24.1038 7.9947C24.5141 10.263 22.3345 12.6921 19.7931 12.2098C18.3058 11.927 17.0606 10.6386 16.8495 9.14493C16.5631 7.12143 18.2527 5.02119 20.4641 5C20.4796 5 20.4951 5 20.5113 5ZM20.473 6.45497C19.2337 6.46666 18.1331 7.67243 18.3029 8.92936C18.4417 9.95682 19.4145 10.8133 20.473 10.8199C21.5211 10.8264 22.5138 9.99921 22.6681 8.95639C22.8467 7.74989 21.8569 6.4842 20.5305 6.45497C20.5113 6.45497 20.4921 6.45497 20.473 6.45497Z" fill="#BABABA"/>
</svg>
