<svg width="34" height="30" viewBox="0 0 34 30" fill="none" xmlns="http://www.w3.org/2000/svg">
<path fill-rule="evenodd" clip-rule="evenodd" d="M11.1167 17.0333C9.54266 17.0333 8.26667 18.3093 8.26667 19.8833C8.26667 21.4573 9.54266 22.7333 11.1167 22.7333H21.8833C23.4573 22.7333 24.7333 21.4573 24.7333 19.8833C24.7333 18.3093 23.4573 17.0333 21.8833 17.0333H11.1167ZM7 19.8833C7 17.6097 8.84309 15.7666 11.1167 15.7666H21.8833C24.1569 15.7666 26 17.6097 26 19.8833C26 22.1568 24.1569 23.9999 21.8833 23.9999H11.1167C8.84309 23.9999 7 22.1568 7 19.8833Z" fill="#BABABA"/>
<path fill-rule="evenodd" clip-rule="evenodd" d="M11.309 5.1773C11.5609 5.42001 11.5683 5.82095 11.3256 6.07281C10.4862 6.94387 10.0172 8.10646 10.0172 9.31617C10.0172 10.5259 10.4862 11.6885 11.3256 12.5595C11.5683 12.8114 11.5609 13.2123 11.309 13.455C11.0572 13.6978 10.6562 13.6903 10.4135 13.4385C9.34661 12.3314 8.75049 10.8537 8.75049 9.31617C8.75049 7.77863 9.34661 6.30097 10.4135 5.19386C10.6562 4.94199 11.0572 4.93458 11.309 5.1773ZM21.4121 5.1773C21.664 4.93458 22.0649 4.94199 22.3076 5.19386C23.3745 6.30097 23.9706 7.77863 23.9706 9.31617C23.9706 10.8537 23.3745 12.3314 22.3076 13.4385C22.0649 13.6903 21.664 13.6978 21.4121 13.455C21.1602 13.2123 21.1528 12.8114 21.3955 12.5595C22.235 11.6885 22.704 10.5259 22.704 9.31617C22.704 8.10646 22.235 6.94387 21.3955 6.07281C21.1528 5.82095 21.1602 5.42001 21.4121 5.1773ZM13.2083 6.25326C13.4606 6.49558 13.4686 6.8965 13.2263 7.14875C12.6665 7.73147 12.3539 8.50815 12.3539 9.31617C12.3539 10.1242 12.6665 10.9009 13.2263 11.4836C13.4686 11.7358 13.4606 12.1368 13.2083 12.3791C12.9561 12.6214 12.5551 12.6133 12.3128 12.3611C11.5264 11.5424 11.0873 10.4513 11.0873 9.31617C11.0873 8.18102 11.5264 7.08989 12.3128 6.27125C12.5551 6.019 12.9561 6.01095 13.2083 6.25326ZM19.5113 6.25469C19.7628 6.01156 20.1637 6.01831 20.4069 6.26977C21.1971 7.08703 21.6388 8.17936 21.6388 9.31617C21.6388 10.453 21.1971 11.5453 20.4069 12.3626C20.1637 12.614 19.7628 12.6208 19.5113 12.3776C19.2599 12.1345 19.2531 11.7336 19.4963 11.4821C20.0581 10.901 20.3721 10.1244 20.3721 9.31617C20.3721 8.50792 20.0581 7.73129 19.4963 7.15023C19.2531 6.89877 19.2599 6.49782 19.5113 6.25469ZM16.4999 8.16667C16.8497 8.16667 17.1332 8.45022 17.1332 8.8V16.4C17.1332 16.7498 16.8497 17.0333 16.4999 17.0333C16.1501 17.0333 15.8666 16.7498 15.8666 16.4V8.8C15.8666 8.45022 16.1501 8.16667 16.4999 8.16667ZM19.6666 15.7667C20.0164 15.7667 20.2999 16.0502 20.2999 16.4V23.3667C20.2999 23.7164 20.0164 24 19.6666 24C19.3168 24 19.0332 23.7164 19.0332 23.3667V16.4C19.0332 16.0502 19.3168 15.7667 19.6666 15.7667Z" fill="#BABABA"/>
<path d="M11.7498 20.1997C11.9247 20.1997 12.0664 20.058 12.0664 19.8831C12.0664 19.7082 11.9247 19.5664 11.7498 19.5664C11.5749 19.5664 11.4331 19.7082 11.4331 19.8831C11.4331 20.058 11.5749 20.1997 11.7498 20.1997Z" fill="#BABABA"/>
<path fill-rule="evenodd" clip-rule="evenodd" d="M11.7498 20.2003C11.9247 20.2003 12.0665 20.0585 12.0665 19.8836C12.0665 19.7087 11.9247 19.5669 11.7498 19.5669C11.5749 19.5669 11.4331 19.7087 11.4331 19.8836C11.4331 20.0585 11.5749 20.2003 11.7498 20.2003ZM10.7998 19.8836C10.7998 19.3589 11.2251 18.9336 11.7498 18.9336C12.2745 18.9336 12.6998 19.3589 12.6998 19.8836C12.6998 20.4083 12.2745 20.8336 11.7498 20.8336C11.2251 20.8336 10.7998 20.4083 10.7998 19.8836Z" fill="#BABABA"/>
<path d="M14.9168 20.1997C15.0917 20.1997 15.2334 20.058 15.2334 19.8831C15.2334 19.7082 15.0917 19.5664 14.9168 19.5664C14.7419 19.5664 14.6001 19.7082 14.6001 19.8831C14.6001 20.058 14.7419 20.1997 14.9168 20.1997Z" fill="#BABABA"/>
<path fill-rule="evenodd" clip-rule="evenodd" d="M14.9168 20.2003C15.0917 20.2003 15.2335 20.0585 15.2335 19.8836C15.2335 19.7087 15.0917 19.5669 14.9168 19.5669C14.7419 19.5669 14.6001 19.7087 14.6001 19.8836C14.6001 20.0585 14.7419 20.2003 14.9168 20.2003ZM13.9668 19.8836C13.9668 19.3589 14.3921 18.9336 14.9168 18.9336C15.4415 18.9336 15.8668 19.3589 15.8668 19.8836C15.8668 20.4083 15.4415 20.8336 14.9168 20.8336C14.3921 20.8336 13.9668 20.4083 13.9668 19.8836Z" fill="#BABABA"/>
</svg>
