<svg width="20" height="20" viewBox="0 0 20 20" fill="none" xmlns="http://www.w3.org/2000/svg">
<path d="M11.519 3.09531C11.2444 2.92046 10.7868 3.00788 10.5122 3.18273L6.21034 6.50488H2.91529C2.36612 6.50488 2 6.85458 2 7.37913V12.6246C2 13.1492 2.36612 13.4989 2.91529 13.4989H6.21034L10.5122 16.821C10.8783 17.0833 11.519 17.0833 11.7936 16.6462C11.8851 16.4713 11.9767 16.2965 11.9767 16.1216V3.88213C12.0682 3.53243 11.8851 3.27016 11.519 3.09531Z" fill="#738801"/>
<path d="M17.2411 11.0763L16.6588 10.4939L17.2411 9.91161C17.3955 9.75717 17.4823 9.5477 17.4823 9.32929C17.4823 9.11088 17.3955 8.90141 17.2411 8.74697C17.0867 8.59253 16.8772 8.50576 16.6588 8.50576C16.4404 8.50576 16.2309 8.59253 16.0765 8.74697L15.4941 9.32929L14.9118 8.74697C14.7574 8.59253 14.5479 8.50576 14.3295 8.50576C14.1111 8.50576 13.9016 8.59253 13.7472 8.74697C13.5927 8.90141 13.506 9.11088 13.506 9.32929C13.506 9.5477 13.5927 9.75717 13.7472 9.91161L14.3295 10.4939L13.7472 11.0763C13.5927 11.2307 13.506 11.4402 13.506 11.6586C13.506 11.877 13.5927 12.0865 13.7472 12.2409C13.9016 12.3953 14.1111 12.4821 14.3295 12.4821C14.5479 12.4821 14.7574 12.3953 14.9118 12.2409L15.4941 11.6586L16.0765 12.2409C16.2309 12.3953 16.4404 12.4821 16.6588 12.4821C16.8772 12.4821 17.0867 12.3953 17.2411 12.2409C17.3955 12.0865 17.4823 11.877 17.4823 11.6586C17.4823 11.4402 17.3955 11.2307 17.2411 11.0763Z" fill="#738801"/>
</svg>
