<svg width="14" height="16" viewBox="0 0 14 16" fill="none" xmlns="http://www.w3.org/2000/svg">
<path fill-rule="evenodd" clip-rule="evenodd" d="M13.4454 2.5944C13.7488 2.5944 14 2.8528 14 3.1816V3.4856C14.0008 3.63871 13.9432 3.78604 13.8395 3.89587C13.7358 4.0057 13.5943 4.06924 13.4454 4.0728H0.555342C0.406385 4.06944 0.26468 4.006 0.160792 3.89615C0.0569031 3.7863 -0.000842836 3.63885 9.29862e-06 3.4856V3.1816C9.29862e-06 2.8528 0.252009 2.5944 0.555342 2.5944H2.82334C3.28378 2.5944 3.68434 2.2576 3.78778 1.7824L3.90678 1.2368C4.09189 0.4936 4.69856 0 5.39389 0H8.60611C9.29366 0 9.90811 0.4936 10.0854 1.1976L10.2122 1.7816C10.259 2.00992 10.3802 2.21496 10.5557 2.36277C10.7312 2.51059 10.9506 2.59231 11.1774 2.5944H13.4454ZM12.2935 13.7072C12.53 11.4376 12.9445 6.0456 12.9445 5.9912C12.9517 5.91092 12.943 5.82998 12.919 5.75326C12.8949 5.67654 12.856 5.60562 12.8045 5.5448C12.7525 5.48675 12.6896 5.44021 12.6195 5.40802C12.5494 5.37584 12.4737 5.35868 12.397 5.3576H1.61001C1.45445 5.3576 1.3059 5.4272 1.20245 5.5448C1.09904 5.66842 1.0461 5.82836 1.05467 5.9912L1.0959 6.5088C1.20634 7.9192 1.51356 11.848 1.71267 13.7072C1.85267 15.0768 2.72689 15.9376 3.99234 15.9688C4.96922 15.992 5.97567 16 7.00389 16C7.973 16 8.95611 15.992 9.96333 15.9688C11.2731 15.9456 12.145 15.1 12.2935 13.7072Z" fill="#738801"/>
</svg>
