<svg width="17" height="14" viewBox="0 0 17 14" fill="none" xmlns="http://www.w3.org/2000/svg">
<path d="M16.9998 2.0491C17.0049 2.46045 16.8881 2.86402 16.6642 3.20851C16.4404 3.553 16.1197 3.82285 15.7429 3.98378C15.3661 4.14471 14.9502 4.18944 14.548 4.11229C14.1458 4.03514 13.7755 3.8396 13.4842 3.55051C13.1929 3.26141 12.9937 2.89183 12.9119 2.48873C12.8302 2.08563 12.8696 1.66721 13.0251 1.28665C13.1806 0.906093 13.4452 0.580579 13.7853 0.35148C14.1254 0.12238 14.5256 4.10453e-05 14.935 1.0077e-05C15.4788 -0.00169418 16.0011 0.212837 16.388 0.596757C16.7749 0.980677 16.9948 1.5028 16.9998 2.0491ZM14.4663 5.36455C14.0172 5.30505 13.5855 5.15109 13.1996 4.91273C13.1714 4.9649 13.135 5.01217 13.0919 5.05273L9.25998 8.70546C8.90692 9.04206 8.43876 9.22971 7.95205 9.22971C7.46534 9.22971 6.99718 9.04206 6.64413 8.70546L2.79953 5.05273C2.67774 4.93628 2.60699 4.77599 2.60283 4.60712C2.59867 4.43825 2.66145 4.27464 2.77736 4.15228C2.89327 4.02992 3.05281 3.95883 3.22088 3.95465C3.38896 3.95048 3.5518 4.01355 3.67359 4.13001L7.50552 7.78273C7.62331 7.89555 7.77981 7.95849 7.94255 7.95849C8.10529 7.95849 8.26179 7.89555 8.37958 7.78273L12.1798 4.13001L12.2368 4.08546C12.0024 3.7757 11.8244 3.42667 11.7111 3.05455C11.6018 2.7309 11.5483 2.39086 11.5528 2.0491C11.5509 1.83496 11.5743 1.62135 11.6225 1.41274H2.53351C1.86158 1.41274 1.21717 1.68092 0.742048 2.15828C0.266923 2.63565 0 3.28309 0 3.95819V11.4545C0 12.1296 0.266923 12.7771 0.742048 13.2545C1.21717 13.7318 1.86158 14 2.53351 14H13.4023C14.0742 14 14.7186 13.7318 15.1937 13.2545C15.6688 12.7771 15.9358 12.1296 15.9358 11.4545V5.21819C15.612 5.3204 15.2744 5.37192 14.935 5.37092C14.7873 5.37827 14.6392 5.37615 14.4917 5.36455H14.4663Z" fill="#738801"/>
</svg>
