<svg width="12" height="7" viewBox="0 0 12 7" fill="none" xmlns="http://www.w3.org/2000/svg">
<path d="M6.66178 6.70706L11.7344 1.55674C11.8186 1.47214 11.8854 1.3715 11.931 1.26062C11.9765 1.14973 12 1.0308 12 0.910672C12 0.790547 11.9765 0.671612 11.931 0.560726C11.8854 0.44984 11.8186 0.349198 11.7344 0.264607C11.5662 0.0951276 11.3387 -2.89081e-08 11.1015 -3.9276e-08C10.8643 -4.96439e-08 10.6367 0.0951276 10.4685 0.264607L5.97944 4.76886L1.53526 0.264606C1.36704 0.0951271 1.13949 -4.74728e-07 0.902302 -4.85096e-07C0.665112 -4.95464e-07 0.43756 0.0951271 0.269343 0.264606C0.184511 0.348881 0.117022 0.449381 0.0707874 0.560281C0.024553 0.671182 0.00049309 0.790278 -3.98067e-08 0.910671C0.000493079 1.03106 0.024553 1.15016 0.0707874 1.26106C0.117022 1.37196 0.184511 1.47246 0.269343 1.55674L5.34199 6.70706C5.42606 6.79942 5.5281 6.87313 5.64168 6.92355C5.75525 6.97397 5.8779 7 6.00189 7C6.12588 7 6.24852 6.97397 6.36209 6.92355C6.47567 6.87313 6.57771 6.79942 6.66178 6.70706Z" fill="#BABABA"/>
</svg>
