<svg width="14" height="15" viewBox="0 0 14 15" fill="none" xmlns="http://www.w3.org/2000/svg">
<path d="M0.0209405 5.19058C0.339556 4.18282 0.864409 3.25776 1.55695 2.4738C1.67405 2.34123 1.85778 2.29398 2.02227 2.35414L3.67729 2.95934C4.12598 3.12333 4.61971 2.88426 4.78005 2.42537C4.79581 2.38025 4.80796 2.33389 4.81635 2.28683L5.13166 0.516822C5.163 0.340839 5.29516 0.20163 5.46624 0.16438C5.96681 0.0554185 6.48004 0 7 0C7.51964 0 8.03256 0.055356 8.53284 0.16418C8.70387 0.201392 8.83602 0.340514 8.86744 0.516435L9.18363 2.28675C9.26912 2.76615 9.71836 3.08391 10.1872 2.99649C10.2333 2.98789 10.2786 2.97547 10.3227 2.95936L11.9777 2.35414C12.1422 2.29398 12.3259 2.34123 12.443 2.4738C13.1356 3.25776 13.6604 4.18282 13.9791 5.19058C14.0328 5.36059 13.9809 5.54698 13.8477 5.66262L12.5063 6.82741C12.1432 7.14282 12.0987 7.69965 12.4071 8.07111C12.4374 8.10763 12.4706 8.14157 12.5063 8.17257L13.8477 9.33737C13.9809 9.45301 14.0328 9.6394 13.9791 9.80941C13.6604 10.8172 13.1356 11.7423 12.443 12.5262C12.3259 12.6587 12.1422 12.706 11.9777 12.6458L10.3227 12.0406C9.87406 11.8767 9.38029 12.1158 9.21995 12.5746C9.20418 12.6197 9.19203 12.6661 9.18361 12.7134L8.86744 14.4836C8.83602 14.6595 8.70387 14.7986 8.53284 14.8358C8.03256 14.9446 7.51964 15 7 15C6.48004 15 5.96681 14.9446 5.46624 14.8356C5.29516 14.7983 5.163 14.6591 5.13166 14.4832L4.81636 12.7132C4.73088 12.2338 4.28159 11.9161 3.81283 12.0035C3.76673 12.0121 3.72141 12.0245 3.67736 12.0406L2.02227 12.6458C1.85778 12.706 1.67405 12.6587 1.55695 12.5262C0.864409 11.7423 0.339556 10.8172 0.0209405 9.80941C-0.0328073 9.6394 0.0190167 9.45301 0.152211 9.33737L1.49365 8.17258C1.85686 7.85716 1.90129 7.30034 1.59288 6.92888C1.56256 6.89235 1.52937 6.85842 1.49367 6.82742L0.152211 5.66262C0.0190167 5.54698 -0.0328073 5.36059 0.0209405 5.19058ZM4.86942 7.49992C4.86942 8.70845 5.82324 9.68815 6.99985 9.68815C8.17646 9.68815 9.13029 8.70845 9.13029 7.49992C9.13029 6.29139 8.17646 5.31169 6.99985 5.31169C5.82324 5.31169 4.86942 6.29139 4.86942 7.49992Z" fill="#738801"/>
</svg>
