<svg width="14" height="14" viewBox="0 0 14 14" fill="none" xmlns="http://www.w3.org/2000/svg">
<path fill-rule="evenodd" clip-rule="evenodd" d="M11.9424 2.04408C11.7002 1.8036 11.4372 1.58975 11.1649 1.38168C10.609 0.958287 9.98759 0.640384 9.33192 0.400887C8.66485 0.158539 7.94931 0.0330887 7.2409 0.00457721C6.90879 -0.00825298 6.57526 0.00600281 6.246 0.0459189C5.85402 0.0943885 5.46775 0.157114 5.08717 0.265458C4.41868 0.455059 3.76586 0.748728 3.18573 1.13221C2.61131 1.51141 2.08107 1.96902 1.64348 2.50076C1.40687 2.78873 1.18452 3.0881 0.992091 3.40885C0.793965 3.73816 0.637175 4.08457 0.490362 4.43954C0.218116 5.10244 0.0741542 5.80952 0.0185649 6.52231C-0.0370245 7.24508 0.0342439 7.9878 0.205288 8.69204C0.280833 9.00138 0.380608 9.30503 0.50319 9.5987C0.650003 9.95224 0.809644 10.2972 1.0092 10.6251C1.36269 11.2068 1.80455 11.7485 2.31341 12.2004C2.83082 12.6594 3.40809 13.0571 4.03953 13.3423C4.39017 13.5005 4.74936 13.6431 5.12138 13.7457C5.50196 13.8512 5.88966 13.9139 6.28163 13.9595C7.00714 14.0436 7.74548 13.9923 8.45959 13.8455C9.13949 13.7072 9.80372 13.4492 10.4095 13.1127C11.0096 12.7792 11.5697 12.3458 12.043 11.8497C12.5176 11.3522 12.9324 10.7805 13.2389 10.1632C13.5539 9.53027 13.7876 8.85598 13.8945 8.15744C13.9478 7.80786 13.9869 7.45708 13.9933 7.10404C13.9977 7.06992 14 7.03518 14 6.99988C13.9986 6.28139 13.8902 5.55007 13.6679 4.86722C13.4527 4.20717 13.1462 3.56709 12.7414 3.00114C12.5219 2.69321 12.2839 2.39669 12.0216 2.12441C12.0131 2.11556 12.0045 2.10675 11.9959 2.09797C11.981 2.08101 11.9654 2.06501 11.9491 2.05016C11.9469 2.04813 11.9447 2.0461 11.9424 2.04408ZM12.2508 7.69569C12.2766 7.46431 12.2896 7.23209 12.2896 6.99988C12.2896 6.76832 12.2767 6.53676 12.251 6.30686C12.181 5.8436 12.0585 5.38955 11.8852 4.95407C11.7235 4.58791 11.526 4.23859 11.2971 3.91109L3.91189 11.2974C4.23811 11.5252 4.58473 11.7219 4.94869 11.8832C5.38573 12.0567 5.84152 12.1811 6.3066 12.2515C6.76781 12.3031 7.23398 12.3031 7.69519 12.2515C8.15808 12.1815 8.61178 12.059 9.04694 11.8858C9.47118 11.6984 9.87282 11.4629 10.2441 11.1862C10.5895 10.907 10.9044 10.5922 11.1838 10.2469C11.46 9.87555 11.6952 9.47595 11.8826 9.05293C12.056 8.6161 12.1803 8.16054 12.2508 7.69569ZM2.7032 10.0885L10.088 2.70265C9.76222 2.47534 9.41613 2.27902 9.05276 2.11797C8.61572 1.94443 8.15993 1.82008 7.69486 1.74966C7.23365 1.69809 6.76748 1.6981 6.30627 1.74969C5.84337 1.81969 5.38967 1.94221 4.95451 2.1154C4.53028 2.30282 4.12864 2.53826 3.75737 2.81494C3.41196 3.09416 3.09706 3.40894 2.81771 3.75425C2.54147 4.12562 2.30626 4.52523 2.11883 4.94825C1.94531 5.38535 1.82098 5.8412 1.75056 6.30635C1.699 6.76763 1.69902 7.23388 1.7506 7.69516C1.82058 8.15813 1.94309 8.61189 2.11625 9.04711C2.27771 9.41267 2.4748 9.76146 2.7032 10.0885Z" fill="#738801"/>
</svg>
