<svg width="16" height="14" viewBox="0 0 16 14" fill="none" xmlns="http://www.w3.org/2000/svg">
<path d="M14.3189 2.15385H1.67584C1.23089 2.15527 0.804647 2.33574 0.490518 2.65569C0.176389 2.97565 -2.2139e-06 3.409 0 3.86077V12.2931C-2.2139e-06 12.7449 0.176389 13.1782 0.490518 13.4982C0.804647 13.8181 1.23089 13.9986 1.67584 14H14.3189C14.7647 14 15.1923 13.8202 15.5076 13.5001C15.8229 13.1799 16 12.7458 16 12.2931V3.86077C16 3.40807 15.8229 2.9739 15.5076 2.65379C15.1923 2.33368 14.7647 2.15385 14.3189 2.15385ZM9.89592 8.19538C9.99357 8.20088 10.0878 8.23369 10.1683 8.29017C10.2487 8.34666 10.3122 8.42462 10.3517 8.51545C10.3912 8.60628 10.4052 8.70644 10.3922 8.80485C10.3791 8.90326 10.3395 8.99609 10.2778 9.07308L8.42161 11.1354C8.37222 11.1867 8.31324 11.2274 8.24812 11.2552C8.18301 11.2831 8.11307 11.2974 8.04243 11.2974C7.97178 11.2974 7.90185 11.2831 7.83673 11.2552C7.77162 11.2274 7.71263 11.1867 7.66324 11.1354L5.80179 9.06769C5.74003 8.9907 5.70044 8.89787 5.68739 8.79946C5.67435 8.70105 5.68835 8.6009 5.72787 8.51007C5.76739 8.41924 5.83087 8.34127 5.9113 8.28479C5.99173 8.2283 6.08598 8.1955 6.18363 8.19H6.7935V5.38462C6.7935 5.24181 6.84938 5.10485 6.94883 5.00387C7.04829 4.90288 7.18318 4.84615 7.32383 4.84615H8.79284C8.93349 4.84615 9.06838 4.90288 9.16784 5.00387C9.2673 5.10485 9.32317 5.24181 9.32317 5.38462V8.21154L9.89592 8.19538ZM3.18197 1.07692H12.7279C12.8685 1.07692 13.0034 1.02019 13.1029 0.919211C13.2023 0.81823 13.2582 0.68127 13.2582 0.538462C13.2582 0.395653 13.2023 0.258693 13.1029 0.157712C13.0034 0.0567307 12.8685 0 12.7279 0H3.18197C3.04132 0 2.90643 0.0567307 2.80697 0.157712C2.70751 0.258693 2.65164 0.395653 2.65164 0.538462C2.65164 0.68127 2.70751 0.81823 2.80697 0.919211C2.90643 1.02019 3.04132 1.07692 3.18197 1.07692Z" fill="#738801"/>
</svg>
