<svg width="20" height="20" viewBox="0 0 20 20" fill="none" xmlns="http://www.w3.org/2000/svg">
<path d="M17.6469 8.76424H16.8234V7.94072C16.8234 7.7223 16.7366 7.51284 16.5822 7.35839C16.4278 7.20395 16.2183 7.11719 15.9999 7.11719C15.7815 7.11719 15.572 7.20395 15.4176 7.35839C15.2631 7.51284 15.1764 7.7223 15.1764 7.94072V8.76424H14.3528C14.1344 8.76424 13.9249 8.85101 13.7705 9.00545C13.6161 9.15989 13.5293 9.36936 13.5293 9.58777C13.5293 9.80619 13.6161 10.0157 13.7705 10.1701C13.9249 10.3245 14.1344 10.4113 14.3528 10.4113H15.1764V11.2348C15.1764 11.4532 15.2631 11.6627 15.4176 11.8172C15.572 11.9716 15.7815 12.0584 15.9999 12.0584C16.2183 12.0584 16.4278 11.9716 16.5822 11.8172C16.7366 11.6627 16.8234 11.4532 16.8234 11.2348V10.4113H17.6469C17.8654 10.4113 18.0748 10.3245 18.2293 10.1701C18.3837 10.0157 18.4705 9.80619 18.4705 9.58777C18.4705 9.36936 18.3837 9.15989 18.2293 9.00545C18.0748 8.85101 17.8654 8.76424 17.6469 8.76424Z" fill="#738801"/>
<path d="M8.58834 11.2353C10.8625 11.2353 12.706 9.39175 12.706 7.11764C12.706 4.84353 10.8625 3 8.58834 3C6.31423 3 4.4707 4.84353 4.4707 7.11764C4.4707 9.39175 6.31423 11.2353 8.58834 11.2353Z" fill="#738801"/>
<path d="M11.3133 10.1836C10.5861 10.8301 9.63823 11.2352 8.58823 11.2352C7.53823 11.2352 6.59035 10.8301 5.86317 10.1836C4.7118 10.7061 3.73524 11.5491 3.05017 12.6118C2.36511 13.6745 2.00053 14.912 2 16.1764C2.00022 16.3947 2.08708 16.6048 2.2415 16.759C2.39591 16.9133 2.60526 16.9999 2.82353 16.9999H14.3537C14.572 16.9997 14.7813 16.9129 14.9355 16.7584C15.0898 16.604 15.1765 16.3947 15.1765 16.1764C15.1759 14.912 14.8113 13.6745 14.1263 12.6118C13.4412 11.5491 12.4646 10.7061 11.3133 10.1836Z" fill="#738801"/>
</svg>
