<svg width="31" height="31" viewBox="0 0 31 31" fill="none" xmlns="http://www.w3.org/2000/svg">
<g clip-path="url(#clip0_1_25774)">
<circle cx="15.1958" cy="15.1958" r="15.1958" fill="#F3F3F3"/>
<path d="M19.9986 19.9989H10.3938V10.3939H14.0764V8.15447L9.27399 8.1543C8.65191 8.1543 8.1543 8.65192 8.1543 9.27401V21.1185C8.1543 21.7406 8.65191 22.2382 9.27399 22.2382H21.1183C21.7404 22.2382 22.238 21.7406 22.238 21.1185L22.2382 16.316H19.9988L19.9986 19.9989Z" fill="#BABABA"/>
<path d="M13.4738 14.5909L12.6245 16.8669C12.5275 17.2585 12.7458 17.6745 13.1341 17.7724C13.2554 17.7968 13.401 17.7968 13.5223 17.7724L15.7786 16.9157C15.9 16.8913 16.0213 16.8179 16.0941 16.7199L21.917 10.8463C22.2081 10.5527 22.378 10.2589 22.0869 9.98963L20.5099 8.37452C20.2189 8.08089 19.7579 8.08089 19.4909 8.37452L13.668 14.2481C13.5709 14.3461 13.4981 14.4685 13.4738 14.5909Z" fill="#BABABA"/>
</g>
<defs>
<clipPath id="clip0_1_25774">
<rect width="31" height="31" fill="white"/>
</clipPath>
</defs>
</svg>
