<svg width="16" height="16" viewBox="0 0 16 16" fill="none" xmlns="http://www.w3.org/2000/svg">
<path d="M12.0918 12.092H3.90812V3.90821H7.04587V2.00015L2.95402 2C2.42399 2 2 2.42399 2 2.95403V13.046C2 13.576 2.42399 14 2.95402 14H13.0458C13.5759 14 13.9999 13.576 13.9999 13.046L14 8.95407H12.092L12.0918 12.092Z" fill="#BABABA"/>
<path d="M6.72408 7.34363L6.01904 9.23309C5.93853 9.5582 6.11977 9.90357 6.44209 9.9848C6.54283 10.0051 6.66366 10.0051 6.7644 9.9848L8.63755 9.27362C8.73829 9.25335 8.83903 9.19241 8.89944 9.11106L13.7336 4.23486C13.9752 3.99109 14.1163 3.7472 13.8746 3.52367L12.5655 2.18282C12.3238 1.93906 11.9411 1.93906 11.7195 2.18282L6.88536 7.05902C6.80472 7.14037 6.74432 7.24202 6.72408 7.34363Z" fill="#BABABA"/>
</svg>
