<svg width="32" height="32" viewBox="0 0 32 32" fill="none" xmlns="http://www.w3.org/2000/svg">
<rect width="32" height="32" fill="#3460FC"/>
<path d="M18.6922 10.3261H20.6153C20.8276 10.3261 20.9999 10.1605 20.9999 9.95652V7.46676C20.9999 7.27311 20.8449 7.11198 20.6441 7.0983C20.0322 7.05654 18.8368 7 17.9772 7C15.6153 7 14.0769 8.36 14.0769 10.8317V13.2826H11.3846C11.1723 13.2826 11 13.4482 11 13.6522V16.2391C11 16.4431 11.1723 16.6087 11.3846 16.6087H14.0769V23.6304C14.0769 23.8344 14.2492 24 14.4615 24H17.1538C17.3661 24 17.5384 23.8344 17.5384 23.6304V16.6087H20.3161C20.5122 16.6087 20.6768 16.4672 20.6984 16.2798L20.9976 13.6928C21.023 13.474 20.8445 13.2826 20.6153 13.2826H17.5384V11.4348C17.5384 10.8224 18.0549 10.3261 18.6922 10.3261Z" fill="white"/>
</svg>
