<svg width="20" height="20" viewBox="0 0 20 20" fill="none" xmlns="http://www.w3.org/2000/svg">
<g clip-path="url(#clip0_3_36419)">
<path d="M16.0308 7.52841C15.688 8.64241 14.6499 9.45306 13.4244 9.45306C12.1985 9.45306 11.1608 8.64201 10.818 7.52841L3.80154 7.52841C3.35875 7.52841 2.99965 7.16931 2.99965 6.72653C2.99965 6.28374 3.35875 5.92464 3.80154 5.92464L10.818 5.92464C11.1608 4.81065 12.199 4 13.4244 4C14.6503 4 15.688 4.81105 16.0308 5.92464L16.632 5.92464C17.0747 5.92464 17.4338 6.28374 17.4338 6.72653C17.4338 7.16931 17.0747 7.52841 16.632 7.52841L16.0308 7.52841ZM13.4244 5.60377C12.8057 5.60377 12.3016 6.10741 12.3016 6.72653C12.3016 7.34518 12.8053 7.84928 13.4244 7.84928C14.0431 7.84928 14.5472 7.34564 14.5472 6.72653C14.5472 6.10787 14.0435 5.60377 13.4244 5.60377Z" fill="#BABABA"/>
<path d="M11.2194 13.7831C10.8767 14.8973 9.83854 15.7077 8.61309 15.7077C7.38723 15.7077 6.34948 14.8969 6.00673 13.7831L3.80177 13.7831C3.35898 13.7831 2.99988 13.4242 2.99988 12.9812C2.99988 12.5384 3.35898 12.1793 3.80177 12.1793L6.00673 12.1793C6.3495 11.0653 7.38763 10.2549 8.61309 10.2549C9.83894 10.2549 10.8767 11.0657 11.2194 12.1793L16.632 12.1793C17.0747 12.1793 17.4338 12.5384 17.4338 12.9812C17.4338 13.4242 17.0747 13.7831 16.632 13.7831L11.2194 13.7831ZM8.61309 11.8587C7.99443 11.8587 7.49033 12.3621 7.49033 12.9812C7.49033 13.6001 7.99397 14.1039 8.61309 14.1039C9.23174 14.1039 9.73584 13.6003 9.73584 12.9812C9.73584 12.3625 9.2322 11.8587 8.61309 11.8587Z" fill="#BABABA"/>
</g>
<defs>
<clipPath id="clip0_3_36419">
<rect width="20" height="20" fill="white"/>
</clipPath>
</defs>
</svg>
