<svg width="20" height="20" viewBox="0 0 20 20" fill="none" xmlns="http://www.w3.org/2000/svg">
<path d="M16.0311 7.52841C15.6884 8.64241 14.6502 9.45306 13.4248 9.45306C12.1989 9.45306 11.1612 8.64201 10.8184 7.52841L3.8019 7.52841C3.35912 7.52841 3.00002 7.16931 3.00002 6.72653C3.00002 6.28374 3.35912 5.92464 3.8019 5.92464L10.8184 5.92464C11.1612 4.81065 12.1993 4 13.4248 4C14.6506 4 15.6884 4.81105 16.0311 5.92464L16.6323 5.92464C17.0751 5.92464 17.4342 6.28374 17.4342 6.72653C17.4342 7.16931 17.0751 7.52841 16.6323 7.52841L16.0311 7.52841ZM13.4248 5.60377C12.8061 5.60377 12.302 6.10741 12.302 6.72653C12.302 7.34518 12.8057 7.84928 13.4248 7.84928C14.0434 7.84928 14.5475 7.34564 14.5475 6.72653C14.5475 6.10787 14.0439 5.60377 13.4248 5.60377Z" fill="#BABABA"/>
<path d="M11.2198 13.7831C10.877 14.8973 9.83891 15.7077 8.61345 15.7077C7.3876 15.7077 6.34984 14.8969 6.00709 13.7831L3.80214 13.7831C3.35935 13.7831 3.00025 13.4242 3.00025 12.9812C3.00025 12.5384 3.35935 12.1793 3.80214 12.1793L6.00709 12.1793C6.34987 11.0653 7.388 10.2549 8.61345 10.2549C9.83931 10.2549 10.8771 11.0657 11.2198 12.1793L16.6323 12.1793C17.0751 12.1793 17.4342 12.5384 17.4342 12.9812C17.4342 13.4242 17.0751 13.7831 16.6323 13.7831L11.2198 13.7831ZM8.61345 11.8587C7.9948 11.8587 7.4907 12.3621 7.4907 12.9812C7.4907 13.6001 7.99434 14.1039 8.61345 14.1039C9.23211 14.1039 9.73621 13.6003 9.73621 12.9812C9.73621 12.3625 9.23257 11.8587 8.61345 11.8587Z" fill="#BABABA"/>
</svg>
