<svg xmlns="http://www.w3.org/2000/svg" fill="none" viewBox="0 0 21000 21000"><mask fill="#000" id="a" width="21000" height="21000" x="0" y="0" maskUnits="userSpaceOnUse"><path d="M0 0h21000v21000H0" fill="#fff"/><path d="M18151 18806H2860c-61 0-120-4-180-10l158 22a1405 1405 0 01-310-83l144 60a1492 1492 0 01-252-140c-77-50 100 84 47 38-27-25-60-51-87-80a1280 1280 0 01-70-76c-67-74 68 99 39 50a1358 1358 0 01-147-262l58 142a1370 1370 0 01-82-309l22 159c-22-177-10-361-10-540V2860c0-60 4-120 10-180l-22 160a1400 1400 0 01 83-310l-60 142a1480 1480 0 01 140-251c50-78-84 99-38 47 26-30 51-60 80-88a1290 1290 0 01 77-70c73-67-100 68-50 38l44-30a1360 1360 0 01 218-118l-143 60c90-40 200-67 300-83l-150 23c174-21 360-10 537-10h14908c62 0 121 5 180 10l-158-21a1400 1400 0 01 310 78l-143-60a970 970 0 01 209 109l44 30c77 50-100-88-48-40 27 24 59 50 86 80 24 22 48 50 70 75 66 74-70-100-40-50l30 42c46 70 86 143 118 218l-60-142c40 100 67 202 83 310l-22-160c22 177 10 360 10 540v14920c0 62-5 121-10 180l22-158a1398 1398 0 01-84 310l60-143a1477 1477 0 01-140 250c-51 80 84-97 39-45-26 27-52 60-80 87a1276 1276 0 01-77 70c-73 67 100-68 50-38l-44 30c-70 45-143 85-218 116l143-60a1490 1490 0 01-310 79l160-21c-57 6-110 10-166 10-310 3-608 270-595 594 14 320 262 600 595 595a1863 1863 0 00 1844-1900V2872c0-373-100-758-320-1063A1880 1880 0 00 18146 1000H2955c-55 0-110 0-165 4A1877 1877 0 00 1100 2253c-110 304-100 622-100 939v14940A1854 1854 0 00 2850 20000h15301c312 0 610-274 595-595-14-327-261-599-595-599Z"/></mask><path d="M18151 18806H2860c-61 0-120-4-180-10l158 22a1405 1405 0 01-310-83l144 60a1492 1492 0 01-252-140c-77-50 100 84 47 38-27-25-60-51-87-80a1280 1280 0 01-70-76c-67-74 68 99 39 50a1358 1358 0 01-147-262l58 142a1370 1370 0 01-82-309l22 159c-22-177-10-361-10-540V2860c0-60 4-120 10-180l-22 160a1400 1400 0 01 83-310l-60 142a1480 1480 0 01 140-251c50-78-84 99-38 47 26-30 51-60 80-88a1290 1290 0 01 77-70c73-67-100 68-50 38l44-30a1360 1360 0 01 218-118l-143 60c90-40 200-67 300-83l-150 23c174-21 360-10 537-10h14908c62 0 121 5 180 10l-158-21a1400 1400 0 01 310 78l-143-60a970 970 0 01 209 109l44 30c77 50-100-88-48-40 27 24 59 50 86 80 24 22 48 50 70 75 66 74-70-100-40-50l30 42c46 70 86 143 118 218l-60-142c40 100 67 202 83 310l-22-160c22 177 10 360 10 540v14920c0 62-5 121-10 180l22-158a1398 1398 0 01-84 310l60-143a1477 1477 0 01-140 250c-51 80 84-97 39-45-26 27-52 60-80 87a1276 1276 0 01-77 70c-73 67 100-68 50-38l-44 30c-70 45-143 85-218 116l143-60a1490 1490 0 01-310 79l160-21c-57 6-110 10-166 10-310 3-608 270-595 594 14 320 262 600 595 595a1863 1863 0 00 1844-1900V2872c0-373-100-758-320-1063A1880 1880 0 00 18146 1000H2955c-55 0-110 0-165 4A1877 1877 0 00 1100 2253c-110 304-100 622-100 939v14940A1854 1854 0 00 2850 20000h15301c312 0 610-274 595-595-14-327-261-599-595-599Z" fill="#BABABA"/><path d="m2680 18796 30-298-74 595 44-297Zm-151-60 100-280-225 556 116-277Zm140 58-120 277 232-552-120 270Zm-210-109-180 245 7 4 6 5 163-254Zm-49-30-167 250 8 5 160-254Zm47 38-204 220 7 5 198-225Zm-87-80-212 213 212-212Zm-70-76 230-194-8-10-220 204Zm40 50 256-155-6-10-7-10-243 174Zm-30-44 252-160-3-5-250 165Zm-119-218 276-117-554 232 277-116Zm60 142-278 116 557-227-279 110Zm-62-150-297 44 594-81-298 37Zm0-15637 298 30-595-74 296 44Zm61-150 280 110-556-226 278 116Zm-60 142-276-115 552 234-276-120Zm110-208-240-174-5 6-4 7 253 160Zm31-43-250-167-4 8 255 159Zm-37 47-220-204-5 5 225 200Zm157-156 194 229 10-10-203-220Zm-50 37 153 257 10-6 11-7-174-244Zm43-30 160 244 3-3-164-250Zm217-128 116 278-232-553 117 276Zm-143 60-116-276 226 555-110-278Zm150-61-40-294 80 594-30-295Zm15636 0-30 299 74-595-44 295Zm150 62-109 280 225-556-115 278Zm-142-60 115-275-233 552 120-276Zm208 110 175-244-6-4-7-5-160 254Zm45 30 166-250-7-4-160 254ZM18520 2300l204-220-5-5-199 225Zm87 79 213-212-213 212Zm70 77-230 194 8 10 220-203Zm-39-50-257 153 6 10 7 10 244-173Zm30 42-255 160 4 5 250-165Zm117 218-277 117 554-232-276 120Zm-60-142 276-116-555 227 278-111Zm61 150 297-44-596 80 298-36Zm0 15637-299-30 596 74-297-44Zm-62 150-280-110 557 226-272-116Zm60-142 277 115-554-235 276 120Zm-110 208 244 174 3-6 5-7-253-161Zm-30 43 250 168 4-8-255-160Zm38-46 220 204 5-6-224-198Zm-80 87-212-212 212 212Zm-77 70-194-230-9 9 203 220Zm50-38-155-258-10 7-10 7 176 244Zm-44 30-160-255-5 4 165 250Zm-218 116-117-276 232 553-115-277Zm143-60 115 272-222-556 112 279Zm-150 55 43 298-76-596 32 298Zm-760 606-300 13 300-14Zm594 595-3-300 3 300Zm1700-1142 276 117-276-117Zm-172-17040-244 174 244-174ZM18147 1000l-3 300h2V1000ZM2790 1004l13 300h8l-21-300ZM1100 2253l-280-105 281 103Zm290 17030-238 182 238-183ZM2850 20000l-3 300h2V20000Zm15895-595-300 13 300-13Zm-595-899h-406v600h405v-600Zm-412 0H16600v600h1149v-600Zm-1128 0h-1658v600h1658v-600Zm-1660 0h-2030v600h2042v-600Zm-2022 0h-2213v600h2213v-600Zm-2213 0h-2240v600h2242v-600Zm-2239 0H6384v600H8500v-600Zm-2072 0H4653v600H6410v-600Zm-1743 0H3423v600h1243v-600Zm-1239 0h-574v600h592v-600Zm-563 0c-48 0-98-3-150-8l-60 597c66 7 136 11 210 11v-600Zm-224 587 84 12 74 10 88-593-84-12a5410 5410 0 01-74-10l-88 593Zm246-572a1100 1100 0 01-244-65l-219 558c121 48 244 82 375 100l88-593Zm-468 490 70 30 72 30 231-554-70-30-73-29-230 554Zm377-492a1188 1188 0 01-166-87l-323 507c81 51 165 94 250 130l240-550Zm-153-78a765 765 0 00-60-40l-317 510c8 3 15 8 30 18l348-490Zm-52-35a843 843 0 00-19-12l-30-18a343 343 0 00-69-24 303 303 0 00-266 67 300 300 0 00 10 460 446 446 0 00 40 30 1354 1354 0 00 52 29l10 7a310 310 0 00 238 38 300 300 0 00 133-507l-19-16-397 450-5-4a887 887 0 01-20-23 340 340 0 01-39-60 306 306 0 01-26-164 300 300 0 01 384-249l15 5a278 278 0 01 20 8l20 10 10 5 4 3 5 3c1 0 1 0 0 0l-5-4a933 933 0 01-30-22l7 6a178 178 0 01 18 20 330 330 0 01 56 97 301 301 0 01-175 376 298 298 0 01-223-2l-20-8a330 330 0 01-14-10l-4-3 4 3 333-499Zm86 68c-53-50-52-45-80-72l-414 424c27 28 91 84 94 87l410-440Zm-80-72a1024 1024 0 01-42-60l-459 390c21 25 52 61 86 95l424-424Zm-50-68a770 770 0 00-43-43l-40-30a303 303 0 00-298-7 300 300 0 00-93 455 1052 1052 0 00 91 107 308 308 0 00 158 76 301 301 0 00 320-422 355 355 0 00-20-38l-515 309-2-6-4-7a246 246 0 01-20-53 299 299 0 01 488-304l10 10 6 5-2-4a542 542 0 01-20-24c0-2 0-1 1 0l5 6 3 6a273 273 0 01 36 100 300 300 0 01-488 278c-5-4-10-8-10-10a87 87 0 01-4-2l4 4 442-406Zm60 78a512 512 0 01-18-28l-509 318 40 59 490-350Zm-20-34a1062 1062 0 01-93-170l-553 233c40 93 87 183 142 266l503-330Zm-646 62 30 71 30 72 552-230-30-73-30-70-553 230Zm614-84a1071 1071 0 01-65-242l-594 88c20 130 52 256 101 377l558-223Zm-659-154 10 75 12 84 594-88-10-75-13-84-594 88Zm617 78c-20-152-8-297-8-503h-600c0 152-13 375 12 576l596-73Zm-8-503v-1116h-600v1125h600Zm0-1104v-1646h-600v1641h600Zm0-1648v-2040h-600v2052h600Zm0-2030v-2220h-600v2218h600Zm0-2219V8538h-600v2242h600Zm0-2240V6422h-600v2133h600Zm0-2096V4680h-600v1767h600Zm0-1757V3427h-600v1258h600Zm0-1255V2850h-600v590h600Zm0-567c0-38 3-87 8-140l-597-60a2098 2098 0 00-10 210h600Zm-587-214L1900 2730l-10 75 594 87 11-85 10-74-594-88Zm572 246c12-83 34-162 66-244l-560-220a1800 1800 0 00-99 375l594 88Zm-490-469-29 72-30 70 554 232 30-72 31-70-555-230Zm493 377a1180 1180 0 01 87-167l-507-322a1780 1780 0 00-132 250l551 238Zm78-153 40-60-509-317a564 564 0 01-20 28l490 350Zm35-52a788 788 0 00 13-19 151 151 0 00 18-29 310 310 0 00 32-125 300 300 0 00-546-186 1356 1356 0 00-75 108 310 310 0 00-37 150 300 300 0 00 535 183l-450-398a156 156 0 01 20-18 283 283 0 01 100-59 299 299 0 01 378 388 300 300 0 01-27 55l-2 5s0 1 0 0a390 390 0 01 26-35h3l-2 1-6 8a271 271 0 01-87 60 300 300 0 01-389-417V2260l-2 4 500 333Zm-67 86c51-52 45-52 72-79l-428-430-87 96 440 408Zm70-80a834 834 0 01 60-53l-390-458a1571 1571 0 00-96 87L2600 2600Zm70-60a792 792 0 00 41-45 313 313 0 00 60-108 300 300 0 00-478-323 1013 1013 0 00-107 92 312 312 0 00-76 157 300 300 0 00 422 320l37-20-309-514 5-4a238 238 0 01 60-23 297 297 0 01 288 72 300 300 0 01 5 430s-2 0 0 0a272 272 0 01 30-23H2640a206 206 0 01-38 23 300 300 0 01-386-133 300 300 0 01 48-347L2260 2100l406 440Zm-80 60a555 555 0 01 30-20l-320-510-60 41 350 491Zm34-24a1060 1060 0 01 170-90l-233-553a1660 1660 0 00-266 142l330 501ZM2560 1930l-70 30-73 30 230 553 72-30 71-30-230-554Zm84 614a1070 1070 0 01 241-65l-88-593c-130 20-255 53-376 101l222 557Zm153-658a4839 4839 0 01-74 10l-85 12 88 593 74-10 84-12-88-593Zm-78 616c150-19 292-7 500-7v-600c-156 0-379-13-580 12l73 595Zm500-7h1114v-600H3210v600Zm1100 0h1650v-600H4320v600Zm1648 0h2060v-600H5944v600Zm2030 0h2220v-600H8001v600Zm2220 0h2233v-600h-2240v600Zm2240 0h2104v-600H12450v600Zm2094 0h1758v-600h-1750v600Zm1756 0h1264v-600h-1270v600Zm1255 0h567v-600h-558v600Zm567 0c50 0 98 3 150 8l60-597a2098 2098 0 00-210-10v600Zm225-587-84-12-75-10-88 593a5160 5160 0 00 160 22l87-593Zm-247 571a1100 1100 0 01 244 66l220-558a1700 1700 0 00-376-100l-88 592Zm470-490-72-30-72-30-230 554 70 30 72 30 231-554Zm-378 493c61 26 116 55 166 87l322-510a1777 1777 0 00-250-130l-238 550Zm153 78 60 40 317-510a562 562 0 01-30-20l-347 490Zm50 35a648 648 0 00 20 12c3 3 16 10 30 18a330 330 0 00 125 32 300 300 0 00 186-546 1634 1634 0 00-90-60 337 337 0 00-95-40 300 300 0 00-275 510l18 18 398-450 4 5a360 360 0 01 30 39 293 293 0 01 52 210 300 300 0 01-453 220l-5-3c-2 0-2 0 0 0l5 3a1170 1170 0 01 30 23v2l-2-2-6-6-7-7a266 266 0 01-12-13l-10-10a288 288 0 01-57-136 299 299 0 01 442-310l4 2-4-2-332 500Zm-85-68c54 50 53 45 80 72l425-424a2094 2094 0 00-96-87l-408 440Zm80 72a990 990 0 01 53 60l458-390a1582 1582 0 00-85-100l-424 423Zm60 68a557 557 0 00 44 43 316 316 0 00 109 60 301 301 0 00 352-430l-20-32a606 606 0 00-31-44 1018 1018 0 00-46-55l-24-24a310 310 0 00-158-76 300 300 0 00-320 422l20 38 515-309 4 6 2 7a236 236 0 01 20 53 317 317 0 01 10 113 308 308 0 01-82 174 301 301 0 01-403 27l-12-10a326 326 0 01-10-10l-4-6c-3-2-4-2-3 0l4 3a539 539 0 01 18 24l-3-7a273 273 0 01-4-5c0-3-3-6-5-10l-6-20a318 318 0 01-25-100 285 285 0 01 7-88 302 302 0 01 148-197 300 300 0 01 343 44l3 3-3-4-442 406Zm-60-78 19 28 510-318-42-59-490 350Zm23 34a959 959 0 01 90 170l554-233a1655 1655 0 00-142-266l-500 330Zm645-62-30-70-30-73-552 230 30 72 30 72 554-230Zm-613 84c30 77 52 158 65 242l593-88a1677 1677 0 00-101-377l-557 223Zm658 154a4210 4210 0 01-21-159l-594 87a4185 4185 0 01 22 160l596-89Zm-616-78c19 152 8 297 8 503h600c0-152 12-376-13-576l-595 73Zm8 503V4340h600V3210h-600Zm0 1104v1646h600v-1650h-600Zm0 1648V8030h600V5950h-600Zm0 2030v2218h600v-2220h-600Zm0 2220v2231h600V10220h-600Zm0 2240v2100h600v-2110h-600Zm0 2095v1755h600V14560h-600Zm0 1757v1262h600v-1270h-600Zm0 1255v560h600v-559h-600Zm0 567a1100 1100 0 01-10 150l598 60a2100 2100 0 00 13-210h-600Zm587 225a5934 5934 0 00 20-159l-592-88a5934 5934 0 00-22 160l590 87Zm-572-247a1096 1096 0 01-66 244l559 220c47-120 80-245 100-376l-593-88Zm490 470 30-73 30-70-554-230-30 70-30 71 554 230Zm-492-378a1191 1191 0 01-87 166l506 322a1800 1800 0 00 130-250l-550-238Zm-78 152c-10 14-25 34-40 60l508 317a510 510 0 01 20-28l-488-349Zm-36 52a894 894 0 00-30 50 326 326 0 00-32 124 300 300 0 00 536 200l10-14a1305 1305 0 00 74-107 352 352 0 00 29-76 300 300 0 00-510-276 424 424 0 00-15 20l450 397a106 106 0 01-10 11 174 174 0 01-20 16 319 319 0 01-91 50 300 300 0 01-347-446l-3 6a1140 1140 0 01-17 23l5-6a316 316 0 01 110-68 304 304 0 01 226 12l52 32a300 300 0 01 90 372l-6 10a1126 1126 0 00-2 5l-500-333Zm68-85c-50 52-44 52-72 80l425 423c28-28 84-92 87-95l-440-408Zm-72 80a779 779 0 01-60 51l389 458a954 954 0 00 98-86l-425-424Zm-68 60a723 723 0 00-42 43l-30 40a303 303 0 00-5 298 300 300 0 00 439 104l16-12a1046 1046 0 00 108-90l29-38a294 294 0 00 46-120 302 302 0 00-300-347 303 303 0 00-157 47l309 515-6 3-7 4-10 6a304 304 0 01-153 24 298 298 0 01-258-228 304 304 0 01 40-235 291 291 0 01 28-34l10-11 4-4-4 4-14 10-11 10v-2a120 120 0 01 7-3l6-4 10-5a288 288 0 01 205-27 296 296 0 01 197 150 300 300 0 01-17 310l-11 10-10 14a201 201 0 01-10 10l-403-440Zm78-60a519 519 0 01-25 14l318 506 60-40-350-488Zm-31 15a1067 1067 0 01-170 90l233 553c94-40 183-88 267-143l-330-500Zm62 644 72-27 70-30-230-554-71 28-72 30 230 552Zm-84-613a1070 1070 0 01-242 66l88 593c130-20 256-53 377-101l-223-560Zm-154 660 75-10 84-12-88-593a5577 5577 0 01-75 10l-84 10 88 595Zm83-618a1310 1310 0 01-133 6v600c70 0 135-5 197-11l-64-597Zm-136 6c-455 6-913 390-891 908l600-26c-6-130 130-280 298-282l-7-600Zm-891 908c20 455 378 888 898 882l-7-600c-146 2-284-124-292-308l-600 25Zm898 882a2163 2163 0 00 1972-1326l-553-234c-243 577-800 952-1426 960l7 600Zm1972-1327a2250 2250 0 00 168-872h-600c0 226-38 440-121 640l553 233Zm168-872v-757h-600v750h600Zm0-760v-1482h-600v1483h600Zm0-1480v-1993h-600v2003h600Zm0-1984v-2290h-600v2287h600Zm0-2295v-2380h-600v2364h600Zm0-2390V6910h-600v2280h600Zm0-2263V4938h-600v2010h600Zm0-1954V3555h-600v1404h600Zm0-1417V2860h-600v712h600Zm0-677c0-424-114-873-378-1240l-486 352c176 245 264 565 264 888h600Zm-380-1238a2180 2180 0 00-1767-940l-4 600a1580 1580 0 01 1285 684l488-350ZM18150 699c-186-3-376-1-558-1v600c192 0 370-2 553 0l7-600Zm-558-1h-1330v600h1342V700Zm-1320 0h-1887v600h1893V700Zm-1887 0H12140v600h2244V700ZM12140 700H9776v600h2355V700ZM9765 700H7442v600h2320V700ZM7442 700H5394v600h2048V700ZM5394 700H3833v600h1553V700ZM3828 700h-893v600h915V700Zm-873 0c-40 0-118-2-188 3l43 598c41-3 75-1 145-1V700Zm-180 2A2176 2176 0 00 820 2150l563 206a1577 1577 0 01 1419-1052l-26-600ZM820 2150C686 2514 700 2893 700 3192h600c0-336-6-593 83-837L820 2150ZM700 3192V4360h600V3180H700Zm0 1158v1780h600V4342H700Zm0 1772v2190h600V6100H700Zm0 2168v2356h600V8297H700Zm0 2371v2349h600v-2343H700Zm0 2358v2135h600v-2141H700Zm0 2133v1698h600v-1694H700Zm0 1701v1065h600V16840H700Zm0 1055v220h600v-212H700Zm0 224c0 489 157 948 453 1333l476-366a1566 1566 0 01-329-967H700Zm453 1333c407 527 1032 830 1695 835l4-600a1554 1554 0 01-1224-601l-475 366Zm1697 835h178v-600h-187v600Zm175 0h995v-600H3002v600Zm973 0H5640v-600H4000v600Zm1642 0h2122v-600H5616v600Zm2098 0h2340v-600H7746v600Zm2343 0h2372v-600h-2357v600Zm2380 0h2210v-600h-2210v600Zm2200 0h1830v-600h-1827v600Zm1830 0h1243v-600h-1250v600Zm1236 0h428v-600h-423v600Zm434 0c461 0 916-396 894-908l-600 26c7 130-132 282-294 282v600Zm894-908c-20-466-380-886-895-886v600c152 0 288 124 296 312l600-26Z" fill="#BABABA" mask="url(#a)"/><mask fill="#000" id="b" width="10000" height="10000" x="5188" y="3100" maskUnits="userSpaceOnUse"><path d="M5188 3100h10000v10000h-10000" fill="#fff"/><path d="M13613 8242c0 162-12 323-34 484l22-160a3650 3650 0 01-240 880l60-143a3603 3603 0 01-419 735c-67 93 32-24 28-36 2 6-54 66-58 72a3393 3393 0 01-500 496l-150 107a3600 3600 0 01-597 320l143-59a3640 3640 0 01-877 242l160-21c-245 33-489 33-735 33H6790l595 595V5570c0-288 8-577 0-865v-11l-595 594h3563c262 0 521-3 783 31l-158-22c310 44 612 125 902 246l-143-60a3565 3565 0 01 700 395l70 58a3836 3836 0 01 460 460l50 61c66 82-94-129-21-27a3642 3642 0 01 424 738l-60-144c122 290 205 590 247 903l-22-160c18 162 28 316 28 473 2 311 273 609 595 595 320-14 596-262 594-595a4197 4197 0 00-1080-2782 4055 4055 0 00-1103-863 4248 4248 0 00-1514-466c-393-47-800-27-1194-27H6785a603 603 0 00-594 595v6218c0 287-6 577 0 864v12c0 321 272 595 595 595h3853c399 0 807-54 1192-169a4318 4318 0 00 1460-783c955-765 1506-1975 1510-3190 2-312-275-609-594-595-324 14-593 260-595 593Z"/></mask><path d="M13613 8242c0 162-12 323-34 484l22-160a3650 3650 0 01-240 880l60-143a3603 3603 0 01-419 735c-67 93 32-24 28-36 2 6-54 66-58 72a3393 3393 0 01-500 496l-150 107a3600 3600 0 01-597 320l143-59a3640 3640 0 01-877 242l160-21c-245 33-489 33-735 33H6790l595 595V5570c0-288 8-577 0-865v-11l-595 594h3563c262 0 521-3 783 31l-158-22c310 44 612 125 902 246l-143-60a3565 3565 0 01 700 395l70 58a3836 3836 0 01 460 460l50 61c66 82-94-129-21-27a3642 3642 0 01 424 738l-60-144c122 290 205 590 247 903l-22-160c18 162 28 316 28 473 2 311 273 609 595 595 320-14 596-262 594-595a4197 4197 0 00-1080-2782 4055 4055 0 00-1103-863 4248 4248 0 00-1514-466c-393-47-800-27-1194-27H6785a603 603 0 00-594 595v6218c0 287-6 577 0 864v12c0 321 272 595 595 595h3853c399 0 807-54 1192-169a4318 4318 0 00 1460-783c955-765 1506-1975 1510-3190 2-312-275-609-594-595-324 14-593 260-595 593Z" fill="#BABABA"/><path d="m13579 8726-297-40 594 84-297-44Zm22-160 297 44-594-87 297 44Zm-240 880-277-116 554 230-277-115Zm60-143 276 115-552-234 275 120Zm-320 597-242-169v1l250 166Zm-89 137-240-178-3 2 243 176Zm-30 36 231 190 10-11 8-13-250-166Zm-477 476 188 234 2-2-190-230Zm-60 47-186-234-3 3 190 231Zm38-27 175 243-176-243Zm-150 107 167 248 3-2-170-246Zm-598 320-118-275 235 553-115-277Zm143-59 114 277-230-554 115 277Zm-878 242-43-296 84 593-43-297Zm160-20 43 295-84-594 40 297Zm-4360 32v-300h-730l512 512 213-212Zm595 595-212 212 512 512v-724h-300Zm0-7080h-300v8l300-9Zm0-12h300V3970l-512 512 213 213Zm-595 594-212-213-512 512h723v-300Zm4346 31-38 298 83-595-44 297Zm-158-22L11020 5000l-85 594 44-297Zm902 246-116 277 230-554-114 277Zm-143-60 115-276-232 552 116-276Zm600 326 168-248h-2l-167 248Zm128 91 178-240-2-3-176 243Zm-28-22-191 230 192-230Zm70 58 194-230-193 230Zm460 460 235-188-4-4-230 192Zm50 61-243 177 6 6 4 5 234-188ZM13000 6430l-243 176 2 2 240-179Zm100 138-250 167 250-167Zm324 600-275 117 552-233-273 115Zm-60-144 280-115-554 230 277-115Zm250 903-298 43 594-83-297 40Zm-23-160 297-43-595 77 300-33Zm1217 473h-300v2l300-2Zm-1080-2782 223-200-224 200Zm-1103-863 140-265-140 265ZM11110 4130l-37 298 36-298Zm-4920 7650h300v-6l-300 6Zm5640 438 87 288-86-288Zm1460-783-187-234 188 234Zm1511-3190-300-2 300 2Zm-591-595 10 300-20-300Zm-896 593c0 148-10 295-30 443l593 80c24-172 37-346 37-523h-600Zm563 528a5855 5855 0 00 22-160l-595-87a4767 4767 0 00-22 160l594 87Zm-572-246a3330 3330 0 01-220 806l554 230a3950 3950 0 00 259-950l-595-86Zm334 1037 30-72 30-70-555-230-30 70-30 71 555 230Zm-493-377c-83 194-180 378-295 548l498 335a3810 3810 0 00 348-646l-550-237Zm-295 550-90 126 483 367c37-50 72-100 106-152l-500-333Zm-90 128a1020 1020 0 00-40 60 321 321 0 00-20 26 300 300 0 00 490 332 485 485 0 00 70-84 450 450 0 00 50-96 310 310 0 00 0-182l-570 190a296 296 0 01 0-186 214 214 0 01 15-40l8-17a222 222 0 01-9 12l6-6a278 278 0 01 10-10l32-23a291 291 0 01 167-55 300 300 0 01 303 337 290 290 0 01-24 87 245 245 0 01-15 28l8-10-486-353Zm-15 235a298 298 0 01 26-245c7-7 10-12 10-14l5-5-8 10-19 20-10 11a246 246 0 00-25 33l500 333a253 253 0 01-13 16l-4 6-2 3 4-6 22-25a838 838 0 00 30-36l25-36a316 316 0 00 40-110 301 301 0 00-10-144l-570 190Zm-5-213a3080 3080 0 01-206 228l424 424a3160 3160 0 00 246-272l-464-380Zm-206 228c-72 72-148 140-228 206l380 464c95-78 186-160 272-246l-424-424Zm-225 204-31 23-30 24 374 469 30-24 30-30-375-470Zm-65 50-12 10a616 616 0 00-10 8l-6 7-16 16c-3 4-10 10-16 20a306 306 0 00-60 164 530 530 0 00 10 98 530 530 0 00 64 116 300 300 0 00 405 43l20-15 22-16 20-16 10-8a426 426 0 00 13-11l7-6 12-12a290 290 0 00 74-128 526 526 0 00 10-64 533 533 0 00-10-100 523 523 0 00-65-117 300 300 0 00-352-72l-24 13-16 10-15 10-14 10 352 486 8-6-4 3-10 5a230 230 0 01-36 18 355 355 0 01-62 18 513 513 0 01-90 2 520 520 0 01-85-24 531 531 0 01-100-74 529 529 0 01-64-117 533 533 0 01-11-100 546 546 0 01 10-64 553 553 0 01 27-63 536 536 0 01 34-50 280 280 0 01 12-4c6-5 10-9 12-9l5-7 4-3-3 3a834 834 0 01-32 24l-6 5a16 16 0 01-2 2l2-2h4l6-5 7-3 10-6a369 369 0 01 63-23 576 576 0 01 60-10l57 1c20 3 62 15 85 24a528 528 0 01 98 75 525 525 0 01 63 116 528 528 0 01 10 98 515 515 0 01-10 63 537 537 0 01-24 63 398 398 0 01-40 58 276 276 0 01-20 20l-7 5 3-3-380-463Zm51-40-146 104 342 493c54-37 106-75 155-110l-350-487Zm-143 102c-170 115-353 210-547 294l236 552c223-96 440-210 646-348l-335-498Zm-313 847 70-30 72-30-230-553-72 30-70 30 230 553Zm-88-614a3340 3340 0 01-805 222l86 594c327-47 645-135 950-262l-230-554Zm-718 816a4170 4170 0 01 160-22l-90-593a4155 4155 0 01-158 21l88 594Zm74-616c-220 30-443 31-693 31v600c243 0 508 0 775-36l-82-595Zm-693 31h-880v600h880v-600Zm-890 0H7308v600h2224v-600Zm-2210 0h-520v600h520v-600Zm-738 512 297 298 298 297 424-424-298-297L7000 10981l-424 424Zm1107 383v-6c0 1 0 0 0 0v-430c0 1 0 0 0 0v-272h-600v704h600Zm0-708V9388h-600v1694h600Zm0-1690V7323h-600v2080h600Zm0-2052V5563h-600v1781h600Zm0-1767c0-276 8-580 0-873l-600 17c8 282 0 557 0 856h600Zm0-865v-12h-600v12h600Zm-512-224-67 75-20 18-18 20-10 10-8 8-20 18-21 20-17 17v1h-10l-9 10h-2v1l-2 2h-10a127 127 0 01-3 3v1l-2 1v2h-3v10H6950v1l-2 1v2h-3v2h-2v2l-2 1a63 63 0 01-4 3l-2 2v1l-2 1-2 2-2 2v1l-2 1v1l-3 2-2 2v1l-2 1v1l-2 2-9 2v1a127 127 0 01-3 2v4l-3 1v1l-2 1v4l-3 2v2l-2 1v1l-3 2a63 63 0 01-3 3v1l-2 1-2 2a63 63 0 01-3 3v1l-2 1v2H6880v2l-2 1-2 1v1l-2 2a63 63 0 01-3 2v11a63 63 0 01-4 0H6860l-2 2-2 2v1a63 63 0 01-3 2L6850 4800l-2 2v1a63 63 0 01-3 2v4a127 127 0 01-4 2H6840l-1 3h-2v2a63 63 0 01-3 2h-1v3H6830v2h-2l-1 2-1 2-1 2-2 3a63 63 0 01-2 2H6820l-1 2h-1l-2 3-2 2h-1l-1 2H6810l-2 3-2 2-2 2-1 1-1 2H6800v2h-2l-1 2-1 1-1 2H6790v2l-2 1-1 1-1 1h-1l-2 2-2 2-1 3-1 1-1 1-2 2-2 2a63 63 0 01-2 3l-1 1-2 2-3 3-1 1-1 1-20 20-18 18L6652 5000l-74 76 424 425 74-70 10-10 9-10 20-20 8-9 10-9h4V5370l2-2 2-2 10-10 18-18c9-8-3 4 5-4h2a127 127 0 01 3-3l2-2v-2h2l5-5v-2h2l3-3V5310l2-1v-1a63 63 0 01 3-3H7200v-2l2-1 1-1h12l2-1v-10l2-1v-1l2-2 2-2 2-1a127 127 0 01 2-2v-2h2v-2h3a63 63 0 01 2-3v-1l2-2 3-2v-1l2-1v-3h2a63 63 0 01 3-3v-4h3a63 63 0 01 2-3v-1l2-1 2-2 3-2v-1l2-1v-2a63 63 0 01 3-2l2-1 2-2v-2h2v-2h3V5230l2-1a63 63 0 01 2-3l3-2v-1l2-1V5220l2-2 3-2v-1a63 63 0 01 3-2v-2h2l2-2 2-7 2-3H7300a127 127 0 01 3-2l2-3 2-2a63 63 0 01 3-2l2-2h2l2-2 2-2 2-3a63 63 0 01 3-2h2v-2l2-2v-3h4l4-2a63 63 0 01 2 0h5a63 63 0 01 2-3l3-2V5160l2-1v-2h2v-2h3V5150a63 63 0 01 3-2v-2h2l2-2 2-2 2-3 3-2a63 63 0 01 2-2h4v-3l2-2h2l2-3a127 127 0 01 3-3l3-2V5120h2a63 63 0 01 3-3l2-2 2-3 10-10V5100l3-1 2-3 3-2v-1a63 63 0 01 3-3l2-2 2-1v-1l2-1 3-3h4l2-2a127 127 0 01 2-2c8-10-4 2 5-6l18-20 10-8 12-10v-1l3-3 5-4 10-10 4-4c4-5-2 0 2-3l6-2 9-10v-2l4-3V4990l2-1v-1l2-2 10-10 74-73-424-425ZM6797 5590h1430v-600h-1430v600Zm1440 0h2130v-600h-2140v600Zm2123 0c266 0 505 0 744 30l77-596c-284-37-565-35-820-35v600Zm826-565-84-10a4818 4818 0 01-75-10l-87 592 84 12 75 10 88-594Zm-244 572c287 40 563 115 828 226l230-554a3943 3943 0 00-975-266l-83 594ZM12000 5269l-72-30-72-30-230 555 70 30 72 30 231-555Zm-376 494c192 82 376 181 548 298l335-498a3860 3860 0 00-649-352l-234 560Zm547 297c40 27 80 55 121 86l353-486a5482 5482 0 00-136-96l-338 496Zm120 84a2610 2610 0 00 50 32l5 4a278 278 0 00 95 40l42 8c16 0 54 0 76-3a530 530 0 00 130-56 526 526 0 00 108-154 537 537 0 00 10-130 537 537 0 00-20-70 306 306 0 00-67-100l-12-12a294 294 0 00-19-16 1585 1585 0 00-70-54l-7-5-7-5a281 281 0 00-86-37 517 517 0 00-75-10 534 534 0 00-75 10 529 529 0 00-110 54 528 528 0 00-93 120 532 532 0 00-23 120 548 548 0 00 10 75 302 302 0 00 101 156l385-460h1l3 2 5 5 4 5a222 222 0 01 10 10l6 6a253 253 0 01 34 50 554 554 0 01 28 68c3 16 10 53 10 74a537 537 0 01-23 128 530 530 0 01-92 123 532 532 0 01-109 53 533 533 0 01-76 9 533 533 0 01-75-10 511 511 0 01-50-21 270 270 0 01-29-14l-5-4a238 238 0 01-9-7h2a759 759 0 01 32 24l13 10c2 2 2 2 0 0h-2l-4-5a166 166 0 00-5-4l-7-7a179 179 0 01-14-14 317 317 0 01-53-85 536 536 0 01-20-66 537 537 0 01 10-130 526 526 0 01 107-155 530 530 0 01 130-56 534 534 0 01 76-3 543 543 0 01 67 14 686 686 0 01 42 17 281 281 0 01 15 10c3 0 6 2 7 3l5 3c2 0 3 2 4 3h2v1a5883 5883 0 01-26-19l-358 482Zm-36-32a1800 1800 0 00 40 33l30 24 385-460a2094 2094 0 00-40-34l-30-24-387 460Zm70 57c78 55 150 123 217 190l430-420a3465 3465 0 00-263-240l-384 460Zm217 190c75 76 143 149 205 223l460-384a4499 4499 0 00-236-257l-430 416Zm201 218c32 40 30 35 41 50l486-351a903 903 0 00-37-47c-12-14-16-18-20-26l-470 374Zm50 63 11 15 7 7a532 532 0 00 17 18l8 10a304 304 0 00 160 78 532 532 0 00 102-2 528 528 0 00 136-63 530 530 0 00 87-120 540 540 0 00 20-92 558 558 0 00-6-90 303 303 0 00-66-130 5677 5677 0 00-45-58L13210 6200a250 250 0 00-14-15l-13-10a299 299 0 00-236-75 530 530 0 00-123 44 526 526 0 00-98 100 528 528 0 00-36 98 531 531 0 00-5 64l3 40a299 299 0 00 60 140l13 18 486-353-10-13-4-3v3l2 5 8 13 8 15a375 375 0 01 25 80 540 540 0 01 3 40 511 511 0 01-5 65 534 534 0 01-32 95 530 530 0 01-98 100 530 530 0 01-124 45 533 533 0 01-88-2 540 540 0 01-85-28 550 550 0 01-52-35 30 30 0 01-10-10l-13-10a403 403 0 01-12-13l-4-5a1277 1277 0 00 36 48v2l-2-6a545 545 0 01-10-18l-6-8-5-12a363 363 0 01-20-56 530 530 0 01-7-90 522 522 0 01 20-95 530 530 0 01 88-118 528 528 0 01 136-63 533 533 0 01 100-2 540 540 0 01 59 15 563 563 0 01 68 36 313 313 0 01 28 22l6 4 8 8a420 420 0 01 7 7l4 5-7-10-468 376Zm-30-37c34 46 64 86 91 127l502-333a3573 3573 0 00-108-150l-482 357Zm91 128c118 172 218 358 302 550l550-237a3943 3943 0 00-353-648l-498 335Zm853 316-30-72-30-70-554 230 30 70 31 72 553-230Zm-614 88c111 266 187 542 225 826l595-80a3856 3856 0 00-266-977l-554 230Zm820 743a5410 5410 0 01-22-161l-594 90 10 73 12 84 593-86Zm-620-82c15 152 24 295 24 440h600c0-170-10-337-30-506l-596 66Zm24 440c3 460 394 916 907 893l-25-600c-130 6-280-132-282-296l-600 4Zm907 893c460-20 885-380 882-896l-600 4c0 150-124 285-307 293l25 600Zm882-895a4497 4497 0 00-1157-2980l-447 400c640 711 1000 1630 1004 2582l600-2Zm-1160-2980a4355 4355 0 00-1184-928l-280 530c375 202 730 480 1015 798l446-400ZM12760 4330a4549 4549 0 00-1620-498l-70 595c500 60 966 198 1410 433l276-530Zm-1620-498c-416-50-855-30-1230-30v600c416 0 790-20 1158 25l73-595Zm-1230-30H8038v600h1879v-600Zm-1865 0h-1260v600h1259v-600Zm-1260 0a903 903 0 00-894 895h600c0-157 140-295 295-295v-600Zm-894 895v710h600V4700h-600Zm0 707V7100h600V5403h-600Zm0 1690v2070h600v-2090h-600Zm0 2052v1770h600v-1770h-600Zm0 1767c0 278-6 580 0 870l600-12c-6-280 0-560 0-853h-600Zm0 864v36h600v-36h-600Zm0 12c0 486 405 895 895 895v-600a303 303 0 01-295-295h-600Zm895 895H9490v-600H6797v600Zm2710 0h1134v-600H9516v600Zm1143 0c418 0 857-57 1272-180l-172-576a3895 3895 0 01-1107 156v600Zm1273-180a4615 4615 0 00 1560-838L13100 11200c-412 330-860 580-1358 730l173 575Zm1560-838c1030-825 1618-2122 1622-3423l-600-2c-3 1130-517 2251-1398 2957l375 467Zm1626-3420c4-467-400-920-907-898l27 600c130-6 282 136 280 293l600 4Zm-906-898c-465 20-880 380-882 891l600 4c0-155 125-288 307-295l-27-600Z" fill="#BABABA" mask="url(#b)"/><mask fill="#000" id="c" width="3000" height="15000" x="5193" y="3113" maskUnits="userSpaceOnUse"><path d="M5193 3113h3000v15000h-3000" fill="#fff"/><path d="M7383 4709c0-312-274-610-595-595-323 14-595 261-595 595V16290c0 310 274 608 595 594 323-14 595-262 595-595V6787c0-680 8-1363 0-2043-2-16 0-26 0-35 0-312-274-610-595-595-323 14-595 260-595 595 0 310 274 608 595 594 321-15 595-261 595-594Z"/></mask><path d="M7383 4709c0-312-274-610-595-595-323 14-595 261-595 595V16290c0 310 274 608 595 594 323-14 595-262 595-595V6787c0-680 8-1363 0-2043-2-16 0-26 0-35 0-312-274-610-595-595-323 14-595 260-595 595 0 310 274 608 595 594 321-15 595-261 595-594Z" fill="#BABABA"/><path d="m6788 4114 7 150-7-150Zm745 595c0-387-335-763-751-745l13 300c226-10 438 208 438 445h300Zm-751-745c-394 17-739 322-739 745h300c0-244 199-435 452-445l-13-300Zm6 12920-13-299 13 300Zm595-12140 300-3v-17l-2-17-298 37Zm-595 560 13 300h2l-15-300Zm-895-595v1710h600V4700h-600Zm0 1710v3270h600V6420h-600Zm0 3270v2070h600V9683h-600Zm0 2060v1870h600v-1870h-600Zm0 1860v2610h600v-2590h-600Zm0 2623v50h600v-48h-600Zm0 50c0 460 396 916 908 894l-26-598c-130 6-282-134-282-295h-600Zm908 894c464-18 882-379 882-893h-600c0 153-125 287-308 295l26 600Zm882-893V14020h-600v2264h600Zm0-2270v-2232h-600v2232h600Zm0-2230V10050h-600v1739h600Zm0-1737V6786h-600v3270h600Zm0-3267c0-676 8-1364 0-2046l-600 7c8 678 0 1353 0 2040h600ZM7681 4700a186 186 0 01 1 30l1-26h-600v-10 3a590 590 0 00 2 80l596-75Zm-1788 2c0 460 396 916 908 894l-26-600c-130 5-282-134-282-295h-600Zm910 894c458-23 880-380 880-894h-600c0 150-125 286-310 295l30 600Z" fill="#BABABA" mask="url(#c)"/></svg>
