<svg width="162" height="56" viewBox="0 0 162 56" fill="none" xmlns="http://www.w3.org/2000/svg">
<rect y="0.111328" width="162" height="55" rx="10" fill="#1C1C1C"/>
<rect x="10.2148" y="13.5039" width="26.2838" height="25.4624" fill="white"/>
<path fill-rule="evenodd" clip-rule="evenodd" d="M10.3024 6.11133H34.7658C39.3323 6.11133 43.0684 9.8474 43.0684 14.4138V38.8089C43.0684 43.3754 39.3323 47.1113 34.7658 47.1113H10.3024C5.73608 47.1113 2 43.3753 2 38.8089V14.4138C2 9.8474 5.73608 6.11133 10.3024 6.11133ZM12.1703 15.7191C12.2374 15.502 12.329 15.3162 12.4419 15.1605L23.8968 26.6312L12.5024 38.1376C12.4271 38.0483 12.3612 37.9497 12.3043 37.8427C11.9398 37.1567 12.0421 36.101 12.0421 35.3267V17.7621C12.0421 17.1235 11.9834 16.3248 12.1703 15.7191ZM13.6301 14.5407C13.6518 14.5393 13.6737 14.5383 13.6956 14.5377C14.6363 14.5111 15.1278 14.9331 15.8985 15.3873L21.9852 18.9011L28.0718 22.415L24.7965 25.7224L13.6301 14.5407ZM29.2169 23.0762L31.819 24.5783C32.3367 24.8772 32.7852 25.0965 33.1746 25.5744C33.8088 26.353 33.7261 27.2452 32.8124 27.9965C32.4087 28.3286 31.8635 28.6042 31.4076 28.8686L29.2105 30.1425L25.7003 26.6276L29.2169 23.0762ZM28.0658 30.8062L15.2045 38.2638C14.7801 38.51 14.5738 38.6134 14.0643 38.6702C13.9584 38.682 13.8565 38.6872 13.7587 38.6862L24.8002 27.5362L28.0658 30.8062Z" fill="#1C1C1C"/>
<path d="M49.52 38.3513C48.4667 38.3513 47.4867 38.158 46.58 37.7713C45.6867 37.3847 44.9 36.8513 44.22 36.1713C43.5533 35.478 43.0333 34.6647 42.66 33.7313C42.2867 32.798 42.1 31.7713 42.1 30.6513C42.1 29.5447 42.28 28.5247 42.64 27.5913C43.0133 26.6447 43.5333 25.8313 44.2 25.1513C44.8667 24.458 45.6467 23.9247 46.54 23.5513C47.4333 23.1647 48.4133 22.9713 49.48 22.9713C50.5333 22.9713 51.4733 23.1513 52.3 23.5113C53.14 23.8713 53.8467 24.3447 54.42 24.9313C54.9933 25.5047 55.4067 26.1313 55.66 26.8113L53.56 27.8313C53.2533 27.018 52.7467 26.3647 52.04 25.8713C51.3333 25.3647 50.48 25.1113 49.48 25.1113C48.4933 25.1113 47.62 25.3447 46.86 25.8113C46.1 26.278 45.5067 26.9247 45.08 27.7513C44.6667 28.578 44.46 29.5447 44.46 30.6513C44.46 31.758 44.6733 32.7313 45.1 33.5713C45.54 34.398 46.14 35.0447 46.9 35.5113C47.66 35.9647 48.5333 36.1913 49.52 36.1913C50.3467 36.1913 51.1 36.0247 51.78 35.6913C52.4733 35.3447 53.0267 34.8647 53.44 34.2513C53.8533 33.6247 54.06 32.898 54.06 32.0713V31.0513L55.12 32.0113H49.48V30.0113H56.4V31.4113C56.4 32.5047 56.2133 33.4847 55.84 34.3513C55.4667 35.2047 54.96 35.9313 54.32 36.5313C53.68 37.1313 52.9467 37.5847 52.12 37.8913C51.2933 38.198 50.4267 38.3513 49.52 38.3513ZM63.0095 38.3513C61.9695 38.3513 61.0162 38.1047 60.1495 37.6113C59.2962 37.118 58.6162 36.4447 58.1095 35.5913C57.6029 34.738 57.3495 33.7713 57.3495 32.6913C57.3495 31.598 57.6029 30.6313 58.1095 29.7913C58.6162 28.938 59.2962 28.2713 60.1495 27.7913C61.0029 27.298 61.9562 27.0513 63.0095 27.0513C64.0762 27.0513 65.0295 27.298 65.8695 27.7913C66.7229 28.2713 67.3962 28.938 67.8895 29.7913C68.3962 30.6313 68.6495 31.598 68.6495 32.6913C68.6495 33.7847 68.3962 34.758 67.8895 35.6113C67.3829 36.4647 66.7029 37.138 65.8495 37.6313C64.9962 38.1113 64.0495 38.3513 63.0095 38.3513ZM63.0095 36.2513C63.6495 36.2513 64.2162 36.098 64.7095 35.7913C65.2029 35.4847 65.5895 35.0647 65.8695 34.5313C66.1629 33.9847 66.3095 33.3713 66.3095 32.6913C66.3095 32.0113 66.1629 31.4047 65.8695 30.8713C65.5895 30.338 65.2029 29.918 64.7095 29.6113C64.2162 29.3047 63.6495 29.1513 63.0095 29.1513C62.3829 29.1513 61.8162 29.3047 61.3095 29.6113C60.8162 29.918 60.4229 30.338 60.1295 30.8713C59.8495 31.4047 59.7095 32.0113 59.7095 32.6913C59.7095 33.3713 59.8495 33.9847 60.1295 34.5313C60.4229 35.0647 60.8162 35.4847 61.3095 35.7913C61.8162 36.098 62.3829 36.2513 63.0095 36.2513ZM75.2759 38.3513C74.2359 38.3513 73.2826 38.1047 72.4159 37.6113C71.5626 37.118 70.8826 36.4447 70.3759 35.5913C69.8693 34.738 69.6159 33.7713 69.6159 32.6913C69.6159 31.598 69.8693 30.6313 70.3759 29.7913C70.8826 28.938 71.5626 28.2713 72.4159 27.7913C73.2693 27.298 74.2226 27.0513 75.2759 27.0513C76.3426 27.0513 77.2959 27.298 78.1359 27.7913C78.9893 28.2713 79.6626 28.938 80.1559 29.7913C80.6626 30.6313 80.9159 31.598 80.9159 32.6913C80.9159 33.7847 80.6626 34.758 80.1559 35.6113C79.6493 36.4647 78.9693 37.138 78.1159 37.6313C77.2626 38.1113 76.3159 38.3513 75.2759 38.3513ZM75.2759 36.2513C75.9159 36.2513 76.4826 36.098 76.9759 35.7913C77.4693 35.4847 77.8559 35.0647 78.1359 34.5313C78.4293 33.9847 78.5759 33.3713 78.5759 32.6913C78.5759 32.0113 78.4293 31.4047 78.1359 30.8713C77.8559 30.338 77.4693 29.918 76.9759 29.6113C76.4826 29.3047 75.9159 29.1513 75.2759 29.1513C74.6493 29.1513 74.0826 29.3047 73.5759 29.6113C73.0826 29.918 72.6893 30.338 72.3959 30.8713C72.1159 31.4047 71.9759 32.0113 71.9759 32.6913C71.9759 33.3713 72.1159 33.9847 72.3959 34.5313C72.6893 35.0647 73.0826 35.4847 73.5759 35.7913C74.0826 36.098 74.6493 36.2513 75.2759 36.2513ZM87.5423 42.5113C86.7557 42.5113 86.029 42.3847 85.3623 42.1313C84.6957 41.878 84.1223 41.5247 83.6423 41.0713C83.1623 40.6313 82.8023 40.1113 82.5623 39.5113L84.6423 38.6513C84.829 39.158 85.169 39.578 85.6623 39.9113C86.169 40.2447 86.789 40.4113 87.5223 40.4113C88.0957 40.4113 88.609 40.298 89.0623 40.0713C89.5157 39.858 89.8757 39.538 90.1423 39.1113C90.409 38.698 90.5423 38.198 90.5423 37.6113V35.1713L90.9423 35.6313C90.569 36.3247 90.049 36.8513 89.3823 37.2113C88.729 37.5713 87.989 37.7513 87.1623 37.7513C86.1623 37.7513 85.2623 37.518 84.4623 37.0513C83.6623 36.5847 83.029 35.9447 82.5623 35.1313C82.109 34.318 81.8823 33.4047 81.8823 32.3913C81.8823 31.3647 82.109 30.4513 82.5623 29.6513C83.029 28.8513 83.6557 28.218 84.4423 27.7513C85.229 27.2847 86.129 27.0513 87.1423 27.0513C87.969 27.0513 88.7023 27.2313 89.3423 27.5913C89.9957 27.938 90.529 28.4447 90.9423 29.1113L90.6423 29.6713V27.2913H92.7823V37.6113C92.7823 38.5447 92.5557 39.378 92.1023 40.1113C91.6623 40.858 91.049 41.4447 90.2623 41.8713C89.4757 42.298 88.569 42.5113 87.5423 42.5113ZM87.4223 35.6513C88.0223 35.6513 88.5557 35.5113 89.0223 35.2313C89.489 34.938 89.8557 34.5513 90.1223 34.0713C90.4023 33.578 90.5423 33.0247 90.5423 32.4113C90.5423 31.798 90.4023 31.2447 90.1223 30.7513C89.8423 30.258 89.469 29.8713 89.0023 29.5913C88.5357 29.298 88.009 29.1513 87.4223 29.1513C86.809 29.1513 86.2623 29.298 85.7823 29.5913C85.3023 29.8713 84.9223 30.258 84.6423 30.7513C84.3757 31.2313 84.2423 31.7847 84.2423 32.4113C84.2423 33.0113 84.3757 33.558 84.6423 34.0513C84.9223 34.5447 85.3023 34.938 85.7823 35.2313C86.2623 35.5113 86.809 35.6513 87.4223 35.6513ZM94.6278 38.1113V22.9713H96.8878V38.1113H94.6278ZM103.81 38.3513C102.73 38.3513 101.77 38.1047 100.93 37.6113C100.103 37.1047 99.4568 36.4247 98.9902 35.5713C98.5235 34.7047 98.2902 33.738 98.2902 32.6713C98.2902 31.578 98.5235 30.6113 98.9902 29.7713C99.4702 28.9313 100.11 28.2713 100.91 27.7913C101.71 27.298 102.617 27.0513 103.63 27.0513C104.443 27.0513 105.17 27.1913 105.81 27.4713C106.45 27.7513 106.99 28.138 107.43 28.6313C107.87 29.1113 108.203 29.6647 108.43 30.2913C108.67 30.918 108.79 31.5847 108.79 32.2913C108.79 32.4647 108.783 32.6447 108.77 32.8313C108.757 33.018 108.73 33.1913 108.69 33.3513H100.07V31.5513H107.41L106.33 32.3713C106.463 31.718 106.417 31.138 106.19 30.6313C105.977 30.1113 105.643 29.7047 105.19 29.4113C104.75 29.1047 104.23 28.9513 103.63 28.9513C103.03 28.9513 102.497 29.1047 102.03 29.4113C101.563 29.7047 101.203 30.1313 100.95 30.6913C100.697 31.238 100.597 31.9047 100.65 32.6913C100.583 33.4247 100.683 34.0647 100.95 34.6113C101.23 35.158 101.617 35.5847 102.11 35.8913C102.617 36.198 103.19 36.3513 103.83 36.3513C104.483 36.3513 105.037 36.2047 105.49 35.9113C105.957 35.618 106.323 35.238 106.59 34.7713L108.43 35.6713C108.217 36.178 107.883 36.638 107.43 37.0513C106.99 37.4513 106.457 37.7713 105.83 38.0113C105.217 38.238 104.543 38.3513 103.81 38.3513ZM113.112 38.1113V23.2113H118.532C119.532 23.2113 120.412 23.398 121.172 23.7713C121.945 24.1313 122.545 24.6647 122.972 25.3713C123.399 26.0647 123.612 26.898 123.612 27.8713C123.612 28.8313 123.392 29.658 122.952 30.3513C122.525 31.0447 121.932 31.578 121.172 31.9513C120.412 32.3247 119.532 32.5113 118.532 32.5113H115.472V38.1113H113.112ZM115.472 30.4113H118.592C119.125 30.4113 119.592 30.3047 119.992 30.0913C120.392 29.878 120.705 29.5847 120.932 29.2113C121.159 28.8247 121.272 28.3713 121.272 27.8513C121.272 27.3313 121.159 26.8847 120.932 26.5113C120.705 26.1247 120.392 25.8313 119.992 25.6313C119.592 25.418 119.125 25.3113 118.592 25.3113H115.472V30.4113ZM125.022 38.1113V22.9713H127.282V38.1113H125.022ZM132.364 38.3513C131.631 38.3513 130.984 38.2247 130.424 37.9713C129.877 37.7047 129.451 37.3447 129.144 36.8913C128.837 36.4247 128.684 35.878 128.684 35.2513C128.684 34.6647 128.811 34.138 129.064 33.6713C129.331 33.2047 129.737 32.8113 130.284 32.4913C130.831 32.1713 131.517 31.9447 132.344 31.8113L136.104 31.1913V32.9713L132.784 33.5513C132.184 33.658 131.744 33.8513 131.464 34.1313C131.184 34.398 131.044 34.7447 131.044 35.1713C131.044 35.5847 131.197 35.9247 131.504 36.1913C131.824 36.4447 132.231 36.5713 132.724 36.5713C133.337 36.5713 133.871 36.438 134.324 36.1713C134.791 35.9047 135.151 35.5513 135.404 35.1113C135.657 34.658 135.784 34.158 135.784 33.6113V30.8313C135.784 30.298 135.584 29.8647 135.184 29.5313C134.797 29.1847 134.277 29.0113 133.624 29.0113C133.024 29.0113 132.497 29.1713 132.044 29.4913C131.604 29.798 131.277 30.198 131.064 30.6913L129.184 29.7513C129.384 29.218 129.711 28.7513 130.164 28.3513C130.617 27.938 131.144 27.618 131.744 27.3913C132.357 27.1647 133.004 27.0513 133.684 27.0513C134.537 27.0513 135.291 27.2113 135.944 27.5313C136.611 27.8513 137.124 28.298 137.484 28.8713C137.857 29.4313 138.044 30.0847 138.044 30.8313V38.1113H135.884V36.1513L136.344 36.2113C136.091 36.6513 135.764 37.0313 135.364 37.3513C134.977 37.6713 134.531 37.918 134.024 38.0913C133.531 38.2647 132.977 38.3513 132.364 38.3513ZM140.846 42.5313C140.58 42.5313 140.313 42.5047 140.046 42.4513C139.793 42.4113 139.56 42.3447 139.346 42.2513V40.3113C139.506 40.3513 139.7 40.3847 139.926 40.4113C140.153 40.4513 140.373 40.4713 140.586 40.4713C141.213 40.4713 141.673 40.3313 141.966 40.0513C142.273 39.7847 142.546 39.3647 142.786 38.7913L143.506 37.1513L143.466 39.0513L138.786 27.2913H141.206L144.666 36.3113H143.846L147.286 27.2913H149.726L144.946 39.2913C144.693 39.9313 144.373 40.4913 143.986 40.9713C143.613 41.4647 143.166 41.8447 142.646 42.1113C142.14 42.3913 141.54 42.5313 140.846 42.5313Z" fill="white"/>
<path d="M43.028 18.1833C42.748 18.1833 42.488 18.1313 42.248 18.0273C42.008 17.9193 41.804 17.7733 41.636 17.5893C41.468 17.4053 41.344 17.1933 41.264 16.9533L41.864 16.7013C41.972 16.9773 42.13 17.1893 42.338 17.3373C42.546 17.4853 42.786 17.5593 43.058 17.5593C43.218 17.5593 43.358 17.5353 43.478 17.4873C43.598 17.4353 43.69 17.3633 43.754 17.2713C43.822 17.1793 43.856 17.0733 43.856 16.9533C43.856 16.7893 43.81 16.6593 43.718 16.5633C43.626 16.4673 43.49 16.3913 43.31 16.3353L42.47 16.0713C42.134 15.9673 41.878 15.8093 41.702 15.5973C41.526 15.3813 41.438 15.1293 41.438 14.8413C41.438 14.5893 41.5 14.3693 41.624 14.1813C41.748 13.9893 41.918 13.8393 42.134 13.7313C42.354 13.6233 42.604 13.5693 42.884 13.5693C43.152 13.5693 43.396 13.6173 43.616 13.7133C43.836 13.8053 44.024 13.9333 44.18 14.0973C44.34 14.2613 44.456 14.4513 44.528 14.6673L43.94 14.9253C43.852 14.6893 43.714 14.5073 43.526 14.3793C43.342 14.2513 43.128 14.1873 42.884 14.1873C42.736 14.1873 42.606 14.2133 42.494 14.2653C42.382 14.3133 42.294 14.3853 42.23 14.4813C42.17 14.5733 42.14 14.6813 42.14 14.8053C42.14 14.9493 42.186 15.0773 42.278 15.1893C42.37 15.3013 42.51 15.3853 42.698 15.4413L43.478 15.6873C43.834 15.7953 44.102 15.9513 44.282 16.1553C44.462 16.3553 44.552 16.6053 44.552 16.9053C44.552 17.1533 44.486 17.3733 44.354 17.5653C44.226 17.7573 44.048 17.9093 43.82 18.0213C43.592 18.1293 43.328 18.1833 43.028 18.1833ZM46.6068 18.1833C46.2948 18.1833 46.0088 18.1093 45.7488 17.9613C45.4928 17.8133 45.2888 17.6113 45.1368 17.3553C44.9848 17.0993 44.9088 16.8093 44.9088 16.4853C44.9088 16.1573 44.9848 15.8673 45.1368 15.6153C45.2888 15.3593 45.4928 15.1593 45.7488 15.0153C46.0048 14.8673 46.2908 14.7933 46.6068 14.7933C46.9268 14.7933 47.2128 14.8673 47.4648 15.0153C47.7208 15.1593 47.9228 15.3593 48.0708 15.6153C48.2228 15.8673 48.2988 16.1573 48.2988 16.4853C48.2988 16.8133 48.2228 17.1053 48.0708 17.3613C47.9188 17.6173 47.7148 17.8193 47.4588 17.9673C47.2028 18.1113 46.9188 18.1833 46.6068 18.1833ZM46.6068 17.5533C46.7988 17.5533 46.9688 17.5073 47.1168 17.4153C47.2648 17.3233 47.3808 17.1973 47.4648 17.0373C47.5528 16.8733 47.5968 16.6893 47.5968 16.4853C47.5968 16.2813 47.5528 16.0993 47.4648 15.9393C47.3808 15.7793 47.2648 15.6533 47.1168 15.5613C46.9688 15.4693 46.7988 15.4233 46.6068 15.4233C46.4188 15.4233 46.2488 15.4693 46.0968 15.5613C45.9488 15.6533 45.8308 15.7793 45.7428 15.9393C45.6588 16.0993 45.6168 16.2813 45.6168 16.4853C45.6168 16.6893 45.6588 16.8733 45.7428 17.0373C45.8308 17.1973 45.9488 17.3233 46.0968 17.4153C46.2488 17.5073 46.4188 17.5533 46.6068 17.5533ZM50.2867 18.1833C49.9747 18.1833 49.6887 18.1093 49.4287 17.9613C49.1727 17.8133 48.9687 17.6113 48.8167 17.3553C48.6647 17.0993 48.5887 16.8093 48.5887 16.4853C48.5887 16.1573 48.6647 15.8673 48.8167 15.6153C48.9687 15.3593 49.1727 15.1593 49.4287 15.0153C49.6847 14.8673 49.9707 14.7933 50.2867 14.7933C50.6067 14.7933 50.8927 14.8673 51.1447 15.0153C51.4007 15.1593 51.6027 15.3593 51.7507 15.6153C51.9027 15.8673 51.9787 16.1573 51.9787 16.4853C51.9787 16.8133 51.9027 17.1053 51.7507 17.3613C51.5987 17.6173 51.3947 17.8193 51.1387 17.9673C50.8827 18.1113 50.5987 18.1833 50.2867 18.1833ZM50.2867 17.5533C50.4787 17.5533 50.6487 17.5073 50.7967 17.4153C50.9447 17.3233 51.0607 17.1973 51.1447 17.0373C51.2327 16.8733 51.2767 16.6893 51.2767 16.4853C51.2767 16.2813 51.2327 16.0993 51.1447 15.9393C51.0607 15.7793 50.9447 15.6533 50.7967 15.5613C50.6487 15.4693 50.4787 15.4233 50.2867 15.4233C50.0987 15.4233 49.9287 15.4693 49.7767 15.5613C49.6287 15.6533 49.5107 15.7793 49.4227 15.9393C49.3387 16.0993 49.2967 16.2813 49.2967 16.4853C49.2967 16.6893 49.3387 16.8733 49.4227 17.0373C49.5107 17.1973 49.6287 17.3233 49.7767 17.4153C49.9287 17.5073 50.0987 17.5533 50.2867 17.5533ZM52.4006 18.1113V14.8653H53.0486V15.5013L52.9706 15.4173C53.0506 15.2133 53.1786 15.0593 53.3546 14.9553C53.5306 14.8473 53.7346 14.7933 53.9666 14.7933C54.2066 14.7933 54.4186 14.8453 54.6026 14.9493C54.7866 15.0533 54.9306 15.1973 55.0346 15.3813C55.1386 15.5653 55.1906 15.7773 55.1906 16.0173V18.1113H54.5186V16.1973C54.5186 16.0333 54.4886 15.8953 54.4286 15.7833C54.3686 15.6673 54.2826 15.5793 54.1706 15.5193C54.0626 15.4553 53.9386 15.4233 53.7986 15.4233C53.6586 15.4233 53.5326 15.4553 53.4206 15.5193C53.3126 15.5793 53.2286 15.6673 53.1686 15.7833C53.1086 15.8993 53.0786 16.0373 53.0786 16.1973V18.1113H52.4006ZM58.0511 18.1833C57.7391 18.1833 57.4531 18.1093 57.1931 17.9613C56.9371 17.8133 56.7331 17.6113 56.5811 17.3553C56.4291 17.0993 56.3531 16.8093 56.3531 16.4853C56.3531 16.1573 56.4291 15.8673 56.5811 15.6153C56.7331 15.3593 56.9371 15.1593 57.1931 15.0153C57.4491 14.8673 57.7351 14.7933 58.0511 14.7933C58.3711 14.7933 58.6571 14.8673 58.9091 15.0153C59.1651 15.1593 59.3671 15.3593 59.5151 15.6153C59.6671 15.8673 59.7431 16.1573 59.7431 16.4853C59.7431 16.8133 59.6671 17.1053 59.5151 17.3613C59.3631 17.6173 59.1591 17.8193 58.9031 17.9673C58.6471 18.1113 58.3631 18.1833 58.0511 18.1833ZM58.0511 17.5533C58.2431 17.5533 58.4131 17.5073 58.5611 17.4153C58.7091 17.3233 58.8251 17.1973 58.9091 17.0373C58.9971 16.8733 59.0411 16.6893 59.0411 16.4853C59.0411 16.2813 58.9971 16.0993 58.9091 15.9393C58.8251 15.7793 58.7091 15.6533 58.5611 15.5613C58.4131 15.4693 58.2431 15.4233 58.0511 15.4233C57.8631 15.4233 57.6931 15.4693 57.5411 15.5613C57.3931 15.6533 57.2751 15.7793 57.1871 15.9393C57.1031 16.0993 57.0611 16.2813 57.0611 16.4853C57.0611 16.6893 57.1031 16.8733 57.1871 17.0373C57.2751 17.1973 57.3931 17.3233 57.5411 17.4153C57.6931 17.5073 57.8631 17.5533 58.0511 17.5533ZM60.165 18.1113V14.8653H60.813V15.5013L60.735 15.4173C60.815 15.2133 60.943 15.0593 61.119 14.9553C61.295 14.8473 61.499 14.7933 61.731 14.7933C61.971 14.7933 62.183 14.8453 62.367 14.9493C62.551 15.0533 62.695 15.1973 62.799 15.3813C62.903 15.5653 62.955 15.7773 62.955 16.0173V18.1113H62.283V16.1973C62.283 16.0333 62.253 15.8953 62.193 15.7833C62.133 15.6673 62.047 15.5793 61.935 15.5193C61.827 15.4553 61.703 15.4233 61.563 15.4233C61.423 15.4233 61.297 15.4553 61.185 15.5193C61.077 15.5793 60.993 15.6673 60.933 15.7833C60.873 15.8993 60.843 16.0373 60.843 16.1973V18.1113H60.165Z" fill="white"/>
</svg>
