<svg width="26" height="25" viewBox="0 0 26 25" fill="none" xmlns="http://www.w3.org/2000/svg">
<circle cx="12.7856" cy="12.2661" r="12.2661" fill="#393939"/>
<path d="M17.14 6H14.86C13.8327 6 13 7.02725 13 7.85999V10.14C13 11.1673 13.8327 12 14.86 12H17.14C18.1673 12 19 10.9727 19 10.14V7.85999C19 6.83273 18.1673 6 17.14 6Z" fill="#E0EBA5"/>
<path d="M10.14 6H7.86C6.83274 6 6.00001 7.02725 6.00001 7.85999V10.14C6.00001 11.1673 6.83274 12 7.86 12H10.14C11.1673 12 12 10.9727 12 10.14V7.85999C12 6.83273 11.1673 6 10.14 6Z" fill="#E0EBA5"/>
<path d="M17.14 13H14.86C13.8327 13 13 14.0273 13 14.86V17.14C13 18.1673 13.8327 19 14.86 19H17.14C18.1673 19 19 17.9727 19 17.14V14.86C19 13.8327 18.1673 13 17.14 13Z" fill="#E0EBA5"/>
<path d="M10.14 13H7.86C6.83274 13 6.00001 14.0273 6.00001 14.86V17.14C6.00001 18.1673 6.83274 19 7.86 19H10.14C11.1673 19 12 17.9727 12 17.14V14.86C12 13.8327 11.1673 13 10.14 13Z" fill="#E0EBA5"/>
</svg>
