<svg width="60" height="36" viewBox="0 0 60 36" fill="none" xmlns="http://www.w3.org/2000/svg">
<path d="M35.7355 26.3075C35.0601 26.3086 34.3911 26.176 33.7672 25.9173C33.1433 25.6586 32.5769 25.2788 32.1005 24.8L29.6505 22.35C29.4764 22.1758 29.3382 21.9691 29.2439 21.7415C29.1497 21.5139 29.1012 21.27 29.1012 21.0237C29.1012 20.7774 29.1497 20.5335 29.2439 20.306C29.3382 20.0784 29.4764 19.8717 29.6505 19.6975C29.8247 19.5233 30.0314 19.3852 30.259 19.2909C30.4866 19.1966 30.7305 19.1481 30.9768 19.1481C31.2231 19.1481 31.467 19.1966 31.6945 19.2909C31.9221 19.3852 32.1289 19.5233 32.303 19.6975L34.753 22.1475C35.303 22.6975 36.253 22.6975 36.8005 22.1475C37.448 21.4875 37.448 20.5575 36.888 19.985L29.7505 12.85C29.3988 12.4982 29.2012 12.0212 29.2012 11.5237C29.2012 11.0263 29.3988 10.5492 29.7505 10.1975C30.1023 9.84574 30.5793 9.64814 31.0768 9.64814C31.5742 9.64814 32.0513 9.84574 32.403 10.1975L39.553 17.3475C41.5455 19.38 41.5455 22.665 39.5655 24.685C39.0661 25.1952 38.4704 25.6013 37.813 25.8798C37.1556 26.1583 36.4495 26.3037 35.7355 26.3075ZM8.12552 10.8525C7.69163 10.8526 7.27113 10.7022 6.9357 10.427C6.60027 10.1518 6.37066 9.76879 6.28602 9.34324C6.20138 8.91769 6.26695 8.47596 6.47155 8.09334C6.67615 7.71072 7.00711 7.4109 7.40802 7.24499L18.928 2.46999C20.139 1.97626 21.4689 1.85168 22.7505 2.11191C24.032 2.37214 25.208 3.00556 26.1305 3.93249L27.498 5.29999C27.6722 5.47415 27.8103 5.68092 27.9046 5.90848C27.9989 6.13603 28.0474 6.37993 28.0474 6.62624C28.0474 6.87254 27.9989 7.11644 27.9046 7.344C27.8103 7.57156 27.6722 7.77832 27.498 7.95249C27.3239 8.12665 27.1171 8.26481 26.8895 8.35907C26.662 8.45332 26.4181 8.50184 26.1718 8.50184C25.9255 8.50184 25.6816 8.45332 25.454 8.35907C25.2264 8.26481 25.0197 8.12665 24.8455 7.95249L23.478 6.58499C23.0762 6.18458 22.5661 5.91024 22.0105 5.79566C21.455 5.68107 20.878 5.73124 20.3505 5.93999L8.84302 10.7075C8.61612 10.8038 8.37203 10.8532 8.12552 10.8525Z" fill="#738801"/>
<path d="M27.5322 14.8C26.7986 14.8006 26.0736 14.6415 25.4075 14.3339C24.7415 14.0262 24.1503 13.5774 23.6751 13.0184C23.1999 12.4595 22.852 11.8039 22.6555 11.097C22.459 10.3901 22.4186 9.64899 22.5372 8.92498C22.6666 8.13351 22.9816 7.38396 23.4566 6.73777C23.9316 6.09158 24.5529 5.56715 25.2697 5.20748L33.5322 1.06998C34.3823 0.64489 35.3139 0.407684 36.2638 0.374469C37.2136 0.341254 38.1595 0.512807 39.0372 0.877481L52.5847 6.41748C53.0452 6.60545 53.4121 6.96865 53.6048 7.42718C53.7975 7.88571 53.8002 8.402 53.6122 8.86248C53.4242 9.32296 53.061 9.68991 52.6025 9.88261C52.144 10.0753 51.6277 10.078 51.1672 9.88998L37.6072 4.34498C37.226 4.18473 36.8146 4.10869 36.4012 4.12207C35.9879 4.13544 35.5823 4.23792 35.2122 4.42248L26.9497 8.55998C26.5672 8.75248 26.3097 9.10248 26.2397 9.52498C26.1697 9.94748 26.3047 10.36 26.6072 10.665C26.8031 10.8597 27.0551 10.9881 27.3278 11.032C27.6005 11.076 27.8801 11.0333 28.1272 10.91L35.4722 7.20998C35.6924 7.09718 35.9327 7.02906 36.1794 7.00956C36.426 6.99006 36.674 7.01956 36.9092 7.09636C37.1444 7.17317 37.362 7.29575 37.5496 7.45705C37.7372 7.61836 37.891 7.81519 38.0022 8.0362C38.1134 8.25722 38.1797 8.49805 38.1974 8.74482C38.215 8.99159 38.1837 9.23941 38.1051 9.47401C38.0266 9.70861 37.9024 9.92535 37.7397 10.1117C37.577 10.2981 37.379 10.4505 37.1572 10.56L29.8147 14.26C29.106 14.6145 28.3246 14.7994 27.5322 14.8ZM31.0697 31.0175C30.3869 31.0194 29.7105 30.8857 29.0797 30.6244C28.4489 30.3631 27.8762 29.9792 27.3947 29.495L24.3447 26.445C24.1705 26.2708 24.0324 26.0641 23.9381 25.8365C23.8439 25.6089 23.7954 25.365 23.7954 25.1187C23.7954 24.8724 23.8439 24.6285 23.9381 24.401C24.0324 24.1734 24.1705 23.9666 24.3447 23.7925C24.5189 23.6183 24.7256 23.4802 24.9532 23.3859C25.1808 23.2916 25.4247 23.2431 25.671 23.2431C25.9173 23.2431 26.1612 23.2916 26.3887 23.3859C26.6163 23.4802 26.823 23.6183 26.9972 23.7925L30.0472 26.8425C30.3226 27.1056 30.6888 27.2525 31.0697 27.2525C31.4506 27.2525 31.8168 27.1056 32.0922 26.8425C32.228 26.7091 32.3359 26.5501 32.4096 26.3746C32.4833 26.1992 32.5214 26.0108 32.5216 25.8205C32.5219 25.6302 32.4842 25.4417 32.4109 25.2661C32.3376 25.0905 32.2302 24.9312 32.0947 24.7975L29.6447 22.3475C29.4705 22.1733 29.3324 21.9666 29.2381 21.739C29.1439 21.5114 29.0954 21.2675 29.0954 21.0212C29.0954 20.7749 29.1439 20.531 29.2381 20.3035C29.3324 20.0759 29.4705 19.8691 29.6447 19.695C29.8189 19.5208 30.0256 19.3827 30.2532 19.2884C30.4808 19.1941 30.7247 19.1456 30.971 19.1456C31.2173 19.1456 31.4612 19.1941 31.6887 19.2884C31.9163 19.3827 32.123 19.5208 32.2972 19.695L34.7472 22.145C35.7297 23.125 36.2697 24.43 36.2697 25.82C36.2697 27.2075 35.7297 28.5125 34.7472 29.495C34.2654 29.9794 33.6923 30.3634 33.061 30.6247C32.4298 30.886 31.7529 31.0195 31.0697 31.0175Z" fill="#738801"/>
<path d="M25.73 35.135C24.3832 35.1396 23.0882 34.6164 22.1225 33.6775L16.6325 28.695C14.6464 26.8903 12.0586 25.891 9.375 25.8925H8.125C7.62772 25.8925 7.15081 25.695 6.79917 25.3433C6.44754 24.9917 6.25 24.5148 6.25 24.0175C6.25 23.5202 6.44754 23.0433 6.79917 22.6917C7.15081 22.3401 7.62772 22.1425 8.125 22.1425H9.375C12.9975 22.1425 16.47 23.4825 19.1525 25.9175L24.6875 30.9425C25.3 31.5325 26.21 31.53 26.7675 30.97C26.9098 30.838 27.0239 30.6786 27.103 30.5014C27.1821 30.3242 27.2245 30.1328 27.2278 29.9387C27.2311 29.7447 27.1951 29.552 27.122 29.3722C27.0489 29.1924 26.9402 29.0292 26.8025 28.8925L24.3525 26.4425C24.0008 26.0908 23.8031 25.6137 23.8031 25.1163C23.8031 24.6188 24.0008 24.1418 24.3525 23.79C24.7042 23.4383 25.1813 23.2407 25.6787 23.2407C26.1762 23.2407 26.6533 23.4383 27.005 23.79L29.455 26.24C30.4282 27.2149 30.9748 28.5362 30.9748 29.9138C30.9748 31.2913 30.4282 32.6126 29.455 33.5875C28.967 34.0786 28.3866 34.4683 27.7473 34.7339C27.1079 34.9995 26.4223 35.1358 25.73 35.135ZM44.695 26.7025C43.985 26.7025 43.275 26.5875 42.5875 26.35L38.1175 24.82C37.6471 24.6586 37.26 24.3169 37.0416 23.8701C36.8231 23.4232 36.791 22.9079 36.9525 22.4375C37.114 21.9671 37.4557 21.5801 37.9025 21.3616C38.3493 21.1431 38.8646 21.1111 39.335 21.2725L43.8025 22.8025C44.765 23.1275 45.845 22.9175 46.615 22.2475L50.5225 18.18C50.8727 17.8449 51.3389 17.6582 51.8235 17.659C52.3082 17.6598 52.7738 17.8479 53.1229 18.1841C53.472 18.5203 53.6776 18.9785 53.6966 19.4628C53.7157 19.9471 53.5467 20.42 53.225 20.7825L49.2 24.96C47.9624 26.073 46.3594 26.693 44.695 26.7025Z" fill="#738801"/>
<path d="M58.125 28H51.875C51.3777 28 50.9008 27.8025 50.5492 27.4508C50.1975 27.0992 50 26.6223 50 26.125V4.875C50 4.37772 50.1975 3.90081 50.5492 3.54917C50.9008 3.19754 51.3777 3 51.875 3H58.125C58.6223 3 59.0992 3.19754 59.4508 3.54917C59.8025 3.90081 60 4.37772 60 4.875V26.125C60 26.6223 59.8025 27.0992 59.4508 27.4508C59.0992 27.8025 58.6223 28 58.125 28ZM53.75 24.25H56.25V6.75H53.75V24.25ZM8.125 28H1.875C1.37772 28 0.900805 27.8025 0.549175 27.4508C0.197544 27.0992 0 26.6223 0 26.125L0 4.875C0 4.37772 0.197544 3.90081 0.549175 3.54917C0.900805 3.19754 1.37772 3 1.875 3H8.125C8.62228 3 9.09919 3.19754 9.45083 3.54917C9.80246 3.90081 10 4.37772 10 4.875V26.125C10 26.6223 9.80246 27.0992 9.45083 27.4508C9.09919 27.8025 8.62228 28 8.125 28ZM3.75 24.25H6.25V6.75H3.75V24.25Z" fill="#738801"/>
</svg>
