<svg width="1400" height="482" viewBox="0 0 1400 482" fill="none" xmlns="http://www.w3.org/2000/svg">
<mask id="mask0_1_37528" style="mask-type:alpha" maskUnits="userSpaceOnUse" x="0" y="0" width="1400" height="482">
<path d="M0 10C0 4.47715 4.47715 0 10 0H1390C1395.52 0 1400 4.47715 1400 10V472C1400 477.523 1395.52 482 1390 482H9.99998C4.47713 482 0 477.523 0 472V10Z" fill="#BFD1FF"/>
</mask>
<g mask="url(#mask0_1_37528)">
<rect width="1400" height="482" fill="#CEDCF4"/>
<path fill-rule="evenodd" clip-rule="evenodd" d="M285.993 29.7878C327.983 -85.8445 247.969 -326.16 370.845 -321.697C549.196 -315.218 569.72 10.5826 744.539 46.4441C859.651 70.0574 877.064 -172.392 992.557 -194.162C1102.4 -214.868 1388.93 -137.397 1412 -28C1437.97 95.1226 1126 230 1158 364.267C1128.02 427.472 972.211 307.046 931.97 364.267C890.98 422.552 932.57 529.459 868.938 561.492C794.386 599.023 707.138 711.85 643.398 657.997C562.424 589.584 705.348 404.081 615.692 347.53C476.52 259.748 250.665 449.737 132.179 335.547C48.3734 254.781 246.247 139.243 285.993 29.7878Z" fill="#E0EBA5"/>
<path d="M1025.36 319C1025.36 319 1117.3 247.188 1091.11 212.915C1064.91 178.643 1025.36 319 1025.36 319Z" fill="#E0EBA5"/>
<path d="M1025.36 319.399C1025.44 319.399 1025.53 319.372 1025.6 319.315C1025.83 319.134 1048.84 301.085 1068.35 279.074C1079.83 266.13 1087.87 254.366 1092.25 244.106C1097.77 231.189 1097.49 220.611 1091.43 212.673C1088.11 208.336 1084.39 206.529 1080.36 207.298C1074.52 208.412 1067.98 215.009 1060.91 226.899C1055.29 236.348 1049.31 249.166 1043.13 264.996C1032.6 291.931 1025.05 318.626 1024.97 318.891C1024.93 319.057 1024.99 319.235 1025.13 319.332C1025.2 319.376 1025.28 319.399 1025.36 319.399ZM1082.12 207.927C1085.23 207.927 1088.13 209.68 1090.79 213.158C1096.67 220.851 1096.92 231.159 1091.52 243.794C1087.17 253.975 1079.17 265.667 1067.76 278.547C1050.57 297.932 1030.67 314.235 1026.08 317.913C1027.67 312.425 1034.63 288.948 1043.87 265.283C1050.04 249.495 1056.01 236.719 1061.6 227.307C1068.55 215.623 1074.91 209.155 1080.5 208.083C1081.05 207.979 1081.59 207.927 1082.12 207.927Z" fill="black"/>
<path d="M1025.5 319.082L1089.2 210.689L1088.92 210.529L1025.22 318.918L1025.5 319.082Z" fill="black"/>
<path d="M1070.9 241.672C1070.91 241.672 1070.93 241.67 1070.95 241.665L1095.28 233.387L1095.18 233.085L1071.02 241.301L1067.65 217.779L1067.34 217.824L1070.74 241.536C1070.74 241.583 1070.77 241.625 1070.81 241.65C1070.84 241.665 1070.87 241.672 1070.9 241.672Z" fill="black"/>
<path d="M1055.99 267.026C1056.01 267.026 1056.02 267.026 1056.04 267.021L1083.11 259.862L1083.03 259.553L1056.13 266.664L1053.19 242.769L1052.87 242.809L1055.83 266.887C1055.84 266.934 1055.87 266.974 1055.9 267.001C1055.93 267.018 1055.96 267.028 1055.99 267.028" fill="black"/>
<path d="M1041.18 292.22C1041.2 292.22 1041.22 292.22 1041.23 292.213L1061.63 286L1061.54 285.695L1041.34 291.849L1040.7 272.887L1040.38 272.897L1041.03 292.067C1041.03 292.116 1041.05 292.163 1041.09 292.191C1041.12 292.211 1041.15 292.22 1041.18 292.22Z" fill="black"/>
<path d="M1025.95 323.097C1025.95 323.097 1040.75 155.505 983.025 155.399C916.044 155.275 1025.95 323.095 1025.95 323.095" fill="#E0EBA5"/>
<path d="M1025.95 323.496C1025.98 323.496 1026.01 323.491 1026.05 323.484C1026.21 323.441 1026.33 323.3 1026.35 323.132C1026.37 322.828 1029.03 292.179 1027.65 257.55C1026.84 237.202 1024.81 219.48 1021.62 204.873C1017.64 186.572 1011.8 173.123 1004.29 164.899C998.298 158.344 991.144 155.015 983.027 155C983.003 155 982.975 155 982.953 155C973.749 155 967.358 158.191 963.949 164.483C959.55 172.605 960.075 186.03 965.509 204.383C969.838 219.005 977.279 236.794 987.622 257.258C1005.22 292.083 1025.41 323.006 1025.61 323.313C1025.69 323.427 1025.82 323.493 1025.95 323.493M982.953 155.797C982.978 155.797 983 155.797 983.025 155.797C990.912 155.812 997.865 159.055 1003.7 165.434C1011.12 173.553 1016.89 186.879 1020.84 205.041C1024.02 219.604 1026.04 237.281 1026.85 257.58C1028.08 288.355 1026.11 315.975 1025.65 321.894C1022.08 316.357 1004.16 288.201 988.332 256.892C978.01 236.472 970.591 218.728 966.274 204.152C960.902 186.01 960.355 172.791 964.65 164.862C967.91 158.847 974.066 155.795 982.953 155.795V155.797Z" fill="black"/>
<path d="M1025.8 323.139L1026.1 323.053L979.054 155.233L978.747 155.317L1025.8 323.139Z" fill="black"/>
<path d="M992.316 203.281C992.331 203.281 992.346 203.281 992.361 203.274C992.405 203.262 992.442 203.227 992.462 203.185L1007.12 169.888L1006.83 169.759L992.244 202.883L961.474 182.713L961.301 182.98L992.227 203.254C992.254 203.272 992.284 203.279 992.316 203.279" fill="black"/>
<path d="M1000.46 232.347C1000.48 232.347 1000.49 232.347 1000.51 232.34C1000.55 232.327 1000.58 232.3 1000.61 232.263L1019.02 197.649L1018.74 197.5L1000.4 231.971L969.504 214.94L969.348 215.22L1000.39 232.33C1000.41 232.342 1000.44 232.35 1000.46 232.35" fill="black"/>
<path d="M1014.25 281.547C1014.27 281.547 1014.28 281.547 1014.29 281.542C1014.34 281.529 1014.38 281.5 1014.4 281.455L1027.07 254.896L1026.79 254.758L1014.2 281.146L992.05 265.05L991.862 265.308L1014.16 281.517C1014.19 281.537 1014.22 281.547 1014.25 281.547Z" fill="black"/>
<path d="M1006.98 255.575C1007.03 255.575 1007.08 255.545 1007.11 255.496L1024.72 224.696L1024.44 224.538L1006.91 255.218L982.701 246.072L982.587 246.371L1006.92 255.565C1006.94 255.572 1006.96 255.575 1006.98 255.575Z" fill="black"/>
<path d="M1045.38 404.307L1062.27 319.396H1003.93L1020.05 404.183L1045.38 404.307Z" fill="white"/>
<path d="M1045.84 404.865L1062.95 318.836H1003.25L1019.59 404.739L1045.84 404.865ZM1061.59 319.955L1044.93 403.744L1020.51 403.625L1004.61 319.955H1061.59Z" fill="black"/>
<path d="M1134.4 477.863L1148.93 470.118L1156.5 447.933L1124.36 440.237L1124.23 440.543L1114.18 463.417L1134.4 477.863ZM1148.28 469.561L1134.46 476.922L1115.18 463.143L1124.82 441.171L1155.45 448.507L1148.28 469.561Z" fill="#1C1C1C"/>
<path d="M1071.32 479.017L1071.35 486.034L1152.35 486.419V478.55L1071.32 479.017Z" fill="#1C1C1C"/>
<path d="M1071.24 481.416C1071.24 481.416 1070.13 465.098 1088.61 461.639C1107.08 458.179 1119.46 450.115 1119.46 450.115C1119.46 450.115 1125.12 461.177 1136.49 461.968C1149.4 462.866 1144.63 455.875 1153.26 456.482L1152.5 479.892L1071.24 481.416Z" fill="#1C1C1C"/>
<path d="M1071.24 481.416L1095.7 481.146L1096.44 459.771C1094.12 460.311 1091.31 461.132 1088.6 461.637C1070.13 465.098 1071.24 481.416 1071.24 481.416Z" fill="#FFBA00"/>
<path d="M1112.85 453.675C1113 453.557 1113.17 453.466 1113.36 453.412C1114.13 453.189 1114.93 453.632 1115.15 454.403L1118.11 464.619C1118.33 465.39 1117.89 466.195 1117.12 466.417C1116.35 466.639 1115.55 466.197 1115.32 465.426L1112.37 455.208C1112.2 454.629 1112.41 454.031 1112.85 453.675Z" fill="#FFBA00"/>
<path d="M1107.48 455.229C1107.63 455.113 1107.8 455.022 1107.99 454.965C1108.76 454.743 1109.56 455.188 1109.78 455.956L1112.74 466.175C1112.96 466.944 1112.52 467.749 1111.75 467.971C1110.98 468.195 1110.18 467.751 1109.95 466.982L1107 456.764C1106.83 456.185 1107.04 455.585 1107.48 455.229Z" fill="#FFBA00"/>
<path d="M1102.05 456.802C1102.19 456.685 1102.36 456.594 1102.56 456.539C1103.32 456.317 1104.13 456.759 1104.35 457.53L1107.31 467.749C1107.53 468.517 1107.09 469.322 1106.32 469.545C1105.55 469.767 1104.75 469.325 1104.52 468.554L1101.56 458.338C1101.4 457.757 1101.61 457.158 1102.05 456.802Z" fill="#FFBA00"/>
<path d="M1176.59 458.8C1176.59 458.8 1191.9 407.498 1212.95 347.059C1227.57 305.092 1292.64 325.701 1344.3 321.54C1390.26 317.837 1390.26 249.951 1390.26 249.951C1390.26 249.951 1186.29 246.399 1168.23 291.375C1157.02 319.299 1121.98 442.212 1121.98 442.212C1121.98 452.448 1153.87 452.448 1176.59 458.8Z" fill="white"/>
<path d="M1176.95 459.451L1177.1 458.952C1177.25 458.44 1192.65 406.967 1213.45 347.233C1215.93 340.126 1219.88 334.654 1225.54 330.507C1230.62 326.776 1237.01 324.189 1245.06 322.59C1260.15 319.592 1278.57 320.567 1298.06 321.599C1313.52 322.418 1329.51 323.264 1344.34 322.068C1354.96 321.211 1364.01 316.869 1371.25 309.154C1377.03 303.006 1381.66 294.72 1385.02 284.522C1390.72 267.208 1390.79 250.121 1390.79 249.951V249.431L1390.27 249.422C1389.76 249.413 1338.64 248.588 1285.97 253.271C1255.02 256.021 1229.6 260.108 1210.4 265.419C1186.28 272.09 1171.92 280.758 1167.74 291.178C1156.65 318.808 1121.82 440.838 1121.47 442.067L1121.45 442.139V442.212C1121.45 449.448 1135.6 451.757 1151.98 454.428C1160.26 455.78 1168.82 457.177 1176.45 459.31L1176.95 459.451ZM1270.06 319.533C1242.95 319.533 1220.38 324.105 1212.45 346.884C1192.73 403.504 1177.87 452.7 1176.23 458.152C1168.67 456.081 1160.28 454.711 1152.15 453.385C1136.97 450.906 1122.62 448.566 1122.51 442.284C1123.54 438.695 1157.76 318.876 1168.72 291.572C1172.78 281.474 1186.89 273.02 1210.68 266.439C1229.81 261.146 1255.17 257.071 1286.06 254.325C1335.8 249.901 1384.16 250.397 1389.72 250.472C1389.67 253.457 1389.11 268.748 1384.01 284.214C1380.69 294.257 1376.14 302.407 1370.47 308.44C1363.42 315.948 1354.6 320.179 1344.26 321.012C1329.49 322.202 1313.54 321.359 1298.12 320.542C1288.51 320.034 1279.04 319.533 1270.06 319.533Z" fill="#1C1C1C"/>
<path d="M1322.64 406.276L1303.42 388.966L1289.34 415.115L1310.17 435.831L1324.66 427.184L1322.64 406.276Z" fill="white"/>
<path d="M1310.11 436.334L1325.08 427.397L1323.03 406.083L1322.91 405.979L1303.31 388.327L1288.85 415.188L1289.06 415.399L1310.11 436.334ZM1324.23 426.969L1310.23 435.328L1289.84 415.041L1303.53 389.604L1322.26 406.469L1324.23 426.969Z" fill="#1C1C1C"/>
<path d="M1307.15 484.986L1313.48 488L1348.88 415.136L1341.79 411.732L1307.15 484.986Z" fill="#1C1C1C"/>
<path d="M1309.27 486.101C1309.27 486.101 1294.08 480.039 1298.96 461.884C1303.83 443.729 1301.91 429.086 1301.91 429.086C1301.91 429.086 1314.34 428.771 1319.97 418.856C1326.36 407.608 1316.95 411.071 1321.23 403.558L1343.06 412.178L1309.27 486.101Z" fill="#1C1C1C"/>
<path d="M1309.27 486.101L1319.62 463.93L1300.8 454.398C1300.28 456.727 1299.67 459.224 1298.96 461.884C1294.08 480.039 1309.27 486.101 1309.27 486.101Z" fill="#FFBA00"/>
<path d="M1302.27 436.581C1302.23 436.399 1302.22 436.207 1302.25 436.012C1302.38 435.22 1303.13 434.687 1303.92 434.819L1314.41 436.572C1315.2 436.705 1315.74 437.452 1315.6 438.243C1315.47 439.032 1314.72 439.567 1313.93 439.434L1303.44 437.681C1302.85 437.581 1302.4 437.134 1302.27 436.581Z" fill="#FFBA00"/>
<path d="M1301.34 442.096C1301.3 441.914 1301.29 441.722 1301.33 441.524C1301.46 440.735 1302.21 440.202 1303 440.334L1313.49 442.087C1314.28 442.218 1314.81 442.966 1314.68 443.758C1314.55 444.547 1313.8 445.082 1313.01 444.948L1302.52 443.196C1301.92 443.096 1301.47 442.647 1301.34 442.096Z" fill="#FFBA00"/>
<path d="M1300.41 447.675C1300.37 447.494 1300.36 447.301 1300.4 447.104C1300.53 446.314 1301.27 445.781 1302.06 445.913L1312.56 447.666C1313.35 447.8 1313.88 448.546 1313.75 449.337C1313.62 450.126 1312.87 450.662 1312.08 450.528L1301.59 448.775C1300.99 448.675 1300.54 448.228 1300.41 447.675Z" fill="#FFBA00"/>
<path d="M1201.95 272.746C1267.58 332.303 1309.97 392.379 1309.97 392.379C1310.74 405.414 1298.32 429.937 1279.38 442.512C1279.38 442.512 1214.15 365.845 1163.96 315.658C1159.04 308.009 1185.86 284.203 1201.95 272.746Z" fill="white"/>
<path d="M1300.15 418.388L1300.69 417.798C1300.08 417.236 1299.08 416.302 1297.74 415.052L1297.19 415.637C1298.53 416.889 1299.54 417.823 1300.15 418.388ZM1294.26 412.88L1294.81 412.297C1293.91 411.449 1292.93 410.526 1291.89 409.535L1291.34 410.115C1292.38 411.109 1293.36 412.031 1294.26 412.88ZM1288.43 407.342L1288.98 406.764C1288.05 405.877 1287.09 404.949 1286.08 403.983L1285.53 404.559C1286.53 405.525 1287.5 406.455 1288.43 407.342ZM1282.64 401.77L1283.19 401.194C1282.26 400.287 1281.3 399.355 1280.32 398.396L1279.76 398.969C1280.74 399.929 1281.7 400.863 1282.64 401.77ZM1276.89 396.162L1277.45 395.591C1276.51 394.67 1275.56 393.731 1274.59 392.774L1274.03 393.343C1275 394.303 1275.95 395.241 1276.89 396.162ZM1271.18 390.518L1271.75 389.949C1270.81 389.019 1269.86 388.073 1268.91 387.114L1268.34 387.681C1269.3 388.64 1270.25 389.586 1271.18 390.518ZM1265.52 384.833L1266.08 384.27C1265.15 383.329 1264.21 382.377 1263.27 381.415L1262.7 381.975C1263.64 382.939 1264.58 383.891 1265.52 384.833ZM1259.89 379.107L1260.47 378.549C1259.54 377.596 1258.61 376.637 1257.67 375.671L1257.1 376.227C1258.03 377.195 1258.96 378.154 1259.89 379.107ZM1254.32 373.335L1254.9 372.78C1253.97 371.818 1253.05 370.85 1252.13 369.879L1251.55 370.43C1252.47 371.403 1253.39 372.371 1254.32 373.335ZM1248.79 367.512L1249.38 366.963C1248.47 365.997 1247.55 365.01 1246.64 364.033L1246.05 364.58C1246.96 365.557 1247.89 366.543 1248.79 367.512ZM1243.32 361.623L1243.91 361.081C1243 360.09 1242.09 359.092 1241.21 358.121L1240.62 358.659C1241.5 359.631 1242.41 360.629 1243.32 361.623ZM1237.93 355.686L1238.53 355.15C1237.63 354.144 1236.73 353.134 1235.86 352.157L1235.26 352.688C1236.13 353.667 1237.03 354.677 1237.93 355.686ZM1232.62 349.669L1233.22 349.143C1232.33 348.121 1231.45 347.1 1230.61 346.109L1230 346.628C1230.85 347.622 1231.73 348.644 1232.62 349.669ZM1227.4 343.567L1228.01 343.052C1227.15 342.02 1226.29 340.982 1225.45 339.97L1224.84 340.478C1225.67 341.494 1226.53 342.533 1227.4 343.567ZM1222.3 337.36L1222.93 336.859C1222.08 335.8 1221.24 334.743 1220.44 333.718L1219.81 334.213C1220.61 335.238 1221.45 336.299 1222.3 337.36ZM1217.36 331.029L1218 330.544C1217.18 329.457 1216.37 328.378 1215.61 327.33L1214.96 327.804C1215.73 328.854 1216.53 329.938 1217.36 331.029ZM1212.63 324.532L1213.28 324.074C1212.49 322.944 1211.74 321.831 1211.03 320.763L1210.36 321.205C1211.07 322.278 1211.83 323.398 1212.63 324.532ZM1208.2 317.813L1208.88 317.393C1208.15 316.212 1207.47 315.055 1206.85 313.951L1206.15 314.341C1206.77 315.456 1207.46 316.624 1208.2 317.813ZM1204.27 310.771L1204.99 310.42C1204.37 309.15 1203.83 307.928 1203.38 306.785L1202.63 307.075C1203.09 308.241 1203.64 309.483 1204.27 310.771ZM1201.38 303.22L1202.16 303.027C1201.81 301.623 1201.64 300.333 1201.63 299.188H1200.83C1200.83 300.399 1201.02 301.755 1201.38 303.22ZM1202.58 295.643C1203.21 294.768 1204.18 293.938 1205.47 293.178L1205.06 292.489C1203.67 293.305 1202.62 294.21 1201.93 295.179L1202.58 295.643ZM1209.03 291.53C1210.16 291.113 1211.43 290.711 1212.82 290.342L1212.61 289.568C1211.2 289.945 1209.91 290.353 1208.75 290.779L1209.03 291.53ZM1216.7 289.439C1217.93 289.19 1219.25 288.951 1220.62 288.731L1220.5 287.94C1219.11 288.162 1217.78 288.403 1216.54 288.654L1216.7 289.439ZM1224.58 288.165C1225.85 288.004 1227.18 287.849 1228.55 287.711L1228.47 286.913C1227.1 287.053 1225.75 287.208 1224.48 287.371L1224.58 288.165ZM1308.55 287.96L1308.61 287.16C1307.35 287.078 1306 286.992 1304.6 286.908L1304.56 287.709C1305.95 287.793 1307.3 287.877 1308.55 287.96ZM1300.56 287.477L1300.6 286.679C1299.27 286.604 1297.92 286.534 1296.6 286.468L1296.56 287.269C1297.88 287.335 1299.22 287.405 1300.56 287.477ZM1232.53 287.344C1233.82 287.237 1235.16 287.137 1236.52 287.049L1236.47 286.251C1235.11 286.339 1233.76 286.439 1232.47 286.545L1232.53 287.344ZM1292.56 287.081L1292.59 286.28C1291.27 286.219 1289.92 286.162 1288.58 286.11L1288.55 286.91C1289.88 286.963 1291.23 287.019 1292.56 287.081ZM1240.52 286.817C1241.81 286.752 1243.16 286.691 1244.52 286.638L1244.48 285.838C1243.12 285.89 1241.77 285.951 1240.48 286.017L1240.52 286.817ZM1284.55 286.761L1284.58 285.96C1283.25 285.913 1281.9 285.87 1280.57 285.829L1280.55 286.632C1281.88 286.67 1283.22 286.713 1284.55 286.761ZM1311.83 286.595C1311.89 285.226 1312.06 283.915 1312.32 282.702L1311.54 282.532C1311.26 283.79 1311.09 285.146 1311.03 286.561L1311.83 286.595ZM1276.55 286.523L1276.56 285.722C1275.23 285.69 1273.88 285.661 1272.56 285.636L1272.54 286.437C1273.86 286.461 1275.21 286.491 1276.55 286.523ZM1248.52 286.505C1249.82 286.468 1251.17 286.437 1252.52 286.412L1252.51 285.611C1251.16 285.636 1249.8 285.668 1248.49 285.704L1248.52 286.505ZM1268.54 286.378L1268.55 285.575C1267.19 285.559 1265.84 285.548 1264.54 285.541L1264.53 286.341C1265.84 286.348 1267.18 286.359 1268.54 286.378ZM1256.53 286.357C1257.84 286.344 1259.19 286.337 1260.53 286.334V285.532C1259.18 285.536 1257.83 285.543 1256.52 285.554L1256.53 286.357ZM1313.57 279.008C1314.13 277.821 1314.83 276.722 1315.67 275.742L1315.05 275.225C1314.18 276.257 1313.43 277.416 1312.84 278.665L1313.57 279.008ZM1318.54 273.13C1319.57 272.411 1320.72 271.776 1321.97 271.243L1321.65 270.506C1320.35 271.061 1319.15 271.724 1318.08 272.474L1318.54 273.13ZM1345.41 270.08L1345.59 269.299C1345.52 269.286 1344 268.943 1341.59 268.644L1341.49 269.44C1343.86 269.733 1345.4 270.077 1345.41 270.08ZM1325.71 270.009C1326.93 269.708 1328.24 269.472 1329.6 269.306L1329.51 268.513C1328.11 268.68 1326.77 268.923 1325.52 269.231L1325.71 270.009ZM1337.53 269.086L1337.57 268.288C1336.62 268.236 1335.67 268.211 1334.75 268.211C1334.35 268.211 1333.94 268.215 1333.54 268.227L1333.56 269.027C1333.95 269.016 1334.35 269.011 1334.75 269.011C1335.66 269.011 1336.59 269.036 1337.53 269.086Z" fill="#1C1C1C"/>
<path d="M1207.41 362.035L1208.16 361.275C1175.85 329.199 1169.07 308.776 1169.07 297.292C1169.07 292.886 1170.08 289.795 1170.94 287.978C1171.86 286.012 1172.79 285.071 1172.8 285.062L1172.05 284.302C1171.89 284.463 1168.03 288.359 1168 297.208C1167.98 304.426 1170.51 312.771 1175.53 322.015C1182.06 334.052 1192.79 347.517 1207.41 362.035Z" fill="#1C1C1C"/>
<path d="M1279.28 443.263L1279.7 442.984C1298.33 430.611 1311.35 406.045 1310.54 392.346L1310.52 392.185L1310.43 392.053C1310.21 391.738 1287.81 360.128 1251.09 320.62L1250.26 321.391C1285.72 359.543 1307.79 390.305 1309.41 392.575C1309.74 399.004 1306.81 408.242 1301.58 417.336C1295.8 427.364 1287.97 436.017 1279.49 441.759C1275.9 437.552 1243.55 399.722 1208.22 361.289L1207.38 362.058C1244.65 402.605 1278.61 442.482 1278.95 442.879L1279.28 443.263Z" fill="#1C1C1C"/>
<path d="M1214.43 223.913L1176.77 218.194C1176.26 218.131 1172.76 211.96 1172.45 211.543C1172.45 211.543 1167.42 210.062 1161.56 208.336C1155.69 206.611 1142.48 212.318 1142.48 212.318C1141.47 212.588 1136.5 213.037 1136.77 214.049L1142.07 218.192C1148.52 220.657 1156.26 212.169 1171.12 225.095C1176.28 229.585 1217.27 224.106 1214.43 223.913Z" fill="#F7F8F9"/>
<path d="M1142.46 218.77C1144.48 219.364 1146.59 219.035 1148.99 218.658C1154.31 217.826 1160.93 216.792 1170.84 225.412C1172.06 226.473 1175 227.069 1179.82 227.235C1183.64 227.364 1188.52 227.215 1194.32 226.793C1203.93 226.092 1214.09 224.747 1214.76 224.332C1214.94 224.226 1215.02 224.035 1214.98 223.847C1214.92 223.636 1214.76 223.516 1214.47 223.493L1176.91 217.788C1176.4 217.334 1174.39 213.944 1173.61 212.647C1173.12 211.817 1172.88 211.413 1172.79 211.291L1172.7 211.177L1161.67 207.93C1155.82 206.206 1143.21 211.542 1142.34 211.919C1142.1 211.978 1141.64 212.05 1141.1 212.137C1138.75 212.508 1136.92 212.851 1136.46 213.561C1136.34 213.744 1136.3 213.951 1136.36 214.157L1136.39 214.293L1141.86 218.563L1141.92 218.586C1142.1 218.654 1142.28 218.715 1142.46 218.77ZM1160.08 218.092C1159.5 217.919 1158.91 217.776 1158.33 217.661C1154.64 216.921 1151.57 217.402 1148.86 217.826C1146.38 218.212 1144.24 218.547 1142.28 217.819L1137.29 213.919C1137.45 213.817 1137.81 213.647 1138.62 213.452C1139.45 213.252 1140.44 213.096 1141.23 212.969C1141.84 212.874 1142.32 212.799 1142.58 212.726L1142.64 212.706C1142.77 212.649 1155.78 207.077 1161.44 208.739L1172.18 211.903C1172.32 212.118 1172.6 212.588 1172.89 213.078C1175.97 218.266 1176.33 218.563 1176.71 218.613L1212.22 224.006C1208.84 224.534 1201.85 225.405 1194.03 225.967C1176.94 227.196 1172.51 225.747 1171.39 224.777C1167.48 221.375 1163.77 219.176 1160.08 218.092Z" fill="#1C1C1C"/>
<path d="M1184.08 232.616L1184.08 232.617C1216.35 236.8 1241.48 228.564 1258.64 213.707C1275.8 198.843 1285.03 177.316 1285.42 154.85L1285.42 154.85C1285.54 148.069 1283.43 139.555 1280.48 133.457C1279.01 130.4 1277.35 128.012 1275.72 126.738C1274.9 126.104 1274.12 125.772 1273.4 125.735C1272.69 125.699 1271.97 125.942 1271.24 126.583L1271.24 126.583C1264.76 132.287 1259.33 141.48 1253.8 151.85C1252.65 154.014 1251.49 156.229 1250.32 158.471C1245.89 166.94 1241.25 175.804 1235.85 183.835C1229.02 193.998 1220.94 202.888 1210.42 208.019C1199.95 213.129 1187.13 214.484 1170.85 209.75C1166.34 213.999 1164.99 217.475 1165.31 220.265C1165.65 223.111 1167.75 225.443 1170.55 227.308C1173.33 229.165 1176.71 230.495 1179.42 231.362C1180.77 231.794 1181.94 232.109 1182.77 232.316C1183.19 232.42 1183.52 232.496 1183.75 232.546C1183.86 232.571 1183.95 232.59 1184.01 232.602L1184.08 232.616Z" fill="#F8DB87" stroke="#1C1C1C"/>
<path d="M1292.22 248.68C1292.2 248.722 1292.19 248.762 1292.17 248.799C1306.2 260.053 1326.03 267.287 1344.82 269.304C1363.68 271.328 1381.34 268.085 1391.06 258.571C1391.99 239.115 1389.63 212.025 1380.38 186.603C1371.11 161.098 1354.92 137.32 1328.19 124.566L1328.41 124.115L1328.19 124.566C1314.5 118.034 1300.29 116.999 1289.11 118.94C1283.51 119.911 1278.69 121.623 1275.08 123.749C1271.45 125.883 1269.1 128.396 1268.33 130.936C1265.27 141.003 1264.31 155.687 1267.18 167.558C1268.61 173.492 1270.99 178.676 1274.5 182.235C1277.99 185.777 1282.62 187.738 1288.66 187.204L1288.9 187.182L1289.06 187.356C1299.18 197.91 1299.87 213.427 1298.09 226.183C1297.2 232.577 1295.69 238.314 1294.4 242.453C1293.75 244.522 1293.16 246.194 1292.73 247.349C1292.52 247.926 1292.34 248.375 1292.22 248.68Z" fill="#F8DB87" stroke="#1C1C1C"/>
<path d="M1283.69 30.7038C1279.98 32.3705 1278.16 36.5114 1279.3 40.303C1279.28 40.3121 1279.26 40.3211 1279.24 40.3302C1274.04 42.6637 1271.31 48.215 1272.32 53.5737C1271.65 53.7437 1270.98 53.9705 1270.33 54.2653C1264.25 56.9956 1261.54 64.1389 1264.27 70.2187C1264.79 71.3707 1265.46 72.4025 1266.26 73.3005C1266.1 75.2711 1266.41 77.3098 1267.28 79.2419C1270.01 85.3216 1277.15 88.0361 1283.23 85.3057C1285.95 84.0834 1287.99 81.979 1289.18 79.4823C1289.38 79.4052 1289.57 79.3258 1289.76 79.2396C1295.84 76.5093 1298.56 69.366 1295.83 63.2863C1295.16 61.7986 1294.23 60.5128 1293.11 59.4584C1296.24 56.0137 1297.22 50.9114 1295.19 46.3941C1294.65 45.1877 1293.93 44.1173 1293.08 43.1921C1295.01 40.9107 1295.59 37.6362 1294.28 34.729C1292.47 30.6947 1287.73 28.8919 1283.69 30.706" fill="#1C1C1C"/>
<path d="M1266.52 91.7683C1268.89 97.0453 1274.4 99.7302 1278.81 97.7505C1279.13 97.6054 1279.44 97.4376 1279.74 97.2494C1283.43 94.9046 1284.69 89.4802 1282.49 84.591C1280.12 79.314 1274.61 76.6291 1270.21 78.6088C1268.09 79.5612 1266.54 81.4434 1265.83 83.9084C1265.12 86.4052 1265.37 89.1967 1266.52 91.7683Z" fill="#F8DB87"/>
<path d="M1259 103.248C1262.07 110.083 1270.1 113.133 1276.93 110.063C1283.77 106.992 1286.82 98.9648 1283.75 92.1299C1280.68 85.295 1272.65 82.2449 1265.82 85.3154C1258.98 88.3859 1255.93 96.4136 1259 103.248Z" fill="#1C1C1C"/>
<path d="M1289.27 119.626L1281.39 103.478L1271.52 116.426L1275.38 124.522C1275.38 124.522 1268.8 151.993 1275.89 151.834C1282.98 151.673 1290.5 124.928 1289.27 119.626Z" fill="white"/>
<path d="M1276.59 152.165C1277.85 151.875 1279.15 150.875 1280.46 149.183C1282.96 145.959 1285.54 140.176 1287.54 133.321C1289.32 127.216 1290.18 121.674 1289.68 119.531L1289.67 119.483L1289.65 119.44L1281.47 102.677L1271.03 116.374L1274.94 124.567C1274.73 125.474 1273.58 130.475 1272.84 135.894C1271.73 143.992 1272.01 149.14 1273.67 151.195C1274.25 151.916 1275 152.272 1275.9 152.254C1276.13 152.247 1276.36 152.217 1276.59 152.163M1288.87 119.764C1289.31 121.785 1288.43 127.241 1286.73 133.082C1284.76 139.84 1282.24 145.519 1279.79 148.664C1278.4 150.458 1277.08 151.381 1275.88 151.408C1275.25 151.424 1274.74 151.179 1274.33 150.664C1272.84 148.825 1272.62 143.761 1273.68 136.015C1274.49 130.091 1275.78 124.669 1275.79 124.617L1275.83 124.472L1272.01 116.474L1281.31 104.276L1288.87 119.764Z" fill="#1C1C1C"/>
<path d="M1265.69 93.4849C1269.68 91.7161 1274 92.1605 1277.51 95.9181C1279.07 95.4034 1281.04 96.6461 1282 98.814C1282.82 100.669 1282.65 102.617 1281.68 103.651C1283.23 109.79 1281.04 117.099 1276.36 119.176C1270.93 121.58 1264.28 116.464 1261.04 109.468C1256.13 98.8457 1260.27 95.8886 1265.69 93.4849Z" fill="white"/>
<path d="M1275.21 120.001C1275.66 119.897 1276.1 119.75 1276.53 119.562C1278.87 118.525 1280.72 116.219 1281.76 113.067C1282.72 110.146 1282.86 106.767 1282.14 103.76C1283.12 102.542 1283.22 100.524 1282.39 98.6419C1281.38 96.3809 1279.39 95.0566 1277.64 95.4444C1275.93 93.6801 1273.99 92.5939 1271.86 92.2129C1269.8 91.8478 1267.67 92.1449 1265.52 93.0973C1262.9 94.2561 1260.02 95.7414 1258.91 98.6827C1257.91 101.347 1258.48 104.932 1260.66 109.645C1262.3 113.191 1264.85 116.307 1267.64 118.196C1270.21 119.931 1272.85 120.55 1275.21 120.001ZM1277.8 96.2721C1279.14 95.9614 1280.79 97.1157 1281.62 98.982C1282.35 100.628 1282.25 102.429 1281.38 103.361L1281.22 103.529L1281.27 103.751C1282.01 106.66 1281.89 109.96 1280.96 112.801C1280 115.725 1278.3 117.849 1276.19 118.788C1273.79 119.849 1270.93 119.391 1268.12 117.496C1265.44 115.691 1263 112.699 1261.43 109.289C1259.35 104.792 1258.78 101.42 1259.7 98.9797C1260.6 96.6077 1262.81 95.2221 1265.86 93.8683C1270.04 92.0156 1274.07 92.8456 1277.2 96.2041L1277.38 96.4014L1277.64 96.3174C1277.69 96.2993 1277.75 96.2834 1277.8 96.2721Z" fill="#1C1C1C"/>
<path d="M1265.1 97.2953C1266.63 100.713 1270.65 102.239 1274.06 100.704C1277.48 99.1684 1279 95.1546 1277.47 91.7372C1275.93 88.3197 1271.92 86.7935 1268.5 88.3288C1265.09 89.864 1263.56 93.8779 1265.1 97.2953Z" fill="#1C1C1C"/>
<path d="M1268.45 106.871C1268.56 107.54 1268.11 108.175 1267.44 108.289C1266.77 108.402 1266.13 107.951 1266.02 107.28C1265.91 106.611 1266.36 105.976 1267.03 105.865C1267.7 105.751 1268.33 106.203 1268.45 106.874" fill="#1C1C1C"/>
<path d="M1272.98 112.516C1272.12 115.324 1270.25 116.412 1268.16 116.523L1272.98 112.516Z" fill="white"/>
<path d="M1269.3 116.79C1270.86 116.427 1272.55 115.359 1273.38 112.64C1273.45 112.418 1273.33 112.182 1273.1 112.114C1272.88 112.046 1272.64 112.171 1272.58 112.395C1271.86 114.738 1270.37 115.985 1268.14 116.103C1267.91 116.115 1267.73 116.314 1267.74 116.548C1267.75 116.781 1267.95 116.958 1268.18 116.947C1268.54 116.929 1268.91 116.881 1269.3 116.793" fill="#1C1C1C"/>
<path d="M1266.97 103.423C1266.97 103.423 1264.38 104.657 1263.79 106.614L1266.97 103.423Z" fill="white"/>
<path d="M1263.88 107.023C1264.02 106.989 1264.14 106.885 1264.19 106.735C1264.72 104.982 1267.13 103.814 1267.15 103.803C1267.36 103.703 1267.45 103.451 1267.35 103.241C1267.25 103.03 1267 102.941 1266.79 103.041C1266.67 103.095 1264.02 104.379 1263.38 106.49C1263.31 106.712 1263.44 106.948 1263.66 107.016C1263.73 107.039 1263.81 107.039 1263.88 107.023Z" fill="#1C1C1C"/>
<path d="M1263.1 108.035C1263.1 108.035 1265.51 114.024 1266.32 114.062C1267.14 114.103 1268 113.672 1268 113.672" fill="white"/>
<path d="M1267.22 114.389C1267.75 114.264 1268.17 114.063 1268.19 114.049C1268.4 113.945 1268.49 113.693 1268.38 113.484C1268.28 113.276 1268.03 113.19 1267.82 113.294C1267.81 113.296 1267.07 113.657 1266.39 113.643C1266 113.364 1264.8 111.121 1263.49 107.876C1263.41 107.661 1263.16 107.554 1262.95 107.643C1262.73 107.729 1262.62 107.976 1262.71 108.192C1262.72 108.207 1263.32 109.718 1264.02 111.212C1265.42 114.196 1265.91 114.464 1266.3 114.484C1266.61 114.5 1266.93 114.455 1267.22 114.389Z" fill="#1C1C1C"/>
<path d="M1267.23 110.774C1269.52 110.774 1271.39 108.908 1271.39 106.613C1271.39 104.318 1269.52 102.452 1267.23 102.452C1264.94 102.452 1263.07 104.318 1263.07 106.613C1263.07 108.908 1264.94 110.774 1267.23 110.774ZM1267.23 102.939C1269.26 102.939 1270.91 104.588 1270.91 106.613C1270.91 108.638 1269.26 110.287 1267.23 110.287C1265.21 110.287 1263.56 108.638 1263.56 106.613C1263.56 104.588 1265.21 102.939 1267.23 102.939Z" fill="#1C1C1C"/>
<path d="M1259.84 113.951C1261.82 113.951 1263.44 112.336 1263.44 110.354C1263.44 108.372 1261.82 106.758 1259.84 106.758C1257.86 106.758 1256.24 108.372 1256.24 110.354C1256.24 112.336 1257.85 113.951 1259.84 113.951ZM1259.84 107.243C1261.55 107.243 1262.95 108.638 1262.95 110.354C1262.95 112.071 1261.55 113.466 1259.84 113.466C1258.12 113.466 1256.73 112.071 1256.73 110.354C1256.73 108.638 1258.12 107.243 1259.84 107.243Z" fill="#1C1C1C"/>
<path d="M1270.75 104.448L1276.54 98.5748L1276.19 98.2324L1270.4 104.106L1270.75 104.448Z" fill="#1C1C1C"/>
<path d="M1262.9 108.346L1263.85 107.171L1263.47 106.863L1262.52 108.038L1262.9 108.346Z" fill="#1C1C1C"/>
<path d="M1360.75 262.647C1360.76 261.293 1360.74 259.869 1360.71 258.413L1359.87 258.429C1359.9 259.881 1359.91 261.3 1359.91 262.645H1360.75M1360.59 254.182C1360.53 252.78 1360.47 251.359 1360.39 249.957L1359.55 250.005C1359.62 251.402 1359.69 252.819 1359.74 254.216L1360.59 254.182ZM1360.11 245.735C1360.01 244.329 1359.89 242.909 1359.76 241.519L1358.92 241.598C1359.05 242.982 1359.17 244.394 1359.27 245.798L1360.11 245.735ZM1359.34 237.31C1359.18 235.902 1359.01 234.489 1358.83 233.11L1357.99 233.221C1358.17 234.593 1358.34 235.999 1358.5 237.405L1359.34 237.31ZM1358.23 228.922C1358.01 227.516 1357.78 226.112 1357.53 224.747L1356.7 224.897C1356.94 226.253 1357.18 227.652 1357.39 229.051L1358.23 228.922ZM1356.74 220.59C1356.48 219.318 1356.2 218.053 1355.91 216.826L1355.83 216.454L1355.01 216.647L1355.09 217.016C1355.38 218.236 1355.65 219.495 1355.91 220.76L1356.74 220.59ZM1353.98 212.567L1354.8 212.347C1354.52 211.299 1354.22 210.256 1353.92 209.247C1353.83 208.925 1353.73 208.601 1353.63 208.279L1352.82 208.526C1352.92 208.846 1353.02 209.168 1353.11 209.488C1353.41 210.49 1353.7 211.526 1353.98 212.567ZM1351.53 204.519L1352.33 204.247C1351.88 202.948 1351.41 201.605 1350.91 200.258L1350.12 200.551C1350.61 201.891 1351.09 203.226 1351.53 204.519ZM1348.61 196.616L1349.39 196.305C1348.88 195.024 1348.34 193.707 1347.79 192.391L1347.01 192.718C1347.56 194.031 1348.1 195.342 1348.61 196.616ZM1345.33 188.851L1346.1 188.509C1345.54 187.246 1344.95 185.949 1344.35 184.656L1343.59 185.012C1344.19 186.3 1344.77 187.593 1345.33 188.851ZM1341.78 181.205L1342.53 180.835C1341.93 179.588 1341.3 178.311 1340.66 177.043L1339.91 177.422C1340.54 178.688 1341.17 179.96 1341.78 181.205ZM1337.98 173.669L1338.73 173.279C1338.09 172.039 1337.42 170.782 1336.75 169.542L1336.01 169.941C1336.68 171.179 1337.34 172.433 1337.98 173.669ZM1333.98 166.24L1334.72 165.83C1334.04 164.594 1333.33 163.353 1332.64 162.147L1331.91 162.566C1332.6 163.771 1333.3 165.006 1333.98 166.24ZM1329.78 158.92L1330.51 158.489C1329.15 156.199 1328.31 154.872 1328.31 154.858L1327.59 155.31C1327.6 155.321 1328.43 156.641 1329.78 158.92Z" fill="#1C1C1C"/>
<path d="M1141.01 222.35L1225.87 222.615L1225.74 217.034L1143.41 217.012L1141.01 222.35Z" fill="#F7F8F9"/>
<path d="M1140.36 222.772L1226.3 223.039L1226.15 216.613L1143.14 216.59L1140.36 222.772ZM1225.44 222.193L1141.66 221.93L1143.68 217.433L1225.32 217.456L1225.44 222.193Z" fill="#1C1C1C"/>
<path d="M1115.4 130.755L1140.88 222.536L1143.41 217.012L1120.65 130.843L1115.4 130.755Z" fill="#F7F8F9"/>
<path d="M1140.79 223.764L1143.86 217.051L1143.82 216.904L1120.97 130.429L1114.85 130.325L1140.79 223.764ZM1142.97 216.974L1140.98 221.31L1115.96 131.186L1120.32 131.259L1142.97 216.972V216.974Z" fill="#1C1C1C"/>
<path d="M1081.81 133.177L1106.62 220.033L1141.01 222.35L1116.74 130.803L1081.81 133.177Z" fill="#F7F8F9"/>
<path d="M1106.85 222.351L1141.57 222.813L1141.42 222.244L1117.06 130.359L1081.26 132.792L1081.4 133.293L1106.85 222.351ZM1140.46 221.891L1107.42 221.31L1082.36 133.563L1116.42 131.248L1140.46 221.891Z" fill="#1C1C1C"/>
<path d="M1106.06 176.044C1106.63 179.671 1108.79 182.342 1110.9 182.011C1113.01 181.682 1114.26 178.478 1113.69 174.852C1113.13 171.228 1110.96 168.556 1108.85 168.885C1106.74 169.216 1105.49 172.421 1106.06 176.044Z" fill="#F7F8F9"/>
<path d="M1110.34 182.453C1110.55 182.468 1110.76 182.462 1110.97 182.428C1112.14 182.244 1113.11 181.319 1113.7 179.82C1114.25 178.4 1114.4 176.613 1114.11 174.788C1113.5 170.874 1111.16 168.098 1108.79 168.468C1106.41 168.839 1105.03 172.196 1105.64 176.11C1105.93 177.935 1106.61 179.593 1107.57 180.777C1108.41 181.804 1109.37 182.382 1110.34 182.453ZM1109.34 169.286C1111.06 169.411 1112.8 171.84 1113.28 174.917C1113.54 176.597 1113.41 178.23 1112.91 179.514C1112.44 180.72 1111.7 181.459 1110.84 181.595C1109.97 181.729 1109.05 181.251 1108.23 180.244C1107.36 179.176 1106.74 177.661 1106.48 175.98C1105.96 172.649 1107.07 169.59 1108.92 169.302C1109.06 169.279 1109.2 169.275 1109.34 169.286Z" fill="#1C1C1C"/>
<path d="M1252.19 323.511H1370.67V336.496H1252.19V323.511Z" fill="#1C1C1C"/>
<path d="M28.9995 325.511H147.476V338.496H28.9995V325.511Z" fill="#1C1C1C"/>
<path d="M1227.34 486.677L1256.86 336.105L1254.84 335.806L1225.33 486.377L1227.34 486.677Z" fill="#1C1C1C"/>
<path d="M1404.57 487.999L1406.57 487.632L1369.67 335.772L1367.66 336.14L1404.57 487.999Z" fill="#1C1C1C"/>
<path d="M1368.84 336.993C1369.21 336.929 1377.84 335.389 1386.62 330.661C1391.82 327.863 1395.97 324.525 1398.95 320.742C1402.72 315.967 1404.63 310.479 1404.63 304.435V194.506H1402.58V304.435C1402.58 309.998 1400.83 315.053 1397.36 319.452C1394.56 323.012 1390.63 326.169 1385.69 328.834C1377.2 333.417 1368.58 334.961 1368.49 334.977L1368.84 336.993Z" fill="#1C1C1C"/>
<path d="M1232.86 453.174H1397.37V454.954H1232.86V453.174Z" fill="#1C1C1C"/>
<path d="M1039.51 222.738H1264V235.365H1039.51V222.738Z" fill="white"/>
<path d="M1264.52 222.226H1039V235.878H1264.52V222.226ZM1263.49 234.853H1040.02V223.251H1263.49V234.853Z" fill="#1C1C1C"/>
<path d="M1243.3 235.537H1248.79V487.528H1243.3V235.537Z" fill="white"/>
<path d="M1242.79 487.999H1249.3V235.537H1248.27V487.056H1243.82V235.537H1242.79V487.999Z" fill="#1C1C1C"/>
<path d="M1051.75 235.537H1056.41V487.528H1051.75V235.537Z" fill="white"/>
<path d="M1051.24 487.999H1056.92V235.537H1055.9V487.056H1052.26V235.537H1051.24V487.999Z" fill="#1C1C1C"/>
<path d="M1264.55 219.794C1264.55 219.794 1217.47 219.713 1214.78 219.536C1212.1 219.359 1203.78 210.261 1203.78 210.261C1201.66 207.837 1198.16 207.163 1195.28 208.628L1177.91 215.418C1176.42 216 1175.68 217.683 1176.26 219.178L1178.6 225.192C1179.16 226.632 1180.88 227.223 1182.21 226.434L1185.11 224.711L1194.43 225.269C1197.19 225.956 1200.62 233.138 1208.79 233.675C1216.97 234.215 1289.74 236.074 1289.74 236.074C1292.73 236.167 1267.96 219.64 1264.55 219.794Z" fill="#F7F8F9"/>
<path d="M1208.76 234.08C1216.86 234.613 1289 236.461 1289.73 236.479C1290.08 236.49 1290.24 236.336 1290.32 236.205C1290.43 236.01 1290.41 235.778 1290.26 235.518C1289.43 234.143 1283.36 229.869 1278.07 226.479C1275.45 224.794 1266.72 219.308 1264.54 219.39C1263.67 219.39 1217.43 219.308 1214.81 219.133C1212.74 218.997 1206.36 212.487 1204.08 209.99C1201.84 207.434 1198.15 206.722 1195.12 208.26L1177.77 215.042C1176.07 215.705 1175.22 217.628 1175.89 219.326L1178.23 225.34C1178.54 226.136 1179.18 226.753 1179.99 227.032C1180.79 227.311 1181.68 227.22 1182.42 226.782L1185.21 225.122L1194.37 225.671C1195.2 225.898 1196.21 226.882 1197.38 228.016C1199.85 230.422 1203.23 233.717 1208.76 234.08ZM1289.35 235.66C1283.5 235.511 1216.58 233.785 1208.82 233.273C1203.59 232.93 1200.32 229.755 1197.94 227.438C1196.62 226.154 1195.58 225.138 1194.53 224.878L1194.49 224.868H1194.45L1185.01 224.299L1182 226.088C1181.47 226.404 1180.83 226.469 1180.25 226.268C1179.67 226.066 1179.2 225.621 1178.98 225.045L1176.64 219.031C1176.14 217.748 1176.78 216.296 1178.06 215.795L1195.45 208.999L1195.46 208.99C1198.18 207.609 1201.47 208.242 1203.48 210.53C1204.35 211.48 1211.99 219.759 1214.75 219.941C1217.42 220.118 1262.62 220.195 1264.55 220.199H1264.56C1265.84 220.143 1271.23 223.027 1277.98 227.377C1280.94 229.288 1283.76 231.223 1285.92 232.824C1288.11 234.445 1288.99 235.266 1289.35 235.66Z" fill="#1C1C1C"/>
<path d="M1176.45 220.33L1191.12 215.223L1190.85 214.459L1176.19 219.568L1176.45 220.33Z" fill="#1C1C1C"/>
<path d="M1191.8 220.967L1183.45 220.418L1177.99 223.622" fill="#F7F8F9"/>
<path d="M1178.2 223.97L1183.55 220.832L1191.77 221.371L1191.83 220.564L1183.36 220.006L1177.79 223.274L1178.2 223.97Z" fill="#1C1C1C"/>
<path d="M1215.94 219.573C1201.93 239.932 1214.08 247.751 1214.08 247.751C1243.71 261.9 1280.47 262.77 1299.33 253.359C1336.63 234.744 1356.75 145.654 1313.59 124.821C1292.95 114.859 1306.29 178.718 1275.83 210.547C1264.71 222.172 1241.61 221.174 1215.94 219.573Z" fill="#F8DB87"/>
<path d="M1226.09 220.818C1236.92 221.528 1245.27 221.408 1252.42 220.469C1264.05 218.943 1272.43 215.162 1278.03 208.915C1282.6 203.824 1286.39 197.293 1289.3 189.508C1291.62 183.29 1293.39 176.262 1294.56 168.615C1296.54 155.608 1296.08 145.169 1296.07 145.067L1295.27 145.104C1295.27 145.208 1295.73 155.578 1293.76 168.511C1292.6 176.099 1290.84 183.07 1288.54 189.231C1285.67 196.919 1281.93 203.359 1277.43 208.375C1271.96 214.473 1263.75 218.167 1252.32 219.666C1243.13 220.872 1231.92 220.718 1215.98 219.169L1215.9 219.974C1219.53 220.328 1222.92 220.607 1226.09 220.818Z" fill="#1C1C1C"/>
<path d="M1291.11 257.235C1303.05 252.305 1313.12 243.946 1321.06 232.39C1327.39 223.16 1332.38 211.881 1335.88 198.866C1338.99 187.299 1340.33 176.468 1340.91 169.42C1341.53 161.782 1341.42 156.807 1341.42 156.759L1340.61 156.777C1340.61 156.975 1341.03 176.647 1335.1 198.676C1331.61 211.597 1326.67 222.788 1320.38 231.941C1312.54 243.361 1302.59 251.62 1290.8 256.486L1291.11 257.235Z" fill="#1C1C1C"/>
<path d="M388.31 307C388.31 307 480.256 235.188 454.063 200.915C427.868 166.643 388.31 307 388.31 307Z" fill="#E0EBA5"/>
<path d="M388.309 307.399C388.396 307.399 388.483 307.372 388.554 307.315C388.785 307.134 411.796 289.086 431.305 267.074C442.779 254.13 450.819 242.367 455.206 232.106C460.723 219.189 460.446 208.612 454.379 200.673C451.064 196.336 447.339 194.529 443.309 195.299C437.477 196.413 430.936 203.01 423.867 214.899C418.247 224.348 412.264 237.166 406.08 252.996C395.557 279.932 388 306.627 387.926 306.892C387.879 307.057 387.943 307.236 388.086 307.332C388.153 307.377 388.233 307.399 388.309 307.399ZM445.076 195.927C448.178 195.927 451.086 197.68 453.743 201.158C459.624 208.852 459.869 219.159 454.47 231.794C450.121 241.976 442.125 253.667 430.709 266.547C413.527 285.932 393.622 302.235 389.037 305.914C390.626 300.426 397.58 276.949 406.826 253.283C412.992 237.495 418.958 224.719 424.552 215.308C431.501 203.624 437.86 197.155 443.457 196.083C444.004 195.979 444.544 195.927 445.076 195.927Z" fill="#1C1C1C"/>
<path d="M388.448 307.082L452.148 198.689L451.874 198.529L388.171 306.918L388.448 307.082Z" fill="#1C1C1C"/>
<path d="M433.85 229.673C433.868 229.673 433.885 229.67 433.9 229.665L458.238 221.387L458.134 221.085L433.979 229.301L430.607 205.78L430.291 205.824L433.692 229.536C433.699 229.583 433.726 229.625 433.766 229.65C433.791 229.665 433.821 229.673 433.85 229.673Z" fill="#1C1C1C"/>
<path d="M418.948 255.026C418.963 255.026 418.975 255.026 418.99 255.021L446.066 247.862L445.985 247.553L419.084 254.664L416.143 230.769L415.826 230.809L418.789 254.887C418.797 254.934 418.822 254.974 418.859 255.001C418.886 255.018 418.918 255.028 418.948 255.028" fill="#1C1C1C"/>
<path d="M404.141 280.221C404.159 280.221 404.173 280.221 404.188 280.213L424.586 274L424.494 273.695L404.295 279.849L403.659 260.887L403.339 260.897L403.983 280.067C403.985 280.117 404.01 280.164 404.05 280.191C404.077 280.211 404.109 280.221 404.141 280.221Z" fill="#1C1C1C"/>
<path d="M388.903 311.097C388.903 311.097 403.702 143.505 345.979 143.399C278.999 143.275 388.903 311.095 388.903 311.095" fill="#E0EBA5"/>
<path d="M388.906 311.496C388.938 311.496 388.97 311.491 389.002 311.484C389.168 311.441 389.289 311.3 389.304 311.132C389.331 310.828 391.985 280.179 390.604 245.55C389.792 225.202 387.764 207.48 384.581 192.873C380.593 174.572 374.758 161.123 367.243 152.899C361.255 146.344 354.101 143.015 345.984 143C345.959 143 345.932 143 345.91 143C336.706 143 330.314 146.191 326.906 152.483C322.507 160.605 323.032 174.03 328.465 192.383C332.795 207.005 340.236 224.794 350.578 245.258C368.179 280.083 388.371 311.006 388.571 311.313C388.648 311.427 388.774 311.493 388.906 311.493M345.91 143.797C345.934 143.797 345.957 143.797 345.981 143.797C353.868 143.812 360.822 147.055 366.654 153.434C374.073 161.553 379.843 174.879 383.801 193.041C386.975 207.604 388.995 225.281 389.807 245.58C391.034 276.355 389.069 303.975 388.604 309.894C385.034 304.357 367.112 276.201 351.289 244.892C340.966 224.472 333.547 206.728 329.23 192.152C323.858 174.01 323.311 160.791 327.606 152.862C330.866 146.847 337.023 143.795 345.91 143.795V143.797Z" fill="#1C1C1C"/>
<path d="M388.752 311.139L389.059 311.053L342.01 143.233L341.703 143.317L388.752 311.139Z" fill="#1C1C1C"/>
<path d="M355.271 191.282C355.285 191.282 355.3 191.282 355.315 191.274C355.36 191.262 355.397 191.227 355.417 191.185L370.076 157.888L369.784 157.759L355.199 190.883L324.429 170.713L324.256 170.981L355.181 191.254C355.209 191.272 355.238 191.279 355.271 191.279" fill="#1C1C1C"/>
<path d="M363.421 220.347C363.436 220.347 363.451 220.347 363.466 220.34C363.508 220.327 363.54 220.3 363.562 220.263L381.975 185.649L381.692 185.5L363.354 219.971L332.461 202.94L332.305 203.22L363.342 220.33C363.367 220.342 363.394 220.35 363.421 220.35" fill="#1C1C1C"/>
<path d="M377.211 269.547C377.226 269.547 377.238 269.547 377.251 269.542C377.298 269.53 377.335 269.5 377.357 269.455L390.031 242.896L389.744 242.758L377.152 269.146L355.006 253.051L354.818 253.308L377.119 269.517C377.147 269.537 377.179 269.547 377.211 269.547Z" fill="#1C1C1C"/>
<path d="M369.93 243.575C369.987 243.575 370.039 243.545 370.068 243.496L387.674 212.696L387.397 212.538L369.861 243.218L345.656 234.072L345.542 234.371L369.873 243.565C369.893 243.572 369.913 243.575 369.93 243.575Z" fill="#1C1C1C"/>
<path d="M390.07 309.167C390.07 309.167 346.059 223.138 326.323 246.81C303.135 274.624 390.07 309.167 390.07 309.167Z" fill="#E0EBA5"/>
<path d="M390.069 309.565C390.181 309.565 390.287 309.52 390.364 309.433C390.478 309.312 390.5 309.131 390.426 308.983C390.344 308.825 382.106 292.779 371.323 276.646C364.985 267.163 359.02 259.501 353.594 253.877C346.764 246.797 340.746 242.923 335.708 242.361C331.946 241.941 328.686 243.352 326.015 246.555C322.388 250.907 321.207 255.697 322.502 260.796C323.928 266.403 328.374 272.458 335.723 278.792C341.57 283.835 349.264 289.073 358.591 294.363C374.457 303.361 389.77 309.476 389.923 309.537C389.97 309.555 390.02 309.565 390.069 309.565ZM334.448 243.089C334.832 243.089 335.223 243.111 335.622 243.156C340.466 243.696 346.321 247.488 353.017 254.429C358.411 260.019 364.347 267.643 370.657 277.084C379.903 290.92 387.274 304.688 389.213 308.386C385.559 306.876 372.469 301.317 358.978 293.662C349.697 288.397 342.046 283.189 336.241 278.183C329.02 271.958 324.658 266.041 323.277 260.598C322.047 255.761 323.175 251.209 326.629 247.065C328.832 244.421 331.458 243.089 334.448 243.089Z" fill="#1C1C1C"/>
<path d="M389.962 309.282L390.18 309.05L324.986 247.924L324.769 248.156L389.962 309.282Z" fill="#1C1C1C"/>
<path d="M343.12 265.511C343.164 265.511 343.204 265.494 343.236 265.462C343.268 265.427 343.283 265.38 343.278 265.333L340.996 244.329L340.679 244.364L342.942 265.177L324.017 263.717L323.992 264.036L343.108 265.511C343.108 265.511 343.117 265.511 343.12 265.511Z" fill="#1C1C1C"/>
<path d="M358.484 279.847C358.526 279.847 358.566 279.83 358.595 279.8C358.627 279.768 358.645 279.726 358.642 279.681L357.865 259.685L357.546 259.697L358.318 279.518L336.126 278.441L336.111 278.76L358.476 279.847C358.476 279.847 358.481 279.847 358.484 279.847Z" fill="#1C1C1C"/>
<path d="M373.75 294.094C373.792 294.094 373.831 294.076 373.861 294.047C373.893 294.015 373.91 293.968 373.908 293.921L372.749 278.729L372.43 278.754L373.576 293.757L356.243 292.378L356.218 292.698L373.737 294.091C373.737 294.091 373.745 294.091 373.75 294.091" fill="#1C1C1C"/>
<path d="M408.337 392.307L425.225 307.396H366.883L383.003 392.183L408.337 392.307Z" fill="white"/>
<path d="M408.794 392.867L425.904 306.838H366.207L382.54 392.74L408.794 392.867ZM424.543 307.957L407.878 391.745L383.465 391.626L367.558 307.957H424.543Z" fill="#1C1C1C"/>
<path d="M277.549 214.594H251.319L247.385 164.048H281.482L277.549 214.594Z" fill="white"/>
<path d="M250.839 215.113H278.027L282.041 163.531H246.824L250.839 215.113ZM277.069 214.077H251.798L247.944 164.564H280.923L277.069 214.077Z" fill="#1C1C1C"/>
<path d="M278.947 198.994L280.446 179.728H258.645L259.825 198.994H278.947Z" fill="#E0EBA5" stroke="#1C1C1C" stroke-width="0.7"/>
<path d="M245.734 161.283H283.133V167.48H245.734V161.283Z" fill="#1C1C1C"/>
<path d="M244.291 164.383H284.576V168.257H244.291V164.383Z" fill="#1C1C1C"/>
<path d="M265.594 446.386L275.753 464.553L309.899 463.284L314.398 452.907L296.418 425.346L265.594 446.386Z" fill="white"/>
<path d="M275.454 465.082L310.241 463.789L314.982 452.857L314.829 452.624L296.561 424.62L264.909 446.226L275.454 465.082ZM309.551 462.779L276.049 464.024L266.275 446.547L296.272 426.071L313.811 452.957L309.551 462.779Z" fill="#1C1C1C"/>
<path d="M378.432 479.238L378.398 487.014L270.698 487.442V478.723L378.432 479.238Z" fill="#1C1C1C"/>
<path d="M378.542 481.897C378.542 481.897 380.015 463.81 355.447 459.979C330.88 456.147 311.275 446.385 311.275 446.385C311.275 446.385 306.907 459.468 291.782 460.345C274.622 461.341 280.957 453.593 269.488 454.263L270.498 480.209L378.542 481.897Z" fill="#1C1C1C"/>
<path d="M378.542 481.898L346.018 481.599L345.026 457.912C348.117 458.506 351.849 459.418 355.447 459.98C380.015 463.811 378.542 481.898 378.542 481.898Z" fill="#FFBA00"/>
<path d="M323.213 451.154C323.02 451.025 322.793 450.925 322.541 450.863C321.518 450.617 320.448 451.107 320.151 451.962L316.219 463.284C315.922 464.138 316.51 465.03 317.535 465.276C318.558 465.522 319.627 465.032 319.925 464.178L323.858 452.856C324.083 452.212 323.803 451.549 323.215 451.154" fill="#FFBA00"/>
<path d="M330.358 452.877C330.165 452.746 329.938 452.646 329.685 452.586C328.663 452.338 327.593 452.83 327.296 453.682L323.362 465.007C323.065 465.861 323.655 466.751 324.678 466.999C325.701 467.245 326.77 466.755 327.067 465.901L331.001 454.577C331.225 453.935 330.946 453.272 330.358 452.877Z" fill="#FFBA00"/>
<path d="M337.579 454.621C337.386 454.49 337.159 454.39 336.906 454.328C335.884 454.082 334.814 454.572 334.517 455.426L330.583 466.75C330.286 467.602 330.876 468.494 331.899 468.74C332.922 468.989 333.991 468.496 334.288 467.644L338.22 456.32C338.444 455.679 338.164 455.013 337.576 454.621" fill="#FFBA00"/>
<path d="M254.389 449.365C254.389 449.365 214.215 331.223 193.3 328.461C144.475 322.009 186.741 252.97 222.105 293.395C258.072 334.509 304.044 432.886 304.044 432.886C314.54 448.297 254.389 449.365 254.389 449.365Z" fill="#1C1C1C"/>
<path d="M302.263 444.335L309.485 462.18L335.286 469.903L347.809 452.522L330.884 422.869L302.263 444.335Z" fill="white"/>
<path d="M335.489 470.505L348.422 452.553L331.041 422.102L301.632 444.16L309.098 462.604L335.491 470.505M347.195 452.489L335.083 469.302L309.874 461.754L302.892 444.511L330.726 423.635L347.195 452.489Z" fill="#1C1C1C"/>
<path d="M414.148 479.238L414.117 487.014L306.415 487.442V478.723L414.148 479.238Z" fill="#1C1C1C"/>
<path d="M414.262 481.898C414.262 481.898 415.736 463.811 391.168 459.98C366.6 456.148 345.88 447.209 345.88 447.209C345.88 447.209 342.627 459.469 327.502 460.346C310.343 461.342 316.675 453.594 305.209 454.264L306.219 480.21L414.262 481.898Z" fill="#1C1C1C"/>
<path d="M414.262 481.898L381.739 481.599L380.747 457.912C383.837 458.507 387.569 459.418 391.168 459.98C415.736 463.811 414.262 481.898 414.262 481.898Z" fill="#FFBA00"/>
<path d="M358.935 451.154C358.742 451.025 358.516 450.926 358.263 450.863C357.24 450.617 356.171 451.107 355.874 451.962L351.942 463.284C351.645 464.138 352.235 465.03 353.258 465.276C354.281 465.522 355.35 465.032 355.647 464.178L359.581 452.856C359.805 452.212 359.526 451.549 358.938 451.154" fill="#FFBA00"/>
<path d="M366.074 452.877C365.881 452.746 365.655 452.646 365.402 452.587C364.379 452.338 363.31 452.831 363.013 453.683L359.081 465.007C358.784 465.861 359.374 466.751 360.397 466.999C361.42 467.245 362.489 466.755 362.786 465.901L366.718 454.577C366.942 453.935 366.662 453.272 366.074 452.877Z" fill="#FFBA00"/>
<path d="M373.299 454.621C373.106 454.49 372.879 454.39 372.626 454.328C371.604 454.082 370.534 454.572 370.237 455.426L366.305 466.75C366.008 467.602 366.598 468.494 367.621 468.74C368.644 468.989 369.713 468.496 370.011 467.644L373.944 456.32C374.168 455.679 373.889 455.013 373.301 454.621" fill="#FFBA00"/>
<path d="M276 451.009C276 451.009 271.238 443.51 219.334 354.764C194.471 312.252 116.673 331.437 59.4283 326.827C8.49365 322.722 8.48923 247.488 8.48923 247.488C8.48923 247.488 203.661 247.981 251.259 299.483C290.825 342.298 334.862 427.915 334.862 427.915C345.358 443.326 276 451.009 276 451.009Z" fill="#1C1C1C"/>
<path d="M164.615 224.724L202.708 218.94C203.23 218.876 206.764 212.632 207.077 212.211C207.077 212.211 212.164 210.713 218.097 208.967C224.032 207.221 237.4 212.996 237.4 212.996C238.42 213.269 243.446 213.724 243.175 214.744L237.806 218.938C231.285 221.429 223.453 212.845 208.428 225.92C203.21 230.462 161.742 224.919 164.615 224.724Z" fill="#F7F8F9"/>
<path d="M237.411 219.522C235.368 220.123 233.242 219.79 230.813 219.411C225.43 218.568 218.73 217.521 208.708 226.242C207.474 227.316 204.503 227.917 199.624 228.084C195.759 228.217 190.823 228.066 184.952 227.638C175.23 226.928 164.959 225.568 164.274 225.148C164.096 225.042 164.012 224.849 164.059 224.658C164.112 224.445 164.283 224.323 164.569 224.301L202.569 218.53C203.083 218.071 205.12 214.641 205.899 213.329C206.398 212.489 206.642 212.08 206.733 211.956L206.82 211.843L217.977 208.557C223.906 206.813 236.652 212.211 237.537 212.591C237.777 212.651 238.247 212.726 238.789 212.813C241.163 213.187 243.018 213.534 243.486 214.252C243.608 214.439 243.643 214.647 243.588 214.856L243.55 214.994L238.019 219.313L237.959 219.335C237.777 219.406 237.593 219.466 237.411 219.522ZM219.593 218.836C220.181 218.663 220.768 218.517 221.359 218.399C225.097 217.654 228.203 218.137 230.943 218.568C233.446 218.958 235.609 219.298 237.595 218.561L242.647 214.616C242.485 214.512 242.115 214.341 241.296 214.144C240.459 213.942 239.459 213.782 238.656 213.656C238.043 213.558 237.56 213.48 237.289 213.409L237.231 213.389C237.098 213.332 223.937 207.694 218.219 209.376L207.345 212.577C207.21 212.795 206.928 213.27 206.633 213.764C203.516 219.014 203.152 219.311 202.768 219.362L166.843 224.818C170.269 225.353 177.335 226.233 185.252 226.804C202.54 228.046 207.017 226.582 208.149 225.599C212.1 222.158 215.863 219.932 219.593 218.836Z" fill="#1C1C1C"/>
<path d="M202.99 212.73C222.115 230.462 189.556 236.927 189.556 236.927C124.018 245.431 87.2427 203.484 86.4572 157.768C86.2176 143.87 151.341 144.536 147.636 152.454C118.97 213.735 149.337 215.623 202.99 212.73Z" fill="#D2BCF4"/>
<path d="M172.954 238.587C178.363 238.587 183.925 238.217 189.627 237.478L189.665 237.471C190.364 237.331 206.809 233.972 209.263 225.304C210.379 221.352 208.397 216.986 203.368 212.322L203.194 212.163L202.959 212.176C172.614 213.813 148.741 214.086 140.434 201.777C137.428 197.319 136.512 191.378 137.632 183.608C138.817 175.383 142.253 165.27 148.14 152.69C148.521 151.874 148.359 151.033 147.683 150.323C144.892 147.397 133.157 146.316 123.956 146.283C111.218 146.234 99.5635 147.86 92.8098 150.631C88.1772 152.531 85.8542 154.936 85.903 157.778C86.1027 169.413 88.5566 180.553 93.1959 190.892C97.9594 201.504 104.771 210.68 113.441 218.169C122.596 226.072 133.49 231.778 145.821 235.126C154.308 237.431 163.389 238.585 172.954 238.587ZM189.465 236.38C173.837 238.405 159.251 237.624 146.112 234.057C133.94 230.751 123.193 225.124 114.167 217.33C105.618 209.948 98.9046 200.9 94.2076 190.439C89.6304 180.238 87.2098 169.242 87.0124 157.758C86.9702 155.419 89.0647 153.367 93.2314 151.659C99.8564 148.941 111.332 147.343 123.951 147.392C135.6 147.434 144.814 148.921 146.879 151.089C147.343 151.577 147.268 151.934 147.135 152.22C135.549 176.987 133.128 192.931 139.513 202.396C148.124 215.158 172.195 214.94 202.784 213.296C207.357 217.59 209.176 221.528 208.195 225C205.959 232.903 190.082 236.253 189.465 236.38Z" fill="#1C1C1C"/>
<path d="M13.7626 291.778C-5.36479 238.032 14.6856 146.169 71.8836 120.366C119.071 99.0794 144.166 123.66 147.637 135.093C154.124 156.464 141.659 158.294 117.056 182.897C92.4531 207.498 114.037 247.417 114.037 247.417C84.2594 271.559 61.1273 308.291 13.7626 291.78" fill="#D2BCF4"/>
<path d="M36.3644 296.463C37.4449 296.463 38.521 296.435 39.5948 296.375C47.0119 295.958 54.0962 294.107 61.2537 290.717C74.5149 284.434 86.0587 273.626 97.221 263.176C102.761 257.991 108.49 252.629 114.389 247.845L114.746 247.557L114.527 247.151C114.474 247.051 109.138 237.078 106.863 224.254C105.532 216.748 105.495 209.748 106.755 203.447C108.323 195.599 111.92 188.814 117.449 183.285C123.624 177.113 129.141 172.281 133.574 168.398C140.344 162.467 145.234 158.185 147.805 153.353C150.465 148.359 150.574 142.847 148.169 134.931C146.387 129.063 139.687 120.916 128.733 115.944C117.728 110.949 98.8939 107.572 71.6594 119.86C57.9168 126.059 45.765 136.249 35.5368 150.147C26.1717 162.876 18.8145 178.114 13.6716 195.435C8.85477 211.658 6.26332 229.124 6.17902 245.946C6.0947 262.826 8.53526 278.738 13.2433 291.964L13.3321 292.215L13.5828 292.301C21.5901 295.092 29.0782 296.463 36.3644 296.463ZM113.34 247.27C107.534 252.003 101.907 257.27 96.4622 262.366C85.3621 272.759 73.8848 283.504 60.7789 289.714C53.7523 293.042 46.8033 294.859 39.5327 295.265C31.45 295.718 23.1587 294.436 14.1996 291.34C9.5936 278.286 7.20406 262.599 7.28836 245.95C7.37267 229.232 9.94859 211.873 14.7343 195.75C19.7685 178.795 27.2722 163.253 36.4309 150.804C46.5438 137.061 58.5491 126.99 72.1143 120.871C98.9738 108.755 117.48 112.054 128.274 116.953C133.264 119.218 137.748 122.362 141.24 126.043C144.111 129.069 146.25 132.426 147.108 135.253C151.861 150.906 146.292 155.782 132.842 167.564C128.398 171.455 122.865 176.301 116.666 182.502C110.975 188.193 107.274 195.171 105.663 203.247C104.379 209.686 104.416 216.83 105.776 224.478C107.824 235.997 112.31 245.251 113.34 247.27Z" fill="#1C1C1C"/>
<path d="M291.291 219.501L205.454 219.77L205.587 214.123L288.864 214.101L291.291 219.501Z" fill="#F7F8F9"/>
<path d="M291.947 219.927L205.017 220.198L205.17 213.697L289.141 213.673L291.947 219.927ZM205.891 219.342L290.632 219.078L288.588 214.527L206.002 214.549L205.891 219.342Z" fill="#1C1C1C"/>
<path d="M317.197 126.844L291.418 219.688L288.865 214.101L311.892 126.935L317.197 126.844Z" fill="#F7F8F9"/>
<path d="M291.519 220.106L288.415 214.138L288.452 213.992L311.565 126.513L317.764 126.409L291.519 220.106ZM289.318 214.061L291.321 218.447L316.634 127.281L312.224 127.356L289.318 214.061Z" fill="#1C1C1C"/>
<path d="M351.182 129.295L325.349 218.459L291.29 219.501L315.844 126.893L351.182 129.295Z" fill="#F7F8F9"/>
<path d="M325.853 219.501L290.724 219.967L290.877 219.392L315.523 126.442L351.736 128.905L325.853 219.501ZM291.854 219.035L325.267 218.447L350.625 129.686L316.164 127.343L291.851 219.035H291.854Z" fill="#1C1C1C"/>
<path d="M326.649 172.658C326.076 176.326 323.882 179.028 321.75 178.696C319.618 178.361 318.353 175.119 318.925 171.451C319.498 167.786 321.692 165.084 323.824 165.417C325.956 165.749 327.223 168.993 326.649 172.658Z" fill="#F7F8F9"/>
<path d="M322.316 179.141C322.105 179.156 321.892 179.147 321.681 179.116C320.492 178.93 319.514 177.994 318.921 176.478C318.36 175.041 318.211 173.232 318.5 171.386C319.119 167.426 321.486 164.619 323.887 164.994C326.29 165.369 327.687 168.766 327.068 172.724C326.78 174.57 326.086 176.247 325.114 177.446C324.271 178.484 323.297 179.07 322.316 179.141ZM323.328 165.82C321.593 165.948 319.831 168.404 319.345 171.517C319.079 173.217 319.212 174.87 319.718 176.168C320.195 177.388 320.938 178.136 321.815 178.271C322.691 178.409 323.627 177.925 324.453 176.906C325.331 175.824 325.961 174.293 326.228 172.593C326.753 169.223 325.624 166.128 323.758 165.837C323.616 165.815 323.472 165.811 323.33 165.82H323.328Z" fill="#010101"/>
<path d="M153.132 110.732C144.872 115.642 136.071 114.721 131.62 107.231C127.169 99.743 130.258 89.69 138.518 84.7801C146.778 79.8701 162.812 86.6748 162.812 86.6748C162.812 86.6748 161.393 105.82 153.132 110.732Z" fill="#1C1C1C"/>
<path d="M126.329 116.094L137.398 104.076L144.176 121.375L139.84 126.533C139.84 126.533 136.677 138.219 129.461 135.672C122.244 133.125 123.351 121.091 126.329 116.097" fill="white"/>
<path d="M126.764 134.643C125.735 133.713 124.927 132.473 124.381 130.962C122.631 126.123 123.807 119.343 125.897 115.837L125.923 115.793L137.574 103.142L144.758 121.472L140.296 126.777C140.032 127.703 138.157 133.777 134.206 135.852C132.67 136.657 131.017 136.759 129.294 136.149C128.346 135.814 127.499 135.308 126.764 134.645M126.738 116.401C124.781 119.722 123.689 126.078 125.331 130.62C126.172 132.948 127.618 134.487 129.629 135.195C131.08 135.708 132.462 135.626 133.738 134.955C137.54 132.959 139.335 126.467 139.353 126.402L139.382 126.294L143.597 121.279L137.223 105.01L126.738 116.396V116.401Z" fill="#1C1C1C"/>
<path d="M148.942 92.8465C146.528 98.0471 141.491 99.3073 136.045 97.488C134.327 97.042 132.315 98.5064 131.461 100.891C130.726 102.935 131.07 105.012 132.188 106.054C131.017 112.737 133.671 119.034 138.86 120.944C144.868 123.156 151.995 118.659 154.779 110.898C157.561 103.139 154.95 95.0563 148.942 92.8442" fill="white"/>
<path d="M135.507 119.485C134.338 118.431 133.373 117.077 132.676 115.495C131.482 112.784 131.121 109.503 131.646 106.228C130.508 104.974 130.238 102.807 130.983 100.726C131.933 98.0808 134.162 96.4812 136.173 97.0025L136.204 97.0114C141.841 98.8951 146.316 97.2999 148.484 92.6362L148.679 92.2146L149.116 92.3743C155.371 94.6774 158.124 103.064 155.253 111.071C153.638 115.569 150.556 119.156 146.796 120.911C144.058 122.189 141.253 122.364 138.686 121.419C137.519 120.989 136.448 120.332 135.507 119.482M135.902 97.9721C134.431 97.6016 132.689 98.955 131.935 101.063C131.291 102.855 131.535 104.757 132.532 105.687L132.731 105.873L132.685 106.144C131.54 112.671 134.211 118.697 139.035 120.474C141.344 121.324 143.88 121.16 146.367 119.997C149.886 118.355 152.78 114.976 154.302 110.732C156.922 103.43 154.625 95.8222 149.19 93.4904C146.74 98.265 141.81 99.9401 135.902 97.9743V97.9721Z" fill="#1C1C1C"/>
<path d="M155.548 111.218C155.759 110.415 156.229 108.283 156.402 107.502C154.945 109.612 152.577 112.769 150.904 113.859C149.234 114.948 148.415 113.155 146.671 112.456C144.228 111.474 141.089 111.875 139.822 109.878C136.86 105.208 137.825 97.9351 137.825 97.9351C137.721 97.8774 136.931 97.2717 136.044 97.4914C136.044 97.4914 135.618 100.797 134.027 103.566C133.619 104.276 132.736 105.55 132.119 105.989C132.143 106.011 132.163 106.038 132.187 106.058C129.325 114.256 134.648 124.624 139.84 126.534C145.846 128.746 153.531 118.94 155.548 111.218Z" fill="#1C1C1C"/>
<path d="M140.364 112.586C140.364 112.586 142.53 114.636 144.979 115.417C147.431 116.198 148.383 115.144 148.383 115.144C148.383 115.144 146.379 118.211 143.832 117.536C141.285 116.862 140.364 112.588 140.364 112.588" fill="white"/>
<path d="M152.07 109.508C150.384 107.986 150.335 105.283 151.96 103.484C153.584 101.687 156.275 101.463 157.961 102.985C159.647 104.507 159.698 107.209 158.074 109.008C156.45 110.806 153.757 111.03 152.07 109.508ZM157.433 103.57C156.071 102.339 153.876 102.537 152.543 104.012C151.21 105.487 151.236 107.691 152.598 108.922C153.963 110.153 156.157 109.956 157.491 108.48C158.824 107.005 158.798 104.802 157.433 103.57Z" fill="#1C1C1C"/>
<path d="M141.379 107.012C139.364 105.195 139.304 101.969 141.243 99.8232C143.182 97.6777 146.395 97.4092 148.41 99.2286C150.422 101.046 150.482 104.272 148.543 106.417C146.606 108.563 143.391 108.831 141.379 107.012ZM147.78 99.9252C146.151 98.4542 143.533 98.6916 141.94 100.453C140.349 102.215 140.38 104.844 142.009 106.315C143.635 107.786 146.255 107.549 147.846 105.787C149.437 104.025 149.406 101.396 147.78 99.9252Z" fill="#1C1C1C"/>
<path d="M149.231 104.28L149.482 103.532L151.74 104.296L151.49 105.041L149.231 104.28Z" fill="#1C1C1C"/>
<path d="M135.826 97.8171L136.263 97.1626L141.213 100.468L140.776 101.123L135.826 97.8171Z" fill="#1C1C1C"/>
<path d="M147.506 104.68C147.14 105.086 146.515 105.117 146.109 104.751C145.703 104.385 145.672 103.759 146.038 103.353C146.404 102.947 147.029 102.916 147.435 103.282C147.841 103.648 147.872 104.274 147.506 104.68Z" fill="#1C1C1C"/>
<path d="M155.013 106.816C154.645 107.222 154.019 107.253 153.613 106.887C153.209 106.521 153.176 105.896 153.542 105.49C153.911 105.084 154.536 105.053 154.94 105.419C155.346 105.785 155.379 106.41 155.013 106.816Z" fill="#1C1C1C"/>
<path d="M146.435 111.626C146.253 111.464 146.213 111.189 146.349 110.978C146.5 110.743 146.813 110.676 147.045 110.827C147.835 111.333 149.202 111.883 149.63 111.455C150.027 111.056 150.001 108.438 149.568 105.738C149.526 105.462 149.712 105.203 149.987 105.161C150.263 105.119 150.522 105.305 150.567 105.58C150.771 106.867 151.363 111.147 150.345 112.167C149.173 113.341 146.77 111.85 146.5 111.675C146.475 111.659 146.455 111.644 146.435 111.624" fill="#1C1C1C"/>
<path d="M113.679 247.617L114.396 247.213C104.308 229.303 105.038 213.71 107.427 203.786C110.163 192.424 116.646 182.059 124.773 176.057C134.655 168.757 140.439 162.794 143.55 159.073C146.94 155.017 147.972 152.716 148.014 152.621L147.262 152.29C147.219 152.381 143.01 161.567 124.285 175.396C116.007 181.508 109.406 192.049 106.628 203.593C104.203 213.662 103.46 229.472 113.679 247.617Z" fill="#1C1C1C"/>
<path d="M31.8853 296.179L32.1893 295.902L32.5576 296.088L32.4933 295.627C32.4555 295.582 32.0961 295.178 31.5481 294.26L30.8426 294.681C31.4172 295.647 31.8121 296.097 31.8853 296.179ZM28.9101 290.619L29.6777 290.322C29.183 289.048 28.7237 287.644 28.3066 286.148L27.5145 286.368C27.9383 287.89 28.4086 289.321 28.9101 290.619ZM26.4762 282.028L27.2815 281.864C27.002 280.482 26.7468 279.02 26.525 277.515L25.7129 277.635C25.9348 279.153 26.1922 280.63 26.4762 282.028ZM25.1671 273.216L25.9858 273.133C25.8416 271.714 25.7218 270.231 25.6264 268.727L24.8055 268.778C24.9009 270.294 25.0229 271.787 25.1671 273.216ZM24.5991 264.334L25.4201 264.31C25.3757 262.876 25.3513 261.388 25.3468 259.886H24.5259C24.5303 261.397 24.5548 262.894 24.5991 264.334ZM25.3934 255.459C25.4245 254.015 25.4755 252.526 25.5421 251.033L24.7212 250.998C24.6546 252.495 24.6036 253.991 24.5703 255.442L25.3934 255.459ZM25.7839 246.611C25.8793 245.165 25.9903 243.678 26.1123 242.194L25.2936 242.125C25.1694 243.614 25.0584 245.105 24.9652 246.558L25.7839 246.611ZM26.5183 237.781C26.6625 236.339 26.8223 234.854 26.9931 233.374L26.1766 233.281C26.0058 234.766 25.846 236.252 25.6996 237.699L26.5183 237.781ZM27.5522 228.984C27.7608 227.533 27.996 226.064 28.2533 224.615L27.4435 224.473C27.1861 225.929 26.9488 227.406 26.7402 228.868L27.5522 228.984ZM29.0942 220.271C29.396 218.838 29.7265 217.387 30.0771 215.958L29.2784 215.762C28.9278 217.198 28.595 218.658 28.2911 220.102L29.0942 220.271ZM31.1998 211.678C31.5947 210.264 32.0185 208.836 32.46 207.436L31.6746 207.189C31.2308 208.598 30.8048 210.034 30.4077 211.456L31.1998 211.678ZM33.8533 203.236C34.3392 201.849 34.854 200.451 35.382 199.082L34.6166 198.785C34.0841 200.163 33.5671 201.567 33.079 202.963L33.8533 203.236ZM37.0438 194.98C37.6185 193.624 38.2197 192.262 38.8343 190.931L38.0888 190.587C37.4698 191.927 36.8641 193.296 36.2872 194.658L37.0438 194.98ZM40.7557 186.944C41.4191 185.624 42.1091 184.304 42.808 183.021L42.0869 182.628C41.3836 183.92 40.6891 185.246 40.0213 186.575L40.7557 186.944ZM44.9912 179.169C45.75 177.883 46.531 176.616 47.3097 175.4L46.6175 174.956C45.8321 176.181 45.0466 177.457 44.2834 178.752L44.9912 179.169ZM49.7747 171.726C51.3899 169.434 52.415 168.207 52.4238 168.194L51.7937 167.666C51.7515 167.717 50.7398 168.928 49.1024 171.253L49.7747 171.726Z" fill="#1C1C1C"/>
<path d="M148.154 326.587H28.3069V339.724H148.154V326.587ZM147.12 338.688H29.3409V327.623H147.12V338.688Z" fill="#1C1C1C"/>
<path d="M30.1493 341.417L30.5176 339.38C30.431 339.365 21.7072 337.738 13.1208 332.913C8.12651 330.106 4.15503 326.78 1.31954 323.031C-2.19488 318.385 -3.97649 313.049 -3.97649 307.171V191.393H-6.04874V307.171C-6.04874 313.519 -4.11848 319.283 -0.315639 324.302C2.70401 328.287 6.89958 331.799 12.1535 334.745C21.0393 339.728 29.781 341.35 30.1493 341.417Z" fill="#1C1C1C"/>
<path d="M173.3 486.395L175.328 485.981L145.476 339.274L143.445 339.686L173.3 486.395Z" fill="#1C1C1C"/>
<path d="M-5.99115 487.697L31.334 339.732L29.3261 339.227L-8.0013 487.189L-5.99115 487.697Z" fill="#1C1C1C"/>
<path d="M1.30034 456.505H167.707V458.575H1.30034V456.505Z" fill="#1C1C1C"/>
<path d="M136.206 219.954H363.299V232.727H136.206V219.954Z" fill="white"/>
<path d="M363.814 219.438H135.688V233.244H363.814V219.438ZM362.778 232.211H136.722V220.471H362.778V232.211Z" fill="#1C1C1C"/>
<path d="M151.602 232.902H157.146V487.442H151.602V232.902Z" fill="white"/>
<path d="M151.081 487.962H157.662V232.902H156.626V486.925H152.118V232.902H151.081V487.962Z" fill="#1C1C1C"/>
<path d="M346.203 232.902H350.92V487.442H346.203V232.902Z" fill="white"/>
<path d="M345.687 487.962H351.438V232.902H350.401V486.925H346.721V232.902H345.687V487.962Z" fill="#1C1C1C"/>
<path d="M131.773 215.238C131.773 215.238 181.458 215.153 184.292 214.967C187.125 214.781 195.898 205.18 195.898 205.18C198.141 202.62 201.835 201.91 204.868 203.456L223.197 210.62C224.774 211.235 225.553 213.012 224.938 214.59L222.469 220.935C221.876 222.455 220.064 223.078 218.662 222.246L215.598 220.427L205.766 221.017C202.851 221.741 199.239 229.322 190.611 229.888C181.982 230.456 105.191 232.419 105.191 232.419C102.034 232.519 128.176 215.078 131.773 215.238Z" fill="#F7F8F9"/>
<path d="M190.636 230.313C182.096 230.875 105.966 232.825 105.196 232.845C104.828 232.856 104.652 232.694 104.57 232.557C104.451 232.35 104.473 232.106 104.639 231.831C105.513 230.38 111.916 225.869 117.494 222.291C120.265 220.513 129.473 214.725 131.778 214.811C132.69 214.809 179.281 215.848 182.055 215.666C184.238 215.521 193.172 207.527 195.579 204.892C197.944 202.194 201.831 201.444 205.037 203.066L223.348 210.223C225.141 210.922 226.031 212.95 225.332 214.743L222.862 221.09C222.536 221.931 221.857 222.581 221.003 222.876C220.149 223.171 219.215 223.074 218.438 222.612L215.49 220.86L205.829 221.441C204.951 221.678 203.886 222.717 202.655 223.915C200.045 226.453 196.471 229.93 190.636 230.313ZM105.598 231.982C111.768 231.822 182.389 230.001 190.578 229.461C196.101 229.1 199.544 225.75 202.058 223.302C203.451 221.949 204.552 220.877 205.659 220.602L205.696 220.593H205.736L215.7 219.992L218.875 221.88C219.435 222.213 220.111 222.282 220.726 222.069C221.343 221.858 221.831 221.388 222.068 220.78L224.538 214.434C225.066 213.079 224.391 211.545 223.038 211.017L204.689 203.844L204.669 203.836C201.809 202.378 198.333 203.046 196.216 205.462C195.3 206.462 184.974 216.483 182.055 216.674C179.239 216.86 133.799 215.661 131.769 215.666H131.752C130.409 215.606 124.721 218.65 117.596 223.24C114.468 225.257 111.491 227.298 109.212 228.989C106.909 230.697 105.975 231.565 105.598 231.982Z" fill="#1C1C1C"/>
<path d="M224.738 215.805L209.258 210.414L209.54 209.608L225.018 214.997L224.738 215.805Z" fill="#1C1C1C"/>
<path d="M208.543 216.475L217.347 215.896L223.113 219.278" fill="#F7F8F9"/>
<path d="M222.895 219.645L217.244 216.33L208.569 216.901L208.514 216.049L217.451 215.461L223.328 218.909L222.895 219.645Z" fill="#1C1C1C"/>
<path d="M183.068 215.004C197.852 236.49 185.025 244.741 185.025 244.741C153.759 259.671 114.968 260.589 95.066 250.658C55.7064 231.014 35.443 142.35 80.9951 120.365C102.774 109.853 87.7199 171.89 119.864 205.481C131.606 217.748 155.98 216.692 183.068 215.004Z" fill="#D2BCF4"/>
<path d="M144.61 215.598C152.145 216.587 160.946 216.713 172.33 215.964L172.353 216.318L172.33 215.964C175.532 215.753 178.938 215.473 182.578 215.124L144.61 215.598ZM144.61 215.598L144.564 215.949M144.564 215.949C132.295 214.338 123.455 210.352 117.54 203.758C112.719 198.384 108.716 191.493 105.648 183.277C103.199 176.716 101.333 169.299 100.103 161.23C98.2631 149.155 98.4175 139.18 98.4844 136.878L144.564 215.949ZM144.564 215.949L144.61 215.598" fill="#010101" stroke="#1C1C1C"/>
<path d="M103.74 254.747C91.1425 249.547 80.5083 240.725 72.1394 228.529C65.4544 218.789 60.1895 206.888 56.4953 193.154C53.2094 180.945 51.7961 169.516 51.1904 162.079C50.5315 154.018 50.6535 148.769 50.6557 148.718L51.5077 148.738C51.5033 148.947 51.0662 169.705 57.3251 192.952C60.9949 206.588 66.2199 218.398 72.8493 228.056C81.1229 240.108 91.6262 248.823 104.066 253.957L103.74 254.747Z" fill="#010101"/>
<path d="M129.072 257.648C131.277 257.648 133.525 257.588 135.808 257.466C152.929 256.556 170.477 252.181 185.216 245.143L185.265 245.114C185.422 245.012 189.163 242.549 190.308 236.854C191.557 230.633 189.245 223.198 183.434 214.751L183.292 214.545L183.042 214.561C169.013 215.437 156.524 216.076 145.754 215.035C133.627 213.862 125.502 210.729 120.186 205.173L119.545 205.788C125.016 211.505 133.316 214.723 145.67 215.918C156.437 216.959 168.88 216.331 182.844 215.461C188.402 223.604 190.621 230.733 189.442 236.652C188.599 240.892 186.055 243.532 184.808 244.353C170.175 251.336 152.759 255.678 135.761 256.581C119.538 257.441 105.156 255.196 95.2654 250.262L94.8683 251.056C103.497 255.36 115.467 257.648 129.072 257.648Z" fill="#1C1C1C"/>
</g>
</svg>
