<svg width="29" height="18" viewBox="0 0 29 18" fill="none" xmlns="http://www.w3.org/2000/svg">
<path d="M14.947 9.76727C13.9841 9.76727 13.0429 9.48085 12.2423 8.94423C11.4417 8.40761 10.8177 7.64489 10.4492 6.75252C10.0807 5.86015 9.98431 4.87822 10.1722 3.93089C10.36 2.98355 10.8237 2.11337 11.5045 1.43039C12.1854 0.747397 13.0528 0.282276 13.9972 0.0938399C14.9416 -0.0945963 15.9205 0.00211601 16.81 0.371747C17.6996 0.741377 18.46 1.36733 18.9949 2.17043C19.5298 2.97354 19.8154 3.91774 19.8154 4.88364C19.814 6.17843 19.3006 7.4198 18.3879 8.33537C17.4752 9.25093 16.2377 9.76589 14.947 9.76727ZM14.947 1.95346C14.3693 1.95346 13.8045 2.12531 13.3242 2.44728C12.8438 2.76925 12.4694 3.22689 12.2483 3.76231C12.0272 4.29773 11.9694 4.88689 12.0821 5.45529C12.1948 6.02369 12.473 6.54579 12.8815 6.95559C13.29 7.36538 13.8105 7.64445 14.3771 7.75751C14.9437 7.87058 15.5311 7.81255 16.0648 7.59077C16.5986 7.36899 17.0548 6.99342 17.3757 6.51156C17.6967 6.02969 17.868 5.46317 17.868 4.88364C17.8673 4.10672 17.5594 3.36181 17.0117 2.81245C16.4641 2.26308 15.7215 1.95415 14.947 1.95346Z" fill="#BABABA"/>
<path d="M5.8594 11.0695C5.02491 11.0695 4.20916 10.8212 3.5153 10.3562C2.82145 9.89109 2.28066 9.23006 1.96131 8.45668C1.64196 7.68329 1.55841 6.83228 1.72121 6.01126C1.88401 5.19024 2.28586 4.43608 2.87593 3.84416C3.466 3.25224 4.2178 2.84913 5.03626 2.68582C5.85471 2.52251 6.70307 2.60633 7.47404 2.92667C8.245 3.24702 8.90396 3.78951 9.36758 4.48554C9.8312 5.18156 10.0787 5.99987 10.0787 6.83698C10.0773 7.95908 9.63231 9.03483 8.84134 9.82827C8.05038 10.6217 6.97799 11.0681 5.8594 11.0695ZM5.8594 4.55795C5.41005 4.55795 4.9708 4.69161 4.59719 4.94203C4.22358 5.19246 3.93238 5.54839 3.76043 5.96483C3.58847 6.38127 3.54348 6.8395 3.63114 7.28159C3.7188 7.72368 3.93518 8.12977 4.25291 8.44849C4.57065 8.76722 4.97546 8.98428 5.41617 9.07222C5.85687 9.16015 6.31368 9.11502 6.72882 8.94253C7.14395 8.77003 7.49878 8.47792 7.74842 8.10314C7.99806 7.72835 8.1313 7.28773 8.1313 6.83698C8.13062 6.23275 7.89103 5.65347 7.46512 5.22622C7.0392 4.79897 6.46173 4.55864 5.8594 4.55795ZM20.14 17.581C19.8817 17.581 19.6341 17.4781 19.4515 17.2949C19.2689 17.1117 19.1663 16.8633 19.1663 16.6042V15.3019C19.1663 14.1794 18.7218 13.1029 17.9305 12.3091C17.1392 11.5154 16.066 11.0695 14.947 11.0695C13.828 11.0695 12.7548 11.5154 11.9636 12.3091C11.1723 13.1029 10.7278 14.1794 10.7278 15.3019V16.6042C10.7278 16.8633 10.6252 17.1117 10.4426 17.2949C10.26 17.4781 10.0123 17.581 9.75409 17.581C9.49586 17.581 9.2482 17.4781 9.0656 17.2949C8.883 17.1117 8.78042 16.8633 8.78042 16.6042V15.3019C8.78042 13.6613 9.43011 12.0879 10.5866 10.9278C11.743 9.76774 13.3115 9.11601 14.947 9.11601C16.5825 9.11601 18.151 9.76774 19.3075 10.9278C20.4639 12.0879 21.1136 13.6613 21.1136 15.3019V16.6042C21.1136 16.8633 21.0111 17.1117 20.8285 17.2949C20.6459 17.4781 20.3982 17.581 20.14 17.581Z" fill="#BABABA"/>
<path d="M1.9644 17.581C1.70616 17.581 1.4585 17.4781 1.27591 17.2949C1.09331 17.1117 0.990723 16.8633 0.990723 16.6042V15.3019C0.992097 14.0071 1.50546 12.7658 2.41815 11.8502C3.33085 10.9347 4.56835 10.4197 5.8591 10.4183C6.76802 10.4128 7.65923 10.6705 8.4257 11.1606C8.53319 11.2302 8.62597 11.3204 8.69872 11.426C8.77148 11.5315 8.82279 11.6504 8.84974 11.7759C8.87668 11.9014 8.87872 12.0309 8.85575 12.1572C8.83278 12.2834 8.78525 12.4039 8.71586 12.5118C8.64647 12.6196 8.55659 12.7127 8.45135 12.7856C8.34611 12.8586 8.22757 12.9101 8.10249 12.9371C7.97742 12.9642 7.84826 12.9662 7.7224 12.9432C7.59654 12.9201 7.47643 12.8724 7.36894 12.8028C6.91777 12.5158 6.39333 12.366 5.8591 12.3718C5.0846 12.3725 4.34203 12.6814 3.79438 13.2308C3.24673 13.7801 2.93876 14.525 2.93807 15.3019V16.6042C2.93807 16.8633 2.83549 17.1117 2.65289 17.2949C2.47029 17.4781 2.22263 17.581 1.9644 17.581ZM24.0344 11.0695C23.1999 11.0695 22.3841 10.8212 21.6903 10.3562C20.9964 9.89109 20.4556 9.23006 20.1363 8.45668C19.8169 7.68329 19.7334 6.83228 19.8962 6.01126C20.059 5.19024 20.4608 4.43608 21.0509 3.84416C21.641 3.25224 22.3928 2.84913 23.2112 2.68582C24.0297 2.52251 24.878 2.60633 25.649 2.92667C26.42 3.24702 27.0789 3.78951 27.5425 4.48554C28.0062 5.18156 28.2536 5.99987 28.2536 6.83698C28.2522 7.95908 27.8073 9.03483 27.0163 9.82827C26.2253 10.6217 25.153 11.0681 24.0344 11.0695ZM24.0344 4.55795C23.585 4.55795 23.1458 4.69161 22.7722 4.94203C22.3985 5.19246 22.1073 5.54839 21.9354 5.96483C21.7634 6.38127 21.7184 6.8395 21.8061 7.28159C21.8938 7.72368 22.1101 8.12977 22.4279 8.44849C22.7456 8.76722 23.1504 8.98428 23.5911 9.07222C24.0318 9.16015 24.4886 9.11502 24.9038 8.94253C25.3189 8.77003 25.6737 8.47792 25.9234 8.10314C26.173 7.72835 26.3063 7.28773 26.3063 6.83698C26.3056 6.23275 26.066 5.65347 25.6401 5.22622C25.2142 4.79897 24.6367 4.55864 24.0344 4.55795Z" fill="#BABABA"/>
<path d="M27.9299 17.581C27.6717 17.581 27.4241 17.4781 27.2415 17.2949C27.0589 17.1117 26.9563 16.8633 26.9563 16.6043V15.302C26.9571 14.9171 26.8819 14.5359 26.7348 14.1805C26.5877 13.825 26.3717 13.5024 26.0994 13.2313C25.6327 12.7766 25.03 12.4884 24.384 12.411C23.7379 12.3336 23.0845 12.4713 22.5241 12.8028C22.307 12.9432 22.0432 12.9914 21.7907 12.9367C21.5383 12.882 21.3178 12.7289 21.1778 12.5111C21.0379 12.2934 20.9899 12.0287 21.0444 11.7755C21.099 11.5222 21.2516 11.301 21.4686 11.1606C22.4052 10.5935 23.5026 10.3537 24.5894 10.4785C25.6762 10.6034 26.6911 11.086 27.4756 11.8509C27.9293 12.3028 28.2891 12.8405 28.5342 13.4329C28.7794 14.0253 28.9049 14.6606 28.9036 15.302V16.6043C28.9036 16.8633 28.801 17.1117 28.6184 17.2949C28.4358 17.4781 28.1882 17.581 27.9299 17.581Z" fill="#BABABA"/>
</svg>
