<svg xmlns="http://www.w3.org/2000/svg" width="24.182" height="28" viewBox="0 0 24.182 28">
  <path id="location" d="M20.653,3.469a12.283,12.283,0,0,0-17.11,0,11.667,11.667,0,0,0,0,16.749l7.514,7.369a1.427,1.427,0,0,0,.464.306,1.455,1.455,0,0,0,1.1,0,1.427,1.427,0,0,0,.464-.306l7.571-7.439a11.619,11.619,0,0,0,0-16.679ZM18.614,18.152,12.1,24.558,5.582,18.152a8.959,8.959,0,0,1-2.518-4.617A8.84,8.84,0,0,1,3.59,8.327,9.061,9.061,0,0,1,6.982,4.282a9.376,9.376,0,0,1,10.233,0,9.061,9.061,0,0,1,3.392,4.045,8.841,8.841,0,0,1,.526,5.208A8.959,8.959,0,0,1,18.614,18.152ZM7.821,7.558a5.94,5.94,0,0,0,0,8.514,6.186,6.186,0,0,0,3.131,1.646,6.268,6.268,0,0,0,3.538-.325A6.121,6.121,0,0,0,17.252,15.2a5.927,5.927,0,0,0,1.063-3.319,5.809,5.809,0,0,0-.458-2.307,5.913,5.913,0,0,0-1.339-1.95A6.138,6.138,0,0,0,14.536,6.3a6.253,6.253,0,0,0-4.71-.038A6.144,6.144,0,0,0,7.821,7.558Zm6.687,6.532a3.376,3.376,0,0,1-4.2.431,3.259,3.259,0,0,1-1.344-1.757,3.188,3.188,0,0,1,.1-2.193,3.278,3.278,0,0,1,1.5-1.629,3.385,3.385,0,0,1,2.218-.324,3.336,3.336,0,0,1,1.923,1.129,3.117,3.117,0,0,1-.274,4.343Z" fill="#ffba00"/>
</svg>
