<svg width="87" height="25" viewBox="0 0 87 25" fill="none" xmlns="http://www.w3.org/2000/svg">
<circle cx="8.79293" cy="8.79293" r="8.79293" fill="#E0EBA5"/>
<path d="M8.32901 13.7C8.61075 13.9748 9.08017 13.9748 9.37531 13.7L11.9776 11.1614C13.7751 9.40789 13.708 6.50282 11.7496 4.85401C10.0997 3.44082 7.60466 3.44082 5.95473 4.84096C3.99622 6.50288 3.91576 9.39481 5.7267 11.1614L8.32901 13.7ZM8.85216 6.18876C9.85822 6.18876 10.6631 6.97396 10.6631 7.95539C10.6631 8.93682 9.85822 9.72201 8.85216 9.72201C7.8461 9.72201 7.04121 8.93682 7.04121 7.95539C7.0413 6.97396 7.8461 6.18876 8.85216 6.18876Z" fill="#1C1C1C"/>
<path d="M27.2359 18.021C25.3894 18.021 23.7764 17.5874 22.3968 16.7202C21.0385 15.8319 20.1046 14.6368 19.5952 13.1351L22.7152 11.6439C23.1609 12.6168 23.7764 13.3783 24.5617 13.9282C25.3682 14.4782 26.2596 14.7531 27.2359 14.7531C28 14.7531 28.6049 14.5839 29.0506 14.2455C29.4963 13.9071 29.7191 13.4629 29.7191 12.913C29.7191 12.5745 29.6236 12.2996 29.4326 12.0881C29.2628 11.8554 29.0187 11.665 28.7004 11.517C28.4032 11.3478 28.0743 11.2103 27.7134 11.1045L24.88 10.3113C23.4156 9.88831 22.3013 9.24319 21.5372 8.37598C20.7944 7.50877 20.423 6.48292 20.423 5.29844C20.423 4.24087 20.6883 3.32078 21.2189 2.53818C21.7707 1.73442 22.5241 1.11045 23.4792 0.666273C24.4555 0.222092 25.5698 0 26.822 0C28.4563 0 29.8995 0.391303 31.1517 1.17391C32.404 1.95651 33.2954 3.05639 33.826 4.47353L30.6424 5.96471C30.3452 5.18211 29.8465 4.55814 29.1461 4.09281C28.4457 3.62748 27.6604 3.39481 26.7902 3.39481C26.0898 3.39481 25.538 3.55345 25.1347 3.87072C24.7315 4.18799 24.5298 4.60044 24.5298 5.10808C24.5298 5.42535 24.6147 5.70032 24.7845 5.93298C24.9543 6.16565 25.1878 6.35602 25.4849 6.50408C25.8033 6.65214 26.1641 6.78962 26.5673 6.91653L29.3371 7.74143C30.7591 8.16446 31.8521 8.79901 32.6162 9.64507C33.4015 10.4911 33.7942 11.5275 33.7942 12.7543C33.7942 13.7908 33.5182 14.7108 32.9664 15.5146C32.4146 16.2972 31.6505 16.9106 30.6742 17.3548C29.6979 17.799 28.5518 18.021 27.2359 18.021Z" fill="white"/>
<path d="M37.516 24.652C37.0491 24.652 36.5927 24.6097 36.147 24.5251C35.7013 24.4617 35.2981 24.3453 34.9373 24.1761V20.6861C35.2132 20.7496 35.5422 20.813 35.9242 20.8765C36.3274 20.9399 36.6989 20.9717 37.0385 20.9717C37.9935 20.9717 38.6833 20.7496 39.1078 20.3054C39.5535 19.8612 39.9462 19.2796 40.2857 18.5604L41.4318 15.8953L41.3682 19.3853L33.823 0.380728H38.3119L43.5967 14.4041H42.0049L47.2579 0.380728H51.7786L44.2334 19.3853C43.7877 20.5063 43.2465 21.4582 42.6098 22.2408C41.9731 23.0234 41.2302 23.6156 40.3813 24.0175C39.5535 24.4405 38.5984 24.652 37.516 24.652Z" fill="white"/>
<path d="M52.7954 17.6403V0.380728H56.7112V3.77554L56.3929 3.17272C56.7961 2.1363 57.4541 1.35369 58.3667 0.824908C59.3006 0.274969 60.383 0 61.614 0C62.8874 0 64.0123 0.274969 64.9886 0.824908C65.9862 1.37485 66.7608 2.14687 67.3127 3.14099C67.8645 4.11396 68.1404 5.24556 68.1404 6.5358V17.6403H63.9699V7.51935C63.9699 6.75789 63.8213 6.1022 63.5242 5.55226C63.227 5.00232 62.8131 4.57929 62.2825 4.28317C61.7732 3.9659 61.1683 3.80726 60.4679 3.80726C59.7887 3.80726 59.1838 3.9659 58.6532 4.28317C58.1226 4.57929 57.7088 5.00232 57.4116 5.55226C57.1145 6.1022 56.9659 6.75789 56.9659 7.51935V17.6403H52.7954Z" fill="white"/>
<path d="M78.7346 18.021C77.0155 18.021 75.4661 17.6297 74.0866 16.8471C72.7282 16.0434 71.6564 14.9647 70.8711 13.611C70.0858 12.2361 69.6932 10.6921 69.6932 8.9788C69.6932 7.26553 70.0858 5.73205 70.8711 4.37835C71.6564 3.02466 72.7282 1.95651 74.0866 1.17391C75.4661 0.391303 77.0155 0 78.7346 0C79.9656 0 81.1117 0.222092 82.1729 0.666273C83.2341 1.0893 84.1468 1.68154 84.9109 2.443C85.6961 3.1833 86.2586 4.07166 86.5982 5.10808L82.937 6.69444C82.6187 5.82723 82.0774 5.12923 81.3134 4.60044C80.5705 4.07166 79.7109 3.80726 78.7346 3.80726C77.822 3.80726 77.0049 4.02935 76.2832 4.47353C75.5829 4.91771 75.031 5.53111 74.6278 6.31371C74.2245 7.09631 74.0229 7.99525 74.0229 9.01052C74.0229 10.0258 74.2245 10.9247 74.6278 11.7073C75.031 12.4899 75.5829 13.1033 76.2832 13.5475C77.0049 13.9917 77.822 14.2138 78.7346 14.2138C79.7322 14.2138 80.6024 13.9494 81.3452 13.4206C82.088 12.8918 82.6187 12.1832 82.937 11.2949L86.5982 12.9447C86.2586 13.9177 85.7068 14.7954 84.9427 15.5781C84.1786 16.3395 83.266 16.9423 82.2048 17.3865C81.1436 17.8095 79.9869 18.021 78.7346 18.021Z" fill="white"/>
</svg>
