<svg width="182" height="53" viewBox="0 0 182 53" fill="none" xmlns="http://www.w3.org/2000/svg">
<circle cx="20.971" cy="20.971" r="20.971" fill="#E6FFB1"/>
<path d="M19.5962 32.5643C20.259 33.2299 21.3633 33.2299 22.0575 32.5643L28.1794 26.4166C32.4079 22.1703 32.2501 15.1353 27.643 11.1424C23.7617 7.72018 17.8922 7.72018 14.0108 11.1108C9.40346 15.1354 9.21418 22.1387 13.4743 26.4167L19.5962 32.5643ZM20.8269 14.3747C23.1936 14.3747 25.087 16.2762 25.087 18.6529C25.087 21.0296 23.1936 22.931 20.8269 22.931C18.4602 22.931 16.5667 21.0296 16.5667 18.6529C16.5669 16.2762 18.4602 14.3747 20.8269 14.3747Z" fill="#1C1C1C"/>
<path d="M69.2651 41.6738C66.6902 41.6738 64.2967 41.2042 62.0845 40.2648C59.9086 39.3255 58.0228 38.0249 56.4271 36.363C54.8677 34.665 53.7253 32.696 53 30.456L59.147 27.8006C60.1262 30.1128 61.5405 31.9373 63.3901 33.274C65.2396 34.5746 67.3249 35.225 69.6458 35.225C70.9514 35.225 72.0756 35.0262 73.0185 34.6288C73.9977 34.1953 74.7411 33.6173 75.2488 32.8947C75.7928 32.1721 76.0648 31.305 76.0648 30.2935C76.0648 29.1012 75.7022 28.1258 74.9769 27.3671C74.2878 26.5723 73.2361 25.9581 71.8218 25.5245L64.0428 23.0317C60.8877 22.0562 58.5124 20.593 56.9167 18.6421C55.321 16.6912 54.5232 14.3971 54.5232 11.7597C54.5232 9.44751 55.0853 7.40627 56.2095 5.63599C57.37 3.86571 58.9657 2.49284 60.9965 1.51738C63.0637 0.505794 65.4209 0 68.0683 0C70.4981 0 72.7284 0.433538 74.7593 1.30061C76.7901 2.13156 78.5309 3.30573 79.9815 4.82311C81.4684 6.30436 82.5745 8.05658 83.2998 10.0798L77.2072 12.7894C76.4093 10.7662 75.2126 9.21268 73.6169 8.12883C72.0212 7.00886 70.1717 6.44888 68.0683 6.44888C66.8353 6.44888 65.7473 6.66564 64.8044 7.09918C63.8615 7.49659 63.1181 8.07464 62.5741 8.83333C62.0664 9.5559 61.8125 10.423 61.8125 11.4346C61.8125 12.5545 62.1752 13.5481 62.9005 14.4151C63.6258 15.2461 64.7319 15.8964 66.2188 16.3661L73.6713 18.6963C76.8989 19.744 79.3106 21.1892 80.9063 23.0317C82.5382 24.8742 83.3542 27.1503 83.3542 29.8599C83.3542 32.1721 82.7558 34.2134 81.559 35.9836C80.3623 37.7539 78.7122 39.1449 76.6088 40.1564C74.5054 41.168 72.0575 41.6738 69.2651 41.6738Z" fill="white"/>
<path d="M93.0077 53C92.2099 53 91.4302 52.9277 90.6686 52.7832C89.907 52.6748 89.218 52.4761 88.6015 52.1871V46.226C89.0729 46.3344 89.635 46.4427 90.2878 46.5511C90.9769 46.6595 91.6115 46.7137 92.1917 46.7137C93.8237 46.7137 95.0023 46.3344 95.7276 45.5757C96.4892 44.817 97.1601 43.8235 97.7404 42.5951L99.6987 38.0429L99.5899 44.0041L86.6975 11.5429H94.3677L103.398 35.4959H100.678L109.654 11.5429H117.378L104.486 44.0041C103.724 45.9189 102.799 47.5447 101.711 48.8814C100.623 50.2181 99.3542 51.2297 97.9036 51.9162C96.4892 52.6387 94.8573 53 93.0077 53Z" fill="white"/>
<path d="M121.291 41.0235V11.5429H127.982V17.3415L127.438 16.3119C128.127 14.5416 129.252 13.2048 130.811 12.3016C132.407 11.3623 134.256 10.8926 136.36 10.8926C138.536 10.8926 140.458 11.3623 142.126 12.3016C143.83 13.241 145.154 14.5596 146.097 16.2577C147.04 17.9196 147.511 19.8524 147.511 22.0562V41.0235H140.385V23.7362C140.385 22.4356 140.131 21.3156 139.624 20.3763C139.116 19.4369 138.409 18.7144 137.502 18.2086C136.632 17.6667 135.598 17.3957 134.401 17.3957C133.241 17.3957 132.207 17.6667 131.301 18.2086C130.394 18.7144 129.687 19.4369 129.179 20.3763C128.671 21.3156 128.418 22.4356 128.418 23.7362V41.0235H121.291Z" fill="white"/>
<path d="M167.789 41.6738C164.852 41.6738 162.205 41.0055 159.847 39.6687C157.526 38.2958 155.695 36.4533 154.353 34.1411C153.011 31.7928 152.34 29.1554 152.34 26.229C152.34 23.3027 153.011 20.6834 154.353 18.3712C155.695 16.059 157.526 14.2345 159.847 12.8977C162.205 11.561 164.852 10.8926 167.789 10.8926C169.893 10.8926 171.851 11.272 173.664 12.0307C175.478 12.7532 177.037 13.7648 178.343 15.0654C179.685 16.3299 180.646 17.8473 181.226 19.6176L174.97 22.3272C174.426 20.8459 173.501 19.6537 172.196 18.7505C170.926 17.8473 169.458 17.3957 167.789 17.3957C166.23 17.3957 164.834 17.7751 163.601 18.5337C162.404 19.2924 161.461 20.3402 160.772 21.6769C160.083 23.0136 159.739 24.5491 159.739 26.2832C159.739 28.0174 160.083 29.5528 160.772 30.8896C161.461 32.2263 162.404 33.274 163.601 34.0327C164.834 34.7914 166.23 35.1708 167.789 35.1708C169.494 35.1708 170.981 34.7192 172.25 33.816C173.519 32.9127 174.426 31.7025 174.97 30.1851L181.226 33.0031C180.646 34.665 179.703 36.1643 178.397 37.501C177.092 38.8016 175.532 39.8313 173.719 40.59C171.906 41.3125 169.929 41.6738 167.789 41.6738Z" fill="white"/>
</svg>
