<svg width="107" height="31" viewBox="0 0 107 31" fill="none" xmlns="http://www.w3.org/2000/svg">
<circle cx="10.8384" cy="10.8384" r="10.8384" fill="#E0EBA5"/>
<path d="M10.2664 16.8874C10.6137 17.2261 11.1923 17.2261 11.5561 16.8874L14.7638 13.7582C16.9795 11.5968 16.8968 8.0159 14.4828 5.98353C12.449 4.24158 9.37357 4.24158 7.33981 5.96744C4.92569 8.01597 4.82652 11.5807 7.05874 13.7582L10.2664 16.8874ZM10.9113 7.62878C12.1514 7.62878 13.1435 8.59663 13.1435 9.80638C13.1435 11.0161 12.1514 11.984 10.9113 11.984C9.67118 11.984 8.67904 11.0161 8.67904 9.80638C8.67916 8.59663 9.67118 7.62878 10.9113 7.62878Z" fill="#1C1C1C"/>
<path d="M33.5718 22.2133C31.2957 22.2133 29.3074 21.6788 27.6069 20.6099C25.9326 19.5149 24.7815 18.0418 24.1536 16.1907L27.9994 14.3526C28.5488 15.5519 29.3074 16.4905 30.2754 17.1684C31.2696 17.8463 32.3683 18.1852 33.5718 18.1852C34.5136 18.1852 35.2592 17.9766 35.8086 17.5595C36.358 17.1423 36.6327 16.5948 36.6327 15.9169C36.6327 15.4998 36.5149 15.1608 36.2795 14.9001C36.0702 14.6133 35.7693 14.3787 35.3769 14.1962C35.0107 13.9876 34.6051 13.8181 34.1604 13.6878L30.6678 12.7101C28.8627 12.1886 27.4892 11.3934 26.5474 10.3245C25.6318 9.25554 25.1739 7.99106 25.1739 6.53103C25.1739 5.22743 25.5009 4.0933 26.155 3.12864C26.8352 2.1379 27.7639 1.36878 28.9412 0.821269C30.1446 0.273757 31.5181 0 33.0616 0C35.0761 0 36.855 0.482332 38.3986 1.44699C39.9421 2.41166 41.0409 3.7674 41.6949 5.51422L37.7707 7.35229C37.4044 6.38763 36.7896 5.61851 35.9263 5.04492C35.063 4.47134 34.095 4.18455 33.0224 4.18455C32.159 4.18455 31.4788 4.38009 30.9818 4.77117C30.4847 5.16225 30.2362 5.67065 30.2362 6.29638C30.2362 6.68746 30.3408 7.02639 30.5501 7.31318C30.7594 7.59997 31.0472 7.83462 31.4134 8.01713C31.8059 8.19963 32.2506 8.3691 32.7477 8.52553L36.1618 9.54233C37.9146 10.0638 39.2619 10.8459 40.2037 11.8888C41.1717 12.9317 41.6557 14.2092 41.6557 15.7214C41.6557 16.9989 41.3156 18.133 40.6354 19.1238C39.9552 20.0884 39.0134 20.8445 37.8099 21.392C36.6065 21.9395 35.1938 22.2133 33.5718 22.2133Z" fill="#1C1C1C"/>
<path d="M46.2433 30.3869C45.6678 30.3869 45.1053 30.3347 44.5559 30.2304C44.0065 30.1522 43.5095 30.0088 43.0647 29.8002V25.4984C43.4048 25.5766 43.8103 25.6548 44.2812 25.733C44.7783 25.8112 45.2361 25.8503 45.6547 25.8503C46.832 25.8503 47.6822 25.5766 48.2055 25.0291C48.7548 24.4816 49.2388 23.7646 49.6574 22.8781L51.0701 19.5931L50.9916 23.8949L41.6912 0.469297H47.2244L53.7386 17.755H51.7765L58.2515 0.469297H63.8239L54.5235 23.8949C53.9741 25.2768 53.3069 26.45 52.5221 27.4147C51.7373 28.3793 50.8216 29.1093 49.7751 29.6047C48.7548 30.1261 47.5776 30.3869 46.2433 30.3869Z" fill="#1C1C1C"/>
<path d="M65.0772 21.744V0.469297H69.904V4.65385L69.5115 3.91079C70.0086 2.63327 70.8196 1.66861 71.9446 1.01681C73.0957 0.338936 74.4299 0 75.9473 0C77.517 0 78.9035 0.338936 80.107 1.01681C81.3365 1.69468 82.2914 2.64631 82.9716 3.87169C83.6518 5.071 83.9919 6.46585 83.9919 8.05623V21.744H78.8512V9.26858C78.8512 8.32999 78.6681 7.52176 78.3018 6.84389C77.9355 6.16602 77.4254 5.64458 76.7714 5.27957C76.1435 4.88849 75.3979 4.69295 74.5346 4.69295C73.6974 4.69295 72.9518 4.88849 72.2977 5.27957C71.6437 5.64458 71.1336 6.16602 70.7673 6.84389C70.401 7.52176 70.2179 8.32999 70.2179 9.26858V21.744H65.0772Z" fill="#1C1C1C"/>
<path d="M97.0507 22.2133C94.9316 22.2133 93.0218 21.731 91.3213 20.7663C89.647 19.7756 88.3259 18.4459 87.3579 16.7773C86.3899 15.0826 85.9059 13.1794 85.9059 11.0675C85.9059 8.95572 86.3899 7.0655 87.3579 5.3969C88.3259 3.72829 89.647 2.41166 91.3213 1.44699C93.0218 0.482332 94.9316 0 97.0507 0C98.5681 0 99.9808 0.273757 101.289 0.821269C102.597 1.34271 103.722 2.07272 104.664 3.01131C105.632 3.92383 106.325 5.01885 106.744 6.29638L102.231 8.25177C101.838 7.18282 101.171 6.32245 100.229 5.67065C99.3137 5.01885 98.2541 4.69295 97.0507 4.69295C95.9258 4.69295 94.9185 4.96671 94.0291 5.51422C93.1657 6.06173 92.4855 6.81782 91.9885 7.78248C91.4914 8.74714 91.2429 9.8552 91.2429 11.1067C91.2429 12.3581 91.4914 13.4662 91.9885 14.4308C92.4855 15.3955 93.1657 16.1516 94.0291 16.6991C94.9185 17.2466 95.9258 17.5204 97.0507 17.5204C98.2803 17.5204 99.3529 17.1945 100.269 16.5427C101.184 15.8909 101.838 15.0174 102.231 13.9224L106.744 15.956C106.325 17.1553 105.645 18.2373 104.703 19.202C103.761 20.1406 102.636 20.8836 101.328 21.4311C100.02 21.9526 98.5942 22.2133 97.0507 22.2133Z" fill="#1C1C1C"/>
</svg>
