<svg width="25" height="25" viewBox="0 0 25 25" fill="none" xmlns="http://www.w3.org/2000/svg">
<circle cx="12.2661" cy="12.2661" r="12.2661" fill="#393939"/>
<path d="M11.4619 19.047C11.8496 19.4363 12.4955 19.4363 12.9016 19.047L16.4823 15.4512C18.9555 12.9675 18.8632 8.8527 16.1685 6.51727C13.8983 4.51557 10.4652 4.51557 8.19497 6.49878C5.50013 8.85278 5.38942 12.949 7.88121 15.4513L11.4619 19.047ZM12.1817 8.40785C13.566 8.40785 14.6735 9.52003 14.6735 10.9102C14.6735 12.3003 13.566 13.4125 12.1817 13.4125C10.7974 13.4125 9.68993 12.3003 9.68993 10.9102C9.69006 9.52003 10.7974 8.40785 12.1817 8.40785Z" fill="#E0EBA5"/>
</svg>
