<svg width="12" height="16" viewBox="0 0 12 16" fill="none" xmlns="http://www.w3.org/2000/svg">
<path d="M3.70337 9.94693C3.52664 9.94693 3.36764 9.8763 3.22629 9.71719C2.99655 9.45221 2.97893 9.11649 3.20866 8.85139C3.3854 8.62166 3.73876 8.42731 4.23345 8.25069C4.27853 8.23717 4.32475 8.2225 4.37183 8.20756C4.50934 8.16391 4.65413 8.11796 4.79891 8.0917C4.92265 7.86197 5.04627 7.61461 5.15226 7.34961C5.25825 7.10225 5.34662 6.87252 5.41724 6.64292C5.13451 6.16583 4.86954 5.6005 4.88714 5.15878C4.88714 4.77006 5.11687 4.5227 5.48785 4.4697C5.82359 4.43432 6.07092 4.59344 6.17693 4.91141C6.3183 5.3355 6.17693 5.98921 6.01794 6.55455C6.15931 6.78428 6.31829 7.0139 6.51267 7.24363C6.53732 7.27377 6.56156 7.30349 6.5855 7.33285C6.71593 7.49281 6.83768 7.64212 6.97202 7.79133C7.59049 7.79133 8.17344 7.84432 8.52691 8.03868C8.84488 8.21542 8.96862 8.4804 8.88025 8.79838C8.77425 9.15172 8.49154 9.32847 8.13816 9.27547C7.6788 9.22247 7.14874 8.78074 6.74239 8.35679C6.72678 8.35776 6.71106 8.35873 6.69524 8.35971C6.42454 8.37648 6.12412 8.39508 5.82358 8.44515L5.82005 8.4457C5.5915 8.48089 5.36314 8.51605 5.15214 8.56889C5.09307 8.68714 5.02158 8.79297 4.95837 8.88653C4.94602 8.90482 4.93398 8.92265 4.92241 8.94C4.62206 9.38172 4.33934 9.68209 4.07434 9.84108C3.95072 9.91158 3.82711 9.94695 3.70336 9.94695L3.70337 9.94693ZM4.39244 8.78076C4.02134 8.9045 3.73874 9.06349 3.615 9.20484C3.562 9.25783 3.562 9.29321 3.63262 9.38158C3.63519 9.38414 3.63765 9.3867 3.64008 9.38922C3.6712 9.4215 3.69586 9.44708 3.82699 9.38158C3.9861 9.27546 4.19808 9.06348 4.39244 8.78076ZM7.53749 8.37441C7.80248 8.60414 8.03222 8.74551 8.20894 8.76312C8.27956 8.78074 8.31493 8.78074 8.36793 8.65713C8.38555 8.62175 8.38555 8.60413 8.27956 8.53338C8.12057 8.46276 7.85557 8.39202 7.53747 8.37439L7.53749 8.37441ZM5.80599 7.226C5.76893 7.32486 5.73186 7.41504 5.70083 7.49056C5.68749 7.52302 5.67526 7.55278 5.66462 7.57934C5.63298 7.66374 5.59501 7.74182 5.55827 7.81737C5.53348 7.86836 5.50924 7.9182 5.48788 7.96806L5.48973 7.96769C5.57749 7.95019 5.66524 7.93268 5.75287 7.93268C5.81193 7.92679 5.87098 7.91892 5.93003 7.91105C6.04766 7.89537 6.16528 7.87969 6.28296 7.87969C6.19459 7.77369 6.12397 7.68533 6.0886 7.63233C6.05678 7.58458 6.01779 7.52965 5.97485 7.46917C5.92248 7.39539 5.86423 7.31335 5.80599 7.22598L5.80599 7.226ZM5.55863 5.01741C5.55292 5.01883 5.54733 5.02014 5.54187 5.02142C5.47977 5.03595 5.43489 5.04646 5.43489 5.1764C5.43489 5.35313 5.50551 5.60048 5.64688 5.90085C5.7175 5.5475 5.73525 5.26477 5.68225 5.10578C5.647 5.01741 5.62925 5.01741 5.55863 5.01741V5.01741Z" fill="#B8B8B8"/>
<path d="M3.70337 9.94693C3.52664 9.94693 3.36764 9.8763 3.22629 9.71719C2.99655 9.45221 2.97893 9.11649 3.20866 8.85139C3.3854 8.62166 3.73876 8.42731 4.23345 8.25069C4.27853 8.23717 4.32475 8.2225 4.37183 8.20756C4.50934 8.16391 4.65413 8.11796 4.79891 8.0917C4.92265 7.86197 5.04627 7.61461 5.15226 7.34961C5.25825 7.10225 5.34662 6.87252 5.41724 6.64292C5.13451 6.16583 4.86954 5.6005 4.88714 5.15878C4.88714 4.77006 5.11687 4.5227 5.48785 4.4697C5.82359 4.43432 6.07092 4.59344 6.17693 4.91141C6.3183 5.3355 6.17693 5.98921 6.01794 6.55455C6.15931 6.78428 6.31829 7.0139 6.51267 7.24363C6.53732 7.27377 6.56156 7.30349 6.5855 7.33285C6.71593 7.49281 6.83768 7.64212 6.97202 7.79133C7.59049 7.79133 8.17344 7.84432 8.52691 8.03868C8.84488 8.21542 8.96862 8.4804 8.88025 8.79838C8.77425 9.15172 8.49154 9.32847 8.13816 9.27547C7.6788 9.22247 7.14874 8.78074 6.74239 8.35679C6.72678 8.35776 6.71106 8.35873 6.69524 8.35971C6.42454 8.37648 6.12412 8.39508 5.82358 8.44515L5.82005 8.4457C5.5915 8.48089 5.36314 8.51605 5.15214 8.56889C5.09307 8.68714 5.02158 8.79297 4.95837 8.88653C4.94602 8.90482 4.93398 8.92265 4.92241 8.94C4.62206 9.38172 4.33934 9.68209 4.07434 9.84108C3.95072 9.91158 3.82711 9.94695 3.70336 9.94695L3.70337 9.94693ZM4.39244 8.78076C4.02134 8.9045 3.73874 9.06349 3.615 9.20484C3.562 9.25783 3.562 9.29321 3.63262 9.38158C3.63519 9.38414 3.63765 9.3867 3.64008 9.38922C3.6712 9.4215 3.69586 9.44708 3.82699 9.38158C3.9861 9.27546 4.19808 9.06348 4.39244 8.78076ZM7.53749 8.37441C7.80248 8.60414 8.03222 8.74551 8.20894 8.76312C8.27956 8.78074 8.31493 8.78074 8.36793 8.65713C8.38555 8.62175 8.38555 8.60413 8.27956 8.53338C8.12057 8.46276 7.85557 8.39202 7.53747 8.37439L7.53749 8.37441ZM5.80599 7.226C5.76893 7.32486 5.73186 7.41504 5.70083 7.49056C5.68749 7.52302 5.67526 7.55278 5.66462 7.57934C5.63298 7.66374 5.59501 7.74182 5.55827 7.81737C5.53348 7.86836 5.50924 7.9182 5.48788 7.96806L5.48973 7.96769C5.57749 7.95019 5.66524 7.93268 5.75287 7.93268C5.81193 7.92679 5.87098 7.91892 5.93003 7.91105C6.04766 7.89537 6.16528 7.87969 6.28296 7.87969C6.19459 7.77369 6.12397 7.68533 6.0886 7.63233C6.05678 7.58458 6.01779 7.52965 5.97485 7.46917C5.92248 7.39539 5.86423 7.31335 5.80599 7.22598L5.80599 7.226ZM5.55863 5.01741C5.55292 5.01883 5.54733 5.02014 5.54187 5.02142C5.47977 5.03595 5.43489 5.04646 5.43489 5.1764C5.43489 5.35313 5.50551 5.60048 5.64688 5.90085C5.7175 5.5475 5.73525 5.26477 5.68225 5.10578C5.647 5.01741 5.62925 5.01741 5.55863 5.01741V5.01741Z" stroke="#B8B8B8"/>
<path d="M3.50879 11.1663C3.50879 11.0073 3.61478 10.9365 3.73852 10.9365H4.32159C4.6927 10.9365 5.04604 11.1663 5.04604 11.6432C5.04604 12.0496 4.79868 12.3499 4.33935 12.3499H3.98601V12.7916C3.98601 12.9506 3.88002 13.039 3.75628 13.039C3.61491 13.039 3.52655 12.9506 3.52655 12.7916L3.52642 11.1662L3.50879 11.1663ZM3.98588 11.9259H4.23323C4.4276 11.9259 4.55121 11.7846 4.55121 11.6432C4.55121 11.4489 4.42747 11.3605 4.23323 11.3605H3.98588V11.9259Z" fill="#B8B8B8"/>
<path d="M3.50879 11.1663C3.50879 11.0073 3.61478 10.9365 3.73852 10.9365H4.32159C4.6927 10.9365 5.04604 11.1663 5.04604 11.6432C5.04604 12.0496 4.79868 12.3499 4.33935 12.3499H3.98601V12.7916C3.98601 12.9506 3.88002 13.039 3.75628 13.039C3.61491 13.039 3.52655 12.9506 3.52655 12.7916L3.52642 11.1662L3.50879 11.1663ZM3.98588 11.9259H4.23323C4.4276 11.9259 4.55121 11.7846 4.55121 11.6432C4.55121 11.4489 4.42747 11.3605 4.23323 11.3605H3.98588V11.9259Z" stroke="#B8B8B8"/>
<path d="M5.29395 11.1663C5.29395 11.0073 5.39994 10.9365 5.52368 10.9365H6.08914C6.70761 10.9365 7.06095 11.4312 7.06095 11.9613C7.06095 12.6504 6.6016 13.0215 6.08914 13.0215H5.52368C5.39994 13.0215 5.29395 12.9331 5.29395 12.7918V11.1663ZM5.77103 12.5798H6.01839C6.3895 12.5798 6.56609 12.3324 6.56609 11.9613C6.56609 11.608 6.38935 11.3782 6.036 11.3782H5.77101L5.77103 12.5798Z" fill="#B8B8B8"/>
<path d="M5.29395 11.1663C5.29395 11.0073 5.39994 10.9365 5.52368 10.9365H6.08914C6.70761 10.9365 7.06095 11.4312 7.06095 11.9613C7.06095 12.6504 6.6016 13.0215 6.08914 13.0215H5.52368C5.39994 13.0215 5.29395 12.9331 5.29395 12.7918V11.1663ZM5.77103 12.5798H6.01839C6.3895 12.5798 6.56609 12.3324 6.56609 11.9613C6.56609 11.608 6.38935 11.3782 6.036 11.3782H5.77101L5.77103 12.5798Z" stroke="#B8B8B8"/>
<path d="M7.34278 11.1663C7.34278 11.0073 7.44877 10.9365 7.57251 10.9365H8.29696C8.43833 10.9365 8.52669 11.0249 8.52669 11.1485C8.52669 11.2899 8.43832 11.3605 8.29696 11.3605H7.80224V11.7316H8.22632C8.36768 11.7316 8.45605 11.82 8.45605 11.9436C8.45605 12.085 8.36768 12.1556 8.22632 12.1556H7.80224V12.7563C7.80224 12.9153 7.69624 13.0036 7.5725 13.0036C7.43114 13.0036 7.34277 12.9153 7.34277 12.7563L7.34278 11.1663Z" fill="#B8B8B8"/>
<path d="M7.34278 11.1663C7.34278 11.0073 7.44877 10.9365 7.57251 10.9365H8.29696C8.43833 10.9365 8.52669 11.0249 8.52669 11.1485C8.52669 11.2899 8.43832 11.3605 8.29696 11.3605H7.80224V11.7316H8.22632C8.36768 11.7316 8.45605 11.82 8.45605 11.9436C8.45605 12.085 8.36768 12.1556 8.22632 12.1556H7.80224V12.7563C7.80224 12.9153 7.69624 13.0036 7.5725 13.0036C7.43114 13.0036 7.34277 12.9153 7.34277 12.7563L7.34278 11.1663Z" stroke="#B8B8B8"/>
<path d="M7.56119 1.6365V3.17963C7.56119 3.76495 8.04768 4.25144 8.633 4.25144H10.5412C10.685 4.25144 10.8298 4.1587 10.8814 4.02961C10.9312 3.9052 10.905 3.74388 10.8137 3.62967L10.8142 3.62928L10.8063 3.62139L8.19123 1.00632C8.09984 0.914931 7.98177 0.885504 7.87966 0.906406H2.09543C1.4395 0.906406 0.9 1.4459 0.9 2.10184V13.9046C0.9 14.5605 1.4395 15.1 2.09543 15.1H9.74601C10.4019 15.1 10.9414 14.5605 10.9414 13.9046V4.94651H10.9422L10.9407 4.93414C10.9182 4.75404 10.7789 4.58153 10.5588 4.58153H10.5306L10.5284 4.5829C10.3451 4.59913 10.1938 4.7603 10.1938 4.94654V13.8869C10.1938 14.1321 9.99122 14.3346 9.7461 14.3346H2.07786C1.83274 14.3346 1.63016 14.132 1.63016 13.8869V2.0842C1.63016 1.83907 1.83274 1.6365 2.07786 1.6365H7.56119ZM8.63279 3.50376C8.44067 3.50376 8.29107 3.35417 8.29107 3.16204V2.13131L9.66352 3.50376H8.63279Z" fill="#B8B8B8" stroke="#B8B8B8" stroke-width="0.2"/>
</svg>
