<svg width="27" height="25" viewBox="0 0 27 25" fill="none" xmlns="http://www.w3.org/2000/svg">
<g clip-path="url(#clip0_3196_131602)">
<path d="M19.4559 5.98145V8.06452H24.2206C24.3942 8.06453 24.563 8.12229 24.7012 8.22898C24.8394 8.33566 24.9393 8.48539 24.9858 8.65524L26.9711 15.9133C27.0038 16.0331 27.0088 16.1589 26.9858 16.281C26.9627 16.4031 26.9122 16.5181 26.8381 16.6171C26.764 16.716 26.6684 16.7963 26.5587 16.8515C26.4491 16.9067 26.3283 16.9355 26.2059 16.9355H14.2941V20.2149C16.3747 20.4931 18.2647 21.8202 18.2647 23.3871V24.1935C18.2647 24.4074 18.1811 24.6126 18.0321 24.7638C17.8832 24.915 17.6812 25 17.4706 25H9.5294C9.31878 25 9.1168 24.915 8.96787 24.7638C8.81894 24.6126 8.73528 24.4074 8.73528 24.1935V23.3871C8.73528 21.8202 10.6253 20.4927 12.7059 20.2149V16.9355H0.794074C0.671667 16.9355 0.550918 16.9067 0.441258 16.8515C0.331598 16.7963 0.235996 16.716 0.16192 16.6171C0.0878432 16.5181 0.037297 16.4031 0.0142289 16.281C-0.00883921 16.1589 -0.00380461 16.0331 0.0289395 15.9133L2.01424 8.65524C2.06067 8.48539 2.16063 8.33566 2.29881 8.22898C2.437 8.12229 2.60579 8.06453 2.77938 8.06452H17.8677V5.98145C16.4978 5.62339 15.4853 4.36048 15.4853 2.85726V0.806452C15.4853 0.592567 15.569 0.387443 15.7179 0.236204C15.8668 0.0849652 16.0688 0 16.2794 0L21.0441 0C21.2548 0 21.4567 0.0849652 21.6057 0.236204C21.7546 0.387443 21.8383 0.592567 21.8383 0.806452V2.85726C21.8383 4.36008 20.8258 5.62339 19.4559 5.98145ZM8.11586 15.3226H12.7059V12.0968C12.7059 11.8829 12.7895 11.6778 12.9385 11.5265C13.0874 11.3753 13.2894 11.2903 13.5 11.2903C13.7106 11.2903 13.9126 11.3753 14.0615 11.5265C14.2105 11.6778 14.2941 11.8829 14.2941 12.0968V15.3226H18.8841L18.2802 12.2548C18.2581 12.1503 18.2567 12.0424 18.276 11.9374C18.2953 11.8323 18.335 11.7322 18.3928 11.6429C18.4505 11.5535 18.5252 11.4768 18.6125 11.417C18.6997 11.3572 18.7978 11.3156 18.901 11.2947C19.0042 11.2737 19.1104 11.2738 19.2136 11.2949C19.3167 11.3161 19.4147 11.3578 19.5019 11.4177C19.589 11.4777 19.6636 11.5546 19.7212 11.644C19.7788 11.7334 19.8183 11.8336 19.8375 11.9387L20.5041 15.3226H25.1613L23.6167 9.67742H3.38291L1.83874 15.3226H6.49626L7.16252 11.9387C7.18168 11.8336 7.22121 11.7334 7.27882 11.644C7.33643 11.5546 7.41097 11.4777 7.49811 11.4177C7.58525 11.3578 7.68325 11.3161 7.78641 11.2949C7.88958 11.2738 7.99584 11.2737 8.09904 11.2947C8.20224 11.3156 8.30031 11.3572 8.38755 11.417C8.47478 11.4768 8.54945 11.5535 8.60721 11.6429C8.66497 11.7322 8.70467 11.8323 8.72399 11.9374C8.74332 12.0424 8.74189 12.1503 8.71979 12.2548L8.11586 15.3226ZM13.5 21.7742C11.8959 21.7742 10.3235 22.7327 10.3235 23.3871H16.6765C16.6765 22.7327 15.1041 21.7742 13.5 21.7742ZM17.0735 1.6129V2.85726C17.0735 3.28503 17.2409 3.69527 17.5387 3.99775C17.8366 4.30023 18.2406 4.47016 18.6618 4.47016C19.083 4.47016 19.487 4.30023 19.7848 3.99775C20.0827 3.69527 20.25 3.28503 20.25 2.85726V1.6129H17.0735ZM5.16174 7.25806C4.95112 7.25806 4.74913 7.1731 4.60021 7.02186C4.45128 6.87062 4.36762 6.6655 4.36762 6.45161C4.36762 6.23773 4.45128 6.0326 4.60021 5.88137C4.74913 5.73013 4.95112 5.64516 5.16174 5.64516H11.1176C11.3283 5.64516 11.5302 5.73013 11.6792 5.88137C11.8281 6.0326 11.9118 6.23773 11.9118 6.45161C11.9118 6.6655 11.8281 6.87062 11.6792 7.02186C11.5302 7.1731 11.3283 7.25806 11.1176 7.25806H5.16174ZM5.16174 4.83871C4.95112 4.83871 4.74913 4.75374 4.60021 4.60251C4.45128 4.45127 4.36762 4.24614 4.36762 4.03226C4.36762 3.81837 4.45128 3.61325 4.60021 3.46201C4.74913 3.31077 4.95112 3.22581 5.16174 3.22581H11.1176C11.3283 3.22581 11.5302 3.31077 11.6792 3.46201C11.8281 3.61325 11.9118 3.81837 11.9118 4.03226C11.9118 4.24614 11.8281 4.45127 11.6792 4.60251C11.5302 4.75374 11.3283 4.83871 11.1176 4.83871H5.16174ZM5.16174 2.41935C4.95112 2.41935 4.74913 2.33439 4.60021 2.18315C4.45128 2.03191 4.36762 1.82679 4.36762 1.6129C4.36762 1.39902 4.45128 1.19389 4.60021 1.04266C4.74913 0.891417 4.95112 0.806452 5.16174 0.806452H11.1176C11.3283 0.806452 11.5302 0.891417 11.6792 1.04266C11.8281 1.19389 11.9118 1.39902 11.9118 1.6129C11.9118 1.82679 11.8281 2.03191 11.6792 2.18315C11.5302 2.33439 11.3283 2.41935 11.1176 2.41935H5.16174Z" fill="#BABABA"/>
</g>
<defs>
<clipPath id="clip0_3196_131602">
<rect width="27" height="25" fill="white"/>
</clipPath>
</defs>
</svg>
