<svg width="7" height="12" viewBox="0 0 7 12" fill="none" xmlns="http://www.w3.org/2000/svg">
<path d="M6.70706 5.33773L1.55674 0.265084C1.47214 0.180933 1.3715 0.114141 1.26062 0.06856C1.14973 0.0229792 1.0308 -0.000488281 0.910672 -0.000488281C0.790547 -0.000488281 0.671612 0.0229792 0.560726 0.06856C0.44984 0.114141 0.349199 0.180933 0.264607 0.265084C0.0951276 0.4333 0 0.660853 0 0.898042C0 1.13523 0.0951276 1.36278 0.264607 1.531L4.76886 6.02007L0.264607 10.4643C0.0951276 10.6325 0 10.86 0 11.0972C0 11.3344 0.0951276 11.562 0.264607 11.7302C0.348882 11.815 0.449381 11.8825 0.560282 11.9287C0.671182 11.975 0.790279 11.999 0.910672 11.9995C1.03106 11.999 1.15016 11.975 1.26106 11.9287C1.37196 11.8825 1.47246 11.815 1.55674 11.7302L6.70706 6.65752C6.79942 6.57345 6.87314 6.47141 6.92355 6.35784C6.97397 6.24426 7 6.12162 7 5.99763C7 5.87364 6.97397 5.75099 6.92355 5.63742C6.87314 5.52384 6.79942 5.42181 6.70706 5.33773Z" fill="#BABABA"/>
</svg>
