<svg width="356" height="289" viewBox="0 0 356 289" fill="none" xmlns="http://www.w3.org/2000/svg">
<circle cx="142.291" cy="93.4793" r="93.4793" fill="#CEDCF4"/>
<path d="M46.1337 231.904C46.1337 231.904 -13.7468 185.135 3.3115 162.815C20.3714 140.495 46.1337 231.904 46.1337 231.904Z" fill="#E0EBA5"/>
<path d="M46.1338 232.164C46.0774 232.164 46.0209 232.146 45.9742 232.109C45.8242 231.992 30.8376 220.237 18.1322 205.902C10.6598 197.472 5.42353 189.811 2.56678 183.129C-1.02672 174.716 -0.846167 167.828 3.10524 162.657C5.26392 159.833 7.69021 158.656 10.3148 159.157C14.1131 159.883 18.3724 164.179 22.9767 171.922C26.6363 178.076 30.5329 186.424 34.5601 196.734C41.4134 214.275 46.3353 231.661 46.3837 231.834C46.4143 231.942 46.3724 232.058 46.2789 232.12C46.2354 232.15 46.1838 232.164 46.1338 232.164ZM9.16373 159.567C7.14369 159.567 5.24942 160.708 3.51957 162.973C-0.310919 167.984 -0.470533 174.697 3.04559 182.925C5.87815 189.556 11.0854 197.17 18.5207 205.559C29.7107 218.183 42.6741 228.801 45.6598 231.197C44.6248 227.623 40.0962 212.333 34.0748 196.921C30.0589 186.638 26.1736 178.318 22.5301 172.188C18.0048 164.579 13.8632 160.366 10.2181 159.668C9.8618 159.601 9.51034 159.567 9.16373 159.567Z" fill="#393939"/>
<path d="M46.0377 231.957L4.552 161.366L4.73095 161.261L46.2183 231.851L46.0377 231.957Z" fill="#393939"/>
<path d="M16.475 181.544C16.4638 181.544 16.4525 181.542 16.4428 181.539L0.592041 176.148L0.659739 175.951L16.3912 181.302L18.587 165.983L18.7933 166.012L16.5782 181.455C16.5734 181.486 16.5556 181.513 16.5299 181.529C16.5137 181.539 16.4944 181.544 16.475 181.544Z" fill="#393939"/>
<path d="M26.1805 198.056C26.1708 198.056 26.1628 198.056 26.1531 198.053L8.51929 193.39L8.5725 193.189L26.0918 197.82L28.0071 182.258L28.2134 182.284L26.2837 197.966C26.2788 197.996 26.2627 198.022 26.2385 198.04C26.2208 198.051 26.1999 198.057 26.1805 198.057" fill="#393939"/>
<path d="M35.8178 214.464C35.8065 214.464 35.7968 214.464 35.7871 214.459L22.5029 210.412L22.5626 210.214L35.7178 214.222L36.1321 201.873L36.3401 201.879L35.9209 214.364C35.9193 214.396 35.9032 214.426 35.8774 214.444C35.8597 214.457 35.8387 214.464 35.8178 214.464Z" fill="#393939"/>
<path d="M45.7407 234.572C45.7407 234.572 36.1033 125.426 73.6956 125.356C117.317 125.276 45.7407 234.571 45.7407 234.571" fill="#E0EBA5"/>
<path d="M45.7415 234.832C45.7205 234.832 45.6996 234.828 45.6786 234.823C45.5706 234.796 45.4916 234.704 45.4819 234.595C45.4642 234.396 43.736 214.436 44.6355 191.884C45.1643 178.632 46.4847 167.09 48.5579 157.577C51.1551 145.658 54.955 136.899 59.8495 131.544C63.7493 127.275 68.4085 125.106 73.6947 125.097C73.7108 125.097 73.7286 125.097 73.7431 125.097C79.7371 125.097 83.8997 127.175 86.1196 131.273C88.9844 136.562 88.6427 145.305 85.104 157.258C82.2843 166.781 77.4381 178.366 70.7025 191.693C59.2401 214.373 46.0897 234.512 45.9591 234.712C45.9091 234.786 45.8269 234.83 45.7415 234.83M73.7431 125.616C73.727 125.616 73.7125 125.616 73.6963 125.616C68.56 125.625 64.0314 127.737 60.2332 131.892C55.4015 137.18 51.6436 145.858 49.0658 157.686C46.999 167.171 45.6834 178.683 45.1547 191.903C44.355 211.945 45.6351 229.934 45.9382 233.788C48.2629 230.182 59.9349 211.845 70.2399 191.455C76.9626 178.156 81.7942 166.6 84.6058 157.108C88.1042 145.292 88.4605 136.683 85.6634 131.52C83.5402 127.602 79.5308 125.614 73.7431 125.614V125.616Z" fill="#393939"/>
<path d="M45.8408 234.599L45.6409 234.543L76.2816 125.248L76.4815 125.303L45.8408 234.599Z" fill="#393939"/>
<path d="M67.6452 156.54C67.6356 156.54 67.6259 156.54 67.6162 156.536C67.5872 156.527 67.563 156.505 67.5501 156.477L58.0029 134.792L58.1932 134.708L67.692 156.281L87.7311 143.145L87.844 143.319L67.7033 156.523C67.6855 156.534 67.6662 156.539 67.6452 156.539" fill="#393939"/>
<path d="M62.3388 175.47C62.3291 175.47 62.3194 175.47 62.3097 175.465C62.2823 175.457 62.2614 175.44 62.2469 175.415L50.2556 152.873L50.4394 152.776L62.3823 175.225L82.502 164.134L82.6036 164.316L62.3903 175.459C62.3742 175.467 62.3565 175.472 62.3388 175.472" fill="#393939"/>
<path d="M53.3569 207.512C53.3473 207.512 53.3392 207.512 53.3311 207.509C53.3005 207.501 53.2763 207.482 53.2618 207.453L45.0076 190.156L45.1946 190.065L53.3956 207.251L67.818 196.769L67.9405 196.936L53.4166 207.493C53.3988 207.506 53.3779 207.512 53.3569 207.512Z" fill="#393939"/>
<path d="M58.098 190.598C58.0609 190.598 58.027 190.578 58.0077 190.546L46.542 170.487L46.7226 170.384L58.1431 190.365L73.9068 184.408L73.981 184.604L58.135 190.591C58.1221 190.596 58.1092 190.598 58.098 190.598Z" fill="#393939"/>
<path d="M44.9824 233.314C44.9824 233.314 73.645 177.287 86.4988 192.704C101.6 210.818 44.9824 233.314 44.9824 233.314Z" fill="#E0EBA5"/>
<path d="M44.981 233.573C44.9084 233.573 44.8391 233.544 44.7891 233.488C44.7149 233.409 44.7004 233.291 44.7488 233.195C44.802 233.091 50.1673 222.641 57.1898 212.135C61.317 205.959 65.2023 200.969 68.7361 197.306C73.1841 192.696 77.1032 190.172 80.384 189.807C82.8345 189.532 84.9577 190.451 86.6972 192.538C89.059 195.372 89.828 198.491 88.9848 201.812C88.0562 205.464 85.1608 209.407 80.3743 213.533C76.5664 216.817 71.5558 220.228 65.4812 223.673C55.1489 229.533 45.176 233.515 45.0761 233.556C45.0454 233.567 45.0132 233.573 44.981 233.573ZM81.2046 190.281C80.9547 190.281 80.7 190.295 80.4404 190.324C77.2854 190.675 73.4726 193.145 69.1118 197.666C65.5989 201.306 61.7329 206.272 57.6235 212.42C51.6021 221.431 46.8011 230.397 45.5388 232.806C47.9183 231.823 56.4434 228.202 65.2297 223.217C71.2737 219.788 76.2568 216.396 80.0374 213.136C84.74 209.082 87.5807 205.228 88.4802 201.683C89.2815 198.533 88.5464 195.568 86.2974 192.87C84.8626 191.148 83.1521 190.281 81.2046 190.281Z" fill="#393939"/>
<path d="M45.0523 233.39L44.9104 233.239L87.3682 193.43L87.5101 193.581L45.0523 233.39Z" fill="#393939"/>
<path d="M75.5586 204.884C75.5296 204.884 75.5038 204.873 75.4828 204.852C75.4619 204.829 75.4522 204.799 75.4554 204.768L76.9418 191.089L77.1482 191.111L75.6747 204.666L87.9997 203.715L88.0158 203.923L75.5667 204.884C75.5667 204.884 75.5602 204.884 75.5586 204.884Z" fill="#393939"/>
<path d="M65.5523 214.22C65.5249 214.22 65.4991 214.209 65.4798 214.189C65.4588 214.168 65.4475 214.141 65.4491 214.112L65.9553 201.089L66.1633 201.097L65.6603 214.005L80.1133 213.304L80.123 213.512L65.5571 214.22C65.5571 214.22 65.5539 214.22 65.5523 214.22Z" fill="#393939"/>
<path d="M55.6104 223.498C55.583 223.498 55.5572 223.487 55.5379 223.468C55.5169 223.447 55.5056 223.416 55.5072 223.386L56.2617 213.492L56.4697 213.508L55.7233 223.279L67.0116 222.381L67.0277 222.589L55.6185 223.497C55.6185 223.497 55.6136 223.497 55.6104 223.497" fill="#393939"/>
<path d="M33.0848 287.684L22.0867 232.386H60.082L49.5837 287.604L33.0848 287.684Z" fill="white"/>
<path d="M32.7873 287.824L21.644 231.797H60.5229L49.8858 287.742L32.7873 287.824ZM22.5307 232.526L33.3838 287.094L49.2829 287.017L59.6426 232.526H22.5307Z" fill="#393939"/>
<path d="M155.437 282.123L163.28 277.946L167.358 265.978L150.024 261.826L149.951 261.991L144.531 274.331L155.437 282.123ZM162.926 277.645L155.47 281.616L145.068 274.183L150.274 262.33L166.797 266.288L162.926 277.645Z" fill="#393939"/>
<path d="M121.414 282.746L121.426 286.531L165.124 286.739V282.494L121.414 282.746Z" fill="#393939"/>
<path d="M121.367 284.04C121.367 284.04 120.77 275.237 130.737 273.372C140.704 271.505 147.379 267.155 147.379 267.155C147.379 267.155 150.432 273.122 156.568 273.549C163.531 274.034 160.961 270.262 165.614 270.59L165.205 283.218L121.367 284.04Z" fill="#393939"/>
<path d="M121.367 284.04L134.563 283.895L134.966 272.364C133.712 272.655 132.197 273.098 130.737 273.371C120.77 275.237 121.367 284.04 121.367 284.04Z" fill="#F8DB87"/>
<path d="M143.816 269.075C143.894 269.012 143.986 268.963 144.089 268.933C144.504 268.813 144.938 269.052 145.059 269.468L146.654 274.979C146.774 275.395 146.535 275.829 146.119 275.949C145.705 276.069 145.27 275.83 145.15 275.414L143.554 269.902C143.463 269.59 143.577 269.267 143.816 269.075Z" fill="#F8DB87"/>
<path d="M140.918 269.914C140.997 269.851 141.089 269.802 141.192 269.772C141.606 269.652 142.041 269.892 142.16 270.306L143.757 275.818C143.877 276.233 143.638 276.667 143.222 276.787C142.806 276.908 142.373 276.669 142.252 276.254L140.657 270.742C140.566 270.43 140.68 270.106 140.918 269.914Z" fill="#F8DB87"/>
<path d="M137.989 270.762C138.067 270.699 138.159 270.65 138.261 270.62C138.676 270.5 139.11 270.739 139.23 271.155L140.827 276.667C140.947 277.082 140.708 277.516 140.292 277.636C139.877 277.756 139.443 277.517 139.323 277.101L137.727 271.59C137.636 271.277 137.75 270.954 137.989 270.762Z" fill="#F8DB87"/>
<path d="M178.201 271.84C178.201 271.84 186.461 244.165 197.816 211.561C205.7 188.922 240.806 200.04 268.67 197.795C293.463 195.798 293.466 159.176 293.466 159.176C293.466 159.176 183.433 157.261 173.691 181.523C167.643 196.587 148.742 262.892 148.742 262.892C148.742 268.414 165.943 268.414 178.201 271.84Z" fill="white"/>
<path d="M178.394 272.191L178.475 271.922C178.557 271.645 186.862 243.878 198.085 211.655C199.42 207.821 201.553 204.869 204.605 202.632C207.349 200.619 210.793 199.223 215.137 198.361C223.278 196.744 233.211 197.27 243.729 197.826C252.068 198.268 260.691 198.724 268.694 198.08C274.421 197.617 279.306 195.275 283.212 191.113C286.327 187.796 288.823 183.326 290.636 177.825C293.716 168.485 293.751 159.267 293.751 159.176V158.895L293.471 158.891C293.196 158.886 265.618 158.44 237.207 160.967C220.511 162.45 206.795 164.655 196.44 167.52C183.426 171.119 175.684 175.794 173.426 181.416C167.442 196.321 148.657 262.15 148.468 262.813L148.457 262.852V262.891C148.457 266.795 156.088 268.04 164.924 269.481C169.391 270.21 174.009 270.964 178.124 272.115L178.394 272.191ZM228.624 196.712C213.997 196.712 201.825 199.178 197.545 211.466C186.909 242.01 178.891 268.549 178.008 271.49C173.931 270.373 169.401 269.634 165.017 268.918C156.826 267.581 149.087 266.319 149.029 262.93C149.58 260.994 168.041 196.357 173.956 181.628C176.144 176.181 183.759 171.62 196.59 168.07C206.911 165.215 220.593 163.017 237.253 161.535C264.087 159.149 290.176 159.417 293.176 159.457C293.144 161.067 292.842 169.316 290.091 177.659C288.304 183.077 285.847 187.473 282.791 190.727C278.987 194.778 274.228 197.061 268.648 197.51C260.682 198.152 252.079 197.697 243.759 197.256C238.578 196.982 233.466 196.712 228.624 196.712Z" fill="#393939"/>
<path d="M256.989 243.506L246.62 234.168L239.024 248.274L250.262 259.449L258.074 254.785L256.989 243.506Z" fill="white"/>
<path d="M250.229 259.721L258.301 254.9L257.195 243.402L257.133 243.346L246.56 233.823L238.758 248.313L238.871 248.427L250.229 259.721ZM257.845 254.669L250.295 259.178L239.291 248.234L246.68 234.512L256.782 243.61L257.845 254.669Z" fill="#393939"/>
<path d="M248.629 285.966L252.047 287.591L271.142 248.285L267.314 246.449L248.629 285.966Z" fill="#393939"/>
<path d="M249.776 286.568C249.776 286.568 241.581 283.298 244.211 273.504C246.841 263.71 245.807 255.811 245.807 255.811C245.807 255.811 252.508 255.641 255.548 250.293C258.996 244.225 253.917 246.093 256.224 242.041L268.001 246.69L249.776 286.568Z" fill="#393939"/>
<path d="M249.777 286.567L255.355 274.607L245.206 269.465C244.926 270.722 244.597 272.069 244.212 273.504C241.582 283.297 249.777 286.567 249.777 286.567Z" fill="#F8DB87"/>
<path d="M245.996 259.854C245.974 259.756 245.969 259.652 245.988 259.547C246.059 259.12 246.462 258.832 246.888 258.903L252.548 259.849C252.974 259.921 253.263 260.324 253.191 260.751C253.12 261.176 252.716 261.465 252.29 261.393L246.63 260.447C246.309 260.393 246.067 260.152 245.996 259.854Z" fill="#F8DB87"/>
<path d="M245.499 262.829C245.476 262.732 245.472 262.628 245.489 262.521C245.56 262.095 245.964 261.808 246.39 261.879L252.05 262.825C252.477 262.895 252.765 263.299 252.694 263.726C252.621 264.152 252.219 264.441 251.792 264.368L246.133 263.423C245.811 263.369 245.569 263.127 245.499 262.829Z" fill="#F8DB87"/>
<path d="M244.998 265.839C244.974 265.741 244.969 265.637 244.988 265.53C245.059 265.105 245.462 264.817 245.888 264.888L251.548 265.834C251.975 265.906 252.263 266.308 252.192 266.735C252.12 267.161 251.716 267.45 251.29 267.378L245.63 266.432C245.309 266.378 245.067 266.137 244.998 265.839Z" fill="#F8DB87"/>
<path d="M191.883 171.473C227.287 203.601 250.152 236.009 250.152 236.009C250.57 243.04 243.87 256.269 233.654 263.053C233.654 263.053 198.465 221.695 171.388 194.622C168.737 190.495 183.203 177.653 191.883 171.473Z" fill="white"/>
<path d="M244.855 250.039L245.149 249.721C244.82 249.418 244.277 248.914 243.556 248.24L243.26 248.556C243.982 249.231 244.526 249.735 244.855 250.039ZM241.677 247.068L241.973 246.754C241.487 246.296 240.961 245.798 240.398 245.264L240.1 245.577C240.664 246.113 241.191 246.611 241.677 247.068ZM238.531 244.081L238.829 243.769C238.329 243.29 237.808 242.79 237.266 242.269L236.966 242.58C237.508 243.101 238.03 243.602 238.531 244.081ZM235.409 241.075L235.709 240.764C235.205 240.275 234.687 239.772 234.157 239.255L233.855 239.564C234.385 240.082 234.904 240.586 235.409 241.075ZM232.308 238.05L232.61 237.741C232.105 237.245 231.591 236.738 231.068 236.222L230.765 236.529C231.287 237.047 231.802 237.553 232.308 238.05ZM229.229 235.005L229.533 234.698C229.029 234.196 228.518 233.686 228.003 233.169L227.697 233.475C228.213 233.992 228.723 234.502 229.229 235.005ZM226.172 231.938L226.479 231.635C225.976 231.127 225.469 230.613 224.96 230.094L224.651 230.397C225.161 230.917 225.669 231.43 226.172 231.938ZM223.138 228.849L223.447 228.548C222.947 228.034 222.445 227.517 221.941 226.996L221.631 227.296C222.135 227.818 222.637 228.335 223.138 228.849ZM220.131 225.736L220.443 225.436C219.946 224.917 219.448 224.395 218.95 223.871L218.637 224.169C219.135 224.694 219.633 225.216 220.131 225.736ZM217.151 222.594L217.466 222.298C216.977 221.777 216.48 221.245 215.99 220.718L215.673 221.013C216.164 221.54 216.661 222.072 217.151 222.594ZM214.2 219.417L214.518 219.125C214.025 218.59 213.535 218.052 213.059 217.529L212.739 217.818C213.215 218.343 213.707 218.882 214.2 219.417ZM211.292 216.215L211.614 215.926C211.127 215.383 210.644 214.838 210.177 214.311L209.852 214.597C210.32 215.126 210.804 215.67 211.292 216.215ZM208.426 212.969L208.751 212.685C208.272 212.134 207.797 211.583 207.34 211.049L207.011 211.329C207.469 211.865 207.945 212.416 208.426 212.969ZM205.611 209.677L205.941 209.4C205.474 208.843 205.011 208.283 204.56 207.737L204.228 208.011C204.677 208.559 205.143 209.119 205.611 209.677ZM202.861 206.329L203.198 206.059C202.739 205.487 202.287 204.917 201.857 204.364L201.516 204.631C201.949 205.184 202.401 205.757 202.861 206.329ZM200.194 202.914L200.539 202.652C200.095 202.066 199.661 201.483 199.25 200.918L198.9 201.174C199.314 201.74 199.749 202.325 200.194 202.914ZM197.64 199.409L197.995 199.162C197.569 198.552 197.161 197.952 196.78 197.376L196.42 197.614C196.802 198.193 197.213 198.797 197.64 199.409ZM195.251 195.784L195.619 195.558C195.226 194.92 194.858 194.296 194.524 193.701L194.147 193.911C194.484 194.513 194.856 195.143 195.251 195.784ZM193.133 191.986L193.521 191.796C193.186 191.111 192.894 190.452 192.651 189.835L192.25 189.992C192.496 190.62 192.793 191.291 193.133 191.986ZM191.575 187.912L191.994 187.808C191.806 187.051 191.712 186.355 191.711 185.737H191.279C191.279 186.39 191.379 187.122 191.575 187.912ZM192.223 183.825C192.56 183.353 193.083 182.905 193.779 182.495L193.56 182.123C192.812 182.564 192.243 183.052 191.871 183.574L192.223 183.825ZM195.702 181.606C196.31 181.381 196.998 181.164 197.744 180.965L197.633 180.548C196.873 180.751 196.173 180.971 195.552 181.201L195.702 181.606ZM199.837 180.478C200.5 180.343 201.212 180.215 201.955 180.096L201.887 179.669C201.139 179.789 200.419 179.919 199.75 180.055L199.837 180.478ZM204.088 179.79C204.773 179.703 205.494 179.62 206.23 179.546L206.186 179.115C205.446 179.191 204.722 179.274 204.033 179.362L204.088 179.79ZM249.389 179.68L249.418 179.248C248.739 179.204 248.013 179.158 247.258 179.113L247.232 179.544C247.986 179.59 248.712 179.635 249.389 179.68ZM245.074 179.42L245.098 178.989C244.379 178.949 243.653 178.911 242.938 178.875L242.916 179.307C243.631 179.343 244.356 179.381 245.074 179.42ZM208.378 179.348C209.073 179.29 209.797 179.236 210.531 179.188L210.503 178.758C209.767 178.806 209.04 178.859 208.343 178.917L208.378 179.348ZM240.758 179.206L240.778 178.774C240.062 178.741 239.336 178.71 238.616 178.682L238.599 179.114C239.317 179.142 240.044 179.173 240.758 179.206ZM212.687 179.064C213.385 179.028 214.111 178.995 214.844 178.967L214.826 178.535C214.092 178.563 213.365 178.596 212.665 178.632L212.687 179.064ZM236.44 179.033L236.456 178.601C235.738 178.576 235.011 178.552 234.294 178.53L234.281 178.963C234.998 178.984 235.723 179.007 236.44 179.033ZM251.158 178.944C251.19 178.205 251.278 177.498 251.422 176.843L251 176.752C250.851 177.431 250.759 178.162 250.726 178.925L251.158 178.944ZM232.122 178.905L232.132 178.473C231.412 178.456 230.684 178.44 229.97 178.426L229.961 178.858C230.676 178.872 231.402 178.888 232.122 178.905ZM217.002 178.895C217.707 178.875 218.434 178.858 219.163 178.845L219.156 178.413C218.425 178.426 217.696 178.443 216.989 178.463L217.002 178.895ZM227.802 178.826L227.807 178.393C227.076 178.385 226.348 178.379 225.644 178.375L225.642 178.807C226.344 178.81 227.071 178.817 227.802 178.826ZM221.325 178.815C222.032 178.808 222.757 178.804 223.484 178.803V178.37C222.756 178.373 222.028 178.376 221.32 178.382L221.325 178.815ZM252.092 174.851C252.396 174.211 252.776 173.617 253.225 173.089L252.895 172.81C252.423 173.367 252.021 173.992 251.702 174.666L252.092 174.851ZM254.778 171.68C255.329 171.292 255.951 170.949 256.626 170.662L256.456 170.264C255.754 170.564 255.105 170.921 254.529 171.326L254.778 171.68ZM269.27 170.034L269.366 169.614C269.331 169.606 268.512 169.422 267.211 169.26L267.158 169.689C268.436 169.847 269.263 170.033 269.27 170.034ZM258.643 169.996C259.3 169.834 260.006 169.707 260.743 169.617L260.691 169.189C259.938 169.28 259.213 169.41 258.539 169.577L258.643 169.996ZM265.02 169.499L265.044 169.068C264.53 169.04 264.017 169.026 263.522 169.026C263.304 169.026 263.083 169.029 262.866 169.035L262.877 169.467C263.09 169.461 263.307 169.458 263.522 169.458C264.01 169.458 264.514 169.472 265.02 169.499Z" fill="#393939"/>
<path d="M194.825 219.64L195.231 219.23C177.8 201.926 174.141 190.909 174.143 184.714C174.143 182.337 174.691 180.67 175.151 179.69C175.647 178.629 176.151 178.122 176.156 178.117L175.753 177.707C175.663 177.794 173.58 179.896 173.566 184.669C173.555 188.563 174.922 193.065 177.627 198.051C181.151 204.544 186.937 211.808 194.825 219.64Z" fill="#393939"/>
<path d="M233.597 263.457L233.822 263.307C243.874 256.633 250.896 243.38 250.458 235.99L250.452 235.903L250.402 235.832C250.282 235.662 238.197 218.611 218.39 197.298L217.942 197.714C237.069 218.295 248.979 234.889 249.851 236.114C250.026 239.582 248.451 244.566 245.625 249.471C242.509 254.881 238.285 259.549 233.71 262.646C231.772 260.377 214.32 239.97 195.262 219.237L194.812 219.652C214.918 241.525 233.237 263.037 233.421 263.251L233.597 263.457Z" fill="#393939"/>
<path d="M198.611 145.13L178.297 142.045C178.02 142.011 176.135 138.682 175.968 138.457C175.968 138.457 173.255 137.658 170.09 136.727C166.927 135.796 159.797 138.875 159.797 138.875C159.253 139.021 156.574 139.263 156.717 139.809L159.581 142.044C163.059 143.373 167.235 138.795 175.248 145.767C178.031 148.19 200.144 145.234 198.611 145.13Z" fill="#F7F8F9"/>
<path d="M159.792 142.355C160.88 142.676 162.014 142.498 163.31 142.295C166.18 141.846 169.753 141.288 175.097 145.938C175.755 146.511 177.34 146.832 179.942 146.922C182.003 146.991 184.636 146.911 187.766 146.683C192.95 146.305 198.428 145.58 198.793 145.356C198.888 145.298 198.933 145.196 198.907 145.094C198.879 144.98 198.789 144.915 198.637 144.903L178.371 141.825C178.097 141.581 177.011 139.752 176.595 139.052C176.33 138.604 176.2 138.387 176.151 138.321L176.105 138.259L170.154 136.508C166.993 135.578 160.195 138.456 159.723 138.659C159.596 138.691 159.345 138.73 159.056 138.777C157.789 138.977 156.801 139.162 156.551 139.545C156.486 139.644 156.468 139.756 156.497 139.867L156.517 139.94L159.467 142.244L159.499 142.256C159.596 142.293 159.694 142.326 159.792 142.355ZM169.293 141.989C168.979 141.896 168.666 141.819 168.351 141.757C166.357 141.358 164.701 141.617 163.24 141.846C161.905 142.054 160.751 142.235 159.692 141.843L156.999 139.738C157.086 139.683 157.281 139.592 157.718 139.486C158.165 139.379 158.698 139.294 159.127 139.226C159.454 139.174 159.711 139.134 159.855 139.095L159.887 139.084C159.958 139.053 166.976 136.048 170.026 136.944L175.823 138.651C175.897 138.767 176.047 139.02 176.204 139.285C177.866 142.084 178.059 142.244 178.265 142.271L197.422 145.18C195.596 145.465 191.828 145.935 187.606 146.238C178.387 146.901 175.999 146.119 175.396 145.596C173.288 143.761 171.282 142.574 169.293 141.989Z" fill="#393939"/>
<path d="M182.249 149.592L182.279 149.598C199.624 151.845 213.11 147.415 222.309 139.451C231.517 131.478 236.47 119.93 236.677 107.87L236.677 107.87C236.74 104.253 235.612 99.6957 234.038 96.4337C233.248 94.7958 232.374 93.5454 231.532 92.8908C231.115 92.5671 230.74 92.4149 230.411 92.3981C230.096 92.3819 229.764 92.4864 229.409 92.7986L229.409 92.7986C225.951 95.8441 223.042 100.766 220.056 106.364C219.435 107.528 218.812 108.72 218.18 109.928C215.79 114.498 213.281 119.295 210.361 123.639C206.666 129.137 202.276 133.97 196.552 136.763C190.871 139.536 183.934 140.271 175.167 137.748C172.834 139.976 172.184 141.755 172.346 143.136C172.514 144.57 173.578 145.777 175.067 146.77C176.545 147.755 178.346 148.464 179.796 148.929C180.517 149.161 181.145 149.329 181.591 149.44C181.814 149.495 181.991 149.536 182.112 149.563C182.172 149.576 182.219 149.586 182.249 149.592Z" fill="#F8DB87" stroke="#393939"/>
<path d="M238.636 125.098L238.875 125.077L239.041 125.25C244.572 131.023 244.932 139.488 243.972 146.387C243.49 149.851 242.67 152.959 241.971 155.2C241.621 156.321 241.301 157.226 241.069 157.853C240.972 158.111 240.891 158.322 240.829 158.481C248.349 164.459 258.935 168.309 268.978 169.387C279.085 170.472 288.486 168.736 293.672 163.725C294.158 153.26 292.882 138.722 287.921 125.082C282.93 111.359 274.227 98.5907 259.882 91.7452L260.098 91.294L259.882 91.7452C252.545 88.2435 244.929 87.6894 238.937 88.7292C235.941 89.2492 233.367 90.165 231.446 91.2952C229.511 92.4332 228.301 93.7497 227.909 95.0407C226.271 100.436 225.754 108.315 227.29 114.675C228.058 117.854 229.328 120.606 231.18 122.485C233.016 124.347 235.449 125.38 238.636 125.098Z" fill="#F8DB87" stroke="#393939"/>
<path d="M235.976 40.9031C233.975 41.8022 232.993 44.036 233.608 46.0814C233.596 46.0863 233.583 46.0912 233.572 46.0961C230.771 47.3549 229.296 50.3496 229.842 53.2403C229.48 53.332 229.121 53.4543 228.768 53.6134C225.489 55.0863 224.024 58.9397 225.497 62.2194C225.777 62.8409 226.142 63.3975 226.573 63.8819C226.484 64.945 226.654 66.0448 227.123 67.087C228.596 70.3667 232.448 71.8311 235.728 70.3582C237.195 69.6988 238.297 68.5636 238.938 67.2167C239.043 67.1751 239.147 67.1323 239.252 67.0858C242.531 65.6129 243.995 61.7595 242.522 58.4797C242.161 57.6772 241.659 56.9836 241.055 56.4148C242.745 54.5566 243.272 51.8041 242.178 49.3672C241.886 48.7164 241.498 48.139 241.042 47.6399C242.084 46.4093 242.392 44.6428 241.688 43.0745C240.709 40.8982 238.152 39.9257 235.976 40.9043" fill="#393939"/>
<path d="M233.136 76.6152L233.136 76.6155C231.086 77.537 228.37 76.3151 227.169 73.6397L233.136 76.6152ZM233.136 76.6152C233.289 76.5469 233.435 76.4681 233.573 76.3798L233.574 76.379M233.136 76.6152L233.574 76.379M233.574 76.379C235.306 75.2803 235.984 72.6496 234.874 70.1774M233.574 76.379L234.874 70.1774M226.342 69.6044L226.823 69.7415C227.166 68.5369 227.914 67.6481 228.907 67.2015L226.342 69.6044ZM226.342 69.6044L226.823 69.7415C226.474 70.9649 226.59 72.3498 227.169 73.6396L226.342 69.6044ZM234.874 70.1774C233.672 67.5019 230.957 66.28 228.907 67.2015L234.874 70.1774Z" fill="#F8DB87" stroke="#393939"/>
<path d="M222.657 80.0374C224.313 83.7245 228.643 85.3699 232.331 83.7135C236.016 82.0571 237.663 77.7266 236.007 74.0395C234.351 70.3524 230.02 68.7071 226.333 70.3634C222.647 72.0198 221 76.3504 222.657 80.0374Z" fill="#393939"/>
<path d="M238.987 88.8719L234.736 80.1606L229.411 87.1458L231.494 91.5131C231.494 91.5131 227.941 106.332 231.767 106.247C235.594 106.16 239.65 91.732 238.987 88.8719Z" fill="white"/>
<path d="M232.147 106.425C232.824 106.269 233.524 105.729 234.232 104.817C235.583 103.077 236.975 99.9578 238.053 96.2597C239.012 92.9665 239.476 89.9768 239.208 88.8207L239.203 88.795L239.19 88.7718L234.778 79.729L229.145 87.1179L231.254 91.5377C231.139 92.027 230.523 94.7245 230.122 97.6482C229.525 102.017 229.674 104.794 230.569 105.902C230.883 106.291 231.288 106.483 231.771 106.473C231.896 106.47 232.021 106.454 232.147 106.424M238.77 88.9467C239.006 90.0367 238.532 92.98 237.615 96.1313C236.554 99.7768 235.19 102.84 233.873 104.537C233.122 105.504 232.411 106.002 231.761 106.017C231.421 106.025 231.147 105.893 230.923 105.616C230.122 104.624 230.001 101.892 230.573 97.713C231.01 94.5177 231.707 91.5928 231.715 91.5646L231.733 91.4863L229.676 87.1717L234.692 80.5914L238.77 88.9467Z" fill="#393939"/>
<path d="M226.266 74.7707C228.418 73.8165 230.748 74.0563 232.64 76.0834C233.484 75.8057 234.546 76.476 235.063 77.6455C235.507 78.6462 235.413 79.697 234.892 80.2549C235.729 83.5664 234.548 87.5092 232.019 88.6297C229.093 89.9264 225.503 87.1666 223.757 83.3927C221.107 77.6627 223.34 76.0674 226.266 74.7707Z" fill="white"/>
<path d="M231.402 89.075C231.644 89.0187 231.881 88.9392 232.112 88.8377C233.372 88.2786 234.374 87.0345 234.933 85.3341C235.452 83.7585 235.525 81.9357 235.14 80.3136C235.665 79.6567 235.721 78.5679 235.271 77.5526C234.73 76.3329 233.652 75.6185 232.711 75.8277C231.791 74.8759 230.741 74.29 229.59 74.0845C228.483 73.8875 227.334 74.0478 226.173 74.5615C224.761 75.1867 223.205 75.9879 222.608 77.5746C222.068 79.012 222.376 80.9461 223.552 83.4881C224.436 85.4014 225.809 87.0822 227.318 88.1012C228.704 89.0371 230.128 89.3711 231.402 89.075ZM232.799 76.2742C233.522 76.1066 234.408 76.7293 234.855 77.7361C235.249 78.6242 235.195 79.5955 234.725 80.0983L234.641 80.1888L234.67 80.3087C235.068 81.8782 235.005 83.6582 234.501 85.191C233.983 86.7678 233.069 87.9141 231.928 88.4205C230.635 88.993 229.088 88.7459 227.573 87.7232C226.13 86.7495 224.815 85.1359 223.964 83.2961C222.842 80.8702 222.539 79.0511 223.034 77.7348C223.516 76.4552 224.711 75.7078 226.358 74.9775C228.611 73.978 230.783 74.4258 232.472 76.2375L232.572 76.3439L232.711 76.2987C232.739 76.2889 232.769 76.2803 232.799 76.2742Z" fill="#393939"/>
<path d="M225.945 76.8257C226.774 78.6693 228.939 79.4926 230.782 78.6644C232.625 77.8362 233.448 75.6709 232.62 73.8274C231.792 71.9838 229.626 71.1606 227.783 71.9887C225.941 72.8169 225.117 74.9822 225.945 76.8257Z" fill="#393939"/>
<path d="M227.75 81.992C227.812 82.3529 227.568 82.6954 227.207 82.7566C226.845 82.8178 226.504 82.5743 226.443 82.2122C226.381 81.8513 226.626 81.5088 226.987 81.4489C227.348 81.3877 227.69 81.6311 227.75 81.9932" fill="#393939"/>
<path d="M230.198 85.0371C229.736 86.5516 228.725 87.1388 227.598 87.1987L230.198 85.0371Z" fill="white"/>
<path d="M228.211 87.3426C229.056 87.1468 229.969 86.5706 230.417 85.1039C230.453 84.984 230.385 84.8568 230.265 84.8201C230.145 84.7834 230.018 84.8506 229.981 84.9718C229.596 86.2354 228.79 86.9083 227.587 86.9719C227.461 86.978 227.364 87.0857 227.372 87.2117C227.378 87.3377 227.486 87.4331 227.61 87.427C227.801 87.4172 228.004 87.3915 228.211 87.3438" fill="#393939"/>
<path d="M226.956 80.1313C226.956 80.1313 225.559 80.7968 225.238 81.8526L226.956 80.1313Z" fill="white"/>
<path d="M225.289 82.0741C225.366 82.0557 225.431 81.9994 225.456 81.9187C225.743 80.9731 227.041 80.3431 227.053 80.337C227.167 80.2831 227.215 80.1473 227.161 80.0336C227.107 79.9198 226.971 79.8721 226.858 79.9259C226.796 79.9553 225.366 80.6477 225.02 81.7866C224.983 81.9065 225.052 82.0337 225.172 82.0704C225.211 82.0826 225.251 82.0826 225.289 82.0741Z" fill="#393939"/>
<path d="M224.869 82.6196C224.869 82.6196 226.166 85.8504 226.605 85.8712C227.045 85.8932 227.512 85.6608 227.512 85.6608" fill="white"/>
<path d="M227.088 86.0473C227.378 85.98 227.601 85.8711 227.614 85.8638C227.727 85.8075 227.773 85.6717 227.717 85.5592C227.661 85.4466 227.525 85.4002 227.412 85.4564C227.409 85.4577 227.01 85.6522 226.643 85.6448C226.43 85.4944 225.783 84.2845 225.081 82.5339C225.033 82.4177 224.901 82.3602 224.785 82.4079C224.667 82.4544 224.611 82.5878 224.657 82.704C224.661 82.7125 224.989 83.5273 225.366 84.3334C226.119 85.9433 226.386 86.0877 226.594 86.0987C226.764 86.1072 226.935 86.0828 227.088 86.0473Z" fill="#393939"/>
<path d="M227.097 84.0975C228.334 84.0975 229.342 83.0907 229.342 81.8527C229.342 80.6147 228.334 79.6079 227.097 79.6079C225.86 79.6079 224.852 80.6147 224.852 81.8527C224.852 83.0907 225.859 84.0975 227.097 84.0975ZM227.097 79.8709C228.189 79.8709 229.079 80.7603 229.079 81.8527C229.079 82.9451 228.189 83.8345 227.097 83.8345C226.005 83.8345 225.115 82.9451 225.115 81.8527C225.115 80.7603 226.005 79.8709 227.097 79.8709Z" fill="#393939"/>
<path d="M223.109 85.811C224.178 85.811 225.049 84.94 225.049 83.8708C225.049 82.8017 224.178 81.9307 223.109 81.9307C222.04 81.9307 221.167 82.8017 221.167 83.8708C221.167 84.94 222.038 85.811 223.109 85.811ZM223.109 82.1925C224.034 82.1925 224.786 82.9448 224.786 83.8708C224.786 84.7969 224.034 85.5492 223.109 85.5492C222.184 85.5492 221.43 84.7969 221.43 83.8708C221.43 82.9448 222.183 82.1925 223.109 82.1925Z" fill="#393939"/>
<path d="M228.992 80.6847L232.115 77.5163L231.928 77.3315L228.805 80.4999L228.992 80.6847Z" fill="#393939"/>
<path d="M224.76 82.7869L225.275 82.1532L225.07 81.9868L224.555 82.6205L224.76 82.7869Z" fill="#393939"/>
<path d="M277.547 166.026C277.548 165.295 277.54 164.527 277.524 163.742L277.069 163.75C277.085 164.533 277.093 165.299 277.092 166.024H277.547M277.458 161.459C277.429 160.703 277.392 159.936 277.35 159.18L276.895 159.206C276.938 159.959 276.974 160.724 277.003 161.477L277.458 161.459ZM277.202 156.902C277.146 156.144 277.082 155.378 277.014 154.628L276.56 154.671C276.629 155.417 276.692 156.179 276.748 156.936L277.202 156.902ZM276.783 152.358C276.698 151.598 276.605 150.836 276.507 150.092L276.056 150.152C276.153 150.892 276.246 151.65 276.33 152.409L276.783 152.358ZM276.183 147.833C276.067 147.074 275.941 146.317 275.81 145.58L275.361 145.661C275.492 146.393 275.618 147.147 275.734 147.902L276.183 147.833ZM275.381 143.338C275.24 142.652 275.091 141.969 274.937 141.307L274.89 141.107L274.447 141.211L274.494 141.41C274.647 142.068 274.795 142.747 274.934 143.43L275.381 143.338ZM273.894 139.01L274.334 138.891C274.182 138.326 274.023 137.763 273.861 137.219C273.81 137.045 273.757 136.87 273.704 136.697L273.269 136.83C273.322 137.002 273.375 137.176 273.426 137.349C273.586 137.889 273.744 138.448 273.894 139.01ZM272.57 134.668L273.001 134.522C272.763 133.821 272.505 133.096 272.236 132.37L271.809 132.528C272.077 133.251 272.333 133.971 272.57 134.668ZM270.994 130.405L271.417 130.238C271.143 129.546 270.852 128.836 270.552 128.126L270.133 128.302C270.431 129.011 270.721 129.718 270.994 130.405ZM269.229 126.216L269.645 126.032C269.341 125.35 269.023 124.651 268.699 123.953L268.287 124.145C268.61 124.84 268.927 125.538 269.229 126.216ZM267.309 122.091L267.719 121.892C267.392 121.219 267.052 120.53 266.709 119.847L266.301 120.051C266.645 120.734 266.984 121.42 267.309 122.091ZM265.264 118.026L265.668 117.816C265.319 117.147 264.961 116.469 264.6 115.8L264.198 116.015C264.558 116.683 264.916 117.36 265.264 118.026ZM263.106 114.019L263.505 113.797C263.134 113.131 262.756 112.461 262.382 111.811L261.988 112.037C262.36 112.687 262.737 113.353 263.106 114.019ZM260.84 110.07L261.232 109.837C260.498 108.602 260.046 107.886 260.043 107.879L259.657 108.122C259.662 108.128 260.11 108.84 260.84 110.07Z" fill="#393939"/>
<path d="M159.008 144.287L204.783 144.43L204.712 141.419L160.302 141.407L159.008 144.287Z" fill="#F7F8F9"/>
<path d="M158.657 144.514L205.017 144.659L204.935 141.192L160.154 141.18L158.657 144.514ZM204.551 144.203L159.359 144.061L160.449 141.635L204.49 141.647L204.551 144.203Z" fill="#393939"/>
<path d="M145.193 94.876L158.94 144.387L160.302 141.407L148.022 94.9237L145.193 94.876Z" fill="#F7F8F9"/>
<path d="M158.885 145.049L160.542 141.428L160.521 141.349L148.196 94.6998L144.891 94.6436L158.885 145.049ZM160.06 141.387L158.991 143.726L145.492 95.1084L147.844 95.1476L160.06 141.385V141.387Z" fill="#393939"/>
<path d="M127.068 96.1827L140.695 143.912L159.007 144.287L145.912 94.9019L127.068 96.1827Z" fill="#F7F8F9"/>
<path d="M140.575 144.287L159.309 144.536L159.227 144.229L146.083 94.6616L126.772 95.9742L126.849 96.2446L140.575 144.287ZM158.705 144.038L140.887 143.725L127.364 96.3902L145.74 95.1412L158.705 144.038Z" fill="#393939"/>
<path d="M140.153 119.307C140.459 121.263 141.628 122.704 142.766 122.526C143.904 122.348 144.578 120.62 144.272 118.663C143.967 116.709 142.798 115.268 141.66 115.445C140.522 115.624 139.847 117.352 140.153 119.307Z" fill="#F7F8F9"/>
<path d="M142.462 122.764C142.574 122.772 142.688 122.769 142.8 122.75C143.433 122.651 143.957 122.152 144.271 121.343C144.571 120.578 144.65 119.614 144.496 118.629C144.167 116.517 142.903 115.02 141.624 115.219C140.343 115.42 139.597 117.231 139.927 119.342C140.081 120.327 140.451 121.221 140.969 121.86C141.42 122.414 141.94 122.726 142.462 122.764ZM141.922 115.661C142.848 115.728 143.788 117.039 144.047 118.699C144.188 119.605 144.118 120.486 143.848 121.178C143.593 121.829 143.197 122.228 142.73 122.301C142.262 122.373 141.763 122.115 141.323 121.572C140.854 120.996 140.518 120.179 140.377 119.272C140.096 117.475 140.699 115.825 141.694 115.67C141.769 115.657 141.847 115.655 141.922 115.661Z" fill="#393939"/>
<path d="M218.984 198.858H282.896V205.863H218.984V198.858Z" fill="#393939"/>
<path d="M205.579 286.878L221.499 205.652L220.41 205.491L204.49 286.717L205.579 286.878Z" fill="#393939"/>
<path d="M301.181 287.591L302.263 287.393L282.357 205.472L281.275 205.67L301.181 287.591Z" fill="#393939"/>
<path d="M281.911 206.13C282.108 206.096 286.766 205.266 291.503 202.715C294.306 201.205 296.544 199.405 298.154 197.364C300.187 194.788 301.219 191.827 301.219 188.567V129.266H300.114V188.567C300.114 191.568 299.166 194.295 297.297 196.668C295.783 198.589 293.666 200.292 291.003 201.729C286.422 204.201 281.768 205.034 281.721 205.043L281.911 206.13Z" fill="#393939"/>
<path d="M208.557 268.805H297.299V269.765H208.557V268.805Z" fill="#393939"/>
<path d="M104.252 144.496H225.356V151.308H104.252V144.496Z" fill="white"/>
<path d="M225.632 144.22H103.976V151.584H225.632V144.22ZM225.079 151.031H104.528V144.773H225.079V151.031Z" fill="#393939"/>
<path d="M214.19 151.4H217.147V287.337H214.19V151.4Z" fill="white"/>
<path d="M213.913 287.591H217.423V151.4H216.87V287.082H214.466V151.4H213.913V287.591Z" fill="#393939"/>
<path d="M110.854 151.4H113.368V287.337H110.854V151.4Z" fill="white"/>
<path d="M110.578 287.591H113.645V151.4H113.093V287.082H111.13V151.4H110.578V287.591Z" fill="#393939"/>
<path d="M225.649 142.908C225.649 142.908 200.25 142.864 198.802 142.769C197.353 142.673 192.869 137.765 192.869 137.765C191.723 136.458 189.834 136.094 188.284 136.885L178.914 140.547C178.108 140.862 177.709 141.769 178.024 142.575L179.286 145.82C179.588 146.597 180.516 146.916 181.233 146.49L182.798 145.56L187.825 145.861C189.315 146.232 191.161 150.106 195.572 150.396C199.982 150.687 239.239 151.69 239.239 151.69C240.852 151.741 227.487 142.825 225.649 142.908Z" fill="#F7F8F9"/>
<path d="M195.558 150.614C199.923 150.901 238.84 151.898 239.233 151.908C239.422 151.914 239.512 151.831 239.553 151.76C239.615 151.655 239.604 151.53 239.518 151.39C239.071 150.648 235.798 148.342 232.946 146.513C231.53 145.605 226.823 142.645 225.645 142.689C225.178 142.689 200.235 142.645 198.817 142.551C197.701 142.478 194.261 138.966 193.031 137.619C191.822 136.24 189.834 135.856 188.195 136.685L178.835 140.344C177.919 140.701 177.464 141.739 177.821 142.655L179.083 145.899C179.251 146.329 179.597 146.661 180.033 146.812C180.469 146.962 180.948 146.913 181.344 146.677L182.852 145.782L187.791 146.078C188.239 146.2 188.784 146.731 189.414 147.343C190.748 148.641 192.574 150.418 195.558 150.614ZM239.029 151.467C235.874 151.386 199.773 150.455 195.586 150.179C192.764 149.994 191.003 148.281 189.718 147.031C189.007 146.339 188.444 145.79 187.878 145.65L187.858 145.645H187.838L182.745 145.338L181.121 146.303C180.835 146.473 180.49 146.509 180.176 146.4C179.86 146.291 179.611 146.051 179.49 145.74L178.227 142.496C177.958 141.804 178.302 141.021 178.994 140.75L188.373 137.084L188.383 137.079C189.846 136.334 191.624 136.676 192.705 137.91C193.174 138.422 197.295 142.889 198.787 142.987C200.226 143.082 224.612 143.124 225.649 143.126H225.659C226.345 143.095 229.253 144.652 232.895 146.998C234.494 148.029 236.017 149.073 237.18 149.936C238.358 150.811 238.835 151.254 239.029 151.467Z" fill="#393939"/>
<path d="M178.126 143.197L186.039 140.443L185.894 140.03L177.982 142.786L178.126 143.197Z" fill="#393939"/>
<path d="M186.406 143.541L181.904 143.245L178.957 144.974" fill="#F7F8F9"/>
<path d="M179.067 145.16L181.955 143.467L186.39 143.758L186.419 143.323L181.85 143.022L178.846 144.785L179.067 145.16Z" fill="#393939"/>
<path d="M199.426 142.789C191.869 153.772 198.426 157.99 198.426 157.99C214.41 165.622 234.238 166.092 244.411 161.015C264.534 150.973 275.388 102.913 252.102 91.6747C240.969 86.3006 248.168 120.749 231.735 137.92C225.734 144.191 213.273 143.652 199.426 142.789Z" fill="#F8DB87"/>
<path d="M204.904 143.46C210.743 143.843 215.251 143.778 219.109 143.272C225.381 142.448 229.9 140.409 232.924 137.039C235.389 134.292 237.435 130.769 239.003 126.57C240.256 123.215 241.21 119.424 241.839 115.299C242.906 108.282 242.658 102.651 242.656 102.596L242.22 102.616C242.223 102.672 242.469 108.266 241.405 115.243C240.782 119.336 239.835 123.097 238.593 126.42C237.043 130.567 235.027 134.042 232.6 136.748C229.648 140.037 225.217 142.03 219.053 142.839C214.097 143.489 208.05 143.406 199.448 142.571L199.405 143.005C201.364 143.196 203.191 143.346 204.904 143.46Z" fill="#393939"/>
<path d="M239.978 163.105C246.418 160.446 251.853 155.937 256.132 149.703C259.55 144.724 262.24 138.639 264.129 131.618C265.809 125.378 266.532 119.536 266.841 115.734C267.178 111.613 267.115 108.929 267.115 108.904L266.679 108.914C266.681 109.02 266.905 119.632 263.706 131.516C261.828 138.486 259.159 144.523 255.769 149.461C251.54 155.621 246.171 160.076 239.811 162.702L239.978 163.105Z" fill="#393939"/>
<path d="M201.632 141.531H215.782L217.904 114.264H199.51L201.632 141.531Z" fill="white"/>
<path d="M216.041 141.812H201.374L199.209 113.985H218.207L216.041 141.812ZM201.891 141.253H215.524L217.603 114.543H199.812L201.891 141.253Z" fill="#393939"/>
<path d="M201.391 132.805L200.631 123.035H211.724L211.126 132.805H201.391Z" fill="#E0EBA5" stroke="#393939"/>
<path d="M218.793 112.773H198.619V116.116H218.793V112.773Z" fill="#393939"/>
<path d="M219.574 114.445H197.842V116.535H219.574V114.445Z" fill="#393939"/>
<path d="M208.083 266.572L202.603 276.372L184.183 275.688L181.755 270.09L191.455 255.222L208.083 266.572Z" fill="white"/>
<path d="M202.762 276.658L183.996 275.96L181.439 270.063L181.521 269.937L191.376 254.83L208.451 266.485L202.762 276.658ZM184.369 275.415L202.442 276.087L207.714 266.659L191.532 255.613L182.071 270.117L184.369 275.415Z" fill="#393939"/>
<path d="M147.211 284.294L147.229 288.489L205.328 288.72V284.016L147.211 284.294Z" fill="#393939"/>
<path d="M147.15 285.729C147.15 285.729 146.355 275.972 159.609 273.905C172.862 271.838 183.437 266.572 183.437 266.572C183.437 266.572 185.794 273.63 193.953 274.103C203.21 274.64 199.793 270.46 205.979 270.822L205.435 284.818L147.15 285.729Z" fill="#393939"/>
<path d="M147.15 285.729L164.695 285.567L165.23 272.79C163.563 273.11 161.55 273.602 159.609 273.905C146.355 275.972 147.15 285.729 147.15 285.729Z" fill="#F8DB87"/>
<path d="M176.998 269.144C177.102 269.074 177.224 269.02 177.36 268.987C177.912 268.854 178.489 269.119 178.649 269.579L180.77 275.687C180.931 276.148 180.614 276.629 180.061 276.762C179.509 276.895 178.932 276.63 178.772 276.169L176.649 270.062C176.529 269.715 176.679 269.357 176.997 269.144" fill="#F8DB87"/>
<path d="M173.146 270.073C173.25 270.003 173.372 269.949 173.508 269.917C174.06 269.783 174.637 270.048 174.797 270.508L176.919 276.617C177.08 277.078 176.761 277.557 176.21 277.692C175.658 277.824 175.081 277.56 174.92 277.099L172.798 270.99C172.678 270.644 172.828 270.286 173.146 270.073Z" fill="#F8DB87"/>
<path d="M169.249 271.015C169.353 270.944 169.475 270.89 169.612 270.857C170.163 270.724 170.74 270.988 170.901 271.449L173.023 277.558C173.183 278.018 172.865 278.499 172.313 278.632C171.761 278.766 171.184 278.5 171.024 278.04L168.903 271.931C168.782 271.585 168.933 271.226 169.25 271.015" fill="#F8DB87"/>
<path d="M214.125 268.179C214.125 268.179 235.796 204.448 247.079 202.958C273.418 199.477 250.617 162.234 231.54 184.041C212.138 206.221 187.338 259.29 187.338 259.29C181.676 267.604 214.125 268.179 214.125 268.179Z" fill="#393939"/>
<path d="M188.3 265.466L184.404 275.093L170.486 279.259L163.73 269.883L172.86 253.886L188.3 265.466Z" fill="white"/>
<path d="M170.375 279.583L163.399 269.899L172.775 253.472L188.64 265.371L184.612 275.321L170.374 279.583M164.061 269.864L170.594 278.934L184.193 274.862L187.96 265.56L172.945 254.299L164.061 269.864Z" fill="#393939"/>
<path d="M127.943 284.294L127.96 288.489L186.06 288.72V284.016L127.943 284.294Z" fill="#393939"/>
<path d="M127.882 285.729C127.882 285.729 127.087 275.972 140.34 273.905C153.593 271.838 164.771 267.016 164.771 267.016C164.771 267.016 166.525 273.63 174.684 274.102C183.941 274.64 180.525 270.46 186.711 270.822L186.166 284.818L127.882 285.729Z" fill="#393939"/>
<path d="M127.882 285.729L145.427 285.567L145.962 272.79C144.294 273.11 142.281 273.602 140.34 273.905C127.087 275.972 127.882 285.729 127.882 285.729Z" fill="#E0EBA5"/>
<path d="M157.728 269.144C157.833 269.074 157.955 269.02 158.091 268.987C158.643 268.854 159.22 269.119 159.38 269.579L161.501 275.687C161.661 276.148 161.343 276.629 160.791 276.762C160.24 276.895 159.663 276.63 159.502 276.169L157.38 270.062C157.259 269.715 157.41 269.357 157.727 269.144" fill="#E0EBA5"/>
<path d="M153.876 270.073C153.98 270.003 154.102 269.949 154.239 269.917C154.79 269.783 155.367 270.048 155.528 270.508L157.649 276.617C157.809 277.078 157.491 277.557 156.939 277.692C156.387 277.824 155.81 277.56 155.65 277.099L153.529 270.99C153.408 270.644 153.559 270.286 153.876 270.073Z" fill="#E0EBA5"/>
<path d="M149.98 271.015C150.084 270.944 150.206 270.89 150.343 270.857C150.895 270.724 151.472 270.988 151.632 271.449L153.753 277.558C153.913 278.018 153.595 278.499 153.043 278.632C152.491 278.766 151.914 278.5 151.754 278.04L149.632 271.931C149.511 271.585 149.662 271.226 149.979 271.015" fill="#E0EBA5"/>
<path d="M202.468 269.066C202.468 269.066 205.037 265.021 233.037 217.147C246.449 194.213 288.417 204.563 319.298 202.076C346.775 199.861 346.777 159.276 346.777 159.276C346.777 159.276 241.491 159.542 215.815 187.325C194.471 210.421 170.715 256.608 170.715 256.608C165.053 264.921 202.468 269.066 202.468 269.066Z" fill="#393939"/>
<path d="M262.553 146.997L242.004 143.876C241.722 143.842 239.816 140.474 239.647 140.246C239.647 140.246 236.903 139.438 233.702 138.496C230.501 137.554 223.289 140.67 223.289 140.67C222.739 140.817 220.028 141.062 220.174 141.613L223.07 143.875C226.588 145.219 230.813 140.588 238.918 147.642C241.733 150.092 264.103 147.102 262.553 146.997Z" fill="#F7F8F9"/>
<path d="M223.284 144.19C224.386 144.514 225.533 144.335 226.843 144.13C229.747 143.675 233.362 143.11 238.768 147.815C239.433 148.395 241.036 148.719 243.668 148.809C245.753 148.881 248.416 148.799 251.583 148.568C256.828 148.185 262.368 147.451 262.738 147.225C262.833 147.168 262.879 147.064 262.854 146.961C262.825 146.846 262.733 146.78 262.579 146.768L242.08 143.655C241.802 143.407 240.703 141.557 240.283 140.849C240.014 140.396 239.882 140.176 239.833 140.109L239.786 140.048L233.767 138.275C230.569 137.334 223.693 140.246 223.216 140.451C223.086 140.483 222.833 140.524 222.541 140.571C221.26 140.773 220.259 140.96 220.007 141.347C219.941 141.448 219.922 141.56 219.952 141.673L219.972 141.747L222.956 144.077L222.988 144.089C223.086 144.128 223.186 144.16 223.284 144.19ZM232.896 143.82C232.579 143.727 232.262 143.648 231.943 143.584C229.927 143.182 228.251 143.443 226.773 143.675C225.423 143.886 224.256 144.069 223.185 143.672L220.459 141.544C220.547 141.487 220.746 141.395 221.188 141.289C221.639 141.18 222.179 141.094 222.612 141.025C222.943 140.973 223.204 140.931 223.35 140.893L223.381 140.882C223.453 140.851 230.552 137.809 233.637 138.717L239.503 140.444C239.576 140.561 239.728 140.817 239.887 141.084C241.569 143.916 241.765 144.076 241.972 144.104L261.352 147.047C259.504 147.335 255.692 147.811 251.421 148.118C242.095 148.788 239.68 147.998 239.069 147.468C236.938 145.612 234.908 144.411 232.896 143.82Z" fill="#393939"/>
<path d="M241.851 140.526C231.534 150.092 249.099 153.579 249.099 153.579C284.453 158.167 304.291 135.539 304.715 110.877C304.844 103.38 269.714 103.739 271.712 108.011C287.176 141.069 270.794 142.087 241.851 140.526Z" fill="#D2BCF4"/>
<path d="M258.055 154.474C255.137 154.474 252.137 154.275 249.061 153.876L249.04 153.872C248.663 153.797 239.792 151.985 238.468 147.309C237.866 145.177 238.935 142.822 241.648 140.306L241.742 140.22L241.869 140.227C258.238 141.11 271.117 141.257 275.598 134.617C277.22 132.213 277.714 129.007 277.109 124.816C276.47 120.379 274.616 114.924 271.441 108.137C271.235 107.697 271.323 107.243 271.688 106.86C273.193 105.282 279.524 104.699 284.487 104.681C291.358 104.654 297.646 105.532 301.289 107.027C303.788 108.051 305.041 109.349 305.015 110.882C304.907 117.158 303.583 123.168 301.081 128.745C298.511 134.47 294.836 139.42 290.159 143.46C285.221 147.723 279.344 150.801 272.692 152.607C268.114 153.851 263.215 154.473 258.055 154.474ZM249.148 153.284C257.579 154.376 265.447 153.955 272.535 152.03C279.101 150.247 284.899 147.212 289.768 143.007C294.379 139.025 298.001 134.144 300.535 128.501C303.004 122.998 304.31 117.066 304.416 110.871C304.439 109.609 303.309 108.502 301.061 107.581C297.488 106.115 291.297 105.253 284.489 105.279C278.206 105.302 273.235 106.104 272.121 107.273C271.871 107.537 271.911 107.729 271.983 107.884C278.233 121.244 279.539 129.845 276.095 134.951C271.449 141.835 258.465 141.718 241.963 140.831C239.496 143.147 238.515 145.272 239.044 147.145C240.25 151.408 248.815 153.215 249.148 153.284Z" fill="#393939"/>
<path d="M343.931 183.168C354.25 154.175 343.433 104.62 312.578 90.6999C287.123 79.2171 273.585 92.4773 271.713 98.6448C268.213 110.173 274.937 111.161 288.21 124.433C301.482 137.704 289.838 159.238 289.838 159.238C305.902 172.261 318.38 192.077 343.931 183.17" fill="#D2BCF4"/>
<path d="M331.739 185.697C331.157 185.697 330.576 185.681 329.997 185.649C325.996 185.424 322.174 184.426 318.313 182.597C311.159 179.207 304.932 173.377 298.91 167.74C295.922 164.943 292.831 162.05 289.649 159.469L289.456 159.314L289.575 159.095C289.603 159.041 292.482 153.661 293.709 146.743C294.427 142.694 294.447 138.918 293.767 135.519C292.921 131.285 290.981 127.625 287.998 124.643C284.667 121.313 281.691 118.706 279.299 116.612C275.648 113.412 273.01 111.102 271.623 108.496C270.188 105.801 270.129 102.828 271.426 98.5579C272.387 95.3922 276.002 90.9973 281.911 88.3151C287.847 85.6209 298.008 83.7992 312.699 90.4275C320.113 93.7716 326.668 99.2689 332.186 106.766C337.238 113.633 341.207 121.853 343.981 131.197C346.579 139.948 347.977 149.37 348.023 158.445C348.068 167.551 346.752 176.135 344.212 183.269L344.164 183.405L344.029 183.451C339.709 184.957 335.67 185.697 331.739 185.697ZM290.215 159.159C293.347 161.712 296.382 164.554 299.32 167.303C305.308 172.909 311.499 178.706 318.569 182.056C322.359 183.851 326.108 184.831 330.03 185.05C334.39 185.295 338.863 184.603 343.696 182.933C346.181 175.891 347.47 167.429 347.424 158.447C347.379 149.429 345.989 140.064 343.408 131.367C340.692 122.22 336.644 113.836 331.703 107.12C326.248 99.7069 319.772 94.2743 312.454 90.9733C297.965 84.4372 287.982 86.2169 282.159 88.8596C279.467 90.0816 277.048 91.7776 275.164 93.7632C273.615 95.3958 272.462 97.2067 271.998 98.7315C269.435 107.175 272.439 109.806 279.694 116.162C282.092 118.261 285.077 120.875 288.421 124.22C291.491 127.29 293.487 131.054 294.356 135.411C295.049 138.884 295.029 142.738 294.295 146.864C293.19 153.078 290.77 158.07 290.215 159.159Z" fill="#393939"/>
<path d="M194.219 144.179L240.524 144.324L240.452 141.278L195.528 141.266L194.219 144.179Z" fill="#F7F8F9"/>
<path d="M193.865 144.409L240.76 144.555L240.677 141.048L195.379 141.035L193.865 144.409ZM240.288 144.093L194.574 143.951L195.677 141.496L240.228 141.508L240.288 144.093Z" fill="#393939"/>
<path d="M180.243 94.1948L194.15 144.279L195.528 141.266L183.105 94.2439L180.243 94.1948Z" fill="#F7F8F9"/>
<path d="M194.096 144.506L195.771 141.286L195.75 141.207L183.283 94.0167L179.938 93.9604L194.096 144.506ZM195.284 141.244L194.203 143.611L180.548 94.4308L182.927 94.4715L195.284 141.244Z" fill="#393939"/>
<path d="M161.91 95.5174L175.846 143.617L194.219 144.179L180.973 94.2212L161.91 95.5174Z" fill="#F7F8F9"/>
<path d="M175.573 144.179L194.524 144.431L194.441 144.121L181.146 93.9785L161.611 95.307L175.573 144.179ZM193.914 143.928L175.889 143.611L162.21 95.7284L180.8 94.4644L193.916 143.928H193.914Z" fill="#393939"/>
<path d="M175.146 118.909C175.455 120.888 176.638 122.346 177.788 122.166C178.939 121.985 179.621 120.237 179.312 118.258C179.003 116.281 177.82 114.823 176.669 115.003C175.519 115.182 174.836 116.932 175.146 118.909Z" fill="#F7F8F9"/>
<path d="M177.483 122.407C177.596 122.415 177.711 122.41 177.825 122.394C178.466 122.293 178.994 121.788 179.314 120.97C179.617 120.195 179.697 119.219 179.541 118.224C179.207 116.087 177.93 114.573 176.635 114.775C175.339 114.978 174.585 116.81 174.919 118.945C175.074 119.941 175.449 120.846 175.973 121.492C176.428 122.052 176.954 122.368 177.483 122.407ZM176.937 115.221C177.873 115.29 178.823 116.615 179.085 118.294C179.229 119.211 179.157 120.103 178.884 120.803C178.627 121.461 178.226 121.865 177.753 121.938C177.28 122.012 176.775 121.751 176.33 121.201C175.856 120.617 175.516 119.792 175.372 118.875C175.089 117.057 175.698 115.387 176.705 115.23C176.781 115.218 176.859 115.216 176.936 115.221H176.937Z" fill="#393939"/>
<path d="M268.747 85.5031C273.203 88.1518 277.951 87.6551 280.352 83.6144C282.753 79.575 281.087 74.1519 276.631 71.5032C272.175 68.8545 263.525 72.5254 263.525 72.5254C263.525 72.5254 264.291 82.8532 268.747 85.5031Z" fill="#393939"/>
<path d="M283.207 88.3961L277.236 81.9126L273.58 91.2447L275.918 94.0274C275.918 94.0274 277.625 100.331 281.517 98.9573C285.411 97.5833 284.813 91.0915 283.207 88.3973" fill="white"/>
<path d="M282.973 98.402C283.529 97.9005 283.964 97.2314 284.259 96.4163C285.203 93.806 284.569 90.1483 283.441 88.2572L283.427 88.2333L277.142 81.4087L273.267 91.2973L275.674 94.159C275.816 94.6581 276.827 97.9352 278.959 99.0543C279.787 99.4887 280.679 99.5438 281.609 99.2146C282.12 99.0339 282.577 98.761 282.973 98.4032M282.988 88.5612C284.043 90.353 284.632 93.782 283.746 96.232C283.293 97.4876 282.512 98.3182 281.428 98.7C280.645 98.9765 279.9 98.9322 279.211 98.5707C277.16 97.4935 276.192 93.9915 276.182 93.9568L276.167 93.8981L273.893 91.1932L277.331 82.4165L282.988 88.5588V88.5612Z" fill="#393939"/>
<path d="M271.009 75.8552C272.312 78.6607 275.028 79.3405 277.967 78.3591C278.893 78.1185 279.979 78.9084 280.44 80.1951C280.836 81.2974 280.65 82.4177 280.047 82.9802C280.679 86.5852 279.247 89.982 276.448 91.0125C273.207 92.2058 269.362 89.7797 267.86 85.593C266.359 81.4075 267.768 77.0473 271.009 75.854" fill="white"/>
<path d="M278.256 90.225C278.887 89.6565 279.408 88.9264 279.784 88.073C280.428 86.6104 280.623 84.8402 280.339 83.0736C280.953 82.3974 281.099 81.2281 280.697 80.1054C280.185 78.6787 278.982 77.8158 277.897 78.097L277.881 78.1018C274.839 79.118 272.425 78.2574 271.256 75.7416L271.151 75.5142L270.915 75.6003C267.541 76.8427 266.055 81.3669 267.604 85.6864C268.476 88.1125 270.138 90.0479 272.167 90.9946C273.644 91.684 275.157 91.7785 276.541 91.2687C277.171 91.0365 277.749 90.6822 278.256 90.2238M278.043 78.6201C278.837 78.4202 279.776 79.1503 280.183 80.2873C280.53 81.2544 280.399 82.2801 279.861 82.7816L279.754 82.8821L279.779 83.0282C280.396 86.5494 278.955 89.8001 276.353 90.7588C275.107 91.2172 273.739 91.1286 272.398 90.5015C270.499 89.6158 268.939 87.7929 268.118 85.5033C266.704 81.5644 267.943 77.4603 270.875 76.2024C272.197 78.778 274.856 79.6817 278.043 78.6213V78.6201Z" fill="#393939"/>
<path d="M267.444 85.7653C267.331 85.3321 267.077 84.1819 266.984 83.7606C267.77 84.8988 269.047 86.6019 269.949 87.1896C270.851 87.7773 271.292 86.8102 272.233 86.4332C273.551 85.903 275.244 86.1196 275.928 85.0424C277.526 82.523 277.005 78.5996 277.005 78.5996C277.061 78.5685 277.487 78.2418 277.966 78.3602C277.966 78.3602 278.196 80.1436 279.054 81.6373C279.274 82.0203 279.751 82.7073 280.083 82.9443C280.07 82.9563 280.06 82.9706 280.046 82.9814C281.59 87.4039 278.719 92.9969 275.918 94.0274C272.678 95.2207 268.532 89.9305 267.444 85.7653Z" fill="#393939"/>
<path d="M275.636 86.5039C275.636 86.5039 274.468 87.6098 273.147 88.0311C271.824 88.4524 271.311 87.8839 271.311 87.8839C271.311 87.8839 272.391 89.538 273.765 89.1741C275.139 88.8103 275.636 86.5051 275.636 86.5051" fill="white"/>
<path d="M269.322 84.8429C270.232 84.0218 270.258 82.564 269.382 81.5934C268.506 80.6239 267.054 80.503 266.144 81.3241C265.235 82.1451 265.207 83.6029 266.083 84.5736C266.96 85.543 268.413 85.6639 269.322 84.8429ZM266.429 81.64C267.164 80.9758 268.348 81.0823 269.067 81.8782C269.787 82.6741 269.772 83.8626 269.037 84.5269C268.301 85.1912 267.117 85.0846 266.398 84.2887C265.679 83.4928 265.693 82.3043 266.429 81.64Z" fill="#393939"/>
<path d="M275.088 83.4963C276.175 82.516 276.207 80.7758 275.161 79.6184C274.115 78.461 272.382 78.3162 271.295 79.2976C270.21 80.2779 270.178 82.0181 271.224 83.1755C272.269 84.3329 274.003 84.4777 275.088 83.4963ZM271.635 79.6735C272.514 78.8799 273.926 79.008 274.786 79.9583C275.644 80.9086 275.627 82.3269 274.748 83.1205C273.871 83.914 272.458 83.7859 271.599 82.8356C270.741 81.8853 270.758 80.467 271.635 79.6735Z" fill="#393939"/>
<path d="M270.853 82.0225L270.717 81.6191L269.499 82.0309L269.634 82.433L270.853 82.0225Z" fill="#393939"/>
<path d="M278.084 78.5362L277.848 78.1831L275.178 79.9665L275.414 80.3195L278.084 78.5362Z" fill="#393939"/>
<path d="M271.784 82.2379C271.981 82.457 272.319 82.4737 272.538 82.2762C272.757 82.0788 272.774 81.7412 272.576 81.5222C272.379 81.3032 272.041 81.2864 271.822 81.4839C271.603 81.6814 271.586 82.0189 271.784 82.2379Z" fill="#393939"/>
<path d="M267.734 83.3908C267.933 83.6098 268.27 83.6266 268.489 83.4291C268.707 83.2316 268.725 82.8941 268.528 82.675C268.329 82.456 267.991 82.4393 267.774 82.6367C267.555 82.8342 267.537 83.1718 267.734 83.3908Z" fill="#393939"/>
<path d="M272.36 85.9855C272.458 85.8982 272.48 85.7498 272.407 85.6361C272.326 85.5092 272.157 85.4733 272.031 85.5547C271.605 85.8276 270.868 86.1244 270.637 85.8934C270.423 85.6779 270.437 84.2656 270.67 82.809C270.693 82.6606 270.593 82.5206 270.444 82.4978C270.296 82.4751 270.156 82.5756 270.132 82.724C270.022 83.4182 269.702 85.727 270.251 86.2776C270.883 86.9107 272.18 86.1064 272.326 86.0119C272.339 86.0035 272.35 85.9951 272.36 85.9843" fill="#393939"/>
<path d="M290.031 159.346L289.644 159.128C295.087 149.467 294.693 141.055 293.404 135.701C291.928 129.572 288.431 123.98 284.047 120.743C278.716 116.805 275.595 113.588 273.917 111.581C272.089 109.393 271.532 108.152 271.509 108.1L271.915 107.922C271.938 107.971 274.208 112.926 284.31 120.386C288.775 123.684 292.336 129.37 293.835 135.597C295.143 141.029 295.544 149.558 290.031 159.346Z" fill="#393939"/>
<path d="M334.155 185.543L333.991 185.393L333.793 185.494L333.827 185.245C333.848 185.221 334.042 185.003 334.337 184.508L334.718 184.735C334.408 185.256 334.195 185.499 334.155 185.543ZM335.76 182.544L335.346 182.383C335.613 181.696 335.861 180.939 336.086 180.132L336.513 180.25C336.285 181.072 336.031 181.844 335.76 182.544ZM337.073 177.909L336.639 177.821C336.79 177.075 336.927 176.286 337.047 175.475L337.485 175.54C337.365 176.358 337.227 177.155 337.073 177.909ZM337.78 173.155L337.338 173.111C337.416 172.345 337.48 171.546 337.532 170.734L337.975 170.762C337.923 171.579 337.857 172.385 337.78 173.155ZM338.086 168.364L337.643 168.351C337.667 167.578 337.68 166.775 337.683 165.965H338.125C338.123 166.78 338.11 167.588 338.086 168.364ZM337.658 163.577C337.641 162.798 337.613 161.994 337.577 161.189L338.02 161.17C338.056 161.978 338.084 162.784 338.102 163.567L337.658 163.577ZM337.447 158.804C337.395 158.023 337.336 157.221 337.27 156.421L337.711 156.384C337.778 157.187 337.838 157.991 337.888 158.775L337.447 158.804ZM337.051 154.04C336.973 153.262 336.887 152.461 336.795 151.663L337.235 151.613C337.327 152.413 337.413 153.215 337.492 153.996L337.051 154.04ZM336.493 149.294C336.38 148.512 336.254 147.719 336.115 146.938L336.552 146.861C336.69 147.646 336.818 148.443 336.931 149.232L336.493 149.294ZM335.661 144.594C335.498 143.821 335.32 143.038 335.131 142.268L335.562 142.162C335.751 142.937 335.93 143.724 336.094 144.503L335.661 144.594ZM334.525 139.959C334.312 139.196 334.084 138.426 333.845 137.67L334.269 137.537C334.509 138.298 334.738 139.072 334.953 139.839L334.525 139.959ZM333.094 135.405C332.832 134.657 332.554 133.903 332.269 133.164L332.682 133.004C332.969 133.747 333.248 134.505 333.512 135.257L333.094 135.405ZM331.373 130.951C331.063 130.22 330.738 129.485 330.407 128.767L330.809 128.581C331.143 129.304 331.47 130.043 331.781 130.778L331.373 130.951ZM329.37 126.616C329.012 125.904 328.64 125.192 328.263 124.5L328.652 124.288C329.032 124.985 329.406 125.7 329.766 126.417L329.37 126.616ZM327.085 122.422C326.676 121.728 326.255 121.045 325.835 120.389L326.208 120.149C326.632 120.81 327.056 121.498 327.467 122.197L327.085 122.422ZM324.505 118.407C323.634 117.17 323.081 116.508 323.076 116.501L323.416 116.216C323.439 116.244 323.984 116.897 324.868 118.152L324.505 118.407Z" fill="#393939"/>
<path d="M271.434 201.946H336.086V209.033H271.434V201.946ZM271.992 208.474H335.528V202.505H271.992V208.474Z" fill="#393939"/>
<path d="M335.092 209.946L334.893 208.847C334.94 208.839 339.646 207.962 344.278 205.358C346.972 203.844 349.114 202.05 350.644 200.028C352.54 197.521 353.501 194.643 353.501 191.472V129.016H354.619V191.472C354.619 194.897 353.578 198.006 351.526 200.713C349.897 202.863 347.634 204.758 344.8 206.347C340.006 209.035 335.29 209.91 335.092 209.946Z" fill="#393939"/>
<path d="M257.87 288.155L256.776 287.931L272.88 208.79L273.975 209.013L257.87 288.155Z" fill="#393939"/>
<path d="M354.587 288.858L334.452 209.038L335.536 208.765L355.672 288.584L354.587 288.858Z" fill="#393939"/>
<path d="M350.655 272.031H260.886V273.147H350.655V272.031Z" fill="#393939"/>
<path d="M277.879 144.423H155.374V151.313H277.879V144.423Z" fill="white"/>
<path d="M155.094 144.144H278.158V151.592H155.094V144.144ZM155.653 151.034H277.6V144.702H155.653V151.034Z" fill="#393939"/>
<path d="M269.575 151.408H266.584V288.72H269.575V151.408Z" fill="white"/>
<path d="M269.854 289H266.304V151.408H266.863V288.441H269.295V151.408H269.854V289Z" fill="#393939"/>
<path d="M164.597 151.408H162.052V288.72H164.597V151.408Z" fill="white"/>
<path d="M164.875 289H161.772V151.408H162.331V288.441H164.317V151.408H164.875V289Z" fill="#393939"/>
<path d="M280.271 141.878C280.271 141.878 253.468 141.833 251.94 141.732C250.411 141.632 245.679 136.453 245.679 136.453C244.469 135.072 242.476 134.689 240.84 135.523L230.953 139.388C230.102 139.719 229.682 140.678 230.013 141.529L231.345 144.952C231.665 145.772 232.643 146.108 233.399 145.659L235.052 144.678L240.355 144.996C241.928 145.386 243.876 149.476 248.531 149.781C253.186 150.088 294.611 151.147 294.611 151.147C296.314 151.201 282.211 141.792 280.271 141.878Z" fill="#F7F8F9"/>
<path d="M248.517 150.011C253.124 150.314 294.192 151.366 294.607 151.377C294.806 151.383 294.901 151.295 294.945 151.221C295.01 151.11 294.998 150.978 294.908 150.83C294.436 150.047 290.982 147.614 287.973 145.683C286.478 144.725 281.511 141.602 280.268 141.649C279.776 141.647 253.453 141.601 251.957 141.503C250.779 141.425 247.149 137.719 245.85 136.297C244.574 134.842 242.477 134.437 240.748 135.312L230.87 139.173C229.903 139.55 229.423 140.644 229.8 141.611L231.132 145.036C231.308 145.489 231.674 145.84 232.135 145.999C232.596 146.158 233.1 146.106 233.519 145.857L235.109 144.911L240.321 145.225C240.795 145.353 241.369 145.913 242.033 146.559C243.441 147.929 245.369 149.804 248.517 150.011ZM294.391 150.911C291.062 150.825 252.966 149.842 248.548 149.552C245.569 149.356 243.711 147.549 242.355 146.229C241.604 145.499 241.01 144.921 240.413 144.772L240.392 144.768H240.371L234.996 144.443L233.283 145.462C232.981 145.641 232.616 145.678 232.285 145.564C231.952 145.45 231.689 145.196 231.561 144.868L230.229 141.445C229.944 140.714 230.308 139.887 231.038 139.602L240.936 135.732L240.947 135.728C242.489 134.941 244.365 135.302 245.507 136.605C246.001 137.145 250.35 141.859 251.926 141.962C253.444 142.063 279.177 142.107 280.272 142.109H280.282C281.006 142.077 284.075 143.719 287.918 146.196C289.606 147.283 291.212 148.385 292.441 149.297C293.683 150.218 294.187 150.686 294.391 150.911Z" fill="#393939"/>
<path d="M230.122 142.185L238.472 139.276L238.32 138.842L229.971 141.749L230.122 142.185Z" fill="#393939"/>
<path d="M238.858 142.547L234.109 142.234L230.998 144.058" fill="#F7F8F9"/>
<path d="M231.114 144.257L234.163 142.469L238.843 142.776L238.873 142.317L234.052 142L230.881 143.859L231.114 144.257Z" fill="#393939"/>
<path d="M252.599 141.753C244.625 153.343 251.544 157.794 251.544 157.794C268.41 165.848 289.336 166.344 300.072 160.986C321.305 150.389 332.236 102.56 307.663 90.6998C295.914 85.029 304.035 118.495 286.695 136.616C280.361 143.233 267.212 142.663 252.599 141.753Z" fill="#D2BCF4"/>
<mask id="path-165-inside-1_1691_77955" fill="white">
<path d="M258.379 142.461C264.54 142.866 269.298 142.797 273.37 142.263C279.988 141.394 284.757 139.243 287.947 135.686C290.548 132.787 292.707 129.07 294.363 124.637C295.684 121.098 296.691 117.097 297.354 112.744C298.482 105.339 298.22 99.3977 298.218 99.3379L297.757 99.3594C297.76 99.4181 298.02 105.321 296.898 112.684C296.238 117.004 295.24 120.973 293.93 124.481C292.295 128.856 290.167 132.524 287.605 135.378C284.49 138.849 279.815 140.952 273.31 141.806C268.079 142.493 261.699 142.405 252.62 141.523L252.576 141.981C254.643 142.183 256.571 142.342 258.379 142.461Z"/>
</mask>
<path d="M258.379 142.461C264.54 142.866 269.298 142.797 273.37 142.263C279.988 141.394 284.757 139.243 287.947 135.686C290.548 132.787 292.707 129.07 294.363 124.637C295.684 121.098 296.691 117.097 297.354 112.744C298.482 105.339 298.22 99.3977 298.218 99.3379L297.757 99.3594C297.76 99.4181 298.02 105.321 296.898 112.684C296.238 117.004 295.24 120.973 293.93 124.481C292.295 128.856 290.167 132.524 287.605 135.378C284.49 138.849 279.815 140.952 273.31 141.806C268.079 142.493 261.699 142.405 252.62 141.523L252.576 141.981C254.643 142.183 256.571 142.342 258.379 142.461Z" fill="#393939"/>
<path d="M258.379 142.461L258.313 143.459L258.313 143.459L258.379 142.461ZM273.37 142.263L273.5 143.254L273.5 143.254L273.37 142.263ZM287.947 135.686L287.203 135.018L287.203 135.018L287.947 135.686ZM294.363 124.637L295.3 124.987L295.3 124.987L294.363 124.637ZM297.354 112.744L296.365 112.593L296.365 112.594L297.354 112.744ZM298.218 99.3379L299.217 99.2979L299.177 98.292L298.171 98.339L298.218 99.3379ZM297.757 99.3594L297.71 98.3605L296.717 98.4069L296.758 99.4002L297.757 99.3594ZM296.898 112.684L297.886 112.835L297.886 112.835L296.898 112.684ZM293.93 124.481L294.866 124.831L294.866 124.831L293.93 124.481ZM287.605 135.378L288.349 136.046L288.349 136.046L287.605 135.378ZM273.31 141.806L273.18 140.814L273.179 140.814L273.31 141.806ZM252.62 141.523L252.717 140.528L251.721 140.431L251.625 141.427L252.62 141.523ZM252.576 141.981L251.581 141.885L251.485 142.88L252.479 142.977L252.576 141.981ZM258.313 143.459C264.512 143.866 269.34 143.8 273.5 143.254L273.24 141.271C269.255 141.794 264.568 141.866 258.444 141.464L258.313 143.459ZM273.5 143.254C280.262 142.366 285.288 140.148 288.692 136.354L287.203 135.018C284.225 138.338 279.715 140.421 273.239 141.271L273.5 143.254ZM288.692 136.354C291.392 133.344 293.61 129.512 295.3 124.987L293.426 124.288C291.805 128.627 289.705 132.23 287.203 135.018L288.692 136.354ZM295.3 124.987C296.649 121.374 297.671 117.305 298.342 112.895L296.365 112.594C295.711 116.889 294.72 120.822 293.426 124.288L295.3 124.987ZM298.342 112.895C298.914 109.143 299.133 105.765 299.21 103.318C299.248 102.093 299.25 101.099 299.243 100.406C299.239 100.059 299.233 99.7872 299.227 99.599C299.225 99.5049 299.222 99.4317 299.22 99.3805C299.219 99.3548 299.219 99.3348 299.218 99.3204C299.218 99.3132 299.218 99.3075 299.217 99.3034C299.217 99.2977 299.217 99.2978 299.217 99.2979L297.219 99.3779C297.22 99.411 297.48 105.28 296.365 112.593L298.342 112.895ZM298.171 98.339L297.71 98.3605L297.804 100.358L298.265 100.337L298.171 98.339ZM296.758 99.4002C296.759 99.4312 297.018 105.262 295.909 112.534L297.886 112.835C298.455 109.104 298.673 105.747 298.749 103.314C298.787 102.097 298.789 101.109 298.782 100.42C298.778 100.075 298.772 99.8053 298.767 99.6183C298.764 99.5248 298.761 99.4521 298.76 99.4012C298.759 99.3758 298.758 99.3559 298.757 99.3416C298.757 99.332 298.756 99.3134 298.756 99.3187L296.758 99.4002ZM295.909 112.533C295.258 116.796 294.276 120.697 292.993 124.131L294.866 124.831C296.205 121.249 297.218 117.212 297.886 112.835L295.909 112.533ZM292.993 124.131C291.392 128.414 289.323 131.967 286.861 134.71L288.349 136.046C291.01 133.081 293.197 129.299 294.866 124.831L292.993 124.131ZM286.861 134.71C283.959 137.943 279.543 139.979 273.18 140.814L273.44 142.797C280.086 141.925 285.02 139.755 288.349 136.046L286.861 134.71ZM273.179 140.814C268.06 141.487 261.766 141.407 252.717 140.528L252.524 142.518C261.631 143.403 268.099 143.499 273.44 142.797L273.179 140.814ZM251.625 141.427L251.581 141.885L253.572 142.078L253.616 141.619L251.625 141.427ZM252.479 142.977C254.555 143.179 256.494 143.339 258.313 143.459L258.445 141.464C256.649 141.345 254.731 141.186 252.673 140.986L252.479 142.977Z" fill="#393939" mask="url(#path-165-inside-1_1691_77955)"/>
<path d="M295.393 163.193C302.189 160.387 307.926 155.628 312.44 149.049C316.047 143.795 318.887 137.375 320.88 129.966C322.652 123.38 323.415 117.215 323.741 113.203C324.097 108.854 324.031 106.023 324.03 105.995L323.57 106.006C323.573 106.118 323.808 117.316 320.432 129.857C318.452 137.213 315.634 143.584 312.057 148.794C307.594 155.296 301.928 159.997 295.217 162.767L295.393 163.193Z" fill="#393939"/>
<path d="M281.728 164.757C280.539 164.757 279.326 164.724 278.095 164.658C268.858 164.168 259.392 161.807 251.441 158.011L251.415 157.995C251.33 157.94 249.312 156.612 248.695 153.539C248.021 150.183 249.268 146.173 252.402 141.616L252.479 141.505L252.614 141.513C260.182 141.986 266.919 142.331 272.729 141.769C279.271 141.136 283.654 139.446 286.522 136.449L286.868 136.781C283.916 139.865 279.439 141.601 272.775 142.246C266.966 142.807 260.254 142.468 252.721 141.999C249.723 146.392 248.526 150.237 249.161 153.431C249.616 155.718 250.989 157.142 251.662 157.585C259.555 161.351 268.951 163.694 278.12 164.181C286.871 164.645 294.63 163.434 299.965 160.772L300.179 161.201C295.525 163.523 289.068 164.757 281.728 164.757Z" fill="#393939"/>
<path d="M202.738 269.22L202.199 268.913C202.488 268.408 231.126 218.382 240.33 209.178L240.769 209.617C231.624 218.762 203.027 268.716 202.738 269.22Z" fill="white"/>
</svg>
