<svg width="25" height="25" viewBox="0 0 25 25" fill="none" xmlns="http://www.w3.org/2000/svg">
<path d="M15.3947 22.9543H13.8317V16.9539H18.2817C18.7545 16.9539 19.1371 16.5709 19.1371 16.0985C19.1371 15.6261 18.7545 15.243 18.2817 15.243H13.8317V10.5132H20.812C21.2848 10.5132 21.6674 10.1302 21.6674 9.65779C21.6674 7.68466 20.9874 5.75455 19.7536 4.22542C16.486 -0.0708515 9.47035 -0.078588 6.20065 4.22291C4.96514 5.75455 4.28516 7.68466 4.28516 9.65779C4.28516 10.1302 4.66775 10.5132 5.14057 10.5132H12.1209V15.243H7.67089C7.19807 15.243 6.81548 15.6261 6.81548 16.0985C6.81548 16.5709 7.19807 16.9539 7.67089 16.9539H12.1209V22.9543H10.5579C10.0851 22.9543 9.7025 23.3373 9.7025 23.8097C9.7025 24.2821 10.0851 24.6651 10.5579 24.6651H15.3947C15.8675 24.6651 16.2501 24.2821 16.2501 23.8097C16.2501 23.3373 15.8675 22.9543 15.3947 22.9543ZM18.4204 5.29719C19.2315 6.30297 19.7444 7.52344 19.9031 8.80238H17.2982C17.2317 7.86228 17.0527 6.93618 16.7563 6.04025C16.3993 4.96748 15.8664 3.96828 15.2184 3.05899C16.4616 3.47933 17.5747 4.24071 18.4204 5.29719ZM7.53389 5.29468C8.37703 4.24228 9.48389 3.48257 10.7191 3.06186C10.0637 3.96943 9.52869 4.95975 9.1687 6.02103C8.86165 6.91764 8.67406 7.85017 8.60279 8.80238H6.04945C6.20817 7.52344 6.72107 6.30255 7.53389 5.29468ZM10.7885 6.57321C11.2399 5.24268 11.9975 4.03433 12.9751 3.01899C13.9419 4.0373 14.6892 5.2479 15.1324 6.57864C15.3713 7.30039 15.5225 8.04554 15.586 8.80238H10.3165C10.3842 8.03969 10.5412 7.29329 10.7885 6.57321Z" fill="#BABABA"/>
<path d="M7.67958 18.1161H2.71083V13.56C2.71083 13.0876 2.32823 12.7046 1.85541 12.7046C1.3826 12.7046 1 13.0876 1 13.56V23.8095C1 24.2819 1.3826 24.6649 1.85541 24.6649C2.32823 24.6649 2.71083 24.2819 2.71083 23.8095V19.8269H6.82416V23.8095C6.82416 24.2819 7.20676 24.6649 7.67958 24.6649C8.15239 24.6649 8.53499 24.2819 8.53499 23.8095V18.9715C8.53499 18.4991 8.15239 18.1161 7.67958 18.1161ZM24.0962 12.7046C23.6234 12.7046 23.2408 13.0876 23.2408 13.56V18.1161H18.272C17.7992 18.1161 17.4166 18.4991 17.4166 18.9715V23.8095C17.4166 24.2819 17.7992 24.6649 18.272 24.6649C18.7448 24.6649 19.1274 24.2819 19.1274 23.8095V19.8269H23.2408V23.8095C23.2408 24.2819 23.6234 24.6649 24.0962 24.6649C24.569 24.6649 24.9516 24.2819 24.9516 23.8095V13.56C24.9516 13.0876 24.569 12.7046 24.0962 12.7046Z" fill="#BABABA"/>
</svg>
