<svg width="22" height="25" viewBox="0 0 22 25" fill="none" xmlns="http://www.w3.org/2000/svg">
<g clip-path="url(#clip0_3196_131615)">
<path d="M3.53666 15.8477V16.0236C3.53651 16.1304 3.55821 16.2362 3.60044 16.3344C3.64267 16.4325 3.70451 16.5209 3.78216 16.5941L4.36668 17.1413L3.78216 17.6884C3.70451 17.7616 3.64267 17.8501 3.60044 17.9482C3.55821 18.0463 3.53651 18.1521 3.53666 18.259V18.9625C3.53543 19.0707 3.55662 19.178 3.59888 19.2775C3.64114 19.3771 3.70355 19.4668 3.78216 19.5409L4.36668 20.088L3.78216 20.6352C3.70451 20.7084 3.64267 20.7968 3.60044 20.895C3.55821 20.9931 3.53651 21.0989 3.53666 21.2058V22.1594C3.53628 22.3563 3.61004 22.5461 3.74319 22.6909L5.64872 24.7505C5.72166 24.8292 5.81001 24.892 5.90823 24.9349C6.00646 24.9778 6.11245 25 6.2196 25C6.32675 25 6.43275 24.9778 6.53097 24.9349C6.6292 24.892 6.71754 24.8292 6.79048 24.7505L8.68432 22.6909C8.81747 22.5461 8.89123 22.3563 8.89085 22.1594V16.1134C10.4349 15.5002 11.6887 14.321 12.398 12.815C12.5577 12.7681 12.7136 12.7212 12.8695 12.6664L13.6099 13.4207C13.6851 13.4967 13.7751 13.5564 13.8743 13.5961C13.9735 13.6358 14.0798 13.6546 14.1866 13.6513L14.9659 13.6279L14.9309 14.429C14.926 14.5371 14.9436 14.645 14.9825 14.7459C15.0214 14.8468 15.0808 14.9385 15.1569 15.0152L15.6518 15.5155C15.7266 15.591 15.816 15.6504 15.9145 15.6901C16.013 15.7297 16.1185 15.7488 16.2246 15.7461L17.004 15.7226L16.9728 16.5043C16.968 16.6114 16.9852 16.7184 17.0234 16.8186C17.0617 16.9188 17.12 17.01 17.1949 17.0866L17.869 17.7744C18.0072 17.9161 18.1938 18 18.3912 18.0089L21.1891 18.134H21.2242C21.4286 18.1331 21.6246 18.0517 21.7697 17.9073C21.8455 17.8318 21.905 17.7415 21.9446 17.642C21.9841 17.5425 22.0029 17.4359 21.9996 17.3289L21.9334 14.5345C21.9276 14.3382 21.8483 14.1512 21.7113 14.0109L16.7156 8.93024C17.1077 7.94246 17.253 6.87347 17.1388 5.81646C17.0246 4.75944 16.6543 3.7465 16.0602 2.86591C15.4662 1.98533 14.6664 1.26384 13.7305 0.764325C12.7947 0.264814 11.7513 0.00244853 10.6912 9.83633e-05C9.44881 -0.00676987 8.23089 0.346179 7.18366 1.01656C6.13643 1.68694 5.30442 2.64625 4.78753 3.77929C3.52468 4.12329 2.39505 4.84224 1.54697 5.84175C0.698885 6.84125 0.171979 8.0746 0.035426 9.37986C-0.101127 10.6851 0.159058 12.0013 0.78182 13.1556C1.40458 14.3099 2.36081 15.2483 3.52497 15.8477H3.53666ZM10.6912 1.56336C11.5343 1.5638 12.3633 1.7806 13.0992 2.19314C13.8352 2.60567 14.4537 3.2002 14.8958 3.92018C15.3379 4.64016 15.589 5.46163 15.6252 6.30642C15.6613 7.15122 15.4813 7.99124 15.1023 8.74656C15.0292 8.89233 15.0035 9.05738 15.0286 9.21858C15.0538 9.37978 15.1286 9.52904 15.2426 9.64544L20.3981 14.8863L20.4448 16.5512L18.7926 16.4769L18.5705 16.2502L18.625 14.9527C18.6298 14.8472 18.6131 14.7417 18.5761 14.6428C18.539 14.5439 18.4824 14.4535 18.4095 14.3771C18.3367 14.3008 18.2492 14.2401 18.1522 14.1986C18.0553 14.1571 17.951 14.1358 17.8457 14.1359L16.548 14.175V14.1555L16.6026 12.8579C16.6074 12.7508 16.5901 12.6438 16.5519 12.5436C16.5137 12.4434 16.4554 12.3522 16.3805 12.2756C16.3056 12.1989 16.2157 12.1385 16.1165 12.0981C16.0172 12.0578 15.9108 12.0384 15.8037 12.0411L14.51 12.0802L13.641 11.197C13.5287 11.0836 13.3845 11.0074 13.2277 10.9788C13.071 10.9501 12.9092 10.9704 12.7643 11.0367C12.4275 11.1897 12.0745 11.3038 11.7121 11.3768C11.3879 11.4446 11.0575 11.4787 10.7262 11.4784C10.0751 11.4825 9.42951 11.3575 8.82668 11.1105C8.22384 10.8636 7.67562 10.4996 7.21354 10.0394C6.75146 9.57923 6.38463 9.03201 6.13414 8.42918C5.88365 7.82635 5.75444 7.17981 5.75394 6.52673C5.75394 6.35868 5.75394 6.19453 5.77732 6.03039C5.81965 5.58403 5.9246 5.1459 6.08906 4.72897C6.4446 3.79485 7.07546 2.99153 7.89762 2.426C8.71978 1.86047 9.69422 1.55956 10.6912 1.56336ZM4.24978 5.65911C4.24978 5.71383 4.24978 5.77245 4.24978 5.83107C4.24978 5.8897 4.24978 5.92878 4.24978 5.97958C4.24978 6.16327 4.2264 6.34304 4.2264 6.52673C4.22493 6.74599 4.23534 6.96517 4.25757 7.1833C4.25757 7.25755 4.28095 7.3279 4.28874 7.39825C4.28874 7.54285 4.32771 7.68354 4.35499 7.82423C4.38227 7.96493 4.39785 7.98838 4.41734 8.07045C4.43682 8.15252 4.47579 8.32057 4.51086 8.46126C4.54593 8.60196 4.57321 8.62932 4.60438 8.71529C4.63556 8.80127 4.67842 8.94197 4.72518 9.05531C4.77195 9.16864 4.80702 9.22336 4.84598 9.30543C4.88495 9.3875 4.93951 9.51647 4.99406 9.61808C5.04862 9.71969 5.09148 9.78222 5.13824 9.86429C5.185 9.94637 5.25125 10.0597 5.3136 10.1496C5.37595 10.2395 5.42661 10.3059 5.48116 10.3841C5.53572 10.4622 5.60975 10.5639 5.6799 10.6498C5.75004 10.7358 5.80849 10.7944 5.87084 10.8648C5.93319 10.9351 6.01502 11.0328 6.09296 11.111C6.17089 11.1892 6.23324 11.2439 6.30338 11.3103L6.54498 11.5292C6.61902 11.5917 6.69696 11.6503 6.77489 11.7089C6.85283 11.7676 6.94635 11.8457 7.03598 11.9044C7.1256 11.963 7.19964 12.0138 7.28537 12.0646C7.3711 12.1154 7.46852 12.1818 7.56205 12.2326C7.65557 12.2834 7.7374 12.3264 7.82703 12.3694L8.11928 12.514L8.39596 12.6235L8.7077 12.7368L8.99606 12.8228C9.10128 12.8501 9.21039 12.8814 9.3195 12.9048L9.61955 12.9596C9.72866 12.9596 9.83777 12.9986 9.95078 13.0104L10.2625 13.0377H10.4846C9.83861 13.8917 8.93318 14.5117 7.90496 14.8042C7.74235 14.8509 7.59928 14.9493 7.49736 15.0846C7.39543 15.22 7.34017 15.385 7.33993 15.5546V21.8545L6.21765 23.0582L5.09538 21.8428V21.5341L6.0423 20.6469C6.12016 20.5738 6.18224 20.4854 6.22467 20.3873C6.26711 20.2891 6.28901 20.1833 6.28901 20.0763C6.28901 19.9693 6.26711 19.8635 6.22467 19.7654C6.18224 19.6672 6.12016 19.5788 6.0423 19.5057L5.09538 18.6186L6.0423 17.708C6.12016 17.6349 6.18224 17.5465 6.22467 17.4483C6.26711 17.3502 6.28901 17.2444 6.28901 17.1374C6.28901 17.0304 6.26711 16.9246 6.22467 16.8264C6.18224 16.7283 6.12016 16.6399 6.0423 16.5668L5.09538 15.6796V15.3514C5.09538 15.1964 5.04944 15.0449 4.96341 14.9162C4.87737 14.7874 4.75511 14.6872 4.61218 14.6283C3.74346 14.2663 2.99607 13.6627 2.45814 12.8886C1.9202 12.1146 1.61414 11.2025 1.57605 10.2598C1.53796 9.31704 1.76943 8.38305 2.24315 7.56792C2.71688 6.75278 3.41312 6.09049 4.24978 5.65911Z" fill="#BABABA"/>
<path d="M10.4956 9C10.9905 9.00086 11.4744 8.85486 11.8862 8.58049C12.298 8.30612 12.6191 7.91572 12.8089 7.45873C12.9986 7.00173 13.0485 6.49871 12.9522 6.01335C12.8559 5.52799 12.6177 5.08213 12.2678 4.73223C11.9179 4.38234 11.472 4.14415 10.9867 4.04783C10.5013 3.9515 9.99827 4.00138 9.54127 4.19114C9.08428 4.3809 8.69388 4.70201 8.41951 5.1138C8.14514 5.52559 7.99914 6.00954 8 6.50437C8.00116 7.16589 8.26446 7.8 8.73223 8.26777C9.2 8.73554 9.83411 8.99884 10.4956 9ZM10.4956 5.75262C10.6445 5.75175 10.7903 5.79511 10.9145 5.87718C11.0387 5.95926 11.1357 6.07636 11.1933 6.21364C11.2508 6.35093 11.2663 6.50222 11.2378 6.64833C11.2093 6.79444 11.1381 6.9288 11.0331 7.03437C10.9282 7.13994 10.7942 7.21197 10.6483 7.24134C10.5023 7.2707 10.351 7.25607 10.2133 7.1993C10.0757 7.14253 9.95806 7.04618 9.87526 6.92247C9.79246 6.79875 9.74826 6.65324 9.74825 6.50437C9.7528 6.30879 9.83341 6.12269 9.97296 5.98559C10.1125 5.84849 10.3 5.77119 10.4956 5.7701V5.75262Z" fill="#BABABA"/>
</g>
<defs>
<clipPath id="clip0_3196_131615">
<rect width="22" height="25" fill="white"/>
</clipPath>
</defs>
</svg>
