<svg width="22" height="25" viewBox="0 0 22 25" fill="none" xmlns="http://www.w3.org/2000/svg">
<path fill-rule="evenodd" clip-rule="evenodd" d="M19.9666 1.78141V4.83454C21.0037 10.0395 21.0052 15.3978 19.9709 20.6033V23.6568C19.9709 23.6653 19.9696 23.6735 19.9683 23.6817C19.9671 23.6898 19.9658 23.6979 19.9658 23.706C19.9645 23.7345 19.9616 23.763 19.9572 23.7912C19.953 23.816 19.9462 23.8405 19.9397 23.8639L19.9392 23.8654L19.9384 23.8683C19.9321 23.8912 19.9256 23.9144 19.917 23.9369C19.9054 23.9636 19.8924 23.9897 19.8779 24.015C19.8744 24.0214 19.8717 24.028 19.8689 24.0346C19.8654 24.0428 19.862 24.051 19.8572 24.0588C19.8559 24.0608 19.8543 24.0625 19.8527 24.0643C19.8508 24.0663 19.8489 24.0684 19.8474 24.0709C19.8151 24.1231 19.7767 24.1714 19.733 24.2146C19.7277 24.2199 19.7218 24.2244 19.716 24.2289C19.712 24.232 19.7079 24.2351 19.7041 24.2384C19.6678 24.2705 19.6285 24.2992 19.5869 24.324C19.5701 24.3341 19.5537 24.3427 19.5365 24.3513C19.4972 24.3711 19.4563 24.3874 19.4142 24.4002C19.4084 24.402 19.4028 24.4039 19.3972 24.4058C19.3869 24.4094 19.3767 24.4129 19.3658 24.4154C19.3081 24.4295 19.249 24.437 19.1896 24.4377H19.1853H19.1658C19.1061 24.4365 19.0467 24.4286 18.9888 24.4138C18.976 24.4106 18.9634 24.4064 18.9507 24.4021C18.9467 24.4008 18.9428 24.3995 18.9388 24.3982C18.8905 24.3829 18.8438 24.3629 18.7994 24.3384C18.795 24.336 18.7904 24.3343 18.7858 24.3327C18.7811 24.331 18.7764 24.3293 18.7721 24.3267L17.8736 23.7873L16.9752 24.3271C16.8537 24.4 16.7147 24.4386 16.573 24.4386C16.4314 24.4386 16.2923 24.4 16.1709 24.3271L15.2724 23.7877L14.374 24.3275C14.2525 24.4004 14.1135 24.439 13.9719 24.439C13.8302 24.439 13.6912 24.4004 13.5697 24.3275L12.6713 23.7877L11.7728 24.3275C11.6514 24.4004 11.5124 24.439 11.3707 24.439C11.229 24.439 11.09 24.4004 10.9685 24.3275L10.0701 23.7877L9.17166 24.3275C9.05024 24.4004 8.91131 24.4388 8.76971 24.4388C8.62811 24.4388 8.48917 24.4004 8.36775 24.3275L7.46932 23.7873L6.56854 24.3275C6.44721 24.4002 6.30842 24.4386 6.16697 24.4386C6.02553 24.4386 5.88674 24.4002 5.76541 24.3275L4.8619 23.7865L3.95838 24.3275C3.95036 24.3322 3.94209 24.3357 3.93378 24.3393C3.92751 24.3419 3.92123 24.3446 3.91502 24.3478C3.8897 24.3616 3.86361 24.374 3.8369 24.3849C3.81346 24.3939 3.78963 24.4006 3.76541 24.4072C3.76266 24.4079 3.75992 24.4087 3.75717 24.4095C3.73568 24.4154 3.71409 24.4214 3.69158 24.4252C3.66325 24.4296 3.63469 24.4325 3.60604 24.4338C3.59896 24.4341 3.59196 24.4351 3.58493 24.436C3.57606 24.4372 3.56715 24.4384 3.55799 24.4384C3.55442 24.4384 3.55106 24.4379 3.54774 24.4374C3.54452 24.437 3.54134 24.4365 3.53807 24.4365C3.50955 24.4352 3.48112 24.4323 3.45291 24.4279C3.44697 24.4271 3.44115 24.4264 3.43537 24.4257C3.41873 24.4237 3.40232 24.4217 3.38377 24.4174C3.36296 24.4125 3.34324 24.4057 3.32325 24.3988C3.31922 24.3975 3.31518 24.3961 3.31111 24.3947C3.30521 24.3927 3.2993 24.3908 3.29342 24.3888C3.27518 24.3829 3.25715 24.377 3.24002 24.3693C3.21736 24.3591 3.19549 24.347 3.17401 24.3334C3.16561 24.328 3.15703 24.3231 3.14854 24.3182C3.13529 24.3106 3.12223 24.3031 3.11033 24.2943C3.0908 24.2799 3.06893 24.2623 3.05174 24.2459C3.04207 24.2366 3.03054 24.2265 3.01945 24.2168C3.01084 24.2093 3.00249 24.202 2.99549 24.1955C2.98353 24.1844 2.97266 24.17 2.9619 24.1558C2.95825 24.151 2.95462 24.1462 2.95096 24.1416C2.93264 24.1196 2.91556 24.0967 2.89979 24.0728C2.89815 24.0703 2.89626 24.068 2.89436 24.0657C2.89217 24.063 2.88995 24.0603 2.88807 24.0572C2.88339 24.0492 2.87986 24.0409 2.87631 24.0326C2.87363 24.0263 2.87094 24.02 2.86776 24.0138C2.85393 23.9885 2.84154 23.9624 2.83065 23.9357C2.82166 23.9119 2.81502 23.8884 2.80838 23.8642C2.80115 23.8398 2.79516 23.815 2.79041 23.79C2.78599 23.7619 2.78312 23.7336 2.78182 23.7052C2.78134 23.6985 2.78039 23.6919 2.77945 23.6853C2.77809 23.6758 2.77674 23.6663 2.77674 23.6564V20.6017C1.74109 15.3966 1.74109 10.0385 2.77674 4.83337V1.78024C2.77674 1.77179 2.77802 1.76354 2.7793 1.75534C2.78056 1.74724 2.78182 1.73918 2.78182 1.73102C2.78311 1.7025 2.78597 1.67407 2.79041 1.64587C2.79461 1.62103 2.80143 1.59657 2.80794 1.57322L2.80838 1.57165C2.80865 1.57068 2.80892 1.56971 2.80919 1.56873C2.81557 1.54585 2.82203 1.52265 2.83065 1.50016C2.84217 1.4734 2.85521 1.44732 2.86971 1.42204C2.87319 1.4156 2.87597 1.40901 2.87874 1.40244C2.8822 1.39425 2.88564 1.38609 2.89041 1.37829C2.89211 1.37533 2.89426 1.37271 2.89643 1.37006C2.89827 1.36782 2.90013 1.36556 2.90174 1.36305C2.91765 1.33921 2.93487 1.31626 2.9533 1.2943C2.95751 1.2891 2.96153 1.28396 2.96552 1.27886C2.97561 1.26595 2.98552 1.25327 2.99783 1.2404C3.01444 1.22304 3.03287 1.20786 3.05207 1.19206L3.05408 1.1904C3.06045 1.18515 3.0667 1.17991 3.07292 1.17469C3.08616 1.16358 3.09925 1.15259 3.11307 1.14196C3.1293 1.12948 3.14627 1.11998 3.1636 1.1103C3.16796 1.10786 3.17234 1.10541 3.17674 1.1029C3.18172 1.10005 3.18671 1.09714 3.1917 1.09423C3.20862 1.08435 3.22565 1.07441 3.24315 1.06657C3.26071 1.0587 3.2785 1.05294 3.29708 1.04693C3.30247 1.04518 3.30792 1.04342 3.31346 1.04157C3.31665 1.04051 3.31987 1.03943 3.32312 1.03834C3.34496 1.03101 3.36785 1.02333 3.3869 1.01891C3.403 1.01518 3.41973 1.01313 3.43664 1.01107C3.4427 1.01033 3.44878 1.00958 3.45486 1.00876C3.48346 1.00429 3.51228 1.00142 3.54119 1.00016H3.56033C3.56864 1.00016 3.57664 1.00116 3.58576 1.0023C3.59466 1.00342 3.60463 1.00466 3.61697 1.00524C3.64602 1.00647 3.67497 1.00934 3.70369 1.01384C3.72869 1.01813 3.75252 1.02477 3.77674 1.0318C3.78145 1.03317 3.78616 1.03451 3.79087 1.03585C3.81036 1.04139 3.82981 1.04691 3.84901 1.05446C3.87572 1.06535 3.90181 1.07774 3.92713 1.09157C3.93306 1.09462 3.93913 1.0972 3.94519 1.09979C3.95389 1.1035 3.96259 1.10721 3.97088 1.11227L4.86932 1.65173L5.76775 1.11188C5.88922 1.03896 6.02823 1.00043 6.1699 1.00043C6.31158 1.00043 6.45059 1.03896 6.57205 1.11188L7.47049 1.65134L8.36893 1.11149C8.49039 1.03856 8.6294 1.00004 8.77108 1.00004C8.91275 1.00004 9.05176 1.03856 9.17322 1.11149L10.0717 1.65134L10.9701 1.11149C11.0916 1.03856 11.2306 1.00004 11.3722 1.00004C11.5139 1.00004 11.6529 1.03856 11.7744 1.11149L12.6728 1.65134L13.5713 1.11149C13.6927 1.03864 13.8316 1.00016 13.9732 1.00016C14.1148 1.00016 14.2538 1.03864 14.3752 1.11149L15.2736 1.65173L16.1744 1.1111C16.2957 1.0384 16.4345 1 16.576 1C16.7174 1 16.8562 1.0384 16.9775 1.1111L17.8806 1.65212L18.7842 1.11071C18.7922 1.10603 18.8005 1.1025 18.8088 1.09895C18.815 1.09627 18.8213 1.09359 18.8275 1.0904C18.8529 1.07672 18.8789 1.06446 18.9056 1.05368C18.9295 1.0447 18.9537 1.03805 18.9779 1.03141C18.9807 1.03064 18.9836 1.02986 18.9864 1.02908C19.0078 1.02317 19.0293 1.01724 19.0513 1.01345C19.0798 1.00898 19.1085 1.00611 19.1373 1.00485C19.1444 1.00451 19.1514 1.00355 19.1584 1.00259C19.1673 1.00138 19.1762 1.00016 19.1853 1.00016C19.192 1.00016 19.1982 1.00016 19.2045 1.00173C19.233 1.00303 19.2614 1.0059 19.2896 1.01032C19.295 1.01104 19.3003 1.01169 19.3055 1.01234C19.3231 1.01452 19.3402 1.01665 19.3592 1.02087C19.3799 1.02548 19.3998 1.03231 19.4201 1.03925C19.4238 1.04054 19.4276 1.04184 19.4314 1.04313C19.4375 1.04519 19.4436 1.04717 19.4496 1.04914C19.4677 1.05505 19.4856 1.06091 19.5029 1.06852C19.526 1.07868 19.5478 1.09079 19.5693 1.10446C19.5777 1.10976 19.5861 1.1146 19.5945 1.11939C19.6077 1.12696 19.6208 1.13444 19.633 1.14352C19.6498 1.15608 19.6667 1.17059 19.6831 1.18469C19.6861 1.18726 19.689 1.18982 19.692 1.19235C19.7111 1.20876 19.7318 1.22712 19.7478 1.24235C19.7591 1.25309 19.7694 1.26653 19.7797 1.27996C19.7841 1.2856 19.7884 1.29122 19.7928 1.29665C19.8109 1.31849 19.8279 1.34131 19.8435 1.36501C19.8452 1.36755 19.8471 1.36984 19.849 1.37215C19.8512 1.37481 19.8534 1.3775 19.8553 1.38063C19.8599 1.38865 19.8635 1.39693 19.867 1.40524C19.8697 1.4115 19.8724 1.41778 19.8756 1.42399C19.8894 1.44932 19.9018 1.4754 19.9127 1.50212C19.9217 1.52595 19.9283 1.54938 19.9349 1.5736C19.9422 1.59802 19.9482 1.6228 19.9529 1.64782C19.9573 1.6759 19.9602 1.70419 19.9615 1.73259C19.962 1.73933 19.9629 1.74595 19.9639 1.75257C19.9652 1.76205 19.9666 1.77153 19.9666 1.78141ZM18.5396 5.68766H4.20604C3.35002 10.3361 3.35002 15.1017 4.20604 19.7502H18.5396C19.3956 15.1017 19.3956 10.3361 18.5396 5.68766ZM6.16151 2.69274L5.26307 3.23259C5.14165 3.30544 5.00232 3.34392 4.86072 3.34392C4.71913 3.34392 4.58019 3.30544 4.45877 3.23259L4.34158 3.16227V4.12516H18.4041V3.15993L18.274 3.2322C18.1527 3.30482 18.014 3.34318 17.8726 3.34318C17.7313 3.34318 17.5926 3.30482 17.4713 3.2322L16.5681 2.69157L15.667 3.2322C15.5456 3.30505 15.4066 3.34353 15.265 3.34353C15.1234 3.34353 14.9845 3.30505 14.8631 3.2322L13.9646 2.69235L13.0662 3.2322C12.9447 3.30512 12.8057 3.34365 12.664 3.34365C12.5224 3.34365 12.3834 3.30512 12.2619 3.2322L11.3635 2.69235L10.465 3.2322C10.3436 3.30505 10.2047 3.34353 10.0631 3.34353C9.92147 3.34353 9.78253 3.30505 9.66111 3.2322L8.76268 2.69235L7.86424 3.2322C7.74278 3.30512 7.60377 3.34365 7.46209 3.34365C7.32042 3.34365 7.18141 3.30512 7.05994 3.2322L6.16151 2.69274ZM16.5846 22.7451L17.483 22.2052C17.6044 22.1324 17.7433 22.0939 17.8849 22.0939C18.0265 22.0939 18.1655 22.1324 18.2869 22.2052L18.4041 22.2756V21.3127H4.34158V22.2779L4.47205 22.2056C4.59334 22.133 4.73205 22.0946 4.87342 22.0946C5.01479 22.0946 5.1535 22.133 5.27479 22.2056L6.17791 22.7463L7.07908 22.2056C7.2005 22.1328 7.33944 22.0943 7.48104 22.0943C7.62263 22.0943 7.76157 22.1328 7.88299 22.2056L8.78143 22.7455L9.67986 22.2056C9.80133 22.1327 9.94034 22.0942 10.082 22.0942C10.2237 22.0942 10.3627 22.1327 10.4842 22.2056L11.3826 22.7455L12.281 22.2056C12.4025 22.1328 12.5414 22.0943 12.683 22.0943C12.8246 22.0943 12.9635 22.1328 13.0849 22.2056L13.9834 22.7455L14.8818 22.2056C15.0033 22.1327 15.1423 22.0942 15.284 22.0942C15.4256 22.0942 15.5647 22.1327 15.6861 22.2056L16.5846 22.7451ZM13.8667 7.2792C14.2203 7.34816 14.5478 7.51376 14.813 7.75762C14.8806 7.8209 14.9458 7.88341 15.0095 7.9463C15.592 8.52859 16.0452 9.22715 16.3396 9.9964C16.6339 10.7657 16.7628 11.5883 16.7177 12.4107C16.6727 13.2331 16.4547 14.0368 16.0782 14.7693C15.7016 15.5018 15.1748 16.1467 14.5322 16.6619C13.517 17.467 12.2651 17.9156 10.9697 17.9385C9.67422 17.9615 8.40723 17.5575 7.36419 16.7889C7.04323 16.5478 6.74723 16.2752 6.48059 15.9752C6.24749 15.7165 6.09128 15.3978 6.02958 15.055C5.96788 14.7123 6.00313 14.3591 6.13138 14.0354C6.26198 13.6936 6.48417 13.3945 6.77357 13.1707C7.06297 12.9469 7.4084 12.8071 7.772 12.7666C8.73318 12.6548 9.62849 12.2219 10.313 11.5379C10.9975 10.854 11.431 9.95895 11.5435 8.99786C11.5831 8.6355 11.7225 8.29124 11.9461 8.00333C12.1696 7.71543 12.4686 7.49515 12.8099 7.367C13.1473 7.24064 13.5131 7.21025 13.8667 7.2792ZM14.6905 14.0541C14.9675 13.5153 15.1266 12.9237 15.1572 12.3186L15.1575 12.3201C15.189 11.7179 15.0936 11.1159 14.8775 10.5529C14.6615 9.98994 14.3295 9.47865 13.9032 9.05216C13.8556 9.00476 13.8072 8.95854 13.7579 8.91348C13.6876 8.84527 13.5938 8.80667 13.4958 8.80567C13.4482 8.80589 13.401 8.81462 13.3564 8.83145C13.2842 8.85821 13.2211 8.90503 13.1746 8.96641C13.1281 9.02779 13.1001 9.10118 13.0939 9.17794C12.9466 10.4905 12.355 11.7133 11.4173 12.6436C10.4825 13.5768 9.26024 14.1675 7.94817 14.3201C7.86873 14.3284 7.79312 14.3585 7.72975 14.4071C7.66638 14.4557 7.61772 14.5209 7.58919 14.5955C7.56477 14.6525 7.55739 14.7153 7.56792 14.7764C7.57846 14.8375 7.60647 14.8942 7.64856 14.9397C7.84612 15.1601 8.06532 15.3602 8.30286 15.5369C9.06655 16.0995 9.99412 16.3951 10.9425 16.3782C11.8909 16.3614 12.8073 16.0329 13.5505 15.4436C14.0248 15.0666 14.4134 14.593 14.6905 14.0541Z" fill="#BABABA"/>
</svg>
