<svg width="15" height="13" viewBox="0 0 15 13" fill="none" xmlns="http://www.w3.org/2000/svg">
<path fill-rule="evenodd" clip-rule="evenodd" d="M10.1616 4.5459C9.86774 4.72794 9.4784 4.52776 9.4784 4.1946V1.25699C9.4784 0.562653 10.0718 0 10.8034 0H13.6749C14.4066 0 15 0.56256 15 1.25699V2.51823C15 3.21265 14.4059 3.77521 13.6738 3.77521H11.4055L10.1616 4.5459ZM10.3619 3.40401V3.42007L11.0329 3.00438C11.1047 2.95993 11.1886 2.93626 11.2743 2.93626H13.6739C13.9186 2.93626 14.1166 2.74877 14.1166 2.5182V1.25696C14.1166 1.02612 13.9191 0.838901 13.675 0.838901H10.8035C10.5595 0.838901 10.3619 1.02621 10.3619 1.25696V2.5182V3.40401L10.3619 3.40401ZM13.0123 2.30704C12.7684 2.30704 12.5706 2.11919 12.5706 1.88754C12.5706 1.65588 12.7684 1.46813 13.0123 1.46813C13.2564 1.46813 13.4541 1.65589 13.4541 1.88754C13.4541 2.1192 13.2564 2.30704 13.0123 2.30704ZM11.4663 2.30704C11.2224 2.30704 11.0246 2.11919 11.0246 1.88754C11.0246 1.65588 11.2224 1.46813 11.4663 1.46813C11.7103 1.46813 11.908 1.65589 11.908 1.88754C11.908 2.1192 11.7103 2.30704 11.4663 2.30704ZM12.4839 9.68972C12.9699 10.0673 13.0071 10.7333 12.5632 11.1548L11.0784 12.5647C9.75375 13.8226 5.50731 12.1691 3.19114 9.96983C0.874793 7.77033 -0.866325 3.73818 0.458532 2.4801L1.94338 1.07018C2.38669 0.649125 3.08885 0.68442 3.48611 1.14547L5.45552 3.4313C5.83139 3.86759 5.79796 4.52837 5.37863 4.92658L4.44055 5.81729C4.3222 5.92976 4.28982 6.16278 4.37311 6.29458C4.39852 6.34057 4.41772 6.37504 4.44895 6.42701C4.5035 6.51781 4.57112 6.62148 4.65212 6.73549C4.88624 7.06511 5.1792 7.40798 5.53414 7.74495C5.889 8.08202 6.25044 8.36039 6.59833 8.58325C6.71868 8.66026 6.82814 8.72466 6.92414 8.77664C6.97906 8.80648 7.01545 8.82471 7.03083 8.83188C7.20124 8.92476 7.44719 8.89437 7.56412 8.78344L8.50221 7.89264C8.92136 7.49462 9.61768 7.46297 10.0768 7.81962L12.4839 9.68972ZM3.81583 5.22398L4.75392 4.33318C4.85182 4.2403 4.86071 4.06568 4.77168 3.96246L2.80227 1.67663C2.73522 1.5988 2.64094 1.59399 2.56806 1.66329L1.08321 3.07321C0.252303 3.86224 1.81154 7.47324 3.81582 9.37638C5.8199 11.2795 9.62289 12.7603 10.4535 11.9713L11.9383 10.5612C12.0117 10.4917 12.0067 10.4029 11.9243 10.3388L9.51717 8.46869C9.40866 8.38443 9.2243 8.39278 9.12668 8.48557L8.1886 9.37637C7.79219 9.7527 7.11678 9.8395 6.62877 9.57873C6.51549 9.52503 6.33458 9.42607 6.10409 9.27849C5.71113 9.02678 5.30592 8.71458 4.90925 8.33788C4.51255 7.96127 4.18417 7.57688 3.91947 7.20435C3.7654 6.98748 3.66186 6.81694 3.60513 6.70955C3.32402 6.24614 3.41753 5.60187 3.81565 5.22382L3.81583 5.22398Z" fill="#BABABA"/>
</svg>
