<svg width="27" height="20" viewBox="0 0 27 20" fill="none" xmlns="http://www.w3.org/2000/svg">
<g clip-path="url(#clip0_1_5408)">
<path d="M4.68208 11.5339L4.68187 11.5341L4.68838 11.5407C4.84222 11.6968 5.05709 11.7984 5.27967 11.7984C5.45342 11.7984 5.65531 11.7407 5.80274 11.5935C6.12008 11.3083 6.15559 10.8073 5.86116 10.4689L5.86094 10.4686C5.25769 9.77833 4.96303 8.89956 5.00961 7.97053C5.05606 7.06034 5.45816 6.21333 6.13896 5.60129L6.13904 5.60122C7.51604 4.36151 9.58637 4.4404 10.8543 5.80478L10.8542 5.80483L10.8573 5.80799C11.169 6.12407 11.6661 6.15019 11.988 5.84414L11.9881 5.84419L11.9915 5.84075C12.3022 5.52558 12.3274 5.02492 12.0271 4.7L12.0269 4.69981C10.1784 2.70669 7.1296 2.57201 5.09883 4.39526C4.0996 5.29051 3.51739 6.52344 3.4343 7.8719C3.3511 9.22202 3.8006 10.5218 4.68208 11.5339ZM5.93853 2.3968L5.94814 2.40167L5.95834 2.40512C5.96275 2.40661 5.96813 2.40863 5.97438 2.41096C6.00382 2.42198 6.05242 2.44017 6.10945 2.44472C6.17045 2.46218 6.21754 2.46217 6.26136 2.46216L6.26476 2.46216C6.45891 2.46216 6.6775 2.38561 6.82393 2.2211C6.98603 2.07268 7.06072 1.852 7.06072 1.65698C7.06072 1.44555 6.9581 1.24828 6.83051 1.10038L6.83076 1.10016L6.82375 1.09305C6.65056 0.917395 6.3801 0.813553 6.11711 0.868652C6.05068 0.871939 5.99033 0.892326 5.94783 0.912598C5.90969 0.926905 5.88 0.94578 5.85978 0.959449L5.84484 0.969738L5.83379 0.977364C5.82803 0.981257 5.82578 0.982522 5.82549 0.982682C5.82547 0.982696 5.82546 0.982701 5.82546 0.982701C5.77048 1.01059 5.72259 1.05943 5.69513 1.08744C5.69435 1.08824 5.69359 1.08901 5.69285 1.08977C5.52974 1.23674 5.45265 1.44224 5.45265 1.65698C5.45265 1.86842 5.55527 2.06569 5.68286 2.21359L5.68261 2.2138L5.68963 2.22092C5.71337 2.245 5.73677 2.26278 5.75233 2.27461L5.75407 2.27594C5.77085 2.2887 5.77887 2.29505 5.78652 2.30281C5.81929 2.33605 5.85606 2.35702 5.88201 2.37018C5.89536 2.37695 5.90818 2.38278 5.91765 2.38707C5.92834 2.39192 5.93402 2.39451 5.93853 2.3968ZM1.12401 9.89658L1.13472 9.91832L1.15174 9.93557C1.15942 9.94336 1.16572 9.95155 1.17832 9.96858L1.17963 9.97036C1.19127 9.98612 1.20877 10.0098 1.23248 10.0338C1.23421 10.0356 1.23605 10.0375 1.23799 10.0395C1.26182 10.0638 1.30104 10.1038 1.34693 10.1321C1.37473 10.1561 1.40347 10.1723 1.42487 10.1831C1.43821 10.1899 1.45104 10.1957 1.46051 10.2C1.4712 10.2049 1.47687 10.2074 1.48139 10.2097C1.50557 10.222 1.53388 10.2334 1.56209 10.242C1.58186 10.248 1.60735 10.2544 1.63473 10.2572C1.69643 10.2751 1.74391 10.2751 1.78807 10.2751H1.79147C1.83095 10.2751 1.86369 10.2684 1.88349 10.2644L1.88589 10.2639C1.90677 10.2597 1.91334 10.2587 1.92066 10.2587C1.95816 10.2587 1.99456 10.25 2.02085 10.242C2.04518 10.2346 2.06957 10.2251 2.09133 10.2147C2.14254 10.1967 2.1906 10.1737 2.23736 10.1313C2.28267 10.103 2.32135 10.0635 2.34495 10.0395C2.34689 10.0375 2.34873 10.0356 2.35046 10.0338C2.35218 10.0321 2.35401 10.0303 2.35594 10.0283C2.38003 10.004 2.41945 9.96424 2.44727 9.91789C2.47084 9.88978 2.48668 9.86077 2.49728 9.83926C2.50391 9.82581 2.50963 9.81288 2.51386 9.80327C2.51863 9.79245 2.52122 9.7866 2.52353 9.78193L2.52819 9.77246L2.53149 9.76244C2.53302 9.75778 2.53506 9.75217 2.5374 9.74571C2.54835 9.71558 2.56601 9.66698 2.57031 9.60995C2.58746 9.54861 2.58744 9.5014 2.58743 9.45694L2.58743 9.45354C2.58743 9.25706 2.51162 9.03454 2.34698 8.8861C2.17332 8.71222 1.90398 8.61007 1.64226 8.66553C1.61205 8.66785 1.58367 8.67491 1.56209 8.68148C1.53742 8.68898 1.51268 8.69864 1.49068 8.70915C1.45255 8.72346 1.42285 8.74233 1.40264 8.756L1.3877 8.76629L1.37665 8.77392C1.37036 8.77817 1.36826 8.77928 1.36832 8.77925C1.31334 8.80714 1.26545 8.85598 1.23799 8.884C1.2372 8.8848 1.23643 8.88558 1.23568 8.88635C1.07124 9.0348 0.995508 9.25717 0.995508 9.45354L0.995507 9.45694C0.995496 9.50125 0.995484 9.54831 1.01246 9.60935C1.01689 9.67814 1.03882 9.74015 1.05941 9.78193C1.07008 9.80356 1.0847 9.82826 1.09563 9.84674L1.09715 9.8493C1.11031 9.87154 1.11903 9.88647 1.12401 9.89658ZM10.2631 2.1006C10.263 2.10096 10.2629 2.10128 10.2628 2.10155L10.2597 2.10789L10.2564 2.11791C10.2327 2.18994 10.2328 2.24287 10.2328 2.29238V2.29578C10.2328 2.50076 10.3299 2.71591 10.4662 2.8561C10.6112 3.02182 10.8149 3.10095 11.0287 3.10095C11.2426 3.10095 11.4464 3.02177 11.5914 2.85595C11.6133 2.83321 11.6295 2.81115 11.6406 2.79621L11.6419 2.79445C11.6545 2.77741 11.6608 2.76922 11.6685 2.76144C11.7012 2.72828 11.7217 2.6912 11.7346 2.66512C11.7412 2.65167 11.7469 2.63874 11.7511 2.62913C11.7559 2.61832 11.7585 2.61247 11.7608 2.60779C11.7784 2.57205 11.8013 2.51214 11.8072 2.45367C11.8247 2.39161 11.8247 2.34399 11.8247 2.29918V2.29578V2.29238C11.8247 2.24806 11.8247 2.20101 11.8077 2.13996C11.8033 2.07117 11.7814 2.00916 11.7608 1.96738C11.7501 1.94575 11.7355 1.92105 11.7246 1.90257L11.7231 1.90001C11.7099 1.87777 11.7012 1.86284 11.6962 1.85273L11.6855 1.831L11.6685 1.81374C11.6608 1.80595 11.6545 1.79777 11.6419 1.78073L11.6406 1.77896C11.6295 1.76403 11.6133 1.74197 11.5914 1.71923C11.4464 1.55341 11.2426 1.47423 11.0287 1.47423C10.8255 1.47423 10.626 1.55699 10.4697 1.71547C10.468 1.71721 10.4662 1.71906 10.4643 1.721C10.4402 1.74531 10.4008 1.78507 10.3729 1.83142C10.3494 1.85954 10.3335 1.88854 10.3229 1.91006C10.3163 1.92351 10.3106 1.93644 10.3063 1.94605C10.3016 1.95686 10.299 1.96271 10.2967 1.96739L10.292 1.97685L10.2887 1.98687C10.2778 2.02018 10.272 2.05306 10.2684 2.07312C10.2681 2.07519 10.2677 2.07712 10.2674 2.0789C10.2654 2.09012 10.2642 2.09624 10.2631 2.1006ZM1.65538 4.42742L1.65226 4.43375L1.64897 4.44377C1.6253 4.51581 1.62531 4.56873 1.62532 4.61824L1.62532 4.62164C1.62532 4.82839 1.72417 5.04548 1.8623 5.18557C1.86403 5.18733 1.86586 5.1892 1.8678 5.19118C1.8914 5.21525 1.93008 5.25471 1.9754 5.28303C2.02506 5.32811 2.07619 5.35124 2.13101 5.36977C2.16424 5.38101 2.19218 5.38667 2.21224 5.39074L2.21382 5.39106C2.23403 5.39516 2.24587 5.39769 2.2602 5.40253C2.3321 5.42684 2.38511 5.42683 2.43403 5.42681L2.43743 5.42681C2.63524 5.42681 2.85039 5.34801 3.00907 5.1891C3.17237 5.04211 3.24955 4.8365 3.24955 4.62164C3.24955 4.58224 3.24308 4.54955 3.23911 4.52948L3.23864 4.5271C3.23447 4.50596 3.2334 4.49874 3.2334 4.49061C3.2334 4.41205 3.20868 4.33999 3.18564 4.29325C3.17498 4.27162 3.16036 4.24692 3.14942 4.22844L3.1479 4.22587C3.13475 4.20364 3.12603 4.1887 3.12104 4.17859L3.11033 4.15686L3.09332 4.1396C3.08564 4.13181 3.07933 4.12363 3.06674 4.10659L3.06543 4.10482C3.05378 4.08906 3.03628 4.06538 3.01257 4.04133L2.90575 4.14664L3.01257 4.04133C3.01084 4.03957 3.009 4.0377 3.00706 4.03572C2.98323 4.01141 2.94401 3.97141 2.89812 3.94303C2.87033 3.91907 2.84158 3.90291 2.82018 3.89206C2.80684 3.8853 2.79402 3.87947 2.78455 3.87517C2.77386 3.87032 2.76818 3.86774 2.76366 3.86545L2.75406 3.86058L2.74386 3.85713C2.71062 3.84589 2.68268 3.84023 2.66262 3.83616L2.66104 3.83584C2.64083 3.83174 2.629 3.82921 2.61467 3.82437L2.60338 3.82055L2.59163 3.81857C2.48496 3.80053 2.38926 3.7989 2.29206 3.81682C2.22473 3.81975 2.16349 3.84037 2.1205 3.86087C2.08236 3.87518 2.05267 3.89406 2.03245 3.90773L2.01751 3.91801L2.00646 3.92564C1.99987 3.9301 1.99787 3.93111 1.99816 3.93096C1.94316 3.95885 1.89527 4.00771 1.8678 4.03572C1.86586 4.0377 1.86403 4.03957 1.8623 4.04133C1.86058 4.04307 1.85874 4.04492 1.85681 4.04687C1.83272 4.07117 1.79331 4.11093 1.76549 4.15728C1.74191 4.1854 1.72608 4.2144 1.71547 4.23592C1.70884 4.24937 1.70313 4.2623 1.69889 4.27191C1.69412 4.28272 1.69153 4.28857 1.68923 4.29325L1.68456 4.30271L1.68127 4.31274C1.67032 4.34604 1.66453 4.37892 1.661 4.39899C1.66063 4.40105 1.66029 4.40298 1.65997 4.40476C1.65796 4.41598 1.65674 4.4221 1.65563 4.42646C1.65554 4.42682 1.65546 4.42714 1.65538 4.42742Z" fill="#BABABA" stroke="#BABABA" stroke-width="0.3"/>
<path d="M8.25113 20.1357L8.2534 20.1357L21.2818 19.9392C24.3032 20.0548 26.8561 17.6805 26.9887 14.6198C27.1214 11.5586 24.7671 8.94837 21.7441 8.81266C21.5399 8.79897 21.3368 8.80752 21.1401 8.81984C20.9506 7.44878 20.331 6.17742 19.3556 5.18815C18.1648 3.98032 16.5597 3.30898 14.8723 3.30898C11.6104 3.30898 8.92931 5.7712 8.5682 9.0039C7.61659 8.98173 6.6556 9.21973 5.77148 9.71612L5.77086 9.71647C3.13091 11.2153 2.18627 14.6146 3.66254 17.2899C4.59202 18.9899 6.30261 20.0514 8.21223 20.1356L8.21222 20.1357H8.21883L8.25113 20.1357ZM6.54902 11.1074L6.54923 11.1073C7.15534 10.7605 7.80775 10.603 8.44492 10.603H8.44508C9.81332 10.603 11.1501 11.3281 11.8657 12.6205C12.0677 13.007 12.5646 13.1464 12.9433 12.9261C13.3253 12.7201 13.4593 12.2181 13.2433 11.8378C12.5497 10.5626 11.4183 9.6847 10.1391 9.26513C10.3815 6.81025 12.4087 4.91933 14.8724 4.91933C16.1395 4.91933 17.3286 5.42674 18.2215 6.3324C19.13 7.25387 19.6156 8.46068 19.6156 9.74864C19.6156 9.98914 19.7157 10.2126 19.9133 10.3729C20.1078 10.5307 20.3495 10.5948 20.5938 10.5328L20.5938 10.5329L20.5969 10.532C20.9342 10.4387 21.3057 10.4068 21.6646 10.4226C23.8075 10.5171 25.4744 12.3771 25.3809 14.5577C25.2875 16.7363 23.451 18.4235 21.3063 18.329L21.3064 18.3288H21.2997L21.2674 18.3288L21.2652 18.3288L8.25355 18.5253C6.90407 18.4608 5.70883 17.7055 5.03961 16.5063C3.99665 14.5952 4.66732 12.18 6.54902 11.1074Z" fill="#BABABA" stroke="#BABABA" stroke-width="0.3"/>
</g>
<defs>
<clipPath id="clip0_1_5408">
<rect width="27" height="20" fill="white"/>
</clipPath>
</defs>
</svg>
