<svg width="25" height="18" viewBox="0 0 25 18" fill="none" xmlns="http://www.w3.org/2000/svg">
<path d="M6.10563 17.1357L6.10789 17.1357L19.1363 16.9392C22.1577 17.0548 24.7106 14.6805 24.8432 11.6198C24.9759 8.5586 22.6216 5.94837 19.5986 5.81266C19.3944 5.79897 19.1913 5.80752 18.9945 5.81984C18.8051 4.44878 18.1855 3.17742 17.2101 2.18815C16.0193 0.980325 14.4142 0.308984 12.7267 0.308984C9.46488 0.308984 6.7838 2.7712 6.42269 6.0039C5.47108 5.98173 4.51009 6.21973 3.62598 6.71612L3.62536 6.71647C0.985399 8.21525 0.0407583 11.6146 1.51703 14.2899C2.44651 15.9899 4.1571 17.0514 6.06672 17.1356L6.06671 17.1357H6.07333L6.10563 17.1357ZM4.40351 8.10741L4.40372 8.10728C5.00984 7.7605 5.66224 7.60295 6.29941 7.60295H6.29957C7.66781 7.60295 9.00463 8.3281 9.72022 9.62049C9.92216 10.007 10.4191 10.1464 10.7978 9.92607C11.1798 9.72009 11.3138 9.21809 11.0978 8.8378C10.4042 7.56258 9.27275 6.6847 7.99356 6.26513C8.23603 3.81025 10.2632 1.91933 12.7269 1.91933C13.9939 1.91933 15.1831 2.42674 16.076 3.3324C16.9845 4.25387 17.4701 5.46068 17.4701 6.74864C17.4701 6.98914 17.5702 7.21258 17.7678 7.37288C17.9623 7.53069 18.204 7.59476 18.4482 7.53283L18.4483 7.53287L18.4514 7.532C18.7887 7.4387 19.1601 7.40681 19.5191 7.42263C21.662 7.51713 23.3289 9.37713 23.2354 11.5577C23.142 13.7363 21.3055 15.4235 19.1608 15.329L19.1608 15.3288H19.1542L19.1219 15.3288L19.1197 15.3288L6.10804 15.5253C4.75857 15.4608 3.56332 14.7055 2.8941 13.5063C1.85114 11.5952 2.52181 9.17997 4.40351 8.10741Z" fill="#BABABA" stroke="#BABABA" stroke-width="0.3"/>
</svg>
