<svg width="59" height="38" viewBox="0 0 59 38" fill="none" xmlns="http://www.w3.org/2000/svg">
<path d="M29.4352 21.1112C27.4219 21.1112 25.4538 20.5098 23.7799 19.3829C22.1059 18.256 20.8012 16.6542 20.0307 14.7803C19.2603 12.9063 19.0587 10.8442 19.4515 8.85484C19.8442 6.86544 20.8137 5.03806 22.2373 3.60379C23.6609 2.16951 25.4747 1.19276 27.4493 0.797039C29.4239 0.401323 31.4706 0.604419 33.3307 1.38064C35.1907 2.15687 36.7805 3.47136 37.899 5.15789C39.0175 6.84442 39.6145 8.82724 39.6145 10.8556C39.6116 13.5747 38.5383 16.1816 36.6299 18.1042C34.7215 20.0269 32.134 21.1084 29.4352 21.1112ZM29.4352 4.70223C28.2272 4.70223 27.0464 5.06312 26.042 5.73926C25.0376 6.41541 24.2548 7.37643 23.7925 8.50082C23.3302 9.6252 23.2093 10.8624 23.445 12.0561C23.6806 13.2497 24.2623 14.3461 25.1165 15.2067C25.9706 16.0673 27.0589 16.6533 28.2437 16.8908C29.4284 17.1282 30.6564 17.0063 31.7725 16.5406C32.8885 16.0749 33.8424 15.2862 34.5135 14.2742C35.1846 13.2623 35.5428 12.0726 35.5428 10.8556C35.5414 9.22408 34.8974 7.65978 33.7523 6.50612C32.6072 5.35245 31.0546 4.70368 29.4352 4.70223Z" fill="#B98900"/>
<path d="M10.4334 23.846C8.68857 23.846 6.98291 23.3247 5.53213 22.3481C4.08134 21.3714 2.9506 19.9833 2.28287 18.3592C1.61515 16.7351 1.44044 14.9479 1.78085 13.2238C2.12125 11.4996 2.96147 9.91592 4.19526 8.67288C5.42905 7.42984 7.00099 6.58332 8.71231 6.24037C10.4236 5.89741 12.1975 6.07343 13.8095 6.74616C15.4215 7.41889 16.7993 8.55811 17.7687 10.0198C18.7381 11.4814 19.2555 13.1999 19.2555 14.9578C19.2526 17.3142 18.3222 19.5733 16.6684 21.2395C15.0146 22.9058 12.7723 23.8431 10.4334 23.846ZM10.4334 10.1718C9.49388 10.1718 8.57545 10.4525 7.79426 10.9784C7.01307 11.5043 6.4042 12.2518 6.04466 13.1263C5.68512 14.0008 5.59105 14.9631 5.77434 15.8915C5.95763 16.8199 6.41006 17.6727 7.07441 18.342C7.73876 19.0113 8.58519 19.4671 9.50667 19.6518C10.4281 19.8365 11.3833 19.7417 12.2513 19.3794C13.1193 19.0172 13.8612 18.4038 14.3832 17.6167C14.9052 16.8297 15.1838 15.9044 15.1838 14.9578C15.1823 13.6889 14.6814 12.4724 13.7908 11.5752C12.9003 10.678 11.6928 10.1733 10.4334 10.1718ZM40.2928 37.5202C39.7528 37.5202 39.235 37.3041 38.8532 36.9194C38.4714 36.5348 38.2569 36.0131 38.2569 35.4691V32.7342C38.2569 30.3769 37.3274 28.1162 35.673 26.4493C34.0185 24.7824 31.7746 23.846 29.4348 23.846C27.0951 23.846 24.8511 24.7824 23.1967 26.4493C21.5422 28.1162 20.6127 30.3769 20.6127 32.7342V35.4691C20.6127 36.0131 20.3982 36.5348 20.0164 36.9194C19.6346 37.3041 19.1168 37.5202 18.5769 37.5202C18.0369 37.5202 17.5191 37.3041 17.1373 36.9194C16.7555 36.5348 16.541 36.0131 16.541 35.4691V32.7342C16.541 29.2889 17.8995 25.9848 20.3175 23.5486C22.7356 21.1124 26.0152 19.7438 29.4348 19.7438C32.8545 19.7438 36.1341 21.1124 38.5521 23.5486C40.9702 25.9848 42.3286 29.2889 42.3286 32.7342V35.4691C42.3286 36.0131 42.1141 36.5348 41.7323 36.9194C41.3505 37.3041 40.8327 37.5202 40.2928 37.5202Z" fill="#B98900"/>
<path d="M2.28977 37.5202C1.74983 37.5202 1.232 37.3041 0.850197 36.9194C0.468399 36.5348 0.253906 36.0131 0.253906 35.4691V32.7342C0.25678 30.0152 1.33017 27.4083 3.23854 25.4856C5.14691 23.5629 7.73439 22.4815 10.4332 22.4786C12.3337 22.467 14.1971 23.0082 15.7998 24.0375C16.0245 24.1836 16.2185 24.373 16.3706 24.5947C16.5228 24.8164 16.6301 25.0661 16.6864 25.3296C16.7427 25.593 16.747 25.8651 16.699 26.1302C16.6509 26.3954 16.5515 26.6484 16.4065 26.8748C16.2614 27.1013 16.0734 27.2967 15.8534 27.45C15.6333 27.6032 15.3855 27.7113 15.124 27.7681C14.8625 27.8249 14.5924 27.8292 14.3292 27.7808C14.0661 27.7324 13.8149 27.6322 13.5902 27.4861C12.6468 26.8833 11.5503 26.5688 10.4332 26.5808C8.81384 26.5823 7.26118 27.2311 6.1161 28.3847C4.97101 29.5384 4.32707 31.1027 4.32564 32.7342V35.4691C4.32564 36.0131 4.11114 36.5348 3.72935 36.9194C3.34755 37.3041 2.82972 37.5202 2.28977 37.5202ZM48.4361 23.846C46.6912 23.846 44.9855 23.3247 43.5348 22.3481C42.084 21.3714 40.9532 19.9833 40.2855 18.3592C39.6178 16.7351 39.4431 14.9479 39.7835 13.2238C40.1239 11.4996 40.9641 9.91592 42.1979 8.67288C43.4317 7.42984 45.0036 6.58332 46.715 6.24037C48.4263 5.89741 50.2001 6.07343 51.8121 6.74616C53.4241 7.41889 54.802 8.55811 55.7713 10.0198C56.7407 11.4814 57.2581 13.1999 57.2581 14.9578C57.2553 17.3142 56.3249 19.5733 54.671 21.2395C53.0172 22.9058 50.7749 23.8431 48.4361 23.846ZM48.4361 10.1718C47.4965 10.1718 46.5781 10.4525 45.7969 10.9784C45.0157 11.5043 44.4068 12.2518 44.0473 13.1263C43.6878 14.0008 43.5937 14.9631 43.777 15.8915C43.9603 16.8199 44.4127 17.6727 45.077 18.342C45.7414 19.0113 46.5878 19.4671 47.5093 19.6518C48.4308 19.8365 49.3859 19.7417 50.2539 19.3794C51.1219 19.0172 51.8639 18.4038 52.3858 17.6167C52.9078 16.8297 53.1864 15.9044 53.1864 14.9578C53.185 13.6889 52.684 12.4724 51.7935 11.5752C50.9029 10.678 49.6955 10.1733 48.4361 10.1718Z" fill="#B98900"/>
<path d="M56.5816 37.5202C56.0417 37.5202 55.5238 37.3041 55.142 36.9195C54.7602 36.5348 54.5457 36.0131 54.5457 35.4691V32.7343C54.5476 31.9261 54.3901 31.1256 54.0826 30.3791C53.7751 29.6327 53.3235 28.9552 52.7542 28.3859C51.7783 27.4311 50.518 26.8258 49.1672 26.6632C47.8165 26.5007 46.4502 26.7898 45.2785 27.4861C44.8246 27.781 44.273 27.8821 43.7451 27.7672C43.2172 27.6523 42.7562 27.3308 42.4636 26.8735C42.1709 26.4162 42.0706 25.8605 42.1846 25.3286C42.2986 24.7968 42.6177 24.3323 43.0716 24.0375C45.0298 22.8466 47.3244 22.3428 49.5968 22.6051C51.8692 22.8673 53.9914 23.8808 55.6315 25.4869C56.5802 26.436 57.3326 27.5652 57.8451 28.8092C58.3576 30.0533 58.6202 31.3873 58.6175 32.7343V35.4691C58.6175 36.0131 58.403 36.5348 58.0212 36.9195C57.6394 37.3041 57.1215 37.5202 56.5816 37.5202Z" fill="#B98900"/>
</svg>
