<svg width="19" height="20" viewBox="0 0 19 20" fill="none" xmlns="http://www.w3.org/2000/svg">
<path fill-rule="evenodd" clip-rule="evenodd" d="M4.92399 1.23406C4.43305 1.23406 3.96222 1.42909 3.61507 1.77623C3.26793 2.12338 3.0729 2.59421 3.0729 3.08515V5.99754H3.47603C3.47749 5.99754 3.47895 5.99754 3.48041 5.99754H3.49651C3.87835 5.99754 4.24455 6.14923 4.51455 6.41923C4.78456 6.68924 4.93624 7.05544 4.93624 7.43728V9.59689H13.1633V7.44139C13.1633 7.43026 13.1634 7.41915 13.1637 7.40805C13.1712 7.03679 13.322 6.68233 13.5851 6.41923C13.8551 6.14922 14.2213 5.99754 14.6031 5.99754H15.0022V3.08515C15.0022 2.59421 14.8071 2.12338 14.46 1.77623C14.1128 1.42909 13.642 1.23406 13.1511 1.23406H4.92399ZM16.2362 6.00166V3.08515C16.2362 2.26692 15.9112 1.4822 15.3326 0.90362C14.754 0.325042 13.9693 0 13.1511 0H4.92399C4.10576 0 3.32104 0.325042 2.74246 0.90362C2.16388 1.4822 1.83884 2.26692 1.83884 3.08515V5.99754H1.43974C1.0579 5.99754 0.691693 6.14923 0.42169 6.41923C0.151687 6.68924 0 7.05544 0 7.43728V16.0757C0 16.5666 0.195026 17.0375 0.542172 17.3846C0.88643 17.7289 1.35232 17.9235 1.83884 17.9268V19.383C1.83884 19.7237 2.11509 20 2.45587 20C2.79665 20 3.0729 19.7237 3.0729 19.383V17.9268H15.0022V19.383C15.0022 19.7237 15.2784 20 15.6192 20C15.96 20 16.2362 19.7237 16.2362 19.383V17.9268C16.7231 17.9246 17.1896 17.7307 17.5346 17.3868C17.8816 17.041 18.0774 16.5717 18.079 16.0819L18.079 16.0798V7.44139C18.079 7.05955 17.9273 6.69335 17.6573 6.42335C17.3873 6.15334 17.0211 6.00166 16.6393 6.00166H16.2362ZM13.5366 14.2356C13.7472 14.2008 13.9433 14.101 14.0962 13.9481L14.0963 13.9481C14.2891 13.7552 14.3975 13.4937 14.3975 13.2209V7.43727C14.3975 7.43651 14.3975 7.43576 14.3975 7.435C14.3991 7.38277 14.4206 7.33302 14.4576 7.29596C14.4962 7.25739 14.5485 7.23572 14.6031 7.23572H16.6393C16.6938 7.23572 16.7461 7.25739 16.7847 7.29596C16.8233 7.33453 16.8449 7.38684 16.8449 7.44139V16.0786C16.8442 16.2416 16.779 16.3977 16.6635 16.5127C16.5478 16.628 16.3912 16.6927 16.2279 16.6927H1.85109C1.68745 16.6927 1.5305 16.6277 1.41479 16.512C1.29907 16.3963 1.23406 16.2394 1.23406 16.0757V7.43728C1.23406 7.38273 1.25573 7.33042 1.2943 7.29185C1.33287 7.25327 1.38519 7.2316 1.43974 7.2316H3.47762C3.5316 7.23202 3.58327 7.25364 3.62146 7.29184C3.66003 7.33041 3.6817 7.38273 3.6817 7.43727V9.59689H3.6817V13.2209C3.6817 13.4937 3.79005 13.7552 3.9829 13.9481C4.15165 14.1168 4.37302 14.2209 4.60844 14.2443C4.64207 14.2476 4.67599 14.2493 4.71008 14.2493H4.72917C4.72963 14.2493 4.7301 14.2493 4.73057 14.2493H13.369C13.369 14.2493 13.3691 14.2493 13.3691 14.2493M13.1633 10.8309H4.93624V13.0152H13.1633V10.8309Z" fill="#1C1C1C"/>
</svg>
