<svg width="19" height="19" viewBox="0 0 19 19" fill="none" xmlns="http://www.w3.org/2000/svg">
<path d="M18.2521 19H6.77289C6.69176 19.0003 6.61143 18.9839 6.5369 18.9518C6.46236 18.9197 6.39521 18.8727 6.33961 18.8136C6.28401 18.7545 6.24115 18.6847 6.21368 18.6083C6.18621 18.532 6.17472 18.4508 6.17993 18.3698C6.37547 15.1715 9.15739 12.6667 12.5125 12.6667C15.8676 12.6667 18.6495 15.1715 18.845 18.3698C18.8498 18.4507 18.8379 18.5317 18.8103 18.6078C18.7827 18.6839 18.7398 18.7536 18.6843 18.8126C18.6288 18.8716 18.5618 18.9187 18.4875 18.9509C18.4132 18.9831 18.3331 18.9998 18.2521 19ZM7.44818 17.8125H17.5776C17.1231 15.5483 15.0149 13.8542 12.5133 13.8542C10.0116 13.8542 7.9026 15.5483 7.44818 17.8125Z" fill="#1C1C1C"/>
<path d="M12.1158 19C12.0054 19.0003 11.8972 18.9697 11.8032 18.9118C11.7093 18.8538 11.6334 18.7707 11.5842 18.6719C11.535 18.5731 11.5143 18.4626 11.5246 18.3527C11.5349 18.2428 11.5757 18.1379 11.6424 18.05L13.4236 15.6797C13.4699 15.616 13.5285 15.5621 13.5958 15.5212C13.6631 15.4803 13.7379 15.4532 13.8158 15.4415C13.8938 15.4298 13.9732 15.4337 14.0496 15.453C14.126 15.4723 14.1978 15.5066 14.2607 15.554C14.3237 15.6013 14.3767 15.6607 14.4165 15.7287C14.4563 15.7967 14.4821 15.8719 14.4926 15.95C14.503 16.0281 14.4978 16.1075 14.4772 16.1836C14.4567 16.2596 14.4212 16.3308 14.3728 16.393L12.5916 18.7625C12.5362 18.8363 12.4644 18.8963 12.3818 18.9375C12.2992 18.9787 12.2081 19.0001 12.1158 19ZM2.58572 6.92707C2.46527 6.92687 2.34772 6.89008 2.24864 6.82159C2.14956 6.7531 2.07363 6.65613 2.03088 6.54352C1.98814 6.43091 1.98061 6.30797 2.00928 6.19098C2.03796 6.074 2.10149 5.96848 2.19147 5.88841C4.16301 4.1376 6.70745 3.16939 9.34417 3.16666C11.9353 3.16666 14.4496 4.10953 16.4233 5.82191C16.4824 5.87292 16.531 5.93511 16.566 6.00492C16.6011 6.07472 16.6221 6.15077 16.6278 6.22869C16.6334 6.30662 16.6236 6.38489 16.5989 6.45902C16.5743 6.53316 16.5352 6.60169 16.484 6.66071C16.4328 6.71972 16.3705 6.76805 16.3006 6.80292C16.2307 6.8378 16.1546 6.85853 16.0766 6.86393C15.9987 6.86933 15.9204 6.8593 15.8464 6.83441C15.7723 6.80951 15.7039 6.77025 15.645 6.71886C13.8978 5.19799 11.6606 4.35837 9.34417 4.35416C6.99746 4.35663 4.73302 5.21903 2.97918 6.77824C2.87062 6.87427 2.73065 6.92721 2.58572 6.92707Z" fill="#1C1C1C"/>
<path d="M0.59353 4.52833C0.473081 4.52813 0.355535 4.49134 0.256456 4.42285C0.157377 4.35436 0.0814388 4.25739 0.0386953 4.14478C-0.00404831 4.03217 -0.0115807 3.90923 0.0170955 3.79224C0.0457717 3.67526 0.109304 3.56974 0.19928 3.48967C2.7429 1.23896 5.99032 0 9.34382 0C12.6514 0 15.8664 1.20967 18.3989 3.40733C18.4581 3.45835 18.5066 3.52054 18.5417 3.59035C18.5768 3.66015 18.5978 3.73619 18.6034 3.81412C18.609 3.89204 18.5993 3.97031 18.5746 4.04445C18.5499 4.11858 18.5109 4.18712 18.4597 4.24613C18.4085 4.30515 18.3461 4.35348 18.2762 4.38835C18.2063 4.42322 18.1302 4.44395 18.0523 4.44936C17.9743 4.45476 17.8961 4.44473 17.822 4.41983C17.748 4.39494 17.6795 4.35568 17.6207 4.30429C15.3043 2.29425 12.3648 1.1875 9.34382 1.1875C6.28086 1.1875 3.3129 2.32117 0.986988 4.3795C0.87851 4.47566 0.738491 4.52862 0.59353 4.52833ZM12.1044 11.7483C11.9589 11.7482 11.8184 11.695 11.7093 11.5987C10.3904 10.4239 8.29724 10.4239 6.97832 11.5987C6.85994 11.6994 6.70686 11.7497 6.55184 11.7389C6.39683 11.7281 6.2522 11.657 6.14892 11.5409C6.04565 11.4248 5.99193 11.2729 5.99928 11.1177C6.00663 10.9625 6.07446 10.8163 6.18824 10.7105C7.0662 9.92987 8.1864 9.5 9.34382 9.5C10.5012 9.5 11.6222 9.92987 12.4994 10.7105C12.5887 10.7908 12.6516 10.8963 12.6799 11.0131C12.7081 11.1299 12.7003 11.2525 12.6576 11.3648C12.6148 11.4771 12.5391 11.5738 12.4404 11.6423C12.3416 11.7107 12.2245 11.7477 12.1044 11.7483ZM14.112 9.34958C13.9661 9.34958 13.8253 9.29606 13.7162 9.19917C12.5152 8.12082 10.9587 7.52325 9.34461 7.52083C7.73753 7.52083 6.18507 8.11696 4.97382 9.19917C4.85635 9.30415 4.70198 9.35816 4.54468 9.34933C4.38738 9.3405 4.24003 9.26954 4.13505 9.15206C4.03007 9.03459 3.97605 8.88022 3.98489 8.72292C3.99372 8.56562 4.06468 8.41827 4.18215 8.31329C5.60035 7.04047 7.43821 6.33549 9.34382 6.33333C11.2438 6.33333 13.0781 7.03633 14.5071 8.3125C14.5969 8.39256 14.6603 8.49804 14.6889 8.61496C14.7175 8.73188 14.7098 8.85471 14.667 8.96719C14.6241 9.07966 14.5481 9.17646 14.449 9.24475C14.3499 9.31304 14.2324 9.3496 14.112 9.34958Z" fill="#1C1C1C"/>
</svg>
