<svg width="19" height="19" viewBox="0 0 19 19" fill="none" xmlns="http://www.w3.org/2000/svg">
<path d="M7.15434 19C3.19264 19 -0.000976562 15.8064 -0.000976562 11.8851C-0.000976562 7.96383 3.19264 4.77021 7.15434 4.77021C7.59902 4.77021 7.96285 5.13404 7.96285 5.57872C7.96285 6.0234 7.59902 6.38723 7.15434 6.38723C4.082 6.38723 1.57562 8.85319 1.57562 11.9255C1.57562 14.9574 4.082 17.4638 7.15434 17.4638C10.2267 17.4638 12.7331 14.9979 12.7331 11.9255C12.7331 11.4809 13.0969 11.117 13.5416 11.117C13.9863 11.117 14.3501 11.4809 14.3501 11.9255C14.3097 15.8064 11.116 19 7.15434 19ZM7.92243 4.52766C6.66924 4.52766 5.6586 3.51702 5.6586 2.26383C5.6586 1.01064 6.66924 0 7.92243 0C9.17562 0 10.1863 1.01064 10.1863 2.26383C10.1863 3.51702 9.17562 4.52766 7.92243 4.52766ZM7.92243 1.5766C7.5586 1.5766 7.23519 1.85957 7.23519 2.26383C7.23519 2.62766 7.5586 2.95106 7.92243 2.95106C8.28626 2.95106 8.60966 2.66809 8.60966 2.26383C8.60966 1.9 8.28626 1.5766 7.92243 1.5766Z" fill="#1C1C1C"/>
<path d="M17.1398 16.4127C17.0994 16.4127 17.0185 16.4127 16.9781 16.4127C16.7355 16.3723 16.5738 16.2106 16.4526 16.0085L14.6334 12.6936H7.92277C7.47809 12.6936 7.11426 12.3298 7.11426 11.8851V4.04252C7.11426 3.59784 7.47809 3.23401 7.92277 3.23401C8.36745 3.23401 8.73128 3.59784 8.73128 4.04252V11.117H15.1589C15.4419 11.117 15.7249 11.2787 15.8462 11.5212L17.4228 14.4319L17.7462 14.1893C18.11 13.9468 18.5951 13.9872 18.8377 14.351C19.0802 14.7149 19.0398 15.2 18.676 15.4425L17.6249 16.2106C17.5036 16.3319 17.3419 16.4127 17.1398 16.4127Z" fill="#1C1C1C"/>
<path d="M12.5717 6.34651H7.92277C7.47809 6.34651 7.11426 5.98268 7.11426 5.538C7.11426 5.09332 7.47809 4.72949 7.92277 4.72949H12.5717C13.0164 4.72949 13.3802 5.09332 13.3802 5.538C13.3802 5.98268 13.0164 6.34651 12.5717 6.34651Z" fill="#1C1C1C"/>
</svg>
