<svg width="25" height="19" viewBox="0 0 25 19" fill="none" xmlns="http://www.w3.org/2000/svg">
<path d="M15.9027 11.6405C16.3042 11.6741 16.3817 11.8334 16.5921 12.0855C17.5369 13.2138 18.0801 14.6958 18.0166 16.1632C17.9672 17.3061 16.7294 18.0983 15.544 18.4775C13.1111 19.2558 10.2243 19.2573 8.10521 17.8447C7.44386 17.4048 6.96113 16.7215 7.00247 15.7978C7.06594 14.4057 7.58484 13.0348 8.51265 11.9781C8.87655 11.5645 9.77114 11.6076 9.85824 12.2952C9.89736 12.5978 9.70988 12.8024 9.4353 13.1605C8.81381 13.9716 8.48387 14.9918 8.46615 16.0046C8.46025 16.3817 8.84185 16.6134 9.19984 16.799C10.4967 17.4713 12.0623 17.5648 13.5636 17.404C14.5733 17.2959 15.6805 17.1256 16.3758 16.4044C16.5722 16.2005 16.5522 15.8913 16.5264 15.6188C16.4334 14.6183 16.0289 13.6457 15.3587 12.8952L15.2886 12.8155C15.1874 12.6789 15.1749 12.6299 15.152 12.5378C15.0583 12.152 15.3425 11.7157 15.7455 11.6492C15.8451 11.6331 15.8702 11.6397 15.9027 11.6405ZM22.8831 7.27556C23.1466 7.29602 23.354 7.4619 23.5503 7.69356C24.5069 8.82333 25.0391 10.3375 24.9978 11.7742C24.9963 11.8217 24.9926 11.8692 24.9874 11.9167C24.8656 12.9705 23.7622 13.683 22.7022 14.0527C21.6984 14.4035 20.6237 14.5431 19.5534 14.5489C19.0559 14.5518 18.6285 14.0527 18.7939 13.5828C18.9076 13.2577 19.2604 13.0983 19.6309 13.0932C20.8318 13.075 22.0911 12.9251 23.0691 12.2733C23.3171 12.1081 23.5319 11.894 23.5282 11.6368C23.5045 10.5005 23.0956 9.37726 22.3391 8.53102L22.2756 8.45941C22.0704 8.19341 22.1066 8.10206 22.1132 7.96687C22.1316 7.58906 22.4786 7.26752 22.8831 7.27556ZM12.531 4.3649C14.2168 4.38097 15.8082 5.67298 16.1197 7.33694C16.5434 9.60306 14.3822 12.046 11.8349 11.5783C10.3447 11.305 9.09281 10.024 8.87212 8.53248C8.57466 6.52286 10.2303 4.41386 12.4365 4.36563C12.4675 4.3649 12.4992 4.3649 12.531 4.3649ZM12.4926 5.81986C11.2525 5.83155 10.1528 7.04025 10.3225 8.29425C10.4613 9.32172 11.4341 10.1782 12.4926 10.1848C13.7791 10.1928 14.9247 8.89422 14.6722 7.58833C14.4848 6.62079 13.5828 5.84252 12.5502 5.81986C12.531 5.81986 12.5118 5.81986 12.4926 5.81986ZM19.5113 0C21.2171 0.016077 22.8033 1.32781 23.1038 2.9947C23.5141 5.26301 21.3345 7.6921 18.7931 7.20979C17.3058 6.92698 16.0606 5.63863 15.8495 4.14493C15.5631 2.12143 17.2527 0.0211924 19.4641 0C19.4796 0 19.4951 0 19.5113 0ZM19.473 1.45497C18.2337 1.46666 17.1331 2.67243 17.3029 3.92936C17.4417 4.95682 18.4145 5.81328 19.473 5.81986C20.5211 5.82644 21.5138 4.99921 21.6681 3.95639C21.8467 2.74989 20.8569 1.4842 19.5305 1.45497C19.5113 1.45497 19.4921 1.45497 19.473 1.45497Z" fill="#1C1C1C"/>
<path d="M2.11739 7.27556C1.85388 7.29602 1.64647 7.4619 1.45013 7.69356C0.493534 8.82333 -0.0386477 10.3375 0.0026865 11.7742C0.00416279 11.8217 0.00785351 11.8692 0.0130205 11.9167C0.134809 12.9705 1.23829 13.683 2.29823 14.0527C3.30207 14.4035 4.37677 14.5431 5.44704 14.5489C5.94453 14.5518 6.3719 14.0527 6.20656 13.5828C6.09289 13.2577 5.74007 13.0983 5.36953 13.0932C4.16862 13.075 2.90939 12.9251 1.93139 12.2733C1.68338 12.1081 1.46859 11.894 1.47228 11.6368C1.4959 10.5005 1.90482 9.37726 2.66139 8.53102L2.72486 8.45941C2.93006 8.19341 2.89389 8.10206 2.88725 7.96687C2.86879 7.58906 2.52188 7.26752 2.11739 7.27556ZM5.48911 0C3.78332 0.016077 2.19711 1.32781 1.8967 2.9947C1.4863 5.26301 3.66596 7.6921 6.2073 7.20979C7.6946 6.92698 8.93981 5.63863 9.15091 4.14493C9.4373 2.12143 7.74775 0.0211924 5.53635 0C5.52085 0 5.50535 0 5.48911 0ZM5.52749 1.45497C6.76679 1.46666 7.86732 2.67243 7.69756 3.92936C7.55879 4.95682 6.58595 5.81328 5.52749 5.81986C4.47937 5.82644 3.4866 4.99921 3.33233 3.95639C3.15371 2.74989 4.14352 1.4842 5.46992 1.45497C5.48911 1.45497 5.5083 1.45497 5.52749 1.45497Z" fill="#1C1C1C"/>
</svg>
