<svg width="18" height="18" viewBox="0 0 18 18" fill="none" xmlns="http://www.w3.org/2000/svg">
<path d="M4.5 5.14286C4.6705 5.14286 4.83401 5.07513 4.95457 4.95457C5.07513 4.83401 5.14286 4.6705 5.14286 4.5C5.12995 3.92859 5.31888 3.37091 5.67643 2.925C6.1743 2.26928 6.43901 1.46611 6.42857 0.642857C6.42857 0.472361 6.36084 0.308848 6.24028 0.188288C6.11972 0.0677294 5.95621 0 5.78571 0C5.61522 0 5.4517 0.0677294 5.33115 0.188288C5.21059 0.308848 5.14286 0.472361 5.14286 0.642857C5.15576 1.21427 4.96684 1.77195 4.60929 2.21786C4.11141 2.87358 3.84671 3.67675 3.85714 4.5C3.85714 4.6705 3.92487 4.83401 4.04543 4.95457C4.16599 5.07513 4.3295 5.14286 4.5 5.14286ZM10.2857 5.14286C10.4562 5.14286 10.6197 5.07513 10.7403 4.95457C10.8608 4.83401 10.9286 4.6705 10.9286 4.5C10.9157 3.92859 11.1046 3.37091 11.4621 2.925C11.96 2.26928 12.2247 1.46611 12.2143 0.642857C12.2143 0.472361 12.1466 0.308848 12.026 0.188288C11.9054 0.0677294 11.7419 0 11.5714 0C11.4009 0 11.2374 0.0677294 11.1169 0.188288C10.9963 0.308848 10.9286 0.472361 10.9286 0.642857C10.9415 1.21427 10.7525 1.77195 10.395 2.21786C9.89713 2.87358 9.63242 3.67675 9.64286 4.5C9.64286 4.6705 9.71059 4.83401 9.83115 4.95457C9.9517 5.07513 10.1152 5.14286 10.2857 5.14286ZM16.0714 6.42857H0.642857C0.472361 6.42857 0.308848 6.4963 0.188288 6.61686C0.0677294 6.73742 0 6.90093 0 7.07143V11.5714C0 12.5694 0.232361 13.5537 0.678682 14.4464C1.125 15.339 1.77303 16.1155 2.57143 16.7143H1.28571C1.11522 16.7143 0.951705 16.782 0.831146 16.9026C0.710587 17.0231 0.642857 17.1866 0.642857 17.3571C0.642857 17.5276 0.710587 17.6912 0.831146 17.8117C0.951705 17.9323 1.11522 18 1.28571 18H13.5C13.6705 18 13.834 17.9323 13.9546 17.8117C14.0751 17.6912 14.1429 17.5276 14.1429 17.3571C14.1429 17.1866 14.0751 17.0231 13.9546 16.9026C13.834 16.782 13.6705 16.7143 13.5 16.7143H12.2143C13.1069 16.0487 13.8113 15.1626 14.2586 14.1429H16.0714C16.5829 14.1429 17.0735 13.9397 17.4351 13.578C17.7968 13.2163 18 12.7258 18 12.2143V8.35714C18 7.84565 17.7968 7.35511 17.4351 6.99344C17.0735 6.63176 16.5829 6.42857 16.0714 6.42857ZM8.35714 16.7143H6.42857C5.0646 16.7143 3.7565 16.1725 2.79202 15.208C1.82755 14.2435 1.28571 12.9354 1.28571 11.5714V7.71429H13.5V11.5714C13.5 12.9354 12.9582 14.2435 11.9937 15.208C11.0292 16.1725 9.72111 16.7143 8.35714 16.7143ZM16.7143 12.2143C16.7143 12.3848 16.6466 12.5483 16.526 12.6689C16.4054 12.7894 16.2419 12.8571 16.0714 12.8571H14.6571C14.7431 12.434 14.7861 12.0032 14.7857 11.5714V7.71429H16.0714C16.2419 7.71429 16.4054 7.78202 16.526 7.90257C16.6466 8.02313 16.7143 8.18665 16.7143 8.35714V12.2143Z" fill="#1C1C1C"/>
</svg>
