<svg width="20" height="19" viewBox="0 0 20 19" fill="none" xmlns="http://www.w3.org/2000/svg">
<path fill-rule="evenodd" clip-rule="evenodd" d="M8.25292 0.634585C8.25292 0.284114 7.96881 0 7.61833 0C7.26786 0 6.98375 0.284114 6.98375 0.634585V1.9432C6.89117 1.95417 6.79869 1.96757 6.7064 1.9834C5.73994 2.14923 4.84263 2.57425 4.1065 3.20575L2.99037 2.08962C2.74255 1.8418 2.34075 1.8418 2.09293 2.08962C1.84511 2.33744 1.84511 2.73924 2.09293 2.98706L3.24649 4.14062C2.64634 4.97118 2.29477 5.95636 2.23407 6.98044H0.637895C0.287423 6.98044 0.00330966 7.26455 0.00330966 7.61502C0.00330966 7.9655 0.287423 8.24961 0.637895 8.24961H2.30829C2.3159 8.29206 2.32402 8.33442 2.33266 8.3767C2.40282 8.72007 2.73806 8.94155 3.08144 8.87139C3.42482 8.80122 3.6463 8.46598 3.57613 8.12261C3.54568 7.9736 3.52364 7.8231 3.51006 7.67181C3.51172 7.6531 3.51257 7.63416 3.51257 7.61502C3.51257 7.56717 3.50727 7.52055 3.49723 7.47573C3.49481 7.41694 3.49366 7.35808 3.49379 7.29919L3.49379 7.29803C3.49418 6.3253 3.83834 5.384 4.46546 4.64042C4.48283 4.61982 4.50038 4.59941 4.51812 4.5792C4.52951 4.56932 4.54063 4.55897 4.55145 4.54814C4.5768 4.52279 4.59956 4.49583 4.61972 4.46759C5.23158 3.81967 6.03862 3.3857 6.92103 3.23429C7.87975 3.06979 8.86576 3.2494 9.70489 3.7414C10.0436 3.93998 10.3495 4.18429 10.6154 4.46536C10.6359 4.49441 10.6592 4.52213 10.6852 4.54814C10.6967 4.55965 10.7086 4.57062 10.7207 4.58106C11.0629 4.97156 11.331 5.42614 11.5069 5.92309C11.6239 6.25347 11.9865 6.42648 12.3169 6.30951C12.6473 6.19255 12.8203 5.8299 12.7033 5.49953C12.5304 5.01115 12.2895 4.55406 11.9905 4.14032L13.1437 2.98706C13.3916 2.73924 13.3916 2.33744 13.1437 2.08962C12.8959 1.8418 12.4941 1.8418 12.2463 2.08962L11.1304 3.20551C10.8878 2.99742 10.6258 2.81012 10.3468 2.64655C9.70004 2.26732 8.98653 2.03002 8.25292 1.94314V0.634585ZM8.67589 6.26344C8.66449 6.26326 8.65308 6.26337 8.64168 6.2638C7.39284 6.31051 6.19149 6.75457 5.21252 7.53136C4.33904 8.22443 3.68326 9.1501 3.31813 10.1978C2.41477 10.4135 1.60088 10.9156 1.00164 11.6347C0.316983 12.4563 -0.0386072 13.5024 0.00332793 14.5708C0.00987527 16.9678 1.77589 18.9995 4.07735 18.9995H14.1052C16.921 19.0412 19.0409 16.5347 19.0409 13.6119C19.0409 10.6851 16.9191 8.17981 14.1101 8.1798L14.1091 8.17981C13.7128 8.18045 13.3191 8.23316 12.9378 8.33602C12.4742 7.76508 11.9017 7.28961 11.252 6.93819C10.4599 6.50977 9.5763 6.27833 8.67589 6.26344ZM6.00139 8.52558C6.76422 7.9203 7.69931 7.57277 8.67198 7.53276C9.36277 7.5469 10.0403 7.72574 10.6482 8.05453C11.2611 8.38603 11.7851 8.8602 12.1761 9.43698C12.3423 9.68225 12.6562 9.77982 12.9322 9.67202C13.3079 9.52532 13.7075 9.44968 14.1108 9.44898C16.0863 9.44936 17.7717 11.2464 17.7717 13.6119C17.7717 15.9797 16.0867 17.7617 14.1202 17.7304L14.1101 17.7303H4.07735C2.58826 17.7303 1.27248 16.3809 1.27248 14.5574C1.27248 14.5484 1.27229 14.5395 1.27191 14.5305C1.23979 13.7726 1.49102 13.0299 1.97664 12.4472C2.46226 11.8645 3.14747 11.4834 3.89872 11.3783C4.14995 11.3432 4.35612 11.1618 4.42297 10.9171C4.68112 9.97224 5.23409 9.13441 6.00139 8.52558Z" fill="#1C1C1C"/>
</svg>
