<svg width="19" height="19" viewBox="0 0 19 19" fill="none" xmlns="http://www.w3.org/2000/svg">
<path fill-rule="evenodd" clip-rule="evenodd" d="M4.11667 12.0333C2.54265 12.0333 1.26667 13.3093 1.26667 14.8833C1.26667 16.4573 2.54265 17.7333 4.11667 17.7333H14.8833C16.4573 17.7333 17.7333 16.4573 17.7333 14.8833C17.7333 13.3093 16.4573 12.0333 14.8833 12.0333H4.11667ZM0 14.8833C0 12.6097 1.84309 10.7666 4.11667 10.7666H14.8833C17.1569 10.7666 19 12.6097 19 14.8833C19 17.1568 17.1569 18.9999 14.8833 18.9999H4.11667C1.84309 18.9999 0 17.1568 0 14.8833Z" fill="#1C1C1C"/>
<path fill-rule="evenodd" clip-rule="evenodd" d="M4.30954 0.177297C4.5614 0.420015 4.56881 0.820951 4.32609 1.07281C3.48666 1.94387 3.01764 3.10646 3.01764 4.31617C3.01764 5.52587 3.48666 6.68846 4.32609 7.55952C4.56881 7.81138 4.5614 8.21232 4.30954 8.45504C4.05767 8.69776 3.65674 8.69034 3.41402 8.43848C2.3471 7.33136 1.75098 5.85371 1.75098 4.31617C1.75098 2.77863 2.3471 1.30097 3.41402 0.193855C3.65674 -0.058007 4.05767 -0.0654201 4.30954 0.177297ZM14.4126 0.177297C14.6644 -0.0654201 15.0654 -0.058007 15.3081 0.193855C16.375 1.30097 16.9711 2.77863 16.9711 4.31617C16.9711 5.85371 16.375 7.33136 15.3081 8.43848C15.0654 8.69034 14.6644 8.69776 14.4126 8.45504C14.1607 8.21232 14.1533 7.81138 14.396 7.55952C15.2355 6.68846 15.7045 5.52587 15.7045 4.31617C15.7045 3.10646 15.2355 1.94387 14.396 1.07281C14.1533 0.820951 14.1607 0.420015 14.4126 0.177297ZM6.20881 1.25326C6.46106 1.49558 6.46911 1.8965 6.2268 2.14875C5.66703 2.73147 5.35442 3.50815 5.35442 4.31617C5.35442 5.12419 5.66703 5.90087 6.2268 6.48359C6.46911 6.73584 6.46106 7.13676 6.20881 7.37907C5.95655 7.62139 5.55563 7.61333 5.31332 7.36108C4.52693 6.54245 4.08775 5.45132 4.08775 4.31617C4.08775 3.18102 4.52693 2.08989 5.31332 1.27125C5.55563 1.019 5.95655 1.01095 6.20881 1.25326ZM12.5118 1.25469C12.7633 1.01156 13.1642 1.01831 13.4074 1.26977C14.1976 2.08703 14.6393 3.17936 14.6393 4.31617C14.6393 5.45297 14.1976 6.5453 13.4074 7.36257C13.1642 7.61403 12.7633 7.62078 12.5118 7.37765C12.2604 7.13451 12.2536 6.73356 12.4967 6.4821C13.0586 5.90104 13.3726 5.12442 13.3726 4.31617C13.3726 3.50792 13.0586 2.73129 12.4967 2.15023C12.2536 1.89877 12.2604 1.49782 12.5118 1.25469ZM9.50039 3.16667C9.85017 3.16667 10.1337 3.45022 10.1337 3.8V11.4C10.1337 11.7498 9.85017 12.0333 9.50039 12.0333C9.15061 12.0333 8.86706 11.7498 8.86706 11.4V3.8C8.86706 3.45022 9.15061 3.16667 9.50039 3.16667ZM12.6671 10.7667C13.0168 10.7667 13.3004 11.0502 13.3004 11.4V18.3667C13.3004 18.7164 13.0168 19 12.6671 19C12.3173 19 12.0337 18.7164 12.0337 18.3667V11.4C12.0337 11.0502 12.3173 10.7667 12.6671 10.7667Z" fill="#1C1C1C"/>
<path d="M4.75026 15.1999C4.92515 15.1999 5.06693 15.0581 5.06693 14.8832C5.06693 14.7083 4.92515 14.5665 4.75026 14.5665C4.57537 14.5665 4.43359 14.7083 4.43359 14.8832C4.43359 15.0581 4.57537 15.1999 4.75026 15.1999Z" fill="#1C1C1C"/>
<path fill-rule="evenodd" clip-rule="evenodd" d="M4.7498 15.2001C4.92469 15.2001 5.06647 15.0584 5.06647 14.8835C5.06647 14.7086 4.92469 14.5668 4.7498 14.5668C4.57491 14.5668 4.43314 14.7086 4.43314 14.8835C4.43314 15.0584 4.57491 15.2001 4.7498 15.2001ZM3.7998 14.8835C3.7998 14.3588 4.22513 13.9335 4.7498 13.9335C5.27448 13.9335 5.6998 14.3588 5.6998 14.8835C5.6998 15.4081 5.27448 15.8335 4.7498 15.8335C4.22513 15.8335 3.7998 15.4081 3.7998 14.8835Z" fill="#1C1C1C"/>
<path d="M7.91628 15.1999C8.09117 15.1999 8.23294 15.0581 8.23294 14.8832C8.23294 14.7083 8.09117 14.5665 7.91628 14.5665C7.74139 14.5665 7.59961 14.7083 7.59961 14.8832C7.59961 15.0581 7.74139 15.1999 7.91628 15.1999Z" fill="#1C1C1C"/>
<path fill-rule="evenodd" clip-rule="evenodd" d="M7.9168 15.2001C8.09169 15.2001 8.23346 15.0584 8.23346 14.8835C8.23346 14.7086 8.09169 14.5668 7.9168 14.5668C7.74191 14.5668 7.60013 14.7086 7.60013 14.8835C7.60013 15.0584 7.74191 15.2001 7.9168 15.2001ZM6.9668 14.8835C6.9668 14.3588 7.39213 13.9335 7.9168 13.9335C8.44147 13.9335 8.8668 14.3588 8.8668 14.8835C8.8668 15.4081 8.44147 15.8335 7.9168 15.8335C7.39213 15.8335 6.9668 15.4081 6.9668 14.8835Z" fill="#1C1C1C"/>
</svg>
