<svg width="19" height="19" viewBox="0 0 19 19" fill="none" xmlns="http://www.w3.org/2000/svg">
<path d="M16.6347 6.15249H15.4075V0.559317C15.4075 0.410977 15.3487 0.268712 15.2441 0.16382C15.1395 0.0589279 14.9976 0 14.8497 0H4.13918C3.99123 0 3.84935 0.0589279 3.74473 0.16382C3.64012 0.268712 3.58134 0.410977 3.58134 0.559317V6.15249H2.34294C1.72105 6.15397 1.12513 6.40271 0.685912 6.84414C0.246689 7.28558 2.48118e-05 7.88367 2.65661e-05 8.50721V12.9817C-0.00144304 13.2912 0.0580737 13.5979 0.175158 13.8842C0.292243 14.1705 0.464588 14.4307 0.682294 14.6501C0.900001 14.8694 1.15878 15.0434 1.44376 15.1622C1.72875 15.2809 2.03433 15.3421 2.34294 15.3421H3.45862V18.4407C3.45862 18.589 3.51739 18.7313 3.62201 18.8362C3.72662 18.9411 3.86851 19 4.01646 19H14.9835C15.1315 19 15.2734 18.9411 15.378 18.8362C15.4826 18.7313 15.5414 18.589 15.5414 18.4407V15.3421H16.6571C17.278 15.3406 17.8731 15.0926 18.3121 14.6524C18.7512 14.2122 18.9985 13.6155 19 12.9929V8.5184C19.0015 8.20681 18.9412 7.89803 18.8228 7.60995C18.7044 7.32187 18.5302 7.06021 18.3102 6.84015C18.0902 6.62008 17.8288 6.44598 17.5412 6.32794C17.2536 6.2099 16.9455 6.15026 16.6347 6.15249ZM4.69702 1.11863H14.2918V6.15249H4.69702V1.11863ZM14.4257 17.8981H4.57429V11.4101H14.4257V17.8981ZM17.862 13.0097C17.8605 13.3356 17.7307 13.6477 17.5009 13.8782C17.2711 14.1086 16.9598 14.2387 16.6347 14.2402H15.5191V10.8843C15.5191 10.736 15.4603 10.5937 15.3557 10.4888C15.2511 10.3839 15.1092 10.325 14.9612 10.325H4.01646C3.86851 10.325 3.72662 10.3839 3.62201 10.4888C3.51739 10.5937 3.45862 10.736 3.45862 10.8843V14.2402H2.34294C2.01791 14.2387 1.70661 14.1086 1.47677 13.8782C1.24694 13.6477 1.11717 13.3356 1.1157 13.0097V8.53518C1.11199 8.37098 1.14096 8.2077 1.2009 8.05485C1.26085 7.90201 1.35057 7.76267 1.46482 7.64499C1.57908 7.52731 1.71558 7.43363 1.86635 7.36944C2.01713 7.30525 2.17914 7.27182 2.34294 7.27112H16.6236C16.9496 7.2726 17.2617 7.40348 17.4917 7.63514C17.7217 7.86679 17.8508 8.18035 17.8508 8.50721L17.862 13.0097Z" fill="#1C1C1C"/>
</svg>
