<svg width="13" height="18" viewBox="0 0 13 18" fill="none" xmlns="http://www.w3.org/2000/svg">
<path d="M12.983 4.84611V2.96997C12.9813 2.18285 12.6874 1.42849 12.1655 0.871904C11.6436 0.315323 10.9362 0.0018284 10.1982 0H2.78486C2.0468 0.0018284 1.33945 0.315323 0.817562 0.871904C0.29567 1.42849 0.00171444 2.18285 0 2.96997V4.84611C0 5.02972 0.0683928 5.20581 0.190132 5.33564C0.311872 5.46547 0.476986 5.53841 0.649152 5.53841H2.4473L0.12983 17.1621C0.109982 17.2537 0.107812 17.3486 0.123449 17.441C0.139087 17.5335 0.172207 17.6216 0.220791 17.6999C0.269376 17.7783 0.332409 17.8453 0.406052 17.8969C0.479695 17.9484 0.562407 17.9835 0.649152 17.9998H0.785474C0.936433 18.0034 1.08384 17.9508 1.20232 17.8509C1.32081 17.7511 1.40295 17.6104 1.43463 17.4529L2.94715 9.69221H5.84237V17.3075C5.84237 17.4911 5.91076 17.6672 6.0325 17.7971C6.15424 17.9269 6.31936 17.9998 6.49152 17.9998C6.66369 17.9998 6.8288 17.9269 6.95054 17.7971C7.07228 17.6672 7.14068 17.4911 7.14068 17.3075V9.69221H10.1527L11.6847 17.4529C11.7164 17.6104 11.7986 17.7511 11.917 17.8509C12.0355 17.9508 12.1829 18.0034 12.3339 17.9998H12.4702C12.5564 17.9826 12.6384 17.947 12.7113 17.8951C12.7842 17.8432 12.8465 17.7761 12.8944 17.6978C12.9423 17.6195 12.9749 17.5317 12.9901 17.4396C13.0054 17.3476 13.0029 17.2532 12.983 17.1621L10.6591 5.53841H12.3339C12.5061 5.53841 12.6712 5.46547 12.7929 5.33564C12.9147 5.20581 12.983 5.02972 12.983 4.84611ZM3.24576 8.30761L3.79754 5.53841H5.84237V8.30761H3.24576ZM9.90606 8.30761H7.14068V5.53841H9.32832L9.90606 8.30761ZM11.6847 4.15381H1.2983V2.96997C1.30001 2.55007 1.45718 2.14788 1.73559 1.85096C2.01401 1.55404 2.39113 1.38642 2.78486 1.3846H10.1982C10.5919 1.38642 10.969 1.55404 11.2474 1.85096C11.5259 2.14788 11.683 2.55007 11.6847 2.96997V4.15381Z" fill="black"/>
</svg>
