<svg width="18" height="19" viewBox="0 0 18 19" fill="none" xmlns="http://www.w3.org/2000/svg">
<path d="M9 0C4.03763 0 0 3.95406 0 8.81374C0 12.2055 1.96966 15.1508 4.8448 16.6238V18.3068C4.82382 19.2311 6.25037 19.2311 6.22942 18.3068V17.1945C7.10319 17.4722 8.03293 17.6262 9 17.6262C9.96646 17.6262 10.8959 17.4732 11.7692 17.1958V18.3068C11.7692 19.2117 13.1552 19.2117 13.1552 18.3068V16.6238C16.0303 15.1508 18 12.2055 18 8.81374C18 3.95406 13.9624 0 9 0ZM9 1.35598C13.2141 1.35598 16.614 4.68689 16.614 8.81374C16.614 11.4365 15.2381 13.7348 13.1552 15.0652V12.0977C14.3758 11.751 15.2294 10.5287 15.2294 9.15407C15.2176 8.38933 15.2294 7.57018 15.2294 6.7811C15.237 6.37075 14.8736 6.04788 14.4573 6.09521C14.1033 6.13544 13.8383 6.43214 13.8448 6.7811V8.12121L13.1552 8.12254V6.7811C13.1628 6.37075 12.7994 6.04788 12.3831 6.09521C12.0286 6.13467 11.7628 6.43171 11.7692 6.7811V8.1252L11.0742 8.12652V6.7811C11.0818 6.37134 10.7193 6.04875 10.3035 6.09521C9.94895 6.13467 9.68317 6.43171 9.68961 6.7811C9.69238 7.56011 9.68912 8.40358 9.69099 9.15407C9.691 10.5303 10.5465 11.7539 11.7693 12.0991V15.7604C10.9104 16.0886 9.97923 16.2755 9.00003 16.2755C8.02071 16.2755 7.08845 16.0887 6.22945 15.7604V12.0991C7.4507 11.7522 8.30502 10.5291 8.30503 9.15407C8.30504 7.52945 7.11802 6.10576 5.53444 6.10576C3.95087 6.10576 2.77061 7.52945 2.77062 9.15407C2.77062 10.5306 3.62249 11.7552 4.84484 12.1004V15.0652C2.76146 13.7349 1.38465 11.4368 1.38465 8.81374C1.38465 4.68689 4.78594 1.35598 9 1.35598ZM5.5344 7.45643C6.24495 7.45643 6.91903 8.15758 6.91902 9.15407C6.91902 10.1211 6.28357 10.8026 5.59661 10.8424C5.55216 10.8475 5.51608 10.8433 5.47759 10.8437C4.78888 10.8071 4.15518 10.1236 4.15518 9.15407C4.15516 8.15758 4.82385 7.45643 5.5344 7.45643ZM11.104 9.49573H13.8164C13.6874 10.2796 13.1229 10.8083 12.5197 10.8424C12.4716 10.845 12.4429 10.8433 12.4061 10.8437C11.8003 10.8132 11.2335 10.2826 11.104 9.49573Z" fill="#1C1C1C"/>
</svg>
