<svg width="21" height="16" viewBox="0 0 21 16" fill="none" xmlns="http://www.w3.org/2000/svg">
<path fill-rule="evenodd" clip-rule="evenodd" d="M21 2.80815C21 1.59406 20.0164 0.610474 18.8023 0.610474H2.19767C0.983581 0.610474 0 1.59406 0 2.80815C0 4.02224 0.983581 5.00582 2.19767 5.00582H18.8023C20.0164 5.00582 21 4.02224 21 2.80815ZM19.5349 2.80815C19.5349 3.21252 19.2067 3.54071 18.8023 3.54071H2.19767C1.7933 3.54071 1.46512 3.21252 1.46512 2.80815C1.46512 2.40378 1.7933 2.07559 2.19767 2.07559H18.8023C19.2067 2.07559 19.5349 2.40378 19.5349 2.80815Z" fill="#1C1C1C"/>
<path fill-rule="evenodd" clip-rule="evenodd" d="M2.46031 4.11114L0.0184486 14.8553C-0.0714119 15.249 0.175704 15.6426 0.570309 15.7315C0.963937 15.8213 1.35756 15.5742 1.44645 15.1796L3.88831 4.43542C3.97817 4.04179 3.73105 3.64816 3.33645 3.55928C2.94282 3.46942 2.54919 3.71654 2.46031 4.11114ZM17.1115 4.43542L19.5533 15.1796C19.6422 15.5742 20.0358 15.8213 20.4295 15.7315C20.8241 15.6426 21.0712 15.249 20.9813 14.8553L18.5395 4.11114C18.4506 3.71654 18.057 3.46942 17.6633 3.55928C17.2687 3.64816 17.0216 4.04179 17.1115 4.43542Z" fill="#1C1C1C"/>
<path fill-rule="evenodd" clip-rule="evenodd" d="M18.3136 6.47095H2.68568C2.28131 6.47095 1.95312 6.79913 1.95312 7.20351C1.95312 7.60788 2.28131 7.93606 2.68568 7.93606H18.3136C18.718 7.93606 19.0461 7.60788 19.0461 7.20351C19.0461 6.79913 18.718 6.47095 18.3136 6.47095Z" fill="#1C1C1C"/>
</svg>
