<svg width="21" height="21" viewBox="0 0 21 21" fill="none" xmlns="http://www.w3.org/2000/svg">
<path d="M5.94038 2.95312C7.02581 2.97216 7.89338 3.87122 7.875 4.95666C7.85597 6.02306 6.97331 6.89128 5.90691 6.89128C5.90297 6.89128 5.87541 6.89128 5.87147 6.89128C4.78669 6.87225 3.91912 5.97319 3.9375 4.88775C3.95653 3.82069 4.83919 2.95312 5.94038 2.95312ZM5.89444 5.57812H5.90691C6.26194 5.57812 6.55594 5.28938 6.5625 4.93369C6.56906 4.57144 6.27966 4.27219 5.90625 4.26497C5.55056 4.26563 5.25656 4.55437 5.25 4.91006C5.24409 5.27231 5.5335 5.57156 5.89444 5.57812ZM5.90625 0.65625C8.80097 0.65625 11.1562 3.01153 11.1562 5.90625C11.1562 7.81331 10.1607 9.51891 8.53125 10.4514V11.1562C8.53125 11.3302 8.46234 11.4975 8.33897 11.6202L6.70491 13.2543L7.14984 14.1435C7.24238 14.3286 7.24238 14.5458 7.14984 14.7308L6.63994 15.75L7.14919 16.7692C7.19512 16.8597 7.21875 16.9608 7.21875 17.0625V18.375C7.21875 18.5489 7.14984 18.7163 7.02647 18.839L5.71397 20.1515C5.586 20.2794 5.418 20.3438 5.25 20.3438C5.082 20.3438 4.914 20.2794 4.78603 20.1515L3.47353 18.839C3.35016 18.7163 3.28125 18.5489 3.28125 18.375V10.4514C1.65178 9.51891 0.65625 7.81331 0.65625 5.90625C0.65625 3.01153 3.01153 0.65625 5.90625 0.65625ZM4.21772 9.4605C4.44741 9.56944 4.59375 9.80044 4.59375 10.0537V18.1033L5.25 18.7596L5.90625 18.1033V17.2174L5.31891 16.0433C5.22637 15.8583 5.22637 15.6411 5.31891 15.456L5.82881 14.4375L5.31956 13.4183C5.19356 13.1657 5.24278 12.8605 5.44294 12.661L7.21875 10.8846V10.0537C7.21875 9.79978 7.36509 9.56878 7.59478 9.4605C8.98209 8.80491 9.84375 7.44319 9.84375 5.90625C9.84375 3.73472 8.07778 1.96875 5.90625 1.96875C3.73472 1.96875 1.96875 3.73472 1.96875 5.90625C1.96875 7.44319 2.83041 8.80491 4.21772 9.4605ZM9.20719 11.1234C9.20719 11.4857 9.48084 11.7797 9.84375 11.7797C10.3628 11.8427 10.9049 11.8204 11.4391 11.7108L17.2548 17.5265C17.3775 17.6498 17.5448 17.7188 17.7188 17.7188H19.6875C20.0497 17.7188 20.3438 17.4247 20.3438 17.0625V15.0938C20.3438 14.9198 20.2748 14.7525 20.1515 14.6298L19.4952 13.9735C19.3725 13.8502 19.2052 13.7812 19.0312 13.7812H18.1919L17.6853 12.2614C17.6197 12.0658 17.4661 11.9116 17.2705 11.8466L15.878 11.3827L16.3866 9.34697C16.4423 9.12319 16.3767 8.88694 16.214 8.72353L15.4613 7.97081C15.9672 6.16219 15.4626 4.19213 14.1205 2.85009C13.3553 2.08556 12.388 1.58222 11.3223 1.39519C10.9292 1.32431 10.5486 1.64128 10.5486 2.04159C10.5486 2.37825 10.7993 2.65584 11.1254 2.69325C11.9123 2.83828 12.6269 3.213 13.1919 3.77803C14.2741 4.86084 14.6291 6.48703 14.0969 7.92225C14.0077 8.16244 14.0667 8.43281 14.2478 8.61459L15.0222 9.38897L14.4559 11.6537C14.3732 11.9864 14.5596 12.327 14.8851 12.4353L16.5428 12.9878L17.0953 14.6455C17.1852 14.9133 17.4359 15.0938 17.7188 15.0938H18.7596L19.0312 15.3654V16.4062H17.9904L12.1058 10.5217C11.9365 10.353 11.6891 10.2893 11.4607 10.355C10.9751 10.4948 10.4705 10.5348 9.96253 10.4718C9.57797 10.4252 9.20719 10.7343 9.20719 11.1234Z" fill="#1C1C1C"/>
</svg>
