<svg width="19" height="19" viewBox="0 0 19 19" fill="none" xmlns="http://www.w3.org/2000/svg">
<path fill-rule="evenodd" clip-rule="evenodd" d="M9.49975 3.09277C13.0355 3.09277 15.9067 5.96398 15.9067 9.49975C15.9067 13.0355 13.0355 15.9067 9.49975 15.9067C5.96398 15.9067 3.09277 13.0355 3.09277 9.49975C3.09277 5.96398 5.96398 3.09277 9.49975 3.09277ZM9.49975 4.41835C6.69482 4.41835 4.41835 6.69482 4.41835 9.49975C4.41835 12.3047 6.69482 14.5811 9.49975 14.5811C12.3047 14.5811 14.5811 12.3047 14.5811 9.49975C14.5811 6.69482 12.3047 4.41835 9.49975 4.41835Z" fill="#1C1C1C"/>
<path fill-rule="evenodd" clip-rule="evenodd" d="M19 3.31395V15.686C19 17.5162 17.5162 19 15.686 19H3.31395C1.48377 19 0 17.5162 0 15.686V3.31395C0 1.48377 1.48377 0 3.31395 0H15.686C17.5162 0 19 1.48377 19 3.31395ZM17.6744 3.31395C17.6744 2.21549 16.7845 1.32558 15.686 1.32558H3.31395C2.21549 1.32558 1.32558 2.21549 1.32558 3.31395V15.686C1.32558 16.7845 2.21549 17.6744 3.31395 17.6744H15.686C16.7845 17.6744 17.6744 16.7845 17.6744 15.686V3.31395Z" fill="#1C1C1C"/>
<path d="M11.7089 10.3838C12.197 10.3838 12.5926 9.98812 12.5926 9.50005C12.5926 9.01199 12.197 8.61633 11.7089 8.61633C11.2209 8.61633 10.8252 9.01199 10.8252 9.50005C10.8252 9.98812 11.2209 10.3838 11.7089 10.3838Z" fill="#1C1C1C"/>
<path d="M7.29095 10.3838C7.77901 10.3838 8.17467 9.98812 8.17467 9.50005C8.17467 9.01199 7.77901 8.61633 7.29095 8.61633C6.80288 8.61633 6.40723 9.01199 6.40723 9.50005C6.40723 9.98812 6.80288 10.3838 7.29095 10.3838Z" fill="#1C1C1C"/>
<path fill-rule="evenodd" clip-rule="evenodd" d="M8.83691 3.75556C8.83691 3.3897 9.13384 3.09277 9.4997 3.09277C9.86557 3.09277 10.1625 3.3897 10.1625 3.75556V5.52301C10.1625 5.88887 9.86557 6.1858 9.4997 6.1858C9.13384 6.1858 8.83691 5.88887 8.83691 5.52301V3.75556ZM8.83691 13.4765C8.83691 13.1106 9.13384 12.8137 9.4997 12.8137C9.86557 12.8137 10.1625 13.1106 10.1625 13.4765V15.2439C10.1625 15.6098 9.86557 15.9067 9.4997 15.9067C9.13384 15.9067 8.83691 15.6098 8.83691 15.2439V13.4765Z" fill="#1C1C1C"/>
</svg>
