<svg width="21" height="21" viewBox="0 0 21 21" fill="none" xmlns="http://www.w3.org/2000/svg">
<path d="M10.5001 0.9H10.5C8.6013 0.9 6.74524 1.46303 5.16653 2.51789C3.58782 3.57275 2.35736 5.07207 1.63076 6.82624C0.904159 8.58041 0.714048 10.5106 1.08447 12.3729C1.45488 14.2351 2.36919 15.9456 3.71178 17.2882C5.05436 18.6308 6.76492 19.5451 8.62714 19.9155C10.4894 20.2859 12.4196 20.0958 14.1738 19.3692C15.9279 18.6426 17.4272 17.4122 18.4821 15.8335C19.537 14.2548 20.1 12.3987 20.1 10.5V10.4999C20.0971 7.95472 19.0848 5.51462 17.2851 3.71491C15.4854 1.9152 13.0453 0.902869 10.5001 0.9ZM10.4999 19.2871C8.762 19.2871 7.06315 18.7717 5.61815 17.8062C4.17312 16.8407 3.04686 15.4683 2.38179 13.8627C1.71671 12.257 1.5427 10.4902 1.88175 8.78572C2.2208 7.08119 3.05769 5.51548 4.28659 4.28658C5.51548 3.05769 7.08119 2.2208 8.78572 1.88174C10.4903 1.54269 12.257 1.71671 13.8627 2.38178C15.4683 3.04686 16.8407 4.17312 17.8062 5.61815C18.7717 7.06315 19.2871 8.762 19.2871 10.4999C19.2844 12.8296 18.3577 15.063 16.7104 16.7104C15.063 18.3577 12.8296 19.2844 10.4999 19.2871Z" fill="#1C1C1C" stroke="#1C1C1C" stroke-width="0.2"/>
<path d="M9.17441 9.88699V9.8871C9.17441 10.3918 9.32406 10.8851 9.60444 11.3047C9.88481 11.7243 10.2833 12.0514 10.7496 12.2445C11.2158 12.4376 11.7289 12.4881 12.2238 12.3897C12.7188 12.2912 13.1734 12.0482 13.5303 11.6914C13.8871 11.3345 14.1302 10.8799 14.2286 10.3849C14.3271 9.88993 14.2765 9.37688 14.0834 8.91064C13.8903 8.44439 13.5632 8.04588 13.1436 7.76551C12.724 7.48514 12.2307 7.33549 11.726 7.33549L11.7259 7.33549C11.0494 7.33625 10.4009 7.60531 9.92257 8.08364C9.44424 8.56198 9.17517 9.21052 9.17441 9.88699ZM11.726 8.14839C12.0699 8.14839 12.4061 8.25036 12.692 8.44141C12.9779 8.63247 13.2008 8.90402 13.3324 9.22172C13.464 9.53943 13.4984 9.88903 13.4313 10.2263C13.3642 10.5636 13.1986 10.8734 12.9555 11.1166C12.7123 11.3597 12.4025 11.5253 12.0652 11.5924C11.728 11.6595 11.3784 11.6251 11.0607 11.4935C10.7429 11.3619 10.4714 11.139 10.2803 10.8531C10.0893 10.5671 9.98732 10.231 9.98732 9.8871H9.88732L9.98732 9.8872C9.98778 9.42618 10.1711 8.98417 10.4971 8.65818C10.8231 8.33219 11.2651 8.14885 11.7261 8.14839L11.726 8.04839V8.14839Z" fill="#1C1C1C" stroke="#1C1C1C" stroke-width="0.2"/>
<mask id="path-3-outside-1_841_52009" maskUnits="userSpaceOnUse" x="2.45215" y="1.83871" width="17" height="16" fill="black">
<rect fill="white" x="2.45215" y="1.83871" width="17" height="16"/>
<path d="M15.2475 5.77819C15.0814 5.73637 14.9276 5.65584 14.7986 5.54319C14.6696 5.43054 14.5691 5.28897 14.5053 5.13004C14.3803 4.81487 14.1633 4.54464 13.8826 4.35458C13.6018 4.16451 13.2704 4.06343 12.9313 4.06451C12.3773 4.06403 11.8327 4.20765 11.351 4.48128L11.1505 4.28117L10.2312 3.36182C9.89624 3.02688 9.44197 2.83871 8.96829 2.83871C8.49462 2.83871 8.04034 3.02688 7.7054 3.36182L5.50753 5.55969C5.22632 5.84029 5.04697 6.20685 4.998 6.60108C4.94903 6.99532 5.03324 7.39461 5.23724 7.73549C5.22902 7.73821 5.22063 7.74036 5.21211 7.74193C4.9892 7.74217 4.77548 7.83085 4.61788 7.98851C4.46028 8.14617 4.37168 8.35991 4.37152 8.58283V8.77865C4.18599 8.87643 4.03079 9.02314 3.92274 9.20288C3.8147 9.38261 3.75793 9.58851 3.75861 9.79822C3.75891 10.1058 3.83055 10.409 3.96792 10.6842C4.03178 10.8122 4.06503 10.9533 4.06507 11.0963C4.06645 11.1933 4.0831 11.2895 4.1144 11.3813L3.95505 11.5009C3.798 11.6195 3.67078 11.7731 3.58348 11.9495C3.49619 12.1259 3.45122 12.3202 3.45216 12.5171C3.45132 12.8004 3.5399 13.0767 3.70529 13.3068C3.53876 13.7023 3.45271 14.127 3.45216 14.5562V14.7903C3.45252 15.0758 3.55233 15.3522 3.73443 15.5721C3.91654 15.7919 4.16955 15.9415 4.44997 15.995L4.51126 16.1788C4.58427 16.3995 4.72508 16.5914 4.91362 16.7273C5.10215 16.8631 5.32877 16.936 5.56116 16.9355C5.73904 16.9362 5.91433 16.9781 6.07324 17.0581C6.31758 17.1791 6.5866 17.242 6.85929 17.2419C7.28614 17.2415 7.70708 17.1422 8.08908 16.9517C8.14056 16.9259 8.19382 16.9038 8.24844 16.8855L8.3894 16.8386C8.64404 16.753 8.87541 16.6096 9.06537 16.4196C9.25533 16.2297 9.39874 15.9983 9.48436 15.7437C9.48764 15.7338 9.49397 15.7251 9.50245 15.719C9.51092 15.7129 9.5211 15.7097 9.53155 15.7097C9.6936 15.7093 9.84988 15.6494 9.97069 15.5414C9.91772 15.6942 9.88968 15.8545 9.88765 16.0161C9.88813 16.4223 10.0497 16.8118 10.337 17.0991C10.6242 17.3863 11.0137 17.5479 11.4199 17.5484C13.2886 17.5463 15.0802 16.8031 16.4016 15.4817C17.723 14.1603 18.4663 12.3687 18.4683 10.5C18.4677 10.1428 18.3424 9.7971 18.114 9.52253C17.8856 9.24796 17.5684 9.06181 17.2174 8.99623C17.2321 8.77528 17.2425 8.55372 17.2425 8.33307C17.2431 7.74557 17.047 7.17479 16.6854 6.71173C16.3238 6.24868 15.8176 5.92003 15.2475 5.77819ZM13.9362 5.35773C14.0362 5.60691 14.194 5.82882 14.3964 6.00525C14.5988 6.18168 14.8402 6.30761 15.1007 6.3727C15.5378 6.4819 15.9258 6.73423 16.2029 7.0895C16.4799 7.44476 16.6301 7.88254 16.6296 8.33307C16.6296 8.5574 16.6185 8.78264 16.602 9.00727C16.2625 9.0831 15.9589 9.27222 15.7411 9.54351C15.5234 9.81479 15.4044 10.1521 15.4038 10.5C15.4026 11.5562 14.9824 12.5688 14.2356 13.3157C13.4887 14.0625 12.4761 14.4826 11.4199 14.4839C11.1542 14.4854 10.8935 14.557 10.6642 14.6913C10.4194 14.7566 10.1671 14.7899 9.91369 14.7903C9.58178 14.79 9.26356 14.658 9.02886 14.4233C8.79416 14.1886 8.66216 13.8704 8.66184 13.5385C8.66103 12.4935 8.29471 11.4818 7.62634 10.6787C7.30557 10.2933 7.12982 9.80777 7.12958 9.30636C7.1269 8.74227 7.30753 8.19258 7.64429 7.74003C7.98105 7.28749 8.4557 6.95658 8.99679 6.79714C9.68758 6.58896 10.3162 6.21337 10.8269 5.70372L11.0911 5.43956C11.3322 5.19713 11.619 5.00494 11.9348 4.87412C12.2507 4.74329 12.5894 4.67643 12.9313 4.67741C13.1478 4.67672 13.3594 4.74126 13.5387 4.86261C13.7179 4.98396 13.8564 5.1565 13.9362 5.35773ZM10.841 4.83922C10.7797 4.89285 10.7157 4.94709 10.6571 5.00623L10.393 5.2704C9.95439 5.70829 9.41434 6.03096 8.82089 6.20967C8.31771 6.358 7.85854 6.62738 7.48356 6.99424C7.10858 7.3611 6.82922 7.81426 6.6699 8.31407C6.54229 8.09233 6.49163 7.83458 6.52584 7.58103C6.56004 7.32748 6.67718 7.09237 6.85898 6.91236L9.05686 4.71449C9.2769 4.49453 9.57529 4.37097 9.88642 4.37097C10.1975 4.37097 10.4959 4.49453 10.716 4.71449L10.841 4.83922ZM5.94086 5.99301L8.13873 3.79514C8.35218 3.58063 8.64068 3.4575 8.94324 3.45178C9.24581 3.44606 9.53875 3.5582 9.76016 3.76449C9.33269 3.79603 8.93056 3.97927 8.62629 4.28117L6.42842 6.47904C6.12458 6.782 5.9409 7.18485 5.91144 7.61291C5.70529 7.39143 5.59325 7.09852 5.59897 6.796C5.60468 6.49348 5.72771 6.20501 5.94208 5.99148L5.94086 5.99301ZM4.67123 9.31372C4.7656 9.26688 4.84496 9.19454 4.90032 9.1049C4.95568 9.01525 4.98481 8.9119 4.98442 8.80654V8.58283C4.98442 8.52241 5.0084 8.46447 5.05109 8.42172C5.09378 8.37897 5.1517 8.35491 5.21211 8.35483C5.36693 8.35397 5.51846 8.31004 5.64973 8.22796L6.42689 9.00481L6.52495 9.10288C6.52066 9.1703 6.51668 9.23802 6.51668 9.30636C6.5176 9.59797 6.56477 9.88759 6.65642 10.1644L5.75515 9.62354L5.4395 10.1488L7.30886 11.2698C7.64141 11.7266 7.86958 12.2508 7.97723 12.8054C7.95639 12.8149 7.9334 12.8195 7.91318 12.8296C7.70544 12.9324 7.47108 12.9686 7.24203 12.9333C7.01297 12.8981 6.80035 12.793 6.63313 12.6326C6.44351 12.4446 6.18736 12.339 5.92032 12.3387C5.83468 12.3386 5.75257 12.3046 5.69202 12.244C5.63146 12.1834 5.5974 12.1013 5.59732 12.0157C5.59716 11.8576 5.53428 11.706 5.42248 11.5942C5.31067 11.4824 5.15908 11.4195 5.00097 11.4193C4.91533 11.4193 4.83322 11.3852 4.77266 11.3247C4.71211 11.2641 4.67805 11.182 4.67797 11.0963C4.67767 10.8581 4.6223 10.6232 4.51616 10.4099C4.42104 10.2196 4.37151 10.0097 4.37152 9.79699C4.3715 9.69652 4.39955 9.59803 4.45251 9.51265C4.50546 9.42726 4.58121 9.35836 4.67123 9.31372ZM8.90302 15.55C8.84764 15.7144 8.75497 15.8638 8.63227 15.9864C8.50957 16.1091 8.36016 16.2017 8.19573 16.257L8.05445 16.3039C7.97242 16.3316 7.89236 16.3649 7.81481 16.4035C7.51797 16.5514 7.19093 16.6286 6.85929 16.629C6.68142 16.6283 6.50613 16.5864 6.34721 16.5064C6.10287 16.3854 5.83385 16.3225 5.56116 16.3226C5.45758 16.3228 5.35657 16.2903 5.2725 16.2298C5.18843 16.1693 5.12559 16.0838 5.0929 15.9855L4.96849 15.6134C4.94827 15.5523 4.90933 15.4991 4.85719 15.4614C4.80504 15.4237 4.74234 15.4033 4.67797 15.4032C4.51542 15.4032 4.35952 15.3386 4.24458 15.2237C4.12964 15.1088 4.06507 14.9529 4.06507 14.7903V14.5562C4.0657 14.1532 4.15958 13.7557 4.33934 13.395C4.36806 13.3375 4.37794 13.2724 4.3676 13.2089C4.35726 13.1454 4.32722 13.0868 4.28173 13.0414C4.2117 12.9711 4.15646 12.8875 4.11925 12.7955C4.08204 12.7035 4.06362 12.6049 4.06507 12.5057C4.06516 12.4059 4.08847 12.3075 4.13314 12.2183C4.17782 12.129 4.24264 12.0514 4.32249 11.9915L4.48307 11.8714C4.63115 11.9703 4.80637 12.0208 4.98442 12.0157C4.98466 12.2638 5.08335 12.5018 5.25881 12.6772C5.43427 12.8527 5.67218 12.9514 5.92032 12.9516C6.02463 12.9519 6.12461 12.9933 6.19858 13.0668C6.33854 13.2045 6.50133 13.3168 6.67971 13.3987L5.55197 13.5679L5.6439 14.174L6.48481 14.0481L6.23321 14.6766L6.8026 14.904L7.18719 13.9427L8.07223 13.81C8.09167 13.9436 8.12579 14.0746 8.17397 14.2007L7.76302 15.2953L8.33731 15.5099L8.58676 14.8442C8.74527 15.0046 8.93141 15.1351 9.13623 15.2295C9.02737 15.3098 8.94593 15.4217 8.90302 15.55ZM17.8554 10.5C17.8534 12.2062 17.1748 13.8419 15.9683 15.0484C14.7619 16.2549 13.1261 16.9335 11.4199 16.9355C11.1761 16.9355 10.9422 16.8386 10.7698 16.6662C10.5974 16.4938 10.5005 16.2599 10.5005 16.0161C10.5005 15.7723 10.5974 15.5384 10.7698 15.366C10.9422 15.1936 11.1761 15.0968 11.4199 15.0968C11.4444 15.0968 11.4683 15.0934 11.4928 15.0931C11.5937 15.5238 11.8117 15.9182 12.1226 16.2328L12.5559 15.7995C12.3449 15.5877 12.1902 15.3265 12.1057 15.0398C12.5455 14.9739 12.9733 14.8439 13.3754 14.6539C13.4913 15.0178 13.6921 15.3489 13.9613 15.6199L14.3946 15.1866C14.1657 14.9544 14.0044 14.6642 13.9282 14.3472C14.2924 14.1086 14.621 13.8197 14.9043 13.4891C15.0734 13.74 15.2893 13.956 15.5401 14.1253L15.8803 13.6154C15.6333 13.4493 15.4329 13.2228 15.298 12.9574C15.5416 12.5745 15.7267 12.1575 15.8472 11.72C16.1034 12.0597 16.4141 12.3547 16.7666 12.5931L17.1067 12.0831C16.6341 11.7666 16.2528 11.3316 16.001 10.8215C16.0084 10.7145 16.0173 10.6069 16.0173 10.4994C16.0173 10.2556 16.1142 10.0217 16.2866 9.8493C16.459 9.67688 16.6928 9.58002 16.9366 9.58002C17.1805 9.58002 17.4143 9.67688 17.5867 9.8493C17.7591 10.0217 17.856 10.2556 17.856 10.4994L17.8554 10.5Z"/>
</mask>
<path d="M15.2475 5.77819C15.0814 5.73637 14.9276 5.65584 14.7986 5.54319C14.6696 5.43054 14.5691 5.28897 14.5053 5.13004C14.3803 4.81487 14.1633 4.54464 13.8826 4.35458C13.6018 4.16451 13.2704 4.06343 12.9313 4.06451C12.3773 4.06403 11.8327 4.20765 11.351 4.48128L11.1505 4.28117L10.2312 3.36182C9.89624 3.02688 9.44197 2.83871 8.96829 2.83871C8.49462 2.83871 8.04034 3.02688 7.7054 3.36182L5.50753 5.55969C5.22632 5.84029 5.04697 6.20685 4.998 6.60108C4.94903 6.99532 5.03324 7.39461 5.23724 7.73549C5.22902 7.73821 5.22063 7.74036 5.21211 7.74193C4.9892 7.74217 4.77548 7.83085 4.61788 7.98851C4.46028 8.14617 4.37168 8.35991 4.37152 8.58283V8.77865C4.18599 8.87643 4.03079 9.02314 3.92274 9.20288C3.8147 9.38261 3.75793 9.58851 3.75861 9.79822C3.75891 10.1058 3.83055 10.409 3.96792 10.6842C4.03178 10.8122 4.06503 10.9533 4.06507 11.0963C4.06645 11.1933 4.0831 11.2895 4.1144 11.3813L3.95505 11.5009C3.798 11.6195 3.67078 11.7731 3.58348 11.9495C3.49619 12.1259 3.45122 12.3202 3.45216 12.5171C3.45132 12.8004 3.5399 13.0767 3.70529 13.3068C3.53876 13.7023 3.45271 14.127 3.45216 14.5562V14.7903C3.45252 15.0758 3.55233 15.3522 3.73443 15.5721C3.91654 15.7919 4.16955 15.9415 4.44997 15.995L4.51126 16.1788C4.58427 16.3995 4.72508 16.5914 4.91362 16.7273C5.10215 16.8631 5.32877 16.936 5.56116 16.9355C5.73904 16.9362 5.91433 16.9781 6.07324 17.0581C6.31758 17.1791 6.5866 17.242 6.85929 17.2419C7.28614 17.2415 7.70708 17.1422 8.08908 16.9517C8.14056 16.9259 8.19382 16.9038 8.24844 16.8855L8.3894 16.8386C8.64404 16.753 8.87541 16.6096 9.06537 16.4196C9.25533 16.2297 9.39874 15.9983 9.48436 15.7437C9.48764 15.7338 9.49397 15.7251 9.50245 15.719C9.51092 15.7129 9.5211 15.7097 9.53155 15.7097C9.6936 15.7093 9.84988 15.6494 9.97069 15.5414C9.91772 15.6942 9.88968 15.8545 9.88765 16.0161C9.88813 16.4223 10.0497 16.8118 10.337 17.0991C10.6242 17.3863 11.0137 17.5479 11.4199 17.5484C13.2886 17.5463 15.0802 16.8031 16.4016 15.4817C17.723 14.1603 18.4663 12.3687 18.4683 10.5C18.4677 10.1428 18.3424 9.7971 18.114 9.52253C17.8856 9.24796 17.5684 9.06181 17.2174 8.99623C17.2321 8.77528 17.2425 8.55372 17.2425 8.33307C17.2431 7.74557 17.047 7.17479 16.6854 6.71173C16.3238 6.24868 15.8176 5.92003 15.2475 5.77819ZM13.9362 5.35773C14.0362 5.60691 14.194 5.82882 14.3964 6.00525C14.5988 6.18168 14.8402 6.30761 15.1007 6.3727C15.5378 6.4819 15.9258 6.73423 16.2029 7.0895C16.4799 7.44476 16.6301 7.88254 16.6296 8.33307C16.6296 8.5574 16.6185 8.78264 16.602 9.00727C16.2625 9.0831 15.9589 9.27222 15.7411 9.54351C15.5234 9.81479 15.4044 10.1521 15.4038 10.5C15.4026 11.5562 14.9824 12.5688 14.2356 13.3157C13.4887 14.0625 12.4761 14.4826 11.4199 14.4839C11.1542 14.4854 10.8935 14.557 10.6642 14.6913C10.4194 14.7566 10.1671 14.7899 9.91369 14.7903C9.58178 14.79 9.26356 14.658 9.02886 14.4233C8.79416 14.1886 8.66216 13.8704 8.66184 13.5385C8.66103 12.4935 8.29471 11.4818 7.62634 10.6787C7.30557 10.2933 7.12982 9.80777 7.12958 9.30636C7.1269 8.74227 7.30753 8.19258 7.64429 7.74003C7.98105 7.28749 8.4557 6.95658 8.99679 6.79714C9.68758 6.58896 10.3162 6.21337 10.8269 5.70372L11.0911 5.43956C11.3322 5.19713 11.619 5.00494 11.9348 4.87412C12.2507 4.74329 12.5894 4.67643 12.9313 4.67741C13.1478 4.67672 13.3594 4.74126 13.5387 4.86261C13.7179 4.98396 13.8564 5.1565 13.9362 5.35773ZM10.841 4.83922C10.7797 4.89285 10.7157 4.94709 10.6571 5.00623L10.393 5.2704C9.95439 5.70829 9.41434 6.03096 8.82089 6.20967C8.31771 6.358 7.85854 6.62738 7.48356 6.99424C7.10858 7.3611 6.82922 7.81426 6.6699 8.31407C6.54229 8.09233 6.49163 7.83458 6.52584 7.58103C6.56004 7.32748 6.67718 7.09237 6.85898 6.91236L9.05686 4.71449C9.2769 4.49453 9.57529 4.37097 9.88642 4.37097C10.1975 4.37097 10.4959 4.49453 10.716 4.71449L10.841 4.83922ZM5.94086 5.99301L8.13873 3.79514C8.35218 3.58063 8.64068 3.4575 8.94324 3.45178C9.24581 3.44606 9.53875 3.5582 9.76016 3.76449C9.33269 3.79603 8.93056 3.97927 8.62629 4.28117L6.42842 6.47904C6.12458 6.782 5.9409 7.18485 5.91144 7.61291C5.70529 7.39143 5.59325 7.09852 5.59897 6.796C5.60468 6.49348 5.72771 6.20501 5.94208 5.99148L5.94086 5.99301ZM4.67123 9.31372C4.7656 9.26688 4.84496 9.19454 4.90032 9.1049C4.95568 9.01525 4.98481 8.9119 4.98442 8.80654V8.58283C4.98442 8.52241 5.0084 8.46447 5.05109 8.42172C5.09378 8.37897 5.1517 8.35491 5.21211 8.35483C5.36693 8.35397 5.51846 8.31004 5.64973 8.22796L6.42689 9.00481L6.52495 9.10288C6.52066 9.1703 6.51668 9.23802 6.51668 9.30636C6.5176 9.59797 6.56477 9.88759 6.65642 10.1644L5.75515 9.62354L5.4395 10.1488L7.30886 11.2698C7.64141 11.7266 7.86958 12.2508 7.97723 12.8054C7.95639 12.8149 7.9334 12.8195 7.91318 12.8296C7.70544 12.9324 7.47108 12.9686 7.24203 12.9333C7.01297 12.8981 6.80035 12.793 6.63313 12.6326C6.44351 12.4446 6.18736 12.339 5.92032 12.3387C5.83468 12.3386 5.75257 12.3046 5.69202 12.244C5.63146 12.1834 5.5974 12.1013 5.59732 12.0157C5.59716 11.8576 5.53428 11.706 5.42248 11.5942C5.31067 11.4824 5.15908 11.4195 5.00097 11.4193C4.91533 11.4193 4.83322 11.3852 4.77266 11.3247C4.71211 11.2641 4.67805 11.182 4.67797 11.0963C4.67767 10.8581 4.6223 10.6232 4.51616 10.4099C4.42104 10.2196 4.37151 10.0097 4.37152 9.79699C4.3715 9.69652 4.39955 9.59803 4.45251 9.51265C4.50546 9.42726 4.58121 9.35836 4.67123 9.31372ZM8.90302 15.55C8.84764 15.7144 8.75497 15.8638 8.63227 15.9864C8.50957 16.1091 8.36016 16.2017 8.19573 16.257L8.05445 16.3039C7.97242 16.3316 7.89236 16.3649 7.81481 16.4035C7.51797 16.5514 7.19093 16.6286 6.85929 16.629C6.68142 16.6283 6.50613 16.5864 6.34721 16.5064C6.10287 16.3854 5.83385 16.3225 5.56116 16.3226C5.45758 16.3228 5.35657 16.2903 5.2725 16.2298C5.18843 16.1693 5.12559 16.0838 5.0929 15.9855L4.96849 15.6134C4.94827 15.5523 4.90933 15.4991 4.85719 15.4614C4.80504 15.4237 4.74234 15.4033 4.67797 15.4032C4.51542 15.4032 4.35952 15.3386 4.24458 15.2237C4.12964 15.1088 4.06507 14.9529 4.06507 14.7903V14.5562C4.0657 14.1532 4.15958 13.7557 4.33934 13.395C4.36806 13.3375 4.37794 13.2724 4.3676 13.2089C4.35726 13.1454 4.32722 13.0868 4.28173 13.0414C4.2117 12.9711 4.15646 12.8875 4.11925 12.7955C4.08204 12.7035 4.06362 12.6049 4.06507 12.5057C4.06516 12.4059 4.08847 12.3075 4.13314 12.2183C4.17782 12.129 4.24264 12.0514 4.32249 11.9915L4.48307 11.8714C4.63115 11.9703 4.80637 12.0208 4.98442 12.0157C4.98466 12.2638 5.08335 12.5018 5.25881 12.6772C5.43427 12.8527 5.67218 12.9514 5.92032 12.9516C6.02463 12.9519 6.12461 12.9933 6.19858 13.0668C6.33854 13.2045 6.50133 13.3168 6.67971 13.3987L5.55197 13.5679L5.6439 14.174L6.48481 14.0481L6.23321 14.6766L6.8026 14.904L7.18719 13.9427L8.07223 13.81C8.09167 13.9436 8.12579 14.0746 8.17397 14.2007L7.76302 15.2953L8.33731 15.5099L8.58676 14.8442C8.74527 15.0046 8.93141 15.1351 9.13623 15.2295C9.02737 15.3098 8.94593 15.4217 8.90302 15.55ZM17.8554 10.5C17.8534 12.2062 17.1748 13.8419 15.9683 15.0484C14.7619 16.2549 13.1261 16.9335 11.4199 16.9355C11.1761 16.9355 10.9422 16.8386 10.7698 16.6662C10.5974 16.4938 10.5005 16.2599 10.5005 16.0161C10.5005 15.7723 10.5974 15.5384 10.7698 15.366C10.9422 15.1936 11.1761 15.0968 11.4199 15.0968C11.4444 15.0968 11.4683 15.0934 11.4928 15.0931C11.5937 15.5238 11.8117 15.9182 12.1226 16.2328L12.5559 15.7995C12.3449 15.5877 12.1902 15.3265 12.1057 15.0398C12.5455 14.9739 12.9733 14.8439 13.3754 14.6539C13.4913 15.0178 13.6921 15.3489 13.9613 15.6199L14.3946 15.1866C14.1657 14.9544 14.0044 14.6642 13.9282 14.3472C14.2924 14.1086 14.621 13.8197 14.9043 13.4891C15.0734 13.74 15.2893 13.956 15.5401 14.1253L15.8803 13.6154C15.6333 13.4493 15.4329 13.2228 15.298 12.9574C15.5416 12.5745 15.7267 12.1575 15.8472 11.72C16.1034 12.0597 16.4141 12.3547 16.7666 12.5931L17.1067 12.0831C16.6341 11.7666 16.2528 11.3316 16.001 10.8215C16.0084 10.7145 16.0173 10.6069 16.0173 10.4994C16.0173 10.2556 16.1142 10.0217 16.2866 9.8493C16.459 9.67688 16.6928 9.58002 16.9366 9.58002C17.1805 9.58002 17.4143 9.67688 17.5867 9.8493C17.7591 10.0217 17.856 10.2556 17.856 10.4994L17.8554 10.5Z" fill="#1C1C1C"/>
<path d="M15.2475 5.77819C15.0814 5.73637 14.9276 5.65584 14.7986 5.54319C14.6696 5.43054 14.5691 5.28897 14.5053 5.13004C14.3803 4.81487 14.1633 4.54464 13.8826 4.35458C13.6018 4.16451 13.2704 4.06343 12.9313 4.06451C12.3773 4.06403 11.8327 4.20765 11.351 4.48128L11.1505 4.28117L10.2312 3.36182C9.89624 3.02688 9.44197 2.83871 8.96829 2.83871C8.49462 2.83871 8.04034 3.02688 7.7054 3.36182L5.50753 5.55969C5.22632 5.84029 5.04697 6.20685 4.998 6.60108C4.94903 6.99532 5.03324 7.39461 5.23724 7.73549C5.22902 7.73821 5.22063 7.74036 5.21211 7.74193C4.9892 7.74217 4.77548 7.83085 4.61788 7.98851C4.46028 8.14617 4.37168 8.35991 4.37152 8.58283V8.77865C4.18599 8.87643 4.03079 9.02314 3.92274 9.20288C3.8147 9.38261 3.75793 9.58851 3.75861 9.79822C3.75891 10.1058 3.83055 10.409 3.96792 10.6842C4.03178 10.8122 4.06503 10.9533 4.06507 11.0963C4.06645 11.1933 4.0831 11.2895 4.1144 11.3813L3.95505 11.5009C3.798 11.6195 3.67078 11.7731 3.58348 11.9495C3.49619 12.1259 3.45122 12.3202 3.45216 12.5171C3.45132 12.8004 3.5399 13.0767 3.70529 13.3068C3.53876 13.7023 3.45271 14.127 3.45216 14.5562V14.7903C3.45252 15.0758 3.55233 15.3522 3.73443 15.5721C3.91654 15.7919 4.16955 15.9415 4.44997 15.995L4.51126 16.1788C4.58427 16.3995 4.72508 16.5914 4.91362 16.7273C5.10215 16.8631 5.32877 16.936 5.56116 16.9355C5.73904 16.9362 5.91433 16.9781 6.07324 17.0581C6.31758 17.1791 6.5866 17.242 6.85929 17.2419C7.28614 17.2415 7.70708 17.1422 8.08908 16.9517C8.14056 16.9259 8.19382 16.9038 8.24844 16.8855L8.3894 16.8386C8.64404 16.753 8.87541 16.6096 9.06537 16.4196C9.25533 16.2297 9.39874 15.9983 9.48436 15.7437C9.48764 15.7338 9.49397 15.7251 9.50245 15.719C9.51092 15.7129 9.5211 15.7097 9.53155 15.7097C9.6936 15.7093 9.84988 15.6494 9.97069 15.5414C9.91772 15.6942 9.88968 15.8545 9.88765 16.0161C9.88813 16.4223 10.0497 16.8118 10.337 17.0991C10.6242 17.3863 11.0137 17.5479 11.4199 17.5484C13.2886 17.5463 15.0802 16.8031 16.4016 15.4817C17.723 14.1603 18.4663 12.3687 18.4683 10.5C18.4677 10.1428 18.3424 9.7971 18.114 9.52253C17.8856 9.24796 17.5684 9.06181 17.2174 8.99623C17.2321 8.77528 17.2425 8.55372 17.2425 8.33307C17.2431 7.74557 17.047 7.17479 16.6854 6.71173C16.3238 6.24868 15.8176 5.92003 15.2475 5.77819ZM13.9362 5.35773C14.0362 5.60691 14.194 5.82882 14.3964 6.00525C14.5988 6.18168 14.8402 6.30761 15.1007 6.3727C15.5378 6.4819 15.9258 6.73423 16.2029 7.0895C16.4799 7.44476 16.6301 7.88254 16.6296 8.33307C16.6296 8.5574 16.6185 8.78264 16.602 9.00727C16.2625 9.0831 15.9589 9.27222 15.7411 9.54351C15.5234 9.81479 15.4044 10.1521 15.4038 10.5C15.4026 11.5562 14.9824 12.5688 14.2356 13.3157C13.4887 14.0625 12.4761 14.4826 11.4199 14.4839C11.1542 14.4854 10.8935 14.557 10.6642 14.6913C10.4194 14.7566 10.1671 14.7899 9.91369 14.7903C9.58178 14.79 9.26356 14.658 9.02886 14.4233C8.79416 14.1886 8.66216 13.8704 8.66184 13.5385C8.66103 12.4935 8.29471 11.4818 7.62634 10.6787C7.30557 10.2933 7.12982 9.80777 7.12958 9.30636C7.1269 8.74227 7.30753 8.19258 7.64429 7.74003C7.98105 7.28749 8.4557 6.95658 8.99679 6.79714C9.68758 6.58896 10.3162 6.21337 10.8269 5.70372L11.0911 5.43956C11.3322 5.19713 11.619 5.00494 11.9348 4.87412C12.2507 4.74329 12.5894 4.67643 12.9313 4.67741C13.1478 4.67672 13.3594 4.74126 13.5387 4.86261C13.7179 4.98396 13.8564 5.1565 13.9362 5.35773ZM10.841 4.83922C10.7797 4.89285 10.7157 4.94709 10.6571 5.00623L10.393 5.2704C9.95439 5.70829 9.41434 6.03096 8.82089 6.20967C8.31771 6.358 7.85854 6.62738 7.48356 6.99424C7.10858 7.3611 6.82922 7.81426 6.6699 8.31407C6.54229 8.09233 6.49163 7.83458 6.52584 7.58103C6.56004 7.32748 6.67718 7.09237 6.85898 6.91236L9.05686 4.71449C9.2769 4.49453 9.57529 4.37097 9.88642 4.37097C10.1975 4.37097 10.4959 4.49453 10.716 4.71449L10.841 4.83922ZM5.94086 5.99301L8.13873 3.79514C8.35218 3.58063 8.64068 3.4575 8.94324 3.45178C9.24581 3.44606 9.53875 3.5582 9.76016 3.76449C9.33269 3.79603 8.93056 3.97927 8.62629 4.28117L6.42842 6.47904C6.12458 6.782 5.9409 7.18485 5.91144 7.61291C5.70529 7.39143 5.59325 7.09852 5.59897 6.796C5.60468 6.49348 5.72771 6.20501 5.94208 5.99148L5.94086 5.99301ZM4.67123 9.31372C4.7656 9.26688 4.84496 9.19454 4.90032 9.1049C4.95568 9.01525 4.98481 8.9119 4.98442 8.80654V8.58283C4.98442 8.52241 5.0084 8.46447 5.05109 8.42172C5.09378 8.37897 5.1517 8.35491 5.21211 8.35483C5.36693 8.35397 5.51846 8.31004 5.64973 8.22796L6.42689 9.00481L6.52495 9.10288C6.52066 9.1703 6.51668 9.23802 6.51668 9.30636C6.5176 9.59797 6.56477 9.88759 6.65642 10.1644L5.75515 9.62354L5.4395 10.1488L7.30886 11.2698C7.64141 11.7266 7.86958 12.2508 7.97723 12.8054C7.95639 12.8149 7.9334 12.8195 7.91318 12.8296C7.70544 12.9324 7.47108 12.9686 7.24203 12.9333C7.01297 12.8981 6.80035 12.793 6.63313 12.6326C6.44351 12.4446 6.18736 12.339 5.92032 12.3387C5.83468 12.3386 5.75257 12.3046 5.69202 12.244C5.63146 12.1834 5.5974 12.1013 5.59732 12.0157C5.59716 11.8576 5.53428 11.706 5.42248 11.5942C5.31067 11.4824 5.15908 11.4195 5.00097 11.4193C4.91533 11.4193 4.83322 11.3852 4.77266 11.3247C4.71211 11.2641 4.67805 11.182 4.67797 11.0963C4.67767 10.8581 4.6223 10.6232 4.51616 10.4099C4.42104 10.2196 4.37151 10.0097 4.37152 9.79699C4.3715 9.69652 4.39955 9.59803 4.45251 9.51265C4.50546 9.42726 4.58121 9.35836 4.67123 9.31372ZM8.90302 15.55C8.84764 15.7144 8.75497 15.8638 8.63227 15.9864C8.50957 16.1091 8.36016 16.2017 8.19573 16.257L8.05445 16.3039C7.97242 16.3316 7.89236 16.3649 7.81481 16.4035C7.51797 16.5514 7.19093 16.6286 6.85929 16.629C6.68142 16.6283 6.50613 16.5864 6.34721 16.5064C6.10287 16.3854 5.83385 16.3225 5.56116 16.3226C5.45758 16.3228 5.35657 16.2903 5.2725 16.2298C5.18843 16.1693 5.12559 16.0838 5.0929 15.9855L4.96849 15.6134C4.94827 15.5523 4.90933 15.4991 4.85719 15.4614C4.80504 15.4237 4.74234 15.4033 4.67797 15.4032C4.51542 15.4032 4.35952 15.3386 4.24458 15.2237C4.12964 15.1088 4.06507 14.9529 4.06507 14.7903V14.5562C4.0657 14.1532 4.15958 13.7557 4.33934 13.395C4.36806 13.3375 4.37794 13.2724 4.3676 13.2089C4.35726 13.1454 4.32722 13.0868 4.28173 13.0414C4.2117 12.9711 4.15646 12.8875 4.11925 12.7955C4.08204 12.7035 4.06362 12.6049 4.06507 12.5057C4.06516 12.4059 4.08847 12.3075 4.13314 12.2183C4.17782 12.129 4.24264 12.0514 4.32249 11.9915L4.48307 11.8714C4.63115 11.9703 4.80637 12.0208 4.98442 12.0157C4.98466 12.2638 5.08335 12.5018 5.25881 12.6772C5.43427 12.8527 5.67218 12.9514 5.92032 12.9516C6.02463 12.9519 6.12461 12.9933 6.19858 13.0668C6.33854 13.2045 6.50133 13.3168 6.67971 13.3987L5.55197 13.5679L5.6439 14.174L6.48481 14.0481L6.23321 14.6766L6.8026 14.904L7.18719 13.9427L8.07223 13.81C8.09167 13.9436 8.12579 14.0746 8.17397 14.2007L7.76302 15.2953L8.33731 15.5099L8.58676 14.8442C8.74527 15.0046 8.93141 15.1351 9.13623 15.2295C9.02737 15.3098 8.94593 15.4217 8.90302 15.55ZM17.8554 10.5C17.8534 12.2062 17.1748 13.8419 15.9683 15.0484C14.7619 16.2549 13.1261 16.9335 11.4199 16.9355C11.1761 16.9355 10.9422 16.8386 10.7698 16.6662C10.5974 16.4938 10.5005 16.2599 10.5005 16.0161C10.5005 15.7723 10.5974 15.5384 10.7698 15.366C10.9422 15.1936 11.1761 15.0968 11.4199 15.0968C11.4444 15.0968 11.4683 15.0934 11.4928 15.0931C11.5937 15.5238 11.8117 15.9182 12.1226 16.2328L12.5559 15.7995C12.3449 15.5877 12.1902 15.3265 12.1057 15.0398C12.5455 14.9739 12.9733 14.8439 13.3754 14.6539C13.4913 15.0178 13.6921 15.3489 13.9613 15.6199L14.3946 15.1866C14.1657 14.9544 14.0044 14.6642 13.9282 14.3472C14.2924 14.1086 14.621 13.8197 14.9043 13.4891C15.0734 13.74 15.2893 13.956 15.5401 14.1253L15.8803 13.6154C15.6333 13.4493 15.4329 13.2228 15.298 12.9574C15.5416 12.5745 15.7267 12.1575 15.8472 11.72C16.1034 12.0597 16.4141 12.3547 16.7666 12.5931L17.1067 12.0831C16.6341 11.7666 16.2528 11.3316 16.001 10.8215C16.0084 10.7145 16.0173 10.6069 16.0173 10.4994C16.0173 10.2556 16.1142 10.0217 16.2866 9.8493C16.459 9.67688 16.6928 9.58002 16.9366 9.58002C17.1805 9.58002 17.4143 9.67688 17.5867 9.8493C17.7591 10.0217 17.856 10.2556 17.856 10.4994L17.8554 10.5Z" stroke="#1C1C1C" stroke-width="0.4" mask="url(#path-3-outside-1_841_52009)"/>
</svg>
