<svg width="18" height="20" viewBox="0 0 18 20" fill="none" xmlns="http://www.w3.org/2000/svg">
<path fill-rule="evenodd" clip-rule="evenodd" d="M8.57143 6.47642H14.1677L16.0266 0.419627C16.0483 0.344915 16.0842 0.275391 16.1323 0.2151C16.1803 0.15481 16.2395 0.104957 16.3065 0.0684446C16.3735 0.0319319 16.4468 0.00948847 16.5223 0.00242049C16.5977 -0.00464749 16.6738 0.0038012 16.7461 0.0272748C16.8184 0.0507484 16.8854 0.088778 16.9432 0.13915C17.0011 0.189522 17.0486 0.251231 17.083 0.320684C17.1175 0.390137 17.1382 0.465947 17.1439 0.543701C17.1496 0.621456 17.1402 0.699602 17.1163 0.773591L15.3663 6.47642H17.4286C17.5801 6.47642 17.7255 6.53837 17.8326 6.64864C17.9398 6.75891 18 6.90846 18 7.06441V15.591C18 16.3231 17.7757 17.4099 17.4857 18.0811L16.808 19.651C16.7631 19.7549 16.6898 19.8432 16.5971 19.9052C16.5044 19.9671 16.3962 20 16.2857 20H6C5.88944 20 5.78125 19.967 5.68854 19.905C5.59584 19.843 5.5226 19.7547 5.47771 19.6507L4.79971 18.0808C4.51143 17.4126 4.28571 16.321 4.28571 15.5913V10.8863C1.91886 10.8863 0 8.91184 0 6.47642C0 4.04101 1.91886 2.06656 4.28571 2.06656C6.65257 2.06656 8.57143 4.04101 8.57143 6.47642ZM7.42857 6.47642C7.42857 4.69043 6.02143 3.24253 4.28571 3.24253C2.55 3.24253 1.14286 4.69043 1.14286 6.47642C1.14286 8.26242 2.55 9.71032 4.28571 9.71032V7.06441C4.28571 6.90846 4.34592 6.75891 4.45308 6.64864C4.56025 6.53837 4.70559 6.47642 4.85714 6.47642H7.42857ZM15.0051 7.65239L13.8517 11.4114C14.6011 11.4222 15.3597 11.3305 16.0983 11.1615C16.354 11.1034 16.6072 11.034 16.8571 10.9533V7.65239H15.0051ZM13.8069 7.65239H5.42857V10.7684C5.57714 10.7266 5.74857 10.6826 5.93943 10.639C7.46 10.2912 9.05914 10.2345 10.5749 10.6599C10.8411 10.7346 11.1014 10.824 11.3549 10.9283C11.5677 11.0159 11.7866 11.0909 12.0114 11.1541C12.2331 11.2161 12.4583 11.2664 12.6857 11.3055L13.8069 7.65239ZM16.8571 12.1801C16.7086 12.2219 16.5371 12.266 16.3463 12.3095C14.8257 12.6573 13.2266 12.714 11.7109 12.2886C11.4461 12.2145 11.1857 12.1249 10.9309 12.0202C10.7164 11.9321 10.4971 11.8567 10.2743 11.7944C8.96371 11.4269 7.542 11.4769 6.18743 11.7868C5.93166 11.845 5.67847 11.9147 5.42857 11.9955V15.591C5.42857 16.1561 5.62 17.0851 5.84429 17.6034L6.37143 18.824H15.9143L16.4414 17.6034C16.6666 17.0824 16.8571 16.1587 16.8571 15.591V12.1801ZM13.0977 13.5316C12.9507 13.4939 12.7951 13.5179 12.6652 13.5982C12.5353 13.6785 12.4418 13.8087 12.4051 13.96L11.7137 16.8126C11.6771 16.9639 11.7004 17.1239 11.7784 17.2576C11.8565 17.3912 11.983 17.4875 12.13 17.5252L14.9023 18.2366C15.0493 18.2743 15.2049 18.2504 15.3348 18.17C15.4647 18.0897 15.5582 17.9596 15.5949 17.8083L16.2863 14.9557C16.3229 14.8044 16.2996 14.6443 16.2216 14.5107C16.1435 14.377 16.017 14.2808 15.87 14.2431L13.0977 13.5316ZM15.0391 15.2418L14.6243 16.9534L12.9609 16.5265L13.3757 14.8149L15.0391 15.2418ZM8.46571 13.0633L6.21429 14.8734C6.15514 14.9209 6.10568 14.98 6.06873 15.0473C6.03178 15.1145 6.00806 15.1885 5.99894 15.2652C5.98981 15.3419 5.99545 15.4196 6.01554 15.494C6.03562 15.5685 6.06976 15.6381 6.116 15.6989L7.87486 18.0156C7.92107 18.0764 7.97849 18.1273 8.04382 18.1653C8.10916 18.2034 8.18114 18.2278 8.25564 18.2372C8.33014 18.2465 8.40571 18.2407 8.47804 18.2201C8.55036 18.1994 8.61802 18.1643 8.67714 18.1167L10.9286 16.3069C10.9877 16.2593 11.0372 16.2003 11.0741 16.133C11.1111 16.0658 11.1348 15.9917 11.1439 15.9151C11.153 15.8384 11.1474 15.7607 11.1273 15.6862C11.1072 15.6118 11.0731 15.5422 11.0269 15.4814L9.268 13.1647C9.22178 13.1039 9.16437 13.053 9.09903 13.0149C9.0337 12.9769 8.96172 12.9525 8.88722 12.9431C8.81272 12.9337 8.73714 12.9395 8.66482 12.9602C8.5925 12.9809 8.52484 13.0157 8.46571 13.0633ZM9.77457 15.7421L8.42371 16.8281L7.36829 15.4381L8.71914 14.3521L9.77457 15.7421Z" fill="#1C1C1C"/>
</svg>
