<svg width="19" height="19" viewBox="0 0 19 19" fill="none" xmlns="http://www.w3.org/2000/svg">
<path d="M18.0956 4.68171L14.2956 0.88778C13.7222 0.322902 12.9503 0.00428604 12.1448 0H6.82478C6.01918 0.0114085 5.25107 0.341635 4.68919 0.918131L0.889199 4.71206C0.606983 4.99414 0.383197 5.32897 0.230625 5.69742C0.0780541 6.06587 -0.000313076 6.46073 9.39963e-07 6.85942V12.1709C-0.000313076 12.5696 0.0780541 12.9645 0.230625 13.3329C0.383197 13.7014 0.606983 14.0362 0.889199 14.3183L4.68919 18.1122C5.26257 18.6771 6.03447 18.9957 6.83998 19H12.16C12.9655 18.9957 13.7374 18.6771 14.3108 18.1122L18.1108 14.3183C18.393 14.0362 18.6168 13.7014 18.7693 13.3329C18.9219 12.9645 19.0003 12.5696 18.9999 12.1709V6.85942C19.0023 6.45456 18.9235 6.05331 18.7682 5.67932C18.6129 5.30532 18.3842 4.96613 18.0956 4.68171ZM17.4648 12.1558C17.4669 12.3586 17.4284 12.5597 17.3514 12.7474C17.2743 12.9351 17.1604 13.1054 17.0164 13.2484L13.2164 17.0423C12.9326 17.3273 12.5472 17.4883 12.1448 17.49H6.82478C6.42231 17.4883 6.03693 17.3273 5.75318 17.0423L1.9532 13.2484C1.66775 12.9651 1.50649 12.5803 1.5048 12.1785V6.86701C1.50649 6.46518 1.66775 6.08042 1.9532 5.79712L5.75318 2.00319C6.03693 1.7182 6.42231 1.55721 6.82478 1.55551H12.1448C12.3524 1.54821 12.5594 1.5835 12.7528 1.6592C12.9463 1.73489 13.1222 1.84939 13.2696 1.99561L17.0696 5.78954C17.355 6.07283 17.5163 6.45759 17.518 6.85942L17.4648 12.1558ZM10.6932 5.91094H8.10158C7.90001 5.91094 7.70671 5.99089 7.56418 6.13319C7.42165 6.27549 7.34158 6.46849 7.34158 6.66973V13.3395C7.34158 13.5407 7.42165 13.7337 7.56418 13.876C7.70671 14.0183 7.90001 14.0982 8.10158 14.0982C8.30314 14.0982 8.49645 14.0183 8.63898 13.876C8.7815 13.7337 8.86158 13.5407 8.86158 13.3395V10.7672H10.6932C11.0104 10.7688 11.3247 10.7065 11.6173 10.584C11.9098 10.4614 12.1745 10.2811 12.3956 10.0539C12.6262 9.83041 12.8091 9.56254 12.9332 9.2665C13.0573 8.97046 13.12 8.65238 13.1176 8.33147C13.1176 7.68951 12.8621 7.07383 12.4075 6.6199C11.9528 6.16596 11.3362 5.91094 10.6932 5.91094ZM11.324 8.98403C11.1572 9.15235 10.9303 9.24784 10.6932 9.2496H8.86158V7.42851H10.6932C10.8119 7.42851 10.9295 7.45187 11.0393 7.49725C11.149 7.54263 11.2487 7.60914 11.3327 7.69298C11.4167 7.77683 11.4833 7.87637 11.5287 7.98592C11.5742 8.09548 11.5976 8.21289 11.5976 8.33147C11.5965 8.57657 11.4981 8.81125 11.324 8.98403Z" fill="#1C1C1C"/>
</svg>
