<svg width="21" height="22" viewBox="0 0 21 22" fill="none" xmlns="http://www.w3.org/2000/svg">
<path fill-rule="evenodd" clip-rule="evenodd" d="M16.5 16.75C16.5 16.0207 16.2103 15.3212 15.6945 14.8055C15.1788 14.2897 14.4793 14 13.75 14H11.75C11.5511 14 11.3603 14.079 11.2197 14.2197C11.079 14.3603 11 14.5511 11 14.75V15.75C11 16.4793 11.2897 17.1788 11.8055 17.6945C12.3212 18.2103 13.0207 18.5 13.75 18.5H15.75C15.9489 18.5 16.1397 18.421 16.2803 18.2803C16.421 18.1397 16.5 17.9489 16.5 17.75V16.75ZM13.75 15.5C14.44 15.5 15 16.06 15 16.75V17H13.75C13.06 17 12.5 16.44 12.5 15.75V15.5H13.75Z" fill="#1C1C1C"/>
<path fill-rule="evenodd" clip-rule="evenodd" d="M15.75 16C15.9489 16 16.1397 16.079 16.2803 16.2197C16.421 16.3603 16.5 16.5511 16.5 16.75V20.75C16.5 20.9489 16.421 21.1397 16.2803 21.2803C16.1397 21.421 15.9489 21.5 15.75 21.5C15.5511 21.5 15.3603 21.421 15.2197 21.2803C15.079 21.1397 15 20.9489 15 20.75V16.75C15 16.5511 15.079 16.3603 15.2197 16.2197C15.3603 16.079 15.5511 16 15.75 16Z" fill="#1C1C1C"/>
<path fill-rule="evenodd" clip-rule="evenodd" d="M15 16.75C15 16.0207 15.2897 15.3212 15.8055 14.8055C16.3212 14.2897 17.0207 14 17.75 14H19.75C19.9489 14 20.1397 14.079 20.2803 14.2197C20.421 14.3603 20.5 14.5511 20.5 14.75V15.75C20.5 16.4793 20.2103 17.1788 19.6945 17.6945C19.1788 18.2103 18.4793 18.5 17.75 18.5H15.75C15.5511 18.5 15.3603 18.421 15.2197 18.2803C15.079 18.1397 15 17.9489 15 17.75V16.75ZM17.75 15.5C17.06 15.5 16.5 16.06 16.5 16.75V17H17.75C18.44 17 19 16.44 19 15.75V15.5H17.75ZM6.25 4C5.65326 4 5.08097 4.23705 4.65901 4.65901C4.23705 5.08097 4 5.65326 4 6.25C4 6.84674 4.23705 7.41903 4.65901 7.84099C5.08097 8.26295 5.65326 8.5 6.25 8.5C6.84674 8.5 7.41903 8.26295 7.84099 7.84099C8.26295 7.41903 8.5 6.84674 8.5 6.25C8.5 5.65326 8.26295 5.08097 7.84099 4.65901C7.41903 4.23705 6.84674 4 6.25 4ZM2.5 6.25C2.5 5.25544 2.89509 4.30161 3.59835 3.59835C4.30161 2.89509 5.25544 2.5 6.25 2.5C7.24456 2.5 8.19839 2.89509 8.90165 3.59835C9.60491 4.30161 10 5.25544 10 6.25C10 7.24456 9.60491 8.19839 8.90165 8.90165C8.19839 9.60491 7.24456 10 6.25 10C5.25544 10 4.30161 9.60491 3.59835 8.90165C2.89509 8.19839 2.5 7.24456 2.5 6.25Z" fill="#1C1C1C"/>
<path fill-rule="evenodd" clip-rule="evenodd" d="M6.25 8.5C6.44891 8.5 6.63968 8.57902 6.78033 8.71967C6.92098 8.86032 7 9.05109 7 9.25V10.75C7 10.9489 6.92098 11.1397 6.78033 11.2803C6.63968 11.421 6.44891 11.5 6.25 11.5C6.05109 11.5 5.86032 11.421 5.71967 11.2803C5.57902 11.1397 5.5 10.9489 5.5 10.75V9.25C5.5 9.05109 5.57902 8.86032 5.71967 8.71967C5.86032 8.57902 6.05109 8.5 6.25 8.5ZM6.25 13.5C6.44891 13.5 6.63968 13.579 6.78033 13.7197C6.92098 13.8603 7 14.0511 7 14.25V15.25C7 15.4489 6.92098 15.6397 6.78033 15.7803C6.63968 15.921 6.44891 16 6.25 16C6.05109 16 5.86032 15.921 5.71967 15.7803C5.57902 15.6397 5.5 15.4489 5.5 15.25V14.25C5.5 14.0511 5.57902 13.8603 5.71967 13.7197C5.86032 13.579 6.05109 13.5 6.25 13.5ZM6.25 0C6.44891 0 6.63968 0.0790177 6.78033 0.21967C6.92098 0.360322 7 0.551088 7 0.75V3.25C7 3.44891 6.92098 3.63968 6.78033 3.78033C6.63968 3.92098 6.44891 4 6.25 4C6.05109 4 5.86032 3.92098 5.71967 3.78033C5.57902 3.63968 5.5 3.44891 5.5 3.25V0.75C5.5 0.551088 5.57902 0.360322 5.71967 0.21967C5.86032 0.0790177 6.05109 0 6.25 0ZM0 6.25C0 6.05109 0.0790177 5.86032 0.21967 5.71967C0.360322 5.57902 0.551088 5.5 0.75 5.5H3.25C3.44891 5.5 3.63968 5.57902 3.78033 5.71967C3.92098 5.86032 4 6.05109 4 6.25C4 6.44891 3.92098 6.63968 3.78033 6.78033C3.63968 6.92098 3.44891 7 3.25 7H0.75C0.551088 7 0.360322 6.92098 0.21967 6.78033C0.0790177 6.63968 0 6.44891 0 6.25ZM11.28 1.22C11.4205 1.36063 11.4993 1.55125 11.4993 1.75C11.4993 1.94875 11.4205 2.13937 11.28 2.28L9.28 4.28C9.21134 4.35369 9.12854 4.41279 9.03654 4.45378C8.94454 4.49477 8.84523 4.51681 8.74452 4.51859C8.64382 4.52037 8.54379 4.50184 8.4504 4.46412C8.35701 4.4264 8.27218 4.37026 8.20096 4.29904C8.12974 4.22782 8.0736 4.14299 8.03588 4.0496C7.99816 3.95621 7.97963 3.85618 7.98141 3.75548C7.98318 3.65477 8.00523 3.55546 8.04622 3.46346C8.08721 3.37146 8.14631 3.28866 8.22 3.22L10.22 1.22C10.3606 1.07955 10.5512 1.00066 10.75 1.00066C10.9488 1.00066 11.1394 1.07955 11.28 1.22ZM1.22 1.22C1.36063 1.07955 1.55125 1.00066 1.75 1.00066C1.94875 1.00066 2.13937 1.07955 2.28 1.22L4.28 3.22C4.41248 3.36217 4.4846 3.55022 4.48117 3.74452C4.47775 3.93882 4.39903 4.12421 4.26162 4.26162C4.12421 4.39903 3.93882 4.47775 3.74452 4.48117C3.55022 4.4846 3.36217 4.41248 3.22 4.28L1.22 2.28C1.07955 2.13937 1.00066 1.94875 1.00066 1.75C1.00066 1.55125 1.07955 1.36063 1.22 1.22ZM8.5 6.25C8.5 6.05109 8.57902 5.86032 8.71967 5.71967C8.86032 5.57902 9.05109 5.5 9.25 5.5H15.25C15.4489 5.5 15.6397 5.57902 15.7803 5.71967C15.921 5.86032 16 6.05109 16 6.25C16 6.44891 15.921 6.63968 15.7803 6.78033C15.6397 6.92098 15.4489 7 15.25 7H9.25C9.05109 7 8.86032 6.92098 8.71967 6.78033C8.57902 6.63968 8.5 6.44891 8.5 6.25ZM8.22 8.22C8.36063 8.07955 8.55125 8.00066 8.75 8.00066C8.94875 8.00066 9.13937 8.07955 9.28 8.22L13.28 12.22C13.3537 12.2887 13.4128 12.3715 13.4538 12.4635C13.4948 12.5555 13.5168 12.6548 13.5186 12.7555C13.5204 12.8562 13.5018 12.9562 13.4641 13.0496C13.4264 13.143 13.3703 13.2278 13.299 13.299C13.2278 13.3703 13.143 13.4264 13.0496 13.4641C12.9562 13.5018 12.8562 13.5204 12.7555 13.5186C12.6548 13.5168 12.5555 13.4948 12.4635 13.4538C12.3715 13.4128 12.2887 13.3537 12.22 13.28L8.22 9.28C8.07955 9.13937 8.00066 8.94875 8.00066 8.75C8.00066 8.55125 8.07955 8.36063 8.22 8.22ZM4.28 8.22C4.42045 8.36063 4.49934 8.55125 4.49934 8.75C4.49934 8.94875 4.42045 9.13937 4.28 9.28L2.28 11.28C2.13783 11.4125 1.94978 11.4846 1.75548 11.4812C1.56118 11.4777 1.37579 11.399 1.23838 11.2616C1.10097 11.1242 1.02225 10.9388 1.01883 10.7445C1.0154 10.5502 1.08752 10.3622 1.22 10.22L3.22 8.22C3.36063 8.07955 3.55125 8.00066 3.75 8.00066C3.94875 8.00066 4.13937 8.07955 4.28 8.22Z" fill="#1C1C1C"/>
</svg>
