<svg width="18" height="20" viewBox="0 0 18 20" fill="none" xmlns="http://www.w3.org/2000/svg">
<path d="M16.8218 2.77385V0.996854C16.8218 0.845452 16.7825 0.696563 16.7077 0.564316C16.6328 0.432069 16.5249 0.320851 16.3941 0.241218C16.2633 0.161584 16.1141 0.116176 15.9605 0.109303C15.8069 0.102429 15.654 0.134319 15.5165 0.201945L13.8141 1.04542L11.9421 0.124942C11.7751 0.0427751 11.591 0 11.4043 0C11.2176 0 11.0335 0.0427751 10.8665 0.124942L9.00176 1.04424L7.13697 0.127311C6.96904 0.0439882 6.78362 0.000585792 6.59558 0.000585792C6.40754 0.000585792 6.22212 0.0439882 6.05419 0.127311L4.18941 1.04424L2.49305 0.214976C2.35585 0.145892 2.20295 0.11261 2.04896 0.118308C1.89497 0.124006 1.74503 0.168495 1.61349 0.247524C1.48194 0.326552 1.37316 0.437479 1.29757 0.569705C1.22197 0.701931 1.18207 0.851038 1.18169 1.00278V2.77385C-0.393896 7.46657 -0.393896 12.534 1.18169 17.2267V19.0037C1.18169 19.1551 1.22099 19.304 1.29585 19.4363C1.3707 19.5685 1.47864 19.6797 1.60941 19.7594C1.74018 19.839 1.88944 19.8844 2.04304 19.8913C2.19664 19.8982 2.34947 19.8663 2.48704 19.7986L4.18941 18.9563L6.05299 19.8733C6.22091 19.9566 6.40634 20 6.59438 20C6.78242 20 6.96784 19.9566 7.13577 19.8733L9.00176 18.9563L10.8689 19.8756C11.0362 19.9569 11.2202 19.9992 11.4067 19.9992C11.5932 19.9992 11.7773 19.9569 11.9445 19.8756L13.8165 18.9552L15.5225 19.7939C15.6595 19.86 15.8112 19.8908 15.9636 19.8835C16.1159 19.8762 16.2639 19.8309 16.3937 19.752C16.5234 19.6731 16.6308 19.563 16.7057 19.4322C16.7805 19.3013 16.8205 19.1539 16.8218 19.0037V17.2267C18.3927 12.5333 18.3927 7.46731 16.8218 2.77385ZM2.41606 16.3145C2.39718 16.185 2.38673 16.0544 2.38478 15.9236C2.38331 15.4559 2.4951 14.9945 2.71086 14.5779C2.92663 14.1612 3.24016 13.8011 3.62546 13.5276C4.01076 13.254 4.45672 13.0749 4.92639 13.0049C5.39605 12.935 5.87588 12.9763 6.32609 13.1254C6.0315 13.81 5.93049 14.5604 6.03374 15.2969L2.41606 16.3145ZM7.22841 14.9605C7.18704 14.4982 7.25808 14.0328 7.43564 13.6029C7.61321 13.173 7.89219 12.7909 8.24951 12.4883C8.60683 12.1857 9.0322 11.9712 9.49042 11.8626C9.94865 11.754 10.4266 11.7544 10.8846 11.8638C10.9926 12.5339 11.2684 13.167 11.687 13.7059L7.22841 14.9605ZM12.9828 13.3422C12.6775 13.0687 12.4334 12.7357 12.2658 12.3643C12.0982 11.993 12.011 11.5913 12.0095 11.185C12.0068 10.6384 12.1586 10.1018 12.4478 9.63528C12.737 9.16873 13.1522 8.79056 13.6471 8.54303C14.1421 8.29549 14.6971 8.18834 15.2503 8.23355C15.8035 8.27877 16.333 8.47455 16.7797 8.79904C16.8399 9.96508 16.8138 11.1339 16.7015 12.2962L12.9828 13.3422ZM2.38478 2.89231V1.48257L3.64681 2.10451C3.81474 2.18784 4.00016 2.23124 4.1882 2.23124C4.37624 2.23124 4.56167 2.18784 4.72959 2.10451L6.59558 1.1864L8.45916 2.10333C8.62709 2.18665 8.81251 2.23005 9.00055 2.23005C9.18859 2.23005 9.37402 2.18665 9.54194 2.10333L11.4091 1.18403L13.2811 2.10451C13.4479 2.18749 13.6321 2.23073 13.8189 2.23073C14.0057 2.23073 14.19 2.18749 14.3567 2.10451L15.6187 1.48138V2.4457L1.4572 6.42972C1.669 5.22788 1.9792 4.04489 2.38478 2.89231ZM1.302 7.70442L15.8293 3.61733C16.2481 4.83783 16.5269 6.10063 16.6606 7.38219C16.0657 7.12588 15.4182 7.0102 14.7698 7.04439C14.1214 7.07859 13.4902 7.26171 12.9265 7.57912C12.3628 7.89652 11.8824 8.3394 11.5237 8.87234C11.165 9.40527 10.9378 10.0135 10.8605 10.6483C10.1442 10.5347 9.41012 10.6079 8.73146 10.8607C8.05281 11.1134 7.45328 11.5369 6.9926 12.0889C5.98941 11.6825 4.86546 11.6743 3.85623 12.0658C2.847 12.4574 2.03083 13.2183 1.57871 14.1893C1.17919 12.051 1.08605 9.86814 1.302 7.70442ZM15.6608 16.8867C15.6332 16.9574 15.619 17.0325 15.6187 17.1083V18.5192L14.3483 17.8949C14.1813 17.8127 13.9972 17.7699 13.8105 17.7699C13.6238 17.7699 13.4397 17.8127 13.2727 17.8949L11.4007 18.8154L9.53593 17.8973C9.368 17.8139 9.18258 17.7705 8.99454 17.7705C8.8065 17.7705 8.62107 17.8139 8.45315 17.8973L6.59558 18.8142L4.7308 17.8973C4.56287 17.8139 4.37745 17.7705 4.18941 17.7705C4.00137 17.7705 3.81594 17.8139 3.64802 17.8973L2.38478 18.518V17.5549L16.5463 13.5709C16.3776 14.7051 16.0798 15.8172 15.6608 16.8867ZM2.8215 8.96608L10.04 6.93438C10.1924 6.89412 10.3547 6.91437 10.492 6.99079C10.6293 7.06721 10.7306 7.19368 10.7742 7.34295C10.8177 7.49223 10.7999 7.65237 10.7247 7.78889C10.6495 7.92541 10.5229 8.02738 10.3721 8.07285L3.15355 10.1045C3.07664 10.1292 2.99547 10.1384 2.91488 10.1315C2.83429 10.1246 2.75595 10.1017 2.68453 10.0643C2.61312 10.0269 2.5501 9.97571 2.49924 9.91376C2.44839 9.85182 2.41075 9.78041 2.38857 9.70381C2.36639 9.62721 2.36013 9.54699 2.37016 9.46795C2.38019 9.38891 2.4063 9.31267 2.44694 9.2438C2.48759 9.17493 2.54192 9.11484 2.60669 9.06712C2.67146 9.0194 2.74533 8.98504 2.8239 8.96608H2.8215Z" fill="#1C1C1C"/>
</svg>
