<svg width="21" height="16" viewBox="0 0 21 16" fill="none" xmlns="http://www.w3.org/2000/svg">
<path d="M19.8 9.19978C20.1 9.49978 20.1 9.99978 19.8 10.2998C19.7 10.3998 19.5 10.4998 19.3 10.4998C19.1 10.4998 18.9 10.3998 18.8 10.2998L17.6 9.09978L16.4 10.2998C16.3 10.3998 16.1 10.4998 15.9 10.4998C15.7 10.4998 15.5 10.3998 15.4 10.2998C15.1 9.99978 15.1 9.49978 15.4 9.19978L16.6 7.99978L15.4 6.79978C15.1 6.49978 15.1 5.99978 15.4 5.69978C15.7 5.39978 16.2 5.39978 16.5 5.69978L17.7 6.89978L18.9 5.69978C19.2 5.39978 19.7 5.39978 20 5.69978C20.3 5.99978 20.3 6.49978 20 6.79978L18.6 7.99978L19.8 9.19978ZM12 4.89978V1.79978C12 1.19978 11.7 0.599781 11.1 0.299781C10.5 -0.000218585 9.8 -0.000218689 9.3 0.399781L4.3 3.59978C4.1 3.69978 3.9 3.69978 3.7 3.69978H2.7C1.2 3.69978 0 4.99978 0 6.49978V9.49978C0 10.9998 1.2 12.1998 2.7 12.1998H3.6C3.8 12.1998 4.1 12.2998 4.3 12.3998L9.3 15.5998C9.6 15.7998 9.9 15.8998 10.3 15.8998C10.6 15.8998 10.9 15.7998 11.1 15.6998C11.7 15.3998 12 14.7998 12 14.1998V11.0998C12.9 10.3998 13.5 9.19978 13.5 7.99978C13.5 6.79978 12.9 5.59978 12 4.89978ZM10.5 14.1998C10.5 14.2998 10.4 14.3998 10.4 14.3998C10.3 14.3998 10.2 14.4998 10.1 14.3998L5.1 11.0998C4.6 10.7998 4.1 10.5998 3.6 10.5998H2.7C2 10.5998 1.4 9.99978 1.4 9.29978V6.29978C1.4 5.59978 2 4.99978 2.7 4.99978H3.6C4.1 4.99978 4.7 4.79978 5.1 4.49978L10.1 1.29978C10.2 1.19978 10.3 1.29978 10.4 1.29978C10.5 1.29978 10.5 1.39978 10.5 1.49978V14.1998Z" fill="#1C1C1C"/>
</svg>
