<svg width="20" height="22" viewBox="0 0 20 22" fill="none" xmlns="http://www.w3.org/2000/svg">
<path d="M9.23165 0.922408C9.63145 0.442444 10.3685 0.442443 10.7684 0.922408L13.5154 4.22028C13.6675 4.40283 13.8796 4.52527 14.1137 4.56568L18.3433 5.29579C18.9588 5.40205 19.3274 6.04039 19.1116 6.62662L17.6291 10.6546C17.5471 10.8776 17.5471 11.1224 17.6291 11.3454L19.1116 15.3734C19.3274 15.9596 18.9588 16.598 18.3433 16.7042L14.1137 17.4343C13.8796 17.4747 13.6675 17.5972 13.5154 17.7797L10.7684 21.0776C10.3686 21.5576 9.63145 21.5576 9.23165 21.0776L6.48456 17.7797C6.33251 17.5972 6.12043 17.4747 5.88631 17.4343L1.65673 16.7042C1.04116 16.598 0.672613 15.9596 0.888373 15.3734L2.37088 11.3454C2.45293 11.1224 2.45293 10.8776 2.37088 10.6546L0.888373 6.62662C0.672614 6.0404 1.04116 5.40205 1.65673 5.29579L5.88631 4.56568C6.12043 4.52527 6.33251 4.40283 6.48456 4.22028L9.23165 0.922408Z" fill="#D9D9D9"/>
</svg>
