<svg width="19" height="19" viewBox="0 0 19 19" fill="none" xmlns="http://www.w3.org/2000/svg">
<path d="M9.5 0C4.26143 0 0 4.26143 0 9.5C0 14.7386 4.26143 19 9.5 19C14.7386 19 19 14.7386 19 9.5C19 4.26143 14.7386 0 9.5 0ZM9.5 1.35714C14.0057 1.35714 17.6429 4.99429 17.6429 9.5C17.6429 14.0057 14.0057 17.6429 9.5 17.6429C4.99429 17.6429 1.35714 14.0057 1.35714 9.5C1.35714 4.99429 4.99429 1.35714 9.5 1.35714Z" fill="#1C1C1C"/>
<path d="M10.8569 9.49997C10.8569 9.8599 10.7139 10.2051 10.4594 10.4596C10.2049 10.7141 9.85966 10.8571 9.49972 10.8571C9.13978 10.8571 8.79459 10.7141 8.54008 10.4596C8.28556 10.2051 8.14258 9.8599 8.14258 9.49997C8.14258 9.14003 8.28556 8.79483 8.54008 8.54032C8.79459 8.28581 9.13978 8.14282 9.49972 8.14282C9.85966 8.14282 10.2049 8.28581 10.4594 8.54032C10.7139 8.79483 10.8569 9.14003 10.8569 9.49997ZM6.10686 9.49997C6.10686 9.8599 5.96388 10.2051 5.70937 10.4596C5.45485 10.7141 5.10966 10.8571 4.74972 10.8571C4.38978 10.8571 4.04459 10.7141 3.79008 10.4596C3.53556 10.2051 3.39258 9.8599 3.39258 9.49997C3.39258 9.14003 3.53556 8.79483 3.79008 8.54032C4.04459 8.28581 4.38978 8.14282 4.74972 8.14282C5.10966 8.14282 5.45485 8.28581 5.70937 8.54032C5.96388 8.79483 6.10686 9.14003 6.10686 9.49997ZM15.6069 9.49997C15.6069 9.8599 15.4639 10.2051 15.2094 10.4596C14.9549 10.7141 14.6097 10.8571 14.2497 10.8571C13.8898 10.8571 13.5446 10.7141 13.2901 10.4596C13.0356 10.2051 12.8926 9.8599 12.8926 9.49997C12.8926 9.14003 13.0356 8.79483 13.2901 8.54032C13.5446 8.28581 13.8898 8.14282 14.2497 8.14282C14.6097 8.14282 14.9549 8.28581 15.2094 8.54032C15.4639 8.79483 15.6069 9.14003 15.6069 9.49997Z" fill="#1C1C1C"/>
</svg>
