<svg width="18" height="19" viewBox="0 0 18 19" fill="none" xmlns="http://www.w3.org/2000/svg">
<path d="M8.90268 11.6405C9.30422 11.6741 9.38172 11.8334 9.59208 12.0855C10.5369 13.2138 11.0801 14.6958 11.0166 16.1632C10.9672 17.3061 9.72937 18.0983 8.54396 18.4775C6.11112 19.2558 3.22435 19.2573 1.10521 17.8447C0.443861 17.4048 -0.0388678 16.7215 0.00246675 15.7978C0.0659448 14.4057 0.584841 13.0348 1.51265 11.9781C1.87655 11.5645 2.77114 11.6076 2.85824 12.2952C2.89736 12.5978 2.70988 12.8024 2.4353 13.1605C1.81381 13.9716 1.48387 14.9918 1.46615 16.0046C1.46025 16.3817 1.84185 16.6134 2.19984 16.799C3.49671 17.4713 5.06226 17.5648 6.56359 17.404C7.57333 17.2959 8.68051 17.1256 9.37582 16.4044C9.57215 16.2005 9.55222 15.8913 9.52639 15.6188C9.43339 14.6183 9.0289 13.6457 8.35869 12.8952L8.28857 12.8155C8.18745 12.6789 8.1749 12.6299 8.15202 12.5378C8.05828 12.152 8.34245 11.7157 8.74546 11.6492C8.84511 11.6331 8.8702 11.6397 8.90268 11.6405ZM15.8831 7.27556C16.1466 7.29602 16.354 7.4619 16.5503 7.69356C17.5069 8.82333 18.0391 10.3375 17.9978 11.7742C17.9963 11.8217 17.9926 11.8692 17.9874 11.9167C17.8656 12.9705 16.7622 13.683 15.7022 14.0527C14.6984 14.4035 13.6237 14.5431 12.5534 14.5489C12.0559 14.5518 11.6285 14.0527 11.7939 13.5828C11.9076 13.2577 12.2604 13.0983 12.6309 13.0932C13.8318 13.075 15.0911 12.9251 16.0691 12.2733C16.3171 12.1081 16.5319 11.894 16.5282 11.6368C16.5045 10.5005 16.0956 9.37726 15.3391 8.53102L15.2756 8.45941C15.0704 8.19341 15.1066 8.10206 15.1132 7.96687C15.1317 7.58906 15.4786 7.26752 15.8831 7.27556ZM5.53096 4.3649C7.21682 4.38097 8.8082 5.67298 9.11969 7.33694C9.54337 9.60306 7.38216 12.046 4.83492 11.5783C3.34466 11.305 2.09281 10.024 1.87212 8.53248C1.57466 6.52286 3.23025 4.41386 5.43648 4.36563C5.46748 4.3649 5.49922 4.3649 5.53096 4.3649ZM5.49258 5.81986C4.25254 5.83155 3.15275 7.04025 3.32252 8.29425C3.46128 9.32172 4.43412 10.1782 5.49258 10.1848C6.77912 10.1928 7.92468 8.89422 7.67224 7.58833C7.48476 6.62079 6.58278 5.84252 5.55015 5.81986C5.53096 5.81986 5.51177 5.81986 5.49258 5.81986ZM12.5113 0C14.2171 0.016077 15.8033 1.32781 16.1038 2.9947C16.5141 5.26301 14.3345 7.6921 11.7931 7.20979C10.3058 6.92698 9.06064 5.63863 8.84954 4.14493C8.56315 2.12143 10.2527 0.0211924 12.4641 0C12.4796 0 12.4951 0 12.5113 0ZM12.473 1.45497C11.2337 1.46666 10.1331 2.67243 10.3029 3.92936C10.4417 4.95682 11.4145 5.81328 12.473 5.81986C13.5211 5.82644 14.5138 4.99921 14.6681 3.95639C14.8467 2.74989 13.8569 1.4842 12.5305 1.45497C12.5113 1.45497 12.4921 1.45497 12.473 1.45497Z" fill="#1C1C1C"/>
</svg>
