<svg width="20" height="18" viewBox="0 0 20 18" fill="none" xmlns="http://www.w3.org/2000/svg">
<path d="M19.7924 0.3375C19.4924 0.0375 19.0924 -0.0625 18.7924 0.0375L0.792374 4.0375C-0.007626 4.2375 -0.307626 5.3375 0.392374 5.8375L5.99237 9.8375V16.9375C5.99237 17.8375 7.09237 18.2375 7.69237 17.6375L11.4924 13.8375L12.7924 14.8375C13.2924 15.2375 14.0924 15.0375 14.2924 14.4375L19.7924 1.4375C20.0924 1.0375 19.9924 0.6375 19.7924 0.3375ZM14.4924 2.9375L7.19237 8.2375L3.39237 5.4375L14.4924 2.9375ZM9.89237 12.6375L7.99237 14.5375V11.2375C8.59237 11.6375 9.39237 12.2375 9.89237 12.6375ZM12.9924 12.4375C9.29237 9.7375 9.89237 10.2375 8.89237 9.4375L16.5924 3.8375L12.9924 12.4375Z" fill="#738801"/>
</svg>
