<svg width="7" height="12" viewBox="0 0 7 12" fill="none" xmlns="http://www.w3.org/2000/svg">
<path d="M0.292943 6.66129L5.44326 11.7339C5.52786 11.8181 5.6285 11.8849 5.73938 11.9305C5.85027 11.976 5.9692 11.9995 6.08933 11.9995C6.20945 11.9995 6.32839 11.976 6.43927 11.9305C6.55016 11.8849 6.6508 11.8181 6.73539 11.7339C6.90487 11.5657 7 11.3382 7 11.101C7 10.8638 6.90487 10.6362 6.73539 10.468L2.23114 5.97895L6.73539 1.53477C6.90487 1.36656 7 1.139 7 0.901814C7 0.664624 6.90487 0.437072 6.73539 0.268855C6.65112 0.184022 6.55062 0.116533 6.43972 0.0702991C6.32882 0.024064 6.20972 4.69928e-06 6.08933 -0.000488361C5.96894 4.67823e-06 5.84984 0.024064 5.73894 0.070299C5.62804 0.116533 5.52754 0.184022 5.44326 0.268855L0.292944 5.3415C0.200579 5.42558 0.126865 5.52761 0.0764476 5.64119C0.0260297 5.75476 5.35211e-07 5.87741 5.24372e-07 6.0014C5.13532e-07 6.12539 0.0260296 6.24803 0.0764475 6.36161C0.126865 6.47518 0.200579 6.57722 0.292943 6.66129Z" fill="#BABABA"/>
</svg>
