<svg width="23" height="18" viewBox="0 0 23 18" fill="none" xmlns="http://www.w3.org/2000/svg">
<path d="M8.58904 16.9268C8.62895 16.985 8.6745 17.0389 8.72501 17.0877C9.2859 17.6637 10.0445 17.9912 10.8381 18L8.58904 16.9268ZM8.58904 16.9268L7.3247 15.1L8.58904 16.9268ZM10.8385 17.95C10.0584 17.9413 9.31254 17.6194 8.76083 17.0528L8.75974 17.0517C8.71167 17.0053 8.66829 16.954 8.63027 16.8986L8.63015 16.8984L7.36585 15.0716C7.26004 14.9183 7.11987 14.7932 6.95702 14.7068C6.79416 14.6204 6.6134 14.5753 6.42991 14.5753H4.27406C3.41526 14.5753 2.59137 14.2253 1.98371 13.6019C1.376 12.9785 1.03438 12.1327 1.03438 11.2505V6.75084C1.03438 5.86866 1.376 5.02285 1.98371 4.39944C2.59137 3.77606 3.41526 3.42609 4.27406 3.42609H6.4299C6.6134 3.42609 6.79416 3.38095 6.95702 3.29455C7.11987 3.20815 7.26003 3.08304 7.36584 2.9298C7.36584 2.92979 7.36584 2.92979 7.36585 2.92979L8.63018 1.09956L8.63027 1.09942C8.66829 1.04398 8.71167 0.992666 8.75974 0.946246L8.75977 0.946274L8.76115 0.944834C9.17322 0.513926 9.70274 0.221385 10.2798 0.105548C10.8567 -0.010236 11.4541 0.0559093 11.9937 0.295329C12.6413 0.608161 13.1855 1.10903 13.5587 1.73614C13.9321 2.3635 14.118 3.08956 14.0932 3.82437L14.0931 3.82437V3.82606V14.1753H14.0931L14.0932 14.177C14.1179 14.9119 13.9318 15.638 13.5583 16.2654C13.1848 16.8925 12.6404 17.3933 11.9926 17.706C11.628 17.8669 11.2353 17.95 10.8385 17.95ZM10.264 15.5536L10.2633 15.5541L10.27 15.5608C10.3872 15.6764 10.5354 15.7536 10.6959 15.7825C10.8564 15.8114 11.0216 15.7905 11.1703 15.7225L11.1703 15.7226L11.1735 15.7209C11.4439 15.5734 11.6661 15.3479 11.8129 15.0726C11.9594 14.7978 12.0243 14.4853 12 14.1733V3.82812C12.0255 3.51581 11.9615 3.20258 11.8156 2.92698C11.6694 2.65075 11.4474 2.42435 11.1768 2.27596L11.1769 2.27584L11.1736 2.27432C11.0248 2.20638 10.8597 2.18548 10.6992 2.21434C10.5387 2.2432 10.3905 2.32047 10.2733 2.43607L10.2727 2.43543L10.2673 2.44326L9.07314 4.17337C9.07314 4.17338 9.07314 4.17338 9.07314 4.17338C8.77371 4.60705 8.37741 4.96064 7.91751 5.20462C7.45763 5.4486 6.94751 5.57591 6.4299 5.57592H4.27406C3.96956 5.57592 3.67779 5.70003 3.46287 5.9205C3.248 6.14094 3.1275 6.43964 3.1275 6.75084V11.2505C3.1275 11.5617 3.248 11.8604 3.46287 12.0808C3.67779 12.3013 3.96956 12.4254 4.27406 12.4254H6.4299C6.94751 12.4254 7.45763 12.5527 7.91751 12.7967C8.3774 13.0407 8.77371 13.3943 9.07314 13.828C9.07314 13.828 9.07314 13.828 9.07314 13.828L10.264 15.5536ZM21.8191 10.0756H17.4328C17.1557 10.0756 16.8896 9.96266 16.6932 9.76121C16.4968 9.55971 16.3863 9.28616 16.3863 9.00067C16.3863 8.71518 16.4968 8.44163 16.6932 8.24014C16.8896 8.03869 17.1557 7.92576 17.4328 7.92576H21.8191C22.0962 7.92576 22.3623 8.03869 22.5586 8.24014C22.7551 8.44163 22.8656 8.71518 22.8656 9.00067C22.8656 9.28616 22.7551 9.55971 22.5586 9.76121C22.3623 9.96266 22.0962 10.0756 21.8191 10.0756Z" fill="#BABABA" stroke="#F9F9F9" stroke-width="0.1"/>
</svg>
