<svg width="408" height="410" viewBox="0 0 408 410" fill="none" xmlns="http://www.w3.org/2000/svg">
<g clip-path="url(#clip0_2643_120387)">
<rect width="408" height="410" rx="20" fill="white"/>
<mask id="mask0_2643_120387" style="mask-type:alpha" maskUnits="userSpaceOnUse" x="0" y="0" width="408" height="410">
<rect width="408" height="410" rx="22" fill="#CEDCF4"/>
</mask>
<g mask="url(#mask0_2643_120387)">
<rect width="408" height="410" fill="#CEDCF4"/>
<path fill-rule="evenodd" clip-rule="evenodd" d="M211.189 138.869C208.922 139.708 206.709 140.527 204.564 141.305C128.786 168.771 51.4271 214.412 -14.903 266.906C-132.859 360.256 -238.578 484.8 -318.504 620.704C-327.294 635.651 -336.027 650.295 -344.645 664.746C-378.352 721.267 -410.291 774.825 -436.943 831.898C-440.984 840.551 -444.761 848.374 -448.248 855.596C-459.289 878.46 -467.423 895.306 -471.822 913.456C-480.183 947.955 -511.655 968.133 -542.117 958.525C-572.579 948.917 -590.496 913.161 -582.135 878.662C-573.796 844.251 -556.947 809.72 -545.056 785.351C-542.446 780.002 -540.075 775.143 -538.085 770.883C-508.269 707.033 -471.941 646.166 -437.884 589.106C-429.668 575.339 -421.583 561.794 -413.755 548.482C-326.34 399.843 -210.776 263.481 -80.6169 160.473C-6.41514 101.75 81.1115 49.7487 169.358 17.7626C170.414 17.3799 171.779 16.8666 173.413 16.2524C184.724 12.0004 208.9 2.9117 232.408 -1.20568C245.838 -3.55786 263.982 -5.30614 282.344 -1.06122C301.75 3.42505 327.185 16.3729 341.534 48.0853C365.331 100.678 346.577 150.068 332.145 177.36C323.966 192.827 312.646 209.147 303.435 221.797C420.374 179.528 539.358 142.89 659.688 113.463C667.168 111.634 675.123 109.588 683.46 107.444C726.207 96.4493 778.981 82.876 829.107 82.7312C860.695 82.6398 886.463 111.597 886.662 147.41C886.861 183.222 861.415 212.327 829.827 212.419C793.555 212.523 755.795 222.128 713.121 232.983C703.734 235.37 694.108 237.819 684.209 240.24C557.322 271.27 431.603 310.683 307.91 356.596C280.164 366.895 252.533 378.024 224.211 389.484C222.545 390.158 220.877 390.833 219.205 391.51C192.68 402.246 165.502 413.247 138.058 423.621C137.069 423.995 135.927 424.5 133.445 425.629L133.296 425.697C132.321 426.14 130.616 426.916 128.94 427.616L128.839 427.658C127.599 428.177 123.295 429.978 118.08 431.133C115.741 431.652 108.951 433.073 100.348 432.021C92.4212 431.052 70.0959 426.079 56.6103 399.975C44.134 375.825 49.6955 353.116 51.4932 346.79C53.806 338.653 57.0246 332.854 58.3324 330.576C62.6677 323.025 68.5846 316.308 70.9834 313.584C71.1007 313.451 71.2096 313.327 71.3095 313.214C79.5027 303.887 87.2948 293.958 96.3722 282.391C97.0329 281.55 97.7005 280.699 98.3755 279.839C107.899 267.711 118.837 253.872 130.982 240.598C134.569 236.678 138.062 232.879 141.469 229.174C163.89 204.795 182.573 184.48 199.342 160.488C202.664 155.735 206.258 150.877 209.485 146.53L210.618 145.004C212.694 142.208 214.677 139.538 216.636 136.86C214.791 137.535 212.973 138.208 211.189 138.869ZM238.479 99.4651C238.506 99.4509 238.489 99.6996 238.349 100.254C238.382 99.7565 238.452 99.4793 238.479 99.4651ZM150.477 407.302C150.472 407.305 150.541 407.215 150.698 407.023C150.56 407.203 150.481 407.298 150.477 407.302Z" fill="#E0EBA5"/>
</g>
</g>
<defs>
<clipPath id="clip0_2643_120387">
<rect width="408" height="410" rx="20" fill="white"/>
</clipPath>
</defs>
</svg>
