<svg width="878" height="450" viewBox="0 0 878 450" fill="none" xmlns="http://www.w3.org/2000/svg">
<path d="M118.022 321.24C118.022 321.24 -35.1679 201.593 8.47152 144.492C52.1151 87.3909 118.022 321.24 118.022 321.24Z" fill="#E0EBA5"/>
<path d="M118.022 321.904C117.877 321.904 117.733 321.859 117.613 321.764C117.23 321.463 78.8899 291.393 46.3862 254.719C27.2699 233.153 13.8742 213.554 6.56586 196.459C-2.62725 174.938 -2.16534 157.315 7.94337 144.088C13.4658 136.862 19.6729 133.852 26.3873 135.134C36.1042 136.99 47.0007 147.982 58.7798 167.791C68.142 183.533 78.1105 204.889 88.413 231.264C105.946 276.141 118.537 320.617 118.661 321.059C118.739 321.335 118.632 321.632 118.393 321.793C118.281 321.867 118.149 321.904 118.022 321.904ZM23.4426 136.182C18.2748 136.182 13.4288 139.102 9.00335 144.897C-0.796037 157.715 -1.20437 174.889 7.79078 195.939C15.0372 212.903 28.3588 232.382 47.3801 253.841C76.0071 286.138 109.171 313.301 116.809 319.43C114.161 310.286 102.576 271.171 87.1716 231.742C76.8979 205.438 66.9583 184.152 57.6373 168.471C46.0604 149.004 35.465 138.228 26.1399 136.442C25.2284 136.269 24.3293 136.182 23.4426 136.182Z" fill="black"/>
<path d="M117.791 321.376L11.6602 140.785L12.118 140.517L118.253 321.104L117.791 321.376Z" fill="#1C1C1C"/>
<path d="M42.1465 192.405C42.1176 192.405 42.0887 192.401 42.064 192.392L1.51367 178.601L1.68686 178.097L41.932 191.786L47.5494 152.597L48.0773 152.671L42.4105 192.178C42.3981 192.256 42.3527 192.326 42.2867 192.368C42.2455 192.392 42.196 192.405 42.1465 192.405Z" fill="#1C1C1C"/>
<path d="M66.9759 234.646C66.9512 234.646 66.9305 234.646 66.9058 234.638L21.7939 222.711L21.9301 222.195L66.7491 234.044L71.6488 194.232L72.1767 194.298L67.2399 234.415C67.2275 234.494 67.1862 234.56 67.1244 234.605C67.079 234.634 67.0254 234.651 66.9759 234.651" fill="#1C1C1C"/>
<path d="M91.6468 276.624C91.6179 276.624 91.5932 276.624 91.5684 276.612L57.584 266.26L57.7366 265.752L91.391 276.005L92.451 244.413L92.9831 244.43L91.9107 276.368C91.9066 276.451 91.8654 276.529 91.7994 276.575C91.754 276.608 91.7004 276.624 91.6468 276.624Z" fill="black"/>
<path d="M117.032 328.066C117.032 328.066 92.3765 48.8415 188.547 48.6642C300.143 48.458 117.032 328.062 117.032 328.062" fill="#E0EBA5"/>
<path d="M117.032 328.73C116.978 328.73 116.925 328.722 116.871 328.71C116.595 328.639 116.393 328.404 116.368 328.124C116.322 327.617 111.901 276.553 114.202 218.858C115.555 184.956 118.933 155.43 124.237 131.093C130.881 100.602 140.602 78.1942 153.124 64.4932C163.1 53.572 175.02 48.0247 188.543 48C188.585 48 188.63 48 188.667 48C204.001 48 214.65 53.3163 220.33 63.8003C227.658 77.3322 226.784 99.6984 217.731 130.276C210.518 154.638 198.12 184.276 180.889 218.372C151.565 276.393 117.923 327.914 117.589 328.425C117.461 328.615 117.25 328.726 117.032 328.726M188.667 49.328C188.626 49.328 188.589 49.328 188.548 49.328C175.407 49.3528 163.822 54.7556 154.105 65.384C141.745 78.9118 132.131 101.113 125.536 131.373C120.249 155.637 116.883 185.088 115.531 218.908C113.485 270.181 116.76 316.201 117.535 326.062C123.482 316.836 153.342 269.926 179.705 217.761C196.903 183.74 209.264 154.177 216.457 129.893C225.407 99.6654 226.318 77.6415 219.162 64.4313C213.731 54.4092 203.473 49.3239 188.667 49.3239V49.328Z" fill="black"/>
<path d="M117.288 328.136L116.776 327.992L195.163 48.3877L195.675 48.5279L117.288 328.136Z" fill="black"/>
<path d="M173.07 128.44C173.045 128.44 173.02 128.44 172.996 128.428C172.921 128.407 172.86 128.35 172.827 128.28L148.402 72.8033L148.889 72.5889L173.19 127.776L224.455 94.1714L224.744 94.6169L173.218 128.395C173.173 128.424 173.124 128.436 173.07 128.436" fill="#1C1C1C"/>
<path d="M159.492 176.869C159.467 176.869 159.442 176.869 159.418 176.856C159.348 176.836 159.294 176.79 159.257 176.728L128.58 119.058L129.05 118.811L159.603 176.242L211.075 147.866L211.335 148.332L159.624 176.84C159.583 176.86 159.537 176.873 159.492 176.873" fill="#1C1C1C"/>
<path d="M136.515 258.839C136.49 258.839 136.47 258.839 136.449 258.831C136.371 258.81 136.309 258.761 136.272 258.687L115.155 214.437L115.634 214.206L136.614 258.171L173.51 231.355L173.824 231.784L136.668 258.79C136.622 258.823 136.569 258.839 136.515 258.839Z" fill="#1C1C1C"/>
<path d="M148.645 215.567C148.55 215.567 148.464 215.518 148.414 215.435L119.082 164.12L119.544 163.856L148.761 214.973L189.088 199.734L189.278 200.233L148.74 215.551C148.707 215.563 148.674 215.567 148.645 215.567Z" fill="#1C1C1C"/>
<path d="M115.09 324.849C115.09 324.849 188.416 181.517 221.299 220.958C259.932 267.299 115.09 324.849 115.09 324.849Z" fill="#E0EBA5"/>
<path d="M115.09 325.513C114.904 325.513 114.727 325.439 114.599 325.294C114.409 325.092 114.372 324.791 114.496 324.544C114.632 324.28 128.358 297.546 146.323 270.668C156.881 254.867 166.821 242.103 175.861 232.732C187.24 220.936 197.267 214.482 205.66 213.546C211.929 212.845 217.36 215.195 221.811 220.532C227.853 227.783 229.82 235.763 227.663 244.26C225.287 253.601 217.88 263.689 205.635 274.243C195.893 282.645 183.075 291.372 167.535 300.185C141.102 315.177 115.589 325.364 115.333 325.467C115.255 325.496 115.172 325.513 115.09 325.513ZM207.759 214.758C207.12 214.758 206.468 214.795 205.804 214.87C197.733 215.769 187.979 222.087 176.822 233.652C167.836 242.964 157.945 255.667 147.433 271.398C132.028 294.448 119.746 317.388 116.517 323.55C122.604 321.034 144.414 311.771 166.891 299.018C182.353 290.246 195.101 281.568 204.773 273.229C216.804 262.856 224.071 252.999 226.372 243.93C228.422 235.871 226.541 228.286 220.788 221.382C217.117 216.977 212.741 214.758 207.759 214.758Z" fill="black"/>
<path d="M115.271 325.043L114.908 324.655L223.526 222.813L223.889 223.201L115.271 325.043Z" fill="#1C1C1C"/>
<path d="M193.311 252.117C193.237 252.117 193.171 252.088 193.118 252.034C193.064 251.977 193.039 251.898 193.047 251.82L196.85 216.825L197.378 216.883L193.608 251.56L225.139 249.127L225.18 249.659L193.332 252.117C193.332 252.117 193.316 252.117 193.311 252.117Z" fill="#1C1C1C"/>
<path d="M167.716 276.001C167.646 276.001 167.58 275.972 167.531 275.922C167.477 275.869 167.448 275.799 167.453 275.724L168.748 242.408L169.28 242.429L167.993 275.452L204.967 273.658L204.992 274.19L167.729 276.001C167.729 276.001 167.721 276.001 167.716 276.001Z" fill="black"/>
<path d="M142.281 299.736C142.211 299.736 142.145 299.708 142.095 299.658C142.042 299.604 142.013 299.526 142.017 299.448L143.947 274.137L144.479 274.178L142.57 299.175L171.448 296.878L171.489 297.41L142.302 299.732C142.302 299.732 142.289 299.732 142.281 299.732" fill="#1C1C1C"/>
<path d="M84.6566 463.369L56.5205 321.9H153.723L126.865 463.163L84.6566 463.369Z" fill="white"/>
<path d="M83.8931 464.3L55.3857 320.968H154.848L127.636 464.09L83.8931 464.3ZM57.6541 322.832L85.419 462.432L126.093 462.234L152.596 322.832H57.6541Z" fill="#1C1C1C"/>
<path d="M405.553 592.074C405.553 592.074 426.684 521.274 455.733 437.865C475.903 379.949 565.712 408.39 636.997 402.648C700.424 397.537 700.431 303.85 700.431 303.85C700.431 303.85 418.939 298.949 394.015 361.018C378.542 399.556 330.19 569.181 330.19 569.181C330.19 583.308 374.195 583.308 405.553 592.074Z" fill="white"/>
<path d="M406.048 592.971L406.255 592.283C406.464 591.575 427.711 520.541 456.422 438.105C459.836 428.296 465.294 420.745 473.102 415.021C480.122 409.873 488.932 406.302 500.045 404.096C520.872 399.958 546.284 401.304 573.192 402.728C594.523 403.858 616.584 405.025 637.057 403.376C651.71 402.193 664.206 396.2 674.199 385.553C682.167 377.069 688.554 365.633 693.192 351.559C701.069 327.665 701.16 304.084 701.16 303.849V303.133L700.443 303.12C699.739 303.108 629.189 301.968 556.505 308.431C513.793 312.227 478.704 317.867 452.212 325.196C418.92 334.403 399.113 346.364 393.339 360.745C378.029 398.875 329.972 567.284 329.49 568.98L329.461 569.08V569.18C329.461 579.167 348.984 582.353 371.588 586.039C383.015 587.904 394.829 589.832 405.357 592.777L406.048 592.971ZM534.548 399.877C497.128 399.877 465.989 406.186 455.042 437.623C427.83 515.762 407.319 583.655 405.059 591.178C394.628 588.321 383.04 586.43 371.826 584.6C350.871 581.179 331.073 577.949 330.923 569.28C332.334 564.326 379.563 398.969 394.694 361.289C400.29 347.353 419.771 335.686 452.597 326.604C479.002 319.3 514.003 313.676 556.624 309.886C625.271 303.78 692.016 304.466 699.689 304.569C699.608 308.688 698.835 329.79 691.796 351.134C687.224 364.995 680.94 376.242 673.122 384.567C663.389 394.929 651.215 400.769 636.941 401.917C616.562 403.56 594.551 402.396 573.267 401.27C560.014 400.569 546.935 399.877 534.548 399.877Z" fill="#1C1C1C"/>
<path d="M440.555 335.308C531.128 417.5 589.622 500.409 589.622 500.409C590.689 518.398 573.549 552.241 547.414 569.594C547.414 569.594 457.392 463.79 388.122 394.529C381.34 383.973 418.347 351.119 440.555 335.308Z" fill="white"/>
<path d="M576.071 536.302L576.822 535.488C575.981 534.712 574.591 533.422 572.748 531.698L571.99 532.505C573.837 534.233 575.23 535.522 576.071 536.302ZM567.941 528.7L568.698 527.896C567.456 526.725 566.11 525.451 564.667 524.084L563.907 524.885C565.349 526.256 566.698 527.529 567.941 528.7ZM559.892 521.057L560.655 520.259C559.375 519.036 558.042 517.756 556.656 516.423L555.889 517.217C557.275 518.551 558.612 519.834 559.892 521.057ZM551.905 513.368L552.672 512.573C551.382 511.321 550.058 510.035 548.703 508.711L547.93 509.503C549.285 510.827 550.612 512.116 551.905 513.368ZM543.971 505.629L544.744 504.84C543.452 503.569 542.137 502.274 540.801 500.953L540.025 501.739C541.361 503.062 542.679 504.358 543.971 505.629ZM536.094 497.839L536.874 497.054C535.584 495.771 534.276 494.465 532.958 493.142L532.176 493.924C533.497 495.248 534.802 496.553 536.094 497.839ZM528.273 489.993L529.059 489.217C527.773 487.918 526.477 486.604 525.175 485.277L524.383 486.05C525.688 487.38 526.987 488.695 528.273 489.993ZM520.512 482.091L521.304 481.321C520.024 480.007 518.741 478.683 517.451 477.35L516.657 478.117C517.946 479.453 519.232 480.777 520.512 482.091ZM512.82 474.126L513.618 473.36C512.347 472.033 511.073 470.696 509.8 469.357L508.998 470.117C510.272 471.46 511.546 472.796 512.82 474.126ZM505.196 466.09L506.003 465.332C504.752 463.999 503.481 462.638 502.226 461.289L501.415 462.043C502.67 463.392 503.944 464.753 505.196 466.09ZM497.648 457.962L498.461 457.214C497.2 455.847 495.945 454.47 494.728 453.13L493.911 453.872C495.128 455.214 496.386 456.591 497.648 457.962ZM490.209 449.769L491.032 449.03C489.786 447.641 488.55 446.248 487.354 444.899L486.525 445.632C487.721 446.984 488.96 448.376 490.209 449.769ZM482.876 441.466L483.708 440.74C482.482 439.329 481.267 437.92 480.097 436.553L479.255 437.27C480.429 438.64 481.646 440.052 482.876 441.466ZM475.675 433.045L476.52 432.334C475.324 430.91 474.138 429.477 472.987 428.081L472.135 428.782C473.284 430.184 474.476 431.618 475.675 433.045ZM468.64 424.479L469.5 423.787C468.327 422.326 467.172 420.867 466.07 419.453L465.197 420.135C466.305 421.55 467.463 423.014 468.64 424.479ZM461.817 415.741L462.7 415.072C461.564 413.572 460.453 412.083 459.401 410.637L458.506 411.291C459.564 412.74 460.678 414.236 461.817 415.741ZM455.283 406.775L456.19 406.143C455.101 404.584 454.056 403.048 453.082 401.574L452.162 402.184C453.139 403.664 454.19 405.21 455.283 406.775ZM449.171 397.502L450.113 396.923C449.108 395.293 448.166 393.697 447.312 392.172L446.348 392.711C447.208 394.25 448.16 395.862 449.171 397.502ZM443.753 387.785L444.745 387.3C443.888 385.547 443.14 383.86 442.52 382.283L441.494 382.684C442.123 384.292 442.883 386.007 443.753 387.785ZM439.766 377.363L440.84 377.097C440.358 375.16 440.117 373.379 440.114 371.799H439.009C439.009 373.47 439.265 375.342 439.766 377.363ZM441.425 366.907C442.285 365.699 443.625 364.554 445.406 363.506L444.845 362.554C442.93 363.681 441.475 364.93 440.523 366.266L441.425 366.907ZM450.325 361.23C451.881 360.655 453.64 360.101 455.549 359.591L455.264 358.523C453.32 359.043 451.53 359.606 449.94 360.195L450.325 361.23ZM460.903 358.345C462.599 358.001 464.421 357.672 466.321 357.369L466.148 356.276C464.233 356.583 462.393 356.915 460.681 357.262L460.903 358.345ZM471.779 356.586C473.531 356.364 475.374 356.151 477.258 355.96L477.146 354.859C475.252 355.053 473.4 355.265 471.638 355.491L471.779 356.586ZM587.67 356.304L587.745 355.2C586.008 355.087 584.149 354.968 582.218 354.852L582.152 355.957C584.08 356.073 585.939 356.189 587.67 356.304ZM576.632 355.638L576.691 354.536C574.854 354.433 572.995 354.336 571.167 354.245L571.111 355.35C572.939 355.441 574.795 355.538 576.632 355.638ZM482.754 355.453C484.531 355.306 486.384 355.168 488.262 355.046L488.19 353.945C486.306 354.067 484.447 354.205 482.663 354.352L482.754 355.453ZM565.59 355.09L565.641 353.985C563.81 353.901 561.951 353.823 560.111 353.751L560.067 354.855C561.904 354.927 563.763 355.006 565.59 355.09ZM493.776 354.727C495.563 354.636 497.419 354.552 499.294 354.48L499.25 353.375C497.372 353.447 495.51 353.532 493.72 353.622L493.776 354.727ZM554.543 354.649L554.584 353.544C552.747 353.478 550.888 353.419 549.054 353.363L549.019 354.471C550.853 354.524 552.709 354.583 554.543 354.649ZM592.195 354.42C592.276 352.53 592.502 350.721 592.871 349.047L591.791 348.812C591.409 350.549 591.175 352.421 591.09 354.374L592.195 354.42ZM543.496 354.32L543.521 353.216C541.681 353.172 539.818 353.131 537.991 353.097L537.969 354.201C539.797 354.236 541.656 354.277 543.496 354.32ZM504.814 354.295C506.62 354.245 508.479 354.201 510.344 354.167L510.325 353.062C508.457 353.097 506.592 353.14 504.783 353.191L504.814 354.295ZM532.445 354.12L532.458 353.012C530.586 352.99 528.724 352.975 526.925 352.965L526.918 354.07C528.715 354.079 530.574 354.095 532.445 354.12ZM515.874 354.092C517.683 354.073 519.539 354.064 521.398 354.061V352.953C519.536 352.959 517.674 352.968 515.862 352.984L515.874 354.092ZM594.586 343.949C595.362 342.312 596.335 340.794 597.484 339.442L596.639 338.729C595.431 340.153 594.404 341.752 593.588 343.476L594.586 343.949ZM601.455 335.837C602.867 334.845 604.457 333.969 606.184 333.233L605.749 332.216C603.953 332.983 602.294 333.897 600.82 334.933L601.455 335.837ZM638.531 331.628L638.775 330.551C638.688 330.532 636.591 330.06 633.264 329.647L633.127 330.745C636.397 331.149 638.513 331.625 638.531 331.628ZM611.345 331.531C613.025 331.115 614.831 330.789 616.715 330.561L616.584 329.465C614.656 329.697 612.803 330.032 611.079 330.457L611.345 331.531ZM627.659 330.257L627.719 329.155C626.404 329.083 625.093 329.049 623.825 329.049C623.268 329.049 622.702 329.055 622.148 329.071L622.176 330.176C622.721 330.16 623.275 330.154 623.825 330.154C625.074 330.154 626.364 330.188 627.659 330.257Z" fill="#1C1C1C"/>
<path d="M448.081 458.532L449.12 457.484C404.527 413.216 395.166 385.031 395.17 369.183C395.17 363.102 396.572 358.837 397.748 356.33C399.019 353.616 400.308 352.318 400.321 352.305L399.288 351.257C399.06 351.479 393.73 356.856 393.695 369.067C393.667 379.029 397.163 390.545 404.082 403.301C413.099 419.913 427.902 438.497 448.081 458.532Z" fill="#1C1C1C"/>
<path d="M547.27 570.629L547.846 570.244C573.561 553.169 591.525 519.267 590.404 500.361L590.389 500.139L590.261 499.957C589.954 499.522 559.037 455.899 508.366 401.376L507.221 402.44C556.151 455.092 586.621 497.544 588.852 500.677C589.3 509.55 585.269 522.299 578.04 534.849C570.069 548.688 559.262 560.63 547.558 568.554C542.6 562.749 497.954 510.542 449.198 457.502L448.047 458.563C499.484 514.519 546.35 569.553 546.819 570.1L547.27 570.629Z" fill="#1C1C1C"/>
<path d="M457.764 267.916L405.797 260.023C405.087 259.936 400.264 251.42 399.839 250.844C399.839 250.844 392.897 248.801 384.801 246.419C376.708 244.038 358.469 251.915 358.469 251.915C357.076 252.287 350.223 252.907 350.589 254.303L357.915 260.02C366.812 263.422 377.497 251.708 397.995 269.547C405.115 275.743 461.685 268.182 457.764 267.916Z" fill="#F7F8F9"/>
<path d="M358.457 260.818C361.242 261.638 364.143 261.184 367.457 260.664C374.799 259.516 383.941 258.089 397.611 269.984C399.295 271.449 403.35 272.272 410.007 272.5C415.28 272.679 422.015 272.472 430.024 271.89C443.284 270.923 457.298 269.067 458.234 268.495C458.475 268.348 458.59 268.085 458.525 267.825C458.453 267.534 458.221 267.368 457.833 267.337L405.989 259.463C405.288 258.837 402.509 254.158 401.445 252.368C400.765 251.223 400.434 250.665 400.309 250.496L400.19 250.34L384.967 245.858C376.881 243.48 359.49 250.844 358.282 251.363C357.956 251.445 357.315 251.545 356.576 251.664C353.334 252.177 350.805 252.65 350.167 253.629C350.001 253.883 349.954 254.167 350.029 254.452L350.079 254.64L357.627 260.533L357.709 260.564C357.956 260.658 358.206 260.743 358.457 260.818ZM382.764 259.882C381.96 259.644 381.159 259.447 380.354 259.287C375.253 258.267 371.016 258.931 367.279 259.516C363.865 260.048 360.91 260.511 358.203 259.507L351.312 254.124C351.534 253.983 352.035 253.748 353.152 253.479C354.295 253.204 355.659 252.988 356.757 252.812C357.593 252.681 358.25 252.578 358.62 252.477L358.701 252.449C358.882 252.371 376.837 244.682 384.639 246.976L399.47 251.341C399.658 251.639 400.043 252.287 400.443 252.963C404.696 260.123 405.191 260.533 405.716 260.602L454.725 268.044C450.053 268.773 440.414 269.975 429.614 270.751C406.029 272.447 399.921 270.447 398.378 269.108C392.985 264.414 387.853 261.378 382.764 259.882Z" fill="#1C1C1C"/>
<path d="M397.448 247.599C371.357 271.79 415.775 280.609 415.775 280.609C505.186 292.214 555.357 234.986 556.43 172.617C556.759 153.658 544.663 125.195 535.712 133.078C499.525 164.944 487.464 274.09 397.448 247.599Z" fill="#F8DB87"/>
<path d="M702.211 316.049C704.837 262.167 689.261 165.598 615.066 130.19C577.007 112.026 536.041 124.425 531.494 139.404C522.994 167.401 526.129 220.966 560.273 217.943C587.726 246.598 564.229 302.476 564.229 302.476C603.242 334.103 675.003 343.041 702.211 316.049Z" fill="#F8DB87"/>
<path d="M553.357 1.27704C548.237 3.57727 545.724 9.29186 547.298 14.5245C547.267 14.537 547.236 14.5495 547.207 14.5621C540.041 17.7824 536.266 25.4436 537.665 32.8387C536.739 33.0734 535.819 33.3864 534.918 33.7932C526.527 37.5612 522.781 47.4194 526.549 55.8098C527.266 57.3996 528.198 58.8235 529.3 60.0628C529.075 62.7824 529.51 65.5959 530.708 68.2623C534.476 76.6527 544.331 80.3988 552.722 76.6308C556.474 74.9439 559.294 72.0397 560.934 68.594C561.203 68.4876 561.469 68.3781 561.738 68.2592C570.125 64.4912 573.871 54.633 570.103 46.2427C569.18 44.1897 567.894 42.4152 566.351 40.96C570.673 36.2061 572.022 29.1646 569.224 22.9305C568.476 21.2656 567.484 19.7884 566.317 18.5116C568.983 15.3632 569.772 10.8441 567.969 6.83202C565.465 1.26452 558.925 -1.22349 553.357 1.28017" fill="#1C1C1C"/>
<path d="M529.659 85.5503C532.93 92.8328 540.538 96.5382 546.615 93.8061C547.063 93.6058 547.491 93.3742 547.898 93.1145C553 89.8785 554.733 82.3926 551.704 75.6452C548.433 68.3627 540.825 64.6573 534.748 67.3894C531.825 68.7038 529.681 71.3014 528.711 74.7032C527.728 78.1489 528.066 82.0014 529.659 85.5503Z" fill="#F8DB87"/>
<path d="M519.282 101.392C523.52 110.825 534.598 115.034 544.031 110.796C553.46 106.559 557.673 95.4803 553.435 86.0477C549.201 76.6152 538.119 72.406 528.687 76.6434C519.257 80.8808 515.045 91.9595 519.282 101.392Z" fill="#1C1C1C"/>
<path d="M561.058 123.994L550.183 101.708L536.56 119.578L541.89 130.751C541.89 130.751 532.798 168.662 542.588 168.443C552.377 168.221 562.755 131.311 561.058 123.994Z" fill="white"/>
<path d="M543.561 168.9C545.295 168.5 547.085 167.119 548.897 164.785C552.352 160.335 555.914 152.354 558.671 142.893C561.125 134.469 562.311 126.82 561.625 123.863L561.613 123.797L561.581 123.737L550.293 100.604L535.881 119.506L541.277 130.813C540.983 132.065 539.408 138.966 538.382 146.445C536.855 157.621 537.237 164.725 539.524 167.561C540.329 168.556 541.364 169.047 542.601 169.022C542.92 169.013 543.239 168.972 543.561 168.897M560.505 124.185C561.109 126.973 559.898 134.503 557.551 142.565C554.837 151.891 551.348 159.727 547.977 164.068C546.056 166.544 544.237 167.817 542.576 167.855C541.706 167.877 541.005 167.539 540.432 166.828C538.382 164.29 538.072 157.302 539.537 146.611C540.654 138.437 542.438 130.954 542.457 130.882L542.504 130.682L537.24 119.644L550.074 102.81L560.505 124.185Z" fill="#1C1C1C"/>
<path d="M528.517 87.9195C534.022 85.4784 539.984 86.0918 544.822 91.2775C546.982 90.5671 549.698 92.2821 551.022 95.2739C552.158 97.8339 551.917 100.522 550.584 101.949C552.724 110.421 549.704 120.508 543.235 123.374C535.749 126.692 526.564 119.631 522.098 109.977C515.32 95.3178 521.031 91.2368 528.517 87.9195Z" fill="white"/>
<path d="M541.655 124.513C542.275 124.369 542.882 124.166 543.473 123.906C546.697 122.476 549.26 119.293 550.69 114.943C552.017 110.912 552.205 106.249 551.219 102.099C552.562 100.419 552.706 97.6334 551.554 95.0359C550.171 91.9157 547.414 90.0881 545.004 90.6232C542.65 88.1884 539.965 86.6893 537.02 86.1636C534.188 85.6597 531.249 86.0697 528.279 87.3841C524.668 88.9833 520.687 91.0332 519.16 95.0922C517.777 98.7695 518.565 103.717 521.573 110.221C523.835 115.115 527.347 119.415 531.209 122.022C534.755 124.416 538.397 125.271 541.655 124.513ZM545.229 91.7655C547.079 91.3368 549.348 92.9297 550.49 95.5053C551.498 97.7774 551.36 100.262 550.158 101.549L549.942 101.78L550.017 102.087C551.035 106.102 550.875 110.656 549.586 114.577C548.259 118.611 545.921 121.543 543.001 122.839C539.693 124.304 535.737 123.671 531.86 121.055C528.17 118.564 524.806 114.436 522.627 109.729C519.758 103.523 518.981 98.8696 520.249 95.5022C521.482 92.2287 524.54 90.3165 528.752 88.4482C534.517 85.8913 540.072 87.0367 544.394 91.6716L544.65 91.9439L545.004 91.8281C545.076 91.8031 545.154 91.7812 545.229 91.7655Z" fill="#1C1C1C"/>
<path d="M527.694 93.1763C529.813 97.8925 535.352 99.9987 540.069 97.88C544.782 95.7613 546.888 90.222 544.769 85.5057C542.651 80.7894 537.111 78.6832 532.395 80.802C527.682 82.9207 525.576 88.46 527.694 93.1763Z" fill="#1C1C1C"/>
<path d="M532.314 106.393C532.47 107.316 531.848 108.193 530.924 108.349C529.998 108.506 529.125 107.883 528.968 106.956C528.812 106.033 529.438 105.157 530.361 105.004C531.284 104.847 532.16 105.47 532.314 106.396" fill="#1C1C1C"/>
<path d="M538.576 114.182C537.393 118.057 534.808 119.559 531.926 119.712L538.576 114.182Z" fill="white"/>
<path d="M533.49 120.081C535.653 119.581 537.987 118.107 539.133 114.354C539.227 114.048 539.051 113.722 538.745 113.628C538.438 113.534 538.113 113.706 538.019 114.016C537.033 117.249 534.971 118.97 531.894 119.133C531.572 119.149 531.325 119.424 531.343 119.747C531.359 120.069 531.634 120.313 531.954 120.297C532.442 120.272 532.961 120.207 533.49 120.085" fill="#1C1C1C"/>
<path d="M530.279 101.633C530.279 101.633 526.705 103.335 525.885 106.036L530.279 101.633Z" fill="white"/>
<path d="M526.017 106.603C526.214 106.556 526.38 106.412 526.443 106.205C527.178 103.786 530.499 102.175 530.53 102.159C530.821 102.021 530.943 101.674 530.805 101.383C530.668 101.092 530.32 100.97 530.029 101.107C529.873 101.183 526.214 102.954 525.329 105.867C525.235 106.174 525.41 106.5 525.717 106.594C525.817 106.625 525.92 106.625 526.017 106.603Z" fill="#1C1C1C"/>
<path d="M524.94 107.998C524.94 107.998 528.257 116.263 529.381 116.317C530.508 116.373 531.703 115.778 531.703 115.778" fill="white"/>
<path d="M530.617 116.767C531.359 116.595 531.929 116.317 531.963 116.298C532.251 116.154 532.37 115.807 532.226 115.519C532.082 115.231 531.735 115.112 531.447 115.256C531.437 115.259 530.417 115.757 529.478 115.738C528.934 115.353 527.278 112.258 525.482 107.779C525.36 107.482 525.022 107.335 524.724 107.457C524.424 107.576 524.28 107.917 524.399 108.214C524.408 108.236 525.247 110.321 526.211 112.383C528.139 116.501 528.821 116.871 529.353 116.899C529.788 116.921 530.226 116.858 530.617 116.767Z" fill="#1C1C1C"/>
<path d="M530.642 111.78C533.806 111.78 536.385 109.204 536.385 106.037C536.385 102.87 533.806 100.294 530.642 100.294C527.478 100.294 524.899 102.87 524.899 106.037C524.899 109.204 527.475 111.78 530.642 111.78ZM530.642 100.967C533.437 100.967 535.712 103.242 535.712 106.037C535.712 108.831 533.437 111.107 530.642 111.107C527.847 111.107 525.572 108.831 525.572 106.037C525.572 103.242 527.847 100.967 530.642 100.967Z" fill="#1C1C1C"/>
<path d="M520.44 116.163C523.175 116.163 525.403 113.935 525.403 111.2C525.403 108.465 523.175 106.236 520.44 106.236C517.705 106.236 515.473 108.465 515.473 111.2C515.473 113.935 517.701 116.163 520.44 116.163ZM520.44 106.906C522.806 106.906 524.73 108.831 524.73 111.2C524.73 113.569 522.806 115.494 520.44 115.494C518.074 115.494 516.146 113.569 516.146 111.2C516.146 108.831 518.071 106.906 520.44 106.906Z" fill="#1C1C1C"/>
<path d="M535.49 103.048L543.479 94.9424L543.001 94.4698L535.011 102.575L535.49 103.048Z" fill="#1C1C1C"/>
<path d="M524.662 108.427L525.979 106.806L525.457 106.38L524.139 108.001L524.662 108.427Z" fill="#1C1C1C"/>
<path d="M659.706 321.373C659.709 319.504 659.687 317.539 659.646 315.53L658.482 315.552C658.523 317.555 658.545 319.514 658.542 321.37H659.706M659.477 309.69C659.402 307.756 659.308 305.794 659.202 303.86L658.038 303.925C658.147 305.853 658.238 307.809 658.313 309.737L659.477 309.69ZM658.823 298.033C658.679 296.092 658.517 294.133 658.341 292.215L657.18 292.324C657.355 294.233 657.518 296.183 657.662 298.12L658.823 298.033ZM657.75 286.406C657.534 284.463 657.296 282.513 657.046 280.61L655.891 280.764C656.138 282.657 656.376 284.597 656.592 286.538L657.75 286.406ZM656.216 274.83C655.919 272.89 655.597 270.952 655.262 269.068L654.113 269.275C654.448 271.146 654.77 273.077 655.068 275.008L656.216 274.83ZM654.163 263.332C653.803 261.576 653.422 259.83 653.027 258.137L652.908 257.624L651.775 257.89L651.894 258.4C652.286 260.083 652.664 261.82 653.021 263.567L654.163 263.332ZM650.361 252.259L651.484 251.956C651.096 250.51 650.689 249.07 650.276 247.678C650.145 247.233 650.01 246.786 649.873 246.341L648.762 246.683C648.896 247.124 649.031 247.568 649.162 248.01C649.572 249.393 649.976 250.823 650.361 252.259ZM646.972 241.153L648.076 240.777C647.466 238.984 646.806 237.131 646.117 235.272L645.025 235.676C645.71 237.525 646.368 239.369 646.972 241.153ZM642.941 230.246L644.023 229.817C643.322 228.049 642.578 226.231 641.811 224.416L640.737 224.866C641.501 226.678 642.243 228.487 642.941 230.246ZM638.425 219.53L639.489 219.058C638.713 217.315 637.899 215.525 637.07 213.741L636.015 214.232C636.841 216.01 637.652 217.794 638.425 219.53ZM633.514 208.978L634.563 208.467C633.727 206.746 632.857 204.984 631.978 203.235L630.936 203.757C631.815 205.504 632.682 207.259 633.514 208.978ZM628.282 198.578L629.315 198.04C628.423 196.328 627.506 194.594 626.582 192.882L625.556 193.433C626.476 195.142 627.393 196.872 628.282 198.578ZM622.761 188.326L623.781 187.759C622.833 186.053 621.866 184.342 620.909 182.677L619.901 183.256C620.852 184.917 621.816 186.623 622.761 188.326ZM616.965 178.223L617.967 177.629C616.089 174.468 614.934 172.637 614.925 172.618L613.939 173.241C613.951 173.257 615.097 175.078 616.965 178.223Z" fill="#1C1C1C"/>
<path d="M570.532 286.584C570.582 286.478 575.771 275.894 577.254 262.233C578.127 254.196 577.57 246.673 575.599 239.875C573.129 231.363 568.426 223.977 561.616 217.925L561.359 217.696L561.037 217.809C560.968 217.834 554.108 220.137 546.594 216.106C539.017 212.041 533.431 203.203 529.991 189.84L528.862 190.131C532.392 203.839 538.181 212.927 546.068 217.145C553.169 220.942 559.563 219.458 561.087 219.014C567.593 224.872 572.097 231.992 574.475 240.179C576.406 246.826 576.954 254.193 576.099 262.074C574.644 275.534 569.54 285.962 569.486 286.065L570.532 286.584Z" fill="#1C1C1C"/>
<path d="M356.45 265.76L473.556 266.126L473.374 258.424L359.761 258.393L356.45 265.76Z" fill="#F7F8F9"/>
<path d="M355.553 266.342L474.154 266.711L473.944 257.842L359.383 257.811L355.553 266.342ZM472.961 265.544L357.349 265.181L360.137 258.975L472.805 259.006L472.961 265.544Z" fill="#1C1C1C"/>
<path d="M321.108 139.354L356.275 266.017L359.762 258.393L328.344 139.476L321.108 139.354Z" fill="#F7F8F9"/>
<path d="M356.141 267.71L360.378 258.446L360.325 258.243L328.795 138.903L320.339 138.759L356.141 267.71ZM359.145 258.34L356.41 264.324L321.878 139.948L327.893 140.048L359.145 258.337V258.34Z" fill="#1C1C1C"/>
<path d="M274.743 142.696L308.987 262.561L356.45 265.76L322.951 139.419L274.743 142.696Z" fill="#F7F8F9"/>
<path d="M309.297 265.76L357.224 266.398L357.014 265.613L323.39 138.806L273.986 142.164L274.184 142.856L309.297 265.76ZM355.681 265.125L310.095 264.323L275.501 143.228L322.51 140.033L355.681 265.125Z" fill="#1C1C1C"/>
<path d="M308.215 201.854C308.997 206.858 311.989 210.545 314.899 210.088C317.81 209.634 319.534 205.212 318.752 200.208C317.973 195.207 314.981 191.52 312.07 191.974C309.16 192.431 307.432 196.853 308.215 201.854Z" fill="#F7F8F9"/>
<path d="M314.123 210.698C314.411 210.72 314.702 210.711 314.986 210.664C316.607 210.41 317.947 209.133 318.751 207.065C319.518 205.106 319.721 202.64 319.327 200.12C318.485 194.719 315.252 190.888 311.979 191.398C308.702 191.911 306.793 196.543 307.638 201.945C308.032 204.464 308.978 206.752 310.305 208.385C311.456 209.803 312.786 210.601 314.123 210.698ZM312.742 192.528C315.112 192.7 317.515 196.052 318.179 200.299C318.538 202.618 318.36 204.871 317.668 206.642C317.017 208.307 316.004 209.327 314.808 209.515C313.613 209.7 312.336 209.04 311.209 207.65C310.01 206.176 309.15 204.085 308.79 201.766C308.07 197.169 309.613 192.947 312.157 192.55C312.351 192.519 312.548 192.512 312.742 192.528Z" fill="#1C1C1C"/>
<path d="M509.887 405.366H673.391V423.286H509.887V405.366Z" fill="#1C1C1C"/>
<path d="M475.593 630.545L516.321 422.748L513.536 422.335L472.808 630.132L475.593 630.545Z" fill="#1C1C1C"/>
<path d="M720.169 632.37L722.936 631.863L672.011 422.288L669.245 422.795L720.169 632.37Z" fill="#1C1C1C"/>
<path d="M670.869 423.972C671.373 423.885 683.29 421.76 695.408 415.234C702.578 411.373 708.305 406.766 712.423 401.546C717.624 394.955 720.263 387.381 720.263 379.041V227.332H717.437V379.041C717.437 386.718 715.011 393.694 710.229 399.765C706.358 404.678 700.941 409.035 694.128 412.712C682.411 419.037 670.503 421.168 670.384 421.19L670.869 423.972Z" fill="#1C1C1C"/>
<path d="M216.371 266.295H526.186V283.721H216.371V266.295Z" fill="white"/>
<path d="M526.893 265.588H215.667V284.428H526.893V265.588ZM525.478 283.013H217.078V267.002H525.478V283.013Z" fill="#1C1C1C"/>
<path d="M497.622 283.958H505.187V631.719H497.622V283.958Z" fill="white"/>
<path d="M496.915 632.37H505.894V283.958H504.479V631.068H498.329V283.958H496.915V632.37Z" fill="#1C1C1C"/>
<path d="M233.261 283.958H239.692V631.719H233.261V283.958Z" fill="white"/>
<path d="M232.554 632.37H240.399V283.958H238.988V631.068H233.965V283.958H232.554V632.37Z" fill="#1C1C1C"/>
<path d="M526.937 262.233C526.937 262.233 461.961 262.12 458.256 261.876C454.55 261.632 443.077 249.076 443.077 249.076C440.145 245.731 435.313 244.801 431.348 246.823L407.378 256.193C405.316 256.997 404.296 259.319 405.1 261.382L408.33 269.681C409.103 271.669 411.475 272.485 413.309 271.396L417.315 269.018L430.174 269.788C433.986 270.736 438.708 280.647 449.993 281.389C461.276 282.134 561.703 284.7 561.703 284.7C565.831 284.828 531.641 262.02 526.937 262.233Z" fill="#F7F8F9"/>
<path d="M449.956 281.947C461.122 282.682 560.683 285.233 561.688 285.258C562.173 285.273 562.401 285.061 562.507 284.879C562.664 284.61 562.636 284.291 562.417 283.931C561.274 282.034 552.9 276.135 545.605 271.456C541.981 269.131 529.941 261.561 526.927 261.673C525.732 261.673 461.92 261.561 458.293 261.32C455.439 261.132 446.638 252.147 443.49 248.701C440.398 245.174 435.312 244.191 431.119 246.313L407.174 255.674C404.83 256.588 403.666 259.242 404.58 261.586L407.81 269.885C408.239 270.984 409.124 271.835 410.238 272.22C411.356 272.605 412.579 272.48 413.593 271.876L417.452 269.585L430.086 270.342C431.231 270.655 432.627 272.013 434.239 273.578C437.65 276.899 442.323 281.446 449.956 281.947ZM561.165 284.128C553.094 283.921 460.74 281.54 450.028 280.832C442.808 280.36 438.304 275.978 435.015 272.78C433.197 271.009 431.757 269.607 430.308 269.247L430.258 269.234H430.205L417.177 268.449L413.024 270.918C412.291 271.353 411.409 271.444 410.604 271.165C409.797 270.887 409.159 270.273 408.849 269.478L405.619 261.179C404.931 259.407 405.81 257.405 407.581 256.713L431.576 247.334L431.601 247.321C435.344 245.415 439.891 246.288 442.658 249.446C443.856 250.757 454.4 262.183 458.218 262.434C461.898 262.678 524.283 262.784 526.937 262.79H526.962C528.718 262.712 536.156 266.693 545.473 272.696C549.564 275.334 553.46 278.003 556.436 280.213C559.45 282.45 560.67 283.583 561.165 284.128Z" fill="#1C1C1C"/>
<path d="M405.362 262.972L425.604 255.924L425.235 254.869L404.993 261.92L405.362 262.972Z" fill="#1C1C1C"/>
<path d="M426.54 263.851L415.023 263.094L407.484 267.516" fill="#F7F8F9"/>
<path d="M407.769 267.995L415.158 263.664L426.503 264.408L426.578 263.294L414.889 262.524L407.202 267.034L407.769 267.995Z" fill="#1C1C1C"/>
<path d="M459.854 261.926C440.52 290.024 457.294 300.814 457.294 300.814C498.185 320.34 548.913 321.542 574.938 308.554C626.416 282.863 654.185 159.915 594.614 131.164C566.131 117.415 584.549 205.544 542.509 249.471C527.156 265.513 495.278 264.136 459.854 261.926Z" fill="#F8DB87"/>
<path d="M473.865 263.645C488.803 264.624 500.335 264.458 510.206 263.163C526.251 261.056 537.812 255.839 545.548 247.218C551.854 240.192 557.087 231.179 561.099 220.435C564.304 211.853 566.745 202.155 568.353 191.602C571.085 173.651 570.45 159.245 570.444 159.105L569.33 159.155C569.336 159.299 569.965 173.61 567.245 191.458C565.649 201.93 563.227 211.55 560.051 220.053C556.085 230.662 550.928 239.55 544.719 246.473C537.167 254.888 525.832 259.986 510.062 262.055C497.384 263.72 481.915 263.507 459.908 261.369L459.798 262.48C464.808 262.969 469.484 263.354 473.865 263.645Z" fill="#1C1C1C"/>
<path d="M563.596 313.902C580.07 307.098 593.975 295.563 604.922 279.615C613.666 266.877 620.548 251.311 625.38 233.35C629.677 217.386 631.527 202.439 632.319 192.713C633.179 182.172 633.02 175.306 633.02 175.24L631.902 175.265C631.909 175.538 632.481 202.687 624.297 233.087C619.494 250.92 612.665 266.364 603.993 278.995C593.174 294.755 579.438 306.153 563.168 312.869L563.596 313.902Z" fill="#1C1C1C"/>
<path d="M511.292 258.71H547.49L552.918 188.953H505.863L511.292 258.71Z" fill="white"/>
<path d="M548.151 259.427H510.63L505.091 188.24H553.693L548.151 259.427ZM511.953 257.997H546.828L552.146 189.667H506.634L511.953 257.997Z" fill="#1C1C1C"/>
<path d="M539.642 210.111H508.521L510.664 237.666H537.955L539.642 210.111Z" fill="#CEDCF4"/>
<path d="M555.197 185.138H503.585V193.69H555.197V185.138Z" fill="#1C1C1C"/>
<path d="M557.19 189.416H501.595V194.762H557.19V189.416Z" fill="black"/>
<path d="M543.252 582.708C543.252 582.708 598.695 419.666 627.559 415.854C694.94 406.95 636.61 311.672 587.806 367.461C538.169 424.201 474.726 559.967 474.726 559.967C460.24 581.235 543.252 582.708 543.252 582.708Z" fill="black"/>
<path d="M513.432 584.977C513.432 584.977 520.002 574.627 591.633 452.153C625.945 393.484 733.311 419.96 812.312 413.598C882.605 407.933 882.611 304.106 882.611 304.106C882.611 304.106 613.263 304.786 547.575 375.862C492.972 434.948 432.199 553.105 432.199 553.105C417.713 574.373 513.432 584.977 513.432 584.977Z" fill="black"/>
<path d="M667.144 272.691L614.573 264.708C613.854 264.62 608.976 256.003 608.544 255.422C608.544 255.422 601.523 253.355 593.336 250.945C585.145 248.535 566.697 256.505 566.697 256.505C565.289 256.882 558.353 257.51 558.727 258.918L566.137 264.705C575.136 268.144 585.944 256.297 606.68 274.341C613.881 280.609 671.109 272.96 667.144 272.691Z" fill="#F7F8F9"/>
<path d="M566.682 265.511C569.502 266.341 572.435 265.881 575.788 265.358C583.217 264.194 592.464 262.749 606.294 274.785C607.997 276.267 612.097 277.097 618.83 277.327C624.164 277.51 630.976 277.302 639.078 276.711C652.496 275.731 666.669 273.854 667.615 273.276C667.86 273.129 667.977 272.862 667.912 272.599C667.839 272.305 667.603 272.137 667.208 272.106L614.767 264.142C614.056 263.508 611.245 258.775 610.171 256.965C609.482 255.804 609.145 255.241 609.019 255.07L608.9 254.913L593.502 250.379C585.32 247.972 567.729 255.422 566.508 255.945C566.177 256.028 565.528 256.132 564.781 256.251C561.504 256.769 558.945 257.247 558.299 258.239C558.13 258.496 558.081 258.784 558.158 259.072L558.21 259.261L565.843 265.223L565.926 265.254C566.177 265.352 566.431 265.434 566.682 265.511ZM591.272 264.565C590.461 264.326 589.65 264.124 588.835 263.961C583.676 262.933 579.389 263.6 575.608 264.194C572.154 264.733 569.168 265.201 566.428 264.185L559.456 258.741C559.68 258.597 560.191 258.361 561.321 258.089C562.475 257.81 563.856 257.59 564.964 257.415C565.809 257.28 566.477 257.173 566.851 257.075L566.93 257.048C567.114 256.968 585.277 249.188 593.168 251.509L608.174 255.927C608.361 256.227 608.75 256.882 609.157 257.565C613.459 264.81 613.961 265.22 614.491 265.29L664.07 272.82C659.342 273.557 649.59 274.773 638.665 275.56C614.806 277.275 608.627 275.254 607.066 273.897C601.613 269.148 596.42 266.077 591.272 264.565Z" fill="#1C1C1C"/>
<path d="M614.185 256.138C587.791 280.609 632.725 289.531 632.725 289.531C723.171 301.268 773.922 243.379 775.006 180.288C775.337 161.108 685.463 162.027 690.577 172.955C730.137 257.525 688.228 260.131 614.185 256.138Z" fill="#E0EBA5"/>
<path d="M655.637 291.822C648.172 291.822 640.496 291.311 632.627 290.291L632.575 290.282C631.61 290.089 608.915 285.453 605.529 273.49C603.989 268.037 606.723 262.011 613.664 255.575L613.903 255.354L614.228 255.373C656.106 257.632 689.052 258.009 700.516 241.022C704.665 234.87 705.929 226.67 704.383 215.947C702.748 204.597 698.005 190.641 689.882 173.279C689.355 172.153 689.579 170.992 690.513 170.012C694.364 165.974 710.559 164.483 723.257 164.437C740.835 164.369 756.92 166.614 766.24 170.438C772.633 173.059 775.839 176.378 775.772 180.3C775.496 196.357 772.11 211.731 765.707 226C759.133 240.645 749.733 253.309 737.767 263.643C725.134 274.55 710.1 282.425 693.082 287.045C681.37 290.227 668.837 291.819 655.637 291.822ZM632.85 288.775C654.419 291.571 674.548 290.493 692.68 285.569C709.478 281.007 724.31 273.242 736.766 262.486C748.564 252.299 757.829 239.812 764.311 225.375C770.628 211.296 773.968 196.121 774.241 180.273C774.299 177.046 771.409 174.213 765.658 171.856C756.515 168.105 740.679 165.9 723.263 165.968C707.188 166.026 694.472 168.077 691.621 171.069C690.981 171.742 691.085 172.235 691.269 172.63C707.258 206.811 710.599 228.814 701.787 241.876C689.903 259.488 656.684 259.188 614.47 256.919C608.159 262.844 605.648 268.279 607.002 273.071C610.088 283.977 631.999 288.601 632.85 288.775Z" fill="black"/>
<path d="M875.33 365.228C901.727 291.056 874.057 164.28 795.12 128.67C729.999 99.2942 695.366 133.217 690.577 148.995C681.624 178.488 698.826 181.014 732.779 214.968C766.733 248.918 736.947 304.008 736.947 304.008C778.041 337.325 809.964 388.018 875.33 365.232" fill="#E0EBA5"/>
<path d="M844.141 371.695C842.65 371.695 841.165 371.655 839.683 371.573C829.447 370.997 819.67 368.443 809.793 363.765C791.491 355.093 775.56 340.179 760.156 325.757C752.51 318.601 744.604 311.201 736.463 304.599L735.97 304.201L736.273 303.641C736.346 303.503 743.71 289.74 746.849 272.042C748.686 261.683 748.738 252.023 746.999 243.327C744.834 232.497 739.87 223.133 732.24 215.503C723.719 206.985 716.104 200.316 709.986 194.958C700.644 186.773 693.896 180.864 690.347 174.195C686.676 167.302 686.526 159.697 689.845 148.772C692.303 140.673 701.55 129.429 716.667 122.568C731.854 115.675 757.847 111.015 795.432 127.972C814.398 136.527 831.168 150.59 845.283 169.77C858.208 187.337 868.361 208.366 875.459 232.27C882.106 254.659 885.682 278.763 885.799 301.978C885.915 325.273 882.547 347.233 876.05 365.485L875.927 365.831L875.581 365.951C864.531 369.803 854.197 371.695 844.141 371.695ZM737.911 303.806C745.924 310.337 753.689 317.606 761.203 324.639C776.522 338.981 792.361 353.81 810.448 362.381C820.145 366.973 829.735 369.481 839.769 370.042C850.923 370.666 862.366 368.896 874.73 364.625C881.086 346.609 884.384 324.961 884.268 301.984C884.151 278.913 880.596 254.956 873.992 232.705C867.044 209.306 856.689 187.857 844.049 170.677C830.093 151.711 813.525 137.813 794.804 129.368C757.737 112.647 732.197 117.2 717.301 123.961C710.415 127.087 704.227 131.426 699.407 136.506C695.445 140.682 692.493 145.315 691.308 149.216C684.75 170.817 692.435 177.548 710.997 193.806C717.13 199.177 724.766 205.864 733.321 214.422C741.175 222.276 746.282 231.906 748.505 243.051C750.278 251.937 750.226 261.796 748.349 272.351C745.523 288.248 739.332 301.02 737.911 303.806Z" fill="#1C1C1C"/>
<path d="M492.326 265.483L610.786 265.853L610.602 258.061L495.676 258.03L492.326 265.483Z" fill="#F7F8F9"/>
<path d="M491.42 266.071L611.389 266.445L611.178 257.473L495.293 257.439L491.42 266.071ZM610.183 265.263L493.236 264.898L496.056 258.618L610.03 258.649L610.183 265.263Z" fill="#1C1C1C"/>
<path d="M456.575 137.611L492.152 265.74L495.676 258.031L463.896 137.737L456.575 137.611Z" fill="#F7F8F9"/>
<path d="M492.014 266.319L496.298 258.082L496.246 257.88L464.349 137.155L455.794 137.011L492.014 266.319ZM495.051 257.975L492.286 264.029L457.353 138.214L463.44 138.318L495.051 257.975Z" fill="#1C1C1C"/>
<path d="M409.672 140.994L445.323 264.045L492.326 265.483L458.44 137.678L409.672 140.994Z" fill="#F7F8F9"/>
<path d="M444.628 265.483L493.107 266.126L492.896 265.333L458.884 137.057L408.907 140.455L444.628 265.483ZM491.549 264.84L445.436 264.029L410.441 141.533L457.999 138.3L491.552 264.84H491.549Z" fill="#1C1C1C"/>
<path d="M443.531 200.837C444.321 205.898 447.35 209.628 450.292 209.168C453.235 208.706 454.98 204.233 454.19 199.171C453.4 194.113 450.372 190.383 447.429 190.843C444.487 191.302 442.738 195.779 443.531 200.837Z" fill="#F7F8F9"/>
<path d="M449.512 209.784C449.803 209.805 450.096 209.793 450.387 209.75C452.029 209.493 453.379 208.201 454.196 206.11C454.971 204.125 455.176 201.63 454.778 199.082C453.924 193.617 450.657 189.744 447.344 190.261C444.028 190.779 442.099 195.466 442.953 200.929C443.351 203.476 444.309 205.791 445.651 207.445C446.814 208.878 448.158 209.686 449.512 209.784ZM448.115 191.4C450.51 191.578 452.941 194.967 453.612 199.263C453.979 201.609 453.795 203.89 453.097 205.681C452.439 207.365 451.413 208.397 450.204 208.584C448.994 208.773 447.702 208.106 446.563 206.701C445.35 205.206 444.481 203.094 444.113 200.748C443.388 196.097 444.946 191.826 447.521 191.425C447.717 191.394 447.916 191.388 448.112 191.4H448.115Z" fill="#010101"/>
<path d="M682.992 115.375C694.392 122.151 706.539 120.881 712.681 110.543C718.823 100.209 714.561 86.3359 703.161 79.5599C691.762 72.7838 669.633 82.1748 669.633 82.1748C669.633 82.1748 671.593 108.596 682.992 115.375Z" fill="#1C1C1C"/>
<path d="M719.983 122.776L704.707 106.189L695.353 130.063L701.336 137.182C701.336 137.182 705.702 153.309 715.66 149.794C725.62 146.279 724.092 129.671 719.983 122.779" fill="white"/>
<path d="M719.383 148.374C720.804 147.091 721.919 145.379 722.672 143.294C725.088 136.616 723.465 127.259 720.581 122.421L720.544 122.36L704.466 104.901L694.551 130.198L700.709 137.519C701.073 138.796 703.66 147.18 709.114 150.042C711.233 151.154 713.514 151.295 715.893 150.453C717.2 149.99 718.37 149.292 719.383 148.377M719.42 123.199C722.121 127.782 723.627 136.555 721.361 142.822C720.201 146.034 718.205 148.159 715.431 149.136C713.428 149.843 711.52 149.73 709.76 148.805C704.512 146.05 702.035 137.091 702.01 137.002L701.97 136.852L696.153 129.932L704.95 107.479L719.42 123.192V123.199Z" fill="#1C1C1C"/>
<path d="M688.776 90.6932C692.107 97.8703 699.058 99.6095 706.575 97.0987C708.945 96.4833 711.722 98.5042 712.901 101.796C713.914 104.616 713.44 107.482 711.897 108.921C713.513 118.143 709.851 126.833 702.689 129.469C694.398 132.522 684.563 126.316 680.72 115.605C676.88 104.897 680.484 93.7429 688.776 90.6901" fill="white"/>
<path d="M707.316 127.454C708.929 126 710.261 124.132 711.223 121.949C712.87 118.207 713.369 113.679 712.643 109.159C714.214 107.429 714.588 104.438 713.559 101.566C712.248 97.916 709.171 95.7084 706.397 96.4279L706.354 96.4402C698.574 99.0398 692.398 96.8382 689.407 90.4021L689.137 89.8203L688.534 90.0408C679.902 93.219 676.102 104.793 680.065 115.844C682.294 122.05 686.547 127.001 691.737 129.423C695.515 131.187 699.385 131.429 702.928 130.124C704.539 129.53 706.017 128.624 707.316 127.451M706.771 97.766C708.801 97.2547 711.204 99.1224 712.245 102.031C713.133 104.505 712.797 107.129 711.422 108.412L711.146 108.67L711.21 109.043C712.79 118.051 709.104 126.367 702.447 128.82C699.26 129.993 695.76 129.766 692.328 128.162C687.471 125.896 683.479 121.233 681.378 115.375C677.762 105.298 680.931 94.799 688.433 91.5809C691.813 98.1702 698.617 100.482 706.771 97.7691V97.766Z" fill="black"/>
<path d="M679.658 116.046C679.367 114.938 678.718 111.995 678.479 110.917C680.491 113.829 683.758 118.186 686.066 119.69C688.372 121.193 689.502 118.719 691.909 117.755C695.28 116.398 699.612 116.952 701.361 114.197C705.448 107.751 704.116 97.7143 704.116 97.7143C704.26 97.6347 705.35 96.7988 706.575 97.1019C706.575 97.1019 707.163 101.664 709.359 105.485C709.922 106.465 711.141 108.223 711.992 108.829C711.958 108.86 711.931 108.896 711.897 108.924C715.847 120.238 708.501 134.546 701.336 137.182C693.048 140.235 682.441 126.702 679.658 116.046Z" fill="#1C1C1C"/>
<path d="M700.614 117.935C700.614 117.935 697.625 120.765 694.245 121.842C690.861 122.92 689.548 121.466 689.548 121.466C689.548 121.466 692.313 125.697 695.828 124.767C699.343 123.836 700.614 117.938 700.614 117.938" fill="white"/>
<path d="M684.459 113.686C686.786 111.585 686.853 107.856 684.612 105.372C682.371 102.892 678.656 102.583 676.329 104.684C674.002 106.784 673.932 110.513 676.173 112.997C678.415 115.477 682.132 115.786 684.459 113.686ZM677.058 105.492C678.938 103.793 681.966 104.065 683.807 106.101C685.647 108.137 685.61 111.178 683.73 112.877C681.847 114.577 678.819 114.304 676.979 112.268C675.138 110.232 675.175 107.191 677.058 105.492Z" fill="#1C1C1C"/>
<path d="M699.214 110.241C701.994 107.733 702.077 103.281 699.401 100.32C696.725 97.3594 692.291 96.9889 689.511 99.4997C686.733 102.007 686.651 106.459 689.327 109.42C692 112.381 696.437 112.752 699.214 110.241ZM690.38 100.461C692.628 98.4311 696.241 98.7587 698.439 101.19C700.635 103.621 700.592 107.249 698.344 109.279C696.1 111.31 692.484 110.982 690.288 108.551C688.093 106.12 688.136 102.491 690.38 100.461Z" fill="black"/>
<path d="M688.375 106.471L688.029 105.439L684.912 106.493L685.258 107.521L688.375 106.471Z" fill="black"/>
<path d="M706.875 97.5517L706.272 96.6484L699.441 101.211L700.044 102.114L706.875 97.5517Z" fill="black"/>
<path d="M690.758 107.022C691.263 107.583 692.126 107.626 692.687 107.12C693.247 106.615 693.29 105.752 692.785 105.191C692.279 104.631 691.416 104.588 690.856 105.093C690.295 105.599 690.252 106.462 690.758 107.022Z" fill="#1C1C1C"/>
<path d="M680.399 109.971C680.907 110.531 681.771 110.574 682.331 110.069C682.888 109.564 682.934 108.7 682.429 108.14C681.921 107.579 681.057 107.537 680.5 108.042C679.94 108.547 679.894 109.41 680.399 109.971Z" fill="#1C1C1C"/>
<path d="M692.233 116.609C692.484 116.386 692.539 116.006 692.352 115.715C692.144 115.391 691.712 115.299 691.391 115.507C690.301 116.205 688.415 116.965 687.824 116.374C687.276 115.823 687.312 112.209 687.91 108.483C687.968 108.103 687.71 107.745 687.331 107.687C686.951 107.629 686.593 107.886 686.532 108.266C686.25 110.042 685.432 115.948 686.838 117.357C688.455 118.976 691.771 116.919 692.144 116.677C692.178 116.655 692.205 116.634 692.233 116.606" fill="#1C1C1C"/>
<path d="M737.439 304.284L736.45 303.727C750.373 279.011 749.365 257.491 746.067 243.795C742.292 228.115 733.345 213.81 722.129 205.528C708.492 195.454 700.509 187.223 696.216 182.089C691.538 176.491 690.114 173.316 690.056 173.184L691.094 172.728C691.152 172.854 696.96 185.53 722.803 204.615C734.227 213.051 743.336 227.598 747.17 243.529C750.516 257.424 751.542 279.243 737.439 304.284Z" fill="black"/>
<path d="M850.32 371.303L849.901 370.92L849.393 371.177L849.481 370.54C849.533 370.479 850.029 369.922 850.786 368.654L851.759 369.236C850.966 370.568 850.421 371.19 850.32 371.303ZM854.426 363.63L853.367 363.219C854.05 361.462 854.684 359.524 855.259 357.46L856.352 357.763C855.767 359.864 855.118 361.839 854.426 363.63ZM857.785 351.774L856.674 351.547C857.06 349.64 857.412 347.622 857.718 345.546L858.839 345.711C858.532 347.806 858.177 349.845 857.785 351.774ZM859.592 339.612L858.462 339.499C858.661 337.539 858.826 335.494 858.958 333.418L860.091 333.488C859.959 335.579 859.791 337.64 859.592 339.612ZM860.376 327.355L859.243 327.321C859.304 325.343 859.338 323.289 859.344 321.216H860.477C860.471 323.301 860.437 325.368 860.376 327.355ZM859.28 315.107C859.237 313.114 859.166 311.06 859.074 308.999L860.207 308.95C860.299 311.017 860.37 313.08 860.415 315.083L859.28 315.107ZM858.741 302.896C858.609 300.9 858.456 298.849 858.287 296.8L859.417 296.705C859.589 298.76 859.742 300.817 859.87 302.823L858.741 302.896ZM857.727 290.71C857.528 288.72 857.308 286.671 857.072 284.629L858.199 284.5C858.434 286.549 858.655 288.6 858.857 290.597L857.727 290.71ZM856.3 278.569C856.012 276.567 855.688 274.54 855.333 272.541L856.45 272.345C856.805 274.353 857.133 276.392 857.421 278.41L856.3 278.569ZM854.172 266.545C853.756 264.567 853.3 262.565 852.816 260.593L853.918 260.323C854.402 262.305 854.861 264.319 855.281 266.313L854.172 266.545ZM851.266 254.686C850.721 252.736 850.137 250.764 849.527 248.832L850.611 248.492C851.224 250.437 851.811 252.418 852.36 254.38L851.266 254.686ZM847.604 243.036C846.934 241.122 846.223 239.193 845.495 237.304L846.551 236.894C847.286 238.795 847.999 240.733 848.673 242.659L847.604 243.036ZM843.201 231.642C842.408 229.772 841.579 227.892 840.73 226.054L841.759 225.58C842.613 227.429 843.449 229.318 844.245 231.198L843.201 231.642ZM838.079 220.552C837.163 218.73 836.211 216.908 835.246 215.139L836.242 214.597C837.212 216.379 838.171 218.21 839.092 220.044L838.079 220.552ZM832.234 209.823C831.186 208.047 830.109 206.299 829.034 204.621L829.989 204.009C831.073 205.699 832.157 207.459 833.21 209.248L832.234 209.823ZM825.632 199.55C823.403 196.387 821.988 194.694 821.976 194.676L822.846 193.947C822.904 194.018 824.3 195.689 826.56 198.898L825.632 199.55Z" fill="black"/>
<path d="M689.863 413.267H855.259V431.396H689.863V413.267ZM691.29 429.966H853.832V414.697H691.29V429.966Z" fill="#1C1C1C"/>
<path d="M852.717 433.732L852.209 430.922C852.328 430.9 864.368 428.656 876.218 421.996C883.11 418.123 888.591 413.533 892.504 408.358C897.354 401.947 899.813 394.583 899.813 386.472V226.691H902.673V386.472C902.673 395.232 900.009 403.187 894.761 410.113C890.593 415.612 884.803 420.459 877.552 424.525C865.289 431.402 853.226 433.641 852.717 433.732Z" fill="black"/>
<path d="M655.162 633.811L652.364 633.239L693.562 430.775L696.364 431.345L655.162 633.811Z" fill="black"/>
<path d="M902.591 635.609L851.08 431.409L853.851 430.711L905.365 634.907L902.591 635.609Z" fill="black"/>
<path d="M706.352 266.107H392.952V283.735H706.352V266.107Z" fill="white"/>
<path d="M392.238 265.394H707.065V284.449H392.238V265.394ZM393.668 283.022H705.638V266.821H393.668V283.022Z" fill="black"/>
<path d="M685.108 283.977H677.456V635.257H685.108V283.977Z" fill="white"/>
<path d="M685.821 635.973H676.74V283.977H678.17V634.543H684.391V283.977H685.821V635.973Z" fill="#1C1C1C"/>
<path d="M416.547 283.977H410.037V635.257H416.547V283.977Z" fill="white"/>
<path d="M417.257 635.973H409.32V283.977H410.75V634.543H415.83V283.977H417.257V635.973Z" fill="#1C1C1C"/>
<path d="M712.472 259.598C712.472 259.598 643.903 259.482 639.993 259.224C636.083 258.967 623.976 245.718 623.976 245.718C620.881 242.185 615.783 241.205 611.597 243.339L586.303 253.226C584.126 254.074 583.051 256.527 583.899 258.704L587.307 267.461C588.124 269.558 590.626 270.419 592.561 269.271L596.79 266.76L610.357 267.574C614.38 268.572 619.365 279.035 631.273 279.816C643.181 280.6 749.157 283.31 749.157 283.31C753.514 283.447 717.436 259.378 712.472 259.598Z" fill="#F7F8F9"/>
<path d="M631.233 280.404C643.019 281.179 748.083 283.87 749.145 283.898C749.653 283.913 749.895 283.689 750.009 283.499C750.174 283.215 750.143 282.878 749.914 282.498C748.707 280.496 739.871 274.271 732.173 269.332C728.349 266.879 715.642 258.891 712.46 259.01C711.202 259.007 643.861 258.888 640.033 258.637C637.02 258.438 627.734 248.958 624.412 245.32C621.147 241.597 615.783 240.562 611.359 242.8L586.088 252.678C583.614 253.643 582.387 256.441 583.351 258.915L586.759 267.675C587.209 268.836 588.146 269.733 589.325 270.14C590.504 270.548 591.793 270.413 592.864 269.776L596.934 267.357L610.265 268.159C611.478 268.487 612.948 269.92 614.647 271.573C618.248 275.076 623.181 279.874 631.233 280.404ZM748.591 282.706C740.076 282.486 642.615 279.972 631.313 279.228C623.692 278.729 618.94 274.105 615.471 270.728C613.548 268.86 612.029 267.381 610.501 267.002L610.449 266.99H610.394L596.643 266.16L592.261 268.765C591.49 269.225 590.556 269.32 589.708 269.026C588.856 268.735 588.183 268.086 587.855 267.247L584.447 258.49C583.719 256.619 584.649 254.503 586.517 253.774L611.839 243.875L611.867 243.863C615.814 241.851 620.612 242.773 623.533 246.107C624.797 247.488 635.924 259.549 639.954 259.812C643.839 260.07 709.671 260.183 712.472 260.189H712.497C714.349 260.106 722.2 264.307 732.032 270.642C736.349 273.426 740.458 276.243 743.603 278.576C746.781 280.934 748.07 282.131 748.591 282.706Z" fill="#1C1C1C"/>
<path d="M584.174 260.382L605.537 252.941L605.149 251.83L583.789 259.267L584.174 260.382Z" fill="#1C1C1C"/>
<path d="M606.524 261.307L594.374 260.508L586.416 265.174" fill="#F7F8F9"/>
<path d="M586.716 265.682L594.515 261.108L606.487 261.895L606.564 260.719L594.23 259.907L586.119 264.666L586.716 265.682Z" fill="#1C1C1C"/>
<path d="M641.681 259.276C621.279 288.928 638.98 300.315 638.98 300.315C682.129 320.919 735.663 322.187 763.129 308.482C817.447 281.371 845.412 159.011 782.548 128.67C752.492 114.163 773.267 199.777 728.906 246.135C712.702 263.064 679.064 261.607 641.681 259.276Z" fill="#E0EBA5"/>
<path d="M694.752 260.086C684.379 261.445 672.243 261.624 656.499 260.591C652.027 260.294 647.264 259.904 642.168 259.412L642.185 259.235C665.16 261.448 681.389 261.66 694.729 259.907C711.441 257.715 723.53 252.302 731.607 243.303L731.608 243.303C738.21 235.945 743.683 226.506 747.883 215.265C751.25 206.254 753.811 196.066 755.502 184.987L755.502 184.987C758.091 168.013 757.812 154.064 757.724 151.3L757.904 151.291C757.991 154.072 758.266 168.026 755.68 184.99L756.175 185.065L755.68 184.99C753.989 196.097 751.421 206.299 748.055 215.316C743.837 226.608 738.343 236.061 731.739 243.422L732.111 243.756L731.739 243.422C723.682 252.404 711.613 257.872 694.752 260.086ZM694.752 260.086L694.817 260.581L694.752 260.086C694.752 260.086 694.752 260.086 694.752 260.086Z" fill="#010101" stroke="black"/>
<path d="M751.157 314.125C768.542 306.948 783.218 294.774 794.768 277.942C803.993 264.5 811.259 248.076 816.357 229.123C820.892 212.273 822.842 196.501 823.678 186.238C824.588 175.114 824.419 167.869 824.416 167.799L823.24 167.826C823.247 168.114 823.85 196.761 815.212 228.844C810.148 247.663 802.937 263.961 793.788 277.29C782.37 293.922 767.875 305.95 750.707 313.035L751.157 314.125Z" fill="#010101"/>
<path d="M716.198 318.127C713.155 318.127 710.053 318.044 706.902 317.875C683.274 316.62 659.057 310.582 638.716 300.87L638.649 300.83C638.432 300.689 633.269 297.29 631.689 289.43C629.965 280.845 633.156 270.584 641.175 258.927L641.371 258.643L641.717 258.664C661.078 259.873 678.313 260.755 693.176 259.319C709.912 257.699 721.125 253.376 728.461 245.709L729.346 246.557C721.796 254.448 710.341 258.888 693.292 260.538C678.433 261.974 661.261 261.107 641.99 259.907C634.32 271.144 631.258 280.982 632.883 289.152C634.047 295.003 637.559 298.647 639.28 299.779C659.473 309.415 683.509 315.408 706.967 316.654C729.356 317.842 749.203 314.743 762.853 307.933L763.401 309.03C751.493 314.97 734.974 318.127 716.198 318.127Z" fill="black"/>
<path d="M514.121 585.372L512.743 584.585C513.481 583.293 586.744 455.314 610.29 431.767L611.414 432.891C588.018 456.287 514.859 584.083 514.121 585.372Z" fill="white"/>
</svg>
