<svg width="28" height="23" viewBox="0 0 28 23" fill="none" xmlns="http://www.w3.org/2000/svg">
<path d="M24.6971 3.15093L24.697 3.15082C23.3012 1.87666 21.4525 1.10022 19.4853 0.959736C17.5409 0.820891 15.6052 1.31215 14.0194 2.34688C12.3545 1.23894 10.2948 0.739029 8.2457 0.945622C6.17374 1.15452 4.26375 2.07058 2.90119 3.51184C1.53836 4.95339 0.82452 6.81344 0.906328 8.71763C0.98813 10.6217 1.85922 12.4248 3.34096 13.7645C3.34102 13.7646 3.34108 13.7646 3.34114 13.7647L11.4159 21.1284L11.4165 21.129C12.1119 21.7521 13.0467 22.1 14.0189 22.1C14.9911 22.1 15.9259 21.7521 16.6213 21.129L16.6219 21.1284L24.697 13.7644L24.6971 13.7643C26.2349 12.3556 27.1 10.4481 27.1 8.4576C27.1 6.46711 26.2349 4.5596 24.6971 3.15093ZM14.6538 19.3349L14.6534 19.3352C14.5712 19.4108 14.4728 19.4713 14.3638 19.5127C14.2548 19.5541 14.1375 19.5755 14.0189 19.5755C13.9003 19.5755 13.783 19.5541 13.674 19.5127C13.565 19.4713 13.4666 19.4108 13.3844 19.3352L13.3842 19.3351L5.3098 11.948C5.30971 11.9479 5.30962 11.9478 5.30953 11.9477C4.30912 11.0165 3.75086 9.76777 3.75086 8.46944C3.75086 7.17125 4.30899 5.92263 5.30917 4.99147C6.32903 4.075 7.70612 3.55976 9.14266 3.55976C10.5793 3.55976 11.9565 4.07508 12.9764 4.99168C13.1069 5.11137 13.2616 5.20592 13.4313 5.27033C13.6013 5.33479 13.7833 5.36788 13.9669 5.36788C14.1505 5.36788 14.3325 5.33479 14.5024 5.27033C14.6722 5.20593 14.8269 5.11137 14.9574 4.9917C15.9772 4.07509 17.3545 3.55976 18.7911 3.55976C20.2279 3.55976 21.6052 4.07516 22.6251 4.9919C23.6394 5.91099 24.2161 7.15314 24.2351 8.45159C24.2542 9.75007 23.714 11.0057 22.727 11.9489L22.6961 11.9784V12.0125L14.6538 19.3349Z" fill="#FF7070" stroke="#DB2C2C" stroke-width="0.2"/>
</svg>
