<svg width="14" height="14" viewBox="0 0 14 14" fill="none" xmlns="http://www.w3.org/2000/svg">
<path d="M12.9394 11.8841L12.9394 11.8841L12.9372 11.8819L10.8071 9.76739C11.6382 8.67704 12.0375 7.31574 11.9249 5.94585C11.8086 4.53103 11.1551 3.21453 10.0987 2.26708C9.04221 1.31963 7.66316 0.813246 6.24507 0.852079C4.82697 0.890913 3.47766 1.47201 2.47458 2.47586C1.4715 3.47971 0.890879 4.82999 0.852077 6.24906C0.813276 7.66813 1.31924 9.04817 2.26596 10.1054C3.21269 11.1626 4.52822 11.8167 5.94207 11.9331C7.31112 12.0458 8.67156 11.646 9.76114 10.8142L11.8735 12.9281C11.8735 12.9282 11.8736 12.9282 11.8737 12.9283C11.9433 12.9985 12.0262 13.0542 12.1174 13.0923C12.2088 13.1304 12.3068 13.15 12.4058 13.15C12.5047 13.15 12.6027 13.1304 12.6941 13.0923C12.7855 13.0542 12.8684 12.9984 12.938 12.9281L12.9394 12.9267C13.0745 12.7868 13.15 12.5999 13.15 12.4054C13.15 12.2109 13.0745 12.024 12.9394 11.8841ZM6.40932 10.4641C5.60883 10.4641 4.8263 10.2266 4.1607 9.78149C3.49509 9.33641 2.97629 8.70379 2.66993 7.9636C2.36357 7.22342 2.28341 6.40894 2.4396 5.62316C2.59578 4.83738 2.98128 4.11561 3.54735 3.54912C4.11341 2.98263 4.8346 2.59686 5.61972 2.44057C6.40483 2.28428 7.21863 2.36449 7.9582 2.67107C8.69777 2.97764 9.32991 3.49681 9.77467 4.16295C10.2194 4.82908 10.4568 5.61226 10.4568 6.41343C10.4568 7.48778 10.0304 8.5181 9.2713 9.27775C8.51224 10.0374 7.48275 10.4641 6.40932 10.4641Z" fill="#738801" stroke="#738801" stroke-width="0.3"/>
</svg>
