<svg width="20" height="20" viewBox="0 0 20 20" fill="none" xmlns="http://www.w3.org/2000/svg">
<g clip-path="url(#clip0_3_36374)">
<rect width="20" height="20" rx="2" fill="white"/>
<path d="M15.9394 14.8841L15.9394 14.8841L15.9372 14.8819L13.8071 12.7674C14.6382 11.677 15.0375 10.3157 14.9249 8.94585C14.8086 7.53103 14.1551 6.21453 13.0987 5.26708C12.0422 4.31963 10.6632 3.81325 9.24507 3.85208C7.82697 3.89091 6.47766 4.47201 5.47458 5.47586C4.4715 6.47971 3.89088 7.82999 3.85208 9.24906C3.81328 10.6681 4.31924 12.0482 5.26596 13.1054C6.21269 14.1626 7.52822 14.8167 8.94207 14.9331C10.3111 15.0458 11.6716 14.646 12.7611 13.8142L14.8735 15.9281C14.8735 15.9281 14.8736 15.9282 14.8737 15.9283C14.9433 15.9985 15.0262 16.0542 15.1174 16.0923C15.2088 16.1304 15.3068 16.15 15.4058 16.15C15.5047 16.15 15.6027 16.1304 15.6941 16.0923C15.7855 16.0542 15.8684 15.9984 15.938 15.9281L15.9394 15.9267C16.0745 15.7868 16.15 15.5999 16.15 15.4054C16.15 15.2109 16.0745 15.024 15.9394 14.8841ZM9.40932 13.4641C8.60883 13.4641 7.8263 13.2266 7.1607 12.7815C6.49509 12.3364 5.97629 11.7038 5.66993 10.9636C5.36357 10.2234 5.28341 9.40894 5.4396 8.62316C5.59578 7.83738 5.98128 7.11561 6.54735 6.54912C7.11341 5.98263 7.8346 5.59686 8.61972 5.44057C9.40483 5.28428 10.2186 5.36449 10.9582 5.67107C11.6978 5.97764 12.3299 6.49681 12.7747 7.16295C13.2194 7.82908 13.4568 8.61226 13.4568 9.41343C13.4568 10.4878 13.0304 11.5181 12.2713 12.2777C11.5122 13.0374 10.4828 13.4641 9.40932 13.4641Z" fill="#BABABA" stroke="#BABABA" stroke-width="0.3"/>
</g>
<defs>
<clipPath id="clip0_3_36374">
<rect width="20" height="20" rx="2" fill="white"/>
</clipPath>
</defs>
</svg>
