<svg width="819" height="693" viewBox="0 0 819 693" fill="none" xmlns="http://www.w3.org/2000/svg">
<mask id="mask0_15_65066" style="mask-type:alpha" maskUnits="userSpaceOnUse" x="0" y="20" width="819" height="673">
<path d="M0 40C0 28.9543 8.95431 20 20 20H799C810.046 20 819 28.9543 819 40V673C819 684.046 810.046 693 799 693H20C8.9543 693 0 684.046 0 673V40Z" fill="#E9F6E5"/>
</mask>
<g mask="url(#mask0_15_65066)">
<mask id="mask1_15_65066" style="mask-type:alpha" maskUnits="userSpaceOnUse" x="-123" y="31" width="982" height="662">
<rect x="-1" y="1" width="979.586" height="660" transform="matrix(-1 0 0 1 857 31)" fill="#CCEFCB" stroke="#1C1C1C" stroke-width="2"/>
</mask>
<g mask="url(#mask1_15_65066)">
<path d="M273.225 597.538C273.225 597.538 46.9908 420.841 111.439 336.512C175.892 252.184 273.225 597.538 273.225 597.538Z" fill="#E0EBA5"/>
<path d="M273.223 598.519C273.01 598.519 272.797 598.452 272.62 598.312C272.053 597.867 215.432 553.458 167.43 499.298C139.199 467.449 119.415 438.505 108.622 413.258C95.0458 381.476 95.728 355.449 110.657 335.916C118.812 325.244 127.979 320.798 137.895 322.692C152.245 325.433 168.338 341.666 185.733 370.92C199.56 394.169 214.281 425.708 229.496 464.659C255.389 530.934 273.984 596.618 274.167 597.27C274.283 597.678 274.124 598.117 273.771 598.354C273.607 598.464 273.412 598.519 273.223 598.519ZM133.546 324.239C125.914 324.239 118.758 328.552 112.222 337.11C97.7502 356.04 97.1471 381.403 110.431 412.491C121.133 437.542 140.807 466.31 168.898 498.001C211.175 545.698 260.152 585.813 271.432 594.864C267.522 581.361 250.412 523.595 227.663 465.366C212.49 426.518 197.811 395.083 184.046 371.925C166.949 343.176 151.301 327.261 137.53 324.623C136.184 324.367 134.856 324.239 133.546 324.239Z" fill="#393939"/>
<path d="M272.862 597.737L116.125 331.035L116.801 330.639L273.544 597.335L272.862 597.737Z" fill="#393939"/>
<path d="M161.172 407.272C161.129 407.272 161.086 407.266 161.05 407.254L101.164 386.886L101.42 386.142L160.855 406.358L169.151 348.482L169.93 348.592L161.561 406.937C161.543 407.053 161.476 407.156 161.379 407.217C161.318 407.254 161.245 407.272 161.172 407.272Z" fill="#393939"/>
<path d="M197.839 469.655C197.803 469.655 197.772 469.655 197.736 469.643L131.113 452.028L131.314 451.267L197.504 468.766L204.74 409.971L205.52 410.068L198.229 469.314C198.211 469.43 198.15 469.528 198.058 469.595C197.991 469.637 197.912 469.662 197.839 469.662" fill="#393939"/>
<path d="M234.254 531.646C234.211 531.646 234.175 531.646 234.138 531.628L183.949 516.34L184.175 515.59L233.876 530.732L235.442 484.076L236.227 484.101L234.644 531.268C234.638 531.39 234.577 531.506 234.479 531.573C234.412 531.622 234.333 531.646 234.254 531.646Z" fill="#393939"/>
<path d="M271.742 607.616C271.742 607.616 235.33 195.25 377.358 194.988C542.165 194.684 271.742 607.61 271.742 607.61" fill="#E0EBA5"/>
<path d="M271.74 608.597C271.661 608.597 271.582 608.585 271.503 608.567C271.094 608.463 270.796 608.116 270.76 607.702C270.693 606.952 264.163 531.541 267.562 446.335C269.56 396.268 274.548 352.664 282.381 316.721C292.193 271.691 306.55 238.599 325.042 218.365C339.775 202.237 357.378 194.044 377.35 194.008C377.411 194.008 377.478 194.008 377.533 194.008C400.179 194.008 415.906 201.859 424.293 217.342C435.116 237.326 433.825 270.357 420.456 315.515C409.803 351.494 391.493 395.263 366.045 445.617C322.739 531.303 273.056 607.391 272.562 608.146C272.374 608.426 272.063 608.591 271.74 608.591M377.533 195.969C377.472 195.969 377.417 195.969 377.356 195.969C357.951 196.006 340.841 203.985 326.491 219.681C308.237 239.659 294.039 272.446 284.3 317.135C276.491 352.968 271.521 396.463 269.523 446.409C266.502 522.131 271.338 590.093 272.483 604.656C281.266 591.031 325.364 521.753 364.297 444.715C389.696 394.471 407.951 350.812 418.573 314.949C431.791 270.308 433.137 237.783 422.569 218.274C414.547 203.473 399.399 195.963 377.533 195.963V195.969Z" fill="#393939"/>
<path d="M272.119 607.72L271.363 607.506L387.127 194.58L387.882 194.787L272.119 607.72Z" fill="#393939"/>
<path d="M354.5 312.805C354.463 312.805 354.427 312.805 354.39 312.787C354.281 312.756 354.189 312.671 354.141 312.568L318.07 230.639L318.789 230.322L354.677 311.825L430.386 262.196L430.813 262.854L354.719 312.738C354.652 312.781 354.579 312.799 354.5 312.799" fill="#393939"/>
<path d="M334.448 384.324C334.412 384.324 334.375 384.324 334.339 384.305C334.235 384.275 334.156 384.208 334.101 384.117L288.797 298.947L289.491 298.582L334.613 383.398L410.627 341.492L411.011 342.181L334.643 384.281C334.582 384.311 334.515 384.33 334.448 384.33" fill="#393939"/>
<path d="M300.513 505.381C300.477 505.381 300.446 505.381 300.416 505.368C300.3 505.338 300.209 505.265 300.154 505.155L268.969 439.806L269.675 439.465L300.66 504.394L355.149 464.791L355.612 465.424L300.739 505.307C300.672 505.356 300.593 505.381 300.513 505.381Z" fill="#393939"/>
<path d="M318.429 441.475C318.289 441.475 318.161 441.402 318.088 441.28L274.77 365.497L275.452 365.107L318.6 440.598L378.156 418.092L378.437 418.829L318.569 441.451C318.52 441.469 318.472 441.475 318.429 441.475Z" fill="#393939"/>
<path d="M268.871 602.866C268.871 602.866 377.161 391.189 425.724 449.436C482.777 517.873 268.871 602.866 268.871 602.866Z" fill="#E0EBA5"/>
<path d="M268.874 603.845C268.6 603.845 268.338 603.735 268.149 603.522C267.869 603.224 267.814 602.779 267.997 602.413C268.198 602.024 288.468 562.542 315 522.848C330.593 499.514 345.272 480.662 358.623 466.824C375.428 449.404 390.235 439.872 402.63 438.489C411.888 437.454 419.91 440.925 426.482 448.807C435.405 459.515 438.31 471.301 435.125 483.848C431.617 497.644 420.677 512.542 402.593 528.129C388.207 540.536 369.276 553.424 346.326 566.441C307.289 588.581 269.611 603.626 269.233 603.778C269.117 603.82 268.996 603.845 268.874 603.845ZM405.73 440.28C404.786 440.28 403.824 440.335 402.843 440.444C390.923 441.772 376.518 451.103 360.042 468.182C346.77 481.935 332.164 500.695 316.639 523.926C293.889 557.968 275.75 591.846 270.981 600.946C279.971 597.23 312.18 583.55 345.376 564.717C368.21 551.762 387.037 538.946 401.32 526.63C419.088 511.312 429.82 496.755 433.218 483.361C436.246 471.459 433.468 460.258 424.971 450.062C419.551 443.557 413.088 440.28 405.73 440.28Z" fill="#393939"/>
<path d="M269.141 603.151L268.605 602.578L429.015 452.176L429.551 452.748L269.141 603.151Z" fill="#393939"/>
<path d="M384.392 495.452C384.282 495.452 384.185 495.409 384.106 495.33C384.027 495.245 383.99 495.129 384.002 495.013L389.618 443.332L390.398 443.417L384.831 494.63L431.396 491.036L431.456 491.822L384.423 495.452C384.423 495.452 384.398 495.452 384.392 495.452Z" fill="#393939"/>
<path d="M346.594 530.726C346.49 530.726 346.393 530.683 346.319 530.61C346.24 530.531 346.198 530.427 346.204 530.318L348.116 481.115L348.902 481.146L347.002 529.916L401.606 527.266L401.643 528.052L346.612 530.726C346.612 530.726 346.6 530.726 346.594 530.726Z" fill="#393939"/>
<path d="M309.031 565.779C308.927 565.779 308.83 565.736 308.757 565.663C308.678 565.584 308.635 565.468 308.641 565.353L311.492 527.973L312.278 528.034L309.457 564.951L352.106 561.558L352.167 562.344L309.062 565.773C309.062 565.773 309.043 565.773 309.031 565.773" fill="#393939"/>
<path d="M223.927 808.279L182.375 599.355H325.925L286.261 807.975L223.927 808.279Z" fill="white"/>
<path d="M222.8 808.81L180.699 597.133H327.587L287.4 808.499L222.8 808.81ZM184.049 599.886L225.053 806.051L285.122 805.758L324.262 599.886H184.049Z" fill="#393939"/>
<path d="M317.307 997.509C317.307 997.509 348.514 892.95 391.413 769.769C421.201 684.238 553.834 726.241 659.109 717.76C752.78 710.212 752.789 571.853 752.789 571.853C752.789 571.853 337.075 564.616 300.267 656.28C277.416 713.193 206.009 963.701 206.009 963.701C206.009 984.564 270.997 984.564 317.307 997.509Z" fill="white"/>
<path d="M318.039 998.835L318.344 997.818C318.653 996.774 350.031 891.868 392.432 770.124C397.474 755.639 405.534 744.487 417.066 736.034C427.433 728.431 440.443 723.157 456.855 719.899C487.613 713.789 525.142 715.776 564.881 717.879C596.383 719.548 628.962 721.272 659.198 718.836C680.838 717.089 699.293 708.238 714.05 692.515C725.817 679.985 735.25 663.097 742.1 642.312C753.733 607.025 753.867 572.199 753.867 571.853V570.794L752.809 570.776C751.769 570.757 647.579 569.075 540.237 578.619C477.159 584.225 425.339 592.554 386.215 603.378C337.048 616.975 307.797 634.64 299.269 655.877C276.659 712.19 205.687 960.899 204.975 963.404L204.933 963.552V963.7C204.933 978.448 233.764 983.153 267.148 988.598C284.022 991.352 301.469 994.199 317.017 998.549L318.039 998.835ZM507.811 713.669C452.548 713.669 406.56 722.986 390.393 769.412C350.207 884.81 319.915 985.076 316.578 996.187C301.174 991.967 284.059 989.175 267.499 986.472C236.551 981.42 207.314 976.65 207.092 963.848C209.176 956.532 278.924 712.328 301.271 656.682C309.535 636.101 338.305 618.87 386.784 605.458C425.778 594.671 477.468 586.365 540.413 580.768C641.793 571.751 740.362 572.763 751.695 572.916C751.575 578.998 750.433 610.163 740.039 641.684C733.286 662.154 724.006 678.765 712.46 691.059C698.086 706.362 680.108 714.986 659.027 716.682C628.93 719.108 596.425 717.389 564.992 715.725C545.418 714.69 526.104 713.669 507.811 713.669Z" fill="#393939"/>
<path d="M368.999 618.312C502.759 739.695 589.145 862.137 589.145 862.137C590.721 888.703 565.408 938.683 526.811 964.311C526.811 964.311 393.864 808.057 291.565 705.771C281.549 690.182 336.202 641.662 368.999 618.312Z" fill="white"/>
<path d="M569.132 915.144L570.241 913.942C568.998 912.796 566.945 910.892 564.223 908.345L563.105 909.538C565.832 912.089 567.888 913.993 569.132 915.144ZM557.124 903.917L558.243 902.73C556.408 901.001 554.42 899.12 552.29 897.1L551.167 898.283C553.297 900.308 555.289 902.189 557.124 903.917ZM545.237 892.631L546.364 891.452C544.474 889.645 542.505 887.755 540.458 885.786L539.325 886.96C541.373 888.929 543.346 890.824 545.237 892.631ZM533.442 881.275L534.574 880.101C532.67 878.252 530.715 876.353 528.714 874.398L527.572 875.567C529.573 877.522 531.533 879.426 533.442 881.275ZM521.726 869.845L522.867 868.681C520.958 866.804 519.017 864.891 517.044 862.94L515.897 864.1C517.871 866.055 519.817 867.969 521.726 869.845ZM510.092 858.342L511.243 857.182C509.339 855.287 507.407 853.359 505.461 851.404L504.306 852.56C506.256 854.515 508.184 856.442 510.092 858.342ZM498.542 846.755L499.703 845.609C497.803 843.69 495.89 841.749 493.967 839.79L492.798 840.931C494.725 842.896 496.643 844.837 498.542 846.755ZM487.08 835.085L488.25 833.948C486.359 832.007 484.464 830.052 482.56 828.083L481.386 829.215C483.29 831.188 485.19 833.144 487.08 835.085ZM475.72 823.322L476.898 822.19C475.022 820.23 473.141 818.257 471.26 816.278L470.077 817.402C471.958 819.384 473.839 821.358 475.72 823.322ZM464.461 811.453L465.654 810.335C463.805 808.366 461.928 806.355 460.075 804.363L458.878 805.477C460.731 807.469 462.612 809.48 464.461 811.453ZM453.313 799.45L454.515 798.346C452.652 796.326 450.799 794.292 449.001 792.314L447.795 793.41C449.593 795.392 451.451 797.426 453.313 799.45ZM442.327 787.35L443.543 786.26C441.703 784.208 439.878 782.151 438.112 780.159L436.887 781.24C438.653 783.237 440.483 785.294 442.327 787.35ZM431.498 775.089L432.728 774.017C430.916 771.932 429.123 769.852 427.394 767.833L426.151 768.891C427.884 770.915 429.682 773 431.498 775.089ZM420.863 762.651L422.111 761.602C420.346 759.499 418.594 757.383 416.893 755.321L415.636 756.357C417.332 758.427 419.093 760.544 420.863 762.651ZM410.474 750.002L411.745 748.98C410.011 746.822 408.306 744.668 406.679 742.579L405.39 743.586C407.026 745.675 408.736 747.839 410.474 750.002ZM400.398 737.097L401.701 736.108C400.024 733.895 398.383 731.695 396.83 729.559L395.508 730.525C397.07 732.665 398.716 734.874 400.398 737.097ZM390.748 723.856L392.088 722.922C390.48 720.621 388.936 718.351 387.499 716.174L386.14 717.076C387.582 719.262 389.135 721.545 390.748 723.856ZM381.721 710.161L383.112 709.306C381.629 706.898 380.238 704.541 378.976 702.29L377.552 703.085C378.823 705.359 380.228 707.74 381.721 710.161ZM373.721 695.811L375.186 695.094C373.92 692.506 372.815 690.015 371.9 687.686L370.384 688.277C371.313 690.653 372.436 693.185 373.721 695.811ZM367.833 680.42L369.418 680.027C368.706 677.166 368.35 674.536 368.346 672.202H366.714C366.714 674.67 367.093 677.434 367.833 680.42ZM370.282 664.979C371.553 663.194 373.531 661.503 376.161 659.955L375.334 658.55C372.505 660.213 370.356 662.058 368.951 664.031L370.282 664.979ZM383.427 656.595C385.724 655.744 388.321 654.926 391.141 654.173L390.72 652.597C387.85 653.364 385.206 654.196 382.858 655.065L383.427 656.595ZM399.048 652.333C401.554 651.825 404.243 651.34 407.049 650.891L406.795 649.278C403.966 649.731 401.248 650.221 398.72 650.734L399.048 652.333ZM415.109 649.736C417.698 649.408 420.42 649.093 423.202 648.811L423.036 647.185C420.24 647.471 417.503 647.785 414.901 648.118L415.109 649.736ZM586.26 649.32L586.371 647.688C583.806 647.522 581.06 647.346 578.209 647.175L578.112 648.807C580.959 648.978 583.704 649.149 586.26 649.32ZM569.959 648.335L570.047 646.708C567.334 646.556 564.588 646.413 561.889 646.279L561.806 647.91C564.505 648.044 567.246 648.187 569.959 648.335ZM431.318 648.063C433.943 647.845 436.679 647.642 439.452 647.462L439.346 645.835C436.564 646.015 433.818 646.219 431.184 646.436L431.318 648.063ZM553.653 647.527L553.727 645.895C551.023 645.77 548.278 645.655 545.56 645.548L545.496 647.18C548.209 647.286 550.954 647.402 553.653 647.527ZM447.596 646.99C450.235 646.856 452.976 646.732 455.744 646.625L455.68 644.994C452.907 645.1 450.157 645.225 447.513 645.359L447.596 646.99ZM537.338 646.875L537.398 645.243C534.685 645.146 531.94 645.058 529.231 644.975L529.181 646.611C531.889 646.69 534.63 646.778 537.338 646.875ZM592.943 646.537C593.063 643.746 593.396 641.074 593.941 638.602L592.347 638.255C591.783 640.82 591.436 643.584 591.312 646.468L592.943 646.537ZM521.023 646.39L521.06 644.758C518.342 644.693 515.592 644.633 512.893 644.582L512.861 646.214C515.56 646.265 518.305 646.325 521.023 646.39ZM463.897 646.353C466.564 646.279 469.309 646.214 472.064 646.163L472.036 644.532C469.277 644.582 466.522 644.647 463.851 644.721L463.897 646.353ZM504.703 646.094L504.722 644.458C501.958 644.425 499.208 644.402 496.55 644.388L496.541 646.02C499.194 646.034 501.94 646.057 504.703 646.094ZM480.231 646.052C482.902 646.024 485.643 646.011 488.388 646.006V644.37C485.638 644.379 482.888 644.393 480.212 644.416L480.231 646.052ZM596.474 631.073C597.62 628.656 599.058 626.414 600.754 624.417L599.506 623.364C597.722 625.467 596.206 627.828 595 630.375L596.474 631.073ZM606.619 619.093C608.704 617.628 611.051 616.334 613.603 615.248L612.96 613.746C610.307 614.878 607.858 616.228 605.681 617.757L606.619 619.093ZM661.374 612.877L661.734 611.287C661.605 611.259 658.508 610.561 653.595 609.951L653.392 611.573C658.222 612.17 661.346 612.872 661.374 612.877ZM621.224 612.733C623.706 612.119 626.373 611.638 629.155 611.301L628.961 609.683C626.114 610.025 623.378 610.52 620.831 611.148L621.224 612.733ZM645.318 610.852L645.405 609.225C643.464 609.119 641.528 609.068 639.656 609.068C638.833 609.068 637.997 609.078 637.179 609.101L637.22 610.732C638.024 610.709 638.842 610.7 639.656 610.7C641.5 610.7 643.404 610.751 645.318 610.852Z" fill="#393939"/>
<path d="M380.114 800.292L381.648 798.744C315.792 733.368 301.968 691.744 301.973 668.339C301.973 659.359 304.043 653.059 305.781 649.357C307.658 645.35 309.562 643.432 309.58 643.414L308.055 641.865C307.718 642.193 299.847 650.134 299.796 668.168C299.754 682.879 304.917 699.888 315.136 718.726C328.451 743.259 350.312 770.703 380.114 800.292Z" fill="#393939"/>
<path d="M394.412 518.787L317.667 507.131C316.617 507.001 309.495 494.425 308.867 493.575C308.867 493.575 298.615 490.557 286.659 487.039C274.707 483.522 247.771 495.155 247.771 495.155C245.714 495.705 235.592 496.62 236.133 498.682L246.953 507.126C260.093 512.15 275.871 494.85 306.144 521.195C316.659 530.346 400.203 519.18 394.412 518.787Z" fill="#F7F8F9"/>
<path d="M247.753 508.303C251.866 509.513 256.151 508.843 261.045 508.076C271.888 506.38 285.388 504.272 305.576 521.84C308.063 524.003 314.053 525.218 323.884 525.556C331.671 525.819 341.617 525.514 353.445 524.655C373.027 523.226 393.724 520.486 395.106 519.64C395.462 519.423 395.633 519.034 395.536 518.651C395.429 518.221 395.087 517.976 394.514 517.93L317.949 506.301C316.914 505.377 312.81 498.467 311.238 495.824C310.235 494.132 309.745 493.309 309.56 493.06L309.385 492.829L286.904 486.21C274.962 482.698 249.278 493.573 247.494 494.34C247.013 494.46 246.066 494.608 244.975 494.784C240.187 495.542 236.453 496.24 235.51 497.686C235.265 498.061 235.195 498.481 235.306 498.902L235.38 499.179L246.528 507.882L246.648 507.928C247.013 508.067 247.383 508.192 247.753 508.303ZM283.651 506.921C282.463 506.569 281.28 506.278 280.092 506.042C272.558 504.536 266.3 505.516 260.782 506.38C255.739 507.166 251.376 507.85 247.379 506.366L237.201 498.416C237.529 498.208 238.269 497.862 239.919 497.464C241.606 497.058 243.621 496.739 245.243 496.48C246.477 496.286 247.448 496.133 247.993 495.985L248.113 495.944C248.381 495.828 274.897 484.472 286.419 487.86L308.322 494.308C308.599 494.747 309.168 495.703 309.759 496.702C316.04 507.277 316.771 507.882 317.547 507.984L389.925 518.974C383.024 520.051 368.789 521.826 352.839 522.972C318.009 525.477 308.987 522.524 306.709 520.546C298.745 513.613 291.166 509.13 283.651 506.921Z" fill="#393939"/>
<path d="M332.552 536.542L332.563 536.545C398.326 545.072 449.553 528.284 484.53 498.001C519.524 467.702 538.335 423.823 539.123 378.029L539.123 378.029C539.363 364.206 535.062 346.852 529.063 334.42C526.057 328.19 522.682 323.318 519.338 320.719C517.676 319.426 516.087 318.747 514.605 318.671C513.151 318.597 511.674 319.096 510.188 320.405L510.188 320.405C496.982 332.033 485.924 350.771 474.652 371.906C472.3 376.317 469.939 380.831 467.549 385.401C458.52 402.663 449.072 420.727 438.071 437.094C424.151 457.806 407.672 475.921 386.246 486.377C364.906 496.79 338.775 499.55 305.601 489.901C296.397 498.565 293.634 505.658 294.301 511.354C294.981 517.162 299.268 521.919 304.972 525.722C310.652 529.508 317.548 532.219 323.058 533.986C325.806 534.868 328.196 535.51 329.897 535.932C330.747 536.143 331.425 536.298 331.889 536.4C332.12 536.452 332.298 536.49 332.418 536.515C332.478 536.527 332.523 536.536 332.552 536.542Z" fill="#F8DB87" stroke="#393939" stroke-width="2"/>
<path d="M552.95 569.256C552.913 569.348 552.879 569.433 552.848 569.512C581.446 592.457 621.865 607.205 660.173 611.316C698.612 615.442 734.61 608.831 754.437 589.43C756.321 549.775 751.519 494.557 732.672 442.739C713.765 390.754 680.76 342.286 626.287 316.29L626.718 315.388L626.287 316.29C598.386 302.974 569.422 300.865 546.619 304.822C535.216 306.801 525.387 310.291 518.017 314.626C510.621 318.977 505.827 324.1 504.253 329.285C498.024 349.804 496.058 379.736 501.903 403.934C504.826 416.029 509.677 426.598 516.832 433.856C523.953 441.079 533.403 445.077 545.711 443.988L546.189 443.945L546.521 444.292C567.123 465.796 568.532 497.414 564.914 523.411C563.1 536.44 560.015 548.133 557.384 556.566C556.068 560.784 554.865 564.19 553.99 566.544C553.552 567.721 553.197 568.635 552.95 569.256Z" fill="#F8DB87" stroke="#393939" stroke-width="2"/>
<path d="M535.588 125.007C528.027 128.404 524.315 136.843 526.64 144.571C526.594 144.589 526.548 144.608 526.506 144.626C515.922 149.382 510.348 160.696 512.414 171.618C511.046 171.964 509.687 172.427 508.356 173.027C495.965 178.592 490.433 193.151 495.997 205.542C497.056 207.89 498.433 209.993 500.06 211.823C499.727 215.839 500.37 219.994 502.14 223.932C507.705 236.323 522.259 241.856 534.65 236.291C540.191 233.8 544.356 229.511 546.777 224.422C547.175 224.265 547.568 224.103 547.965 223.927C560.352 218.363 565.884 203.804 560.319 191.413C558.956 188.381 557.056 185.76 554.778 183.611C561.161 176.591 563.153 166.192 559.021 156.985C557.916 154.526 556.451 152.345 554.727 150.459C558.665 145.809 559.829 139.136 557.167 133.21C553.47 124.988 543.81 121.314 535.588 125.011" fill="#1C1C1C"/>
<path d="M527.258 260.211C534.53 255.599 537.09 244.839 532.69 235.039C527.937 224.456 516.96 219.21 508.31 223.098C504.143 224.972 501.067 228.682 499.67 233.581C498.254 238.546 498.737 244.114 501.046 249.258C505.799 259.842 516.776 265.087 525.426 261.199L525.427 261.199C526.065 260.913 526.677 260.583 527.257 260.212L527.258 260.211Z" fill="#F8DB87" stroke="#393939"/>
<path d="M485.264 272.858C491.522 286.788 507.883 293.005 521.813 286.747C535.739 280.489 541.96 264.127 535.702 250.197C529.448 236.267 513.083 230.051 499.152 236.309C485.227 242.567 479.006 258.928 485.264 272.858Z" fill="#1C1C1C"/>
<path d="M546.96 306.238L530.899 273.326L510.78 299.717L518.651 316.217C518.651 316.217 505.225 372.205 519.682 371.882C534.139 371.554 549.465 317.044 546.96 306.238Z" fill="white"/>
<path d="M521.121 372.557C523.682 371.966 526.325 369.928 529.001 366.48C534.104 359.907 539.363 348.122 543.435 334.15C547.059 321.708 548.81 310.412 547.798 306.045L547.78 305.948L547.734 305.86L531.063 271.695L509.779 299.611L517.747 316.31C517.313 318.158 514.988 328.35 513.472 339.396C511.217 355.9 511.78 366.392 515.159 370.579C516.347 372.049 517.877 372.775 519.702 372.738C520.174 372.724 520.645 372.664 521.121 372.553M546.144 306.521C547.036 310.639 545.247 321.759 541.781 333.665C537.774 347.438 532.62 359.011 527.643 365.421C524.805 369.077 522.119 370.958 519.665 371.014C518.38 371.046 517.345 370.547 516.499 369.498C513.472 365.749 513.014 355.429 515.177 339.641C516.827 327.569 519.462 316.518 519.49 316.411L519.559 316.116L511.785 299.814L530.739 274.954L546.144 306.521Z" fill="#393939"/>
<path d="M498.902 252.961C507.032 249.356 515.836 250.262 522.982 257.921C526.171 256.871 530.182 259.404 532.137 263.823C533.815 267.603 533.459 271.573 531.49 273.681C534.652 286.192 530.192 301.088 520.638 305.322C509.583 310.221 496.018 299.794 489.422 285.536C479.412 263.887 487.846 257.861 498.902 252.961Z" fill="white"/>
<path d="M518.305 307.004C519.22 306.792 520.116 306.491 520.99 306.108C525.75 303.996 529.536 299.295 531.648 292.871C533.608 286.918 533.885 280.031 532.429 273.903C534.412 271.421 534.624 267.308 532.924 263.471C530.881 258.863 526.809 256.164 523.25 256.955C519.774 253.359 515.809 251.145 511.46 250.369C507.277 249.624 502.937 250.23 498.551 252.171C493.217 254.533 487.338 257.56 485.083 263.555C483.04 268.985 484.205 276.292 488.646 285.897C491.988 293.125 497.174 299.475 502.877 303.325C508.114 306.861 513.493 308.123 518.305 307.004ZM523.583 258.642C526.314 258.008 529.665 260.361 531.352 264.165C532.84 267.52 532.637 271.19 530.862 273.089L530.543 273.431L530.654 273.884C532.156 279.814 531.921 286.539 530.016 292.33C528.057 298.288 524.604 302.618 520.292 304.532C515.407 306.695 509.565 305.761 503.838 301.897C498.389 298.218 493.421 292.122 490.204 285.171C485.966 276.006 484.82 269.133 486.691 264.16C488.512 259.326 493.028 256.502 499.249 253.742C507.762 249.966 515.966 251.658 522.349 258.503L522.728 258.905L523.25 258.734C523.356 258.697 523.472 258.665 523.583 258.642Z" fill="#393939"/>
<path d="M497.687 260.726C500.816 267.692 508.997 270.802 515.962 267.673C522.922 264.544 526.033 256.363 522.904 249.398C519.775 242.433 511.594 239.323 504.629 242.452C497.668 245.581 494.558 253.761 497.687 260.726Z" fill="#1C1C1C"/>
<path d="M504.507 280.244C504.739 281.607 503.819 282.901 502.455 283.133C501.087 283.364 499.798 282.444 499.567 281.076C499.336 279.712 500.26 278.418 501.623 278.192C502.987 277.961 504.281 278.88 504.507 280.249" fill="#393939"/>
<path d="M513.758 291.748C512.011 297.47 508.193 299.688 503.936 299.915Z" fill="white"/>
<path d="M506.247 300.461C509.44 299.721 512.888 297.544 514.58 292.003C514.718 291.55 514.46 291.069 514.007 290.93C513.554 290.792 513.073 291.046 512.934 291.503C511.479 296.278 508.433 298.82 503.889 299.06C503.413 299.083 503.048 299.49 503.076 299.966C503.099 300.442 503.506 300.803 503.977 300.779C504.698 300.743 505.466 300.645 506.247 300.465" fill="#393939"/>
<path d="M501.504 273.215C501.504 273.215 496.226 275.729 495.015 279.718Z" fill="white"/>
<path d="M495.212 280.555C495.503 280.486 495.748 280.273 495.841 279.968C496.927 276.395 501.831 274.015 501.877 273.992C502.307 273.789 502.487 273.276 502.284 272.846C502.08 272.416 501.567 272.236 501.137 272.439C500.906 272.55 495.503 275.166 494.195 279.469C494.057 279.922 494.316 280.402 494.769 280.541C494.916 280.587 495.069 280.587 495.212 280.555Z" fill="#393939"/>
<path d="M493.622 282.615C493.622 282.615 498.521 294.821 500.18 294.9C501.844 294.983 503.609 294.105 503.609 294.105" fill="white"/>
<path d="M502.003 295.565C503.098 295.311 503.939 294.9 503.99 294.872C504.415 294.66 504.591 294.146 504.378 293.721C504.166 293.296 503.653 293.12 503.228 293.333C503.214 293.338 501.707 294.073 500.32 294.045C499.516 293.476 497.071 288.905 494.418 282.292C494.238 281.852 493.739 281.635 493.3 281.815C492.856 281.991 492.644 282.495 492.819 282.934C492.833 282.966 494.072 286.044 495.495 289.09C498.342 295.173 499.35 295.718 500.136 295.76C500.778 295.792 501.425 295.699 502.003 295.565Z" fill="#393939"/>
<path d="M502.042 288.2C506.715 288.2 510.523 284.397 510.523 279.719C510.523 275.042 506.715 271.238 502.042 271.238C497.37 271.238 493.561 275.042 493.561 279.719C493.561 284.397 497.365 288.2 502.042 288.2ZM502.042 272.232C506.17 272.232 509.53 275.592 509.53 279.719C509.53 283.847 506.17 287.207 502.042 287.207C497.915 287.207 494.555 283.847 494.555 279.719C494.555 275.592 497.915 272.232 502.042 272.232Z" fill="#393939"/>
<path d="M486.974 294.674C491.014 294.674 494.305 291.383 494.305 287.344C494.305 283.304 491.014 280.014 486.974 280.014C482.935 280.014 479.64 283.304 479.64 287.344C479.64 291.383 482.93 294.674 486.974 294.674ZM486.974 281.003C490.469 281.003 493.311 283.845 493.311 287.344C493.311 290.843 490.469 293.685 486.974 293.685C483.48 293.685 480.633 290.843 480.633 287.344C480.633 283.845 483.476 281.003 486.974 281.003Z" fill="#393939"/>
<path d="M509.2 275.305L521 263.335L520.293 262.637L508.493 274.607L509.2 275.305Z" fill="#393939"/>
<path d="M493.21 283.247L495.156 280.853L494.384 280.225L492.439 282.619L493.21 283.247Z" fill="#393939"/>
<path d="M692.644 597.731C692.649 594.972 692.616 592.07 692.556 589.102L690.837 589.135C690.897 592.093 690.929 594.986 690.925 597.727H692.644M692.307 580.478C692.196 577.622 692.057 574.724 691.9 571.868L690.181 571.965C690.342 574.812 690.476 577.7 690.587 580.547L692.307 580.478ZM691.341 563.262C691.128 560.396 690.888 557.503 690.629 554.67L688.914 554.832C689.173 557.651 689.413 560.53 689.626 563.391L691.341 563.262ZM689.755 546.092C689.437 543.222 689.085 540.342 688.716 537.532L687.01 537.759C687.375 540.555 687.726 543.42 688.045 546.286L689.755 546.092ZM687.491 528.996C687.052 526.13 686.576 523.269 686.081 520.487L684.385 520.792C684.879 523.556 685.355 526.407 685.795 529.259L687.491 528.996ZM684.459 512.015C683.927 509.422 683.363 506.843 682.781 504.343L682.605 503.585L680.932 503.978L681.108 504.731C681.686 507.218 682.245 509.783 682.772 512.362L684.459 512.015ZM678.843 495.663L680.503 495.215C679.929 493.079 679.329 490.953 678.719 488.897C678.524 488.24 678.326 487.579 678.122 486.923L676.482 487.427C676.68 488.079 676.879 488.735 677.073 489.387C677.679 491.429 678.275 493.542 678.843 495.663ZM673.838 479.26L675.469 478.706C674.568 476.057 673.593 473.321 672.576 470.576L670.963 471.172C671.975 473.903 672.946 476.626 673.838 479.26ZM667.885 463.153L669.484 462.52C668.449 459.909 667.349 457.223 666.217 454.543L664.631 455.208C665.759 457.884 666.854 460.556 667.885 463.153ZM661.216 447.328L662.787 446.63C661.641 444.056 660.439 441.412 659.214 438.778L657.657 439.503C658.877 442.128 660.074 444.763 661.216 447.328ZM653.964 431.743L655.512 430.99C654.278 428.448 652.993 425.846 651.695 423.262L650.156 424.034C651.454 426.613 652.735 429.206 653.964 431.743ZM646.236 416.385L647.762 415.59C646.444 413.062 645.09 410.501 643.727 407.973L642.211 408.787C643.57 411.31 644.924 413.866 646.236 416.385ZM638.083 401.244L639.59 400.407C638.19 397.888 636.762 395.36 635.347 392.901L633.859 393.756C635.264 396.211 636.688 398.73 638.083 401.244ZM629.524 386.325L631.003 385.446C628.23 380.778 626.524 378.075 626.51 378.047L625.055 378.967C625.073 378.99 626.765 381.68 629.524 386.325Z" fill="#393939"/>
<path d="M244.79 515.6L417.734 516.141L417.466 504.767L249.68 504.721L244.79 515.6Z" fill="#F7F8F9"/>
<path d="M243.464 516.46L418.617 517.006L418.308 503.908L249.121 503.861L243.464 516.46ZM416.856 515.282L246.117 514.746L250.235 505.581L416.625 505.627L416.856 515.282Z" fill="#393939"/>
<path d="M192.596 328.922L244.531 515.981L249.68 504.722L203.281 329.102L192.596 328.922Z" fill="#F7F8F9"/>
<path d="M244.332 518.481L250.59 504.8L250.511 504.499L203.946 328.256L191.458 328.043L244.332 518.481ZM248.769 504.643L244.729 513.48L193.732 329.799L202.615 329.947L248.769 504.638V504.643Z" fill="#393939"/>
<path d="M124.123 333.857L175.604 514.185L244.789 515.6L195.317 329.018L124.123 333.857Z" fill="#F7F8F9"/>
<path d="M175.155 515.602L245.934 516.545L245.624 515.385L195.967 328.113L123.007 333.072L123.298 334.094L175.155 515.602ZM243.655 514.664L176.334 513.481L125.244 334.644L194.668 329.925L243.655 514.664Z" fill="#393939"/>
<path d="M173.554 421.223C174.71 428.613 179.128 434.058 183.427 433.383C187.725 432.713 190.272 426.182 189.116 418.792C187.965 411.406 183.547 405.962 179.249 406.632C174.95 407.307 172.399 413.837 173.554 421.223Z" fill="#F7F8F9"/>
<path d="M182.282 434.285C182.707 434.317 183.137 434.303 183.557 434.234C185.951 433.86 187.93 431.974 189.117 428.919C190.25 426.026 190.55 422.384 189.968 418.663C188.725 410.686 183.95 405.029 179.116 405.782C174.277 406.54 171.457 413.38 172.705 421.358C173.288 425.078 174.683 428.457 176.643 430.869C178.344 432.963 180.308 434.142 182.282 434.285ZM180.244 407.451C183.742 407.705 187.292 412.655 188.272 418.927C188.803 422.351 188.54 425.679 187.518 428.295C186.557 430.754 185.059 432.261 183.294 432.538C181.528 432.811 179.643 431.835 177.979 429.783C176.209 427.606 174.938 424.519 174.406 421.094C173.343 414.305 175.622 408.07 179.379 407.483C179.666 407.437 179.957 407.427 180.244 407.451Z" fill="#393939"/>
<path d="M709.132 749.253C709.876 749.123 727.476 745.985 745.372 736.348C755.96 730.645 764.418 723.842 770.5 716.133C778.182 706.399 782.078 695.214 782.078 682.897V458.85H777.905V682.897C777.905 694.234 774.323 704.536 767.261 713.503C761.543 720.759 753.543 727.193 743.481 732.623C726.177 741.964 708.591 745.111 708.416 745.144L709.132 749.253Z" fill="#393939"/>
<path d="M37.919 516.393H495.461V542.127H37.919V516.393Z" fill="white"/>
<path d="M496.504 515.348H36.8776V543.171H496.504V515.348ZM494.415 541.082H38.9621V517.437H494.415V541.082Z" fill="#393939"/>
<path d="M453.274 542.477H464.445V1056.06H453.274V542.477Z" fill="white"/>
<path d="M452.232 1057.02H465.492V542.477H463.403V1055.1H454.321V542.477H452.232V1057.02Z" fill="#393939"/>
<path d="M62.8615 542.477H72.3594V1056.06H62.8615V542.477Z" fill="white"/>
<path d="M61.8154 1057.02H73.4023V542.477H71.3179V1055.1H63.8999V542.477H61.8154V1057.02Z" fill="#393939"/>
<path d="M496.569 510.394C496.569 510.394 400.61 510.227 395.138 509.867C389.666 509.506 372.722 490.963 372.722 490.963C368.392 486.023 361.256 484.65 355.4 487.636L320.001 501.473C316.955 502.661 315.449 506.091 316.636 509.136L321.406 521.394C322.548 524.328 326.051 525.535 328.76 523.926L334.675 520.414L353.667 521.551C359.296 522.951 366.27 537.588 382.937 538.684C399.598 539.784 547.912 543.574 547.912 543.574C554.009 543.763 503.515 510.079 496.569 510.394Z" fill="#F7F8F9"/>
<path d="M382.881 539.505C399.371 540.591 546.405 544.358 547.889 544.395C548.605 544.418 548.943 544.104 549.1 543.836C549.331 543.438 549.289 542.967 548.966 542.435C547.279 539.635 534.911 530.922 524.137 524.013C518.785 520.579 501.005 509.399 496.554 509.565C494.789 509.565 400.55 509.399 395.193 509.043C390.978 508.765 377.982 495.496 373.332 490.408C368.766 485.199 361.255 483.748 355.062 486.881L319.7 500.705C316.239 502.055 314.519 505.974 315.869 509.436L320.639 521.693C321.272 523.315 322.58 524.572 324.225 525.141C325.875 525.709 327.682 525.524 329.18 524.632L334.878 521.249L353.537 522.368C355.228 522.83 357.29 524.836 359.67 527.146C364.708 532.05 371.608 538.766 382.881 539.505ZM547.117 542.727C535.197 542.422 398.807 538.904 382.987 537.86C372.324 537.162 365.674 530.691 360.816 525.968C358.131 523.352 356.005 521.281 353.865 520.75L353.791 520.731H353.712L334.472 519.571L328.339 523.218C327.257 523.86 325.954 523.994 324.766 523.583C323.574 523.172 322.631 522.266 322.173 521.092L317.403 508.835C316.387 506.219 317.685 503.261 320.301 502.239L355.737 488.388L355.774 488.369C361.301 485.555 368.017 486.844 372.103 491.508C373.873 493.444 389.444 510.318 395.082 510.688C400.518 511.049 492.649 511.206 496.568 511.215H496.605C499.198 511.099 510.184 516.978 523.943 525.843C529.984 529.739 535.738 533.682 540.134 536.945C544.584 540.249 546.387 541.922 547.117 542.727Z" fill="#393939"/>
<path d="M317.024 511.483L346.918 501.075L346.373 499.518L316.479 509.931L317.024 511.483Z" fill="#393939"/>
<path d="M348.301 512.783L331.292 511.664L320.159 518.195" fill="#F7F8F9"/>
<path d="M320.578 518.901L331.49 512.505L348.245 513.605L348.355 511.959L331.093 510.822L319.742 517.482L320.578 518.901Z" fill="#393939"/>
<path d="M397.499 509.939C368.945 551.434 393.718 567.37 393.718 567.37C454.107 596.206 529.022 597.98 567.457 578.8C643.482 540.859 684.491 359.286 596.515 316.826C554.451 296.522 581.651 426.673 519.566 491.545C496.891 515.236 449.813 513.202 397.499 509.939Z" fill="#F8DB87"/>
<path d="M418.192 512.477C440.252 513.924 457.283 513.679 471.86 511.765C495.556 508.655 512.629 500.95 524.054 488.217C533.367 477.841 541.095 464.53 547.02 448.664C551.753 435.991 555.358 421.668 557.734 406.083C561.768 379.572 560.83 358.298 560.821 358.09L559.176 358.164C559.185 358.376 560.114 379.512 556.098 405.87C553.74 421.335 550.163 435.542 545.472 448.1C539.616 463.768 531.999 476.894 522.83 487.117C511.677 499.545 494.937 507.074 471.648 510.129C452.925 512.588 430.079 512.274 397.578 509.117L397.417 510.758C404.816 511.479 411.721 512.047 418.192 512.477Z" fill="#393939"/>
<path d="M550.711 586.699C575.04 576.651 595.575 559.615 611.742 536.062C624.655 517.251 634.819 494.263 641.955 467.738C648.301 444.162 651.032 422.088 652.201 407.724C653.472 392.157 653.237 382.017 653.237 381.92L651.587 381.957C651.596 382.359 652.442 422.453 640.356 467.35C633.261 493.685 623.176 516.493 610.369 535.147C594.392 558.423 574.106 575.255 550.078 585.174L550.711 586.699Z" fill="#393939"/>
<path d="M405.826 505.19H459.284L467.302 402.172H397.809L405.826 505.19Z" fill="white"/>
<path d="M460.26 506.249H404.848L396.668 401.119H468.444L460.26 506.249ZM406.802 504.138H458.306L466.161 403.226H398.947L406.802 504.138Z" fill="#393939"/>
<path d="M404.091 473.113L401.081 434.42H444.898L442.529 473.113H404.091Z" fill="#E0EBA5" stroke="#393939" stroke-width="2"/>
<path d="M470.667 396.539H394.445V409.169H470.667V396.539Z" fill="#1C1C1C"/>
<path d="M473.612 402.855H391.508V410.751H473.612V402.855Z" fill="#1C1C1C"/>
<path d="M453.027 983.679C453.027 983.679 534.906 742.895 577.534 737.266C677.043 724.116 590.901 583.407 518.826 665.797C445.521 749.592 351.827 950.095 351.827 950.095C330.433 981.504 453.027 983.679 453.027 983.679Z" fill="#393939"/>
<path d="M408.988 987.03C408.988 987.03 418.692 971.746 524.477 790.874C575.15 704.229 733.711 743.33 850.381 733.934C954.191 725.568 954.2 572.234 954.2 572.234C954.2 572.234 556.42 573.238 459.411 678.206C378.772 765.465 289.021 939.962 289.021 939.962C267.628 971.371 408.988 987.03 408.988 987.03Z" fill="#1C1C1C"/>
<path d="M635.993 525.84L558.356 514.051C557.294 513.92 550.09 501.195 549.453 500.336C549.453 500.336 539.084 497.284 526.992 493.725C514.896 490.166 487.651 501.937 487.651 501.937C485.571 502.493 475.329 503.42 475.881 505.5L486.824 514.047C500.114 519.125 516.076 501.629 546.699 528.277C557.334 537.533 641.849 526.238 635.993 525.84Z" fill="#F7F8F9"/>
<path d="M487.629 515.236C491.794 516.461 496.126 515.783 501.077 515.01C512.048 513.291 525.704 511.157 546.129 528.933C548.644 531.121 554.698 532.347 564.642 532.686C572.519 532.957 582.581 532.65 594.546 531.777C614.361 530.33 635.293 527.558 636.69 526.704C637.052 526.486 637.224 526.093 637.129 525.704C637.02 525.27 636.672 525.021 636.089 524.976L558.642 513.215C557.592 512.279 553.441 505.288 551.854 502.615C550.837 500.901 550.339 500.069 550.154 499.816L549.978 499.586L527.237 492.889C515.154 489.334 489.176 500.336 487.372 501.109C486.883 501.232 485.925 501.385 484.821 501.562C479.983 502.326 476.202 503.031 475.248 504.496C475 504.876 474.927 505.301 475.04 505.726L475.117 506.007L486.39 514.811L486.512 514.856C486.883 515.001 487.258 515.123 487.629 515.236ZM523.945 513.839C522.747 513.486 521.548 513.187 520.345 512.948C512.726 511.428 506.395 512.414 500.811 513.291C495.71 514.087 491.301 514.779 487.254 513.278L476.958 505.238C477.288 505.025 478.043 504.677 479.711 504.275C481.416 503.863 483.456 503.538 485.092 503.28C486.341 503.081 487.326 502.923 487.878 502.778L487.996 502.737C488.267 502.62 515.091 491.13 526.744 494.557L548.906 501.082C549.182 501.525 549.756 502.493 550.357 503.502C556.711 514.2 557.452 514.806 558.235 514.91L631.454 526.03C624.472 527.12 610.069 528.915 593.935 530.077C558.7 532.609 549.575 529.625 547.269 527.621C539.215 520.608 531.546 516.072 523.945 513.839Z" fill="#393939"/>
<path d="M557.785 501.393C518.806 537.533 585.165 550.709 585.165 550.709C718.738 568.042 793.689 482.55 795.29 389.376C795.778 361.051 663.051 362.408 670.602 378.546C729.026 503.442 667.134 507.29 557.785 501.393Z" fill="#D2BCF4"/>
<path d="M618.999 554.093C607.975 554.093 596.638 553.337 585.017 551.832L584.94 551.818C583.516 551.533 549.999 544.687 544.998 527.02C542.724 518.966 546.762 510.067 557.013 500.562L557.366 500.237L557.845 500.264C619.691 503.601 668.347 504.157 685.277 479.069C691.404 469.985 693.272 457.875 690.988 442.039C688.574 425.277 681.569 404.666 669.573 379.026C668.795 377.362 669.125 375.648 670.504 374.201C676.193 368.237 700.109 366.035 718.862 365.967C744.822 365.868 768.576 369.182 782.34 374.83C791.782 378.701 796.517 383.603 796.417 389.395C796.01 413.108 791.009 435.813 781.553 456.885C771.845 478.513 757.963 497.216 740.291 512.477C721.633 528.584 699.431 540.215 674.298 547.038C657.002 551.737 638.493 554.088 618.999 554.093ZM585.347 549.593C617.2 553.722 646.927 552.13 673.706 544.859C698.513 538.121 720.417 526.654 738.812 510.768C756.235 495.724 769.919 477.283 779.491 455.962C788.82 435.171 793.754 412.76 794.156 389.354C794.242 384.588 789.973 380.406 781.481 376.924C767.979 371.384 744.591 368.129 718.871 368.228C695.13 368.314 676.351 371.344 672.141 375.762C671.196 376.756 671.35 377.484 671.621 378.068C695.234 428.546 700.168 461.04 687.154 480.331C669.604 506.341 620.546 505.898 558.202 502.547C548.882 511.297 545.174 519.324 547.173 526.4C551.731 542.507 584.09 549.336 585.347 549.593Z" fill="#393939"/>
<path d="M943.449 662.5C982.432 552.961 941.568 365.735 824.992 313.145C728.82 269.762 677.673 319.86 670.6 343.162C657.378 386.717 682.782 390.447 732.926 440.591C783.07 490.73 739.08 572.088 739.08 572.088C799.769 621.292 846.915 696.157 943.449 662.504" fill="#D2BCF4"/>
<path d="M897.386 672.05C895.183 672.05 892.99 671.991 890.802 671.869C875.685 671.019 861.246 667.248 846.659 660.338C819.631 647.532 796.104 625.506 773.354 604.208C762.062 593.64 750.387 582.71 738.363 572.961L737.635 572.373L738.083 571.546C738.191 571.342 749.066 551.016 753.701 524.879C756.415 509.582 756.491 495.315 753.923 482.473C750.726 466.479 743.396 452.651 732.127 441.382C719.543 428.802 708.297 418.953 699.262 411.04C685.466 398.953 675.499 390.226 670.258 380.377C664.837 370.198 664.615 358.966 669.517 342.831C673.148 330.871 686.804 314.266 709.129 304.133C731.558 293.954 769.944 287.071 825.451 312.114C853.46 324.748 878.226 345.517 899.072 373.843C918.159 399.785 933.154 430.842 943.636 466.144C953.453 499.209 958.734 534.805 958.906 569.09C959.078 603.493 954.104 635.924 944.509 662.88L944.328 663.391L943.817 663.567C927.497 669.255 912.236 672.05 897.386 672.05ZM740.502 571.79C752.336 581.435 763.803 592.17 774.9 602.557C797.523 623.738 820.915 645.637 847.626 658.294C861.947 665.077 876.11 668.781 890.928 669.608C907.402 670.531 924.3 667.917 942.56 661.609C951.947 635.002 956.817 603.032 956.645 569.099C956.474 535.027 951.224 499.647 941.47 466.786C931.21 432.23 915.916 400.554 897.25 375.181C876.639 347.172 852.171 326.647 824.524 314.176C769.781 289.482 732.064 296.206 710.065 306.19C699.895 310.807 690.756 317.215 683.639 324.717C677.787 330.884 673.428 337.726 671.678 343.487C661.992 375.389 673.342 385.328 700.754 409.34C709.812 417.271 721.089 427.147 733.724 439.786C745.322 451.385 752.865 465.606 756.148 482.066C758.766 495.189 758.689 509.749 755.917 525.336C751.743 548.814 742.6 567.675 740.502 571.79Z" fill="#393939"/>
<path d="M377.816 515.194L552.761 515.741L552.489 504.233L382.763 504.188L377.816 515.194Z" fill="#F7F8F9"/>
<path d="M376.48 516.062L553.654 516.613L553.342 503.364L382.201 503.314L376.48 516.062ZM551.872 514.868L379.162 514.33L383.327 505.055L551.646 505.101L551.872 514.868Z" fill="#393939"/>
<path d="M325.02 326.35L377.56 515.574L382.765 504.188L335.831 326.535L325.02 326.35Z" fill="#F7F8F9"/>
<path d="M377.357 516.428L383.683 504.264L383.606 503.966L336.501 325.675L323.867 325.463L377.357 516.428ZM381.843 504.106L377.759 513.046L326.169 327.24L335.158 327.394L381.843 504.106Z" fill="#393939"/>
<path d="M255.754 331.346L308.404 513.07L377.819 515.194L327.775 326.449L255.754 331.346Z" fill="#F7F8F9"/>
<path d="M307.378 515.194L378.973 516.144L378.661 514.973L328.432 325.531L254.625 330.551L307.378 515.194ZM376.672 514.245L308.572 513.046L256.89 332.142L327.125 327.367L376.676 514.245H376.672Z" fill="#393939"/>
<path d="M305.755 419.722C306.921 427.197 311.394 432.705 315.739 432.026C320.085 431.344 322.662 424.737 321.496 417.262C320.329 409.792 315.857 404.284 311.511 404.963C307.166 405.641 304.584 412.252 305.755 419.722Z" fill="#F7F8F9"/>
<path d="M314.586 432.935C315.015 432.967 315.45 432.949 315.879 432.886C318.303 432.506 320.297 430.598 321.504 427.509C322.648 424.579 322.951 420.893 322.364 417.131C321.102 409.06 316.277 403.339 311.384 404.104C306.487 404.868 303.638 411.791 304.9 419.858C305.488 423.62 306.903 427.039 308.884 429.481C310.602 431.597 312.587 432.791 314.586 432.935ZM312.524 405.786C316.06 406.048 319.65 411.054 320.641 417.398C321.183 420.862 320.912 424.231 319.881 426.876C318.909 429.363 317.394 430.887 315.608 431.163C313.822 431.443 311.913 430.457 310.231 428.382C308.441 426.175 307.156 423.055 306.614 419.591C305.542 412.722 307.844 406.414 311.647 405.822C311.936 405.777 312.23 405.768 312.519 405.786H312.524Z" fill="#393939"/>
<path d="M659.401 293.511C676.236 303.518 694.175 301.642 703.246 286.376C712.317 271.114 706.022 250.625 689.187 240.618C672.352 230.611 639.672 244.48 639.672 244.48C639.672 244.48 642.566 283.5 659.401 293.511Z" fill="#1C1C1C"/>
<path d="M714.031 304.441L691.471 279.945L677.656 315.203L686.492 325.716C686.492 325.716 692.94 349.533 707.646 344.342C722.355 339.151 720.099 314.624 714.031 304.445" fill="white"/>
<path d="M713.142 342.245C715.24 340.351 716.886 337.823 717.998 334.743C721.566 324.881 719.169 311.062 714.91 303.917L714.855 303.827L691.111 278.043L676.469 315.403L685.562 326.215C686.1 328.101 689.921 340.482 697.975 344.71C701.104 346.351 704.473 346.559 707.987 345.316C709.917 344.633 711.645 343.602 713.142 342.25M713.196 305.066C717.184 311.835 719.409 324.791 716.063 334.047C714.349 338.79 711.401 341.929 707.304 343.371C704.346 344.416 701.529 344.248 698.929 342.883C691.179 338.813 687.52 325.582 687.484 325.451L687.425 325.229L678.834 315.01L691.825 281.85L713.196 305.057V305.066Z" fill="#393939"/>
<path d="M667.94 257.061C672.86 267.661 683.124 270.229 694.226 266.521C697.726 265.612 701.827 268.597 703.568 273.458C705.065 277.622 704.364 281.855 702.085 283.98C704.472 297.6 699.064 310.433 688.487 314.327C676.242 318.835 661.718 309.669 656.043 293.852C650.372 278.038 655.694 261.565 667.94 257.057" fill="white"/>
<path d="M695.321 311.35C697.704 309.203 699.671 306.444 701.091 303.22C703.524 297.694 704.261 291.006 703.189 284.332C705.509 281.777 706.06 277.359 704.541 273.118C702.606 267.727 698.061 264.467 693.964 265.53L693.901 265.548C682.411 269.387 673.29 266.136 668.872 256.631L668.474 255.771L667.583 256.097C654.836 260.791 649.224 277.884 655.076 294.203C658.368 303.369 664.649 310.681 672.313 314.258C677.893 316.863 683.609 317.22 688.841 315.294C691.219 314.416 693.403 313.078 695.321 311.346M694.516 267.506C697.514 266.751 701.064 269.509 702.601 273.805C703.912 277.459 703.415 281.334 701.385 283.229L700.978 283.608L701.073 284.16C703.406 297.464 697.962 309.745 688.131 313.367C683.424 315.099 678.255 314.765 673.186 312.395C666.014 309.049 660.118 302.162 657.016 293.511C651.675 278.63 656.355 263.124 667.434 258.372C672.426 268.103 682.474 271.517 694.516 267.51V267.506Z" fill="#393939"/>
<path d="M654.475 294.502C654.046 292.865 653.087 288.52 652.734 286.928C655.705 291.228 660.53 297.663 663.94 299.883C667.345 302.104 669.013 298.45 672.568 297.025C677.546 295.022 683.945 295.841 686.527 291.771C692.563 282.252 690.596 267.429 690.596 267.429C690.809 267.312 692.419 266.077 694.228 266.525C694.228 266.525 695.096 273.263 698.338 278.906C699.17 280.353 700.97 282.949 702.227 283.844C702.177 283.889 702.136 283.944 702.087 283.984C707.92 300.693 697.072 321.824 686.49 325.717C674.25 330.225 658.586 310.239 654.475 294.502Z" fill="#1C1C1C"/>
<path d="M685.42 297.293C685.42 297.293 681.007 301.471 676.015 303.063C671.018 304.655 669.078 302.507 669.078 302.507C669.078 302.507 673.161 308.756 678.353 307.381C683.544 306.007 685.42 297.297 685.42 297.297" fill="white"/>
<path d="M661.567 291.017C665.003 287.915 665.103 282.407 661.793 278.74C658.483 275.077 652.998 274.62 649.561 277.722C646.124 280.824 646.02 286.332 649.33 289.999C652.64 293.662 658.13 294.119 661.567 291.017ZM650.637 278.916C653.414 276.406 657.886 276.809 660.603 279.816C663.321 282.823 663.267 287.313 660.49 289.823C657.709 292.333 653.237 291.93 650.52 288.923C647.802 285.916 647.856 281.426 650.637 278.916Z" fill="#393939"/>
<path d="M683.355 285.929C687.461 282.225 687.583 275.65 683.631 271.277C679.678 266.905 673.131 266.358 669.025 270.066C664.923 273.769 664.801 280.344 668.753 284.717C672.701 289.089 679.253 289.637 683.355 285.929ZM670.309 271.485C673.628 268.487 678.964 268.971 682.211 272.562C685.453 276.152 685.39 281.511 682.071 284.509C678.756 287.507 673.416 287.023 670.173 283.432C666.931 279.842 666.994 274.484 670.309 271.485Z" fill="#393939"/>
<path d="M667.349 280.362L666.838 278.838L662.234 280.393L662.745 281.913L667.349 280.362Z" fill="#393939"/>
<path d="M694.667 267.189L693.776 265.855L683.688 272.593L684.578 273.927L694.667 267.189Z" fill="#393939"/>
<path d="M670.864 281.176C671.61 282.003 672.885 282.067 673.713 281.32C674.54 280.574 674.604 279.299 673.858 278.472C673.111 277.644 671.836 277.581 671.009 278.327C670.181 279.073 670.118 280.348 670.864 281.176Z" fill="#393939"/>
<path d="M655.569 285.529C656.32 286.357 657.595 286.42 658.422 285.674C659.245 284.928 659.313 283.653 658.567 282.825C657.816 281.998 656.541 281.934 655.718 282.68C654.891 283.427 654.823 284.702 655.569 285.529Z" fill="#393939"/>
<path d="M673.046 295.334C673.417 295.003 673.499 294.443 673.223 294.013C672.915 293.534 672.278 293.398 671.803 293.706C670.193 294.737 667.408 295.858 666.535 294.985C665.726 294.171 665.78 288.836 666.662 283.332C666.747 282.772 666.368 282.243 665.807 282.157C665.246 282.071 664.717 282.451 664.627 283.011C664.211 285.634 663.003 294.357 665.079 296.437C667.466 298.829 672.364 295.79 672.915 295.433C672.965 295.401 673.006 295.37 673.046 295.329" fill="#393939"/>
<path d="M739.805 572.495L738.344 571.672C758.906 535.171 757.418 503.391 752.548 483.165C746.972 460.008 733.759 438.882 717.195 426.65C697.055 411.773 685.266 399.618 678.926 392.034C672.017 383.768 669.914 379.079 669.828 378.885L671.361 378.211C671.447 378.396 680.025 397.117 718.19 425.302C735.061 437.76 748.514 459.244 754.176 482.771C759.118 503.292 760.633 535.515 739.805 572.495Z" fill="#393939"/>
<path d="M693.899 516.117H231.062V542.15H693.899V516.117Z" fill="white"/>
<path d="M230.008 515.062H694.952V543.202H230.008V515.062ZM232.12 541.095H692.845V517.17H232.12V541.095Z" fill="#393939"/>
<path d="M662.523 542.508H651.223V1061.29H662.523V542.508Z" fill="white"/>
<path d="M663.576 1062.34H650.164V542.508H652.276V1060.23H661.464V542.508H663.576V1062.34Z" fill="#393939"/>
<path d="M265.903 542.508H256.289V1061.29H265.903V542.508Z" fill="white"/>
<path d="M266.955 1062.34H255.234V542.508H257.346V1060.23H264.848V542.508H266.955V1062.34Z" fill="#393939"/>
<path d="M702.937 506.502C702.937 506.502 601.673 506.331 595.899 505.951C590.124 505.571 572.245 486.004 572.245 486.004C567.673 480.786 560.144 479.339 553.963 482.491L516.607 497.092C513.392 498.345 511.805 501.967 513.057 505.182L518.09 518.115C519.298 521.212 522.992 522.483 525.85 520.787L532.095 517.079L552.131 518.282C558.073 519.756 565.435 535.208 583.02 536.361C600.606 537.518 757.115 541.52 757.115 541.52C763.549 541.724 710.267 506.177 702.937 506.502Z" fill="#F7F8F9"/>
<path d="M582.958 537.23C600.363 538.374 755.523 542.349 757.092 542.39C757.843 542.412 758.2 542.082 758.368 541.802C758.612 541.381 758.567 540.884 758.227 540.323C756.446 537.366 743.396 528.173 732.027 520.879C726.38 517.257 707.614 505.459 702.915 505.635C701.057 505.631 601.606 505.455 595.954 505.084C591.504 504.79 577.789 490.79 572.883 485.418C568.062 479.919 560.14 478.391 553.606 481.696L516.286 496.284C512.633 497.708 510.819 501.842 512.244 505.495L517.277 518.432C517.941 520.146 519.325 521.471 521.066 522.073C522.807 522.674 524.711 522.475 526.293 521.534L532.303 517.962L551.992 519.147C553.782 519.631 555.953 521.747 558.462 524.189C563.78 529.362 571.065 536.448 582.958 537.23ZM756.274 540.631C743.699 540.305 599.766 536.592 583.075 535.494C571.82 534.757 564.802 527.928 559.679 522.941C556.839 520.182 554.596 517.998 552.34 517.438L552.263 517.42H552.181L531.874 516.194L525.403 520.042C524.263 520.721 522.884 520.861 521.631 520.427C520.374 519.997 519.379 519.038 518.896 517.799L513.863 504.867C512.786 502.104 514.161 498.979 516.92 497.903L554.316 483.284L554.357 483.265C560.185 480.295 567.271 481.656 571.585 486.58C573.453 488.619 589.885 506.431 595.836 506.82C601.574 507.2 698.796 507.367 702.933 507.376H702.97C705.705 507.254 717.3 513.458 731.819 522.814C738.195 526.925 744.264 531.085 748.908 534.53C753.602 538.012 755.505 539.78 756.274 540.631Z" fill="#393939"/>
<path d="M513.46 507.661L545.01 496.673L544.436 495.031L512.891 506.015L513.46 507.661Z" fill="#393939"/>
<path d="M546.469 509.026L528.526 507.846L516.773 514.737" fill="#F7F8F9"/>
<path d="M517.218 515.487L528.735 508.732L546.416 509.894L546.529 508.157L528.315 506.959L516.336 513.986L517.218 515.487Z" fill="#393939"/>
<path d="M598.388 506.028C568.259 549.819 594.4 566.636 594.4 566.636C658.123 597.064 737.184 598.936 777.746 578.696C857.965 538.658 899.264 357.953 806.424 313.146C762.037 291.721 792.718 418.158 727.204 486.62C703.274 511.622 653.596 509.469 598.388 506.028Z" fill="#D2BCF4"/>
<path d="M755.01 440.948L754.542 440.773L755.01 440.948C759.975 427.657 763.754 412.629 766.25 396.281L765.756 396.205L766.25 396.281C770.15 370.706 769.639 349.787 769.521 346.339L770.263 346.304C770.381 349.776 770.888 370.745 766.985 396.356L767.479 396.431L766.985 396.356C764.484 412.774 760.689 427.856 755.71 441.191C749.474 457.889 741.345 471.877 731.569 482.774L731.941 483.108L731.569 482.774C719.62 496.094 701.734 504.186 676.799 507.46C661.459 509.471 643.52 509.734 620.26 508.207C613.583 507.765 606.467 507.18 598.85 506.443L598.922 505.707C632.971 508.996 656.983 509.314 676.703 506.724C701.35 503.49 719.142 495.512 731.02 482.279L730.648 481.945L731.02 482.279C740.747 471.439 748.816 457.527 755.01 440.948Z" fill="#393939" stroke="#393939"/>
<path d="M760.063 587.03C785.739 576.43 807.412 558.451 824.469 533.594C838.093 513.743 848.824 489.487 856.353 461.497C863.05 436.613 865.93 413.32 867.165 398.163C868.508 381.735 868.259 371.036 868.255 370.932L866.518 370.972C866.527 371.397 867.418 413.705 854.662 461.085C847.183 488.877 836.533 512.947 823.022 532.631C806.16 557.194 784.753 574.956 759.398 585.42L760.063 587.03Z" fill="#393939"/>
<path d="M708.44 592.94C703.946 592.94 699.365 592.818 694.712 592.569C659.816 590.715 624.052 581.798 594.013 567.455L593.914 567.396C593.593 567.188 585.969 562.168 583.635 550.561C581.089 537.881 585.801 522.728 597.644 505.513L597.934 505.093L598.445 505.124C627.037 506.911 652.491 508.213 674.44 506.092C699.157 503.7 715.716 497.315 726.551 485.992L727.858 487.245C716.707 498.898 699.79 505.455 674.612 507.892C652.667 510.013 627.308 508.733 598.847 506.96C587.52 523.556 582.998 538.085 585.399 550.149C587.117 558.791 592.304 564.172 594.845 565.845C624.667 580.075 660.164 588.925 694.807 590.765C727.871 592.52 757.182 587.943 777.341 577.887L778.15 579.506C760.565 588.278 736.169 592.94 708.44 592.94Z" fill="#393939"/>
</g>
<path fill-rule="evenodd" clip-rule="evenodd" d="M578.23 153.426L730.941 77.6281C749.446 113.908 739.722 159.311 705.999 184.529C668.302 212.72 614.888 205.012 586.697 167.315C583.381 162.88 580.562 158.228 578.23 153.426Z" fill="#FFB26B"/>
</g>
<path d="M380.5 0L398.875 38.1399L438.836 24.1637L424.86 64.1255L463 82.5L424.86 100.875L438.836 140.836L398.875 126.86L380.5 165L362.125 126.86L322.164 140.836L336.14 100.875L298 82.5L336.14 64.1255L322.164 24.1637L362.125 38.1399L380.5 0Z" fill="#8DA7FF"/>
</svg>
