<svg width="22" height="18" viewBox="0 0 22 18" fill="none" xmlns="http://www.w3.org/2000/svg">
<path d="M7.14816 9.76727C6.18529 9.76727 5.24404 9.48085 4.44344 8.94423C3.64284 8.40761 3.01885 7.64489 2.65037 6.75252C2.2819 5.86015 2.18548 4.87822 2.37333 3.93089C2.56118 2.98355 3.02485 2.11337 3.7057 1.43039C4.38656 0.747397 5.25402 0.282276 6.19839 0.0938399C7.14276 -0.0945963 8.12163 0.00211601 9.01121 0.371747C9.90078 0.741377 10.6611 1.36733 11.1961 2.17043C11.731 2.97354 12.0165 3.91774 12.0165 4.88364C12.0152 6.17843 11.5018 7.4198 10.5891 8.33537C9.6764 9.25093 8.43891 9.76589 7.14816 9.76727ZM7.14816 1.95346C6.57044 1.95346 6.00569 2.12531 5.52533 2.44728C5.04497 2.76925 4.67057 3.22689 4.44949 3.76231C4.2284 4.29773 4.17055 4.88689 4.28326 5.45529C4.39597 6.02369 4.67417 6.54579 5.08269 6.95559C5.4912 7.36538 6.01167 7.64445 6.5783 7.75751C7.14492 7.87058 7.73224 7.81255 8.26599 7.59077C8.79973 7.36899 9.25594 6.99342 9.5769 6.51156C9.89787 6.02969 10.0692 5.46317 10.0692 4.88364C10.0685 4.10672 9.76053 3.36181 9.21288 2.81245C8.66523 2.26308 7.92265 1.95415 7.14816 1.95346Z" fill="#BABABA"/>
<path d="M12.341 17.5812C12.0827 17.5812 11.8351 17.4783 11.6525 17.2951C11.4699 17.1119 11.3673 16.8635 11.3673 16.6044V15.3021C11.3673 14.1796 10.9228 13.1031 10.1315 12.3093C9.34025 11.5156 8.26707 11.0697 7.14805 11.0697C6.02904 11.0697 4.95585 11.5156 4.16459 12.3093C3.37332 13.1031 2.92879 14.1796 2.92879 15.3021V16.6044C2.92879 16.8635 2.82621 17.1119 2.64361 17.2951C2.46101 17.4783 2.21335 17.5812 1.95512 17.5812C1.69688 17.5812 1.44923 17.4783 1.26663 17.2951C1.08403 17.1119 0.981445 16.8635 0.981445 16.6044V15.3021C0.981445 13.6615 1.63114 12.0881 2.7876 10.928C3.94407 9.76794 5.51257 9.11621 7.14805 9.11621C8.78354 9.11621 10.352 9.76794 11.5085 10.928C12.665 12.0881 13.3147 13.6615 13.3147 15.3021V16.6044C13.3147 16.8635 13.2121 17.1119 13.0295 17.2951C12.8469 17.4783 12.5992 17.5812 12.341 17.5812Z" fill="#BABABA"/>
<path d="M16.2354 11.0695C15.4009 11.0695 14.5851 10.8212 13.8913 10.3562C13.1974 9.89109 12.6566 9.23006 12.3373 8.45668C12.0179 7.68329 11.9344 6.83228 12.0972 6.01126C12.26 5.19024 12.6618 4.43608 13.2519 3.84416C13.842 3.25224 14.5938 2.84913 15.4122 2.68582C16.2307 2.52251 17.079 2.60633 17.85 2.92667C18.621 3.24702 19.2799 3.78951 19.7436 4.48554C20.2072 5.18156 20.4546 5.99987 20.4546 6.83698C20.4533 7.95908 20.0083 9.03482 19.2173 9.82827C18.4264 10.6217 17.354 11.0681 16.2354 11.0695ZM16.2354 4.55795C15.786 4.55795 15.3468 4.69161 14.9732 4.94203C14.5996 5.19246 14.3084 5.54839 14.1364 5.96483C13.9644 6.38127 13.9195 6.8395 14.0071 7.28159C14.0948 7.72368 14.3112 8.12977 14.6289 8.44849C14.9466 8.76722 15.3514 8.98428 15.7921 9.07222C16.2329 9.16015 16.6897 9.11502 17.1048 8.94252C17.5199 8.77003 17.8748 8.47792 18.1244 8.10314C18.374 7.72835 18.5073 7.28773 18.5073 6.83698C18.5066 6.23275 18.267 5.65347 17.8411 5.22622C17.4152 4.79897 16.8377 4.55864 16.2354 4.55795Z" fill="#BABABA"/>
<path d="M20.1311 17.581C19.8729 17.581 19.6252 17.4781 19.4426 17.2949C19.26 17.1117 19.1574 16.8633 19.1574 16.6043V15.302C19.1583 14.9171 19.083 14.5359 18.9359 14.1805C18.7889 13.825 18.5729 13.5024 18.3006 13.2313C17.8339 12.7766 17.2311 12.4884 16.5851 12.411C15.9391 12.3336 15.2857 12.4713 14.7253 12.8028C14.5082 12.9432 14.2444 12.9914 13.9919 12.9367C13.7394 12.882 13.519 12.7289 13.379 12.5111C13.239 12.2934 13.1911 12.0287 13.2456 11.7755C13.3001 11.5222 13.4527 11.301 13.6698 11.1606C14.6063 10.5935 15.7038 10.3537 16.7906 10.4785C17.8774 10.6034 18.8923 11.086 19.6767 11.8509C20.1304 12.3028 20.4903 12.8405 20.7354 13.4329C20.9805 14.0253 21.1061 14.6606 21.1048 15.302V16.6043C21.1048 16.8633 21.0022 17.1117 20.8196 17.2949C20.637 17.4781 20.3894 17.581 20.1311 17.581Z" fill="#BABABA"/>
</svg>
