<svg width="21" height="21" viewBox="0 0 21 21" fill="none" xmlns="http://www.w3.org/2000/svg">
<path d="M10.5002 4.20294H10.5C9.25456 4.20294 8.03709 4.57226 7.00154 5.26419C5.966 5.95612 5.15889 6.93958 4.68228 8.09022C4.20567 9.24086 4.08096 10.507 4.32394 11.7285C4.56691 12.95 5.16665 14.072 6.04731 14.9527C6.92797 15.8334 8.04999 16.4331 9.2715 16.6761C10.493 16.919 11.7591 16.7943 12.9098 16.3177C14.0604 15.8411 15.0439 15.034 15.7358 13.9985C16.4277 12.9629 16.7971 11.7454 16.7971 10.5V10.4998C16.7952 8.83035 16.1312 7.22977 14.9507 6.04927C13.7702 4.86876 12.1696 4.20476 10.5002 4.20294ZM17.2059 0.85H3.79412C3.01329 0.85 2.26444 1.16018 1.71231 1.71231C1.16018 2.26444 0.85 3.01329 0.85 3.79412V17.2059C0.85 17.9867 1.16018 18.7356 1.71231 19.2877C2.26444 19.8398 3.01329 20.15 3.79412 20.15H17.2059C17.9867 20.15 18.7356 19.8398 19.2877 19.2877C19.8398 18.7356 20.15 17.9867 20.15 17.2059V3.79412C20.15 3.01329 19.8398 2.26444 19.2877 1.71231C18.7356 1.16018 17.9867 0.85 17.2059 0.85ZM18.7324 17.2059C18.7324 17.6107 18.5715 17.999 18.2853 18.2853C17.999 18.5715 17.6107 18.7324 17.2059 18.7324H3.79412C3.38927 18.7324 3.00101 18.5715 2.71474 18.2853C2.42847 17.999 2.26765 17.6107 2.26765 17.2059V3.79412C2.26765 3.38927 2.42847 3.00101 2.71474 2.71474C3.00101 2.42847 3.38927 2.26765 3.79412 2.26765H17.2059C17.6107 2.26765 17.999 2.42847 18.2853 2.71474C18.5715 3.00101 18.7324 3.38927 18.7324 3.79412V17.2059ZM10.4998 15.3794C9.53483 15.3794 8.59151 15.0932 7.78914 14.5571C6.98673 14.0209 6.36132 13.2589 5.99201 12.3673C5.6227 11.4757 5.52607 10.4946 5.71434 9.54807C5.90262 8.60156 6.36734 7.73213 7.04974 7.04974C7.73213 6.36734 8.60156 5.90262 9.54807 5.71434C10.4946 5.52607 11.4757 5.6227 12.3673 5.99201C13.2589 6.36132 14.0209 6.98673 14.5571 7.78914C15.0932 8.59151 15.3794 9.53483 15.3794 10.4998C15.378 11.7935 14.8634 13.0338 13.9486 13.9486C13.0338 14.8634 11.7935 15.378 10.4998 15.3794ZM9.53235 11.0588V9.94118C9.53235 9.75319 9.45767 9.57289 9.32474 9.43996C9.19181 9.30703 9.01152 9.23235 8.82353 9.23235C8.63554 9.23235 8.45525 9.30703 8.32232 9.43996C8.18938 9.57289 8.11471 9.75319 8.11471 9.94118V11.0588C8.11471 11.2468 8.18938 11.4271 8.32231 11.56C8.45525 11.693 8.63554 11.7676 8.82353 11.7676C9.01152 11.7676 9.19181 11.693 9.32474 11.56C9.45767 11.4271 9.53235 11.2468 9.53235 11.0588ZM12.8853 11.0588V9.94118C12.8853 9.75318 12.8106 9.57289 12.6777 9.43996C12.5448 9.30703 12.3645 9.23235 12.1765 9.23235C11.9885 9.23235 11.8082 9.30703 11.6753 9.43996C11.5423 9.57289 11.4676 9.75319 11.4676 9.94118V11.0588C11.4676 11.2468 11.5423 11.4271 11.6753 11.56C11.8082 11.693 11.9885 11.7676 12.1765 11.7676C12.3645 11.7676 12.5448 11.693 12.6777 11.56C12.8106 11.4271 12.8853 11.2468 12.8853 11.0588Z" fill="#BABABA" stroke="#BABABA" stroke-width="0.3"/>
</svg>
