<svg width="24" height="24" viewBox="0 0 24 24" fill="none" xmlns="http://www.w3.org/2000/svg">
<rect width="24" height="24" fill="white"/>
<path d="M11.551 4.32058C11.6923 3.89314 12.3077 3.89314 12.449 4.32058L14.0139 9.05367C14.0771 9.24483 14.2584 9.37426 14.4629 9.37426H19.527C19.9843 9.37426 20.1745 9.94938 19.8045 10.2136L15.7075 13.1388C15.5421 13.2569 15.4728 13.4663 15.536 13.6575L17.1009 18.3906C17.2423 18.818 16.7444 19.1735 16.3744 18.9093L12.2775 15.9841C12.112 15.8659 11.888 15.8659 11.7225 15.9841L7.62556 18.9093C7.25557 19.1735 6.75774 18.818 6.89907 18.3906L8.46396 13.6575C8.52716 13.4663 8.45792 13.2569 8.29246 13.1388L4.19551 10.2136C3.82552 9.94938 4.01567 9.37426 4.47301 9.37426H9.53711C9.74164 9.37426 9.92291 9.24483 9.98611 9.05367L11.551 4.32058Z" fill="#45D6AD"/>
</svg>
