<svg width="16" height="15" viewBox="0 0 16 15" fill="none" xmlns="http://www.w3.org/2000/svg">
<path d="M7.25975 0.30767C7.39562 -0.102557 7.98724 -0.102557 8.12311 0.30767L9.62764 4.85008C9.68841 5.03354 9.86268 5.15775 10.0593 5.15775H14.9281C15.3678 5.15775 15.5506 5.70971 15.1949 5.96324L11.256 8.77061C11.0969 8.88399 11.0303 9.08497 11.0911 9.26843L12.5956 13.8108C12.7315 14.2211 12.2529 14.5622 11.8971 14.3087L7.95822 11.5013C7.79914 11.3879 7.58372 11.3879 7.42464 11.5013L3.48572 14.3087C3.12999 14.5622 2.65137 14.2211 2.78724 13.8108L4.29178 9.26843C4.35254 9.08497 4.28597 8.88399 4.12689 8.77061L0.187973 5.96324C-0.167752 5.70971 0.0150664 5.15775 0.454766 5.15775H5.32354C5.52017 5.15775 5.69445 5.03354 5.75522 4.85008L7.25975 0.30767Z" fill="#738801"/>
</svg>
