<svg width="31" height="17" viewBox="0 0 31 17" fill="none" xmlns="http://www.w3.org/2000/svg">
<path d="M3.9124 2.83333V2.63333H3.7124H2.35303C2.04827 2.63333 1.75424 2.50724 1.53611 2.27993C1.31772 2.05233 1.19365 1.74195 1.19365 1.41667C1.19365 1.09138 1.31772 0.781001 1.53611 0.553406C1.75424 0.326091 2.04827 0.2 2.35303 0.2H29.5405C29.8453 0.2 30.1393 0.326091 30.3574 0.553406C30.5758 0.781 30.6999 1.09138 30.6999 1.41667C30.6999 1.74195 30.5758 2.05233 30.3574 2.27993C30.1393 2.50724 29.8453 2.63333 29.5405 2.63333H28.1812H27.9812V2.83333V15.5833C27.9812 15.9086 27.8571 16.219 27.6387 16.4466C27.4206 16.6739 27.1265 16.8 26.8218 16.8C26.517 16.8 26.223 16.6739 26.0049 16.4466C25.7865 16.219 25.6624 15.9086 25.6624 15.5833V8.5V8.3H25.4624H6.43115H6.23115V8.5V15.5833C6.23115 15.9086 6.10708 16.219 5.88869 16.4466C5.67057 16.6739 5.37654 16.8 5.07178 16.8C4.76702 16.8 4.47299 16.6739 4.25486 16.4466C4.03647 16.219 3.9124 15.9086 3.9124 15.5833V2.83333ZM25.4624 5.86667H25.6624V5.66667V2.83333V2.63333H25.4624H6.43115H6.23115V2.83333V5.66667V5.86667H6.43115H25.4624Z" fill="#BABABA" stroke="#F9F9F9" stroke-width="0.4"/>
</svg>
