<svg width="52" height="42" viewBox="0 0 52 42" fill="none" xmlns="http://www.w3.org/2000/svg">
<path d="M2.79341 35.6233L2.79141 35.6211C2.37432 35.1333 2.26648 34.449 2.5251 33.8606L2.79341 35.6233ZM2.79341 35.6233C3.12141 35.9953 3.5836 36.2 4.06403 36.2C4.20625 36.2 4.3479 36.1822 4.48864 36.1471L4.48865 36.1471L4.49225 36.1461L15.6864 33.1276C16.727 33.3138 19.6794 33.8197 21.5 33.8197C32.8733 33.8197 42.2 26.4572 42.2 17.3098C42.2 8.17035 32.8655 0.8 21.5 0.8C10.1266 0.8 0.8 8.17045 0.8 17.3177C0.8 21.0627 2.38908 24.6599 5.27586 27.5728L2.52525 33.8602L2.79341 35.6233ZM15.1807 29.8008L15.1789 29.8013L6.99257 32.0029L8.63269 28.2591C8.65904 28.2265 8.69644 28.1797 8.72284 28.1368C9.19056 27.4362 9.07507 26.4961 8.43516 25.9367L8.43465 25.9362C5.65758 23.5247 4.14648 20.4607 4.14648 17.3177C4.14648 13.7057 6.07438 10.4186 9.21515 8.02799C12.356 5.63728 16.7009 4.1519 21.5 4.1519C26.2951 4.1519 30.6381 5.63726 33.778 8.02702C36.9178 10.4167 38.8457 13.7018 38.8457 17.3098C38.8457 20.9179 36.9197 24.205 33.7809 26.5966C30.6419 28.9883 26.299 30.4756 21.5 30.4756C20.5685 30.4756 19.189 30.3037 18.028 30.1284C17.4495 30.0411 16.9287 29.9536 16.5502 29.8873C16.3609 29.8542 16.2073 29.8264 16.0998 29.8067L15.9746 29.7835L15.9406 29.7771L15.9313 29.7754L15.9283 29.7748L15.9283 29.7748L15.9243 29.774C15.6774 29.73 15.421 29.7386 15.1807 29.8008Z" fill="#0989AD" stroke="#0989AD" stroke-width="0.4"/>
<path d="M47.8995 41.1459L47.8995 41.1459L39.6854 38.9311C38.8316 39.0846 36.7212 39.4298 35.3886 39.4298C29.4979 39.4298 24.1243 36.8342 21.3931 32.6202C21.2631 32.4214 21.2042 32.2241 21.2234 32.0287C21.2424 31.835 21.3353 31.6713 21.4549 31.5332C21.6559 31.3011 21.9734 31.0987 22.2684 30.9108C22.3098 30.8844 22.3508 30.8582 22.3909 30.8324C22.7727 30.5821 23.0708 30.5458 23.3495 30.5827C23.4474 30.5957 23.5454 30.6183 23.6333 30.6386C23.6595 30.6447 23.6848 30.6505 23.7089 30.6558C23.8197 30.6802 23.9233 30.6983 24.0356 30.6983H24.1442L24.2033 30.7893C26.3104 34.0312 30.5909 36.0638 35.3886 36.0638C36.5062 36.0638 38.6878 35.6981 39.4451 35.5559L39.4468 35.5556C39.6943 35.5113 39.9514 35.5199 40.1922 35.5825L40.194 35.5829L45.4016 36.9852L44.5208 34.971C44.5207 34.971 44.5207 34.9709 44.5207 34.9709C44.5177 34.966 44.5149 34.9608 44.5122 34.9553C44.0655 34.2577 44.1628 33.3454 44.8037 32.7925C46.7715 31.0769 47.8459 28.9105 47.8459 26.705C47.8459 22.8977 44.6685 19.3683 39.8583 17.9676C38.9661 17.7084 38.458 16.7789 38.7164 15.8868C38.975 14.9937 39.9032 14.4844 40.7949 14.7433L40.795 14.7433C46.9919 16.5469 51.2 21.3374 51.2 26.705C51.2 29.5144 50.0468 32.2155 47.9524 34.4256L49.8789 38.8426L47.8995 41.1459ZM47.8995 41.1459L47.903 41.1468M47.8995 41.1459L47.903 41.1468M47.903 41.1468C48.0451 41.1824 48.195 41.2 48.3366 41.2C48.8191 41.2 49.2911 40.9857 49.612 40.6108L49.6122 40.6106M47.903 41.1468L49.6122 40.6106M49.6122 40.6106C50.0302 40.1208 50.1381 39.4338 49.8791 38.8431L49.6122 40.6106ZM26.6483 16.8471C26.6483 19.0734 28.458 20.8943 30.6903 20.8943C31.4898 20.8943 32.2713 20.6569 32.936 20.2122C33.6007 19.7674 34.1187 19.1353 34.4246 18.3958C34.7305 17.6564 34.8105 16.8427 34.6546 16.0576C34.4987 15.2726 34.1137 14.5515 33.5485 13.9855C32.9832 13.4195 32.263 13.034 31.4789 12.8778C30.6948 12.7216 29.882 12.8018 29.1434 13.1081C28.4048 13.4145 27.7736 13.9332 27.3295 14.5988C26.8854 15.2643 26.6483 16.0468 26.6483 16.8471ZM30.0025 16.8471C30.0025 16.4696 30.3139 16.1581 30.6903 16.1581C30.8726 16.1581 31.0476 16.2307 31.1766 16.3598C31.3056 16.489 31.3781 16.6643 31.3781 16.8471C31.3781 17.03 31.3056 17.2053 31.1766 17.3345C31.0476 17.4636 30.8726 17.5362 30.6903 17.5362C30.3139 17.5362 30.0025 17.2247 30.0025 16.8471ZM17.2281 16.8471C17.2281 19.0734 19.0378 20.8943 21.2701 20.8943C23.4942 20.8943 25.312 19.0737 25.312 16.8471C25.312 15.7739 24.8862 14.7445 24.1282 13.9855C23.3702 13.2265 22.3421 12.8 21.2701 12.8C20.198 12.8 19.1699 13.2265 18.4119 13.9855C17.6539 14.7445 17.2281 15.7739 17.2281 16.8471ZM20.5822 16.8471C20.5822 16.4696 20.8936 16.1581 21.2701 16.1581C21.6442 16.1581 21.9509 16.4598 21.9579 16.8487C21.957 17.2256 21.6459 17.5362 21.2701 17.5362C20.8936 17.5362 20.5822 17.2247 20.5822 16.8471ZM7.8 16.8471C7.8 19.0734 9.60965 20.8943 11.842 20.8943C14.0743 20.8943 15.8839 19.0734 15.8839 16.8471C15.8839 15.7739 15.4581 14.7445 14.7001 13.9855C13.9421 13.2265 12.914 12.8 11.842 12.8C10.7699 12.8 9.74176 13.2265 8.98376 13.9855C8.22578 14.7445 7.8 15.7739 7.8 16.8471ZM11.1541 16.8471C11.1541 16.4696 11.4655 16.1581 11.842 16.1581C12.0243 16.1581 12.1992 16.2307 12.3282 16.3598C12.4572 16.489 12.5298 16.6643 12.5298 16.8471C12.5298 17.03 12.4572 17.2053 12.3282 17.3345C12.1992 17.4636 12.0243 17.5362 11.842 17.5362C11.4655 17.5362 11.1541 17.2247 11.1541 16.8471Z" fill="#0989AD" stroke="#0989AD" stroke-width="0.4"/>
</svg>
