<svg width="19" height="14" viewBox="0 0 19 14" fill="none" xmlns="http://www.w3.org/2000/svg">
<path fill-rule="evenodd" clip-rule="evenodd" d="M0.678571 9.8V2.1C0.678571 1.5428 0.893001 1.0087 1.27504 0.615298C1.65639 0.221198 2.17414 0 2.71429 0C5.78143 0 13.2186 0 16.2857 0C16.8259 0 17.3436 0.221198 17.725 0.615298C18.107 1.0087 18.3214 1.5428 18.3214 2.1V9.8C18.696 9.8 19 10.1136 19 10.5C19 10.5 19 11.2 19 11.9C19 13.0599 18.0887 14 16.9643 14C13.678 14 5.32204 14 2.03571 14C0.911321 14 0 13.0599 0 11.9V10.5C0 10.1136 0.304 9.8 0.678571 9.8ZM1.35714 11.2V11.9C1.35714 12.2864 1.66114 12.6 2.03571 12.6H8.82143V11.2H1.35714ZM17.6429 11.2H10.1786V12.6H16.9643C17.3389 12.6 17.6429 12.2864 17.6429 11.9V11.2ZM2.03571 9.8H16.9643V2.1C16.9643 1.9145 16.893 1.736 16.7655 1.6051C16.6386 1.4735 16.4655 1.4 16.2857 1.4C13.2186 1.4 5.78143 1.4 2.71429 1.4C2.53446 1.4 2.36143 1.4735 2.23454 1.6051C2.10696 1.736 2.03571 1.9145 2.03571 2.1V9.8Z" fill="#BABABA"/>
</svg>
