<svg width="14" height="14" viewBox="0 0 14 14" fill="none" xmlns="http://www.w3.org/2000/svg">
<path fill-rule="evenodd" clip-rule="evenodd" d="M6.37779 7.03611C6.37769 7.03374 6.37769 7.03137 6.37769 7.0291V2.67352C6.37769 2.32989 6.65625 2.05126 6.99995 2.05126C7.34358 2.05126 7.62211 2.32989 7.62211 2.67352V6.42092H10.5647C10.9083 6.42092 11.1868 6.69956 11.1868 7.04318C11.1868 7.3868 10.9083 7.66534 10.5647 7.66534H7.00003C6.6563 7.66534 6.37777 7.38678 6.37777 7.04318C6.37777 7.04081 6.37777 7.03844 6.37787 7.03617L6.37779 7.03611ZM14 6.99987C14 3.13392 10.8661 0 7.00013 0C3.13417 0 0 3.13392 0 6.99987C0 10.8658 3.13392 14 7.00013 14C10.8661 14 14 10.8661 14 6.99987ZM1.24467 6.99987C1.24467 3.82121 3.82147 1.24442 7.00013 1.24442C10.1788 1.24442 12.7556 3.82121 12.7556 6.99987C12.7556 10.1785 10.1788 12.7553 7.00013 12.7553C3.82147 12.7553 1.24467 10.1785 1.24467 6.99987Z" fill="#BABABA"/>
</svg>
