<svg width="18" height="17" viewBox="0 0 18 17" fill="none" xmlns="http://www.w3.org/2000/svg">
<path d="M10.9599 5.74004L9.45536 1.19762C9.21352 0.467459 8.16934 0.467459 7.9275 1.19762L6.42297 5.74004C6.41077 5.77685 6.3729 5.80775 6.32353 5.80775H1.45477C0.690095 5.80775 0.338935 6.78791 0.984834 7.24826L4.92375 10.0556C4.95969 10.0812 4.97129 10.1229 4.95953 10.1584L3.455 14.7008C3.20494 15.4558 4.07776 16.0292 4.68886 15.5937L8.62777 12.7863C8.66529 12.7596 8.71757 12.7596 8.75508 12.7863L12.694 15.5937C13.3051 16.0292 14.1779 15.4558 13.9279 14.7008L12.4233 10.1584C12.4116 10.1229 12.4232 10.0812 12.4591 10.0556L16.398 7.24826C17.0439 6.78791 16.6928 5.80775 15.9281 5.80775H11.0593C11.01 5.80775 10.9721 5.77685 10.9599 5.74004Z" stroke="#FAFAFA" stroke-opacity="0.7" stroke-width="0.7"/>
</svg>
