<svg width="14" height="14" viewBox="0 0 14 14" fill="none" xmlns="http://www.w3.org/2000/svg">
<path d="M13.3 6.99124C12.88 6.99124 12.6 7.27159 12.6 7.69211V11.8974C12.6 12.3179 12.32 12.5982 11.9 12.5982H2.1C1.68 12.5982 1.4 12.3179 1.4 11.8974V7.69211C1.4 7.27159 1.12 6.99124 0.7 6.99124C0.28 6.99124 0 7.27159 0 7.69211V11.8974C0 13.0889 0.91 14 2.1 14H11.9C13.09 14 14 13.0889 14 11.8974V7.69211C14 7.27159 13.72 6.99124 13.3 6.99124ZM4.69 3.97747L6.3 2.36546V9.09387C6.3 9.51439 6.58 9.79474 7 9.79474C7.42 9.79474 7.7 9.51439 7.7 9.09387V2.36546L9.31 3.97747C9.59 4.25782 10.01 4.25782 10.29 3.97747C10.57 3.69712 10.57 3.2766 10.29 2.99625L7.49 0.192741C7.42 0.122653 7.35 0.0525657 7.28 0.0525657C7.14 -0.0175219 6.93 -0.0175219 6.72 0.0525657C6.65 0.0525657 6.58 0.122653 6.51 0.192741L3.71 2.99625C3.43 3.2766 3.43 3.69712 3.71 3.97747C3.99 4.25782 4.41 4.25782 4.69 3.97747Z" fill="#BABABA"/>
</svg>
