<svg width="35" height="33" viewBox="0 0 35 33" fill="none" xmlns="http://www.w3.org/2000/svg">
<path d="M30.321 0H4.679C2.10012 0 0 1.98012 0 4.41162V28.5884C0 31.0199 2.10012 33 4.679 33H30.321C32.8999 33 35 31.0199 35 28.5884V4.41162C35 1.98012 32.8999 0 30.321 0ZM4.679 2.46643H30.321C31.463 2.46643 32.3841 3.33485 32.3841 4.41162V17.2989L26.4525 10.2474C25.7525 9.37897 24.3524 9.37897 23.6526 10.2474L14.9947 20.5642L11.3843 16.8472C10.6475 16.083 9.35793 16.083 8.62115 16.8472L2.61585 22.9957V4.41156C2.61585 3.33479 3.5369 2.46637 4.67893 2.46637L4.679 2.46643Z" fill="#BABABA"/>
</svg>
