<svg width="14" height="14" viewBox="0 0 14 14" fill="none" xmlns="http://www.w3.org/2000/svg">
<path fill-rule="evenodd" clip-rule="evenodd" d="M7 1.07692C3.72862 1.07692 1.07692 3.72874 1.07692 7C1.07692 10.2711 3.72874 12.9231 7 12.9231C10.2711 12.9231 12.9231 10.2711 12.9231 7C12.9231 3.72862 10.2711 1.07692 7 1.07692ZM0 7C0 3.13415 3.13415 0 7 0C10.8658 0 14 3.13415 14 7C14 10.8658 10.8658 14 7 14C3.13415 14 0 10.8658 0 7Z" fill="#BABABA"/>
<path fill-rule="evenodd" clip-rule="evenodd" d="M4.93168 2.69255C4.33432 3.76766 3.94802 5.28954 3.94802 6.99994C3.94802 8.71034 4.33432 10.2322 4.93168 11.3073C5.53912 12.4008 6.29239 12.923 6.99934 12.923C7.70629 12.923 8.45956 12.4008 9.067 11.3073C9.66423 10.2322 10.0507 8.71034 10.0507 6.99994C10.0507 5.28954 9.66423 3.76763 9.067 2.69255C8.45956 1.59905 7.70629 1.07692 6.99934 1.07692C6.29239 1.07692 5.53912 1.59905 4.93168 2.69255ZM3.99032 2.16948C4.68202 0.924277 5.72374 0 6.99934 0C8.27494 0 9.31663 0.924277 10.0084 2.16948C10.7103 3.43292 11.1276 5.14185 11.1276 6.99994C11.1276 8.85803 10.7103 10.567 10.0084 11.8304C9.31666 13.0755 8.27494 13.9999 6.99934 13.9999C5.72374 13.9999 4.68205 13.0755 3.99032 11.8304C3.28842 10.567 2.87109 8.85803 2.87109 6.99994C2.87109 5.14185 3.28839 3.43286 3.99032 2.16948Z" fill="#BABABA"/>
<path fill-rule="evenodd" clip-rule="evenodd" d="M0.359375 4.84608C0.359375 4.54872 0.60036 4.30762 0.897837 4.30762H13.1028C13.4001 4.30762 13.6412 4.54872 13.6412 4.84608C13.6412 5.14344 13.4001 5.38454 13.1028 5.38454H0.897837C0.60036 5.38454 0.359375 5.14344 0.359375 4.84608Z" fill="#BABABA"/>
<path fill-rule="evenodd" clip-rule="evenodd" d="M0.359375 9.1537C0.359375 8.85634 0.60036 8.61523 0.897837 8.61523H13.1028C13.4001 8.61523 13.6412 8.85634 13.6412 9.1537C13.6412 9.45105 13.4001 9.69216 13.1028 9.69216H0.897837C0.60036 9.69216 0.359375 9.45105 0.359375 9.1537Z" fill="#BABABA"/>
</svg>
