<svg width="19" height="14" viewBox="0 0 19 14" fill="none" xmlns="http://www.w3.org/2000/svg">
<path d="M16.7371 5.4141C15.7848 4.40887 14.6377 3.60823 13.3657 3.06105C12.0936 2.51378 10.7232 2.23153 9.33829 2.23153C7.9534 2.23153 6.58303 2.51378 5.31086 3.06105C4.03889 3.60823 2.89175 4.40887 1.93947 5.41409C1.74141 5.61757 1.47067 5.73412 1.18672 5.73812C1.04602 5.7401 0.906297 5.71435 0.775546 5.66233C0.644793 5.61032 0.525563 5.53306 0.42467 5.43497C0.220904 5.23686 0.104184 4.96593 0.10018 4.68176C0.096177 4.39759 0.205224 4.12347 0.403333 3.91971L0.403914 3.9191C1.55789 2.71196 2.94451 1.75119 4.48008 1.09479C6.01565 0.438389 7.66831 0.0999727 9.33829 0.0999729C11.0083 0.099973 12.6609 0.438389 14.1965 1.09479C15.7321 1.75119 17.1187 2.71196 18.2727 3.91911L18.2733 3.91971C18.3714 4.02061 18.4486 4.13983 18.5006 4.27059C18.5526 4.40134 18.5784 4.54106 18.5764 4.68176C18.5724 4.96593 18.4557 5.23686 18.2519 5.43497C18.151 5.53306 18.0318 5.61032 17.901 5.66234C17.7703 5.71435 17.6306 5.7401 17.4899 5.73812C17.3492 5.73614 17.2102 5.70646 17.081 5.65078C16.952 5.59519 16.8351 5.51477 16.7371 5.4141ZM16.7371 5.4141C16.7373 5.41426 16.7374 5.41441 16.7376 5.41457L16.665 5.48334M16.7371 5.4141C16.737 5.41395 16.7368 5.41379 16.7367 5.41363L16.665 5.48334M16.665 5.48334C15.7219 4.48775 14.5859 3.69481 13.3262 3.15291C12.0665 2.61101 10.7096 2.33153 9.33829 2.33153C7.96699 2.33153 6.61007 2.61101 5.35038 3.15291C4.09068 3.69481 2.95465 4.48775 2.01163 5.48334L18.345 3.85C18.4522 3.96031 18.5367 4.09067 18.5935 4.23362C18.6504 4.37658 18.6786 4.52933 18.6764 4.68317C18.672 4.99386 18.5444 5.29008 18.3216 5.50667C18.2113 5.61391 18.081 5.69838 17.938 5.75525C17.7951 5.81212 17.6423 5.84028 17.4885 5.83811C17.3346 5.83594 17.1827 5.8035 17.0414 5.74262C16.9001 5.68175 16.7722 5.59365 16.665 5.48334ZM8.27163 12.8333L8.27163 12.6C8.27163 12.3171 8.38401 12.0458 8.58404 11.8458C8.78408 11.6457 9.0554 11.5333 9.33829 11.5333C9.62119 11.5333 9.8925 11.6457 10.0925 11.8458C10.2926 12.0458 10.405 12.3171 10.405 12.6L10.405 12.8333C10.405 13.1162 10.2926 13.3875 10.0925 13.5876C9.8925 13.7876 9.62119 13.9 9.33829 13.9C9.0554 13.9 8.78408 13.7876 8.58405 13.5876C8.38401 13.3875 8.27163 13.1162 8.27163 12.8333Z" fill="#BABABA" stroke="#F9F9F9" stroke-width="0.2"/>
<path d="M14.8238 8.29723L14.8237 8.29729L14.8264 8.30049C15.0075 8.51835 15.0946 8.79921 15.0686 9.0813C15.0426 9.36339 14.9056 9.62359 14.6877 9.80467C14.4699 9.98574 14.189 10.0729 13.9069 10.0469C13.6255 10.0209 13.3658 9.88448 13.1848 9.6675C12.7315 9.07519 12.1508 8.59234 11.4858 8.25465C10.8201 7.91665 10.0869 7.73276 9.34047 7.7166L9.34047 7.7165L9.33614 7.7166C8.58973 7.73276 7.85652 7.91665 7.19083 8.25465C6.52576 8.59233 5.94511 9.07519 5.49181 9.6675C5.31078 9.88448 5.05114 10.0209 4.7697 10.0468C4.48762 10.0729 4.20675 9.98574 3.98889 9.80467C3.77104 9.62359 3.63403 9.36339 3.60803 9.0813C3.58202 8.79921 3.66913 8.51835 3.85021 8.30049L3.85028 8.30055L3.85281 8.29723C4.49674 7.45331 5.32671 6.76935 6.27813 6.29856C7.22955 5.82776 8.27677 5.58284 9.3383 5.58284C10.3998 5.58284 11.4471 5.82776 12.3985 6.29856C13.3499 6.76935 14.1799 7.45332 14.8238 8.29723Z" fill="#BABABA" stroke="#F9F9F9" stroke-width="0.2"/>
</svg>
