<svg width="25" height="25" viewBox="0 0 25 25" fill="none" xmlns="http://www.w3.org/2000/svg">
<path d="M10.1541 22C6.1924 22 2.99878 18.8064 2.99878 14.8851C2.99878 10.9638 6.1924 7.77021 10.1541 7.77021C10.5988 7.77021 10.9626 8.13404 10.9626 8.57872C10.9626 9.0234 10.5988 9.38723 10.1541 9.38723C7.08176 9.38723 4.57537 11.8532 4.57537 14.9255C4.57537 17.9574 7.08176 20.4638 10.1541 20.4638C13.2264 20.4638 15.7328 17.9979 15.7328 14.9255C15.7328 14.4809 16.0967 14.117 16.5413 14.117C16.986 14.117 17.3498 14.4809 17.3498 14.9255C17.3094 18.8064 14.1158 22 10.1541 22ZM10.9222 7.52766C9.66899 7.52766 8.65835 6.51702 8.65835 5.26383C8.65835 4.01064 9.66899 3 10.9222 3C12.1754 3 13.186 4.01064 13.186 5.26383C13.186 6.51702 12.1754 7.52766 10.9222 7.52766ZM10.9222 4.5766C10.5584 4.5766 10.2349 4.85957 10.2349 5.26383C10.2349 5.62766 10.5584 5.95106 10.9222 5.95106C11.286 5.95106 11.6094 5.66809 11.6094 5.26383C11.6094 4.9 11.286 4.5766 10.9222 4.5766Z" fill="#1C1C1C"/>
<path d="M20.1395 19.4127C20.0991 19.4127 20.0183 19.4127 19.9778 19.4127C19.7353 19.3723 19.5736 19.2106 19.4523 19.0085L17.6332 15.6936H10.9225C10.4778 15.6936 10.114 15.3298 10.114 14.8851V7.04252C10.114 6.59784 10.4778 6.23401 10.9225 6.23401C11.3672 6.23401 11.731 6.59784 11.731 7.04252V14.117H18.1587C18.4417 14.117 18.7247 14.2787 18.8459 14.5212L20.4225 17.4319L20.7459 17.1893C21.1098 16.9468 21.5949 16.9872 21.8374 17.351C22.08 17.7149 22.0395 18.2 21.6757 18.4425L20.6247 19.2106C20.5034 19.3319 20.3417 19.4127 20.1395 19.4127Z" fill="#1C1C1C"/>
<path d="M15.5715 9.34651H10.9225C10.4778 9.34651 10.114 8.98268 10.114 8.538C10.114 8.09332 10.4778 7.72949 10.9225 7.72949H15.5715C16.0161 7.72949 16.38 8.09332 16.38 8.538C16.38 8.98268 16.0161 9.34651 15.5715 9.34651Z" fill="#1C1C1C"/>
</svg>
