<svg width="24" height="25" viewBox="0 0 24 25" fill="none" xmlns="http://www.w3.org/2000/svg">
<path d="M9.40286 9.51672C8.88 9.12918 8.57143 8.54787 8.57143 7.93887V3.76817C8.57143 3.50058 8.46 3.26067 8.28 3.08535L8.52857 2.18108C8.60572 1.90427 8.55429 1.59977 8.39143 1.36909C8.22857 1.13841 7.97143 1 7.70571 1H4.27714C4.00286 1 3.75429 1.13841 3.59143 1.36909C3.43714 1.609 3.38571 1.91349 3.46286 2.19031L3.71143 3.09458C3.54 3.26067 3.42857 3.50058 3.42857 3.77739V7.95732C3.42857 8.57555 3.14571 9.13841 2.67429 9.47982C1.00286 10.6794 0 12.6817 0 14.8501V24.0773C0 24.5848 0.385714 25 0.857143 25H11.1429C11.6143 25 12 24.5848 12 24.0773V14.8501C12 13.1153 11.3743 11.4913 10.2429 10.2918C9.98572 10.0058 9.70286 9.7474 9.40286 9.51672ZM5.14286 4.69089H6.85714V5.61361H5.14286V4.69089ZM1.71429 23.1453V22.2226H10.2857V23.1453H1.71429ZM10.2857 20.3772H1.71429V14.8408C1.71429 13.2907 2.42571 11.8604 3.62571 11.0023C4.57714 10.3195 5.14286 9.17532 5.14286 7.9481V7.45905H6.85714V7.93887C6.85714 9.14764 7.44857 10.3103 8.42571 11.0392C8.64 11.1961 8.83714 11.3806 9.02571 11.5836C9.83143 12.451 10.2771 13.6044 10.2771 14.8408V20.3772H10.2857Z" fill="#BABABA"/>
<path d="M7.76525 13.6549H7.36427L7.23373 13.2765C7.1125 12.898 6.74883 12.6395 6.34785 12.6395C5.94688 12.6395 5.58321 12.898 5.46198 13.2765L5.34076 13.6549H4.93046C4.52949 13.6549 4.16581 13.9134 4.04459 14.2919C3.92336 14.6704 4.05391 15.0858 4.38029 15.3258L4.70666 15.5658L4.58544 15.9443C4.46421 16.3227 4.59476 16.7381 4.92114 16.9781C5.08898 17.0981 5.27548 17.1535 5.47131 17.1535C5.66713 17.1535 5.85363 17.0981 6.02148 16.9781L6.34785 16.7381L6.67423 16.9781C7.0006 17.2089 7.43887 17.2089 7.77457 16.9781C8.10095 16.7474 8.24082 16.3227 8.11027 15.9443L7.98905 15.5658L8.31542 15.3258C8.64179 15.095 8.78167 14.6704 8.65112 14.2919C8.52989 13.9134 8.16622 13.6549 7.76525 13.6549ZM24 11.6149V8.38395C24 7.87624 23.5804 7.46084 23.0675 7.46084H20.9414V3.76839C20.9414 3.46376 20.7829 3.16836 20.5218 3.0022L17.7243 1.15597C17.2954 0.869808 16.7172 0.989813 16.4281 1.41445C16.1391 1.83908 16.2603 2.41141 16.6892 2.69757L19.0764 4.26687V7.46084H18.1439C18.1439 5.42076 16.4748 3.76839 14.4139 3.76839C12.3531 3.76839 10.684 5.42076 10.684 7.46084C10.684 9.27014 12.0081 10.7748 13.7425 11.0887V11.6149C13.7425 14.1073 15.5609 16.175 17.9574 16.6089C17.9574 16.6366 17.9388 16.6643 17.9388 16.692V23.1538H14.5911C14.0782 23.1538 13.6586 23.5692 13.6586 24.0769C13.6586 24.5846 14.0782 25 14.5911 25H22.9836C23.4965 25 23.9161 24.5846 23.9161 24.0769C23.9161 23.5692 23.4965 23.1538 22.9836 23.1538H19.8038V16.692C19.8038 16.6643 19.7851 16.6366 19.7851 16.6089C22.1816 16.175 24 14.1073 24 11.6149ZM22.135 9.30707V9.55631C21.8553 9.72247 21.4263 9.94402 20.9414 10.1286V9.30707H22.135ZM19.0764 9.30707V10.4702C18.8899 10.4517 18.7127 10.4056 18.5636 10.3317C17.659 9.88863 16.6333 9.8794 15.6075 10.2579V9.30707H19.0764ZM12.549 7.46084C12.549 6.44541 13.3882 5.61461 14.4139 5.61461C15.4397 5.61461 16.2789 6.44541 16.2789 7.46084H14.675C14.1622 7.46084 13.7425 7.87624 13.7425 8.38395V9.17783C13.0432 8.91013 12.549 8.24549 12.549 7.46084ZM18.8713 14.8457C17.2954 14.8457 15.9805 13.738 15.6728 12.2703C16.2323 11.9287 17.0063 11.6241 17.7243 11.9749C18.1533 12.1872 18.6102 12.298 19.0764 12.3256V12.9995C19.0764 13.5072 19.496 13.9226 20.0089 13.9226C20.5218 13.9226 20.9414 13.5072 20.9414 12.9995V12.0949C21.3797 11.9656 21.7807 11.8087 22.135 11.6518C22.1164 13.4149 20.6617 14.8457 18.8713 14.8457Z" fill="#BABABA"/>
</svg>
