<svg width="20" height="25" viewBox="0 0 20 25" fill="none" xmlns="http://www.w3.org/2000/svg">
<path id="Vector" fill-rule="evenodd" clip-rule="evenodd" d="M16.7084 13.2821C16.6776 10.1173 19.2448 8.59856 19.3595 8.52337C17.9165 6.37534 15.6685 6.08008 14.8674 6.04688C12.9544 5.85033 11.1352 7.19376 10.1632 7.19376C9.19398 7.19376 7.69618 6.07637 6.10999 6.10594C4.02511 6.13731 2.10297 7.34 1.02818 9.24031C-1.13788 13.0648 0.47414 18.7333 2.58535 21.8346C3.61666 23.3533 4.84655 25.0593 6.46176 24.9984C8.01667 24.9361 8.60509 23.9733 10.486 23.9733C12.3664 23.9733 12.8945 24.9985 14.5406 24.9657C16.2142 24.9343 17.2746 23.4174 18.2991 21.8936C19.4846 20.1312 19.9705 18.427 20 18.3394C19.9628 18.3223 16.7365 17.0647 16.7038 13.2835L16.7084 13.2821H16.7084ZM13.6167 3.99201C14.4735 2.93415 15.0524 1.46569 14.8942 0C13.6598 0.0512077 12.1629 0.83733 11.2766 1.89382C10.481 2.83173 9.78605 4.32648 9.97193 5.76217C11.3505 5.87154 12.7581 5.04941 13.6153 3.99385L13.6167 3.99201Z" fill="white"/>
</svg>
