<svg width="25" height="25" viewBox="0 0 25 25" fill="none" xmlns="http://www.w3.org/2000/svg">
<g clip-path="url(#clip0_2150_106634)">
<path fill-rule="evenodd" clip-rule="evenodd" d="M24.0747 6.32684H22.1182V5.01458C22.9638 4.65461 23.559 3.81683 23.559 2.8412V0.923931C23.559 0.413295 23.1444 0 22.6337 0H19.752C19.2414 0 18.8267 0.413295 18.8267 0.923931V2.8412C18.8267 3.81683 19.422 4.65461 20.2675 5.01458V6.32684H16.3546V5.01458C17.2001 4.65461 17.7954 3.81683 17.7954 2.8412V0.923931C17.7954 0.413295 17.3807 0 16.8701 0H13.9884C13.4778 0 13.0631 0.413295 13.0631 0.923931V2.8412C13.0631 3.81683 13.6583 4.65461 14.5039 5.01458V6.32684H12.7049V4.37462C12.7049 3.86398 12.2902 3.45069 11.7795 3.45069H5.9809V2.93655C5.9809 2.42591 5.56623 2.01261 5.05557 2.01261C4.54491 2.01261 4.13023 2.42591 4.13023 2.93655V3.45069H3.61464C3.10398 3.45069 2.68931 3.86398 2.68931 4.37462V6.32679H0.925333C0.414675 6.32679 0 6.74009 0 7.25072V24.0761C0 24.5867 0.414675 25 0.925333 25H24.0747C24.5853 25 25 24.5867 25 24.0761V7.25077C25 6.74013 24.5853 6.32684 24.0747 6.32684ZM22.6778 0.206241C22.6632 0.205363 22.6485 0.204918 22.6337 0.204918H19.752C19.3542 0.204918 19.0316 0.526844 19.0316 0.923931V2.8412C19.0316 3.77856 19.6339 4.57777 20.4724 4.87457V6.53176L16.1499 6.53177H20.4726V4.87459C19.6341 4.57778 19.0318 3.77857 19.0318 2.84122V0.923944C19.0318 0.526857 19.3544 0.204931 19.7522 0.204931H22.6339C22.6486 0.204931 22.6632 0.205371 22.6778 0.206241ZM16.9142 0.206241C16.8996 0.205363 16.8849 0.204918 16.8701 0.204918H13.9884C13.5906 0.204918 13.268 0.526844 13.268 0.923931V2.8412C13.268 3.77856 13.8703 4.57777 14.7088 4.87457V6.53176H12.5002V6.53177H14.709V4.87459C13.8705 4.57778 13.2682 3.77857 13.2682 2.84122V0.923944C13.2682 0.526857 13.5908 0.204931 13.9886 0.204931H16.8703C16.885 0.204931 16.8996 0.205371 16.9142 0.206241ZM11.8236 3.65693C11.809 3.65605 11.7943 3.65561 11.7795 3.65561H5.77618V3.65562H11.7797C11.7945 3.65562 11.8091 3.65606 11.8236 3.65693ZM5.09964 2.21886C5.08506 2.21798 5.07037 2.21753 5.05557 2.21753C4.65771 2.21753 4.33515 2.53946 4.33515 2.93655V3.65561H3.61464C3.21678 3.65561 2.89423 3.97753 2.89423 4.37462V6.53171H0.925333C0.527472 6.53171 0.204918 6.85363 0.204918 7.25072V24.0761C0.204918 24.4414 0.477981 24.7432 0.831522 24.789C0.478077 24.7431 0.205118 24.4414 0.205118 24.0761V7.25073C0.205118 6.85365 0.527672 6.53172 0.925533 6.53172H2.89443V4.37463C2.89443 3.97755 3.21698 3.65562 3.61484 3.65562H4.33535V2.93656C4.33535 2.53947 4.65791 2.21755 5.05577 2.21755C5.0705 2.21755 5.08513 2.21799 5.09964 2.21886ZM24.1187 6.53308C24.1042 6.5322 24.0895 6.53176 24.0747 6.53176L21.9135 6.53177H24.0749C24.0896 6.53177 24.1042 6.53221 24.1187 6.53308ZM20.6774 2.8412V1.84786H21.7084V2.8412C21.7084 3.12412 21.4773 3.3553 21.1929 3.3553C20.9084 3.3553 20.6774 3.12413 20.6774 2.8412ZM14.9138 1.84786H15.9448V2.8412C15.9448 3.12413 15.7137 3.3553 15.4293 3.3553C15.1448 3.3553 14.9138 3.12412 14.9138 2.8412V1.84786ZM4.53997 5.29855H10.8542V6.32679H4.53997V5.29855ZM23.1493 8.1747V9.20304H1.85067V8.1747H23.1493ZM18.2283 23.1522V20.6381H18.7436C19.2542 20.6381 19.669 20.2248 19.669 19.7141C19.669 19.2035 19.2542 18.7902 18.7436 18.7902H18.2283V16.8031H20.6649C21.1756 16.8031 21.5903 16.3898 21.5903 15.8792V14.4411C21.5903 13.1382 20.5286 12.0792 19.2241 12.0792H15.3818C14.0773 12.0792 13.0156 13.1382 13.0156 14.4411V15.8792C13.0156 16.3898 13.4303 16.8031 13.941 16.8031H16.3776V18.7902H15.8623C15.3516 18.7902 14.9369 19.2035 14.9369 19.7141C14.9369 20.2248 15.3516 20.6381 15.8623 20.6381H16.3776V23.1522H8.62242V20.6381H9.13777C9.64843 20.6381 10.0631 20.2248 10.0631 19.7141C10.0631 19.2035 9.64843 18.7902 9.13777 18.7902H8.62242V16.8031H11.0591C11.5697 16.8031 11.9844 16.3898 11.9844 15.8792V14.4411C11.9844 13.1382 10.9228 12.0792 9.61824 12.0792H5.77593C4.47138 12.0792 3.40977 13.1382 3.40977 14.4411V15.8792C3.40977 16.3898 3.82445 16.8031 4.3351 16.8031H6.77176V18.7902H6.2564C5.74575 18.7902 5.33107 19.2035 5.33107 19.7141C5.33107 20.2248 5.74575 20.6381 6.2564 20.6381H6.77176V23.1522H1.85067V11.0509H23.1493V23.1522H18.2283ZM14.8663 14.9553V14.4412C14.8663 14.1583 15.0974 13.9271 15.3818 13.9271H19.2241C19.5086 13.9271 19.7396 14.1583 19.7396 14.4412V14.9553H14.8663ZM5.26044 14.9553V14.4412C5.26044 14.1583 5.49149 13.9271 5.77593 13.9271H9.61824C9.90268 13.9271 10.1337 14.1583 10.1337 14.4412V14.9553H5.26044ZM21.1929 3.56022C21.1929 3.56022 21.193 3.56023 21.1931 3.56023C21.5903 3.56023 21.9135 3.23768 21.9135 2.84122V1.64296L21.9133 1.64294V2.8412C21.9133 3.23767 21.5901 3.56022 21.1929 3.56022ZM16.1497 1.64294L16.1499 1.64296V2.84122C16.1499 3.23768 15.8267 3.56023 15.4295 3.56023C15.4147 3.56023 15.4 3.55978 15.3855 3.5589C15.3999 3.55978 15.4145 3.56022 15.4293 3.56022C15.8265 3.56022 16.1497 3.23767 16.1497 2.8412V1.64294ZM4.33526 6.53171V6.53172H11.0593V5.09365H11.0591V6.53171H4.33526ZM1.64595 9.40795V9.40797H23.3545V7.9698L23.3543 7.96978V9.40795H1.64595ZM18.0236 23.3571H23.3545V10.846L23.3543 10.846V23.3571L18.0236 23.3571ZM18.7877 18.9965C18.7731 18.9956 18.7584 18.9951 18.7436 18.9951L18.0236 18.9951H18.7438C18.7586 18.9951 18.7732 18.9956 18.7877 18.9965ZM19.2243 12.2841C19.2243 12.2841 19.2243 12.2841 19.2243 12.2841H15.382C14.1903 12.2841 13.2208 13.2518 13.2208 14.4412V15.8792C13.2208 16.2514 13.5041 16.5576 13.8673 16.5945C13.5041 16.5577 13.2206 16.2514 13.2206 15.8792V14.4411C13.2206 13.2518 14.1901 12.2841 15.3818 12.2841H19.2241C19.2242 12.2841 19.2243 12.2841 19.2243 12.2841ZM16.5825 16.5982V18.9951H15.8623C15.4644 18.9951 15.1419 19.3171 15.1419 19.7141C15.1419 20.0864 15.4254 20.3926 15.7886 20.4295C15.4254 20.3925 15.1421 20.0864 15.1421 19.7142C15.1421 19.3171 15.4646 18.9951 15.8625 18.9951H16.5827V16.5982L16.5825 16.5982ZM16.5825 20.4332V23.3571L8.4177 23.3571H16.5827V20.4332L16.5825 20.4332ZM6.97667 23.3571L1.64595 23.3571H6.97687V20.4332L6.97667 20.4332V23.3571ZM6.18275 20.4295C5.81958 20.3925 5.53619 20.0864 5.53619 19.7142C5.53619 19.3171 5.85874 18.9951 6.2566 18.9951H6.97687V16.5982L6.97667 16.5982V18.9951H6.2564C5.85854 18.9951 5.53599 19.3171 5.53599 19.7141C5.53599 20.0864 5.81948 20.3926 6.18275 20.4295ZM4.26145 16.5945C3.89828 16.5576 3.61489 16.2514 3.61489 15.8792V14.4412C3.61489 13.2518 4.58438 12.2841 5.77613 12.2841H9.61844C9.64019 12.2841 9.66186 12.2844 9.68345 12.2851C9.6618 12.2844 9.64006 12.2841 9.61824 12.2841H5.77593C4.58418 12.2841 3.61469 13.2518 3.61469 14.4411V15.8792C3.61469 16.2514 3.89818 16.5577 4.26145 16.5945ZM8.4177 18.9951H9.13797C9.15271 18.9951 9.16733 18.9956 9.18184 18.9965C9.16727 18.9956 9.15257 18.9951 9.13777 18.9951L8.4177 18.9951ZM14.6616 15.1602V15.1602H19.9447V14.4412C19.9447 14.0594 19.645 13.7462 19.2681 13.7235C19.6449 13.7463 19.9445 14.0595 19.9445 14.4412V15.1602H14.6616ZM9.66225 13.7235C10.0392 13.7462 10.3389 14.0594 10.3389 14.4412V15.1602H5.05572V15.1602H10.3387V14.4412C10.3387 14.0595 10.0391 13.7463 9.66225 13.7235Z" fill="#BABABA"/>
</g>
<defs>
<clipPath id="clip0_2150_106634">
<rect width="25" height="25" fill="white"/>
</clipPath>
</defs>
</svg>
