<svg width="16" height="22" viewBox="0 0 16 22" fill="none" xmlns="http://www.w3.org/2000/svg">
<g id="Bar">
<path id="Bar_2" d="M15.9996 4.07728C16.0141 3.01058 15.6071 1.98177 14.8683 1.21721C14.1295 0.452638 13.1194 0.0149304 12.0601 0.000374907C11.0008 -0.0141806 9.97912 0.395608 9.21986 1.13959C8.46061 1.88358 8.02595 2.90081 8.01149 3.96752H0.778571C0.572081 3.96752 0.374049 4.05012 0.228038 4.19715C0.0820279 4.34419 0 4.54361 0 4.75154V10.2397C0 11.6952 0.574195 13.0912 1.59627 14.1204C2.61834 15.1496 4.00457 15.7278 5.45 15.7278V20.432H3.89285C3.68636 20.432 3.48833 20.5146 3.34232 20.6616C3.19631 20.8086 3.11428 21.008 3.11428 21.216C3.11428 21.4239 3.19631 21.6233 3.34232 21.7704C3.48833 21.9174 3.68636 22 3.89285 22H8.56428C8.77077 22 8.9688 21.9174 9.11481 21.7704C9.26082 21.6233 9.34285 21.4239 9.34285 21.216C9.34285 21.008 9.26082 20.8086 9.11481 20.6616C8.9688 20.5146 8.77077 20.432 8.56428 20.432H7.00714V15.7278C8.45257 15.7278 9.83879 15.1496 10.8609 14.1204C11.8829 13.0912 12.4571 11.6952 12.4571 10.2397V8.05227C13.429 7.94264 14.3269 7.47708 14.9801 6.74415C15.6333 6.01122 15.9962 5.06207 15.9996 4.07728ZM10.9 5.53556V8.80493C9.93707 8.98308 8.94647 8.9375 8.00371 8.67165C7.40097 8.48737 6.82504 8.22375 6.29085 7.88762C5.5796 7.40656 4.74908 7.13502 3.89285 7.1036C3.06323 7.11607 2.25383 7.3633 1.55714 7.81706V5.53556H10.9ZM7.00714 14.1598H5.45C4.41755 14.1598 3.42738 13.7468 2.69733 13.0116C1.96728 12.2765 1.55714 11.2794 1.55714 10.2397V9.80848C2.16589 9.14703 2.99995 8.74108 3.89285 8.67165C4.48108 8.71368 5.04536 8.92303 5.52007 9.27534C6.15989 9.68173 6.84781 10.0057 7.56771 10.2397C8.24865 10.4358 8.95382 10.5335 9.66206 10.5298C10.077 10.5154 10.4905 10.4735 10.9 10.4043C10.8578 11.4152 10.4291 12.3705 9.70357 13.0704C8.97804 13.7704 8.01187 14.1607 7.00714 14.1598ZM12.4571 6.48423V4.75154C12.4571 4.54361 12.3751 4.34419 12.2291 4.19715C12.0831 4.05012 11.8851 3.96752 11.6786 3.96752H9.56863C9.58836 3.50665 9.73668 3.0607 9.99659 2.68084C10.2565 2.30098 10.6175 2.00258 11.0381 1.81987C11.4587 1.63716 11.922 1.57755 12.3747 1.64786C12.8275 1.71817 13.2514 1.91557 13.5978 2.2174C13.9442 2.51924 14.1992 2.91329 14.3333 3.35436C14.4675 3.79542 14.4755 4.26565 14.3564 4.71109C14.2374 5.15653 13.996 5.55916 13.6601 5.87278C13.3241 6.1864 12.9072 6.39832 12.4571 6.48423Z" fill="#1C1C1C"/>
</g>
</svg>
