<svg width="64" height="64" viewBox="0 0 64 64" fill="none" xmlns="http://www.w3.org/2000/svg">
<g filter="url(#filter0_d_72_37209)">
<circle cx="32" cy="28" r="21" fill="#FFF0C6" stroke="white" stroke-width="2"/>
<path d="M40.9996 22.0773C41.0141 21.0106 40.6071 19.9818 39.8683 19.2172C39.1295 18.4526 38.1194 18.0149 37.0601 18.0004C36.0008 17.9858 34.9791 18.3956 34.2199 19.1396C33.4606 19.8836 33.0259 20.9008 33.0115 21.9675H25.7786C25.5721 21.9675 25.374 22.0501 25.228 22.1972C25.082 22.3442 25 22.5436 25 22.7515V28.2397C25 29.6952 25.5742 31.0912 26.5963 32.1204C27.6183 33.1496 29.0046 33.7278 30.45 33.7278V38.432H28.8929C28.6864 38.432 28.4883 38.5146 28.3423 38.6616C28.1963 38.8086 28.1143 39.008 28.1143 39.216C28.1143 39.4239 28.1963 39.6233 28.3423 39.7704C28.4883 39.9174 28.6864 40 28.8929 40H33.5643C33.7708 40 33.9688 39.9174 34.1148 39.7704C34.2608 39.6233 34.3428 39.4239 34.3428 39.216C34.3428 39.008 34.2608 38.8086 34.1148 38.6616C33.9688 38.5146 33.7708 38.432 33.5643 38.432H32.0071V33.7278C33.4526 33.7278 34.8388 33.1496 35.8609 32.1204C36.8829 31.0912 37.4571 29.6952 37.4571 28.2397V26.0523C38.429 25.9426 39.3269 25.4771 39.9801 24.7441C40.6333 24.0112 40.9962 23.0621 40.9996 22.0773ZM35.9 23.5356V26.8049C34.9371 26.9831 33.9465 26.9375 33.0037 26.6716C32.401 26.4874 31.825 26.2237 31.2909 25.8876C30.5796 25.4066 29.7491 25.135 28.8929 25.1036C28.0632 25.1161 27.2538 25.3633 26.5571 25.8171V23.5356H35.9ZM32.0071 32.1598H30.45C29.4175 32.1598 28.4274 31.7468 27.6973 31.0116C26.9673 30.2765 26.5571 29.2794 26.5571 28.2397V27.8085C27.1659 27.147 28 26.7411 28.8929 26.6716C29.4811 26.7137 30.0454 26.923 30.5201 27.2753C31.1599 27.6817 31.8478 28.0057 32.5677 28.2397C33.2487 28.4358 33.9538 28.5335 34.6621 28.5298C35.077 28.5154 35.4905 28.4735 35.9 28.4043C35.8578 29.4152 35.4291 30.3705 34.7036 31.0704C33.978 31.7704 33.0119 32.1607 32.0071 32.1598ZM37.4571 24.4842V22.7515C37.4571 22.5436 37.3751 22.3442 37.2291 22.1972C37.0831 22.0501 36.8851 21.9675 36.6786 21.9675H34.5686C34.5884 21.5066 34.7367 21.0607 34.9966 20.6808C35.2565 20.301 35.6175 20.0026 36.0381 19.8199C36.4587 19.6372 36.922 19.5775 37.3747 19.6479C37.8275 19.7182 38.2514 19.9156 38.5978 20.2174C38.9442 20.5192 39.1992 20.9133 39.3333 21.3544C39.4675 21.7954 39.4755 22.2656 39.3564 22.7111C39.2374 23.1565 38.996 23.5592 38.6601 23.8728C38.3241 24.1864 37.9072 24.3983 37.4571 24.4842Z" fill="#FFBA00"/>
</g>
<defs>
<filter id="filter0_d_72_37209" x="0" y="0" width="64" height="64" filterUnits="userSpaceOnUse" color-interpolation-filters="sRGB">
<feFlood flood-opacity="0" result="BackgroundImageFix"/>
<feColorMatrix in="SourceAlpha" type="matrix" values="0 0 0 0 0 0 0 0 0 0 0 0 0 0 0 0 0 0 127 0" result="hardAlpha"/>
<feOffset dy="4"/>
<feGaussianBlur stdDeviation="5"/>
<feComposite in2="hardAlpha" operator="out"/>
<feColorMatrix type="matrix" values="0 0 0 0 0 0 0 0 0 0 0 0 0 0 0 0 0 0 0.1 0"/>
<feBlend mode="normal" in2="BackgroundImageFix" result="effect1_dropShadow_72_37209"/>
<feBlend mode="normal" in="SourceGraphic" in2="effect1_dropShadow_72_37209" result="shape"/>
</filter>
</defs>
</svg>
