<svg width="25" height="25" viewBox="0 0 25 25" fill="none" xmlns="http://www.w3.org/2000/svg">
<path fill-rule="evenodd" clip-rule="evenodd" d="M23 6.80815C23 5.59406 22.0164 4.61047 20.8023 4.61047H4.19767C2.98358 4.61047 2 5.59406 2 6.80815C2 8.02224 2.98358 9.00582 4.19767 9.00582H20.8023C22.0164 9.00582 23 8.02224 23 6.80815ZM21.5349 6.80815C21.5349 7.21252 21.2067 7.54071 20.8023 7.54071H4.19767C3.7933 7.54071 3.46512 7.21252 3.46512 6.80815C3.46512 6.40378 3.7933 6.07559 4.19767 6.07559H20.8023C21.2067 6.07559 21.5349 6.40378 21.5349 6.80815Z" fill="#1C1C1C"/>
<path fill-rule="evenodd" clip-rule="evenodd" d="M4.46043 8.11114L2.01857 18.8553C1.92871 19.249 2.17583 19.6426 2.57043 19.7315C2.96406 19.8213 3.35769 19.5742 3.44657 19.1796L5.88843 8.43542C5.97829 8.04179 5.73118 7.64816 5.33657 7.55928C4.94294 7.46942 4.54931 7.71654 4.46043 8.11114ZM19.1116 8.43542L21.5535 19.1796C21.6423 19.5742 22.036 19.8213 22.4296 19.7315C22.8242 19.6426 23.0713 19.249 22.9815 18.8553L20.5396 8.11114C20.4507 7.71654 20.0571 7.46942 19.6635 7.55928C19.2689 7.64816 19.0217 8.04179 19.1116 8.43542Z" fill="#1C1C1C"/>
<path fill-rule="evenodd" clip-rule="evenodd" d="M20.3136 10.4709H4.68568C4.28131 10.4709 3.95312 10.7991 3.95312 11.2035C3.95312 11.6079 4.28131 11.9361 4.68568 11.9361H20.3136C20.718 11.9361 21.0461 11.6079 21.0461 11.2035C21.0461 10.7991 20.718 10.4709 20.3136 10.4709Z" fill="#1C1C1C"/>
</svg>
