<svg width="23" height="19" viewBox="0 0 23 19" fill="none" xmlns="http://www.w3.org/2000/svg">
<path d="M4.53299 19H1.37961C1.01371 19 0.662804 18.8546 0.404077 18.5959C0.145351 18.3372 0 17.9863 0 17.6204V2.24762C0 1.88172 0.145351 1.53082 0.404077 1.27209C0.662804 1.01336 1.01371 0.868011 1.37961 0.868011H4.53299C4.89889 0.868011 5.2498 1.01336 5.50852 1.27209C5.76725 1.53082 5.9126 1.88172 5.9126 2.24762V17.6204C5.9126 17.9863 5.76725 18.3372 5.50852 18.5959C5.2498 18.8546 4.89889 19 4.53299 19ZM1.37961 2.05053C1.32734 2.05053 1.27721 2.0713 1.24025 2.10826C1.20328 2.14522 1.18252 2.19535 1.18252 2.24762V17.6204C1.18353 17.6723 1.20462 17.7219 1.24136 17.7586C1.27811 17.7954 1.32765 17.8165 1.37961 17.8175H4.53299C4.58526 17.8175 4.63539 17.7967 4.67235 17.7597C4.70932 17.7228 4.73008 17.6726 4.73008 17.6204V2.24762C4.73008 2.19535 4.70932 2.14522 4.67235 2.10826C4.63539 2.0713 4.58526 2.05053 4.53299 2.05053H1.37961Z" fill="#1C1C1C"/>
<path d="M5.32134 4.41557H0.59126C0.434448 4.41557 0.284059 4.35328 0.173176 4.2424C0.0622933 4.13151 0 3.98112 0 3.82431C0 3.6675 0.0622933 3.51711 0.173176 3.40623C0.284059 3.29534 0.434448 3.23305 0.59126 3.23305H5.32134C5.47815 3.23305 5.62854 3.29534 5.73942 3.40623C5.85031 3.51711 5.9126 3.6675 5.9126 3.82431C5.9126 3.98112 5.85031 4.13151 5.73942 4.2424C5.62854 4.35328 5.47815 4.41557 5.32134 4.41557ZM5.32134 6.38644H0.59126C0.434448 6.38644 0.284059 6.32414 0.173176 6.21326C0.0622933 6.10238 0 5.95199 0 5.79518C0 5.63837 0.0622933 5.48798 0.173176 5.37709C0.284059 5.26621 0.434448 5.20392 0.59126 5.20392H5.32134C5.47815 5.20392 5.62854 5.26621 5.73942 5.37709C5.85031 5.48798 5.9126 5.63837 5.9126 5.79518C5.9126 5.95199 5.85031 6.10238 5.73942 6.21326C5.62854 6.32414 5.47815 6.38644 5.32134 6.38644ZM5.32134 16.6349H0.59126C0.434448 16.6349 0.284059 16.5727 0.173176 16.4618C0.0622933 16.3509 0 16.2005 0 16.0437C0 15.8869 0.0622933 15.7365 0.173176 15.6256C0.284059 15.5147 0.434448 15.4524 0.59126 15.4524H5.32134C5.47815 15.4524 5.62854 15.5147 5.73942 15.6256C5.85031 15.7365 5.9126 15.8869 5.9126 16.0437C5.9126 16.2005 5.85031 16.3509 5.73942 16.4618C5.62854 16.5727 5.47815 16.6349 5.32134 16.6349ZM5.32134 14.6641H0.59126C0.434448 14.6641 0.284059 14.6018 0.173176 14.4909C0.0622933 14.38 0 14.2296 0 14.0728C0 13.916 0.0622933 13.7656 0.173176 13.6547C0.284059 13.5439 0.434448 13.4816 0.59126 13.4816H5.32134C5.47815 13.4816 5.62854 13.5439 5.73942 13.6547C5.85031 13.7656 5.9126 13.916 5.9126 14.0728C5.9126 14.2296 5.85031 14.38 5.73942 14.4909C5.62854 14.6018 5.47815 14.6641 5.32134 14.6641ZM11.2339 19H8.08055C7.71466 19 7.36375 18.8546 7.10502 18.5959C6.8463 18.3372 6.70095 17.9863 6.70095 17.6204V2.24762C6.70095 1.88172 6.8463 1.53082 7.10502 1.27209C7.36375 1.01336 7.71466 0.868011 8.08055 0.868011H11.2339C11.5998 0.868011 11.9507 1.01336 12.2095 1.27209C12.4682 1.53082 12.6135 1.88172 12.6135 2.24762V17.6204C12.6135 17.9863 12.4682 18.3372 12.2095 18.5959C11.9507 18.8546 11.5998 19 11.2339 19ZM8.08055 2.05053C8.02828 2.05053 7.97815 2.0713 7.94119 2.10826C7.90423 2.14522 7.88347 2.19535 7.88347 2.24762V17.6204C7.88448 17.6723 7.90556 17.7219 7.94231 17.7586C7.97905 17.7954 8.0286 17.8165 8.08055 17.8175H11.2339C11.2862 17.8175 11.3363 17.7967 11.3733 17.7597C11.4103 17.7228 11.431 17.6726 11.431 17.6204V2.24762C11.431 2.19535 11.4103 2.14522 11.3733 2.10826C11.3363 2.0713 11.2862 2.05053 11.2339 2.05053H8.08055Z" fill="#1C1C1C"/>
<path d="M12.0223 4.41558H7.29219C7.13538 4.41558 6.98499 4.35329 6.8741 4.24241C6.76322 4.13152 6.70093 3.98113 6.70093 3.82432C6.70093 3.66751 6.76322 3.51712 6.8741 3.40624C6.98499 3.29536 7.13538 3.23306 7.29219 3.23306H12.0223C12.1791 3.23306 12.3295 3.29536 12.4404 3.40624C12.5512 3.51712 12.6135 3.66751 12.6135 3.82432C12.6135 3.98113 12.5512 4.13152 12.4404 4.24241C12.3295 4.35329 12.1791 4.41558 12.0223 4.41558ZM12.0223 6.38645H7.29219C7.13538 6.38645 6.98499 6.32416 6.8741 6.21327C6.76322 6.10239 6.70093 5.952 6.70093 5.79519C6.70093 5.63838 6.76322 5.48799 6.8741 5.37711C6.98499 5.26622 7.13538 5.20393 7.29219 5.20393H12.0223C12.1791 5.20393 12.3295 5.26622 12.4404 5.37711C12.5512 5.48799 12.6135 5.63838 12.6135 5.79519C12.6135 5.952 12.5512 6.10239 12.4404 6.21327C12.3295 6.32416 12.1791 6.38645 12.0223 6.38645ZM12.0223 16.635H7.29219C7.13538 16.635 6.98499 16.5727 6.8741 16.4618C6.76322 16.3509 6.70093 16.2005 6.70093 16.0437C6.70093 15.8869 6.76322 15.7365 6.8741 15.6256C6.98499 15.5147 7.13538 15.4524 7.29219 15.4524H12.0223C12.1791 15.4524 12.3295 15.5147 12.4404 15.6256C12.5512 15.7365 12.6135 15.8869 12.6135 16.0437C12.6135 16.2005 12.5512 16.3509 12.4404 16.4618C12.3295 16.5727 12.1791 16.635 12.0223 16.635ZM12.0223 14.6641H7.29219C7.13538 14.6641 6.98499 14.6018 6.8741 14.4909C6.76322 14.38 6.70093 14.2296 6.70093 14.0728C6.70093 13.916 6.76322 13.7656 6.8741 13.6547C6.98499 13.5439 7.13538 13.4816 7.29219 13.4816H12.0223C12.1791 13.4816 12.3295 13.5439 12.4404 13.6547C12.5512 13.7656 12.6135 13.916 12.6135 14.0728C12.6135 14.2296 12.5512 14.38 12.4404 14.4909C12.3295 14.6018 12.1791 14.6641 12.0223 14.6641Z" fill="#1C1C1C"/>
<path d="M18.0055 18.7477C17.7765 18.7481 17.5512 18.6897 17.3512 18.5782C17.1913 18.4926 17.0501 18.3759 16.9357 18.2352C16.8214 18.0944 16.7361 17.9323 16.685 17.7583L12.3097 3.03597C12.2057 2.68524 12.2453 2.30757 12.4198 1.98603C12.5942 1.66448 12.8892 1.42539 13.2399 1.32132L16.2632 0.422604C16.614 0.318647 16.9916 0.358246 17.3132 0.532693C17.6347 0.70714 17.8738 1.00215 17.9779 1.35285L22.3532 16.0871C22.4573 16.4383 22.4178 16.8165 22.2434 17.1387C22.069 17.4608 21.774 17.7007 21.423 17.8056L18.3997 18.7004C18.2713 18.7356 18.1385 18.7516 18.0055 18.7477ZM16.6574 1.546H16.5983L13.571 2.4526C13.5216 2.46806 13.4802 2.50237 13.4559 2.54811C13.4315 2.59384 13.4262 2.64733 13.441 2.69698L17.8163 17.4351C17.8218 17.4618 17.8327 17.4871 17.8483 17.5095C17.8638 17.5318 17.8838 17.5508 17.9069 17.5652C17.9552 17.5833 18.0085 17.5833 18.0567 17.5652L21.08 16.6665C21.1296 16.651 21.1713 16.6169 21.1963 16.5713C21.2213 16.5257 21.2276 16.4723 21.2141 16.4221L16.8466 1.6879C16.8341 1.64729 16.8091 1.61168 16.7751 1.58618C16.7411 1.56069 16.6999 1.54662 16.6574 1.546Z" fill="#1C1C1C"/>
<path d="M13.3271 4.97136C13.1861 4.96776 13.051 4.91384 12.9462 4.81935C12.8415 4.72485 12.7739 4.59601 12.7559 4.45609C12.7378 4.31617 12.7703 4.17439 12.8476 4.05636C12.9249 3.93834 13.0419 3.85184 13.1773 3.8125L17.7143 2.46442C17.8648 2.41999 18.0268 2.43718 18.1647 2.51221C18.3026 2.58725 18.405 2.71397 18.4494 2.86451C18.4938 3.01505 18.4767 3.17707 18.4016 3.31494C18.3266 3.4528 18.1999 3.55521 18.0493 3.59964L13.4966 4.95166C13.4416 4.96744 13.3843 4.9741 13.3271 4.97136ZM13.8869 6.85946C13.7445 6.85946 13.607 6.80812 13.4995 6.71486C13.3919 6.62161 13.3217 6.49271 13.3015 6.35181C13.2814 6.21092 13.3128 6.06749 13.3899 5.94786C13.467 5.82823 13.5847 5.74044 13.7213 5.70059L18.2543 4.35251C18.4048 4.30808 18.5669 4.32527 18.7047 4.4003C18.8426 4.47534 18.945 4.60206 18.9894 4.7526C19.0339 4.90314 19.0167 5.06516 18.9416 5.20303C18.8666 5.34089 18.7399 5.4433 18.5893 5.48773L14.0564 6.8358C14.0012 6.8514 13.9442 6.85936 13.8869 6.85946ZM16.8037 16.6823C16.6614 16.6823 16.5239 16.6309 16.4163 16.5377C16.3088 16.4444 16.2386 16.3155 16.2184 16.1746C16.1983 16.0337 16.2297 15.8903 16.3068 15.7707C16.3839 15.651 16.5016 15.5632 16.6382 15.5234L21.1712 14.1793C21.3217 14.1348 21.4837 14.152 21.6216 14.227C21.7595 14.3021 21.8619 14.4288 21.9063 14.5793C21.9507 14.7299 21.9336 14.8919 21.8585 15.0298C21.7835 15.1676 21.6568 15.27 21.5062 15.3145L16.9732 16.6586C16.9181 16.6742 16.8611 16.6822 16.8037 16.6823ZM16.244 14.806C16.0872 14.8285 15.9279 14.7877 15.8011 14.6927C15.6743 14.5977 15.5905 14.4563 15.568 14.2995C15.5455 14.1427 15.5863 13.9833 15.6813 13.8566C15.7762 13.7298 15.9177 13.6459 16.0745 13.6235L20.6115 12.2793C20.6874 12.2512 20.7683 12.2389 20.8492 12.2433C20.93 12.2477 21.0092 12.2687 21.0816 12.3049C21.154 12.3412 21.2182 12.3919 21.2703 12.454C21.3223 12.516 21.361 12.5881 21.384 12.6658C21.407 12.7435 21.4138 12.825 21.404 12.9054C21.3941 12.9858 21.3679 13.0633 21.3269 13.1331C21.2859 13.203 21.2309 13.2636 21.1655 13.3114C21.1001 13.3591 21.0255 13.3929 20.9465 13.4106L16.4135 14.7587C16.3594 14.7821 16.3024 14.798 16.244 14.806Z" fill="#1C1C1C"/>
</svg>
