<svg width="17" height="22" viewBox="0 0 17 22" fill="none" xmlns="http://www.w3.org/2000/svg">
<g id="Book">
<path id="Vector" d="M16.2273 22H2.31818C1.04009 22 0 20.9424 0 19.6429V2.35714C0 1.05757 1.04009 0 2.31818 0H14.6818C15.9599 0 17 1.05757 17 2.35714V16.5C17 17.7996 15.9599 18.8571 14.6818 18.8571H2.31818C1.89318 18.8571 1.54545 19.2107 1.54545 19.6429C1.54545 20.075 1.89318 20.4286 2.31818 20.4286H16.2273C16.4322 20.4286 16.6288 20.5114 16.7737 20.6587C16.9186 20.8061 17 21.0059 17 21.2143C17 21.4227 16.9186 21.6225 16.7737 21.7699C16.6288 21.9172 16.4322 22 16.2273 22ZM2.31818 1.57143C1.89318 1.57143 1.54545 1.925 1.54545 2.35714V17.4209C1.79346 17.3309 2.05488 17.2852 2.31818 17.2857H14.6818C15.1068 17.2857 15.4545 16.9321 15.4545 16.5V2.35714C15.4545 1.925 15.1068 1.57143 14.6818 1.57143H2.31818Z" fill="#1C1C1C"/>
<path id="Vector_2" d="M13.2143 8H3.78571C3.57733 8 3.37748 7.9122 3.23013 7.75592C3.08278 7.59964 3 7.38768 3 7.16667V3.83333C3 3.61232 3.08278 3.40036 3.23013 3.24408C3.37748 3.0878 3.57733 3 3.78571 3H13.2143C13.4227 3 13.6225 3.0878 13.7699 3.24408C13.9172 3.40036 14 3.61232 14 3.83333V7.16667C14 7.38768 13.9172 7.59964 13.7699 7.75592C13.6225 7.9122 13.4227 8 13.2143 8ZM4.57143 6.33333H12.4286V4.66667H4.57143V6.33333Z" fill="#1C1C1C"/>
</g>
</svg>
