<svg width="19" height="22" viewBox="0 0 19 22" fill="none" xmlns="http://www.w3.org/2000/svg">
<g id="Brewery">
<path id="Vector" fill-rule="evenodd" clip-rule="evenodd" d="M12.6299 17.9266C12.6297 18.5742 12.3725 19.1952 11.9149 19.6533C11.4573 20.1114 10.8366 20.3693 10.1891 20.3703H5.69988C5.05232 20.3695 4.43155 20.1117 3.97396 19.6535C3.51638 19.1953 3.2594 18.5742 3.25951 17.9266V13.0369C3.25951 12.8208 3.17367 12.6136 3.02086 12.4608C2.86805 12.308 2.6608 12.2221 2.4447 12.2221C2.2286 12.2221 2.02134 12.308 1.86854 12.4608C1.71573 12.6136 1.62988 12.8208 1.62988 13.0369V17.9266C1.62988 20.1747 3.45262 21.9999 5.70029 21.9999H10.1895C12.4351 21.9999 14.2595 20.1747 14.2595 17.9266V4.88879C14.2595 4.67269 14.1737 4.46544 14.0209 4.31263C13.8681 4.15982 13.6608 4.07397 13.4447 4.07397C13.2286 4.07397 13.0213 4.15982 12.8685 4.31263C12.7157 4.46544 12.6299 4.67269 12.6299 4.88879V17.9266Z" fill="#1C1C1C"/>
<path id="Vector_2" fill-rule="evenodd" clip-rule="evenodd" d="M8.96354 17.9267C8.96354 18.1428 9.04939 18.35 9.2022 18.5028C9.355 18.6556 9.56225 18.7415 9.77836 18.7415C9.99446 18.7415 10.2017 18.6556 10.3545 18.5028C10.5073 18.35 10.5932 18.1428 10.5932 17.9267V9.77771C10.5932 9.5616 10.5073 9.35435 10.3545 9.20154C10.2017 9.04874 9.99446 8.96289 9.77836 8.96289C9.56225 8.96289 9.355 9.04874 9.2022 9.20154C9.04939 9.35435 8.96354 9.5616 8.96354 9.77771V17.9267ZM5.29688 17.9267C5.29688 18.1428 5.38272 18.35 5.53553 18.5028C5.68834 18.6556 5.89559 18.7415 6.11169 18.7415C6.32779 18.7415 6.53504 18.6556 6.68785 18.5028C6.84066 18.35 6.9265 18.1428 6.9265 17.9267V14.2592C6.9265 14.0431 6.84066 13.8358 6.68785 13.683C6.53504 13.5302 6.32779 13.4444 6.11169 13.4444C5.89559 13.4444 5.68834 13.5302 5.53553 13.683C5.38272 13.8358 5.29688 14.0431 5.29688 14.2592V17.9267Z" fill="#1C1C1C"/>
<path id="Vector_3" fill-rule="evenodd" clip-rule="evenodd" d="M1.62996 5.7037C1.62987 5.44076 1.6934 5.1817 1.81514 4.94864C1.93688 4.71557 2.11321 4.51543 2.32907 4.36529C2.54494 4.21515 2.79393 4.11947 3.05479 4.08643C3.31564 4.05338 3.58062 4.08395 3.82711 4.17552C3.94006 4.21746 4.06091 4.23384 4.18095 4.22346C4.30099 4.21308 4.41724 4.17621 4.52132 4.1155C4.62539 4.05479 4.71471 3.97176 4.78284 3.87238C4.85097 3.773 4.8962 3.65975 4.91529 3.54078C5.08926 2.45911 6.10818 1.62963 7.33366 1.62963C8.35422 1.62963 9.24848 2.20733 9.61107 3.05433C9.65684 3.16136 9.725 3.25734 9.81098 3.33581C9.89696 3.41428 9.99875 3.47342 10.1095 3.50924C10.2203 3.54506 10.3374 3.55674 10.453 3.54349C10.5687 3.53024 10.6801 3.49236 10.7799 3.43241C10.9799 3.31267 11.2099 3.25261 11.4429 3.25931C11.6759 3.26601 11.9021 3.33919 12.0949 3.47022C12.2876 3.60125 12.4389 3.78467 12.5309 3.99884C12.6228 4.21302 12.6516 4.44902 12.6139 4.67902C12.5761 4.90902 12.4734 5.12343 12.3178 5.29697C12.1622 5.4705 11.9602 5.59593 11.7357 5.65845C11.5111 5.72098 11.2734 5.718 11.0505 5.64986C10.8276 5.58172 10.6288 5.45127 10.4776 5.27389C10.4016 5.18489 10.3072 5.11333 10.201 5.06406C10.0948 5.0148 9.97928 4.98901 9.86221 4.98843C9.74515 4.98785 9.62933 5.0125 9.52265 5.0607C9.41597 5.10891 9.32093 5.17954 9.244 5.26778C8.78363 5.79578 8.08941 6.11111 7.33366 6.11111C6.85374 6.11111 6.39663 5.98482 6.0047 5.75096C5.8994 5.68823 5.7813 5.65005 5.6592 5.63929C5.5371 5.62853 5.41415 5.64545 5.2995 5.6888C5.18484 5.73214 5.08145 5.8008 4.99701 5.88965C4.91257 5.9785 4.84927 6.08525 4.81181 6.20196C4.68741 6.58737 4.42453 6.91296 4.074 7.11578C3.95027 7.18731 3.84753 7.29012 3.77609 7.41391C3.70465 7.53769 3.66703 7.67808 3.667 7.821V11.002C3.667 11.2181 3.58115 11.4254 3.42834 11.5782C3.27554 11.731 3.06828 11.8169 2.85218 11.8169C2.63608 11.8169 2.42883 11.731 2.27602 11.5782C2.12321 11.4254 2.03737 11.2181 2.03737 11.002V7.05548C2.03736 6.89485 1.98988 6.7378 1.90089 6.60407C1.72345 6.33738 1.62916 6.02403 1.62996 5.7037ZM0.407738 11.002C0.407738 11.6503 0.665277 12.2721 1.1237 12.7305C1.58212 13.1889 2.20388 13.4465 2.85218 13.4465C3.50049 13.4465 4.12224 13.1889 4.58067 12.7305C5.03909 12.2721 5.29663 11.6503 5.29663 11.002L5.29826 8.24674C5.79366 7.84952 5.95785 7.51422 5.95785 7.51422C6.39418 7.66293 6.85822 7.74074 7.33366 7.74074C8.11756 7.74282 8.88654 7.52656 9.55444 7.11619C9.89666 6.90433 9.87833 6.88885 9.87833 6.88885C10.2519 7.12609 10.6755 7.27314 11.1157 7.31839C11.5559 7.36363 12.0005 7.30582 12.4145 7.14953C12.8285 6.99324 13.2004 6.74276 13.5009 6.4179C13.8014 6.09305 14.0221 5.70273 14.1457 5.27782C14.2692 4.85292 14.2922 4.4051 14.2128 3.96977C14.1334 3.53445 13.9538 3.12358 13.6882 2.76966C13.4226 2.41574 13.0783 2.12848 12.6825 1.93061C12.2867 1.73275 11.8502 1.6297 11.4077 1.62963C10.8846 1.63004 10.727 1.72659 10.727 1.72659C9.98385 0.665704 8.72089 0 7.33366 0C5.81403 0 4.46348 0.796889 3.76396 2.00159C3.53826 2.39026 3.57126 2.45911 3.57126 2.45911C3.57126 2.45911 3.36429 2.44444 3.25959 2.44444C2.69122 2.44439 2.13271 2.59296 1.63949 2.87543C1.14628 3.1579 0.735503 3.56443 0.447936 4.05469C0.16037 4.54495 0.0060086 5.10189 0.0001719 5.67023C-0.0056648 6.23858 0.137226 6.79857 0.414663 7.29463L0.407738 11.002Z" fill="#1C1C1C"/>
<path id="Vector_4" fill-rule="evenodd" clip-rule="evenodd" d="M16.2957 7.33349C16.7447 7.33349 17.1114 7.70015 17.1114 8.14952V14.4623C17.111 14.8405 16.9607 15.203 16.6934 15.4705C16.4261 15.738 16.0636 15.8885 15.6854 15.889H13.4447C13.2286 15.889 13.0213 15.9749 12.8685 16.1277C12.7157 16.2805 12.6299 16.4878 12.6299 16.7039C12.6299 16.92 12.7157 17.1272 12.8685 17.28C13.0213 17.4328 13.2286 17.5187 13.4447 17.5187H15.6854C17.3713 17.5187 18.741 16.1498 18.741 14.4623V8.14952C18.7407 7.50106 18.483 6.87925 18.0245 6.42068C17.566 5.96211 16.9442 5.70429 16.2957 5.70386H13.4447C13.2286 5.70386 13.0213 5.7897 12.8685 5.94251C12.7157 6.09532 12.6299 6.30257 12.6299 6.51867C12.6299 6.73477 12.7157 6.94203 12.8685 7.09483C13.0213 7.24764 13.2286 7.33349 13.4447 7.33349H16.2957Z" fill="#1C1C1C"/>
</g>
</svg>
