<svg width="64" height="64" viewBox="0 0 64 64" fill="none" xmlns="http://www.w3.org/2000/svg">
<g filter="url(#filter0_d_72_37200)">
<circle cx="32" cy="28" r="21" fill="#FFF0C6" stroke="white" stroke-width="2"/>
<path d="M38.2597 32.9309C40.2791 32.9309 41.9227 31.2877 41.9227 29.2679C41.9227 27.5202 40.6902 26.059 39.0503 25.6957V25.5248C39.0503 25.0847 38.6939 24.7279 38.2535 24.7279H25.4109C24.9704 24.7279 24.614 25.0847 24.614 25.5248V29.1282C24.614 31.0098 25.3437 32.7202 26.5273 34.0063H23.7969C23.5307 34.0063 23.2817 34.1394 23.1339 34.3612C22.986 34.583 22.9588 34.8639 23.0615 35.1098C23.8848 37.0853 25.5284 38.3125 27.3509 38.3125H36.4379C38.2605 38.3125 39.904 37.0853 40.7274 35.1098C40.8301 34.8639 40.8028 34.583 40.655 34.3612C40.5071 34.1394 40.2581 34.0063 39.992 34.0063H37.1369C37.4471 33.6694 37.7247 33.3039 37.9669 32.9127C38.064 32.9205 38.1602 32.9309 38.2597 32.9309ZM34.6202 34.0063H29.0439C27.3522 33.0355 26.2077 31.2148 26.2077 29.1282V26.3216H37.4566V29.1282C37.4566 31.2148 36.3121 33.0355 34.6202 34.0063ZM36.4379 36.7188H27.3509C26.5416 36.7188 25.7735 36.309 25.1883 35.6001H38.6005C38.0153 36.309 37.2473 36.7188 36.4379 36.7188ZM40.3289 29.2679C40.3289 30.2492 39.6404 31.0693 38.7222 31.2807C38.9352 30.6005 39.0503 29.8776 39.0503 29.1282V27.3568C39.7998 27.6683 40.3289 28.4069 40.3289 29.2679ZM29.8271 22.0972C30.2676 22.0972 30.624 21.7404 30.624 21.3003V20.5334C30.624 20.3116 30.8038 20.1315 31.0256 20.1315C32.1259 20.1315 33.0216 19.2361 33.0216 18.1354V16.7969C33.0216 16.3568 32.6652 16 32.2248 16C31.7843 16 31.4279 16.3568 31.4279 16.7969V18.1354C31.4279 18.3572 31.2474 18.5377 31.0256 18.5377C29.9252 18.5377 29.0303 19.433 29.0303 20.5334V21.3003C29.0303 21.7404 29.3867 22.0972 29.8271 22.0972ZM31.901 21.9688V22.7357C31.901 23.1758 32.2575 23.5326 32.6979 23.5326C33.1384 23.5326 33.4948 23.1758 33.4948 22.7357V21.9688C33.4948 21.747 33.6753 21.5668 33.8971 21.5668C34.9975 21.5668 35.8924 20.6715 35.8924 19.5708V18.2323C35.8924 17.7922 35.536 17.4354 35.0955 17.4354C34.6551 17.4354 34.2987 17.7922 34.2987 18.2323V19.5708C34.2987 19.7925 34.1189 19.9731 33.8971 19.9731C32.7967 19.9731 31.901 20.8684 31.901 21.9688Z" fill="#FFBA00"/>
</g>
<defs>
<filter id="filter0_d_72_37200" x="0" y="0" width="64" height="64" filterUnits="userSpaceOnUse" color-interpolation-filters="sRGB">
<feFlood flood-opacity="0" result="BackgroundImageFix"/>
<feColorMatrix in="SourceAlpha" type="matrix" values="0 0 0 0 0 0 0 0 0 0 0 0 0 0 0 0 0 0 127 0" result="hardAlpha"/>
<feOffset dy="4"/>
<feGaussianBlur stdDeviation="5"/>
<feComposite in2="hardAlpha" operator="out"/>
<feColorMatrix type="matrix" values="0 0 0 0 0 0 0 0 0 0 0 0 0 0 0 0 0 0 0.1 0"/>
<feBlend mode="normal" in2="BackgroundImageFix" result="effect1_dropShadow_72_37200"/>
<feBlend mode="normal" in="SourceGraphic" in2="effect1_dropShadow_72_37200" result="shape"/>
</filter>
</defs>
</svg>
