<svg width="14" height="19" viewBox="0 0 14 19" fill="none" xmlns="http://www.w3.org/2000/svg">
<path d="M14 7.38889C14 6.574 13.3131 5.91111 12.4688 5.91111H11.8125V4.64444C11.8125 3.37989 10.8478 2.33067 9.59219 2.14067C9.3975 0.928889 8.30812 0 7 0C5.68969 0 4.6025 0.928889 4.40562 2.14067C3.15 2.33067 2.1875 3.37989 2.1875 4.64444V5.91111H1.53125C0.686875 5.91111 0 6.574 0 7.38889C0 8.20378 0.686875 8.86667 1.53125 8.86667H2.10875L0.651875 17.2963C0.579687 17.7207 0.702188 18.1534 0.990938 18.4828C1.27969 18.81 1.70187 19 2.14812 19C2.89188 19 3.52187 18.4849 3.64437 17.7777L3.7975 16.8889H10.2025L10.3556 17.7777C10.4781 18.4849 11.1059 19 11.8519 19C12.2981 19 12.7203 18.81 13.0069 18.4828C13.2956 18.1534 13.4203 17.7207 13.3459 17.2963L11.8913 8.86667H12.4688C13.3131 8.86667 14 8.20378 14 7.38889ZM3.0625 4.64444C3.0625 3.71344 3.84781 2.95556 4.8125 2.95556C5.05312 2.95556 5.25 2.76556 5.25 2.53333C5.25 1.60233 6.03531 0.844444 7 0.844444C7.96469 0.844444 8.75 1.60233 8.75 2.53333C8.75 2.76556 8.94469 2.95556 9.1875 2.95556C10.1522 2.95556 10.9375 3.71344 10.9375 4.64444V5.91111H3.0625V4.64444ZM2.78031 17.6383C2.73 17.9381 2.46312 18.1556 2.14812 18.1556C1.96 18.1556 1.78062 18.0753 1.65812 17.936C1.53562 17.7967 1.48531 17.6151 1.51594 17.4336L2.6775 10.7012C2.94875 11.1741 3.325 11.5837 3.77125 11.9046L2.78031 17.6383ZM3.94406 16.0444L4.16281 14.7778H9.83719L10.0559 16.0444H3.94406ZM4.30719 13.9333L4.57844 12.3606C5.05312 12.5569 5.57594 12.6667 6.125 12.6667H7.875C8.42188 12.6667 8.94469 12.5569 9.41938 12.3606L9.69063 13.9333H4.30719ZM7.875 11.8222H6.125C4.43625 11.8222 3.0625 10.4964 3.0625 8.86667H10.9375C10.9375 10.4964 9.56375 11.8222 7.875 11.8222ZM12.4841 17.4336C12.5147 17.6151 12.4622 17.7967 12.3397 17.936C12.2172 18.0753 12.04 18.1556 11.8519 18.1556C11.5369 18.1556 11.27 17.9381 11.2175 17.6383L10.2288 11.9046C10.675 11.5837 11.0491 11.1741 11.3203 10.7012L12.4841 17.4336ZM1.53125 8.02222C1.16813 8.02222 0.875 7.73722 0.875 7.38889C0.875 7.03844 1.16813 6.75556 1.53125 6.75556H12.4688C12.8297 6.75556 13.125 7.03844 13.125 7.38889C13.125 7.73722 12.8297 8.02222 12.4688 8.02222H1.53125Z" fill="#1C1C1C"/>
</svg>
