<svg width="19" height="22" viewBox="0 0 19 22" fill="none" xmlns="http://www.w3.org/2000/svg">
<g id="Co-working Space">
<path id="Vector" d="M9 12.4C9 12.7316 9.34442 13 9.76921 13H15.9229C16.2436 13 16.5306 12.8447 16.6432 12.6109L18.9509 7.81064C19.1 7.50007 18.8983 7.15435 18.5005 7.03774C18.1032 6.92289 17.6596 7.07876 17.5101 7.38874L15.3899 11.7999H9.76921C9.34442 11.7999 9 12.0683 9 12.4Z" fill="#1C1C1C"/>
<path id="Vector_2" d="M8.50342 17.7223L5.25 16.0145V11.3154L6.43872 11.7427C6.51746 11.7711 6.59985 11.7857 6.68262 11.7857H10.125C11.1588 11.7857 12 10.9049 12 9.82143C12 8.73877 11.1592 7.85714 10.1422 7.85714L6.94263 7.78271L4.1814 6.53816C4.15173 6.52511 4.12097 6.5136 4.08948 6.50439C3.73938 6.35938 3.37317 6.28571 3 6.28571C1.34583 6.28571 0 7.69524 0 9.42857V18.0714C0 18.1371 0.00796509 18.2015 0.022934 18.2637C0.0236664 18.2667 0.0253143 18.2692 0.0260468 18.2722C0.042389 18.3366 0.0670624 18.3978 0.0980988 18.4556C0.108994 18.4758 0.123367 18.4932 0.13591 18.5124C0.160767 18.5504 0.186905 18.5868 0.217987 18.6199C0.236298 18.6394 0.256393 18.6561 0.276672 18.6736C0.294846 18.6893 0.309906 18.7081 0.32959 18.7221C0.342911 18.7315 0.358566 18.735 0.372299 18.7434C0.387268 18.7527 0.39885 18.7661 0.414551 18.7743L6.41455 21.9171C6.51855 21.9716 6.63354 22 6.75 22H9C9.41418 22 9.75 21.6486 9.75 21.2143V19.8316C9.75 18.9339 9.27209 18.1251 8.50342 17.7223ZM3 7.85714C3.19592 7.85714 3.38086 7.89628 3.5658 7.97761C3.58923 7.98758 3.61377 7.99679 3.63867 8.00446L6.48376 9.28662C6.57202 9.32652 6.66687 9.348 6.76318 9.35031L10.125 9.42857C10.3319 9.42857 10.5 9.60505 10.5 9.82143C10.5 10.0378 10.3319 10.2143 10.125 10.2143H6.80786L4.7439 9.47154C4.51465 9.38714 4.26196 9.42627 4.06421 9.57513C3.86719 9.72245 3.75 9.96031 3.75 10.2143V15.9678L1.5 16.9106V9.42857C1.5 8.56229 2.17273 7.85714 3 7.85714ZM8.25 20.4286H6.92688L2.57941 18.1513L4.46558 17.3609L7.83215 19.128C8.08997 19.263 8.25 19.5324 8.25 19.8316V20.4286ZM3 5.5C4.24072 5.5 5.25 4.44266 5.25 3.14286V2.35714C5.25 1.05734 4.24072 0 3 0C1.75928 0 0.75 1.05734 0.75 2.35714V3.14286C0.75 4.44266 1.75928 5.5 3 5.5ZM2.25 2.35714C2.25 1.92362 2.58655 1.57143 3 1.57143C3.41345 1.57143 3.75 1.92362 3.75 2.35714V3.14286C3.75 3.57638 3.41345 3.92857 3 3.92857C2.58655 3.92857 2.25 3.57638 2.25 3.14286V2.35714Z" fill="#1C1C1C"/>
<path id="Vector_3" d="M18.2308 15H12.8462H9.76923C9.34443 15 9 15.3479 9 15.7778C9 16.2077 9.34443 16.5556 9.76923 16.5556H12.0769V21.2222C12.0769 21.6521 12.4213 22 12.8462 22H18.2308C18.6556 22 19 21.6521 19 21.2222V15.7778C19 15.3479 18.6556 15 18.2308 15ZM17.4615 20.4444H13.6154V16.5556H17.4615V20.4444Z" fill="#1C1C1C"/>
</g>
</svg>
