<svg width="19" height="23" viewBox="0 0 19 23" fill="none" xmlns="http://www.w3.org/2000/svg">
<g id="Coffee Shop">
<path id="Coffee Shop_2" d="M15.2597 16.9309C17.2791 16.9309 18.9227 15.2877 18.9227 13.2679C18.9227 11.5202 17.6902 10.059 16.0503 9.69572V9.52476C16.0503 9.08469 15.6939 8.72788 15.2535 8.72788H2.41086C1.9704 8.72788 1.61399 9.08469 1.61399 9.52476V13.1282C1.61399 15.0098 2.3437 16.7202 3.52734 18.0063H0.796882C0.530738 18.0063 0.281714 18.1394 0.133857 18.3612C-0.0140009 18.583 -0.041238 18.8639 0.0614843 19.1098C0.884818 21.0853 2.52837 22.3125 4.35091 22.3125H13.4379C15.2605 22.3125 16.904 21.0853 17.7274 19.1098C17.8301 18.8639 17.8028 18.583 17.655 18.3612C17.5071 18.1394 17.2581 18.0063 16.992 18.0063H14.1369C14.4471 17.6694 14.7247 17.3039 14.9669 16.9127C15.064 16.9205 15.1602 16.9309 15.2597 16.9309ZM11.6202 18.0063H6.04388C4.35223 17.0355 3.20774 15.2148 3.20774 13.1282V10.3216H14.4566V13.1282C14.4566 15.2148 13.3121 17.0355 11.6202 18.0063ZM13.4379 20.7188H4.35091C3.54159 20.7188 2.77351 20.309 2.1883 19.6001H15.6005C15.0153 20.309 14.2473 20.7188 13.4379 20.7188ZM17.3289 13.2679C17.3289 14.2492 16.6404 15.0693 15.7222 15.2807C15.9352 14.6005 16.0503 13.8776 16.0503 13.1282V11.3568C16.7998 11.6683 17.3289 12.4069 17.3289 13.2679ZM6.82714 6.09718C7.2676 6.09718 7.62401 5.74038 7.62401 5.30031V4.53339C7.62401 4.31161 7.80378 4.13145 8.02557 4.13145C9.12594 4.13145 10.0216 3.23614 10.0216 2.13538V0.796875C10.0216 0.356804 9.66523 0 9.22477 0C8.78431 0 8.42789 0.356804 8.42789 0.796875V2.13538C8.42789 2.35716 8.24735 2.5377 8.02557 2.5377C6.92519 2.5377 6.03026 3.43302 6.03026 4.53339V5.30031C6.03026 5.74038 6.38668 6.09718 6.82714 6.09718ZM8.90104 5.96878V6.73569C8.90104 7.17577 9.25745 7.53257 9.69791 7.53257C10.1384 7.53257 10.4948 7.17577 10.4948 6.73569V5.96878C10.4948 5.74699 10.6753 5.56684 10.8971 5.56684C11.9975 5.56684 12.8924 4.67152 12.8924 3.57076V2.23226C12.8924 1.79219 12.536 1.43539 12.0955 1.43539C11.6551 1.43539 11.2987 1.79219 11.2987 2.23226V3.57076C11.2987 3.79255 11.1189 3.97309 10.8971 3.97309C9.79674 3.97309 8.90104 4.86841 8.90104 5.96878Z" fill="#1C1C1C"/>
</g>
</svg>
