<svg width="64" height="64" viewBox="0 0 64 64" fill="none" xmlns="http://www.w3.org/2000/svg">
<g filter="url(#filter0_d_72_37212)">
<circle cx="32" cy="28" r="21" fill="#FFF0C6" stroke="white" stroke-width="2"/>
<path d="M32 30.4C32 30.7316 32.3444 31 32.7692 31H38.9229C39.2436 31 39.5306 30.8447 39.6432 30.6109L41.9509 25.8106C42.1 25.5001 41.8983 25.1543 41.5005 25.0377C41.1032 24.9229 40.6596 25.0788 40.5101 25.3887L38.3899 29.7999H32.7692C32.3444 29.7999 32 30.0683 32 30.4Z" fill="#FFBA00"/>
<path d="M31.5034 35.7223L28.25 34.0145V29.3154L29.4387 29.7427C29.5175 29.7711 29.5999 29.7857 29.6826 29.7857H33.125C34.1588 29.7857 35 28.9049 35 27.8214C35 26.7388 34.1592 25.8571 33.1422 25.8571L29.9426 25.7827L27.1814 24.5382C27.1517 24.5251 27.121 24.5136 27.0895 24.5044C26.7394 24.3594 26.3732 24.2857 26 24.2857C24.3458 24.2857 23 25.6952 23 27.4286V36.0714C23 36.1371 23.008 36.2015 23.0229 36.2637C23.0237 36.2667 23.0253 36.2692 23.026 36.2722C23.0424 36.3366 23.0671 36.3978 23.0981 36.4556C23.109 36.4758 23.1234 36.4932 23.1359 36.5124C23.1608 36.5504 23.1869 36.5868 23.218 36.6199C23.2363 36.6394 23.2564 36.6561 23.2767 36.6736C23.2948 36.6893 23.3099 36.7081 23.3296 36.7221C23.3429 36.7315 23.3586 36.735 23.3723 36.7434C23.3873 36.7527 23.3988 36.7661 23.4146 36.7743L29.4146 39.9171C29.5186 39.9716 29.6335 40 29.75 40H32C32.4142 40 32.75 39.6486 32.75 39.2143V37.8316C32.75 36.9339 32.2721 36.1251 31.5034 35.7223ZM26 25.8571C26.1959 25.8571 26.3809 25.8963 26.5658 25.9776C26.5892 25.9876 26.6138 25.9968 26.6387 26.0045L29.4838 27.2866C29.572 27.3265 29.6669 27.348 29.7632 27.3503L33.125 27.4286C33.3319 27.4286 33.5 27.6051 33.5 27.8214C33.5 28.0378 33.3319 28.2143 33.125 28.2143H29.8079L27.7439 27.4715C27.5146 27.3871 27.262 27.4263 27.0642 27.5751C26.8672 27.7224 26.75 27.9603 26.75 28.2143V33.9678L24.5 34.9106V27.4286C24.5 26.5623 25.1727 25.8571 26 25.8571ZM31.25 38.4286H29.9269L25.5794 36.1513L27.4656 35.3609L30.8322 37.128C31.09 37.263 31.25 37.5324 31.25 37.8316V38.4286ZM26 23.5C27.2407 23.5 28.25 22.4427 28.25 21.1429V20.3571C28.25 19.0573 27.2407 18 26 18C24.7593 18 23.75 19.0573 23.75 20.3571V21.1429C23.75 22.4427 24.7593 23.5 26 23.5ZM25.25 20.3571C25.25 19.9236 25.5865 19.5714 26 19.5714C26.4135 19.5714 26.75 19.9236 26.75 20.3571V21.1429C26.75 21.5764 26.4135 21.9286 26 21.9286C25.5865 21.9286 25.25 21.5764 25.25 21.1429V20.3571Z" fill="#FFBA00"/>
<path d="M41.2308 33H35.8462H32.7692C32.3444 33 32 33.3479 32 33.7778C32 34.2077 32.3444 34.5556 32.7692 34.5556H35.0769V39.2222C35.0769 39.6521 35.4213 40 35.8462 40H41.2308C41.6556 40 42 39.6521 42 39.2222V33.7778C42 33.3479 41.6556 33 41.2308 33ZM40.4615 38.4444H36.6154V34.5556H40.4615V38.4444Z" fill="#FFBA00"/>
</g>
<defs>
<filter id="filter0_d_72_37212" x="0" y="0" width="64" height="64" filterUnits="userSpaceOnUse" color-interpolation-filters="sRGB">
<feFlood flood-opacity="0" result="BackgroundImageFix"/>
<feColorMatrix in="SourceAlpha" type="matrix" values="0 0 0 0 0 0 0 0 0 0 0 0 0 0 0 0 0 0 127 0" result="hardAlpha"/>
<feOffset dy="4"/>
<feGaussianBlur stdDeviation="5"/>
<feComposite in2="hardAlpha" operator="out"/>
<feColorMatrix type="matrix" values="0 0 0 0 0 0 0 0 0 0 0 0 0 0 0 0 0 0 0.1 0"/>
<feBlend mode="normal" in2="BackgroundImageFix" result="effect1_dropShadow_72_37212"/>
<feBlend mode="normal" in="SourceGraphic" in2="effect1_dropShadow_72_37212" result="shape"/>
</filter>
</defs>
</svg>
