<svg width="26" height="25" viewBox="0 0 26 25" fill="none" xmlns="http://www.w3.org/2000/svg">
<path fill-rule="evenodd" clip-rule="evenodd" d="M19.675 9.87681L17.4598 11.3847C11.8736 7.05645 6.08494 11.6032 5.78541 11.8384L5.78174 11.8413C5.23395 12.3019 4.39922 12.2252 3.95576 11.6878C3.48623 11.1504 3.56448 10.3572 4.11228 9.89659C6.92928 7.58957 13.7151 4.67973 19.675 9.87681ZM23.9056 7.03901C23.8238 7.06538 23.7423 7.10578 23.6631 7.16216L21.8063 8.42608C17.5669 4.8223 13.0169 3.70909 8.23377 5.13711C4.6079 6.21183 2.23413 8.36127 2.20804 8.38686C1.68633 8.87304 0.851601 8.84746 0.355978 8.33568C-0.139645 7.82391 -0.11356 7.03066 0.408149 6.54448C0.51249 6.41654 3.25146 3.96003 7.45121 2.70619C11.3901 1.52911 17.3637 1.24764 23.5459 6.54448C23.7106 6.68297 23.8305 6.85384 23.9056 7.03901ZM15.2784 12.8696L12.75 14.5906C10.9976 14.2699 9.43345 15.4296 9.30829 15.5224C9.30623 15.5239 9.30455 15.5251 9.30327 15.5261C8.75548 15.9611 7.92075 15.8843 7.4773 15.3214C7.03384 14.7584 7.1121 13.9652 7.68598 13.5302C9.10983 12.454 12.3508 11.091 15.2784 12.8696Z" fill="#BABABA"/>
<path d="M24 7.49915L9.825 17.5455C8.725 18.6455 8.725 20.5455 9.825 21.6455C10.925 22.7455 12.825 22.7455 13.925 21.6455L25 8.49927C25.6 7.89927 24.7 6.99915 24 7.49915ZM12.725 20.4455C12.325 20.8455 11.525 20.8455 11.125 20.4455C10.725 20.0455 10.725 19.2455 11.125 18.8455C11.525 18.4455 12.325 18.4455 12.725 18.8455C13.125 19.2455 13.125 19.9455 12.725 20.4455Z" fill="#BABABA"/>
</svg>
