<svg xmlns="http://www.w3.org/2000/svg" width="36" height="35" viewBox="0 0 36 35" fill="none">
  <rect x="8.21484" y="7.39062" width="25" height="25" fill="white"/>
  <path fill-rule="evenodd" clip-rule="evenodd" d="M8.30243 0H32.7658C37.3323 0 41.0684 3.73608 41.0684 8.30243V32.6976C41.0684 37.264 37.3323 41 32.7658 41H8.30243C3.73608 41 0 37.2639 0 32.6976V8.30243C0 3.73608 3.73608 0 8.30243 0ZM10.1703 9.60779C10.2374 9.39071 10.329 9.20491 10.4419 9.04918L21.8968 20.5198L10.5024 32.0262C10.4271 31.937 10.3612 31.8383 10.3043 31.7314C9.93983 31.0454 10.0421 29.9896 10.0421 29.2154V11.6508C10.0421 11.0122 9.98345 10.2135 10.1703 9.60779ZM11.6301 8.42933C11.6518 8.42798 11.6737 8.42699 11.6956 8.42638C12.6363 8.39977 13.1278 8.82174 13.8985 9.276L19.9852 12.7898L26.0718 16.3036L22.7965 19.6111L11.6301 8.42933ZM27.2169 16.9649L29.819 18.467C30.3367 18.7659 30.7852 18.9852 31.1746 19.4631C31.8088 20.2416 31.7261 21.1339 30.8124 21.8852C30.4087 22.2172 29.8635 22.4928 29.4076 22.7572L27.2105 24.0312L23.7003 20.5163L27.2169 16.9649ZM26.0658 24.6949L13.2045 32.1525C12.7801 32.3987 12.5738 32.502 12.0643 32.5588C11.9584 32.5707 11.8565 32.5758 11.7587 32.5749L22.8002 21.4249L26.0658 24.6949Z" fill="#1C1C1C"/>
</svg>