<svg width="25" height="24" viewBox="0 0 25 24" fill="none" xmlns="http://www.w3.org/2000/svg">
<g id="Gym">
<path id="Gym_2" d="M13.8044 1.45329L11.7593 3.39094C11.3525 3.77637 11.1155 4.3076 11.1004 4.86779C11.0853 5.42797 11.2933 5.97121 11.6787 6.37801L13.132 7.91183L8.01923 12.756L6.56599 11.2222C6.18057 10.8154 5.64933 10.5783 5.08915 10.5632C4.52896 10.5481 3.98572 10.7561 3.57892 11.1416L1.53382 13.0792C1.12703 13.4647 0.890004 13.9959 0.874892 14.5561C0.85978 15.1163 1.06782 15.6595 1.45324 16.0663L7.26621 22.2016C7.65164 22.6084 8.18287 22.8454 8.74306 22.8605C9.30324 22.8756 9.84648 22.6676 10.2533 22.2822L12.2984 20.3445C12.7052 19.9591 12.9422 19.4279 12.9573 18.8677C12.9724 18.3075 12.7644 17.7642 12.379 17.3574L10.9257 15.8236L16.0385 10.9795L17.4917 12.5133C17.8771 12.9201 18.4084 13.1571 18.9686 13.1722C19.5287 13.1874 20.072 12.9793 20.4788 12.5939L22.5239 10.6562C22.9307 10.2708 23.1677 9.73957 23.1828 9.17939C23.1979 8.6192 22.9899 8.07596 22.6045 7.66916L16.7915 1.53387C16.4061 1.12707 15.8748 0.890047 15.3146 0.874935C14.7545 0.859823 14.2112 1.06786 13.8044 1.45329ZM11.3564 18.3263C11.4849 18.4619 11.5542 18.643 11.5492 18.8297C11.5442 19.0164 11.4651 19.1935 11.3296 19.322L9.28445 21.2596C9.14885 21.3881 8.96777 21.4574 8.78104 21.4524C8.59432 21.4474 8.41724 21.3684 8.28876 21.2328L2.47579 15.0975C2.34732 14.9619 2.27797 14.7808 2.28301 14.5941C2.28805 14.4073 2.36705 14.2303 2.50265 14.1018L4.54775 12.1641C4.68335 12.0356 4.86443 11.9663 5.05116 11.9713C5.23789 11.9764 5.41497 12.0554 5.54344 12.191L11.3564 18.3263ZM9.95689 14.8011L8.98806 13.7785L14.1008 8.93438L15.0696 9.95693L9.95689 14.8011ZM21.5819 8.63799C21.7104 8.77359 21.7797 8.95467 21.7747 9.1414C21.7697 9.32813 21.6906 9.50521 21.555 9.63368L19.5099 11.5713C19.3743 11.6998 19.1933 11.7692 19.0065 11.7641C18.8198 11.7591 18.6427 11.6801 18.5143 11.5445L12.7013 5.40918C12.5728 5.27358 12.5035 5.0925 12.5085 4.90577C12.5135 4.71905 12.5925 4.54197 12.7281 4.41349L14.7732 2.47583C14.9088 2.34736 15.0899 2.27801 15.2767 2.28305C15.4634 2.28809 15.6405 2.3671 15.7689 2.5027L21.5819 8.63799Z" fill="#1C1C1C"/>
</g>
</svg>
