<svg width="24" height="25" viewBox="0 0 24 25" fill="none" xmlns="http://www.w3.org/2000/svg">
<g clip-path="url(#clip0_2150_106455)">
<path d="M8.35768 15.6344C8.00125 15.1995 7.48664 14.909 6.91638 14.8208C6.34612 14.7327 5.76208 14.8533 5.28064 15.1588C5.1673 15.2282 5.06111 15.3079 4.96351 15.3966C4.89494 15.1588 4.83495 14.9209 4.79209 14.6831L4.46639 12.8297C4.38148 12.2885 4.08399 11.7988 3.63461 11.4603C3.18523 11.1219 2.61782 10.9602 2.04813 11.0083C1.47845 11.0565 0.949425 11.3107 0.568976 11.7193C0.188527 12.1279 -0.0146743 12.6599 0.000825761 13.2069V17.3074C0.00198389 18.2495 0.337429 19.1632 0.952222 19.899L2.77787 22.0476C3.20007 22.5528 3.42982 23.1804 3.42928 23.8273C3.42928 24.1383 3.55841 24.4366 3.78827 24.6565C4.01813 24.8764 4.32988 25 4.65495 25H10.2862C10.5135 25 10.7315 24.9136 10.8923 24.7598C11.053 24.606 11.1433 24.3974 11.1433 24.1799V21.4818C11.1399 19.8579 10.563 18.2828 9.50621 17.0122L8.35768 15.6344ZM9.42907 23.3598H5.14351C5.03947 22.5031 4.68272 21.6924 4.11497 21.0225L2.28932 18.841C1.91893 18.3957 1.71658 17.8437 1.71505 17.2746V13.1741C1.70369 13.0393 1.74877 12.9056 1.8404 12.8026C1.93202 12.6995 2.06267 12.6355 2.20361 12.6246C2.34455 12.6138 2.48423 12.6569 2.59192 12.7446C2.69962 12.8322 2.76651 12.9572 2.77787 13.0921L3.10358 14.9455C3.3122 16.153 3.85365 17.2854 4.67209 18.2259C4.74846 18.3289 4.83453 18.425 4.92923 18.513L5.14351 18.7672L6.24918 19.8251C6.41058 19.9796 6.62948 20.0663 6.85773 20.0663C7.08598 20.0663 7.30489 19.9796 7.46628 19.8251C7.62768 19.6707 7.71835 19.4613 7.71835 19.2429C7.71835 19.0245 7.62768 18.815 7.46628 18.6606L6.34346 17.6191C6.24061 17.5207 6.13776 17.414 6.04347 17.3074C5.99715 17.1984 5.98235 17.0794 6.00062 16.963C6.00995 16.8788 6.03862 16.7977 6.08455 16.7254C6.13048 16.6531 6.19256 16.5914 6.26632 16.5447C6.38903 16.4663 6.53797 16.4346 6.68387 16.4558C6.82977 16.477 6.9621 16.5497 7.05487 16.6595L8.19483 18.0373C9.00344 19.0179 9.43877 20.2328 9.42907 21.4818V23.3598ZM21.7544 11.0582C21.2214 11.0555 20.7049 11.2349 20.2979 11.5642C19.8909 11.8935 19.6202 12.3509 19.5344 12.8543L19.2087 14.7077C19.1659 14.9455 19.1059 15.1834 19.0373 15.4212C18.9397 15.3325 18.8335 15.2529 18.7202 15.1834C18.2418 14.8752 17.6597 14.7506 17.0896 14.8341C16.5196 14.9177 16.0032 15.2034 15.6431 15.6344L14.4946 17.0122C13.4378 18.2828 12.8609 19.8579 12.8575 21.4818V24.1799C12.8575 24.3974 12.9478 24.606 13.1086 24.7598C13.2693 24.9136 13.4873 25 13.7146 25H19.3459C19.6709 25 19.9827 24.8764 20.2126 24.6565C20.4424 24.4366 20.5715 24.1383 20.5715 23.8273C20.571 23.1804 20.8008 22.5528 21.223 22.0476L23.0486 19.8662C23.6634 19.1304 23.9988 18.2166 24 17.2746V13.1741C23.9888 12.6106 23.7475 12.0737 23.3279 11.6783C22.9082 11.2828 22.3434 11.0603 21.7544 11.0582ZM22.2858 17.2746C22.2842 17.8437 22.0819 18.3957 21.7115 18.841L19.8859 21.0225C19.3181 21.6924 18.9614 22.5031 18.8573 23.3598H14.5718V21.4818C14.5718 20.2288 15.0194 19.0135 15.8403 18.0373L16.9802 16.6595C17.073 16.5497 17.2053 16.477 17.3512 16.4558C17.4971 16.4346 17.6461 16.4663 17.7688 16.5447C17.8426 16.5914 17.9046 16.6531 17.9506 16.7254C17.9965 16.7977 18.0252 16.8788 18.0345 16.963C18.0405 17.0796 18.0139 17.1957 17.9574 17.2992C17.8631 17.4058 17.7602 17.5125 17.6574 17.6109L16.5345 18.677C16.3731 18.8314 16.2825 19.0409 16.2825 19.2593C16.2825 19.4777 16.3731 19.6871 16.5345 19.8415C16.6959 19.996 16.9148 20.0827 17.1431 20.0827C17.3713 20.0827 17.5902 19.996 17.7516 19.8415L18.8573 18.7836L19.0545 18.5868C19.1492 18.4988 19.2352 18.4027 19.3116 18.2998C20.13 17.3592 20.6715 16.2268 20.8801 15.0193L21.2058 13.1659C21.2172 13.0311 21.2841 12.906 21.3918 12.8184C21.4995 12.7307 21.6391 12.6876 21.7801 12.6984C21.921 12.7093 22.0517 12.7733 22.1433 12.8764C22.2349 12.9794 22.28 13.1131 22.2686 13.2479L22.2858 17.2746Z" fill="#BABABA"/>
<path d="M9.41299 3.98125C9.73981 4.50773 10.2448 4.90874 10.8417 5.1179C10.8279 5.15235 10.8162 5.18759 10.8067 5.22344L10.8051 5.223V5.23621V6.10407C10.28 6.13796 9.76639 6.2681 9.2918 6.48769C8.80295 6.71388 8.36505 7.03056 8.00317 7.41974C7.27229 8.20578 6.89553 9.23942 6.95637 10.2933C7.01722 11.3472 7.51062 12.3342 8.32734 13.0373C9.144 13.7405 10.2171 14.1023 11.3105 14.0439L11.3579 14.0413V14.0005C12.3591 13.9966 13.3254 13.6414 14.0751 13.0002C14.8258 12.3581 15.3066 11.474 15.4274 10.5147H15.8188L17.3521 12.715C17.3522 12.715 17.3522 12.7151 17.3522 12.7151C17.4343 12.8356 17.5446 12.9357 17.6739 13.0074C17.8032 13.0793 17.9482 13.1208 18.0971 13.1289L18.0971 13.1289L18.0993 13.129C18.2871 13.131 18.4711 13.0764 18.6253 12.9726C18.8346 12.8378 18.9805 12.6286 19.0308 12.3901C19.0812 12.1514 19.0314 11.9033 18.8927 11.7001L18.8925 11.6998L17.0815 9.08578C17.0815 9.08575 17.0815 9.08572 17.0815 9.08569C16.9947 8.95896 16.8769 8.855 16.7387 8.78289C16.6004 8.71076 16.4459 8.67266 16.2889 8.67188H16.2886H12.7162V7.90046H13.6896C13.9424 7.90046 14.1852 7.80384 14.3646 7.63126C14.544 7.45862 14.6452 7.22406 14.6452 6.97905C14.6452 6.73404 14.544 6.49947 14.3646 6.32683C14.1852 6.15426 13.9424 6.05763 13.6896 6.05763H12.7162V5.23839C12.7195 5.20007 12.7204 5.16159 12.7187 5.12319C13.3223 4.91554 13.8331 4.5122 14.1627 3.98125C14.499 3.43948 14.6247 2.8002 14.5171 2.17731C14.4096 1.55445 14.0759 0.988932 13.576 0.58122C13.0762 0.173543 12.4425 -0.05 11.7878 -0.05C11.1332 -0.05 10.4995 0.173543 9.99962 0.58122C9.49972 0.988932 9.16603 1.55445 9.0585 2.17731C8.95096 2.8002 9.07668 3.43948 9.41299 3.98125ZM11.7607 1.80055C11.9303 1.80055 12.096 1.84896 12.2367 1.93947C12.3775 2.02996 12.4869 2.15838 12.5514 2.30826C12.6159 2.45812 12.6327 2.6229 12.5999 2.78185C12.567 2.94082 12.4859 3.08711 12.3663 3.20212C12.2468 3.31715 12.0943 3.39569 11.9279 3.42753C11.7616 3.45937 11.5892 3.44301 11.4326 3.3806C11.276 3.3182 11.1425 3.21265 11.0487 3.07758C10.955 2.94254 10.9051 2.78399 10.9051 2.62197C10.9051 2.40475 10.9947 2.19602 11.155 2.04181C11.3153 1.88754 11.5331 1.80055 11.7607 1.80055ZM10.8051 7.95699V9.5933C10.8051 9.83831 10.9062 10.0729 11.0856 10.2455C11.265 10.4181 11.5078 10.5147 11.7607 10.5147H13.5088C13.4215 10.8652 13.2428 11.1891 12.989 11.4557C12.7207 11.7376 12.3782 11.945 11.9975 12.0558C11.6167 12.1666 11.2119 12.1768 10.8257 12.0852C10.4394 11.9936 10.0861 11.8037 9.80283 11.5356C9.51952 11.2676 9.31664 10.9313 9.21523 10.5621C9.11383 10.1929 9.11758 9.80435 9.22609 9.43705C9.3346 9.06975 9.54395 8.73709 9.8324 8.47412C10.1058 8.2249 10.4406 8.04699 10.8051 7.95699Z" fill="#BABABA" stroke="white" stroke-width="0.1"/>
</g>
<defs>
<clipPath id="clip0_2150_106455">
<rect width="24" height="25" fill="white"/>
</clipPath>
</defs>
</svg>
