<svg width="26" height="25" viewBox="0 0 26 25" fill="none" xmlns="http://www.w3.org/2000/svg">
<path d="M21.9765 6.7307V4.12496C21.9742 3.03173 21.5671 1.98401 20.8445 1.21098C20.1219 0.437948 19.1425 0.00253945 18.1206 0H7.85596C6.83403 0.00253945 5.85463 0.437948 5.13201 1.21098C4.40939 1.98401 4.00237 3.03173 4 4.12496V6.7307C4 6.98572 4.0947 7.23029 4.26326 7.41061C4.43182 7.59093 4.66044 7.69223 4.89883 7.69223H7.38858L4.17977 23.8363C4.15228 23.9634 4.14928 24.0952 4.17093 24.2236C4.19258 24.352 4.23844 24.4744 4.30571 24.5832C4.37298 24.6921 4.46026 24.7852 4.56223 24.8568C4.66419 24.9284 4.77872 24.977 4.89883 24.9998H5.08758C5.2966 25.0047 5.5007 24.9316 5.66476 24.793C5.82881 24.6543 5.94255 24.4588 5.98641 24.2402L8.08067 13.4614H12.0894V24.0382C12.0894 24.2932 12.1841 24.5378 12.3527 24.7181C12.5213 24.8985 12.7499 24.9998 12.9883 24.9998C13.2266 24.9998 13.4553 24.8985 13.6238 24.7181C13.7924 24.5378 13.8871 24.2932 13.8871 24.0382V13.4614H18.0576L20.1789 24.2402C20.2227 24.4588 20.3365 24.6543 20.5005 24.793C20.6646 24.9316 20.8687 25.0047 21.0777 24.9998H21.2665C21.3858 24.9759 21.4993 24.9264 21.6002 24.8543C21.7012 24.7822 21.7874 24.689 21.8538 24.5803C21.9201 24.4716 21.9652 24.3496 21.9863 24.2217C22.0074 24.0939 22.0041 23.9628 21.9765 23.8363L18.7587 7.69223H21.0777C21.3161 7.69223 21.5447 7.59093 21.7133 7.41061C21.8818 7.23029 21.9765 6.98572 21.9765 6.7307ZM8.49413 11.5384L9.25813 7.69223H12.0894V11.5384H8.49413ZM17.7161 11.5384H13.8871V7.69223H16.9161L17.7161 11.5384ZM20.1789 5.76918H5.79765V4.12496C5.80002 3.54176 6.01763 2.98317 6.40313 2.57078C6.78863 2.15839 7.31079 1.92559 7.85596 1.92306H18.1206C18.6657 1.92559 19.1879 2.15839 19.5734 2.57078C19.9589 2.98317 20.1765 3.54176 20.1789 4.12496V5.76918Z" fill="#BABABA"/>
</svg>
