<svg width="25" height="25" viewBox="0 0 25 25" fill="none" xmlns="http://www.w3.org/2000/svg">
<path d="M17.983 9.84611V7.96997C17.9813 7.18285 17.6874 6.42849 17.1655 5.8719C16.6436 5.31532 15.9362 5.00183 15.1982 5H7.78486C7.0468 5.00183 6.33945 5.31532 5.81756 5.8719C5.29567 6.42849 5.00171 7.18285 5 7.96997V9.84611C5 10.0297 5.06839 10.2058 5.19013 10.3356C5.31187 10.4655 5.47699 10.5384 5.64915 10.5384H7.4473L5.12983 22.1621C5.10998 22.2537 5.10781 22.3486 5.12345 22.441C5.13909 22.5335 5.17221 22.6216 5.22079 22.6999C5.26938 22.7783 5.33241 22.8453 5.40605 22.8969C5.4797 22.9484 5.56241 22.9835 5.64915 22.9998H5.78547C5.93643 23.0034 6.08384 22.9508 6.20232 22.8509C6.32081 22.7511 6.40295 22.6104 6.43463 22.4529L7.94715 14.6922H10.8424V22.3075C10.8424 22.4911 10.9108 22.6672 11.0325 22.7971C11.1542 22.9269 11.3194 22.9998 11.4915 22.9998C11.6637 22.9998 11.8288 22.9269 11.9505 22.7971C12.0723 22.6672 12.1407 22.4911 12.1407 22.3075V14.6922H15.1527L16.6847 22.4529C16.7164 22.6104 16.7986 22.7511 16.917 22.8509C17.0355 22.9508 17.1829 23.0034 17.3339 22.9998H17.4702C17.5564 22.9826 17.6384 22.947 17.7113 22.8951C17.7842 22.8432 17.8465 22.7761 17.8944 22.6978C17.9423 22.6195 17.9749 22.5317 17.9901 22.4396C18.0054 22.3476 18.0029 22.2532 17.983 22.1621L15.6591 10.5384H17.3339C17.5061 10.5384 17.6712 10.4655 17.7929 10.3356C17.9147 10.2058 17.983 10.0297 17.983 9.84611ZM8.24576 13.3076L8.79754 10.5384H10.8424V13.3076H8.24576ZM14.9061 13.3076H12.1407V10.5384H14.3283L14.9061 13.3076ZM16.6847 9.15381H6.2983V7.96997C6.30001 7.55007 6.45718 7.14788 6.73559 6.85096C7.01401 6.55404 7.39113 6.38642 7.78486 6.3846H15.1982C15.5919 6.38642 15.969 6.55404 16.2474 6.85096C16.5259 7.14788 16.683 7.55007 16.6847 7.96997V9.15381Z" fill="black"/>
</svg>
