<svg width="22" height="22" viewBox="0 0 22 22" fill="none" xmlns="http://www.w3.org/2000/svg">
<g id="Hotel">
<path id="Vector" d="M0.702128 22H21.2979C21.6864 22 22 21.6864 22 21.2979V7.98085C22 7.59234 21.6864 7.27872 21.2979 7.27872H14.0191V0.702128C14.0191 0.313617 13.7055 0 13.317 0H0.702128C0.313617 0 0 0.313617 0 0.702128V21.2979C0 21.6864 0.313617 22 0.702128 22ZM5.26596 20.5957V17.4783C5.26596 16.5187 6.04766 15.7323 7.00723 15.7323C7.96681 15.7323 8.75319 16.514 8.75319 17.4783V20.5957H5.26596ZM20.5957 8.68298V20.5957H14.0191V8.68298H20.5957ZM1.40426 1.40426H12.6149V20.5957H10.1574V17.4783C10.1574 15.7417 8.74383 14.3281 7.00723 14.3281C5.27064 14.3281 3.8617 15.7417 3.8617 17.4783V20.5957H1.40426V1.40426Z" fill="#1C1C1C"/>
<path id="Vector_2" d="M3.49168 4.92427H4.09083C4.47934 4.92427 4.79295 4.61066 4.79295 4.22215C4.79295 3.83364 4.47934 3.52002 4.09083 3.52002H3.49168C3.10317 3.52002 2.78955 3.83364 2.78955 4.22215C2.78955 4.61066 3.10317 4.92427 3.49168 4.92427ZM6.70742 4.92427H7.30657C7.69508 4.92427 8.0087 4.61066 8.0087 4.22215C8.0087 3.83364 7.69508 3.52002 7.30657 3.52002H6.70742C6.31891 3.52002 6.0053 3.83364 6.0053 4.22215C6.0053 4.61066 6.31891 4.92427 6.70742 4.92427ZM9.92317 4.92427H10.5223C10.9108 4.92427 11.2244 4.61066 11.2244 4.22215C11.2244 3.83364 10.9108 3.52002 10.5223 3.52002H9.92317C9.53466 3.52002 9.22104 3.83364 9.22104 4.22215C9.22104 4.61066 9.53934 4.92427 9.92317 4.92427ZM3.49168 8.51449H4.09083C4.47934 8.51449 4.79295 8.20087 4.79295 7.81236C4.79295 7.42385 4.47934 7.11023 4.09083 7.11023H3.49168C3.10317 7.11023 2.78955 7.42385 2.78955 7.81236C2.78955 8.20087 3.10317 8.51449 3.49168 8.51449ZM6.70742 8.51449H7.30657C7.69508 8.51449 8.0087 8.20087 8.0087 7.81236C8.0087 7.42385 7.69508 7.11023 7.30657 7.11023H6.70742C6.31891 7.11023 6.0053 7.42385 6.0053 7.81236C6.0053 8.20087 6.31891 8.51449 6.70742 8.51449ZM9.92317 8.51449H10.5223C10.9108 8.51449 11.2244 8.20087 11.2244 7.81236C11.2244 7.42385 10.9108 7.11023 10.5223 7.11023H9.92317C9.53466 7.11023 9.22104 7.42385 9.22104 7.81236C9.22104 8.20087 9.53934 8.51449 9.92317 8.51449ZM4.09551 12.1047C4.48402 12.1047 4.79764 11.7911 4.79764 11.4026C4.79764 11.0141 4.48402 10.7004 4.09551 10.7004H3.49168C3.10317 10.7004 2.78955 11.0141 2.78955 11.4026C2.78955 11.7911 3.10317 12.1047 3.49168 12.1047H4.09551ZM6.70742 12.1047H7.30657C7.69508 12.1047 8.0087 11.7911 8.0087 11.4026C8.0087 11.0141 7.69508 10.7004 7.30657 10.7004H6.70742C6.31891 10.7004 6.0053 11.0141 6.0053 11.4026C6.0053 11.7911 6.31891 12.1047 6.70742 12.1047ZM9.92317 12.1047H10.5223C10.9108 12.1047 11.2244 11.7911 11.2244 11.4026C11.2244 11.0141 10.9108 10.7004 10.5223 10.7004H9.92317C9.53466 10.7004 9.22104 11.0141 9.22104 11.4026C9.22104 11.7911 9.53934 12.1047 9.92317 12.1047ZM15.9334 12.0017H18.6764C19.0649 12.0017 19.3785 11.6881 19.3785 11.2996C19.3785 10.9111 19.0649 10.5975 18.6764 10.5975H15.9334C15.5449 10.5975 15.2313 10.9111 15.2313 11.2996C15.2313 11.6881 15.5449 12.0017 15.9334 12.0017ZM15.9334 15.3438H18.6764C19.0649 15.3438 19.3785 15.0302 19.3785 14.6417C19.3785 14.2532 19.0649 13.9396 18.6764 13.9396H15.9334C15.5449 13.9396 15.2313 14.2532 15.2313 14.6417C15.2313 15.0302 15.5449 15.3438 15.9334 15.3438ZM15.9334 18.6813H18.6764C19.0649 18.6813 19.3785 18.3677 19.3785 17.9792C19.3785 17.5907 19.0649 17.277 18.6764 17.277H15.9334C15.5449 17.277 15.2313 17.5907 15.2313 17.9792C15.2313 18.3677 15.5449 18.6813 15.9334 18.6813Z" fill="#1C1C1C"/>
</g>
</svg>
