<svg width="20" height="21" viewBox="0 0 20 21" fill="none" xmlns="http://www.w3.org/2000/svg">
<path d="M6.88499 0.899771L6.88499 0.90001C7.47545 0.908456 8.0553 1.06053 8.57626 1.34348C9.07811 1.61604 9.51125 2.00241 9.84255 2.47226C10.7809 2.30249 11.7468 2.38154 12.647 2.7023C13.5679 3.03039 14.3875 3.59973 15.0237 4.35285C15.6598 5.10596 16.09 6.01633 16.2713 6.99236C16.4488 7.94807 16.3815 8.93394 16.0763 9.85491L18.3694 12.1972C18.6279 12.4603 18.8262 12.7779 18.9507 13.1276C19.0752 13.4772 19.1227 13.8504 19.09 14.2207C19.0572 14.591 18.945 14.9496 18.7612 15.271C18.5774 15.5925 18.3264 15.8689 18.0259 16.0808C17.6224 16.366 17.1421 16.5174 16.6507 16.5138M6.88499 0.899771L12.5769 13.3275M6.88499 0.899771L6.87808 0.90015M6.88499 0.899771L6.87808 0.90015M16.6507 16.5138L16.6514 16.4138L16.6511 16.5138C16.6509 16.5138 16.6508 16.5138 16.6507 16.5138ZM16.6507 16.5138C15.9502 16.5115 15.2795 16.2268 14.7848 15.7226L14.7848 15.7225L12.5496 13.4424M12.5496 13.4424C12.5696 13.4357 12.5896 13.4289 12.6096 13.422L12.5769 13.3275M12.5496 13.4424L12.5055 13.3975L12.5769 13.3275M12.5496 13.4424C11.6904 13.7289 10.7761 13.8006 9.8839 13.6514M12.5769 13.3275C11.702 13.6304 10.7666 13.7052 9.85599 13.5451M9.8839 13.6514C9.89579 13.6418 9.90765 13.6321 9.91947 13.6224L9.85599 13.5451M9.8839 13.6514C9.60034 13.8805 9.29562 14.0809 8.97403 14.25M9.8839 13.6514C9.86882 13.6489 9.85375 13.6463 9.83868 13.6436L9.85599 13.5451M9.85599 13.5451L8.97403 14.25M8.97403 14.25V14.1892H8.87403L8.91958 14.2782C8.93778 14.2689 8.95593 14.2595 8.97403 14.25ZM8.97403 14.25V17.5615C8.97412 17.895 8.90966 18.2253 8.7843 18.5335C8.65894 18.8417 8.47512 19.1218 8.24327 19.3577C8.01141 19.5936 7.73607 19.7806 7.43298 19.908C7.12988 20.0355 6.80502 20.1007 6.47704 20.1L6.47725 20L8.97403 14.25ZM6.87808 0.90015C5.88595 0.954589 4.9478 1.37638 4.23977 2.08578M6.87808 0.90015L4.23977 2.08578M5.1359 13.8769C5.13598 13.7621 5.10268 13.6497 5.04 13.5538C4.97737 13.4581 4.88813 13.3831 4.78332 13.3386C3.88237 12.9528 3.13038 12.2758 2.64345 11.4113C2.15655 10.5469 1.96178 9.54308 2.0893 8.55453C2.20373 7.71434 2.55088 6.92666 3.08768 6.28291C3.19581 6.88128 3.42475 7.4512 3.76093 7.95613C4.13698 8.52094 4.63691 8.989 5.22133 9.32315L5.22131 9.32318L5.22361 9.32441C5.26191 9.34501 5.30621 9.36463 5.34549 9.38203C5.34888 9.38353 5.35224 9.38502 5.35556 9.38649C5.40115 9.62442 5.51856 9.84274 5.69236 10.0104C5.87947 10.191 6.12106 10.3023 6.37828 10.326C6.63552 10.3498 6.89296 10.2846 7.10906 10.1411C7.32512 9.99769 7.48715 9.78457 7.56946 9.53637C7.65175 9.2882 7.64968 9.01907 7.56357 8.77223C7.47744 8.52537 7.31214 8.31485 7.09388 8.17489C6.87558 8.03491 6.61716 7.9738 6.36032 8.00167C6.12808 8.02687 5.90974 8.12346 5.73379 8.27739C5.23948 7.97798 4.83125 7.55033 4.55099 7.03747C4.26844 6.52044 4.12639 5.9359 4.13945 5.34424C4.68923 4.98496 5.31161 4.75684 5.96018 4.6771C6.1346 4.65706 6.30999 4.64698 6.48552 4.64688L6.48577 4.64688C7.57206 4.64355 8.62107 5.05202 9.42883 5.7934L9.42917 5.79371C9.98865 6.30244 10.4125 6.94771 10.6609 7.66922C10.9093 8.39073 10.9741 9.16476 10.8491 9.9188C10.7241 10.6728 10.4134 11.3821 9.94638 11.9801C9.47936 12.5781 8.87126 13.0454 8.17914 13.3384L8.17909 13.3384L5.0359 13.8768M5.1359 13.8769L5.0359 13.8768M5.1359 13.8769V13.8768H5.0359M5.1359 13.8769V17.463V17.4658H5.13586C5.12664 17.7991 5.2309 18.1252 5.4306 18.3887C5.62987 18.6516 5.91181 18.8359 6.22847 18.911M5.0359 13.8768V17.463C5.02606 17.8189 5.13736 18.1673 5.3509 18.4491C5.56445 18.7309 5.86709 18.9286 6.20743 19.0088M6.22847 18.911C6.22785 18.9109 6.22723 18.9108 6.22661 18.9106L6.20743 19.0088M6.22847 18.911C6.2291 18.9111 6.22973 18.9113 6.23036 18.9114L6.20743 19.0088M6.22847 18.911C6.42232 18.9486 6.62191 18.9422 6.81311 18.8924C7.00493 18.8423 7.18369 18.7497 7.33657 18.621C7.48946 18.4922 7.61272 18.3306 7.69741 18.1474C7.78209 17.9642 7.82609 17.7642 7.82619 17.5616H7.92619M6.20743 19.0088C6.41659 19.0496 6.63203 19.0429 6.83835 18.9891C7.04467 18.9353 7.23679 18.8357 7.40098 18.6975C7.56517 18.5592 7.69738 18.3857 7.78817 18.1894C7.87896 17.993 7.92609 17.7786 7.92619 17.5616M7.92619 17.5616L7.82619 17.5615M7.92619 17.5616V13.8768M7.82619 17.5615L9.49645 5.71973C10.0685 6.23986 10.5017 6.89941 10.7555 7.63667C11.0093 8.37392 11.0754 9.16475 10.9477 9.93516C10.82 10.7056 10.5026 11.4303 10.0252 12.0417C9.54781 12.653 8.92605 13.1308 8.21812 13.4305C8.13163 13.4672 8.05774 13.5291 8.00578 13.6086C7.95382 13.688 7.92613 13.7814 7.92619 13.8768M7.82619 17.5615V13.8769M7.82619 17.5615V13.8769M7.92619 13.8768H7.82619V13.8769M7.92619 13.8768L7.82619 13.8769M4.23977 2.08578C3.54215 2.78474 3.11519 3.7155 3.03557 4.70755M4.23977 2.08578L3.03557 4.70755M3.03557 4.70755C2.29989 5.29406 1.72088 6.0599 1.35203 6.93452C0.977402 7.82284 0.83196 8.79398 0.929459 9.75563C1.02696 10.7173 1.36418 11.6377 1.90922 12.4293C2.44236 13.2036 3.15706 13.8296 3.98806 14.2504L3.03557 4.70755ZM3.98806 17.4645V17.4656H4.08806L3.98808 17.4634C3.98808 17.4637 3.98807 17.4641 3.98806 17.4645ZM5.83121 3.52003L5.83043 3.52012C5.34883 3.57718 4.87731 3.69993 4.42847 3.88478C4.6085 3.40744 4.91197 2.98723 5.30812 2.66979C5.76041 2.30736 6.31137 2.09663 6.88538 2.06614C7.23426 2.07199 7.5782 2.15182 7.89531 2.30062C8.1712 2.43007 8.42154 2.60929 8.63443 2.82932C8.18785 3.01803 7.76751 3.2659 7.38432 3.56662C6.87125 3.47852 6.34863 3.46282 5.83121 3.52003ZM17.7671 14.6916C17.6714 14.8573 17.5428 15.0004 17.3898 15.112L17.368 15.1261C17.0935 15.3038 16.7671 15.3785 16.4448 15.3378C16.1225 15.297 15.8237 15.1433 15.5999 14.9024L15.5999 14.9024L15.598 14.9004L13.1021 12.3571C13.1021 12.3571 13.1021 12.3571 13.1021 12.3571C13.022 12.2753 12.9198 12.2194 12.8081 12.1967C12.6965 12.174 12.5809 12.1855 12.4759 12.2298C11.9903 12.4297 11.4745 12.5406 10.9522 12.5581C11.4289 11.9105 11.7642 11.1657 11.9348 10.3737C12.1201 9.51372 12.106 8.62163 11.8937 7.76819C11.6815 6.91475 11.2769 6.12336 10.7119 5.45693C10.1916 4.84322 9.54855 4.35105 8.82661 4.01296C9.58592 3.62725 10.4394 3.4718 11.2852 3.56736C12.1975 3.67044 13.056 4.06054 13.7414 4.68382C14.4268 5.30712 14.905 6.13273 15.1093 7.04614C15.3137 7.95957 15.2339 8.91517 14.8811 9.78017L14.881 9.78053C14.8382 9.88655 14.8271 10.003 14.849 10.1153C14.8709 10.2276 14.9249 10.3311 15.0045 10.4127L15.0046 10.4128L17.5574 13.0219L17.5576 13.0221C17.6978 13.1646 17.8054 13.337 17.8729 13.5271C17.9403 13.7172 17.9658 13.9201 17.9475 14.1215C17.9292 14.3228 17.8676 14.5175 17.7671 14.6916Z" fill="#1C1C1C" stroke="#1C1C1C" stroke-width="0.2"/>
</svg>
