<svg width="27" height="25" viewBox="0 0 27 25" fill="none" xmlns="http://www.w3.org/2000/svg">
<g clip-path="url(#clip0_2150_106481)">
<path d="M13.2906 16.4553C12.5396 16.4553 11.8054 16.2326 11.1809 15.8153C10.5564 15.398 10.0697 14.8049 9.78223 14.111C9.49481 13.4172 9.41961 12.6536 9.56613 11.917C9.71266 11.1803 10.0743 10.5037 10.6054 9.97261C11.1365 9.44152 11.8131 9.07985 12.5498 8.93332C13.2864 8.78679 14.05 8.862 14.7439 9.14942C15.4378 9.43684 16.0308 9.92357 16.4481 10.5481C16.8654 11.1726 17.0881 11.9068 17.0881 12.6578C17.0881 13.665 16.688 14.6309 15.9758 15.343C15.2637 16.0552 14.2978 16.4553 13.2906 16.4553ZM13.2906 10.7591C12.9151 10.7591 12.548 10.8704 12.2358 11.0791C11.9235 11.2877 11.6801 11.5843 11.5364 11.9312C11.3927 12.2782 11.3551 12.6599 11.4284 13.0282C11.5016 13.3966 11.6825 13.7349 11.948 14.0004C12.2136 14.266 12.5519 14.4468 12.9202 14.5201C13.2885 14.5933 13.6703 14.5557 14.0172 14.412C14.3642 14.2683 14.6607 14.0249 14.8694 13.7127C15.078 13.4005 15.1894 13.0334 15.1894 12.6578C15.1894 12.1542 14.9893 11.6713 14.6332 11.3152C14.2772 10.9591 13.7942 10.7591 13.2906 10.7591Z" fill="#BABABA"/>
<path d="M18.9875 25.0002H7.59512C7.34333 25.0002 7.10186 24.9002 6.92382 24.7221C6.74577 24.5441 6.64575 24.3026 6.64575 24.0508V22.1521C6.64575 20.8932 7.14586 19.6858 8.03607 18.7956C8.92627 17.9054 10.1336 17.4053 11.3926 17.4053H15.1901C15.8134 17.4053 16.4307 17.5281 17.0066 17.7666C17.5825 18.0052 18.1058 18.3548 18.5466 18.7956C18.9874 19.2364 19.337 19.7597 19.5756 20.3356C19.8141 20.9115 19.9369 21.5287 19.9369 22.1521V24.0508C19.9369 24.3026 19.8369 24.5441 19.6588 24.7221C19.4808 24.9002 19.2393 25.0002 18.9875 25.0002ZM8.54449 23.1015H18.0382V22.1521C18.0382 21.3967 17.7381 20.6723 17.204 20.1382C16.6698 19.6041 15.9454 19.304 15.1901 19.304H11.3926C10.6372 19.304 9.9128 19.6041 9.37867 20.1382C8.84455 20.6723 8.54449 21.3967 8.54449 22.1521V23.1015Z" fill="#BABABA"/>
<path d="M6.64525 7.59493C5.89418 7.59493 5.15998 7.37222 4.53549 6.95495C3.911 6.53768 3.42427 5.94459 3.13684 5.2507C2.84942 4.5568 2.77422 3.79326 2.92075 3.05662C3.06727 2.31998 3.42895 1.64334 3.96003 1.11225C4.49112 0.581168 5.16776 0.219495 5.9044 0.072969C6.64103 -0.0735571 7.40458 0.00164537 8.09847 0.289067C8.79237 0.576488 9.38545 1.06322 9.80272 1.68771C10.22 2.3122 10.4427 3.0464 10.4427 3.79747C10.4427 4.80462 10.0426 5.77052 9.33046 6.48268C8.6183 7.19485 7.6524 7.59493 6.64525 7.59493ZM6.64525 1.89873C6.26971 1.89873 5.90261 2.01009 5.59037 2.21873C5.27812 2.42736 5.03476 2.72391 4.89105 3.07085C4.74733 3.4178 4.70973 3.79957 4.783 4.16789C4.85626 4.53621 5.0371 4.87453 5.30264 5.14008C5.56818 5.40562 5.9065 5.58646 6.27482 5.65972C6.64314 5.73298 7.02491 5.69538 7.37186 5.55167C7.71881 5.40796 8.01535 5.16459 8.22399 4.85235C8.43262 4.5401 8.54398 4.173 8.54398 3.79747C8.54398 3.29389 8.34393 2.81094 7.98785 2.45486C7.63177 2.09878 7.14882 1.89873 6.64525 1.89873Z" fill="#BABABA"/>
<path d="M6.64557 16.1389H0.949367C0.697579 16.1389 0.456104 16.0389 0.278063 15.8608C0.100022 15.6828 0 15.4413 0 15.1895V13.2908C0 12.0318 0.500111 10.8245 1.39032 9.93426C2.28052 9.04406 3.48789 8.54395 4.74683 8.54395H7.59493C7.84672 8.54395 8.0882 8.64397 8.26624 8.82201C8.44428 9.00005 8.5443 9.24152 8.5443 9.49331C8.5443 9.7451 8.44428 9.98657 8.26624 10.1646C8.0882 10.3427 7.84672 10.4427 7.59493 10.4427H4.74683C3.99147 10.4427 3.26705 10.7427 2.73292 11.2769C2.1988 11.811 1.89873 12.5354 1.89873 13.2908V14.2401H6.64557C6.89735 14.2401 7.13883 14.3402 7.31687 14.5182C7.49491 14.6962 7.59493 14.9377 7.59493 15.1895C7.59493 15.4413 7.49491 15.6828 7.31687 15.8608C7.13883 16.0389 6.89735 16.1389 6.64557 16.1389Z" fill="#BABABA"/>
<path d="M19.9371 7.59493C19.186 7.59493 18.4518 7.37222 17.8274 6.95495C17.2029 6.53768 16.7161 5.94459 16.4287 5.2507C16.1413 4.5568 16.0661 3.79326 16.2126 3.05662C16.3591 2.31998 16.7208 1.64334 17.2519 1.11225C17.783 0.581168 18.4596 0.219495 19.1963 0.072969C19.9329 -0.0735571 20.6964 0.00164537 21.3903 0.289067C22.0842 0.576488 22.6773 1.06322 23.0946 1.68771C23.5119 2.3122 23.7346 3.0464 23.7346 3.79747C23.7346 4.80462 23.3345 5.77052 22.6223 6.48268C21.9102 7.19485 20.9443 7.59493 19.9371 7.59493ZM19.9371 1.89873C19.5616 1.89873 19.1945 2.01009 18.8822 2.21873C18.57 2.42736 18.3266 2.72391 18.1829 3.07085C18.0392 3.4178 18.0016 3.79957 18.0749 4.16789C18.1481 4.53621 18.329 4.87453 18.5945 5.14008C18.8601 5.40562 19.1984 5.58646 19.5667 5.65972C19.935 5.73298 20.3168 5.69538 20.6637 5.55167C21.0107 5.40796 21.3072 5.16459 21.5159 4.85235C21.7245 4.5401 21.8359 4.173 21.8359 3.79747C21.8359 3.29389 21.6358 2.81094 21.2797 2.45486C20.9236 2.09878 20.4407 1.89873 19.9371 1.89873Z" fill="#BABABA"/>
<path d="M25.6329 16.1389H19.9367C19.6849 16.1389 19.4434 16.0389 19.2654 15.8608C19.0874 15.6828 18.9873 15.4413 18.9873 15.1895C18.9873 14.9377 19.0874 14.6962 19.2654 14.5182C19.4434 14.3402 19.6849 14.2401 19.9367 14.2401H24.6835V13.2908C24.6835 12.5354 24.3835 11.811 23.8493 11.2769C23.3152 10.7427 22.5908 10.4427 21.8354 10.4427H18.9873C18.7355 10.4427 18.4941 10.3427 18.316 10.1646C18.138 9.98657 18.038 9.7451 18.038 9.49331C18.038 9.24152 18.138 9.00005 18.316 8.82201C18.4941 8.64397 18.7355 8.54395 18.9873 8.54395H21.8354C23.0944 8.54395 24.3017 9.04406 25.1919 9.93426C26.0822 10.8245 26.5823 12.0318 26.5823 13.2908V15.1895C26.5823 15.4413 26.4822 15.6828 26.3042 15.8608C26.1262 16.0389 25.8847 16.1389 25.6329 16.1389Z" fill="#BABABA"/>
</g>
<defs>
<clipPath id="clip0_2150_106481">
<rect width="27" height="25" fill="white"/>
</clipPath>
</defs>
</svg>
