<svg width="64" height="64" viewBox="0 0 64 64" fill="none" xmlns="http://www.w3.org/2000/svg">
<g filter="url(#filter0_d_72_37203)">
<circle cx="32" cy="28" r="21" fill="#E0EBA5" stroke="white" stroke-width="2"/>
<path d="M30.9025 38.2318C31.4968 38.8115 32.487 38.8115 33.1096 38.2318L38.5988 32.8769C42.3903 29.1782 42.2488 23.0503 38.1178 19.5724C34.6376 16.5915 29.3746 16.5915 25.8943 19.5449C21.7631 23.0505 21.5934 29.1506 25.4133 32.8769L30.9025 38.2318ZM32.0061 22.3879C34.1282 22.3879 35.826 24.0441 35.826 26.1143C35.826 28.1845 34.1282 29.8408 32.0061 29.8408C29.8839 29.8408 28.1861 28.1845 28.1861 26.1143C28.1863 24.0441 29.8839 22.3879 32.0061 22.3879Z" fill="#1C1C1C"/>
</g>
<defs>
<filter id="filter0_d_72_37203" x="0" y="0" width="64" height="64" filterUnits="userSpaceOnUse" color-interpolation-filters="sRGB">
<feFlood flood-opacity="0" result="BackgroundImageFix"/>
<feColorMatrix in="SourceAlpha" type="matrix" values="0 0 0 0 0 0 0 0 0 0 0 0 0 0 0 0 0 0 127 0" result="hardAlpha"/>
<feOffset dy="4"/>
<feGaussianBlur stdDeviation="5"/>
<feComposite in2="hardAlpha" operator="out"/>
<feColorMatrix type="matrix" values="0 0 0 0 0 0 0 0 0 0 0 0 0 0 0 0 0 0 0.1 0"/>
<feBlend mode="normal" in2="BackgroundImageFix" result="effect1_dropShadow_72_37203"/>
<feBlend mode="normal" in="SourceGraphic" in2="effect1_dropShadow_72_37203" result="shape"/>
</filter>
</defs>
</svg>
