<svg width="21" height="21" viewBox="0 0 21 21" fill="none" xmlns="http://www.w3.org/2000/svg">
<path d="M10.5001 0.9H10.5C8.6013 0.9 6.74524 1.46303 5.16653 2.51789C3.58782 3.57275 2.35736 5.07207 1.63076 6.82624C0.904159 8.58041 0.714048 10.5106 1.08447 12.3729C1.45488 14.2351 2.36919 15.9456 3.71178 17.2882C5.05436 18.6308 6.76492 19.5451 8.62714 19.9155C10.4894 20.2859 12.4196 20.0958 14.1738 19.3692C15.9279 18.6426 17.4272 17.4122 18.4821 15.8335C19.537 14.2548 20.1 12.3987 20.1 10.5V10.4999C20.0971 7.95472 19.0848 5.51462 17.2851 3.71491C15.4854 1.9152 13.0453 0.902869 10.5001 0.9ZM10.4999 19.2871C8.762 19.2871 7.06315 18.7717 5.61815 17.8062C4.17312 16.8407 3.04686 15.4683 2.38179 13.8627C1.71671 12.257 1.5427 10.4902 1.88175 8.78572C2.2208 7.08119 3.05769 5.51548 4.28659 4.28658C5.51548 3.05769 7.08119 2.2208 8.78572 1.88174C10.4903 1.54269 12.257 1.71671 13.8627 2.38178C15.4683 3.04686 16.8407 4.17312 17.8062 5.61815C18.7717 7.06315 19.2871 8.762 19.2871 10.4999C19.2844 12.8296 18.3577 15.063 16.7104 16.7104C15.063 18.3577 12.8296 19.2844 10.4999 19.2871Z" fill="#1C1C1C" stroke="#1C1C1C" stroke-width="0.2"/>
<path d="M9.17454 9.88699V9.8871C9.17454 10.3918 9.32419 10.8851 9.60456 11.3047C9.88494 11.7243 10.2834 12.0514 10.7497 12.2445C11.2159 12.4376 11.729 12.4881 12.2239 12.3897C12.7189 12.2912 13.1736 12.0482 13.5304 11.6914C13.8873 11.3345 14.1303 10.8799 14.2287 10.3849C14.3272 9.88993 14.2767 9.37688 14.0835 8.91064C13.8904 8.44439 13.5634 8.04588 13.1437 7.76551C12.7241 7.48514 12.2308 7.33549 11.7261 7.33549L11.726 7.33549C11.0496 7.33625 10.401 7.60531 9.92269 8.08364C9.44436 8.56198 9.1753 9.21052 9.17454 9.88699ZM11.7261 8.14839C12.07 8.14839 12.4062 8.25036 12.6921 8.44141C12.9781 8.63247 13.2009 8.90402 13.3325 9.22172C13.4641 9.53943 13.4985 9.88903 13.4314 10.2263C13.3644 10.5636 13.1988 10.8734 12.9556 11.1166C12.7124 11.3597 12.4026 11.5253 12.0654 11.5924C11.7281 11.6595 11.3785 11.6251 11.0608 11.4935C10.7431 11.3619 10.4715 11.139 10.2805 10.8531C10.0894 10.5671 9.98744 10.231 9.98744 9.8871H9.88744L9.98744 9.8872C9.9879 9.42618 10.1712 8.98417 10.4972 8.65818C10.8232 8.33219 11.2652 8.14885 11.7262 8.14839L11.7261 8.04839V8.14839Z" fill="#1C1C1C" stroke="#1C1C1C" stroke-width="0.2"/>
<mask id="path-3-outside-1_871_42082" maskUnits="userSpaceOnUse" x="2.4519" y="1.83871" width="17" height="16" fill="black">
<rect fill="white" x="2.4519" y="1.83871" width="17" height="16"/>
<path d="M15.2472 5.77819C15.0812 5.73637 14.9273 5.65584 14.7983 5.54319C14.6693 5.43054 14.5688 5.28897 14.505 5.13004C14.3801 4.81487 14.1631 4.54464 13.8823 4.35458C13.6016 4.16451 13.2701 4.06343 12.9311 4.06451C12.3771 4.06403 11.8324 4.20765 11.3507 4.48128L11.1503 4.28117L10.2309 3.36182C9.89599 3.02688 9.44172 2.83871 8.96805 2.83871C8.49437 2.83871 8.0401 3.02688 7.70516 3.36182L5.50729 5.55969C5.22608 5.84029 5.04673 6.20685 4.99776 6.60108C4.94878 6.99532 5.03299 7.39461 5.237 7.73549C5.22878 7.73821 5.22038 7.74036 5.21187 7.74193C4.98895 7.74217 4.77524 7.83085 4.61764 7.98851C4.46004 8.14617 4.37144 8.35991 4.37127 8.58283V8.77865C4.18575 8.87643 4.03054 9.02314 3.9225 9.20288C3.81445 9.38261 3.75769 9.58851 3.75837 9.79822C3.75866 10.1058 3.83031 10.409 3.96768 10.6842C4.03153 10.8122 4.06479 10.9533 4.06482 11.0963C4.06621 11.1933 4.08286 11.2895 4.11416 11.3813L3.95481 11.5009C3.79776 11.6195 3.67053 11.7731 3.58324 11.9495C3.49594 12.1259 3.45098 12.3202 3.45192 12.5171C3.45107 12.8004 3.53965 13.0767 3.70505 13.3068C3.53852 13.7023 3.45247 14.127 3.45192 14.5562V14.7903C3.45227 15.0758 3.55209 15.3522 3.73419 15.5721C3.91629 15.7919 4.16931 15.9415 4.44972 15.995L4.51102 16.1788C4.58402 16.3995 4.72484 16.5914 4.91337 16.7273C5.1019 16.8631 5.32853 16.936 5.56092 16.9355C5.73879 16.9362 5.91408 16.9781 6.073 17.0581C6.31734 17.1791 6.58636 17.242 6.85905 17.2419C7.28589 17.2415 7.70684 17.1422 8.08884 16.9517C8.14032 16.9259 8.19357 16.9038 8.24819 16.8855L8.38916 16.8386C8.6438 16.753 8.87516 16.6096 9.06512 16.4196C9.25509 16.2297 9.39849 15.9983 9.48411 15.7437C9.4874 15.7338 9.49373 15.7251 9.5022 15.719C9.51068 15.7129 9.52086 15.7097 9.5313 15.7097C9.69336 15.7093 9.84964 15.6494 9.97045 15.5414C9.91748 15.6942 9.88944 15.8545 9.8874 16.0161C9.88789 16.4223 10.0495 16.8118 10.3367 17.0991C10.624 17.3863 11.0134 17.5479 11.4197 17.5484C13.2884 17.5463 15.08 16.8031 16.4014 15.4817C17.7228 14.1603 18.466 12.3687 18.468 10.5C18.4675 10.1428 18.3422 9.7971 18.1137 9.52253C17.8853 9.24796 17.5682 9.06181 17.2171 8.99623C17.2318 8.77528 17.2422 8.55372 17.2422 8.33307C17.2428 7.74557 17.0467 7.17479 16.6851 6.71173C16.3236 6.24868 15.8174 5.92003 15.2472 5.77819ZM13.9359 5.35773C14.036 5.60691 14.1937 5.82882 14.3961 6.00525C14.5986 6.18168 14.8399 6.30761 15.1004 6.3727C15.5376 6.4819 15.9255 6.73423 16.2026 7.0895C16.4797 7.44476 16.6299 7.88254 16.6293 8.33307C16.6293 8.5574 16.6183 8.78264 16.6018 9.00727C16.2622 9.0831 15.9586 9.27222 15.7409 9.54351C15.5231 9.81479 15.4041 10.1521 15.4035 10.5C15.4023 11.5562 14.9822 12.5688 14.2353 13.3157C13.4885 14.0625 12.4759 14.4826 11.4197 14.4839C11.1539 14.4854 10.8933 14.557 10.6639 14.6913C10.4191 14.7566 10.1668 14.7899 9.91345 14.7903C9.58154 14.79 9.26331 14.658 9.02861 14.4233C8.79392 14.1886 8.66192 13.8704 8.6616 13.5385C8.66079 12.4935 8.29446 11.4818 7.6261 10.6787C7.30533 10.2933 7.12958 9.80777 7.12934 9.30636C7.12666 8.74227 7.30729 8.19258 7.64405 7.74003C7.9808 7.28749 8.45546 6.95658 8.99655 6.79714C9.68734 6.58896 10.316 6.21337 10.8267 5.70372L11.0908 5.43956C11.3319 5.19713 11.6187 5.00494 11.9346 4.87412C12.2505 4.74329 12.5892 4.67643 12.9311 4.67741C13.1475 4.67672 13.3592 4.74126 13.5384 4.86261C13.7177 4.98396 13.8562 5.1565 13.9359 5.35773ZM10.8408 4.83922C10.7795 4.89285 10.7154 4.94709 10.6569 5.00623L10.3927 5.2704C9.95415 5.70829 9.41409 6.03096 8.82064 6.20967C8.31746 6.358 7.8583 6.62738 7.48332 6.99424C7.10834 7.3611 6.82897 7.81426 6.66966 8.31407C6.54204 8.09233 6.49139 7.83458 6.52559 7.58103C6.55979 7.32748 6.67693 7.09237 6.85874 6.91236L9.05661 4.71449C9.27665 4.49453 9.57505 4.37097 9.88618 4.37097C10.1973 4.37097 10.4957 4.49453 10.7157 4.71449L10.8408 4.83922ZM5.94061 5.99301L8.13848 3.79514C8.35194 3.58063 8.64043 3.4575 8.943 3.45178C9.24557 3.44606 9.53851 3.5582 9.75992 3.76449C9.33245 3.79603 8.93032 3.97927 8.62605 4.28117L6.42818 6.47904C6.12433 6.782 5.94065 7.18485 5.91119 7.61291C5.70504 7.39143 5.593 7.09852 5.59872 6.796C5.60444 6.49348 5.72747 6.20501 5.94184 5.99148L5.94061 5.99301ZM4.67098 9.31372C4.76536 9.26688 4.84472 9.19454 4.90008 9.1049C4.95543 9.01525 4.98457 8.9119 4.98418 8.80654V8.58283C4.98418 8.52241 5.00816 8.46447 5.05085 8.42172C5.09354 8.37897 5.15145 8.35491 5.21187 8.35483C5.36669 8.35397 5.51821 8.31004 5.64948 8.22796L6.42664 9.00481L6.52471 9.10288C6.52042 9.1703 6.51643 9.23802 6.51643 9.30636C6.51736 9.59797 6.56453 9.88759 6.65618 10.1644L5.7549 9.62354L5.43926 10.1488L7.30861 11.2698C7.64117 11.7266 7.86934 12.2508 7.97698 12.8054C7.95614 12.8149 7.93316 12.8195 7.91293 12.8296C7.7052 12.9324 7.47084 12.9686 7.24178 12.9333C7.01273 12.8981 6.80011 12.793 6.63289 12.6326C6.44326 12.4446 6.18712 12.339 5.92008 12.3387C5.83444 12.3386 5.75233 12.3046 5.69177 12.244C5.63122 12.1834 5.59716 12.1013 5.59708 12.0157C5.59692 11.8576 5.53404 11.706 5.42223 11.5942C5.31043 11.4824 5.15884 11.4195 5.00072 11.4193C4.91508 11.4193 4.83298 11.3852 4.77242 11.3247C4.71186 11.2641 4.67781 11.182 4.67772 11.0963C4.67743 10.8581 4.62205 10.6232 4.51592 10.4099C4.42079 10.2196 4.37127 10.0097 4.37127 9.79699C4.37126 9.69652 4.39931 9.59803 4.45226 9.51265C4.50522 9.42726 4.58097 9.35836 4.67098 9.31372ZM8.90277 15.55C8.84739 15.7144 8.75473 15.8638 8.63203 15.9864C8.50933 16.1091 8.35992 16.2017 8.19548 16.257L8.05421 16.3039C7.97218 16.3316 7.89211 16.3649 7.81456 16.4035C7.51772 16.5514 7.19069 16.6286 6.85905 16.629C6.68117 16.6283 6.50588 16.5864 6.34697 16.5064C6.10263 16.3854 5.8336 16.3225 5.56092 16.3226C5.45733 16.3228 5.35632 16.2903 5.27225 16.2298C5.18819 16.1693 5.12534 16.0838 5.09266 15.9855L4.96824 15.6134C4.94803 15.5523 4.90909 15.4991 4.85694 15.4614C4.8048 15.4237 4.74209 15.4033 4.67772 15.4032C4.51517 15.4032 4.35928 15.3386 4.24434 15.2237C4.1294 15.1088 4.06482 14.9529 4.06482 14.7903V14.5562C4.06546 14.1532 4.15933 13.7557 4.3391 13.395C4.36781 13.3375 4.3777 13.2724 4.36736 13.2089C4.35702 13.1454 4.32698 13.0868 4.28148 13.0414C4.21146 12.9711 4.15621 12.8875 4.119 12.7955C4.08179 12.7035 4.06337 12.6049 4.06482 12.5057C4.06492 12.4059 4.08822 12.3075 4.1329 12.2183C4.17758 12.129 4.2424 12.0514 4.32224 11.9915L4.48282 11.8714C4.63091 11.9703 4.80613 12.0208 4.98418 12.0157C4.98442 12.2638 5.0831 12.5018 5.25857 12.6772C5.43403 12.8527 5.67194 12.9514 5.92008 12.9516C6.02438 12.9519 6.12437 12.9933 6.19834 13.0668C6.33829 13.2045 6.50109 13.3168 6.67947 13.3987L5.55172 13.5679L5.64366 14.174L6.48456 14.0481L6.23297 14.6766L6.80235 14.904L7.18695 13.9427L8.07198 13.81C8.09143 13.9436 8.12555 14.0746 8.17372 14.2007L7.76277 15.2953L8.33706 15.5099L8.58651 14.8442C8.74503 15.0046 8.93116 15.1351 9.13598 15.2295C9.02713 15.3098 8.94569 15.4217 8.90277 15.55ZM17.8551 10.5C17.8532 12.2062 17.1745 13.8419 15.9681 15.0484C14.7616 16.2549 13.1259 16.9335 11.4197 16.9355C11.1758 16.9355 10.942 16.8386 10.7696 16.6662C10.5972 16.4938 10.5003 16.2599 10.5003 16.0161C10.5003 15.7723 10.5972 15.5384 10.7696 15.366C10.942 15.1936 11.1758 15.0968 11.4197 15.0968C11.4442 15.0968 11.4681 15.0934 11.4926 15.0931C11.5935 15.5238 11.8114 15.9182 12.1224 16.2328L12.5557 15.7995C12.3447 15.5877 12.19 15.3265 12.1055 15.0398C12.5453 14.9739 12.973 14.8439 13.3751 14.6539C13.4911 15.0178 13.6919 15.3489 13.9611 15.6199L14.3944 15.1866C14.1654 14.9544 14.0042 14.6642 13.928 14.3472C14.2921 14.1086 14.6207 13.8197 14.904 13.4891C15.0732 13.74 15.2891 13.956 15.5399 14.1253L15.8801 13.6154C15.6331 13.4493 15.4327 13.2228 15.2978 12.9574C15.5413 12.5745 15.7264 12.1575 15.847 11.72C16.1032 12.0597 16.4138 12.3547 16.7663 12.5931L17.1065 12.0831C16.6338 11.7666 16.2525 11.3316 16.0008 10.8215C16.0082 10.7145 16.017 10.6069 16.017 10.4994C16.017 10.2556 16.1139 10.0217 16.2863 9.8493C16.4587 9.67688 16.6926 9.58002 16.9364 9.58002C17.1802 9.58002 17.4141 9.67688 17.5865 9.8493C17.7589 10.0217 17.8558 10.2556 17.8558 10.4994L17.8551 10.5Z"/>
</mask>
<path d="M15.2472 5.77819C15.0812 5.73637 14.9273 5.65584 14.7983 5.54319C14.6693 5.43054 14.5688 5.28897 14.505 5.13004C14.3801 4.81487 14.1631 4.54464 13.8823 4.35458C13.6016 4.16451 13.2701 4.06343 12.9311 4.06451C12.3771 4.06403 11.8324 4.20765 11.3507 4.48128L11.1503 4.28117L10.2309 3.36182C9.89599 3.02688 9.44172 2.83871 8.96805 2.83871C8.49437 2.83871 8.0401 3.02688 7.70516 3.36182L5.50729 5.55969C5.22608 5.84029 5.04673 6.20685 4.99776 6.60108C4.94878 6.99532 5.03299 7.39461 5.237 7.73549C5.22878 7.73821 5.22038 7.74036 5.21187 7.74193C4.98895 7.74217 4.77524 7.83085 4.61764 7.98851C4.46004 8.14617 4.37144 8.35991 4.37127 8.58283V8.77865C4.18575 8.87643 4.03054 9.02314 3.9225 9.20288C3.81445 9.38261 3.75769 9.58851 3.75837 9.79822C3.75866 10.1058 3.83031 10.409 3.96768 10.6842C4.03153 10.8122 4.06479 10.9533 4.06482 11.0963C4.06621 11.1933 4.08286 11.2895 4.11416 11.3813L3.95481 11.5009C3.79776 11.6195 3.67053 11.7731 3.58324 11.9495C3.49594 12.1259 3.45098 12.3202 3.45192 12.5171C3.45107 12.8004 3.53965 13.0767 3.70505 13.3068C3.53852 13.7023 3.45247 14.127 3.45192 14.5562V14.7903C3.45227 15.0758 3.55209 15.3522 3.73419 15.5721C3.91629 15.7919 4.16931 15.9415 4.44972 15.995L4.51102 16.1788C4.58402 16.3995 4.72484 16.5914 4.91337 16.7273C5.1019 16.8631 5.32853 16.936 5.56092 16.9355C5.73879 16.9362 5.91408 16.9781 6.073 17.0581C6.31734 17.1791 6.58636 17.242 6.85905 17.2419C7.28589 17.2415 7.70684 17.1422 8.08884 16.9517C8.14032 16.9259 8.19357 16.9038 8.24819 16.8855L8.38916 16.8386C8.6438 16.753 8.87516 16.6096 9.06512 16.4196C9.25509 16.2297 9.39849 15.9983 9.48411 15.7437C9.4874 15.7338 9.49373 15.7251 9.5022 15.719C9.51068 15.7129 9.52086 15.7097 9.5313 15.7097C9.69336 15.7093 9.84964 15.6494 9.97045 15.5414C9.91748 15.6942 9.88944 15.8545 9.8874 16.0161C9.88789 16.4223 10.0495 16.8118 10.3367 17.0991C10.624 17.3863 11.0134 17.5479 11.4197 17.5484C13.2884 17.5463 15.08 16.8031 16.4014 15.4817C17.7228 14.1603 18.466 12.3687 18.468 10.5C18.4675 10.1428 18.3422 9.7971 18.1137 9.52253C17.8853 9.24796 17.5682 9.06181 17.2171 8.99623C17.2318 8.77528 17.2422 8.55372 17.2422 8.33307C17.2428 7.74557 17.0467 7.17479 16.6851 6.71173C16.3236 6.24868 15.8174 5.92003 15.2472 5.77819ZM13.9359 5.35773C14.036 5.60691 14.1937 5.82882 14.3961 6.00525C14.5986 6.18168 14.8399 6.30761 15.1004 6.3727C15.5376 6.4819 15.9255 6.73423 16.2026 7.0895C16.4797 7.44476 16.6299 7.88254 16.6293 8.33307C16.6293 8.5574 16.6183 8.78264 16.6018 9.00727C16.2622 9.0831 15.9586 9.27222 15.7409 9.54351C15.5231 9.81479 15.4041 10.1521 15.4035 10.5C15.4023 11.5562 14.9822 12.5688 14.2353 13.3157C13.4885 14.0625 12.4759 14.4826 11.4197 14.4839C11.1539 14.4854 10.8933 14.557 10.6639 14.6913C10.4191 14.7566 10.1668 14.7899 9.91345 14.7903C9.58154 14.79 9.26331 14.658 9.02861 14.4233C8.79392 14.1886 8.66192 13.8704 8.6616 13.5385C8.66079 12.4935 8.29446 11.4818 7.6261 10.6787C7.30533 10.2933 7.12958 9.80777 7.12934 9.30636C7.12666 8.74227 7.30729 8.19258 7.64405 7.74003C7.9808 7.28749 8.45546 6.95658 8.99655 6.79714C9.68734 6.58896 10.316 6.21337 10.8267 5.70372L11.0908 5.43956C11.3319 5.19713 11.6187 5.00494 11.9346 4.87412C12.2505 4.74329 12.5892 4.67643 12.9311 4.67741C13.1475 4.67672 13.3592 4.74126 13.5384 4.86261C13.7177 4.98396 13.8562 5.1565 13.9359 5.35773ZM10.8408 4.83922C10.7795 4.89285 10.7154 4.94709 10.6569 5.00623L10.3927 5.2704C9.95415 5.70829 9.41409 6.03096 8.82064 6.20967C8.31746 6.358 7.8583 6.62738 7.48332 6.99424C7.10834 7.3611 6.82897 7.81426 6.66966 8.31407C6.54204 8.09233 6.49139 7.83458 6.52559 7.58103C6.55979 7.32748 6.67693 7.09237 6.85874 6.91236L9.05661 4.71449C9.27665 4.49453 9.57505 4.37097 9.88618 4.37097C10.1973 4.37097 10.4957 4.49453 10.7157 4.71449L10.8408 4.83922ZM5.94061 5.99301L8.13848 3.79514C8.35194 3.58063 8.64043 3.4575 8.943 3.45178C9.24557 3.44606 9.53851 3.5582 9.75992 3.76449C9.33245 3.79603 8.93032 3.97927 8.62605 4.28117L6.42818 6.47904C6.12433 6.782 5.94065 7.18485 5.91119 7.61291C5.70504 7.39143 5.593 7.09852 5.59872 6.796C5.60444 6.49348 5.72747 6.20501 5.94184 5.99148L5.94061 5.99301ZM4.67098 9.31372C4.76536 9.26688 4.84472 9.19454 4.90008 9.1049C4.95543 9.01525 4.98457 8.9119 4.98418 8.80654V8.58283C4.98418 8.52241 5.00816 8.46447 5.05085 8.42172C5.09354 8.37897 5.15145 8.35491 5.21187 8.35483C5.36669 8.35397 5.51821 8.31004 5.64948 8.22796L6.42664 9.00481L6.52471 9.10288C6.52042 9.1703 6.51643 9.23802 6.51643 9.30636C6.51736 9.59797 6.56453 9.88759 6.65618 10.1644L5.7549 9.62354L5.43926 10.1488L7.30861 11.2698C7.64117 11.7266 7.86934 12.2508 7.97698 12.8054C7.95614 12.8149 7.93316 12.8195 7.91293 12.8296C7.7052 12.9324 7.47084 12.9686 7.24178 12.9333C7.01273 12.8981 6.80011 12.793 6.63289 12.6326C6.44326 12.4446 6.18712 12.339 5.92008 12.3387C5.83444 12.3386 5.75233 12.3046 5.69177 12.244C5.63122 12.1834 5.59716 12.1013 5.59708 12.0157C5.59692 11.8576 5.53404 11.706 5.42223 11.5942C5.31043 11.4824 5.15884 11.4195 5.00072 11.4193C4.91508 11.4193 4.83298 11.3852 4.77242 11.3247C4.71186 11.2641 4.67781 11.182 4.67772 11.0963C4.67743 10.8581 4.62205 10.6232 4.51592 10.4099C4.42079 10.2196 4.37127 10.0097 4.37127 9.79699C4.37126 9.69652 4.39931 9.59803 4.45226 9.51265C4.50522 9.42726 4.58097 9.35836 4.67098 9.31372ZM8.90277 15.55C8.84739 15.7144 8.75473 15.8638 8.63203 15.9864C8.50933 16.1091 8.35992 16.2017 8.19548 16.257L8.05421 16.3039C7.97218 16.3316 7.89211 16.3649 7.81456 16.4035C7.51772 16.5514 7.19069 16.6286 6.85905 16.629C6.68117 16.6283 6.50588 16.5864 6.34697 16.5064C6.10263 16.3854 5.8336 16.3225 5.56092 16.3226C5.45733 16.3228 5.35632 16.2903 5.27225 16.2298C5.18819 16.1693 5.12534 16.0838 5.09266 15.9855L4.96824 15.6134C4.94803 15.5523 4.90909 15.4991 4.85694 15.4614C4.8048 15.4237 4.74209 15.4033 4.67772 15.4032C4.51517 15.4032 4.35928 15.3386 4.24434 15.2237C4.1294 15.1088 4.06482 14.9529 4.06482 14.7903V14.5562C4.06546 14.1532 4.15933 13.7557 4.3391 13.395C4.36781 13.3375 4.3777 13.2724 4.36736 13.2089C4.35702 13.1454 4.32698 13.0868 4.28148 13.0414C4.21146 12.9711 4.15621 12.8875 4.119 12.7955C4.08179 12.7035 4.06337 12.6049 4.06482 12.5057C4.06492 12.4059 4.08822 12.3075 4.1329 12.2183C4.17758 12.129 4.2424 12.0514 4.32224 11.9915L4.48282 11.8714C4.63091 11.9703 4.80613 12.0208 4.98418 12.0157C4.98442 12.2638 5.0831 12.5018 5.25857 12.6772C5.43403 12.8527 5.67194 12.9514 5.92008 12.9516C6.02438 12.9519 6.12437 12.9933 6.19834 13.0668C6.33829 13.2045 6.50109 13.3168 6.67947 13.3987L5.55172 13.5679L5.64366 14.174L6.48456 14.0481L6.23297 14.6766L6.80235 14.904L7.18695 13.9427L8.07198 13.81C8.09143 13.9436 8.12555 14.0746 8.17372 14.2007L7.76277 15.2953L8.33706 15.5099L8.58651 14.8442C8.74503 15.0046 8.93116 15.1351 9.13598 15.2295C9.02713 15.3098 8.94569 15.4217 8.90277 15.55ZM17.8551 10.5C17.8532 12.2062 17.1745 13.8419 15.9681 15.0484C14.7616 16.2549 13.1259 16.9335 11.4197 16.9355C11.1758 16.9355 10.942 16.8386 10.7696 16.6662C10.5972 16.4938 10.5003 16.2599 10.5003 16.0161C10.5003 15.7723 10.5972 15.5384 10.7696 15.366C10.942 15.1936 11.1758 15.0968 11.4197 15.0968C11.4442 15.0968 11.4681 15.0934 11.4926 15.0931C11.5935 15.5238 11.8114 15.9182 12.1224 16.2328L12.5557 15.7995C12.3447 15.5877 12.19 15.3265 12.1055 15.0398C12.5453 14.9739 12.973 14.8439 13.3751 14.6539C13.4911 15.0178 13.6919 15.3489 13.9611 15.6199L14.3944 15.1866C14.1654 14.9544 14.0042 14.6642 13.928 14.3472C14.2921 14.1086 14.6207 13.8197 14.904 13.4891C15.0732 13.74 15.2891 13.956 15.5399 14.1253L15.8801 13.6154C15.6331 13.4493 15.4327 13.2228 15.2978 12.9574C15.5413 12.5745 15.7264 12.1575 15.847 11.72C16.1032 12.0597 16.4138 12.3547 16.7663 12.5931L17.1065 12.0831C16.6338 11.7666 16.2525 11.3316 16.0008 10.8215C16.0082 10.7145 16.017 10.6069 16.017 10.4994C16.017 10.2556 16.1139 10.0217 16.2863 9.8493C16.4587 9.67688 16.6926 9.58002 16.9364 9.58002C17.1802 9.58002 17.4141 9.67688 17.5865 9.8493C17.7589 10.0217 17.8558 10.2556 17.8558 10.4994L17.8551 10.5Z" fill="#1C1C1C"/>
<path d="M15.2472 5.77819C15.0812 5.73637 14.9273 5.65584 14.7983 5.54319C14.6693 5.43054 14.5688 5.28897 14.505 5.13004C14.3801 4.81487 14.1631 4.54464 13.8823 4.35458C13.6016 4.16451 13.2701 4.06343 12.9311 4.06451C12.3771 4.06403 11.8324 4.20765 11.3507 4.48128L11.1503 4.28117L10.2309 3.36182C9.89599 3.02688 9.44172 2.83871 8.96805 2.83871C8.49437 2.83871 8.0401 3.02688 7.70516 3.36182L5.50729 5.55969C5.22608 5.84029 5.04673 6.20685 4.99776 6.60108C4.94878 6.99532 5.03299 7.39461 5.237 7.73549C5.22878 7.73821 5.22038 7.74036 5.21187 7.74193C4.98895 7.74217 4.77524 7.83085 4.61764 7.98851C4.46004 8.14617 4.37144 8.35991 4.37127 8.58283V8.77865C4.18575 8.87643 4.03054 9.02314 3.9225 9.20288C3.81445 9.38261 3.75769 9.58851 3.75837 9.79822C3.75866 10.1058 3.83031 10.409 3.96768 10.6842C4.03153 10.8122 4.06479 10.9533 4.06482 11.0963C4.06621 11.1933 4.08286 11.2895 4.11416 11.3813L3.95481 11.5009C3.79776 11.6195 3.67053 11.7731 3.58324 11.9495C3.49594 12.1259 3.45098 12.3202 3.45192 12.5171C3.45107 12.8004 3.53965 13.0767 3.70505 13.3068C3.53852 13.7023 3.45247 14.127 3.45192 14.5562V14.7903C3.45227 15.0758 3.55209 15.3522 3.73419 15.5721C3.91629 15.7919 4.16931 15.9415 4.44972 15.995L4.51102 16.1788C4.58402 16.3995 4.72484 16.5914 4.91337 16.7273C5.1019 16.8631 5.32853 16.936 5.56092 16.9355C5.73879 16.9362 5.91408 16.9781 6.073 17.0581C6.31734 17.1791 6.58636 17.242 6.85905 17.2419C7.28589 17.2415 7.70684 17.1422 8.08884 16.9517C8.14032 16.9259 8.19357 16.9038 8.24819 16.8855L8.38916 16.8386C8.6438 16.753 8.87516 16.6096 9.06512 16.4196C9.25509 16.2297 9.39849 15.9983 9.48411 15.7437C9.4874 15.7338 9.49373 15.7251 9.5022 15.719C9.51068 15.7129 9.52086 15.7097 9.5313 15.7097C9.69336 15.7093 9.84964 15.6494 9.97045 15.5414C9.91748 15.6942 9.88944 15.8545 9.8874 16.0161C9.88789 16.4223 10.0495 16.8118 10.3367 17.0991C10.624 17.3863 11.0134 17.5479 11.4197 17.5484C13.2884 17.5463 15.08 16.8031 16.4014 15.4817C17.7228 14.1603 18.466 12.3687 18.468 10.5C18.4675 10.1428 18.3422 9.7971 18.1137 9.52253C17.8853 9.24796 17.5682 9.06181 17.2171 8.99623C17.2318 8.77528 17.2422 8.55372 17.2422 8.33307C17.2428 7.74557 17.0467 7.17479 16.6851 6.71173C16.3236 6.24868 15.8174 5.92003 15.2472 5.77819ZM13.9359 5.35773C14.036 5.60691 14.1937 5.82882 14.3961 6.00525C14.5986 6.18168 14.8399 6.30761 15.1004 6.3727C15.5376 6.4819 15.9255 6.73423 16.2026 7.0895C16.4797 7.44476 16.6299 7.88254 16.6293 8.33307C16.6293 8.5574 16.6183 8.78264 16.6018 9.00727C16.2622 9.0831 15.9586 9.27222 15.7409 9.54351C15.5231 9.81479 15.4041 10.1521 15.4035 10.5C15.4023 11.5562 14.9822 12.5688 14.2353 13.3157C13.4885 14.0625 12.4759 14.4826 11.4197 14.4839C11.1539 14.4854 10.8933 14.557 10.6639 14.6913C10.4191 14.7566 10.1668 14.7899 9.91345 14.7903C9.58154 14.79 9.26331 14.658 9.02861 14.4233C8.79392 14.1886 8.66192 13.8704 8.6616 13.5385C8.66079 12.4935 8.29446 11.4818 7.6261 10.6787C7.30533 10.2933 7.12958 9.80777 7.12934 9.30636C7.12666 8.74227 7.30729 8.19258 7.64405 7.74003C7.9808 7.28749 8.45546 6.95658 8.99655 6.79714C9.68734 6.58896 10.316 6.21337 10.8267 5.70372L11.0908 5.43956C11.3319 5.19713 11.6187 5.00494 11.9346 4.87412C12.2505 4.74329 12.5892 4.67643 12.9311 4.67741C13.1475 4.67672 13.3592 4.74126 13.5384 4.86261C13.7177 4.98396 13.8562 5.1565 13.9359 5.35773ZM10.8408 4.83922C10.7795 4.89285 10.7154 4.94709 10.6569 5.00623L10.3927 5.2704C9.95415 5.70829 9.41409 6.03096 8.82064 6.20967C8.31746 6.358 7.8583 6.62738 7.48332 6.99424C7.10834 7.3611 6.82897 7.81426 6.66966 8.31407C6.54204 8.09233 6.49139 7.83458 6.52559 7.58103C6.55979 7.32748 6.67693 7.09237 6.85874 6.91236L9.05661 4.71449C9.27665 4.49453 9.57505 4.37097 9.88618 4.37097C10.1973 4.37097 10.4957 4.49453 10.7157 4.71449L10.8408 4.83922ZM5.94061 5.99301L8.13848 3.79514C8.35194 3.58063 8.64043 3.4575 8.943 3.45178C9.24557 3.44606 9.53851 3.5582 9.75992 3.76449C9.33245 3.79603 8.93032 3.97927 8.62605 4.28117L6.42818 6.47904C6.12433 6.782 5.94065 7.18485 5.91119 7.61291C5.70504 7.39143 5.593 7.09852 5.59872 6.796C5.60444 6.49348 5.72747 6.20501 5.94184 5.99148L5.94061 5.99301ZM4.67098 9.31372C4.76536 9.26688 4.84472 9.19454 4.90008 9.1049C4.95543 9.01525 4.98457 8.9119 4.98418 8.80654V8.58283C4.98418 8.52241 5.00816 8.46447 5.05085 8.42172C5.09354 8.37897 5.15145 8.35491 5.21187 8.35483C5.36669 8.35397 5.51821 8.31004 5.64948 8.22796L6.42664 9.00481L6.52471 9.10288C6.52042 9.1703 6.51643 9.23802 6.51643 9.30636C6.51736 9.59797 6.56453 9.88759 6.65618 10.1644L5.7549 9.62354L5.43926 10.1488L7.30861 11.2698C7.64117 11.7266 7.86934 12.2508 7.97698 12.8054C7.95614 12.8149 7.93316 12.8195 7.91293 12.8296C7.7052 12.9324 7.47084 12.9686 7.24178 12.9333C7.01273 12.8981 6.80011 12.793 6.63289 12.6326C6.44326 12.4446 6.18712 12.339 5.92008 12.3387C5.83444 12.3386 5.75233 12.3046 5.69177 12.244C5.63122 12.1834 5.59716 12.1013 5.59708 12.0157C5.59692 11.8576 5.53404 11.706 5.42223 11.5942C5.31043 11.4824 5.15884 11.4195 5.00072 11.4193C4.91508 11.4193 4.83298 11.3852 4.77242 11.3247C4.71186 11.2641 4.67781 11.182 4.67772 11.0963C4.67743 10.8581 4.62205 10.6232 4.51592 10.4099C4.42079 10.2196 4.37127 10.0097 4.37127 9.79699C4.37126 9.69652 4.39931 9.59803 4.45226 9.51265C4.50522 9.42726 4.58097 9.35836 4.67098 9.31372ZM8.90277 15.55C8.84739 15.7144 8.75473 15.8638 8.63203 15.9864C8.50933 16.1091 8.35992 16.2017 8.19548 16.257L8.05421 16.3039C7.97218 16.3316 7.89211 16.3649 7.81456 16.4035C7.51772 16.5514 7.19069 16.6286 6.85905 16.629C6.68117 16.6283 6.50588 16.5864 6.34697 16.5064C6.10263 16.3854 5.8336 16.3225 5.56092 16.3226C5.45733 16.3228 5.35632 16.2903 5.27225 16.2298C5.18819 16.1693 5.12534 16.0838 5.09266 15.9855L4.96824 15.6134C4.94803 15.5523 4.90909 15.4991 4.85694 15.4614C4.8048 15.4237 4.74209 15.4033 4.67772 15.4032C4.51517 15.4032 4.35928 15.3386 4.24434 15.2237C4.1294 15.1088 4.06482 14.9529 4.06482 14.7903V14.5562C4.06546 14.1532 4.15933 13.7557 4.3391 13.395C4.36781 13.3375 4.3777 13.2724 4.36736 13.2089C4.35702 13.1454 4.32698 13.0868 4.28148 13.0414C4.21146 12.9711 4.15621 12.8875 4.119 12.7955C4.08179 12.7035 4.06337 12.6049 4.06482 12.5057C4.06492 12.4059 4.08822 12.3075 4.1329 12.2183C4.17758 12.129 4.2424 12.0514 4.32224 11.9915L4.48282 11.8714C4.63091 11.9703 4.80613 12.0208 4.98418 12.0157C4.98442 12.2638 5.0831 12.5018 5.25857 12.6772C5.43403 12.8527 5.67194 12.9514 5.92008 12.9516C6.02438 12.9519 6.12437 12.9933 6.19834 13.0668C6.33829 13.2045 6.50109 13.3168 6.67947 13.3987L5.55172 13.5679L5.64366 14.174L6.48456 14.0481L6.23297 14.6766L6.80235 14.904L7.18695 13.9427L8.07198 13.81C8.09143 13.9436 8.12555 14.0746 8.17372 14.2007L7.76277 15.2953L8.33706 15.5099L8.58651 14.8442C8.74503 15.0046 8.93116 15.1351 9.13598 15.2295C9.02713 15.3098 8.94569 15.4217 8.90277 15.55ZM17.8551 10.5C17.8532 12.2062 17.1745 13.8419 15.9681 15.0484C14.7616 16.2549 13.1259 16.9335 11.4197 16.9355C11.1758 16.9355 10.942 16.8386 10.7696 16.6662C10.5972 16.4938 10.5003 16.2599 10.5003 16.0161C10.5003 15.7723 10.5972 15.5384 10.7696 15.366C10.942 15.1936 11.1758 15.0968 11.4197 15.0968C11.4442 15.0968 11.4681 15.0934 11.4926 15.0931C11.5935 15.5238 11.8114 15.9182 12.1224 16.2328L12.5557 15.7995C12.3447 15.5877 12.19 15.3265 12.1055 15.0398C12.5453 14.9739 12.973 14.8439 13.3751 14.6539C13.4911 15.0178 13.6919 15.3489 13.9611 15.6199L14.3944 15.1866C14.1654 14.9544 14.0042 14.6642 13.928 14.3472C14.2921 14.1086 14.6207 13.8197 14.904 13.4891C15.0732 13.74 15.2891 13.956 15.5399 14.1253L15.8801 13.6154C15.6331 13.4493 15.4327 13.2228 15.2978 12.9574C15.5413 12.5745 15.7264 12.1575 15.847 11.72C16.1032 12.0597 16.4138 12.3547 16.7663 12.5931L17.1065 12.0831C16.6338 11.7666 16.2525 11.3316 16.0008 10.8215C16.0082 10.7145 16.017 10.6069 16.017 10.4994C16.017 10.2556 16.1139 10.0217 16.2863 9.8493C16.4587 9.67688 16.6926 9.58002 16.9364 9.58002C17.1802 9.58002 17.4141 9.67688 17.5865 9.8493C17.7589 10.0217 17.8558 10.2556 17.8558 10.4994L17.8551 10.5Z" stroke="#1C1C1C" stroke-width="0.4" mask="url(#path-3-outside-1_871_42082)"/>
</svg>
