<svg width="25" height="25" viewBox="0 0 25 25" fill="none" xmlns="http://www.w3.org/2000/svg">
<path fill-rule="evenodd" clip-rule="evenodd" d="M12.4998 6.09277C16.0355 6.09277 18.9067 8.96398 18.9067 12.4998C18.9067 16.0355 16.0355 18.9067 12.4998 18.9067C8.96398 18.9067 6.09277 16.0355 6.09277 12.4998C6.09277 8.96398 8.96398 6.09277 12.4998 6.09277ZM12.4998 7.41835C9.69482 7.41835 7.41835 9.69482 7.41835 12.4998C7.41835 15.3047 9.69482 17.5811 12.4998 17.5811C15.3047 17.5811 17.5811 15.3047 17.5811 12.4998C17.5811 9.69482 15.3047 7.41835 12.4998 7.41835Z" fill="#1C1C1C"/>
<path fill-rule="evenodd" clip-rule="evenodd" d="M22 6.31395V18.686C22 20.5162 20.5162 22 18.686 22H6.31395C4.48377 22 3 20.5162 3 18.686V6.31395C3 4.48377 4.48377 3 6.31395 3H18.686C20.5162 3 22 4.48377 22 6.31395ZM20.6744 6.31395C20.6744 5.21549 19.7845 4.32558 18.686 4.32558H6.31395C5.21549 4.32558 4.32558 5.21549 4.32558 6.31395V18.686C4.32558 19.7845 5.21549 20.6744 6.31395 20.6744H18.686C19.7845 20.6744 20.6744 19.7845 20.6744 18.686V6.31395Z" fill="#1C1C1C"/>
<path d="M14.7089 13.3838C15.197 13.3838 15.5926 12.9881 15.5926 12.5001C15.5926 12.012 15.197 11.6163 14.7089 11.6163C14.2209 11.6163 13.8252 12.012 13.8252 12.5001C13.8252 12.9881 14.2209 13.3838 14.7089 13.3838Z" fill="#1C1C1C"/>
<path d="M10.2909 13.3838C10.779 13.3838 11.1747 12.9881 11.1747 12.5001C11.1747 12.012 10.779 11.6163 10.2909 11.6163C9.80288 11.6163 9.40723 12.012 9.40723 12.5001C9.40723 12.9881 9.80288 13.3838 10.2909 13.3838Z" fill="#1C1C1C"/>
<path fill-rule="evenodd" clip-rule="evenodd" d="M11.8369 6.75556C11.8369 6.3897 12.1338 6.09277 12.4997 6.09277C12.8656 6.09277 13.1625 6.3897 13.1625 6.75556V8.52301C13.1625 8.88887 12.8656 9.1858 12.4997 9.1858C12.1338 9.1858 11.8369 8.88887 11.8369 8.52301V6.75556ZM11.8369 16.4765C11.8369 16.1106 12.1338 15.8137 12.4997 15.8137C12.8656 15.8137 13.1625 16.1106 13.1625 16.4765V18.2439C13.1625 18.6098 12.8656 18.9067 12.4997 18.9067C12.1338 18.9067 11.8369 18.6098 11.8369 18.2439V16.4765Z" fill="#1C1C1C"/>
</svg>
