<svg width="22" height="22" viewBox="0 0 22 22" fill="none" xmlns="http://www.w3.org/2000/svg">
<g id="Museum">
<path id="Vector" d="M21.1538 13.5428H18.6154V11.0056C18.6154 11.0056 18.6154 10.9944 18.6154 10.9831C18.6154 10.9605 18.6041 10.938 18.6041 10.9042C18.5928 10.7914 18.559 10.6786 18.5026 10.5884C18.5026 10.5659 18.5026 10.5546 18.48 10.532L16.3364 7.3183C16.1897 4.79241 14.3056 2.74013 11.8574 2.34546V0.84572C11.8574 0.383393 11.4738 0 11.0113 0C10.5487 0 10.1651 0.383393 10.1651 0.84572V2.34546C7.71692 2.74013 5.82154 4.79241 5.68615 7.3183L3.54256 10.532C3.54256 10.532 3.54256 10.5659 3.52 10.5884C3.46359 10.6899 3.42974 10.7914 3.41846 10.9042C3.41846 10.9267 3.40718 10.9493 3.40718 10.9831C3.40718 10.9831 3.40718 10.9944 3.40718 11.0056V13.5428H0.846154C0.38359 13.5428 0 13.9262 0 14.3885C0 14.8508 0.38359 15.2342 0.846154 15.2342H2.25641V20.3086H1.97436C1.51179 20.3086 1.12821 20.692 1.12821 21.1543C1.12821 21.6166 1.51179 22 1.97436 22H20.0256C20.4882 22 20.8718 21.6166 20.8718 21.1543C20.8718 20.692 20.4882 20.3086 20.0256 20.3086H19.7436V15.2342H21.1538C21.6164 15.2342 22 14.8508 22 14.3885C22 13.9262 21.6164 13.5428 21.1538 13.5428ZM6.93846 8.46848H15.0615L16.1897 10.1599H5.81026L6.93846 8.46848ZM11 3.95797C12.7262 3.95797 14.1815 5.16453 14.5651 6.77704H7.42359C7.80718 5.16453 9.26256 3.95797 10.9887 3.95797H11ZM5.07692 11.8514H16.9231V13.5428H5.07692V11.8514ZM9.58974 20.3086V18.899C9.58974 18.7412 9.71385 18.6171 9.8718 18.6171H12.1282C12.2862 18.6171 12.4103 18.7412 12.4103 18.899V20.3086H9.58974ZM18.0513 20.3086H14.1026V18.899C14.1026 17.8165 13.2113 16.9257 12.1282 16.9257H9.8718C8.78872 16.9257 7.89744 17.8165 7.89744 18.899V20.3086H3.94872V15.2342H18.0513V20.3086Z" fill="#1C1C1C"/>
</g>
</svg>
