<svg width="25" height="25" viewBox="0 0 25 25" fill="none" xmlns="http://www.w3.org/2000/svg">
<g clip-path="url(#clip0_2150_106437)">
<path d="M9.67996 3.46084C9.95618 3.46084 10.2232 3.35035 10.4166 3.15699C10.6099 2.96364 10.7204 2.69663 10.7204 2.4204V1.03009C10.7204 0.753865 10.6099 0.486851 10.4166 0.293496C10.0298 -0.0932147 9.33008 -0.102422 8.94337 0.293496C8.75001 0.486851 8.63953 0.753865 8.63953 1.03009V2.4204C8.63953 2.69663 8.75001 2.96364 8.94337 3.15699C9.13672 3.35035 9.40374 3.46084 9.67996 3.46084Z" fill="#BABABA"/>
<path d="M7.46024 9.15983C8.04951 9.74911 8.84135 10.0806 9.67922 10.0806C10.5171 10.0806 11.2997 9.75831 11.8982 9.15983C12.4967 8.56135 12.8189 7.77872 12.8189 6.94085C12.8189 6.10298 12.4967 5.32035 11.8982 4.72187C10.7197 3.53412 8.64799 3.53412 7.46945 4.72187C6.88017 5.31114 6.54871 6.10298 6.54871 6.94085C6.54871 7.77872 6.87096 8.56135 7.46945 9.15983H7.46024ZM8.62958 6.94085C8.62958 6.66463 8.74007 6.39762 8.93342 6.19505C9.12678 5.99249 9.403 5.89121 9.67922 5.89121C9.95544 5.89121 10.2225 6.0017 10.425 6.19505C10.6276 6.38841 10.7289 6.65542 10.7289 6.94085C10.7289 7.22628 10.6184 7.48409 10.425 7.68665C10.0291 8.08257 9.32934 8.08257 8.94263 7.68665C8.74006 7.4933 8.63878 7.22628 8.63878 6.94085H8.62958Z" fill="#BABABA"/>
<path d="M12.9743 4.649C12.9743 4.649 13.0112 4.649 13.0296 4.649C13.2966 4.649 13.5544 4.53851 13.757 4.32674L14.7422 3.34155C15.0184 3.06533 15.1197 2.70624 15.0276 2.35636C14.9263 1.98807 14.6225 1.68422 14.2542 1.58294C13.9043 1.49087 13.5452 1.59215 13.269 1.86837L12.2838 2.85356C12.0628 3.07454 11.9523 3.35076 11.9707 3.6454C11.9891 3.9032 12.0996 4.1426 12.2838 4.33595C12.4771 4.52931 12.7165 4.6398 12.9743 4.649Z" fill="#BABABA"/>
<path d="M13.1689 6.95059C13.1689 7.46621 13.528 7.99103 14.2094 7.99103H15.5997C16.281 7.99103 16.6401 7.46621 16.6401 6.95059C16.6401 6.43498 16.281 5.91016 15.5997 5.91016H14.2094C13.528 5.91016 13.1689 6.43498 13.1689 6.95059Z" fill="#BABABA"/>
<path d="M5.59087 9.5563L4.60568 10.5415C4.32945 10.8177 4.22817 11.1768 4.32025 11.5267C4.42153 11.895 4.72537 12.1988 5.09367 12.3001C5.17653 12.3185 5.26861 12.3369 5.35148 12.3369C5.61849 12.3369 5.8763 12.2264 6.07886 12.0147L7.06405 11.0295C7.55204 10.5415 7.43235 9.9246 7.06405 9.5563C6.69576 9.188 6.07886 9.07752 5.59087 9.5563Z" fill="#BABABA"/>
<path d="M24.7055 22.5937C24.5122 22.4003 24.2452 22.2898 23.969 22.2898H21.529V13.5704C21.529 13.3863 21.4829 13.2021 21.3817 13.0456C21.2896 12.8891 21.1515 12.751 20.9857 12.6589L14.7063 9.16929C14.4025 8.99435 14.0065 8.99435 13.6935 9.16929L7.41405 12.6589C7.24832 12.751 7.11942 12.8799 7.01814 13.0456C6.92606 13.2021 6.87082 13.3863 6.87082 13.5704V22.2898H1.64102C1.3648 22.2898 1.09778 22.4003 0.904428 22.5937C0.711073 22.787 0.600586 23.054 0.600586 23.3303C0.600586 23.6065 0.711073 23.8735 0.904428 24.0669C1.09778 24.2602 1.3648 24.3707 1.64102 24.3707H23.9597C24.236 24.3707 24.503 24.2602 24.6963 24.0669C24.8897 23.8735 25.0002 23.6065 25.0002 23.3303C25.0002 23.054 24.8897 22.787 24.6963 22.5937H24.7055ZM19.4389 14.1781V22.2806H8.97011V14.1781L14.1999 11.2686L19.4297 14.1781H19.4389Z" fill="#BABABA"/>
<path d="M3.7493 7.99103H5.13962C5.82096 7.99103 6.18005 7.46621 6.18005 6.95059C6.18005 6.43498 5.82096 5.91016 5.13962 5.91016H3.7493C3.06795 5.91016 2.70886 6.43498 2.70886 6.95059C2.70886 7.46621 3.06795 7.99103 3.7493 7.99103Z" fill="#BABABA"/>
<path d="M5.59212 4.33553C5.8223 4.55651 6.0709 4.65779 6.3195 4.65779C6.60493 4.65779 6.87195 4.52889 7.0653 4.33553C7.4336 3.96724 7.55329 3.34113 7.0653 2.86235L6.08011 1.87716C5.80389 1.60094 5.4448 1.49966 5.09492 1.59173C4.72662 1.69301 4.42278 1.99686 4.32149 2.36515C4.22942 2.71503 4.3215 3.07412 4.60692 3.35034L5.59212 4.33553Z" fill="#BABABA"/>
</g>
<defs>
<clipPath id="clip0_2150_106437">
<rect width="25" height="25" fill="white"/>
</clipPath>
</defs>
</svg>
