<svg width="24" height="25" viewBox="0 0 24 25" fill="none" xmlns="http://www.w3.org/2000/svg">
<g clip-path="url(#clip0_2150_106496)">
<g clip-path="url(#clip1_2150_106496)">
<path d="M23.6823 10.0428C23.4776 9.83976 23.2012 9.72806 22.9147 9.72806H21.0008V9.62652C21.0008 9.02741 20.7961 8.44861 20.397 8.00182C20.049 7.6058 19.5782 7.33163 19.0562 7.21994L14.3381 2.81295C14.3688 2.66064 14.3893 2.49817 14.3893 2.3357C14.3893 1.70613 14.1437 1.10702 13.6933 0.670384C12.8029 -0.213044 11.2268 -0.213044 10.3364 0.670384C9.8861 1.11717 9.64047 1.70613 9.64047 2.3357C9.64047 2.49817 9.66094 2.66064 9.69164 2.81295L4.97352 7.21994C4.45156 7.32148 3.98077 7.59565 3.63279 7.99167C3.23365 8.43846 3.00849 9.0071 3.00849 9.60621V9.7179H1.09463C0.80806 9.7179 0.531727 9.8296 0.327036 10.0327C0.122346 10.2358 0.00976562 10.5099 0.00976562 10.7943V23.9238C0.00976562 24.2082 0.122346 24.4823 0.327036 24.6854C0.531727 24.8885 0.80806 25.0002 1.09463 25.0002H22.9147C23.2012 25.0002 23.4776 24.8885 23.6823 24.6854C23.8869 24.4823 23.9995 24.2082 23.9995 23.9238V10.8044C23.9995 10.5201 23.8869 10.2358 23.6823 10.0428ZM5.65923 9.42343C5.7104 9.4742 5.74111 9.54528 5.74111 9.61636V9.72806H5.18844V9.61636C5.18844 9.54528 5.21915 9.4742 5.27032 9.42343C5.3829 9.31173 5.55689 9.32189 5.65923 9.42343ZM12.9462 4.50873L16.6921 8.03228C16.5795 8.15414 16.4771 8.2963 16.3953 8.43846C16.1906 8.80401 16.078 9.22034 16.078 9.63667V9.73821L7.9313 9.7179V9.60621C7.9313 9.18988 7.81872 8.77355 7.61403 8.40799C7.53215 8.26583 7.42981 8.12367 7.31723 8.00182L11.0631 4.49857C11.6567 4.75243 12.3526 4.75243 12.936 4.49857L12.9462 4.50873ZM12.1479 2.4677C12.1479 2.4677 12.0865 2.50832 12.0456 2.51847C12.0046 2.51847 11.9739 2.51847 11.933 2.50832C11.8921 2.49817 11.8716 2.4677 11.8409 2.43724C11.8204 2.40678 11.8102 2.36616 11.8102 2.3357L11.8716 2.20369C11.8716 2.20369 11.9535 2.14276 12.0046 2.14276C12.0456 2.14276 12.0763 2.15292 12.107 2.17323C12.1377 2.19354 12.1684 2.224 12.1786 2.25446C12.1889 2.28492 12.1991 2.32554 12.1889 2.36616C12.1889 2.40678 12.1684 2.43724 12.1377 2.4677H12.1479ZM18.2682 9.72806V9.62652C18.2682 9.55544 18.2989 9.48436 18.3501 9.43358C18.4012 9.38281 18.4729 9.35235 18.5445 9.35235C18.565 9.35235 18.6162 9.35235 18.6571 9.37266C18.698 9.39297 18.7185 9.40312 18.7492 9.43358C18.7799 9.46405 18.8004 9.49451 18.8106 9.52497L19.1688 9.37266L18.8311 9.51482V9.72806H18.2784H18.2682ZM21.8298 11.8909V22.8475H2.18972V11.8909H21.8196H21.8298Z" fill="#BABABA"/>
<path d="M5.24047 19.0694C5.53727 19.2522 5.88525 19.3436 6.24346 19.3334C6.57096 19.3334 6.89847 19.2522 7.18503 19.0999C7.49207 18.9374 7.7377 18.6835 7.89122 18.3789C8.04473 18.0641 8.11638 17.729 8.11638 17.3838C8.11638 17.0385 8.0345 16.7035 7.89122 16.3887C7.7377 16.084 7.5023 15.8302 7.19527 15.6677C6.9087 15.4951 6.5812 15.4037 6.24346 15.4139C5.98759 15.4139 5.74196 15.4545 5.50657 15.5459C5.27117 15.6372 5.06648 15.7896 4.8925 15.9723C4.54452 16.3684 4.3603 16.8964 4.391 17.4244C4.391 17.7493 4.46265 18.0641 4.60593 18.3485C4.73898 18.6531 4.96414 18.9069 5.24047 19.0796V19.0694ZM5.57821 16.6121C5.66009 16.5308 5.77267 16.4699 5.88525 16.4293C5.99783 16.3887 6.12064 16.3785 6.24346 16.3988C6.40721 16.3988 6.56073 16.4394 6.70401 16.5207C6.83706 16.5918 6.9394 16.7035 7.00081 16.8355C7.08269 17.0081 7.12363 17.1909 7.11339 17.3736C7.11339 17.5666 7.06222 17.7493 6.97011 17.922C6.9087 18.054 6.80636 18.1555 6.67331 18.2266C6.53002 18.2977 6.36627 18.3383 6.20252 18.3383C6.03876 18.3383 5.87501 18.2875 5.74196 18.2063C5.61915 18.1251 5.5168 18.0134 5.44516 17.8814C5.37352 17.729 5.33258 17.5564 5.33258 17.3838C5.31211 17.1096 5.39399 16.8253 5.57821 16.6121Z" fill="#BABABA"/>
<path d="M16.5181 19.5164C16.6511 19.5164 16.774 19.4656 16.8763 19.3742C16.9786 19.2828 17.0196 19.1508 17.0196 19.0188V17.384L18.3808 19.1001C18.4422 19.1813 18.5343 19.2422 18.6366 19.2727C18.739 19.3031 18.8413 19.3031 18.9437 19.2727C19.046 19.2422 19.1381 19.1711 19.1995 19.0798C19.261 18.9884 19.2917 18.8868 19.2814 18.7751V15.7593C19.2814 15.6273 19.2302 15.5054 19.1381 15.4039C19.046 15.3125 18.913 15.2617 18.7799 15.2617C18.6469 15.2617 18.5241 15.3125 18.4217 15.4039C18.3296 15.4953 18.2784 15.6273 18.2784 15.7593V17.3738L16.9172 15.6577C16.8558 15.5765 16.7637 15.5156 16.6614 15.4953C16.559 15.4648 16.4567 15.4648 16.3543 15.4953C16.252 15.5257 16.1701 15.5968 16.1087 15.678C16.0473 15.7593 16.0166 15.8608 16.0166 15.9624V19.0391C16.0166 19.1711 16.0678 19.293 16.1599 19.3945C16.252 19.4961 16.385 19.5367 16.5181 19.5367V19.5164Z" fill="#BABABA"/>
<path d="M9.20122 19.5168C9.33427 19.5168 9.45708 19.466 9.55943 19.3747C9.66177 19.2833 9.70271 19.1513 9.70271 19.0193V18.1358H10.3168C10.5419 18.1561 10.7569 18.1257 10.9718 18.0546C11.1867 17.9835 11.3709 17.8617 11.5347 17.7093C11.7701 17.4453 11.9031 17.1102 11.8929 16.7548C11.8929 16.5517 11.852 16.3487 11.7701 16.1659C11.678 15.9831 11.5347 15.8308 11.3607 15.7191C11.197 15.6074 11.0025 15.5363 10.808 15.5059C10.6238 15.4754 10.4498 15.4551 10.2656 15.4551H9.21145C9.0784 15.4551 8.95559 15.5058 8.85324 15.5972C8.7509 15.6886 8.70996 15.8206 8.70996 15.9526V19.0294C8.70996 19.1614 8.76113 19.2833 8.85324 19.3848C8.94535 19.4864 9.0784 19.527 9.21145 19.527L9.20122 19.5168ZM9.70271 16.4604H10.2554C10.3782 16.4502 10.4908 16.4502 10.6136 16.4604C10.6648 16.4604 10.7159 16.4807 10.7671 16.5111C10.7978 16.5314 10.8183 16.5619 10.8285 16.6025C10.849 16.6533 10.8694 16.7142 10.8592 16.765C10.8592 16.8158 10.8592 16.8665 10.849 16.9071C10.8387 16.9579 10.808 16.9985 10.7773 17.0392V17.0595C10.7773 17.0595 10.6955 17.1509 10.3065 17.1509H9.69248V16.4502L9.70271 16.4604Z" fill="#BABABA"/>
<path d="M12.8755 19.2827H15.0145C15.1476 19.2827 15.2704 19.2319 15.3727 19.1405C15.4649 19.0491 15.516 18.9171 15.516 18.7851C15.516 18.6531 15.4649 18.5313 15.3727 18.4297C15.2806 18.3383 15.1476 18.2876 15.0145 18.2876H13.377V17.8611H14.5028C14.6359 17.8611 14.7587 17.8103 14.861 17.7189C14.9531 17.6275 15.0043 17.4955 15.0043 17.3635C15.0043 17.2315 14.9531 17.1096 14.861 17.0081C14.7689 16.9167 14.6359 16.8659 14.5028 16.8659H13.377V16.4395H14.9429C15.0759 16.4395 15.1988 16.3887 15.3011 16.2973C15.3932 16.2059 15.4444 16.0739 15.4444 15.9419C15.4444 15.8099 15.3932 15.688 15.3011 15.5865C15.209 15.485 15.0759 15.4443 14.9429 15.4443H12.8755C12.7425 15.4443 12.6197 15.4951 12.5173 15.5865C12.4252 15.6779 12.374 15.8099 12.374 15.9419V18.7851C12.374 18.9171 12.4252 19.039 12.5173 19.1405C12.6094 19.2319 12.7425 19.2827 12.8755 19.2827Z" fill="#BABABA"/>
</g>
</g>
<defs>
<clipPath id="clip0_2150_106496">
<rect width="24" height="25" fill="white"/>
</clipPath>
<clipPath id="clip1_2150_106496">
<rect width="24" height="25" fill="white"/>
</clipPath>
</defs>
</svg>
