<svg width="26" height="26" viewBox="0 0 26 26" fill="none" xmlns="http://www.w3.org/2000/svg">
<path fill-rule="evenodd" clip-rule="evenodd" d="M11.2692 0.866516C11.2692 0.387952 10.8813 0 10.4027 0C9.92415 0 9.5362 0.387952 9.5362 0.866516V2.65332C9.40986 2.6683 9.28367 2.68658 9.15774 2.70819C7.83797 2.93464 6.61263 3.51506 5.60742 4.37746L4.0833 2.85335C3.74491 2.51495 3.19626 2.51495 2.85786 2.85335C2.51947 3.19174 2.51947 3.74039 2.85786 4.07878L4.43313 5.65405C3.61371 6.78815 3.13369 8.13336 3.05084 9.53168H0.871035C0.392472 9.53168 0.00451929 9.91963 0.00451929 10.3982C0.00451929 10.8768 0.392472 11.2647 0.871035 11.2647H3.15221C3.16259 11.3226 3.17368 11.3804 3.18546 11.4381C3.28127 11.907 3.73904 12.2094 4.20791 12.1136C4.67679 12.0178 4.97922 11.56 4.88341 11.0912C4.84174 10.8872 4.81159 10.6813 4.79306 10.4742C4.79524 10.4492 4.79635 10.4238 4.79635 10.3982C4.79635 10.3334 4.78923 10.2702 4.77573 10.2094C4.77238 10.1286 4.77079 10.0477 4.77097 9.9668L4.77097 9.96522C4.77151 8.63697 5.24144 7.35165 6.09777 6.33629C6.12161 6.30802 6.14571 6.28001 6.17006 6.25227C6.18538 6.23894 6.20035 6.22499 6.21493 6.21041C6.24936 6.17599 6.28029 6.13938 6.30771 6.10104C7.14328 5.21591 8.24555 4.62306 9.45082 4.41626C10.7599 4.19163 12.1063 4.43689 13.2521 5.10871C13.714 5.37953 14.1313 5.71263 14.494 6.09583C14.5223 6.13606 14.5545 6.17443 14.5905 6.21041C14.6067 6.22659 14.6233 6.242 14.6404 6.25663C15.1071 6.78953 15.4727 7.40978 15.7128 8.08777C15.8725 8.5389 16.3677 8.77513 16.8188 8.61542C17.2699 8.4557 17.5061 7.96052 17.3464 7.50939C17.1103 6.84249 16.7813 6.21832 16.373 5.65334L17.9476 4.07878C18.286 3.74039 18.286 3.19174 17.9476 2.85335C17.6092 2.51495 17.0605 2.51495 16.7221 2.85335L15.1986 4.37689C14.8673 4.09277 14.5096 3.83704 14.1287 3.6137C13.2454 3.09583 12.271 2.77178 11.2692 2.65317V0.866516ZM11.8468 8.55263C11.8312 8.55238 11.8156 8.55254 11.8001 8.55312C10.0948 8.6169 8.45439 9.22326 7.11761 10.2839C5.92489 11.2303 5.02943 12.4943 4.53085 13.925C3.29732 14.2194 2.18597 14.9051 1.36772 15.887C0.432835 17.0089 -0.0527175 18.4374 0.00454424 19.8961C0.0134845 23.1693 2.42496 25.9435 5.56755 25.9435H19.2605C23.1053 26.0004 26 22.5779 26 18.5868C26 14.5904 23.1028 11.1694 19.2672 11.1694L19.2658 11.1694C18.7246 11.1703 18.187 11.2422 17.6664 11.3827C17.0333 10.6031 16.2515 9.95384 15.3644 9.47399C14.2828 8.88899 13.0763 8.57296 11.8468 8.55263ZM8.19481 11.6415C9.23644 10.815 10.5133 10.3405 11.8414 10.2859C12.7847 10.3052 13.7099 10.5494 14.5399 10.9983C15.3768 11.451 16.0924 12.0985 16.6262 12.886C16.8533 13.221 17.2818 13.3542 17.6587 13.207C18.1717 13.0067 18.7174 12.9034 19.268 12.9024C21.9656 12.903 24.267 15.3568 24.267 18.5868C24.267 21.82 21.9661 24.2533 19.281 24.2106L19.2672 24.2105H5.56755C3.53423 24.2105 1.73755 22.3678 1.73755 19.8779C1.73755 19.8656 1.73729 19.8534 1.73677 19.8412C1.69292 18.8063 2.03597 17.7922 2.69908 16.9965C3.36218 16.2007 4.29782 15.6804 5.32364 15.5369C5.66669 15.489 5.94821 15.2413 6.0395 14.9071C6.39199 13.6169 7.14706 12.4729 8.19481 11.6415Z" fill="#BABABA"/>
</svg>
