<svg width="23" height="25" viewBox="0 0 23 25" fill="none" xmlns="http://www.w3.org/2000/svg">
<g clip-path="url(#clip0_2150_106556)">
<path d="M13.9092 7.00875C14.4066 7.00875 14.8007 6.61458 14.8007 6.11717V5.39451C14.8007 4.8971 14.4066 4.50293 13.9092 4.50293C13.4118 4.50293 13.0176 4.8971 13.0176 5.39451V6.11717C13.0176 6.61458 13.4118 7.00875 13.9092 7.00875Z" fill="#BABABA"/>
<path d="M9.83557 20.6924H2.67475C2.16795 20.6924 1.77378 20.2982 1.77378 19.782V5.39469C1.77378 4.8879 2.16795 4.48434 2.67475 4.48434H8.39966C8.89707 4.48434 9.29124 4.09017 9.29124 3.59276C9.29124 3.09535 8.89707 2.70117 8.39966 2.70117H2.67475C1.20129 2.70117 0 3.91185 0 5.39469V19.782C0 21.2649 1.20129 22.4756 2.67475 22.4756H9.83557C10.333 22.4756 10.7272 22.0814 10.7272 21.584C10.7272 21.0866 10.333 20.6924 9.83557 20.6924Z" fill="#BABABA"/>
<path d="M18.208 7.00875C18.7054 7.00875 19.0996 6.61458 19.0996 6.11717V5.39451C19.0996 4.8971 18.7054 4.50293 18.208 4.50293C17.7106 4.50293 17.3164 4.8971 17.3164 5.39451V6.11717C17.3164 6.61458 17.7106 7.00875 18.208 7.00875Z" fill="#BABABA"/>
<path d="M21.4082 15.1173H19.0995V12.5928C19.0995 12.0953 18.7053 11.7012 18.2079 11.7012C17.7105 11.7012 17.3163 12.0953 17.3163 12.5928V15.1173H14.8011V12.5928C14.8011 12.0953 14.4069 11.7012 13.9095 11.7012C13.4121 11.7012 13.0179 12.0953 13.0179 12.5928V15.1173H10.6904C10.193 15.1173 9.79883 15.5115 9.79883 16.0089V18.008C9.79883 20.8141 11.6008 22.3157 15.1671 22.4659V24.1083C15.1671 24.6057 15.5613 24.9998 16.0587 24.9998C16.5561 24.9998 16.9503 24.6057 16.9503 24.1083V22.4659C20.4978 22.3063 22.2998 20.8141 22.2998 18.008V16.0089C22.2998 15.5115 21.9056 15.1173 21.4082 15.1173ZM20.5354 16.9005L20.5166 18.008C20.5166 19.6222 19.7564 20.6921 16.0587 20.6921C12.361 20.6921 11.582 19.6128 11.582 18.008V16.9005H20.5354Z" fill="#BABABA"/>
<path d="M9.19719 9.68373C9.07519 9.33648 8.73732 9.09247 8.36192 9.09247H6.14704L8.92502 6.8025C9.10334 6.65234 9.21597 6.43648 9.24412 6.20186C9.26289 5.96723 9.18781 5.74199 9.03765 5.56367C8.72794 5.19765 8.16484 5.15073 7.79882 5.45105L3.14381 9.29894C2.85287 9.52418 2.74025 9.90897 2.86226 10.275C2.98426 10.6222 3.32212 10.8662 3.69753 10.8662H5.91241L3.13442 13.175C2.94672 13.3251 2.84349 13.541 2.81533 13.7756C2.79656 14.0103 2.87164 14.2355 3.0218 14.4138C3.20012 14.6203 3.43475 14.7329 3.69753 14.7329C3.93216 14.7329 4.13863 14.6578 4.26064 14.5264L8.93441 10.6692C9.21596 10.4158 9.3192 10.0497 9.19719 9.69311V9.68373Z" fill="#BABABA"/>
<path d="M4.07312 17.248C4.07312 18.4117 5.0304 19.369 6.21292 19.369C7.39544 19.369 8.35272 18.4211 8.35272 17.248C8.35272 16.0748 7.39544 15.127 6.21292 15.127C5.0304 15.127 4.07312 16.0748 4.07312 17.248ZM6.57894 17.248C6.57894 17.4451 6.41939 17.6046 6.21292 17.6046C6.00645 17.6046 5.8469 17.4451 5.8469 17.248C5.8469 17.0509 6.00645 16.8913 6.21292 16.8913C6.41939 16.8913 6.57894 17.0509 6.57894 17.248Z" fill="#BABABA"/>
<path d="M12.3696 10.3595H19.6805C19.9152 10.3595 20.131 10.275 20.2718 10.1248C21.5482 8.9611 22.2896 7.30932 22.2896 5.59185C22.2896 3.87437 21.5576 2.2226 20.2718 1.05885H20.2624C20.0841 0.908685 19.8776 0.824219 19.6805 0.824219H12.3696C12.1349 0.824219 11.9285 0.908685 11.7783 1.05885C10.5019 2.2226 9.7605 3.87437 9.7605 5.59185C9.7605 7.30932 10.4925 8.96109 11.7877 10.1342C11.9566 10.275 12.1631 10.3595 12.3696 10.3595ZM11.5343 5.59185C11.5343 4.47502 11.966 3.38635 12.7262 2.58862H19.2958C20.0559 3.38635 20.4877 4.47502 20.4877 5.59185C20.4877 6.70867 20.0559 7.80673 19.3145 8.59508H12.7262C11.966 7.79734 11.5343 6.70867 11.5343 5.59185Z" fill="#BABABA"/>
</g>
<defs>
<clipPath id="clip0_2150_106556">
<rect width="23" height="25" fill="white"/>
</clipPath>
</defs>
</svg>
