<svg width="14" height="13" viewBox="0 0 14 13" fill="none" xmlns="http://www.w3.org/2000/svg">
<path id="Vector" d="M13.8673 0.2448C13.6572 0.0272 13.3769 -0.0453333 13.1667 0.0272L0.555169 2.92853C-0.00534308 3.0736 -0.215535 3.87147 0.274913 4.23413L4.1985 7.13547V12.2853C4.1985 12.9381 4.96921 13.2283 5.38959 12.7931L8.05202 10.0368L8.96286 10.7621C9.31318 11.0523 9.87369 10.9072 10.0138 10.472L13.8673 1.04267C14.0775 0.752533 14.0075 0.4624 13.8673 0.2448ZM10.1539 2.13067L5.03927 5.97493L2.37684 3.944L10.1539 2.13067ZM6.931 9.1664L5.59978 10.5445V8.15093C6.02017 8.44107 6.58068 8.87627 6.931 9.1664ZM9.10299 9.02133C6.51062 7.06293 6.931 7.4256 6.23036 6.84533L11.6253 2.78347L9.10299 9.02133Z" fill="#E0EBA5"/>
</svg>
