<svg width="25" height="25" viewBox="0 0 25 25" fill="none" xmlns="http://www.w3.org/2000/svg">
<path d="M21.0956 7.68171L17.2956 3.88778C16.7222 3.3229 15.9503 3.00429 15.1448 3H9.82478C9.01918 3.01141 8.25107 3.34164 7.68919 3.91813L3.8892 7.71206C3.60698 7.99414 3.3832 8.32897 3.23063 8.69742C3.07805 9.06587 2.99969 9.46073 3 9.85942V15.1709C2.99969 15.5696 3.07805 15.9645 3.23063 16.3329C3.3832 16.7014 3.60698 17.0362 3.8892 17.3183L7.68919 21.1122C8.26257 21.6771 9.03447 21.9957 9.83998 22H15.16C15.9655 21.9957 16.7374 21.6771 17.3108 21.1122L21.1108 17.3183C21.393 17.0362 21.6168 16.7014 21.7693 16.3329C21.9219 15.9645 22.0003 15.5696 21.9999 15.1709V9.85942C22.0023 9.45456 21.9235 9.05331 21.7682 8.67932C21.6129 8.30532 21.3842 7.96613 21.0956 7.68171ZM20.4648 15.1558C20.4669 15.3586 20.4284 15.5597 20.3514 15.7474C20.2743 15.9351 20.1604 16.1054 20.0164 16.2484L16.2164 20.0423C15.9326 20.3273 15.5472 20.4883 15.1448 20.49H9.82478C9.42231 20.4883 9.03693 20.3273 8.75318 20.0423L4.9532 16.2484C4.66775 15.9651 4.50649 15.5803 4.5048 15.1785V9.86701C4.50649 9.46518 4.66775 9.08042 4.9532 8.79712L8.75318 5.00319C9.03693 4.7182 9.42231 4.55721 9.82478 4.55551H15.1448C15.3524 4.54821 15.5594 4.5835 15.7528 4.6592C15.9463 4.73489 16.1222 4.84939 16.2696 4.99561L20.0696 8.78954C20.355 9.07283 20.5163 9.45759 20.518 9.85942L20.4648 15.1558ZM13.6932 8.91094H11.1016C10.9 8.91094 10.7067 8.99089 10.5642 9.13319C10.4217 9.27549 10.3416 9.46849 10.3416 9.66973V16.3395C10.3416 16.5407 10.4217 16.7337 10.5642 16.876C10.7067 17.0183 10.9 17.0982 11.1016 17.0982C11.3031 17.0982 11.4965 17.0183 11.639 16.876C11.7815 16.7337 11.8616 16.5407 11.8616 16.3395V13.7672H13.6932C14.0104 13.7688 14.3247 13.7065 14.6173 13.584C14.9098 13.4614 15.1745 13.2811 15.3956 13.0539C15.6262 12.8304 15.8091 12.5625 15.9332 12.2665C16.0573 11.9705 16.12 11.6524 16.1176 11.3315C16.1176 10.6895 15.8621 10.0738 15.4075 9.6199C14.9528 9.16596 14.3362 8.91094 13.6932 8.91094ZM14.324 11.984C14.1572 12.1523 13.9303 12.2478 13.6932 12.2496H11.8616V10.4285H13.6932C13.8119 10.4285 13.9295 10.4519 14.0393 10.4972C14.149 10.5426 14.2487 10.6091 14.3327 10.693C14.4167 10.7768 14.4833 10.8764 14.5287 10.9859C14.5742 11.0955 14.5976 11.2129 14.5976 11.3315C14.5965 11.5766 14.4981 11.8112 14.324 11.984Z" fill="#1C1C1C"/>
</svg>
