<svg width="27" height="25" viewBox="0 0 27 25" fill="none" xmlns="http://www.w3.org/2000/svg">
<g clip-path="url(#clip0_2150_106527)">
<path d="M13.4212 18.5395C13.7536 18.5373 14.0716 18.4037 14.3059 18.1679C14.5401 17.9321 14.6716 17.6132 14.6716 17.2808V16.097C15.5906 15.8723 16.41 15.3513 17.0036 14.6147C17.5972 13.878 17.9319 12.9664 17.956 12.0207C17.956 9.38646 15.9637 8.12771 14.5049 7.21073C13.2544 6.4188 12.6709 5.98533 12.6709 5.36845C12.6701 5.3053 12.6831 5.24273 12.7091 5.18514C12.735 5.12754 12.7732 5.0763 12.821 5.03501C13.0109 4.87406 13.2561 4.79334 13.5045 4.80993C13.9547 4.80993 14.2214 5.01834 14.7549 5.64354C14.862 5.76903 14.9929 5.87194 15.1401 5.94629C15.2873 6.02063 15.4479 6.06492 15.6124 6.07656C15.7769 6.0882 15.942 6.06696 16.0983 6.01408C16.2545 5.96121 16.3986 5.87775 16.5222 5.76859C16.7759 5.55198 16.934 5.24404 16.9621 4.91162C16.9902 4.5792 16.886 4.24911 16.6723 3.993C16.1542 3.32018 15.4625 2.8014 14.6716 2.4925V1.25042C14.6716 0.918785 14.5398 0.600737 14.3053 0.366238C14.0709 0.13174 13.7528 0 13.4212 0C13.0895 0 12.7715 0.13174 12.537 0.366238C12.3025 0.600737 12.1708 0.918785 12.1708 1.25042V2.54251C11.7802 2.69101 11.4211 2.91158 11.1121 3.19273C10.814 3.47117 10.5764 3.80809 10.4144 4.18244C10.2523 4.55678 10.1691 4.96053 10.1701 5.36845C10.1701 7.44414 11.8373 8.49449 13.1711 9.33644C14.5049 10.1784 15.4552 10.8369 15.4552 12.0207C15.4171 12.4805 15.2056 12.9087 14.8635 13.2183C14.5214 13.5279 14.0743 13.6958 13.6129 13.6879C13.0915 13.6669 12.5865 13.4993 12.156 13.2044C11.7255 12.9095 11.3868 12.4993 11.1788 12.0207C11.11 11.8708 11.0118 11.7362 10.8901 11.6248C10.7684 11.5135 10.6256 11.4277 10.4702 11.3726C10.3147 11.3174 10.1498 11.2939 9.98516 11.3036C9.8205 11.3132 9.65945 11.3558 9.51154 11.4288C9.21341 11.573 8.9841 11.8288 8.87331 12.1409C8.76252 12.453 8.77918 12.7961 8.91967 13.096C9.2355 13.7708 9.68729 14.373 10.2467 14.8651C10.8062 15.3571 11.4612 15.7282 12.1708 15.9553V17.2224C12.1617 17.3921 12.1873 17.5619 12.2461 17.7214C12.3049 17.8809 12.3955 18.0267 12.5126 18.15C12.6296 18.2733 12.7705 18.3714 12.9267 18.4384C13.083 18.5053 13.2512 18.5397 13.4212 18.5395Z" fill="#BABABA"/>
<path d="M3.50083 16.6055C2.83757 16.6055 2.20147 16.8689 1.73248 17.3379C1.26348 17.8069 1 18.443 1 19.1063V22.4407C1 23.104 1.26348 23.7401 1.73248 24.2091C2.20147 24.6781 2.83757 24.9416 3.50083 24.9416C4.16409 24.9416 4.80019 24.6781 5.26919 24.2091C5.73819 23.7401 6.00166 23.104 6.00166 22.4407V19.1647C6.00944 18.8314 5.95051 18.4999 5.82831 18.1897C5.70612 17.8795 5.52315 17.5969 5.29014 17.3585C5.05714 17.12 4.77881 16.9306 4.47153 16.8013C4.16425 16.6719 3.83421 16.6054 3.50083 16.6055ZM4.33444 22.4991C4.33444 22.7202 4.24662 22.9322 4.09028 23.0885C3.93395 23.2449 3.72192 23.3327 3.50083 23.3327C3.27975 23.3327 3.06771 23.2449 2.91138 23.0885C2.75505 22.9322 2.66722 22.7202 2.66722 22.4991V19.1647C2.66722 18.9436 2.75505 18.7315 2.91138 18.5752C3.06771 18.4189 3.27975 18.331 3.50083 18.331C3.72192 18.331 3.93395 18.4189 4.09028 18.5752C4.24662 18.7315 4.33444 18.9436 4.33444 19.1647V22.4991Z" fill="#BABABA"/>
<path d="M23.5074 16.6055C22.8442 16.6055 22.2081 16.8689 21.7391 17.3379C21.2701 17.8069 21.0066 18.443 21.0066 19.1063V19.5231H8.89425C8.59766 19.5717 8.32801 19.7241 8.13343 19.9532C7.93886 20.1822 7.83203 20.473 7.83203 20.7735C7.83203 21.0741 7.93886 21.3648 8.13343 21.5939C8.32801 21.8229 8.59766 21.9753 8.89425 22.0239H21.0066V22.4991C21.0066 23.1624 21.2701 23.7985 21.7391 24.2675C22.2081 24.7365 22.8442 24.9999 23.5074 24.9999C24.1707 24.9999 24.8068 24.7365 25.2758 24.2675C25.7448 23.7985 26.0083 23.1624 26.0083 22.4991V19.1647C26.0161 18.8314 25.9571 18.4999 25.8349 18.1897C25.7127 17.8795 25.5298 17.5969 25.2968 17.3585C25.0638 17.12 24.7854 16.9306 24.4781 16.8013C24.1709 16.6719 23.8408 16.6054 23.5074 16.6055ZM24.3411 22.4991C24.3411 22.7202 24.2532 22.9322 24.0969 23.0885C23.9406 23.2449 23.7285 23.3327 23.5074 23.3327C23.2864 23.3327 23.0743 23.2449 22.918 23.0885C22.7617 22.9322 22.6738 22.7202 22.6738 22.4991V19.1647C22.6738 18.9436 22.7617 18.7315 22.918 18.5752C23.0743 18.4189 23.2864 18.331 23.5074 18.331C23.7285 18.331 23.9406 18.4189 24.0969 18.5752C24.2532 18.7315 24.3411 18.9436 24.3411 19.1647V22.4991Z" fill="#BABABA"/>
</g>
<defs>
<clipPath id="clip0_2150_106527">
<rect width="27" height="25" fill="white"/>
</clipPath>
</defs>
</svg>
