<svg width="22" height="25" viewBox="0 0 22 25" fill="none" xmlns="http://www.w3.org/2000/svg">
<g clip-path="url(#clip0_2150_106427)">
<path d="M20.74 13.92C19.81 13.16 18.43 13.23 17.62 14.07L17 14.52L16.49 12.62L16.43 12.47C15.89 11.39 14.62 10.89 13.47 11.31L11.8 11.94V11.24C12.07 11.21 12.3 11.17 12.46 11.13C15.11 10.43 17.49 8.61 18.13 6.8L18.41 6.02L13.36 3.41C12.87 3.16 12.29 3.02 11.68 2.99V2.35C11.68 1.72 11.43 1.13 10.98 0.68C10.54 0.25 9.96 0.01 9.31 0C8.04 0 6.98 1.02 6.95 2.25L6.89 2.98C6.22 2.99 5.59 3.14 5.04 3.42L0 6.09L0.290001 6.88C0.960001 8.66 3.33 10.46 5.93 11.14C6.02 11.16 6.13 11.19 6.26 11.21L5.86 16.56L4.09 24.5L4.04 24.74L4.61 24.87C4.9 24.94 4.96 24.95 4.96 24.95C4.98 24.95 5.38 25.05 5.54 25.09L5.81 25.36L7.3 18.68C7.58 18.26 7.81 18.21 8.13 18.13C8.22 18.11 8.31 18.09 8.34 18.07C8.77 18.04 11.23 18.59 13.7 19.26C13.76 19.28 13.83 19.3 13.89 19.31C14.15 19.35 14.33 19.54 14.32 19.73C14.03 21.52 13.65 23.12 13.49 23.36C13.35 23.58 13.17 23.65 12.95 23.57C12.82 23.53 12.76 23.46 12.76 23.49C12.82 22.37 12.98 21.38 13.01 21.19C13.05 20.93 12.99 20.66 12.83 20.45C12.67 20.24 12.43 20.11 12.17 20.08L9.78 19.86L9.73 20.07C9.73 20.07 9.73 20.09 9.66 20.8L9.6 21.51V21.74L11.04 21.87C10.98 22.39 10.94 22.89 10.91 23.37C10.86 24.23 11.46 25.04 12.37 25.35C12.62 25.43 12.87 25.48 13.12 25.48C13.9 25.48 14.6 25.08 15.06 24.38C15.08 24.35 15.09 24.32 15.1 24.31L17.59 21.1L21.02 17.14C21.43 16.68 21.63 16.09 21.59 15.48C21.54 14.86 21.26 14.3 20.77 13.91L20.74 13.92ZM19.7 15.63C19.7 15.72 19.68 15.81 19.6 15.88L17.73 18.03C17.73 17.98 17.73 17.93 17.72 17.88C17.69 17.26 17.78 16.5 17.82 16.22L18.76 15.54L18.89 15.42C19.05 15.24 19.37 15.22 19.56 15.38C19.64 15.44 19.69 15.53 19.69 15.62L19.7 15.63ZM9.95 12.63L7.97 13.38L8.81 2.37V2.31C8.81 2.08 9.05 1.89 9.32 1.89C9.46 1.89 9.59 1.94 9.69 2.04C9.77 2.12 9.82 2.22 9.81 2.35L9.95 12.65V12.63ZM12.95 6.04C12.54 5.98 12.14 5.91 11.78 5.91C11.76 5.91 11.74 5.91 11.72 5.91V4.86C12.02 4.89 12.3 4.96 12.53 5.08L14.66 6.18C14.07 6.22 13.51 6.13 12.96 6.04H12.95ZM12.67 7.91C13.25 8 13.91 8.1 14.63 8.07C13.85 8.61 12.91 9.04 11.99 9.28C11.93 9.3 11.85 9.31 11.76 9.33L11.74 7.81C11.99 7.8 12.3 7.86 12.67 7.91ZM14.04 13.09H14.09C14.33 12.99 14.6 13.06 14.73 13.25L15.08 14.55C13.09 14.5 11.53 14.47 10.42 14.46L14.04 13.09ZM14.21 17.69L14.25 17.44C12.1 16.85 10.69 16.52 9.74 16.35C10.98 16.35 13.1 16.39 14.99 16.44H15.05C15.29 16.46 15.49 16.6 15.54 16.8L15.36 18C15.05 17.72 14.67 17.53 14.25 17.45L14.2 17.69H14.21ZM5.46 6.04C4.92 6.12 4.38 6.21 3.8 6.18L5.87 5.08C6.11 4.96 6.4 4.89 6.73 4.86L6.65 5.91C6.29 5.91 5.88 5.97 5.45 6.04H5.46ZM6.51 7.81L6.4 9.29C5.49 9.05 4.55 8.61 3.76 8.08C4.49 8.11 5.16 8.01 5.74 7.92C6.03 7.88 6.3 7.83 6.51 7.82V7.81Z" fill="#BABABA"/>
</g>
<defs>
<clipPath id="clip0_2150_106427">
<rect width="22" height="25" fill="white"/>
</clipPath>
</defs>
</svg>
