<svg width="16" height="22" viewBox="0 0 16 22" fill="none" xmlns="http://www.w3.org/2000/svg">
<g id="Restaurants">
<path id="Restaurants_2" d="M2.60322 0.920858C2.0994 0.537345 1.54251 0.239719 0.952574 0.0386915C0.843457 0.000828688 0.727467 -0.0090096 0.614092 0.00998121C0.500717 0.028972 0.393176 0.0762526 0.300265 0.147956C0.207354 0.219659 0.131711 0.313749 0.0795229 0.42253C0.0273351 0.53131 8.45252e-05 0.651693 0 0.77383V19.3458C0 19.9615 0.229832 20.5519 0.638937 20.9873C1.04804 21.4227 1.60291 21.6673 2.18147 21.6673C2.76003 21.6673 3.31489 21.4227 3.724 20.9873C4.1331 20.5519 4.36293 19.9615 4.36293 19.3458V13.4724L5.17007 12.6212C5.58006 12.1673 5.81157 11.5638 5.81724 10.9342C5.81724 10.3693 5.81724 9.79669 5.81724 9.2318C5.68636 7.22758 5.41731 3.09532 2.60322 0.920858ZM4.13751 11.5223L3.1195 12.6057C3.0521 12.678 2.99878 12.7638 2.9626 12.858C2.92641 12.9523 2.90807 13.0533 2.90862 13.1551V19.3458C2.90862 19.551 2.83201 19.7478 2.69564 19.8929C2.55927 20.0381 2.37432 20.1196 2.18147 20.1196C1.98861 20.1196 1.80366 20.0381 1.66729 19.8929C1.53092 19.7478 1.45431 19.551 1.45431 19.3458V1.96553L1.75972 2.17446C4.0139 3.89237 4.25386 7.59128 4.36293 9.34013C4.38819 9.85567 4.38819 10.3723 4.36293 10.8878C4.36947 11.1227 4.28843 11.3508 4.13751 11.5223ZM15.9974 5.63349C15.9974 2.53043 14.0414 0 11.6345 0C9.2276 0 7.27155 2.53043 7.27155 5.63349C7.24995 6.5713 7.43618 7.50134 7.81517 8.3483C8.19416 9.19527 8.75526 9.93535 9.45302 10.5086V19.6785C9.45302 20.2942 9.68285 20.8847 10.092 21.3201C10.5011 21.7554 11.0559 22 11.6345 22C12.213 22 12.7679 21.7554 13.177 21.3201C13.5861 20.8847 13.816 20.2942 13.816 19.6785V10.5086C14.5177 9.93919 15.0817 9.19985 15.4611 8.35198C15.8404 7.5041 16.0243 6.57215 15.9974 5.63349ZM12.8634 9.3324C12.7188 9.38257 12.5926 9.47973 12.5026 9.61022C12.4126 9.7407 12.3633 9.89794 12.3616 10.0598V19.6785C12.3616 19.8837 12.285 20.0806 12.1487 20.2257C12.0123 20.3708 11.8273 20.4523 11.6345 20.4523C11.4416 20.4523 11.2567 20.3708 11.1203 20.2257C10.9839 20.0806 10.9073 19.8837 10.9073 19.6785V10.0598C10.9062 9.89889 10.858 9.74236 10.7694 9.61199C10.6807 9.48161 10.5561 9.38388 10.4129 9.3324C9.86537 8.9132 9.42451 8.3556 9.13001 7.70987C8.8355 7.06415 8.69662 6.35058 8.72587 5.63349C8.72587 3.38164 10.0275 1.54766 11.6345 1.54766C13.2415 1.54766 14.5431 3.38164 14.5431 5.63349C14.5712 6.34959 14.4326 7.06199 14.1395 7.70732C13.8465 8.35264 13.4081 8.91089 12.8634 9.3324Z" fill="#1C1C1C"/>
</g>
</svg>
