<svg width="64" height="64" viewBox="0 0 64 64" fill="none" xmlns="http://www.w3.org/2000/svg">
<g filter="url(#filter0_d_72_37206)">
<circle cx="32" cy="28" r="21" fill="#FFF0C6" stroke="white" stroke-width="2"/>
<path d="M26.6032 18.7946C26.0994 18.4111 25.5425 18.1135 24.9526 17.9125C24.8435 17.8746 24.7275 17.8648 24.6141 17.8838C24.5007 17.9028 24.3932 17.95 24.3003 18.0217C24.2074 18.0934 24.1317 18.1875 24.0795 18.2963C24.0273 18.4051 24.0001 18.5255 24 18.6476V37.2195C24 37.8352 24.2298 38.4257 24.6389 38.8611C25.048 39.2964 25.6029 39.541 26.1815 39.541C26.76 39.541 27.3149 39.2964 27.724 38.8611C28.1331 38.4257 28.3629 37.8352 28.3629 37.2195V31.3462L29.1701 30.495C29.5801 30.041 29.8116 29.4376 29.8172 28.808C29.8172 28.2431 29.8172 27.6705 29.8172 27.1056C29.6864 25.1014 29.4173 20.9691 26.6032 18.7946ZM28.1375 29.3961L27.1195 30.4795C27.0521 30.5518 26.9988 30.6375 26.9626 30.7318C26.9264 30.8261 26.9081 30.9271 26.9086 31.0289V37.2195C26.9086 37.4248 26.832 37.6216 26.6956 37.7667C26.5593 37.9118 26.3743 37.9934 26.1815 37.9934C25.9886 37.9934 25.8037 37.9118 25.6673 37.7667C25.5309 37.6216 25.4543 37.4248 25.4543 37.2195V19.8393L25.7597 20.0482C28.0139 21.7661 28.2539 25.4651 28.3629 27.2139C28.3882 27.7294 28.3882 28.246 28.3629 28.7616C28.3695 28.9965 28.2884 29.2246 28.1375 29.3961ZM39.9974 23.5073C39.9974 20.4042 38.0414 17.8738 35.6345 17.8738C33.2276 17.8738 31.2716 20.4042 31.2716 23.5073C31.25 24.4451 31.4362 25.3751 31.8152 26.2221C32.1942 27.069 32.7553 27.8091 33.453 28.3824V37.5523C33.453 38.168 33.6829 38.7585 34.092 39.1938C34.5011 39.6292 35.0559 39.8738 35.6345 39.8738C36.213 39.8738 36.7679 39.6292 37.177 39.1938C37.5861 38.7585 37.816 38.168 37.816 37.5523V28.3824C38.5177 27.813 39.0817 27.0736 39.4611 26.2258C39.8404 25.3779 40.0243 24.4459 39.9974 23.5073ZM36.8634 27.2062C36.7188 27.2563 36.5926 27.3535 36.5026 27.484C36.4126 27.6145 36.3633 27.7717 36.3616 27.9336V37.5523C36.3616 37.7575 36.285 37.9543 36.1487 38.0995C36.0123 38.2446 35.8273 38.3261 35.6345 38.3261C35.4416 38.3261 35.2567 38.2446 35.1203 38.0995C34.9839 37.9543 34.9073 37.7575 34.9073 37.5523V27.9336C34.9062 27.7727 34.858 27.6161 34.7694 27.4858C34.6807 27.3554 34.5561 27.2577 34.4129 27.2062C33.8654 26.787 33.4245 26.2294 33.13 25.5837C32.8355 24.9379 32.6966 24.2244 32.7259 23.5073C32.7259 21.2554 34.0275 19.4214 35.6345 19.4214C37.2415 19.4214 38.5431 21.2554 38.5431 23.5073C38.5712 24.2234 38.4326 24.9358 38.1395 25.5811C37.8465 26.2264 37.4081 26.7847 36.8634 27.2062Z" fill="#FFBA00"/>
</g>
<defs>
<filter id="filter0_d_72_37206" x="0" y="0" width="64" height="64" filterUnits="userSpaceOnUse" color-interpolation-filters="sRGB">
<feFlood flood-opacity="0" result="BackgroundImageFix"/>
<feColorMatrix in="SourceAlpha" type="matrix" values="0 0 0 0 0 0 0 0 0 0 0 0 0 0 0 0 0 0 127 0" result="hardAlpha"/>
<feOffset dy="4"/>
<feGaussianBlur stdDeviation="5"/>
<feComposite in2="hardAlpha" operator="out"/>
<feColorMatrix type="matrix" values="0 0 0 0 0 0 0 0 0 0 0 0 0 0 0 0 0 0 0.1 0"/>
<feBlend mode="normal" in2="BackgroundImageFix" result="effect1_dropShadow_72_37206"/>
<feBlend mode="normal" in="SourceGraphic" in2="effect1_dropShadow_72_37206" result="shape"/>
</filter>
</defs>
</svg>
