<svg width="25" height="25" viewBox="0 0 25 25" fill="none" xmlns="http://www.w3.org/2000/svg">
<path d="M12.9027 14.6405C13.3042 14.6741 13.3817 14.8334 13.5921 15.0855C14.5369 16.2138 15.0801 17.6958 15.0166 19.1632C14.9672 20.3061 13.7294 21.0983 12.544 21.4775C10.1111 22.2558 7.22435 22.2573 5.10521 20.8447C4.44386 20.4048 3.96113 19.7215 4.00247 18.7978C4.06594 17.4057 4.58484 16.0348 5.51265 14.9781C5.87655 14.5645 6.77114 14.6076 6.85824 15.2952C6.89736 15.5978 6.70988 15.8024 6.4353 16.1605C5.81381 16.9716 5.48387 17.9918 5.46615 19.0046C5.46025 19.3817 5.84185 19.6134 6.19984 19.799C7.49671 20.4713 9.06226 20.5648 10.5636 20.404C11.5733 20.2959 12.6805 20.1256 13.3758 19.4044C13.5722 19.2005 13.5522 18.8913 13.5264 18.6188C13.4334 17.6183 13.0289 16.6457 12.3587 15.8952L12.2886 15.8155C12.1874 15.6789 12.1749 15.6299 12.152 15.5378C12.0583 15.152 12.3425 14.7157 12.7455 14.6492C12.8451 14.6331 12.8702 14.6397 12.9027 14.6405ZM19.8831 10.2756C20.1466 10.296 20.354 10.4619 20.5503 10.6936C21.5069 11.8233 22.0391 13.3375 21.9978 14.7742C21.9963 14.8217 21.9926 14.8692 21.9874 14.9167C21.8656 15.9705 20.7622 16.683 19.7022 17.0527C18.6984 17.4035 17.6237 17.5431 16.5534 17.5489C16.0559 17.5518 15.6285 17.0527 15.7939 16.5828C15.9076 16.2577 16.2604 16.0983 16.6309 16.0932C17.8318 16.075 19.0911 15.9251 20.0691 15.2733C20.3171 15.1081 20.5319 14.894 20.5282 14.6368C20.5045 13.5005 20.0956 12.3773 19.3391 11.531L19.2756 11.4594C19.0704 11.1934 19.1066 11.1021 19.1132 10.9669C19.1316 10.5891 19.4786 10.2675 19.8831 10.2756ZM9.53096 7.3649C11.2168 7.38097 12.8082 8.67298 13.1197 10.3369C13.5434 12.6031 11.3822 15.046 8.83492 14.5783C7.34466 14.305 6.09281 13.024 5.87212 11.5325C5.57466 9.52286 7.23025 7.41386 9.43648 7.36563C9.46748 7.3649 9.49922 7.3649 9.53096 7.3649ZM9.49258 8.81986C8.25254 8.83155 7.15275 10.0402 7.32252 11.2943C7.46128 12.3217 8.43412 13.1782 9.49258 13.1848C10.7791 13.1928 11.9247 11.8942 11.6722 10.5883C11.4848 9.62079 10.5828 8.84252 9.55015 8.81986C9.53096 8.81986 9.51177 8.81986 9.49258 8.81986ZM16.5113 3C18.2171 3.01608 19.8033 4.32781 20.1038 5.9947C20.5141 8.26301 18.3345 10.6921 15.7931 10.2098C14.3058 9.92698 13.0606 8.63863 12.8495 7.14493C12.5631 5.12143 14.2527 3.02119 16.4641 3C16.4796 3 16.4951 3 16.5113 3ZM16.473 4.45497C15.2337 4.46666 14.1331 5.67243 14.3029 6.92936C14.4417 7.95682 15.4145 8.81328 16.473 8.81986C17.5211 8.82644 18.5138 7.99921 18.6681 6.95639C18.8467 5.74989 17.8569 4.4842 16.5305 4.45497C16.5113 4.45497 16.4921 4.45497 16.473 4.45497Z" fill="#1C1C1C"/>
</svg>
