<svg width="19" height="22" viewBox="0 0 19 22" fill="none" xmlns="http://www.w3.org/2000/svg">
<path d="M17.0979 3.77909H16.9979H16.1026H16.0026V3.67909V2.27037L14.8002 2.89594L14.7463 2.92402L14.6965 2.88899L13.4533 2.01368L12.2023 2.91184L12.1445 2.9533L12.0864 2.91239L10.8095 2.01368L9.55846 2.91184L9.50071 2.9533L9.44258 2.91239L8.1657 2.01368L6.91465 2.91184L6.85691 2.9533L6.79878 2.91239L5.52192 2.01369L4.30455 2.88844L4.25426 2.92457L4.1995 2.89566L2.9808 2.25222L2.99762 3.67791L2.99881 3.77909H2.89762H2.00237H1.90237V3.67909V2.10613V2.10562H2.00237C2.00072 1.94749 2.04033 1.79167 2.1173 1.65353C2.19427 1.51539 2.30593 1.39971 2.44125 1.3179L17.0979 3.77909ZM17.0979 3.77909V3.67909V2.10609M17.0979 3.77909V2.10609M17.0979 2.10609C17.0996 1.93077 17.0556 1.75802 16.9703 1.60486C16.8849 1.45157 16.761 1.3232 16.6108 1.23241C16.4678 1.14542 16.3046 1.09717 16.1373 1.09243C15.97 1.08768 15.8043 1.1266 15.6566 1.20534C15.6566 1.20537 15.6565 1.2054 15.6564 1.20543L14.8288 1.64241L14.0257 1.0775C13.8619 0.962093 13.6665 0.900103 13.4661 0.900013C13.2658 0.899924 13.0703 0.96174 12.9064 1.077L12.9064 1.07702L12.1439 1.61375L11.3819 1.07749C11.2181 0.96208 11.0227 0.900089 10.8224 0.9C10.622 0.899911 10.4265 0.961726 10.2627 1.07699L10.2626 1.07701L9.50013 1.61374L8.7381 1.0775L17.0979 2.10609ZM7.61883 1.07702L7.61886 1.077C7.78273 0.96174 7.97821 0.899924 8.17856 0.900013C8.37888 0.900103 8.57429 0.962079 8.73804 1.07746L7.61883 1.07702ZM7.61883 1.07702L6.85633 1.61375M7.61883 1.07702L6.85633 1.61375M16.0195 19.9943L16.0027 18.5689L16.0015 18.4677H16.1026H16.9979H17.0979V18.5677V20.1405V20.141L16.0195 19.9943ZM16.0195 19.9943L14.8007 19.3514L14.746 19.3225L14.6957 19.3586L13.4784 20.2334L12.2015 19.3345L12.1434 19.2935L12.0856 19.335L10.8346 20.2334L9.5577 19.3345L9.49956 19.2935L9.44181 19.335L8.19077 20.2334L6.9139 19.3345L6.85576 19.2935L6.79801 19.335L5.54697 20.2334L4.30376 19.3581L4.25403 19.3231L4.20006 19.3511L2.99762 19.9763V18.5677V18.4677H2.89762H2.00237H1.90237V18.5677V20.1405V20.141H2.00237M16.0195 19.9943L16.6106 21.0141C16.4677 21.1013 16.3044 21.1496 16.1371 21.1543C15.9698 21.159 15.8042 21.12 15.6566 21.041C15.6565 21.041 15.6564 21.041 15.6564 21.0409L14.8289 20.6042L14.0253 21.1696C13.8615 21.285 13.6661 21.3468 13.4658 21.3465M2.00237 20.141C2.00083 20.2992 2.04053 20.455 2.11757 20.5931C2.19461 20.7313 2.30632 20.8469 2.44169 20.9287M2.00237 20.141V18.6677V20.141ZM2.44169 20.9287L2.38965 21.0141C2.38969 21.0142 2.38973 21.0142 2.38978 21.0142C2.53268 21.1013 2.69582 21.1496 2.8631 21.1544C3.03043 21.1592 3.19612 21.1203 3.34381 21.0414L4.17141 20.6043L4.97463 21.1696L4.97471 21.1697C5.1386 21.2848 5.33398 21.3465 5.53424 21.3465C5.7345 21.3465 5.92988 21.2848 6.09377 21.1697L6.09384 21.1696L6.85633 20.6331L7.61841 21.1696L7.6185 21.1697C7.78239 21.2848 7.97777 21.3465 8.17803 21.3465C8.37829 21.3465 8.57367 21.2848 8.73755 21.1697L8.73763 21.1696L9.50012 20.6331L10.2622 21.1696L10.2623 21.1697C10.4262 21.2848 10.6216 21.3465 10.8219 21.3465C11.0221 21.3465 11.2175 21.2848 11.3814 21.1697L11.3815 21.1696L12.1439 20.6331L12.906 21.1696L12.906 21.1696C13.0699 21.2849 13.2654 21.3467 13.4658 21.3465M2.44169 20.9287C2.56978 21.0068 2.71602 21.0501 2.86596 21.0544C3.01591 21.0587 3.16438 21.0238 3.29673 20.9532M2.44169 20.9287L3.29673 20.9532M13.4658 21.3465C13.4658 21.3465 13.4657 21.3465 13.4657 21.3465L13.4658 21.2465L13.4659 21.3465C13.4659 21.3465 13.4658 21.3465 13.4658 21.3465ZM3.29673 20.9532L4.17887 20.4872L3.29673 20.9532ZM6.85633 1.61375L6.09431 1.07749L6.85633 1.61375Z" fill="none" stroke="#1C1C1C" stroke-width="0.4"/>
<path d="M16.9209 19.1154H16.8452H2.1548H2.07916L2.05858 19.0426L1.96644 18.7168C1.96642 18.7167 1.9664 18.7167 1.96638 18.7166C0.544536 13.7543 0.54454 8.49246 1.96639 3.53016C1.96641 3.53011 1.96642 3.53006 1.96644 3.53L2.05858 3.20423L2.07916 3.13145H2.1548H16.8452H16.9209L16.9414 3.20424L17.0336 3.53C17.0336 3.53005 17.0336 3.53011 17.0336 3.53016L17.0337 3.53034L16.9374 3.55755C18.3542 8.50196 18.3542 13.7448 16.9374 18.6893L16.9209 19.1154ZM16.9209 19.1154L16.9414 19.0426L17.0336 18.7168C17.0336 18.7168 17.0336 18.7167 17.0336 18.7167L16.9209 19.1154ZM16.089 4.2267C17.3091 8.74354 17.3091 13.5033 16.089 18.0201H2.91101C1.69088 13.5033 1.69088 8.74354 2.91101 4.2267H16.089Z" fill="none" stroke="#1C1C1C" stroke-width="0.4"/>
<path d="M9.50013 16.2032H9.50023C10.847 16.2017 12.1382 15.666 13.0906 14.7137C14.0429 13.7614 14.5785 12.4702 14.58 11.1234V11.1233C14.58 10.1186 14.2821 9.13645 13.7239 8.30108C13.1657 7.4657 12.3723 6.8146 11.4441 6.43012C10.5159 6.04563 9.49449 5.94504 8.50909 6.14104C7.5237 6.33705 6.61855 6.82086 5.90812 7.53129C5.19769 8.24172 4.71388 9.14687 4.51787 10.1323C4.32187 11.1177 4.42246 12.1391 4.80695 13.0673C5.19143 13.9955 5.84253 14.7889 6.67791 15.347C7.51329 15.9052 8.49543 16.2032 9.50013 16.2032ZM7.2864 7.81022C7.94165 7.37239 8.71201 7.1387 9.50006 7.13869C10.5565 7.13991 11.5693 7.56011 12.3163 8.30712C13.0633 9.05413 13.4835 10.067 13.4847 11.1234C13.4847 11.9115 13.251 12.6818 12.8132 13.337C12.3754 13.9923 11.7531 14.503 11.025 14.8046C10.2969 15.1062 9.49571 15.1851 8.72277 15.0313C7.94983 14.8776 7.23984 14.4981 6.68259 13.9408C6.12533 13.3836 5.74583 12.6736 5.59209 11.9007C5.43834 11.1277 5.51725 10.3265 5.81883 9.59845C6.12042 8.87036 6.63113 8.24805 7.2864 7.81022Z" fill="#1C1C1C" stroke="#1C1C1C" stroke-width="0.4"/>
<path d="M6.94095 12.4045L7.01205 12.3334L11.2138 8.13168L11.2849 8.06058L11.3556 8.13207L11.6719 8.45183C12.0994 8.88135 12.3902 9.42785 12.5076 10.0224C12.6249 10.617 12.5636 11.233 12.3313 11.7928C12.099 12.3525 11.7062 12.831 11.2024 13.1678C10.6986 13.5046 10.1063 13.6846 9.50027 13.6853C9.50026 13.6853 9.50025 13.6853 9.50023 13.6853L9.50013 13.5853C8.71404 13.5864 7.95967 13.2754 7.40275 12.7206L6.94095 12.4045ZM6.94095 12.4045L7.01244 12.4752L7.33217 12.7915C7.3322 12.7915 7.33224 12.7915 7.33227 12.7916L6.94095 12.4045ZM9.71378 12.5781C9.30963 12.6226 8.90267 12.541 8.54811 12.3462L11.2265 9.66751C11.4214 10.0221 11.503 10.429 11.4586 10.8332C11.4095 11.2791 11.2099 11.695 10.8928 12.0122C10.5756 12.3294 10.1597 12.529 9.71378 12.5781Z" fill="#1C1C1C" stroke="#1C1C1C" stroke-width="0.2"/>
</svg>
