<svg width="25" height="25" viewBox="0 0 25 25" fill="none" xmlns="http://www.w3.org/2000/svg">
<g clip-path="url(#clip0_2150_106654)">
<path fill-rule="evenodd" clip-rule="evenodd" d="M5.35714 7.14286C5.35714 4.18418 7.75561 1.78571 10.7143 1.78571H14.2857C17.2444 1.78571 19.6429 4.18418 19.6429 7.14286V7.62059C18.5753 8.23807 17.8571 9.39224 17.8571 10.7143V13.1505C14.1918 12.333 10.6052 12.2482 7.14286 13.1084V10.7143C7.14286 9.39224 6.42468 8.23807 5.35714 7.62059V7.14286ZM25 10.7143C25 8.74171 23.4011 7.14286 21.4286 7.14286C21.4286 3.19796 18.2306 0 14.2857 0H10.7143C6.76939 0 3.57143 3.19796 3.57143 7.14286C1.59885 7.14286 0 8.74171 0 10.7143C0 12.0396 0.723407 13.1819 1.78571 13.7956V21.4286C1.78571 21.9217 2.18546 22.3214 2.67857 22.3214H3.57143V24.1071C3.57143 24.6003 3.97117 25 4.46429 25C4.9574 25 5.35714 24.6003 5.35714 24.1071V22.3214H19.6426V24.1071C19.6426 24.6002 20.0423 25 20.5354 25C21.0285 25 21.4283 24.6002 21.4283 24.1071V22.3214H22.3214C22.8145 22.3214 23.2143 21.9217 23.2143 21.4286V13.7956C24.2766 13.1819 25 12.0396 25 10.7143ZM20.5317 20.5357L4.46429 20.5357L3.57143 20.5357V13.2286C3.57143 12.8506 3.33349 12.5137 2.97736 12.3872C2.27807 12.1389 1.78571 11.4829 1.78571 10.7143C1.78571 9.72793 2.58508 8.92857 3.57143 8.92857C4.55778 8.92857 5.35714 9.72793 5.35714 10.7143V14.2649C5.35683 14.2786 5.35682 14.2923 5.35714 14.306V17.8571C5.35714 18.3503 5.75689 18.75 6.25 18.75H18.75C19.2431 18.75 19.6429 18.3503 19.6429 17.8571V14.3048C19.6431 14.2916 19.6431 14.2785 19.6429 14.2655V10.7143C19.6429 9.72793 20.4422 8.92857 21.4286 8.92857C22.4149 8.92857 23.2143 9.72793 23.2143 10.7143C23.2143 11.4829 22.7219 12.1389 22.0226 12.3872C21.6665 12.5137 21.4286 12.8506 21.4286 13.2286V20.5357H20.5392L20.5354 20.5357L20.5317 20.5357ZM16.0718 5.35715C16.0718 5.85026 15.6721 6.25001 15.179 6.25001C14.6859 6.25001 14.2861 5.85026 14.2861 5.35715C14.2861 4.86404 14.6859 4.46429 15.179 4.46429C15.6721 4.46429 16.0718 4.86404 16.0718 5.35715ZM17.8571 14.9829C14.1135 14.0934 10.538 14.0227 7.14286 14.954V16.9643H17.8571V14.9829ZM10.7143 5.35714C10.7143 5.85025 10.3145 6.25 9.82143 6.25C9.32832 6.25 8.92857 5.85025 8.92857 5.35714C8.92857 4.86403 9.32832 4.46429 9.82143 4.46429C10.3145 4.46429 10.7143 4.86403 10.7143 5.35714ZM9.82143 9.82143C10.3145 9.82143 10.7143 9.42168 10.7143 8.92857C10.7143 8.43546 10.3145 8.03571 9.82143 8.03571C9.32832 8.03571 8.92857 8.43546 8.92857 8.92857C8.92857 9.42168 9.32832 9.82143 9.82143 9.82143ZM16.0718 8.92856C16.0718 9.42167 15.6721 9.82142 15.179 9.82142C14.6859 9.82142 14.2861 9.42167 14.2861 8.92856C14.2861 8.43545 14.6859 8.03571 15.179 8.03571C15.6721 8.03571 16.0718 8.43545 16.0718 8.92856Z" fill="#BABABA"/>
</g>
<defs>
<clipPath id="clip0_2150_106654">
<rect width="25" height="25" fill="white"/>
</clipPath>
</defs>
</svg>
