<svg width="25" height="25" viewBox="0 0 25 25" fill="none" xmlns="http://www.w3.org/2000/svg">
<g clip-path="url(#clip0_2150_106416)">
<path d="M24.8417 22.1184L23.3909 18.6144C24.4392 16.7594 24.9992 14.6562 24.9992 12.4996C24.9992 5.60731 19.3919 0 12.4996 0C5.60731 0 0 5.60731 0 12.4996C0 14.6403 0.559981 16.7444 1.60911 18.6194L0.159995 22.1184C-0.279157 23.1792 0.226659 24.4 1.28746 24.84C1.54578 24.9467 1.81661 25 2.0866 25C2.35659 25 2.62575 24.9467 2.8824 24.8408C3.39655 24.6283 3.79654 24.2275 4.00987 23.7125L4.63151 22.2118C6.85394 24.0167 9.60551 24.9992 12.4996 24.9992C15.3962 24.9992 18.1469 24.015 20.3677 22.2068L20.9918 23.7125C21.3151 24.4942 22.0718 24.9992 22.9201 24.9992C23.1934 24.9992 23.4601 24.9458 23.7134 24.8417C24.2267 24.6292 24.6275 24.2284 24.8408 23.7134C25.0525 23.1976 25.0533 22.6317 24.8417 22.1184ZM2.46908 23.0751C2.42575 23.1784 2.34659 23.2592 2.24326 23.3009C2.1416 23.3434 2.02743 23.3426 1.9241 23.3001C1.71161 23.2126 1.61078 22.9676 1.69828 22.7559L5.38815 13.8487C5.54065 13.4821 5.40982 13.0637 5.08816 12.8437C4.80984 12.6096 4.71318 12.2238 4.85317 11.8863L7.93057 13.1612L7.9289 13.1654C7.78807 13.5062 7.41725 13.7112 7.04477 13.6587C6.68561 13.6054 6.32896 13.7979 6.17146 14.1304C6.15646 14.162 6.14396 14.1945 6.13313 14.227L2.46908 23.0751ZM12.4996 23.3326C9.82384 23.3326 7.29476 22.3534 5.30482 20.5826L7.48725 15.3145C8.35805 15.2037 9.12386 14.6395 9.47135 13.7979L11.0605 9.95217C11.2371 9.52718 11.0355 9.0397 10.6096 8.86304C10.1863 8.68804 9.69718 8.88804 9.52052 9.31386L8.56638 11.6204L7.79557 11.3013L8.75221 8.99137C8.92804 8.56638 8.72638 8.0789 8.30139 7.90224C7.87807 7.72724 7.38809 7.92724 7.21226 8.35306L6.25562 10.663L5.48732 10.3455L6.44229 8.0339C6.61811 7.60891 6.41645 7.12143 5.99063 6.9456C5.56981 6.77311 5.08066 6.97143 4.90484 7.39809L3.31572 11.2446C2.9649 12.0821 3.10323 13.0254 3.63738 13.7237L2.46325 16.5578C1.94244 15.2687 1.66661 13.8929 1.66661 12.4996C1.66661 6.52645 6.52645 1.66661 12.4996 1.66661C18.4727 1.66661 23.3326 6.52645 23.3326 12.4996C23.3326 13.9029 23.0576 15.2787 22.5384 16.5586L18.9427 7.8764C18.8319 7.60975 18.591 7.41892 18.3061 7.37309C18.0169 7.32976 17.7327 7.43225 17.5427 7.64975C17.3803 7.83807 13.5737 12.3371 16.2911 18.8969C16.4278 19.2277 16.7469 19.4294 17.1203 19.4094L19.1494 19.2652L19.6927 20.5776C17.7069 22.3509 15.1787 23.3326 12.4996 23.3326ZM23.3001 23.0751C23.2759 23.1351 23.2134 23.2434 23.0759 23.3009C22.8934 23.3776 22.6334 23.3209 22.5317 23.0751L20.4593 18.0711C20.3302 17.7586 20.0252 17.5569 19.6893 17.5569C19.6702 17.5569 19.6502 17.5577 19.6302 17.5586L17.6161 17.7019C16.362 14.1995 17.2403 11.4638 18.0086 9.97633L23.3026 22.7559C23.3584 22.8942 23.3251 23.0151 23.3001 23.0751Z" fill="#BABABA"/>
<path d="M16.5256 7.55145C16.7973 7.12457 16.6656 6.56179 16.2317 6.29453C14.1396 5.00569 11.3911 4.85154 9.14053 5.89593C8.67688 6.1112 8.47936 6.65483 8.69728 7.10998C8.91613 7.56604 9.46787 7.75942 9.93153 7.54598C11.6183 6.76337 13.6834 6.8783 15.2478 7.8406C15.4008 7.93455 15.5705 7.97924 15.7383 7.97924C16.0471 7.97924 16.3503 7.82783 16.5256 7.55145ZM13.9774 17.7235C12.1932 18.2553 10.2144 17.8759 8.80949 16.7348C8.4126 16.4128 7.82932 16.4694 7.50384 16.8579C7.17835 17.2465 7.23399 17.8211 7.62902 18.1422C8.93931 19.2048 10.6048 19.7913 12.3175 19.7913C13.0593 19.7913 13.7993 19.6828 14.5152 19.4694C15.0048 19.3234 15.2821 18.8135 15.1337 18.3319C14.9854 17.8503 14.4688 17.5776 13.9774 17.7235Z" fill="#BABABA"/>
</g>
<defs>
<clipPath id="clip0_2150_106416">
<rect width="25" height="25" fill="white"/>
</clipPath>
</defs>
</svg>
