<svg width="27" height="25" viewBox="0 0 27 25" fill="none" xmlns="http://www.w3.org/2000/svg">
<g clip-path="url(#clip0_2150_106465)">
<path d="M8.24958 10.9924C8.56697 10.9924 8.88436 10.8866 9.13828 10.6961C9.40277 10.5057 9.59321 10.2412 9.68843 9.94498C9.78364 9.63817 9.78364 9.3102 9.68843 9.00339L9.04306 7.01439L10.7358 5.78713C10.9897 5.5967 11.1908 5.3322 11.286 5.02539C11.3812 4.71858 11.3812 4.39061 11.286 4.08379C11.1908 3.77698 10.9897 3.51248 10.7358 3.32205C10.4819 3.13161 10.1645 3.03639 9.84712 3.03639H7.76291L7.11754 1.0474C7.02232 0.740584 6.82131 0.47609 6.56739 0.285654C6.31348 0.0952179 5.99608 0 5.67869 0C5.3613 0 5.04391 0.105798 4.78999 0.285654C4.53608 0.46551 4.33506 0.740584 4.23984 1.0474L3.59448 3.03639H1.51026C1.19287 3.03639 0.875476 3.14219 0.621562 3.32205C0.367647 3.5019 0.166631 3.77698 0.0714135 4.08379C-0.0238045 4.39061 -0.0238045 4.71858 0.0714135 5.02539C0.166631 5.3322 0.367647 5.5967 0.621562 5.78713L2.31432 7.01439L1.66896 9.00339C1.56316 9.3102 1.56316 9.63817 1.66896 9.94498C1.76418 10.2518 1.96519 10.5163 2.21911 10.6961C2.47302 10.8866 2.79041 10.9924 3.10781 10.9924C3.4252 10.9924 3.74259 10.8866 3.99651 10.6961L5.68927 9.4689L7.38204 10.6961C7.63595 10.8866 7.95334 10.9924 8.27074 10.9924H8.24958ZM4.55724 4.3906C4.65245 4.31655 4.72651 4.22133 4.75825 4.10495L5.60463 1.51291C5.60463 1.51291 5.61521 1.49175 5.62579 1.48117C5.63637 1.48117 5.64695 1.47059 5.66811 1.47059C5.65753 1.47059 5.63637 1.47059 5.62579 1.48117C5.61521 1.48117 5.60463 1.50233 5.60463 1.51291V1.55523L4.75825 4.10495C4.72651 4.22133 4.65245 4.31655 4.55724 4.3906C4.46202 4.46466 4.34564 4.4964 4.22926 4.4964C4.34564 4.4964 4.46202 4.45408 4.55724 4.3906ZM5.1497 7.67033L3.56274 8.82353L4.16578 6.96149C4.21868 6.78163 4.21868 6.5912 4.16578 6.41134C4.11289 6.23148 3.99651 6.08337 3.84839 5.96699L2.26143 4.8138H4.21868C4.40912 4.8138 4.58898 4.75032 4.73709 4.64452C4.88521 4.53872 5.00159 4.38002 5.05449 4.20017L5.65753 2.33813L6.26058 4.20017C6.31348 4.38002 6.42986 4.52814 6.57797 4.64452C6.72609 4.75032 6.90595 4.8138 7.09638 4.8138H9.05364L7.46667 5.96699C7.31856 6.07279 7.20218 6.23148 7.14928 6.41134C7.09638 6.5912 7.09638 6.78163 7.14928 6.96149L7.75233 8.82353L6.16536 7.67033C6.01724 7.56454 5.83739 7.50106 5.64695 7.50106C5.45652 7.50106 5.27666 7.56454 5.12854 7.67033H5.1497ZM1.4362 4.59162C1.4362 4.59162 1.44678 4.61278 1.45736 4.62336L1.49968 4.6551L3.66854 6.23148C3.76375 6.30554 3.83781 6.40076 3.86955 6.51714C3.90129 6.63352 3.90129 6.74989 3.86955 6.86627L3.02317 9.45832C3.02317 9.45832 3.02317 9.49005 3.02317 9.50063C3.02317 9.51121 3.03375 9.52179 3.05491 9.53237C3.06549 9.53237 3.07607 9.55353 3.09723 9.54295C3.08665 9.54295 3.06549 9.54295 3.05491 9.52179C3.04433 9.52179 3.03375 9.50063 3.02317 9.49005C3.02317 9.47947 3.02317 9.45832 3.02317 9.44774L3.86955 6.85569C3.90129 6.73931 3.90129 6.62294 3.86955 6.50656C3.83781 6.39018 3.76375 6.29496 3.66854 6.2209L1.45736 4.61278C1.45736 4.61278 1.4362 4.59162 1.4362 4.58104C1.4362 4.57046 1.4362 4.5493 1.4362 4.53872C1.4362 4.52814 1.44678 4.51756 1.45736 4.50698C1.46794 4.50698 1.47852 4.4964 1.49968 4.4964C1.49968 4.4964 1.46794 4.4964 1.45736 4.50698C1.44678 4.50698 1.4362 4.52814 1.4362 4.53872C1.4362 4.5493 1.4362 4.57046 1.4362 4.58104V4.59162ZM5.67869 7.81845C5.79507 7.81845 5.91145 7.86077 6.00666 7.92425L8.21784 9.53237C8.21784 9.53237 8.239 9.55353 8.26016 9.55353C8.24958 9.55353 8.22842 9.55353 8.21784 9.53237L6.00666 7.92425C5.91145 7.85019 5.79507 7.81845 5.67869 7.81845ZM9.8577 3.37495C10.1116 3.37495 10.355 3.45959 10.5665 3.6077C10.7676 3.75582 10.9263 3.96741 11.0003 4.21075C11.0744 4.45408 11.0744 4.708 11.0003 4.95133C10.9263 5.19467 10.7676 5.40626 10.5665 5.55438L8.69393 6.91917L9.41335 9.11976C9.49799 9.3631 9.49799 9.61701 9.41335 9.86035C9.33929 10.1037 9.1806 10.3153 8.969 10.4528C8.76799 10.6009 8.51407 10.6856 8.26016 10.6856C8.51407 10.6856 8.75741 10.6009 8.969 10.4528C9.1806 10.3047 9.32871 10.0931 9.41335 9.86035C9.48741 9.61701 9.48741 9.3631 9.41335 9.11976L8.69393 6.91917L10.5665 5.55438C10.7676 5.40626 10.9263 5.19467 11.0003 4.95133C11.0744 4.708 11.0744 4.45408 11.0003 4.21075C10.9263 3.96741 10.7676 3.75582 10.5665 3.6077C10.3655 3.45959 10.1116 3.37495 9.8577 3.37495ZM6.38754 0.571308C6.18652 0.423191 5.93261 0.338553 5.67869 0.338553C5.93261 0.338553 6.17594 0.423191 6.38754 0.571308ZM3.80607 10.4528C3.60506 10.6009 3.35114 10.6856 3.09723 10.6856C3.35114 10.6856 3.59448 10.6009 3.80607 10.4528Z" fill="#BABABA"/>
<path d="M26.1297 8.20977C26.0345 7.90295 25.8335 7.63846 25.5796 7.44802C25.3257 7.25759 25.0083 7.16237 24.6909 7.16237H22.6067L21.9613 5.17337C21.8661 4.86656 21.6651 4.60207 21.4111 4.41163C21.1572 4.22119 20.8398 4.12598 20.5224 4.12598C20.205 4.12598 19.8877 4.23177 19.6337 4.41163C19.3798 4.59149 19.1788 4.86656 19.0836 5.17337L18.4382 7.16237H16.354C16.0366 7.16237 15.7192 7.26817 15.4653 7.44802C15.2114 7.62788 15.0104 7.90295 14.9152 8.20977C14.8199 8.51658 14.8199 8.84455 14.9152 9.15137C15.0104 9.45818 15.2114 9.72268 15.4653 9.91311L17.1581 11.1404L16.5127 13.1294C16.4069 13.4362 16.4069 13.7641 16.5127 14.071C16.6079 14.3778 16.8089 14.6423 17.0629 14.8221C17.3168 15.0126 17.6342 15.1184 17.9516 15.1184C18.269 15.1184 18.5863 15.0126 18.8403 14.8221L20.533 13.5949L22.2258 14.8221C22.4797 15.0126 22.7971 15.1078 23.1145 15.1078C23.4319 15.1078 23.7493 15.002 24.0032 14.8221C24.2571 14.6317 24.4581 14.3672 24.5533 14.0604C24.6486 13.7536 24.6486 13.4256 24.5533 13.1188L23.908 11.1298L25.6007 9.90253C25.8546 9.7121 26.0557 9.4476 26.1509 9.14079C26.2461 8.83397 26.2461 8.506 26.1509 8.19919L26.1297 8.20977ZM20.8504 12.0396C20.7552 11.9656 20.6388 11.9338 20.5224 11.9338C20.6388 11.9338 20.7552 11.9762 20.8504 12.0396L23.0193 13.616L23.0616 13.6478C23.0616 13.6478 23.0722 13.6478 23.0827 13.6478C23.0827 13.6478 23.0722 13.6478 23.0616 13.6478L20.8504 12.0396ZM22.8606 14.7481C22.8606 14.7481 22.7654 14.7481 22.723 14.7269C22.7654 14.7375 22.8183 14.7375 22.8606 14.7481ZM17.8669 13.6055C17.8669 13.6055 17.8669 13.5737 17.8669 13.5631L18.7133 10.9711C18.745 10.8547 18.745 10.7383 18.7133 10.622C18.6816 10.5056 18.6075 10.4104 18.5123 10.3363L16.3011 8.72818C16.3011 8.72818 16.28 8.70702 16.28 8.69644C16.28 8.68586 16.28 8.6647 16.28 8.65412C16.28 8.64354 16.2905 8.63296 16.3011 8.62238C16.3117 8.62238 16.3223 8.6118 16.3434 8.6118C16.3434 8.6118 16.3117 8.6118 16.3011 8.62238C16.2905 8.62238 16.28 8.64354 16.28 8.65412C16.28 8.6647 16.28 8.68586 16.28 8.69644C16.28 8.70702 16.2905 8.7176 16.3011 8.72818L18.5123 10.3363C18.6075 10.4104 18.6816 10.5056 18.7133 10.622C18.745 10.7383 18.745 10.8547 18.7133 10.9711L17.8881 13.5208V13.5631C17.8881 13.5631 17.8669 13.5949 17.8775 13.6055C17.8775 13.616 17.8881 13.6266 17.8987 13.6372C17.8987 13.6372 17.9092 13.6372 17.9198 13.6372H17.8987C17.8881 13.6372 17.8775 13.616 17.8775 13.6055H17.8669ZM22.3316 10.0824C22.1835 10.1882 22.0671 10.3469 22.0142 10.5267C21.9613 10.7066 21.9613 10.897 22.0142 11.0769L22.6172 12.9389L21.0303 11.7857C20.8822 11.6799 20.7023 11.6165 20.5119 11.6165C20.3214 11.6165 20.1416 11.6799 19.9935 11.7857L18.4065 12.9389L19.0095 11.0769C19.0624 10.897 19.0624 10.7066 19.0095 10.5267C18.9566 10.3469 18.8403 10.1988 18.6921 10.0824L17.1052 8.92919H19.0624C19.2529 8.92919 19.4327 8.86571 19.5808 8.75992C19.729 8.65412 19.8453 8.49542 19.8982 8.31557L20.5013 6.45353L21.1043 8.31557C21.1572 8.49542 21.2736 8.64354 21.4217 8.75992C21.5698 8.86571 21.7497 8.92919 21.9401 8.92919H23.8974L22.3104 10.0824H22.3316ZM19.401 8.506C19.4962 8.43194 19.5703 8.33673 19.602 8.22035L20.4484 5.6283C20.4484 5.6283 20.459 5.60714 20.4695 5.59657C20.4801 5.58599 20.4907 5.58599 20.5119 5.58599C20.5013 5.58599 20.4801 5.58599 20.4695 5.59657C20.459 5.59657 20.4484 5.61772 20.4484 5.6283V5.67062L19.602 8.22035C19.5703 8.33673 19.4962 8.43194 19.401 8.506C19.3058 8.58006 19.1894 8.6118 19.073 8.6118C19.1894 8.6118 19.3058 8.56948 19.401 8.506ZM21.2207 4.67612C21.062 4.55975 20.8716 4.49627 20.6811 4.47511C20.8716 4.50685 21.062 4.55975 21.2207 4.67612ZM18.6392 14.5576C18.4382 14.7057 18.1843 14.7904 17.9304 14.7904C18.1843 14.7904 18.4276 14.7057 18.6392 14.5576ZM25.8335 9.05615C25.7594 9.29948 25.6007 9.51108 25.3997 9.6592L23.5271 11.024L24.2465 13.2246C24.3206 13.4679 24.3206 13.7218 24.2465 13.9652C24.1725 14.2085 24.0138 14.4201 23.8128 14.5682C23.6117 14.7163 23.3578 14.801 23.1039 14.801C23.3578 14.801 23.6012 14.7163 23.8128 14.5682C24.0138 14.4201 24.1725 14.2085 24.2465 13.9652C24.3206 13.7218 24.3206 13.4679 24.2465 13.2246L23.5271 11.024L25.3997 9.6592C25.6007 9.51108 25.7594 9.29948 25.8335 9.05615C25.9075 8.81281 25.9075 8.5589 25.8335 8.31557C25.7594 8.07223 25.6007 7.86064 25.3997 7.71252C25.1987 7.5644 24.9448 7.47976 24.6909 7.47976C24.9448 7.47976 25.1881 7.5644 25.3997 7.71252C25.6113 7.86064 25.7594 8.07223 25.8335 8.31557C25.9075 8.5589 25.9075 8.81281 25.8335 9.05615Z" fill="#BABABA"/>
<path d="M16.8511 17.3406C16.5971 17.1502 16.2797 17.055 15.9624 17.055H13.8781L13.2328 15.066C13.1376 14.7591 12.9365 14.4946 12.6826 14.3042C12.4287 14.1138 12.1113 14.0186 11.7939 14.0186C11.4765 14.0186 11.1591 14.1244 10.9052 14.3042C10.6513 14.4946 10.4503 14.7591 10.3551 15.066L9.70971 17.055H7.6255C7.3081 17.055 6.99071 17.1607 6.7368 17.3406C6.48288 17.531 6.28187 17.7955 6.18665 18.1023C6.09143 18.4092 6.09143 18.7371 6.18665 19.0334C6.28187 19.3296 6.48288 19.6047 6.7368 19.7951L8.42956 21.0224L7.78419 23.0114C7.6784 23.3182 7.6784 23.6461 7.78419 23.953C7.87941 24.2598 8.08043 24.5243 8.33434 24.7041C8.58826 24.8946 8.90565 25.0004 9.22304 25.0004C9.54044 25.0004 9.85783 24.8946 10.1117 24.7041L11.8045 23.4769L13.4973 24.7041C13.7512 24.8946 14.0686 24.9898 14.386 24.9898C14.7034 24.9898 15.0208 24.884 15.2747 24.7041C15.5286 24.5137 15.7296 24.2492 15.8248 23.9424C15.92 23.6356 15.92 23.3076 15.8248 23.0008L15.1795 21.0118L16.8722 19.7845C17.1261 19.5941 17.3271 19.3296 17.4224 19.0228C17.5176 18.716 17.5176 18.388 17.4224 18.0918C17.3271 17.785 17.1261 17.5205 16.8722 17.33L16.8511 17.3406ZM10.6725 18.388C10.7677 18.3139 10.8417 18.2187 10.8735 18.1023L11.7199 15.5103C11.7199 15.5103 11.7304 15.4891 11.741 15.4786C11.7516 15.4786 11.7622 15.468 11.7833 15.468C11.7833 15.468 11.7516 15.468 11.741 15.4786C11.7304 15.4786 11.7199 15.4997 11.7199 15.5103L10.8735 18.1023C10.8417 18.2187 10.7677 18.3139 10.6725 18.388C10.5773 18.4621 10.4609 18.4938 10.3445 18.4938C10.4609 18.4938 10.5773 18.4515 10.6725 18.388ZM13.6031 19.9644C13.455 20.0702 13.3386 20.2289 13.2857 20.4087C13.2328 20.5886 13.2328 20.779 13.2857 20.9589L13.8887 22.8209L12.3018 21.6677C12.1536 21.5619 11.9738 21.4985 11.7833 21.4985C11.5929 21.4985 11.4131 21.5619 11.2649 21.6677L9.67797 22.8209L10.281 20.9589C10.3339 20.779 10.3339 20.5886 10.281 20.4087C10.2281 20.2289 10.1117 20.0808 9.96363 19.9644L8.37666 18.8112H10.3339C10.5244 18.8112 10.7042 18.7477 10.8523 18.6419C11.0004 18.5361 11.1168 18.3774 11.1697 18.1976L11.7728 16.3355L12.3758 18.1976C12.4287 18.3774 12.5451 18.5255 12.6932 18.6419C12.8413 18.7477 13.0212 18.8112 13.2116 18.8112H15.1689L13.5819 19.9644H13.6031ZM7.5726 18.6208L9.78377 20.2289C9.87899 20.3029 9.95305 20.3982 9.98479 20.5145C10.0165 20.6309 10.0165 20.7473 9.98479 20.8637L9.15956 23.4134V23.4557C9.15956 23.4557 9.1384 23.4875 9.14898 23.498C9.14898 23.5086 9.15956 23.5192 9.17014 23.5298C9.18072 23.5298 9.1913 23.5403 9.21246 23.5403C9.21246 23.5403 9.18072 23.5403 9.17014 23.5298C9.15956 23.5298 9.14898 23.5086 9.14898 23.498C9.14898 23.4875 9.14898 23.4663 9.14898 23.4557L9.99537 20.8637C10.0271 20.7473 10.0271 20.6309 9.99537 20.5145C9.96363 20.3982 9.88957 20.3029 9.79435 20.2289L7.58318 18.6208C7.58318 18.6208 7.56202 18.5996 7.56202 18.589C7.56202 18.5784 7.56202 18.5573 7.56202 18.5467C7.56202 18.5361 7.5726 18.5255 7.58318 18.515C7.59376 18.515 7.60434 18.5044 7.6255 18.5044C7.6255 18.5044 7.59376 18.5044 7.58318 18.515C7.5726 18.515 7.56202 18.5361 7.56202 18.5467C7.56202 18.5573 7.56202 18.5784 7.56202 18.589C7.56202 18.5996 7.5726 18.6102 7.58318 18.6208H7.5726ZM14.3225 23.5298L12.1113 21.9216C12.0161 21.8582 11.8997 21.8158 11.7833 21.8158C11.8997 21.8158 12.0161 21.8476 12.1113 21.9216L14.3225 23.5298C14.3225 23.5298 14.3437 23.5403 14.3648 23.5403C14.3648 23.5403 14.3331 23.5403 14.3225 23.5298ZM12.4816 14.5687C12.2806 14.4206 12.0267 14.3359 11.7728 14.3359C12.0267 14.3359 12.27 14.4206 12.4816 14.5687ZM9.90015 24.4502C9.69913 24.5983 9.44522 24.683 9.1913 24.683C9.44522 24.683 9.68855 24.5983 9.90015 24.4502ZM17.0944 18.9487C17.0203 19.1921 16.8616 19.4037 16.6606 19.5518L14.788 20.9166L15.5074 23.1172C15.5815 23.3605 15.5815 23.6144 15.5074 23.8577C15.4334 24.1011 15.2747 24.3127 15.0737 24.4608C14.8726 24.6089 14.6187 24.6935 14.3648 24.6935C14.6187 24.6935 14.8621 24.6089 15.0737 24.4608C15.2747 24.3127 15.4334 24.1011 15.5074 23.8577C15.5815 23.6144 15.5815 23.3605 15.5074 23.1172L14.788 20.9166L16.6606 19.5518C16.8616 19.4037 17.0203 19.1921 17.0944 18.9487C17.1685 18.7054 17.1685 18.4515 17.0944 18.2081C17.0203 17.9648 16.8616 17.7532 16.6606 17.6051C16.4596 17.457 16.2057 17.3723 15.9518 17.3723C16.2057 17.3723 16.449 17.457 16.6606 17.6051C16.8616 17.7532 17.0203 17.9648 17.0944 18.2081C17.1685 18.4515 17.1685 18.7054 17.0944 18.9487Z" fill="#BABABA"/>
<path d="M3.08707 19.2236C2.91779 19.0649 2.69562 18.9697 2.47344 18.9697C2.25127 18.9697 2.02909 19.0544 1.85981 19.2131C1.73286 19.34 1.64822 19.4987 1.61648 19.668C1.58474 19.8373 1.59532 20.0171 1.66938 20.1758C1.73286 20.3345 1.84923 20.4721 1.99735 20.5673C2.14547 20.6625 2.31474 20.7154 2.48402 20.7154C2.6004 20.7154 2.71678 20.6942 2.82257 20.6413C2.92837 20.599 3.02359 20.5355 3.10823 20.4509C3.19287 20.3663 3.25634 20.271 3.29866 20.1652C3.34098 20.0594 3.36214 19.9431 3.36214 19.8267C3.36214 19.7103 3.34098 19.5939 3.29866 19.4881C3.25634 19.3823 3.19287 19.2871 3.10823 19.2025L3.08707 19.2236ZM2.99185 20.07C2.96011 20.1335 2.91779 20.197 2.86489 20.2499C2.81199 20.3028 2.74851 20.3451 2.68504 20.3663C2.61098 20.398 2.5475 20.4086 2.46286 20.4086C2.40996 20.4086 2.36764 20.3768 2.32532 20.3663C2.37822 20.3768 2.42054 20.4086 2.46286 20.4086C2.53692 20.4086 2.61098 20.3874 2.68504 20.3663C2.74851 20.3345 2.81199 20.2922 2.86489 20.2499C2.91779 20.197 2.96011 20.1335 2.99185 20.07C3.02359 20.0065 3.03417 19.9325 3.03417 19.8584C3.03417 19.7844 3.02359 19.7103 2.99185 19.6468C2.96011 19.5834 2.91779 19.5199 2.86489 19.467C2.75909 19.3612 2.61098 19.3083 2.46286 19.3083C2.61098 19.3083 2.74852 19.3612 2.86489 19.467C2.91779 19.5199 2.96011 19.5834 2.99185 19.6468C3.02359 19.7103 3.03417 19.7844 3.03417 19.8584C3.03417 19.9325 3.02359 20.0065 2.99185 20.07Z" fill="#BABABA"/>
<path d="M14.4391 4.06223C14.5872 4.15744 14.7565 4.21034 14.9258 4.21034C15.0421 4.21034 15.1585 4.18918 15.2643 4.13629C15.3701 4.09397 15.4653 4.03049 15.55 3.94585C15.6346 3.86121 15.6981 3.76599 15.7404 3.6602C15.7827 3.5544 15.8039 3.43802 15.8039 3.32164C15.8039 3.20526 15.7827 3.08889 15.7404 2.98309C15.6981 2.87729 15.6346 2.78207 15.55 2.69744C15.3807 2.53874 15.1585 2.4541 14.9363 2.4541C14.7142 2.4541 14.492 2.53874 14.3227 2.69744C14.1957 2.82439 14.1111 2.98309 14.0794 3.15237C14.0476 3.32164 14.0582 3.5015 14.1323 3.6602C14.2063 3.81889 14.3121 3.95643 14.4602 4.05165L14.4391 4.06223ZM15.3278 2.93019C15.3278 2.93019 15.423 3.04657 15.4547 3.11005C15.4865 3.17353 15.4971 3.24758 15.4971 3.32164C15.4971 3.3957 15.4865 3.46976 15.4547 3.53324C15.423 3.59672 15.3807 3.66019 15.3278 3.71309C15.2749 3.76599 15.2114 3.80831 15.1479 3.84005C15.0739 3.87179 15.0104 3.88237 14.9258 3.88237C14.9998 3.88237 15.0739 3.86121 15.1479 3.84005C15.2114 3.80831 15.2749 3.76599 15.3278 3.71309C15.3807 3.66019 15.423 3.59672 15.4547 3.53324C15.4865 3.46976 15.4971 3.3957 15.4971 3.32164C15.4971 3.24758 15.4865 3.17353 15.4547 3.11005C15.423 3.04657 15.3807 2.98309 15.3278 2.93019C15.222 2.82439 15.0739 2.77149 14.9258 2.77149C15.0739 2.77149 15.2114 2.82439 15.3278 2.93019Z" fill="#BABABA"/>
<path d="M21.8554 20.4716C21.8448 20.4081 21.8236 20.3552 21.8025 20.3129C21.8025 20.3129 21.7601 20.2071 21.7284 20.1648V20.1436C21.6967 20.1013 21.6649 20.059 21.6226 20.0167C21.5168 19.9109 21.3899 19.8368 21.2523 19.7945C21.1148 19.7522 20.9667 19.7416 20.8185 19.7733C20.7656 19.7839 20.7233 19.8051 20.6704 19.8157C20.6175 19.8368 20.5646 19.8686 20.5223 19.9003C20.4694 19.932 20.4271 19.9744 20.3848 20.0061C20.2155 20.1754 20.1309 20.3975 20.1309 20.6303C20.1309 20.6938 20.1309 20.7467 20.152 20.7996V20.8102C20.1626 20.8631 20.1838 20.916 20.2049 20.9583C20.2261 21.0112 20.2578 21.0641 20.2896 21.117C20.3213 21.1699 20.353 21.2122 20.3954 21.2439C20.48 21.3286 20.5752 21.392 20.681 21.4344C20.7868 21.4767 20.9032 21.4978 21.0196 21.4978C21.0725 21.4978 21.1254 21.4978 21.1783 21.4767C21.2312 21.4661 21.2841 21.4449 21.337 21.4238C21.337 21.4238 21.4322 21.3815 21.4851 21.3497C21.5274 21.318 21.5697 21.2862 21.612 21.2439C21.6543 21.2016 21.6861 21.1593 21.7178 21.1064C21.7496 21.0641 21.7707 21.0112 21.7919 20.9583C21.813 20.9054 21.8342 20.8525 21.8448 20.8102V20.789C21.8448 20.7361 21.8554 20.6832 21.8554 20.6303C21.8554 20.5774 21.8554 20.5245 21.8448 20.4716H21.8554Z" fill="#BABABA"/>
</g>
<defs>
<clipPath id="clip0_2150_106465">
<rect width="27" height="25" fill="white"/>
</clipPath>
</defs>
</svg>
