<svg width="23" height="25" viewBox="0 0 23 25" fill="none" xmlns="http://www.w3.org/2000/svg">
<g clip-path="url(#clip0_2150_106518)">
<path d="M20.7 15.6254V13.2816C20.7 13.0382 20.5884 12.8086 20.3986 12.661C20.2092 12.5133 19.9618 12.4653 19.7319 12.5278L17.8009 13.0645C16.6406 11.7274 15.1383 10.8007 13.4695 10.3948C14.7056 9.6868 15.5523 8.35335 15.5523 6.80838C15.5523 6.14442 15.3802 5.50573 15.0856 4.92551L16.8667 4.24476V6.25028C16.8667 6.68173 17.2099 7.03154 17.6333 7.03154C18.0567 7.03154 18.4 6.68173 18.4 6.25028C18.4 6.25028 18.4 3.12523 18.4 3.11722C18.3996 2.79145 18.2012 2.5 17.9017 2.38593L11.7684 0.049782C11.5955 -0.016594 11.4045 -0.016594 11.2316 0.049782L5.09826 2.38593C4.79878 2.5 4.60038 2.79144 4.6 3.11722C4.59962 3.44301 4.79803 3.73445 5.09751 3.84889L7.91439 4.92551C7.61978 5.50573 7.44768 6.14442 7.44768 6.80838C7.44768 8.35335 8.29441 9.6868 9.53046 10.3948C7.86165 10.8007 6.35944 11.7274 5.19905 13.0645L3.26807 12.5278C3.03934 12.4653 2.7919 12.5133 2.60135 12.661C2.41156 12.8086 2.3 13.0382 2.3 13.2816V15.6254C1.0317 15.6254 0 16.6768 0 17.9692C0 18.6024 0.242949 19.1922 0.670082 19.6164C1.09984 20.0654 1.67858 20.313 2.3 20.313V21.8755C2.3 22.228 2.53135 22.5366 2.8649 22.6293L11.2982 24.9731C11.4289 25.009 11.5712 25.009 11.7018 24.9731L20.1351 22.6293C20.4686 22.5366 20.7 22.228 20.7 21.8755V20.313C21.3214 20.313 21.9002 20.0654 22.3161 19.6305C22.7571 19.193 23 18.6028 23 17.9692C23 16.6768 21.9683 15.6254 20.7 15.6254ZM11.5 1.61535L15.4471 3.11912L11.5 4.6271L7.55286 3.11912L11.5 1.61535ZM9.35109 5.47459L11.2308 6.19306C11.3932 6.25512 11.599 6.25807 11.7692 6.19306L13.6489 5.47459C13.8909 5.87409 14.019 6.32681 14.019 6.80837C14.019 8.22365 12.8888 9.37532 11.5 9.37532C10.1112 9.37532 8.98101 8.22365 8.98101 6.80838C8.98101 6.32681 9.10908 5.87409 9.35109 5.47459ZM11.5 11.7191C13.2285 11.7191 14.85 12.3751 16.1082 13.5349L11.5 14.8155L6.89181 13.5349C8.15 12.3751 9.77153 11.7191 11.5 11.7191ZM1.75419 18.5116C1.28913 18.0261 1.63465 17.1879 2.3 17.1879H3.06667L3.06665 18.7505C2.62423 18.7505 2.09996 18.8727 1.75419 18.5116ZM3.83333 20.313C4.25672 20.313 4.6 19.9632 4.6 19.5317V16.4067C4.6 15.9752 4.25672 15.6254 3.83333 15.6254V14.3044L10.7333 16.222V23.1965L3.83333 21.2789V20.313ZM19.1667 21.2789L12.2667 23.1965V16.222L19.1667 14.3044V15.6254C18.7433 15.6254 18.4 15.9752 18.4 16.4067V19.5317C18.4 19.9632 18.7433 20.313 19.1667 20.313V21.2789ZM21.2287 18.5217C20.9026 18.8471 20.3502 18.7505 19.9333 18.7505V17.1879H20.7C21.3767 17.1879 21.7068 18.0443 21.2287 18.5217Z" fill="#BABABA"/>
</g>
<defs>
<clipPath id="clip0_2150_106518">
<rect width="23" height="25" fill="white"/>
</clipPath>
</defs>
</svg>
