<svg width="24" height="25" viewBox="0 0 24 25" fill="none" xmlns="http://www.w3.org/2000/svg">
<path d="M19.8418 10.0245C20.3635 10.5107 20.4157 11.304 19.92 11.8157C19.6592 12.0972 19.3201 12.2252 18.9549 12.2252C18.6418 12.2252 18.3288 12.1228 18.068 11.8925C12.277 6.69801 6.0426 11.6366 5.78174 11.8413C5.23395 12.3019 4.39922 12.2252 3.95576 11.6878C3.48623 11.1504 3.56448 10.3572 4.11228 9.89659C6.95559 7.56802 13.8421 4.62533 19.8418 10.0245ZM12.0683 17.1382C11.4162 17.1382 10.7641 17.3941 10.3206 17.8546C9.85107 18.3152 9.59021 18.9294 9.59021 19.5691C9.59021 20.2088 9.85107 20.8229 10.3206 21.2835C10.7901 21.7441 11.4162 22 12.0683 22C12.7205 22 13.3726 21.7441 13.816 21.2835C14.2856 20.8229 14.5464 20.2088 14.5464 19.5691C14.5464 18.9294 14.2856 18.3152 13.816 17.8546C13.3465 17.3941 12.7205 17.1382 12.0683 17.1382ZM23.5459 6.54448C17.3637 1.24764 11.3901 1.52911 7.45121 2.70619C3.25146 3.96003 0.51249 6.41654 0.408149 6.54448C-0.113559 7.03066 -0.139645 7.82391 0.355978 8.33568C0.851601 8.84746 1.68633 8.87304 2.20804 8.38686C2.23413 8.36127 4.6079 6.21183 8.23377 5.13711C13.0335 3.70414 17.5984 4.83004 21.8504 8.46363C22.0851 8.66833 22.3981 8.77069 22.7112 8.77069C23.0764 8.77069 23.4416 8.61716 23.7024 8.33568C24.1459 7.82391 24.0937 7.00508 23.5459 6.54448ZM7.68598 13.5302C7.1121 13.9652 7.03384 14.7584 7.47729 15.3214C7.92075 15.8843 8.75548 15.9611 9.30327 15.5261C9.40762 15.4493 12.1727 13.3511 14.5204 15.5005C14.7812 15.7308 15.0942 15.8331 15.4073 15.8331C15.7464 15.8331 16.1116 15.7052 16.3724 15.4237C16.868 14.912 16.842 14.0931 16.2942 13.6325C13.1378 10.7666 9.27719 12.3275 7.68598 13.5302Z" fill="#BABABA"/>
</svg>
