<svg width="143" height="31" viewBox="0 0 143 31" fill="none" xmlns="http://www.w3.org/2000/svg">
<path d="M114.11 22L116.73 14.55H118.19L120.81 22H119.55L118.98 20.33H115.95L115.37 22H114.11ZM116.29 19.28H118.62L117.3 15.38H117.63L116.29 19.28Z" fill="white"/>
<path d="M123.489 22.12C122.969 22.12 122.502 21.9967 122.089 21.75C121.682 21.4967 121.359 21.1567 121.119 20.73C120.885 20.3033 120.769 19.8233 120.769 19.29C120.769 18.7567 120.889 18.2767 121.129 17.85C121.369 17.4233 121.692 17.0867 122.099 16.84C122.505 16.5933 122.965 16.47 123.479 16.47C123.912 16.47 124.295 16.5567 124.629 16.73C124.962 16.9033 125.225 17.1433 125.419 17.45L125.249 17.71V14.43H126.369V22H125.299V20.9L125.429 21.11C125.242 21.4367 124.975 21.6867 124.629 21.86C124.282 22.0333 123.902 22.12 123.489 22.12ZM123.599 21.07C123.912 21.07 124.192 20.9933 124.439 20.84C124.692 20.6867 124.889 20.4767 125.029 20.21C125.175 19.9367 125.249 19.63 125.249 19.29C125.249 18.95 125.175 18.6467 125.029 18.38C124.889 18.1133 124.692 17.9033 124.439 17.75C124.192 17.5967 123.912 17.52 123.599 17.52C123.285 17.52 123.002 17.5967 122.749 17.75C122.495 17.9033 122.299 18.1133 122.159 18.38C122.019 18.6467 121.949 18.95 121.949 19.29C121.949 19.63 122.019 19.9367 122.159 20.21C122.299 20.4767 122.492 20.6867 122.739 20.84C122.992 20.9933 123.279 21.07 123.599 21.07Z" fill="white"/>
<path d="M127.288 22V16.59H128.368V17.76L128.228 17.58C128.341 17.2133 128.548 16.9367 128.848 16.75C129.148 16.5633 129.491 16.47 129.878 16.47C130.311 16.47 130.694 16.5867 131.028 16.82C131.368 17.0467 131.594 17.35 131.708 17.73L131.388 17.76C131.548 17.3267 131.791 17.0033 132.118 16.79C132.451 16.5767 132.831 16.47 133.258 16.47C133.631 16.47 133.968 16.5567 134.268 16.73C134.574 16.9033 134.818 17.1433 134.998 17.45C135.178 17.7567 135.268 18.1067 135.268 18.5V22H134.138V18.81C134.138 18.5367 134.088 18.3067 133.988 18.12C133.894 17.9267 133.761 17.78 133.588 17.68C133.421 17.5733 133.224 17.52 132.998 17.52C132.771 17.52 132.571 17.5733 132.398 17.68C132.224 17.78 132.088 17.9267 131.988 18.12C131.888 18.3133 131.838 18.5433 131.838 18.81V22H130.718V18.81C130.718 18.5367 130.668 18.3067 130.568 18.12C130.474 17.9267 130.341 17.78 130.168 17.68C130.001 17.5733 129.801 17.52 129.568 17.52C129.341 17.52 129.141 17.5733 128.968 17.68C128.794 17.78 128.658 17.9267 128.558 18.12C128.464 18.3133 128.418 18.5433 128.418 18.81V22H127.288Z" fill="white"/>
<path d="M136.077 22V16.59H137.207V22H136.077ZM136.077 15.85V14.55H137.207V15.85H136.077Z" fill="white"/>
<path d="M138.128 22V16.59H139.208V17.65L139.078 17.51C139.212 17.17 139.425 16.9133 139.718 16.74C140.012 16.56 140.352 16.47 140.738 16.47C141.138 16.47 141.492 16.5567 141.798 16.73C142.105 16.9033 142.345 17.1433 142.518 17.45C142.692 17.7567 142.778 18.11 142.778 18.51V22H141.658V18.81C141.658 18.5367 141.608 18.3067 141.508 18.12C141.408 17.9267 141.265 17.78 141.078 17.68C140.898 17.5733 140.692 17.52 140.458 17.52C140.225 17.52 140.015 17.5733 139.828 17.68C139.648 17.78 139.508 17.9267 139.408 18.12C139.308 18.3133 139.258 18.5433 139.258 18.81V22H138.128Z" fill="white"/>
<circle cx="10.8384" cy="10.8384" r="10.8384" fill="#E0EBA5"/>
<path d="M10.2664 16.8873C10.6137 17.2261 11.1923 17.2261 11.5561 16.8873L14.7638 13.7581C16.9795 11.5967 16.8968 8.01584 14.4828 5.98347C12.449 4.24152 9.37357 4.24152 7.33981 5.96738C4.92569 8.01591 4.82652 11.5806 7.05874 13.7581L10.2664 16.8873ZM10.9113 7.62872C12.1514 7.62872 13.1435 8.59657 13.1435 9.80632C13.1435 11.0161 12.1514 11.9839 10.9113 11.9839C9.67118 11.9839 8.67904 11.0161 8.67904 9.80632C8.67916 8.59657 9.67118 7.62872 10.9113 7.62872Z" fill="#1C1C1C"/>
<path d="M33.5718 22.2133C31.2958 22.2133 29.3075 21.6788 27.607 20.6099C25.9327 19.5149 24.7816 18.0418 24.1537 16.1907L27.9994 14.3526C28.5488 15.5519 29.3075 16.4905 30.2755 17.1684C31.2696 17.8463 32.3684 18.1852 33.5718 18.1852C34.5136 18.1852 35.2592 17.9766 35.8086 17.5595C36.358 17.1423 36.6327 16.5948 36.6327 15.9169C36.6327 15.4998 36.515 15.1608 36.2795 14.9001C36.0703 14.6133 35.7694 14.3787 35.377 14.1962C35.0107 13.9876 34.6052 13.8181 34.1605 13.6878L30.6679 12.7101C28.8628 12.1886 27.4893 11.3934 26.5475 10.3245C25.6318 9.25554 25.174 7.99106 25.174 6.53103C25.174 5.22743 25.501 4.0933 26.155 3.12864C26.8352 2.1379 27.764 1.36878 28.9412 0.821269C30.1447 0.273757 31.5182 0 33.0617 0C35.0761 0 36.8551 0.482332 38.3986 1.44699C39.9422 2.41166 41.0409 3.7674 41.695 5.51422L37.7708 7.35229C37.4045 6.38763 36.7897 5.61851 35.9264 5.04492C35.063 4.47134 34.0951 4.18455 33.0224 4.18455C32.1591 4.18455 31.4789 4.38009 30.9818 4.77117C30.4848 5.16225 30.2362 5.67065 30.2362 6.29638C30.2362 6.68746 30.3409 7.02639 30.5502 7.31318C30.7595 7.59997 31.0472 7.83462 31.4135 8.01713C31.8059 8.19963 32.2507 8.3691 32.7477 8.52553L36.1618 9.54233C37.9146 10.0638 39.262 10.8459 40.2038 11.8888C41.1717 12.9317 41.6557 14.2092 41.6557 15.7214C41.6557 16.9989 41.3156 18.133 40.6354 19.1238C39.9552 20.0884 39.0134 20.8445 37.81 21.392C36.6066 21.9395 35.1938 22.2133 33.5718 22.2133Z" fill="white"/>
<path d="M46.2434 30.3869C45.6678 30.3869 45.1054 30.3347 44.556 30.2304C44.0066 30.1522 43.5095 30.0088 43.0648 29.8002V25.4984C43.4049 25.5766 43.8104 25.6548 44.2813 25.733C44.7784 25.8112 45.2362 25.8503 45.6548 25.8503C46.832 25.8503 47.6823 25.5766 48.2055 25.0291C48.7549 24.4816 49.2389 23.7646 49.6575 22.8781L51.0702 19.5931L50.9917 23.8949L41.6913 0.469297H47.2245L53.7387 17.755H51.7766L58.2515 0.469297H63.8239L54.5235 23.8949C53.9741 25.2768 53.307 26.45 52.5222 27.4147C51.7373 28.3793 50.8217 29.1093 49.7752 29.6047C48.7549 30.1261 47.5776 30.3869 46.2434 30.3869Z" fill="white"/>
<path d="M65.0772 21.744V0.469297H69.904V4.65385L69.5116 3.91079C70.0087 2.63327 70.8197 1.66861 71.9446 1.01681C73.0957 0.338936 74.43 0 75.9473 0C77.517 0 78.9036 0.338936 80.107 1.01681C81.3366 1.69468 82.2915 2.64631 82.9717 3.87169C83.6519 5.071 83.992 6.46585 83.992 8.05623V21.744H78.8513V9.26858C78.8513 8.32999 78.6681 7.52176 78.3019 6.84389C77.9356 6.16602 77.4255 5.64458 76.7714 5.27957C76.1435 4.88849 75.3979 4.69295 74.5346 4.69295C73.6974 4.69295 72.9518 4.88849 72.2978 5.27957C71.6438 5.64458 71.1336 6.16602 70.7674 6.84389C70.4011 7.52176 70.218 8.32999 70.218 9.26858V21.744H65.0772Z" fill="white"/>
<path d="M97.0508 22.2133C94.9317 22.2133 93.0219 21.731 91.3214 20.7663C89.6471 19.7756 88.3259 18.4459 87.3579 16.7773C86.39 15.0826 85.906 13.1794 85.906 11.0675C85.906 8.95572 86.39 7.0655 87.3579 5.3969C88.3259 3.72829 89.6471 2.41166 91.3214 1.44699C93.0219 0.482332 94.9317 0 97.0508 0C98.5681 0 99.9809 0.273757 101.289 0.821269C102.597 1.34271 103.722 2.07272 104.664 3.01131C105.632 3.92383 106.325 5.01885 106.744 6.29638L102.231 8.25177C101.838 7.18282 101.171 6.32245 100.229 5.67065C99.3137 5.01885 98.2542 4.69295 97.0508 4.69295C95.9258 4.69295 94.9186 4.96671 94.0291 5.51422C93.1658 6.06173 92.4856 6.81782 91.9885 7.78248C91.4915 8.74714 91.2429 9.8552 91.2429 11.1067C91.2429 12.3581 91.4915 13.4662 91.9885 14.4308C92.4856 15.3955 93.1658 16.1516 94.0291 16.6991C94.9186 17.2466 95.9258 17.5204 97.0508 17.5204C98.2804 17.5204 99.353 17.1945 100.269 16.5427C101.184 15.8909 101.838 15.0174 102.231 13.9224L106.744 15.956C106.325 17.1553 105.645 18.2373 104.703 19.202C103.761 20.1406 102.636 20.8836 101.328 21.4311C100.02 21.9526 98.5943 22.2133 97.0508 22.2133Z" fill="white"/>
</svg>
